<svg xmlns="http://www.w3.org/2000/svg" height="512pt" version="1.1" viewBox="0 0 512 512" width="512pt">
<g id="surface1">
<path d="M 512 256 C 512 397.386719 397.386719 512 256 512 C 114.613281 512 0 397.386719 0 256 C 0 114.613281 114.613281 0 256 0 C 397.386719 0 512 114.613281 512 256 Z M 512 256 " style=" stroke:none;fill-rule:nonzero;fill:rgb(40.784314%,98.823529%,87.45098%);fill-opacity:1;" />
<path d="M 512 256 C 512 282.050781 508.109375 307.191406 500.871094 330.871094 C 468.859375 435.71875 371.328125 512 256 512 C 151.441406 512 61.511719 449.300781 21.769531 359.449219 C 7.769531 327.820312 0 292.820312 0 256 C 0 209.78125 12.25 166.429688 33.679688 129 C 77.800781 206.070312 160.839844 258 256 258 C 351.160156 258 434.210938 206.070312 478.320312 129 C 499.75 166.429688 512 209.78125 512 256 Z M 512 256 " style=" stroke:none;fill-rule:nonzero;fill:rgb(6.27451%,88.627451%,76.862745%);fill-opacity:1;" />
<path d="M 30.742188 377.703125 C 37.898438 390.921875 46.171875 403.441406 55.460938 415.128906 C 102.359375 474.148438 174.761719 512 256 512 C 337.238281 512 409.640625 474.148438 456.539062 415.128906 C 465.828125 403.441406 474.101562 390.921875 481.257812 377.703125 Z M 30.742188 377.703125 " style=" stroke:none;fill-rule:nonzero;fill:rgb(10.196078%,72.941176%,62.352941%);fill-opacity:1;" />
<path d="M 417.050781 326.390625 L 417.050781 455 C 384.539062 481.351562 345.441406 499.878906 302.609375 507.761719 C 288.351562 510.390625 273.660156 511.828125 258.671875 511.980469 C 258.660156 511.988281 258.660156 511.988281 258.648438 511.980469 C 257.769531 512 256.878906 512 256 512 C 240.25 512 224.828125 510.578125 209.859375 507.851562 C 168.039062 500.238281 129.761719 482.460938 97.671875 457.179688 L 97.671875 326.390625 Z M 417.050781 326.390625 " style=" stroke:none;fill-rule:nonzero;fill:rgb(100%,100%,100%);fill-opacity:1;" />
<path d="M 417.050781 326.390625 L 417.050781 455 C 384.539062 481.351562 345.441406 499.878906 302.609375 507.761719 C 288.351562 510.390625 273.660156 511.828125 258.671875 511.980469 C 258.660156 511.988281 258.660156 511.988281 258.648438 511.980469 L 258.648438 326.390625 Z M 417.050781 326.390625 " style=" stroke:none;fill-rule:nonzero;fill:rgb(78.039216%,85.098039%,100%);fill-opacity:1;" />
<path d="M 153.320312 327.636719 L 84.875 327.636719 L 115.683594 205.109375 C 118.066406 195.636719 126.585938 188.996094 136.355469 188.996094 L 174.234375 188.996094 Z M 153.320312 327.636719 " style=" stroke:none;fill-rule:nonzero;fill:rgb(97.647059%,63.529412%,74.901961%);fill-opacity:1;" />
<path d="M 221.761719 327.636719 L 153.320312 327.636719 L 174.234375 188.996094 L 228.734375 188.996094 Z M 221.761719 327.636719 " style=" stroke:none;fill-rule:nonzero;fill:rgb(100%,91.372549%,33.333333%);fill-opacity:1;" />
<path d="M 290.210938 327.640625 L 221.769531 327.640625 L 228.734375 188.996094 L 283.230469 188.996094 Z M 290.210938 327.640625 " style=" stroke:none;fill-rule:nonzero;fill:rgb(97.647059%,63.529412%,74.901961%);fill-opacity:1;" />
<path d="M 358.648438 327.636719 L 290.207031 327.636719 L 283.234375 188.996094 L 337.734375 188.996094 Z M 358.648438 327.636719 " style=" stroke:none;fill-rule:nonzero;fill:rgb(100%,81.960784%,7.058824%);fill-opacity:1;" />
<path d="M 427.09375 327.636719 L 358.648438 327.636719 L 337.734375 188.996094 L 375.613281 188.996094 C 385.382812 188.996094 393.902344 195.636719 396.285156 205.109375 Z M 427.09375 327.636719 " style=" stroke:none;fill-rule:nonzero;fill:rgb(97.647059%,52.156863%,65.098039%);fill-opacity:1;" />
<path d="M 119.117188 385.582031 C 100.207031 385.582031 84.875 370.25 84.875 351.339844 L 84.875 327.636719 L 153.355469 327.636719 L 153.355469 351.339844 C 153.359375 370.25 138.027344 385.582031 119.117188 385.582031 Z M 119.117188 385.582031 " style=" stroke:none;fill-rule:nonzero;fill:rgb(97.647059%,52.156863%,65.098039%);fill-opacity:1;" />
<path d="M 187.558594 385.582031 C 168.648438 385.582031 153.316406 370.25 153.316406 351.339844 L 153.316406 327.636719 L 221.800781 327.636719 L 221.800781 351.339844 C 221.800781 370.25 206.46875 385.582031 187.558594 385.582031 Z M 187.558594 385.582031 " style=" stroke:none;fill-rule:nonzero;fill:rgb(100%,81.960784%,7.058824%);fill-opacity:1;" />
<path d="M 290.242188 327.640625 L 290.242188 351.339844 C 290.242188 369.351562 276.320312 384.128906 258.648438 385.46875 C 257.773438 385.550781 256.898438 385.582031 256 385.582031 C 237.089844 385.582031 221.757812 370.25 221.757812 351.339844 L 221.757812 327.640625 Z M 290.242188 327.640625 " style=" stroke:none;fill-rule:nonzero;fill:rgb(97.647059%,52.156863%,65.098039%);fill-opacity:1;" />
<path d="M 324.441406 385.582031 C 305.53125 385.582031 290.199219 370.25 290.199219 351.339844 L 290.199219 327.636719 L 358.683594 327.636719 L 358.683594 351.339844 C 358.683594 370.25 343.351562 385.582031 324.441406 385.582031 Z M 324.441406 385.582031 " style=" stroke:none;fill-rule:nonzero;fill:rgb(100%,62.352941%,0%);fill-opacity:1;" />
<path d="M 392.882812 385.582031 C 373.972656 385.582031 358.640625 370.25 358.640625 351.339844 L 358.640625 327.636719 L 427.125 327.636719 L 427.125 351.339844 C 427.125 370.25 411.792969 385.582031 392.882812 385.582031 Z M 392.882812 385.582031 " style=" stroke:none;fill-rule:nonzero;fill:rgb(100%,39.215686%,46.666667%);fill-opacity:1;" />
<path d="M 302.609375 418.179688 L 302.609375 507.761719 C 288.351562 510.390625 273.660156 511.828125 258.671875 511.980469 C 258.660156 511.988281 258.660156 511.988281 258.648438 511.980469 C 257.769531 512 256.878906 512 256 512 C 240.25 512 224.828125 510.578125 209.859375 507.851562 L 209.859375 418.179688 C 209.859375 412.898438 214.140625 408.621094 219.421875 408.621094 L 293.058594 408.621094 C 298.328125 408.621094 302.609375 412.898438 302.609375 418.179688 Z M 302.609375 418.179688 " style=" stroke:none;fill-rule:nonzero;fill:rgb(27.843137%,30.980392%,43.529412%);fill-opacity:1;" />
<path d="M 326.859375 409.652344 L 376.027344 409.652344 L 376.027344 458.820312 L 326.859375 458.820312 Z M 326.859375 409.652344 " style=" stroke:none;fill-rule:nonzero;fill:rgb(39.607843%,69.803922%,100%);fill-opacity:1;" />
<path d="M 135.972656 409.652344 L 185.140625 409.652344 L 185.140625 458.820312 L 135.972656 458.820312 Z M 135.972656 409.652344 " style=" stroke:none;fill-rule:nonzero;fill:rgb(39.607843%,69.803922%,100%);fill-opacity:1;" />
<path d="M 328.996094 127.339844 C 328.996094 123.683594 325.546875 120.949219 322.011719 121.890625 C 310.480469 124.96875 301.984375 135.488281 301.984375 147.988281 L 301.984375 154.230469 C 301.984375 166.734375 310.480469 177.253906 322.011719 180.332031 C 325.546875 181.273438 328.996094 178.539062 328.996094 174.882812 Z M 328.996094 127.339844 " style=" stroke:none;fill-rule:nonzero;fill:rgb(5.882353%,60.784314%,90.980392%);fill-opacity:1;" />
<path d="M 183.003906 127.339844 C 183.003906 123.683594 186.453125 120.949219 189.988281 121.890625 C 201.519531 124.96875 210.015625 135.488281 210.015625 147.988281 L 210.015625 154.230469 C 210.015625 166.734375 201.519531 177.253906 189.988281 180.332031 C 186.453125 181.273438 183.003906 178.539062 183.003906 174.882812 Z M 183.003906 127.339844 " style=" stroke:none;fill-rule:nonzero;fill:rgb(39.607843%,69.803922%,100%);fill-opacity:1;" />
<path d="M 304.363281 147.160156 L 304.363281 155.054688 C 304.363281 173.925781 289.066406 189.222656 270.199219 189.222656 L 241.304688 189.222656 C 222.4375 189.222656 207.136719 173.925781 207.136719 155.054688 L 207.136719 147.160156 C 207.136719 128.292969 222.4375 113.003906 241.304688 113.003906 L 270.199219 113.003906 C 289.066406 113.003906 304.363281 128.292969 304.363281 147.160156 Z M 304.363281 147.160156 " style=" stroke:none;fill-rule:nonzero;fill:rgb(5.882353%,60.784314%,90.980392%);fill-opacity:1;" />
<path d="M 302.609375 418.179688 L 302.609375 507.761719 C 288.351562 510.390625 273.660156 511.828125 258.671875 511.980469 L 258.671875 408.621094 L 293.058594 408.621094 C 298.328125 408.621094 302.609375 412.898438 302.609375 418.179688 Z M 302.609375 418.179688 " style=" stroke:none;fill-rule:nonzero;fill:rgb(19.607843%,23.137255%,35.294118%);fill-opacity:1;" />
<path d="M 304.363281 147.160156 L 304.363281 155.054688 C 304.363281 173.925781 289.066406 189.222656 270.199219 189.222656 L 257.875 189.222656 L 257.875 113.003906 L 270.199219 113.003906 C 289.066406 113.003906 304.363281 128.292969 304.363281 147.160156 Z M 304.363281 147.160156 " style=" stroke:none;fill-rule:nonzero;fill:rgb(0%,40%,90.980392%);fill-opacity:1;" />
<path d="M 290.210938 327.640625 L 258.648438 327.640625 L 258.648438 188.996094 L 283.230469 188.996094 Z M 290.210938 327.640625 " style=" stroke:none;fill-rule:nonzero;fill:rgb(97.647059%,52.156863%,65.098039%);fill-opacity:1;" />
<path d="M 290.242188 327.640625 L 290.242188 351.339844 C 290.242188 369.351562 276.320312 384.128906 258.648438 385.46875 L 258.648438 327.640625 Z M 290.242188 327.640625 " style=" stroke:none;fill-rule:nonzero;fill:rgb(100%,39.215686%,46.666667%);fill-opacity:1;" />
<path d="M 456.726562 149.332031 C 456.726562 149.253906 456.730469 149.179688 456.730469 149.101562 C 456.730469 135.097656 445.378906 123.746094 431.375 123.746094 C 428.046875 123.746094 424.871094 124.390625 421.960938 125.558594 C 416.339844 115.484375 405.578125 108.667969 393.222656 108.667969 C 377.179688 108.667969 363.824219 120.15625 360.921875 135.359375 C 360.054688 135.234375 359.171875 135.164062 358.273438 135.164062 C 349.546875 135.164062 342.238281 141.203125 340.285156 149.328125 L 456.726562 149.328125 Z M 456.726562 149.332031 " style=" stroke:none;fill-rule:nonzero;fill:rgb(100%,100%,100%);fill-opacity:1;" />
<path d="M 431.984375 149.332031 C 431.984375 149.289062 431.988281 149.246094 431.988281 149.199219 C 431.988281 141.148438 425.460938 134.621094 417.40625 134.621094 C 415.492188 134.621094 413.667969 134.992188 411.996094 135.660156 C 408.761719 129.867188 402.574219 125.949219 395.46875 125.949219 C 386.242188 125.949219 378.5625 132.558594 376.894531 141.296875 C 376.398438 141.226562 375.890625 141.1875 375.371094 141.1875 C 370.355469 141.1875 366.152344 144.660156 365.027344 149.332031 Z M 431.984375 149.332031 " style=" stroke:none;fill-rule:nonzero;fill:rgb(81.568627%,96.470588%,100%);fill-opacity:1;" />
<path d="M 167.734375 149.332031 C 167.734375 149.253906 167.738281 149.179688 167.738281 149.101562 C 167.738281 135.097656 156.386719 123.746094 142.382812 123.746094 C 139.054688 123.746094 135.878906 124.390625 132.96875 125.558594 C 127.347656 115.484375 116.585938 108.667969 104.230469 108.667969 C 88.183594 108.667969 74.828125 120.15625 71.925781 135.359375 C 71.0625 135.234375 70.179688 135.164062 69.277344 135.164062 C 60.554688 135.164062 53.246094 141.203125 51.292969 149.328125 L 167.734375 149.328125 Z M 167.734375 149.332031 " style=" stroke:none;fill-rule:nonzero;fill:rgb(100%,100%,100%);fill-opacity:1;" />
<path d="M 142.992188 149.332031 C 142.992188 149.289062 142.992188 149.246094 142.992188 149.199219 C 142.992188 141.148438 136.464844 134.621094 128.414062 134.621094 C 126.5 134.621094 124.675781 134.992188 123 135.660156 C 119.769531 129.867188 113.582031 125.949219 106.476562 125.949219 C 97.25 125.949219 89.570312 132.558594 87.902344 141.296875 C 87.402344 141.226562 86.894531 141.1875 86.378906 141.1875 C 81.359375 141.1875 77.15625 144.660156 76.035156 149.332031 Z M 142.992188 149.332031 " style=" stroke:none;fill-rule:nonzero;fill:rgb(81.568627%,96.470588%,100%);fill-opacity:1;" />
<path d="M 325.992188 83.636719 C 325.992188 83.539062 326 83.445312 326 83.347656 C 326 65.710938 311.703125 51.410156 294.0625 51.410156 C 289.875 51.410156 285.875 52.226562 282.210938 53.695312 C 275.128906 41.007812 261.578125 32.421875 246.015625 32.421875 C 225.808594 32.421875 208.988281 46.894531 205.332031 66.039062 C 204.242188 65.882812 203.128906 65.796875 201.996094 65.796875 C 191.007812 65.796875 181.804688 73.402344 179.34375 83.636719 Z M 325.992188 83.636719 " style=" stroke:none;fill-rule:nonzero;fill:rgb(100%,100%,100%);fill-opacity:1;" />
<path d="M 294.832031 83.636719 C 294.832031 83.582031 294.835938 83.527344 294.835938 83.46875 C 294.835938 73.328125 286.613281 65.105469 276.472656 65.105469 C 274.0625 65.105469 271.765625 65.574219 269.65625 66.417969 C 265.585938 59.121094 257.792969 54.1875 248.84375 54.1875 C 237.226562 54.1875 227.554688 62.507812 225.449219 73.515625 C 224.824219 73.425781 224.183594 73.378906 223.53125 73.378906 C 217.214844 73.378906 211.921875 77.75 210.507812 83.632812 L 294.832031 83.632812 Z M 294.832031 83.636719 " style=" stroke:none;fill-rule:nonzero;fill:rgb(81.568627%,96.470588%,100%);fill-opacity:1;" />
</g>
</svg>