<svg xmlns="http://www.w3.org/2000/svg" height="511pt" version="1.1" viewBox="0 0 511 511.99993" width="511pt">
<g id="surface1">
<path d="M 512.078125 255.789062 C 512.078125 397.058594 397.558594 511.578125 256.289062 511.578125 C 115.019531 511.578125 0.5 397.058594 0.5 255.789062 C 0.5 114.519531 115.019531 0 256.289062 0 C 397.558594 0 512.078125 114.519531 512.078125 255.789062 Z M 512.078125 255.789062 " style=" stroke:none;fill-rule:nonzero;fill:rgb(100%,91.372549%,33.333333%);fill-opacity:1;" />
<path d="M 512.078125 255.789062 C 512.078125 281.816406 508.191406 306.9375 500.957031 330.597656 C 468.972656 435.359375 371.523438 511.578125 256.289062 511.578125 C 151.816406 511.578125 61.960938 448.929688 22.253906 359.152344 C 8.261719 327.550781 0.5 292.578125 0.5 255.789062 C 0.5 209.605469 12.738281 166.292969 34.152344 128.894531 C 78.234375 205.898438 161.207031 257.789062 256.289062 257.789062 C 351.371094 257.789062 434.351562 205.898438 478.425781 128.894531 C 499.839844 166.292969 512.078125 209.605469 512.078125 255.789062 Z M 512.078125 255.789062 " style=" stroke:none;fill-rule:nonzero;fill:rgb(100%,81.960784%,7.058824%);fill-opacity:1;" />
<path d="M 31.214844 377.394531 C 38.367188 390.597656 46.632812 403.109375 55.914062 414.789062 C 102.777344 473.757812 175.117188 511.578125 256.289062 511.578125 C 337.460938 511.578125 409.800781 473.757812 456.664062 414.789062 C 465.941406 403.109375 474.210938 390.597656 481.363281 377.394531 Z M 31.214844 377.394531 " style=" stroke:none;fill-rule:nonzero;fill:rgb(100%,62.352941%,0%);fill-opacity:1;" />
<path d="M 408.691406 384.222656 C 408.597656 390.835938 408.210938 397.433594 407.367188 403.96875 C 405.296875 419.945312 400.667969 435.570312 393.691406 450.09375 C 390.277344 457.199219 386.308594 464.042969 381.835938 470.535156 C 379.609375 473.765625 377.257812 476.910156 374.789062 479.960938 C 373.625 481.402344 372.441406 483.300781 370.957031 484.421875 C 369.054688 485.859375 366.402344 486.730469 364.246094 487.734375 C 332.308594 502.632812 297.355469 510.71875 262.128906 511.511719 C 224.722656 512.355469 187.222656 504.875 152.976562 489.816406 C 144.03125 485.882812 139.457031 482.480469 133.667969 474.601562 C 128.585938 467.6875 124.09375 460.339844 120.246094 452.671875 C 112.5625 437.363281 107.464844 420.773438 105.238281 403.792969 C 104.386719 397.296875 103.953125 390.75 103.945312 384.199219 C 103.898438 343.5625 109.324219 302.652344 121.292969 263.773438 C 131.019531 232.179688 145.179688 201.304688 165.820312 175.296875 C 182.269531 154.570312 203.558594 136.5 229.21875 128.65625 C 245.226562 123.761719 262.289062 123.304688 278.496094 127.324219 C 280.574219 127.839844 282.625 128.441406 284.667969 129.078125 C 297.015625 132.96875 308.515625 139.542969 318.8125 147.386719 C 318.804688 147.378906 318.800781 147.371094 318.792969 147.363281 C 331.75 157.429688 342.964844 169.582031 352.503906 182.90625 C 352.496094 182.898438 352.492188 182.886719 352.484375 182.878906 C 362.578125 197.199219 371.054688 212.375 378.160156 228.402344 C 380.566406 233.824219 382.847656 239.371094 384.871094 244.914062 C 385.609375 246.851562 386.367188 248.832031 386.996094 250.785156 C 387.636719 252.550781 388.320312 254.414062 388.835938 256.144531 C 389.019531 256.703125 389.230469 257.351562 389.398438 257.835938 C 395.222656 274.796875 399.289062 292.644531 402.375 310.339844 C 405.003906 325.414062 406.734375 340.628906 407.734375 355.898438 C 408.347656 365.28125 408.824219 374.769531 408.691406 384.222656 Z M 408.691406 384.222656 " style=" stroke:none;fill-rule:nonzero;fill:rgb(91.764706%,50.980392%,30.588235%);fill-opacity:1;" />
<path d="M 408.660156 384.222656 C 408.300781 399.296875 406.445312 414.265625 402.019531 428.761719 C 397.53125 443.457031 390.789062 457.449219 382.113281 470.128906 C 379.988281 473.234375 377.75 476.261719 375.402344 479.199219 C 374.386719 480.472656 373.367188 481.757812 372.289062 482.984375 C 370.601562 484.90625 368.472656 485.730469 366.1875 486.820312 C 358.730469 490.375 351.101562 493.566406 343.332031 496.378906 C 310.328125 508.328125 274.878906 513.199219 239.863281 511.035156 C 229.480469 510.390625 226.570312 509.78125 220.179688 501.5625 C 215.167969 495.109375 210.570312 488.335938 206.429688 481.292969 C 197.96875 466.898438 191.417969 451.382812 187.066406 435.257812 C 178.789062 404.566406 179.847656 372.605469 182.4375 341.195312 C 187.726562 277.035156 204.132812 211.71875 237.679688 156.257812 C 242.011719 149.09375 246.648438 142.109375 251.617188 135.367188 C 254.007812 132.125 256.386719 128.652344 259.113281 125.679688 C 260.390625 124.289062 262.265625 125.75 264.039062 125.90625 C 271.046875 126.519531 277.921875 126.957031 284.628906 129.066406 C 303.976562 135.398438 320.972656 147.433594 335.144531 162.023438 C 338.308594 165.28125 341.410156 168.894531 344.257812 172.214844 C 356.289062 186.535156 366.003906 202.824219 374.113281 219.628906 C 377.066406 225.753906 379.746094 232.042969 382.3125 238.292969 C 394.855469 270.121094 402.582031 303.644531 406.1875 337.648438 C 407.8125 353.019531 409.03125 368.675781 408.660156 384.222656 Z M 408.660156 384.222656 " style=" stroke:none;fill-rule:nonzero;fill:rgb(77.254902%,34.509804%,20.784314%);fill-opacity:1;" />
<path d="M 408.691406 384.222656 C 408.652344 386.660156 408.574219 389.085938 408.460938 391.511719 C 407.5 411.585938 402.585938 431.390625 393.953125 449.546875 C 389.898438 458.070312 385.050781 466.214844 379.492188 473.839844 C 376.816406 477.515625 373.886719 482.464844 370.019531 484.917969 C 365.601562 487.726562 360.21875 489.632812 355.398438 491.660156 C 335.257812 500.140625 314.023438 505.992188 292.382812 509.050781 C 284.5 510.164062 263.308594 515.136719 258.699219 508.96875 C 254.148438 502.886719 258.707031 475.34375 258.707031 467.308594 C 258.707031 438.644531 258.707031 409.980469 258.707031 381.320312 C 258.707031 311.929688 258.707031 242.539062 258.707031 173.144531 C 258.707031 161.441406 258.707031 149.738281 258.707031 138.035156 C 258.707031 133.695312 259.21875 128.847656 258.640625 124.601562 C 272.648438 124.953125 286.636719 128.730469 299.035156 134.941406 C 314.148438 142.136719 327.425781 153.464844 338.640625 165.753906 C 349.601562 177.769531 358.890625 191.289062 366.785156 205.488281 C 375.824219 221.738281 383.128906 238.925781 388.976562 256.566406 C 398.230469 284.488281 403.984375 313.648438 406.714844 342.941406 C 407.988281 356.582031 408.914062 370.46875 408.691406 384.222656 Z M 408.691406 384.222656 " style=" stroke:none;fill-rule:nonzero;fill:rgb(65.098039%,22.352941%,7.843137%);fill-opacity:1;" />
<path d="M 400.015625 297.914062 C 396.804688 299.546875 392.976562 300.597656 388.042969 300.597656 C 366.085938 300.597656 366.085938 279.804688 344.121094 279.804688 C 322.15625 279.804688 322.15625 300.597656 300.199219 300.597656 C 279.078125 300.597656 278.265625 281.375 258.710938 279.898438 C 257.933594 279.835938 257.121094 279.804688 256.277344 279.804688 C 234.3125 279.804688 234.3125 300.597656 212.359375 300.597656 C 200.683594 300.597656 195.214844 294.722656 189.363281 289.214844 C 184.195312 284.371094 178.730469 279.804688 168.4375 279.804688 C 146.484375 279.804688 146.484375 300.597656 124.527344 300.597656 C 119.601562 300.597656 115.773438 299.546875 112.5625 297.925781 C 133.433594 196.941406 189.902344 124.570312 256.289062 124.570312 C 257.101562 124.570312 257.910156 124.582031 258.710938 124.601562 C 259.136719 124.609375 259.554688 124.621094 259.980469 124.652344 C 260.488281 124.675781 260.988281 124.695312 261.496094 124.726562 C 261.632812 124.734375 261.777344 124.746094 261.914062 124.757812 C 263.667969 124.859375 265.414062 125.015625 267.164062 125.234375 C 267.527344 125.277344 267.878906 125.320312 268.234375 125.371094 C 268.347656 125.378906 268.460938 125.390625 268.585938 125.414062 C 269.066406 125.472656 269.535156 125.546875 270.011719 125.621094 C 271.757812 125.878906 273.503906 126.203125 275.230469 126.566406 C 275.636719 126.648438 276.03125 126.734375 276.433594 126.828125 C 276.632812 126.867188 276.820312 126.910156 277.019531 126.960938 C 277.808594 127.148438 278.585938 127.335938 279.378906 127.542969 C 279.722656 127.625 280.074219 127.722656 280.417969 127.8125 C 281.09375 127.992188 281.757812 128.175781 282.421875 128.386719 C 284.441406 128.976562 286.4375 129.632812 288.421875 130.371094 C 288.710938 130.472656 289.003906 130.578125 289.296875 130.691406 C 289.304688 130.691406 289.316406 130.691406 289.324219 130.703125 C 289.566406 130.785156 289.792969 130.878906 290.03125 130.972656 C 290.636719 131.203125 291.238281 131.441406 291.851562 131.691406 C 292.027344 131.753906 292.195312 131.828125 292.371094 131.898438 C 292.796875 132.074219 293.222656 132.253906 293.648438 132.449219 C 294.285156 132.71875 294.917969 133 295.554688 133.292969 C 296.113281 133.542969 296.675781 133.800781 297.238281 134.070312 C 297.839844 134.351562 298.441406 134.644531 299.042969 134.945312 C 299.167969 134.996094 299.285156 135.058594 299.410156 135.121094 C 299.867188 135.351562 300.324219 135.601562 300.792969 135.839844 C 300.90625 135.890625 301.019531 135.953125 301.132812 136.015625 C 301.351562 136.140625 301.582031 136.253906 301.808594 136.371094 C 301.933594 136.441406 302.058594 136.496094 302.183594 136.566406 C 302.640625 136.816406 303.097656 137.066406 303.566406 137.324219 C 303.816406 137.460938 304.054688 137.597656 304.304688 137.742188 C 304.886719 138.074219 305.46875 138.40625 306.050781 138.75 C 306.78125 139.175781 307.496094 139.613281 308.214844 140.058594 C 308.933594 140.496094 309.648438 140.953125 310.367188 141.421875 C 311.082031 141.878906 311.789062 142.347656 312.496094 142.835938 C 313.203125 143.3125 313.910156 143.800781 314.617188 144.300781 C 316.3125 145.484375 317.984375 146.734375 319.640625 148.03125 C 319.972656 148.28125 320.292969 148.542969 320.617188 148.792969 C 320.699219 148.863281 320.773438 148.925781 320.855469 148.988281 C 320.9375 149.050781 321.023438 149.113281 321.105469 149.175781 C 321.71875 149.664062 322.320312 150.164062 322.933594 150.683594 C 323.058594 150.777344 323.183594 150.882812 323.308594 150.984375 C 323.722656 151.339844 324.140625 151.691406 324.558594 152.046875 C 325.667969 152.992188 326.761719 153.957031 327.851562 154.945312 C 328.527344 155.546875 329.191406 156.171875 329.859375 156.808594 C 330.078125 157.003906 330.285156 157.203125 330.480469 157.398438 C 330.691406 157.597656 330.898438 157.792969 331.105469 157.992188 C 331.519531 158.398438 331.9375 158.792969 332.34375 159.199219 C 332.414062 159.269531 332.476562 159.332031 332.550781 159.417969 C 333.328125 160.1875 334.109375 160.976562 334.890625 161.765625 C 334.898438 161.765625 334.898438 161.777344 334.910156 161.785156 C 335.667969 162.566406 336.417969 163.347656 337.167969 164.148438 C 337.207031 164.199219 337.261719 164.25 337.3125 164.3125 C 337.957031 164.988281 338.589844 165.683594 339.203125 166.382812 C 340.566406 167.878906 341.90625 169.417969 343.238281 170.996094 C 343.808594 171.671875 344.382812 172.359375 344.941406 173.054688 C 345.359375 173.554688 345.765625 174.0625 346.171875 174.570312 C 346.324219 174.757812 346.480469 174.945312 346.628906 175.132812 C 346.867188 175.433594 347.117188 175.746094 347.34375 176.050781 C 347.53125 176.277344 347.707031 176.507812 347.886719 176.734375 C 348.09375 177.007812 348.300781 177.265625 348.507812 177.535156 C 348.695312 177.773438 348.882812 178.015625 349.058594 178.261719 C 349.539062 178.886719 350.015625 179.511719 350.484375 180.144531 C 350.785156 180.539062 351.074219 180.933594 351.367188 181.328125 C 351.542969 181.578125 351.71875 181.816406 351.898438 182.066406 C 352.917969 183.472656 353.925781 184.894531 354.921875 186.339844 C 355.109375 186.601562 355.285156 186.871094 355.472656 187.128906 C 355.496094 187.171875 355.523438 187.203125 355.554688 187.246094 C 355.722656 187.484375 355.878906 187.734375 356.035156 187.972656 C 356.929688 189.28125 357.800781 190.601562 358.65625 191.933594 C 359.007812 192.464844 359.351562 193.003906 359.695312 193.554688 C 359.964844 193.980469 360.222656 194.398438 360.484375 194.8125 C 360.898438 195.457031 361.304688 196.113281 361.710938 196.769531 C 361.730469 196.820312 361.761719 196.871094 361.792969 196.921875 C 363.875 200.332031 365.910156 203.847656 367.863281 207.453125 C 368.34375 208.316406 368.8125 209.191406 369.289062 210.074219 C 369.402344 210.292969 369.519531 210.511719 369.632812 210.726562 C 369.683594 210.8125 369.726562 210.894531 369.765625 210.976562 C 369.847656 211.132812 369.921875 211.28125 369.996094 211.4375 C 371.648438 214.574219 373.238281 217.777344 374.789062 221.050781 C 374.902344 221.28125 375.015625 221.519531 375.128906 221.757812 C 375.296875 222.113281 375.464844 222.464844 375.628906 222.828125 C 375.835938 223.265625 376.035156 223.691406 376.230469 224.128906 C 376.449219 224.597656 376.667969 225.074219 376.886719 225.554688 C 377.15625 226.167969 377.425781 226.769531 377.695312 227.382812 C 377.976562 227.984375 378.246094 228.597656 378.507812 229.210938 C 378.640625 229.515625 378.777344 229.824219 378.914062 230.128906 C 379.007812 230.34375 379.101562 230.574219 379.195312 230.792969 C 379.703125 231.976562 380.214844 233.171875 380.703125 234.367188 C 381.273438 235.722656 381.824219 237.070312 382.363281 238.445312 C 382.875 239.703125 383.363281 240.96875 383.851562 242.25 C 384.351562 243.546875 384.839844 244.855469 385.328125 246.167969 C 385.703125 247.164062 386.066406 248.171875 386.429688 249.191406 C 386.492188 249.359375 386.554688 249.535156 386.617188 249.710938 C 386.941406 250.617188 387.261719 251.53125 387.574219 252.445312 C 388.4375 254.929688 389.277344 257.4375 390.078125 259.972656 C 390.253906 260.480469 390.421875 261.011719 390.585938 261.53125 C 390.640625 261.707031 390.703125 261.894531 390.753906 262.082031 C 391.324219 263.910156 391.886719 265.742188 392.425781 267.582031 C 392.6875 268.464844 392.945312 269.339844 393.195312 270.222656 C 395.078125 276.773438 396.804688 283.476562 398.363281 290.328125 C 398.632812 291.5 398.894531 292.6875 399.152344 293.882812 C 399.414062 295.046875 399.664062 296.222656 399.902344 297.394531 C 399.945312 297.570312 399.976562 297.738281 400.015625 297.914062 Z M 400.015625 297.914062 " style=" stroke:none;fill-rule:nonzero;fill:rgb(97.647059%,63.529412%,74.901961%);fill-opacity:1;" />
<path d="M 399.753906 297.765625 C 392.777344 301.402344 384.082031 301.535156 376.996094 298.117188 C 368.941406 294.234375 363.382812 286.347656 355.359375 282.402344 C 348.097656 278.835938 339.136719 278.964844 331.984375 282.742188 C 324.628906 286.621094 319.488281 293.863281 312.128906 297.734375 C 304.699219 301.640625 295.320312 301.582031 287.9375 297.578125 C 280.980469 293.800781 276.066406 286.992188 269.148438 283.144531 C 261.675781 278.988281 252.140625 278.800781 244.515625 282.664062 C 237.105469 286.414062 232.085938 293.484375 224.886719 297.625 C 215.878906 302.808594 194.273438 302.34375 191.253906 289.199219 C 190.359375 285.3125 191.058594 281.257812 191.820312 277.34375 C 202.085938 224.597656 222.640625 173.316406 253.75 129.503906 C 255.132812 127.554688 256.640625 125.53125 258.832031 124.570312 C 261.746094 125.105469 264.441406 124.96875 266.742188 125.292969 C 290.148438 128.578125 311.867188 140.160156 329.242188 156.179688 C 346.617188 172.203125 359.941406 192.199219 370.726562 213.234375 C 384.363281 239.832031 394.183594 268.386719 399.789062 297.75 C 399.773438 297.753906 399.765625 297.761719 399.753906 297.765625 Z M 399.753906 297.765625 " style=" stroke:none;fill-rule:nonzero;fill:rgb(97.647059%,52.156863%,65.098039%);fill-opacity:1;" />
<path d="M 400.015625 297.914062 C 396.804688 299.546875 392.976562 300.597656 388.042969 300.597656 C 366.085938 300.597656 366.085938 279.804688 344.121094 279.804688 C 322.15625 279.804688 322.15625 300.597656 300.199219 300.597656 C 279.078125 300.597656 278.265625 281.375 258.710938 279.898438 L 258.710938 124.601562 C 259.140625 124.609375 259.554688 124.621094 259.980469 124.652344 C 260.488281 124.675781 260.988281 124.695312 261.496094 124.726562 C 263.015625 124.808594 264.523438 124.933594 266.019531 125.101562 C 267.527344 125.257812 269.023438 125.453125 270.511719 125.695312 C 272.496094 125.996094 274.472656 126.378906 276.4375 126.828125 C 277.421875 127.042969 278.402344 127.285156 279.378906 127.542969 C 279.722656 127.625 280.074219 127.722656 280.417969 127.8125 C 281.09375 127.992188 281.757812 128.175781 282.421875 128.386719 C 283.347656 128.65625 284.273438 128.945312 285.199219 129.246094 C 285.6875 129.402344 286.167969 129.558594 286.644531 129.734375 C 288.566406 130.390625 290.46875 131.109375 292.371094 131.898438 C 292.839844 132.097656 293.320312 132.292969 293.785156 132.5 C 294.253906 132.707031 294.734375 132.917969 295.199219 133.125 C 296.613281 133.746094 298.019531 134.414062 299.410156 135.121094 C 300.335938 135.589844 301.261719 136.066406 302.1875 136.566406 C 302.644531 136.816406 303.101562 137.0625 303.570312 137.324219 C 304.484375 137.824219 305.386719 138.351562 306.304688 138.894531 C 306.761719 139.164062 307.21875 139.433594 307.664062 139.714844 C 308.121094 139.996094 308.578125 140.265625 309.027344 140.558594 C 310.378906 141.398438 311.730469 142.28125 313.058594 143.207031 C 313.507812 143.507812 313.945312 143.820312 314.390625 144.132812 C 316.65625 145.722656 318.890625 147.40625 321.105469 149.175781 C 321.84375 149.765625 322.574219 150.371094 323.3125 150.984375 C 324.339844 151.847656 325.371094 152.730469 326.386719 153.632812 C 326.710938 153.914062 327.03125 154.207031 327.355469 154.496094 C 328.199219 155.246094 329.027344 156.015625 329.859375 156.804688 C 330.289062 157.199219 330.691406 157.597656 331.109375 157.992188 C 331.523438 158.394531 331.9375 158.792969 332.34375 159.195312 C 333.582031 160.402344 334.796875 161.648438 336.015625 162.929688 C 336.421875 163.34375 336.824219 163.769531 337.21875 164.207031 C 337.648438 164.652344 338.0625 165.101562 338.476562 165.558594 C 339.589844 166.777344 340.691406 168.011719 341.785156 169.28125 C 343.414062 171.183594 345.035156 173.128906 346.628906 175.132812 C 347.261719 175.925781 347.886719 176.722656 348.507812 177.535156 C 349.464844 178.78125 350.421875 180.050781 351.367188 181.328125 C 352.011719 182.222656 352.667969 183.117188 353.300781 184.019531 C 354.027344 185.050781 354.757812 186.089844 355.472656 187.128906 C 355.496094 187.171875 355.523438 187.203125 355.554688 187.246094 C 356.230469 188.253906 356.917969 189.273438 357.59375 190.300781 C 357.605469 190.3125 357.605469 190.3125 357.605469 190.320312 C 358.308594 191.394531 359.007812 192.464844 359.691406 193.554688 C 360.367188 194.617188 361.035156 195.6875 361.710938 196.769531 C 361.730469 196.820312 361.761719 196.871094 361.792969 196.921875 C 362.457031 198.015625 363.125 199.128906 363.777344 200.238281 C 364.453125 201.371094 365.109375 202.515625 365.761719 203.671875 C 366.4375 204.84375 367.09375 206.03125 367.75 207.234375 C 368.382812 208.390625 369.007812 209.554688 369.628906 210.730469 C 369.683594 210.8125 369.722656 210.894531 369.765625 210.980469 C 370.285156 211.988281 370.816406 213.007812 371.335938 214.035156 C 371.460938 214.253906 371.574219 214.472656 371.675781 214.699219 C 372.851562 217.019531 374.003906 219.367188 375.128906 221.757812 C 375.71875 223.015625 376.304688 224.285156 376.882812 225.554688 C 377.425781 226.769531 377.976562 227.984375 378.507812 229.210938 C 378.640625 229.515625 378.777344 229.824219 378.910156 230.128906 C 379.371094 231.1875 379.816406 232.246094 380.265625 233.308594 C 380.816406 234.628906 381.367188 235.949219 381.894531 237.269531 C 382.4375 238.601562 382.964844 239.941406 383.484375 241.292969 C 383.933594 242.445312 384.378906 243.609375 384.816406 244.773438 C 384.992188 245.230469 385.160156 245.699219 385.328125 246.167969 C 385.703125 247.164062 386.066406 248.171875 386.429688 249.191406 C 386.492188 249.359375 386.554688 249.535156 386.617188 249.710938 C 387.050781 250.929688 387.480469 252.15625 387.90625 253.390625 C 387.9375 253.476562 387.964844 253.558594 387.988281 253.640625 C 388.464844 255.046875 388.933594 256.449219 389.402344 257.863281 C 389.796875 259.078125 390.191406 260.304688 390.585938 261.53125 C 390.699219 261.917969 390.824219 262.3125 390.949219 262.707031 C 391.261719 263.714844 391.574219 264.734375 391.886719 265.753906 C 392.011719 266.179688 392.144531 266.617188 392.269531 267.054688 C 392.644531 268.300781 393.007812 269.546875 393.359375 270.804688 C 393.601562 271.636719 393.839844 272.480469 394.066406 273.332031 C 394.277344 274.039062 394.472656 274.753906 394.660156 275.472656 C 395.730469 279.402344 396.738281 283.382812 397.6875 287.429688 C 397.882812 288.238281 398.070312 289.058594 398.257812 289.871094 C 398.871094 292.53125 399.457031 295.210938 400.015625 297.914062 Z M 400.015625 297.914062 " style=" stroke:none;fill-rule:nonzero;fill:rgb(100%,39.215686%,46.666667%);fill-opacity:1;" />
<path d="M 187.285156 239.6875 C 187.285156 246.144531 182.046875 251.382812 175.589844 251.382812 C 169.132812 251.382812 163.894531 246.144531 163.894531 239.6875 C 163.894531 233.230469 169.132812 227.992188 175.589844 227.992188 C 182.046875 227.992188 187.285156 233.230469 187.285156 239.6875 Z M 187.285156 239.6875 " style=" stroke:none;fill-rule:nonzero;fill:rgb(100%,100%,100%);fill-opacity:1;" />
<path d="M 255.855469 226.441406 C 255.855469 232.902344 250.621094 238.136719 244.160156 238.136719 C 237.703125 238.136719 232.464844 232.902344 232.464844 226.441406 C 232.464844 219.984375 237.703125 214.746094 244.160156 214.746094 C 250.621094 214.746094 255.855469 219.984375 255.855469 226.441406 Z M 255.855469 226.441406 " style=" stroke:none;fill-rule:nonzero;fill:rgb(100%,100%,100%);fill-opacity:1;" />
<path d="M 318.921875 259.707031 C 318.921875 266.167969 313.683594 271.402344 307.226562 271.402344 C 300.765625 271.402344 295.53125 266.167969 295.53125 259.707031 C 295.53125 253.25 300.765625 248.011719 307.226562 248.011719 C 313.683594 248.011719 318.921875 253.25 318.921875 259.707031 Z M 318.921875 259.707031 " style=" stroke:none;fill-rule:nonzero;fill:rgb(100%,100%,100%);fill-opacity:1;" />
<path d="M 361.195312 223.667969 C 361.195312 230.128906 355.960938 235.363281 349.5 235.363281 C 343.042969 235.363281 337.808594 230.128906 337.808594 223.667969 C 337.808594 217.210938 343.042969 211.976562 349.5 211.976562 C 355.960938 211.976562 361.195312 217.210938 361.195312 223.667969 Z M 361.195312 223.667969 " style=" stroke:none;fill-rule:nonzero;fill:rgb(100%,100%,100%);fill-opacity:1;" />
<path d="M 308.523438 164.070312 C 308.523438 170.527344 303.289062 175.765625 296.832031 175.765625 C 290.371094 175.765625 285.136719 170.527344 285.136719 164.070312 C 285.136719 157.609375 290.371094 152.375 296.832031 152.375 C 303.289062 152.375 308.523438 157.609375 308.523438 164.070312 Z M 308.523438 164.070312 " style=" stroke:none;fill-rule:nonzero;fill:rgb(100%,100%,100%);fill-opacity:1;" />
<path d="M 221.898438 167.535156 C 221.898438 173.992188 216.660156 179.230469 210.203125 179.230469 C 203.742188 179.230469 198.507812 173.992188 198.507812 167.535156 C 198.507812 161.078125 203.742188 155.839844 210.203125 155.839844 C 216.660156 155.839844 221.898438 161.078125 221.898438 167.535156 Z M 221.898438 167.535156 " style=" stroke:none;fill-rule:nonzero;fill:rgb(100%,100%,100%);fill-opacity:1;" />
</g>
</svg>