<svg xmlns="http://www.w3.org/2000/svg" height="512pt" version="1.1" viewBox="0 0 512 512" width="512pt">
<g id="surface1">
<path d="M 512 256 C 512 397.386719 397.386719 512 256 512 C 114.613281 512 0 397.386719 0 256 C 0 114.613281 114.613281 0 256 0 C 397.386719 0 512 114.613281 512 256 Z M 512 256 " style=" stroke:none;fill-rule:nonzero;fill:rgb(39.607843%,69.803922%,100%);fill-opacity:1;" />
<path d="M 512 256 C 512 282.050781 508.109375 307.191406 500.871094 330.871094 C 468.859375 435.71875 371.328125 512 256 512 C 151.441406 512 61.511719 449.300781 21.769531 359.449219 C 7.769531 327.820312 0 292.820312 0 256 C 0 209.78125 12.25 166.429688 33.679688 129 C 77.800781 206.070312 160.839844 258 256 258 C 351.160156 258 434.210938 206.070312 478.320312 129 C 499.75 166.429688 512 209.78125 512 256 Z M 512 256 " style=" stroke:none;fill-rule:nonzero;fill:rgb(5.882353%,60.784314%,90.980392%);fill-opacity:1;" />
<path d="M 30.742188 377.703125 C 37.898438 390.921875 46.171875 403.441406 55.460938 415.128906 C 102.359375 474.148438 174.761719 512 256 512 C 337.238281 512 409.640625 474.148438 456.539062 415.128906 C 465.828125 403.441406 474.101562 390.921875 481.257812 377.703125 Z M 30.742188 377.703125 " style=" stroke:none;fill-rule:nonzero;fill:rgb(0%,40%,90.980392%);fill-opacity:1;" />
<path d="M 143.5 120.5 L 143.5 315 L 110.5 315 L 110.5 120.5 C 110.5 111.390625 117.890625 104 127 104 C 131.558594 104 135.679688 105.851562 138.671875 108.828125 C 141.648438 111.820312 143.5 115.949219 143.5 120.5 Z M 143.5 120.5 " style=" stroke:none;fill-rule:nonzero;fill:rgb(91.764706%,50.980392%,30.588235%);fill-opacity:1;" />
<path d="M 143.5 120.5 L 143.5 315 L 127 315 L 127 104 C 131.558594 104 135.679688 105.851562 138.671875 108.828125 C 141.648438 111.820312 143.5 115.949219 143.5 120.5 Z M 143.5 120.5 " style=" stroke:none;fill-rule:nonzero;fill:rgb(77.254902%,34.509804%,20.784314%);fill-opacity:1;" />
<path d="M 176.5 120.5 L 176.5 315 L 143.5 315 L 143.5 120.5 C 143.5 111.390625 150.890625 104 160 104 C 164.558594 104 168.679688 105.851562 171.671875 108.828125 C 174.648438 111.820312 176.5 115.949219 176.5 120.5 Z M 176.5 120.5 " style=" stroke:none;fill-rule:nonzero;fill:rgb(91.764706%,50.980392%,30.588235%);fill-opacity:1;" />
<path d="M 176.5 120.5 L 176.5 315 L 160 315 L 160 104 C 164.558594 104 168.679688 105.851562 171.671875 108.828125 C 174.648438 111.820312 176.5 115.949219 176.5 120.5 Z M 176.5 120.5 " style=" stroke:none;fill-rule:nonzero;fill:rgb(77.254902%,34.509804%,20.784314%);fill-opacity:1;" />
<path d="M 209.5 120.5 L 209.5 315 L 176.5 315 L 176.5 120.5 C 176.5 111.390625 183.890625 104 193 104 C 197.558594 104 201.679688 105.851562 204.671875 108.828125 C 207.648438 111.820312 209.5 115.949219 209.5 120.5 Z M 209.5 120.5 " style=" stroke:none;fill-rule:nonzero;fill:rgb(91.764706%,50.980392%,30.588235%);fill-opacity:1;" />
<path d="M 209.5 120.5 L 209.5 315 L 193 315 L 193 104 C 197.558594 104 201.679688 105.851562 204.671875 108.828125 C 207.648438 111.820312 209.5 115.949219 209.5 120.5 Z M 209.5 120.5 " style=" stroke:none;fill-rule:nonzero;fill:rgb(77.254902%,34.509804%,20.784314%);fill-opacity:1;" />
<path d="M 242.5 120.5 L 242.5 315 L 209.5 315 L 209.5 120.5 C 209.5 111.390625 216.890625 104 226 104 C 230.558594 104 234.679688 105.851562 237.671875 108.828125 C 240.648438 111.820312 242.5 115.949219 242.5 120.5 Z M 242.5 120.5 " style=" stroke:none;fill-rule:nonzero;fill:rgb(91.764706%,50.980392%,30.588235%);fill-opacity:1;" />
<path d="M 242.5 120.5 L 242.5 315 L 226 315 L 226 104 C 230.558594 104 234.679688 105.851562 237.671875 108.828125 C 240.648438 111.820312 242.5 115.949219 242.5 120.5 Z M 242.5 120.5 " style=" stroke:none;fill-rule:nonzero;fill:rgb(77.254902%,34.509804%,20.784314%);fill-opacity:1;" />
<path d="M 275.5 120.5 L 275.5 315 L 242.5 315 L 242.5 120.5 C 242.5 111.390625 249.890625 104 259 104 C 263.558594 104 267.679688 105.851562 270.671875 108.828125 C 273.648438 111.820312 275.5 115.949219 275.5 120.5 Z M 275.5 120.5 " style=" stroke:none;fill-rule:nonzero;fill:rgb(91.764706%,50.980392%,30.588235%);fill-opacity:1;" />
<path d="M 275.5 120.5 L 275.5 315 L 259 315 L 259 104 C 263.558594 104 267.679688 105.851562 270.671875 108.828125 C 273.648438 111.820312 275.5 115.949219 275.5 120.5 Z M 275.5 120.5 " style=" stroke:none;fill-rule:nonzero;fill:rgb(77.254902%,34.509804%,20.784314%);fill-opacity:1;" />
<path d="M 308.5 120.5 L 308.5 315 L 275.5 315 L 275.5 120.5 C 275.5 111.390625 282.890625 104 292 104 C 296.558594 104 300.679688 105.851562 303.671875 108.828125 C 306.648438 111.820312 308.5 115.949219 308.5 120.5 Z M 308.5 120.5 " style=" stroke:none;fill-rule:nonzero;fill:rgb(91.764706%,50.980392%,30.588235%);fill-opacity:1;" />
<path d="M 308.5 120.5 L 308.5 315 L 292 315 L 292 104 C 296.558594 104 300.679688 105.851562 303.671875 108.828125 C 306.648438 111.820312 308.5 115.949219 308.5 120.5 Z M 308.5 120.5 " style=" stroke:none;fill-rule:nonzero;fill:rgb(77.254902%,34.509804%,20.784314%);fill-opacity:1;" />
<path d="M 341.5 120.5 L 341.5 315 L 308.5 315 L 308.5 120.5 C 308.5 111.390625 315.890625 104 325 104 C 329.558594 104 333.679688 105.851562 336.671875 108.828125 C 339.648438 111.820312 341.5 115.949219 341.5 120.5 Z M 341.5 120.5 " style=" stroke:none;fill-rule:nonzero;fill:rgb(91.764706%,50.980392%,30.588235%);fill-opacity:1;" />
<path d="M 341.5 120.5 L 341.5 315 L 325 315 L 325 104 C 329.558594 104 333.679688 105.851562 336.671875 108.828125 C 339.648438 111.820312 341.5 115.949219 341.5 120.5 Z M 341.5 120.5 " style=" stroke:none;fill-rule:nonzero;fill:rgb(77.254902%,34.509804%,20.784314%);fill-opacity:1;" />
<path d="M 110.5 230.171875 L 127 230.171875 L 127 315 L 110.5 315 Z M 110.5 230.171875 " style=" stroke:none;fill-rule:nonzero;fill:rgb(65.098039%,22.352941%,7.843137%);fill-opacity:1;" />
<path d="M 143.5 230.171875 L 160 230.171875 L 160 315 L 143.5 315 Z M 143.5 230.171875 " style=" stroke:none;fill-rule:nonzero;fill:rgb(65.098039%,22.352941%,7.843137%);fill-opacity:1;" />
<path d="M 127 230.171875 L 143.5 230.171875 L 143.5 315 L 127 315 Z M 127 230.171875 " style=" stroke:none;fill-rule:nonzero;fill:rgb(47.843137%,17.647059%,10.196078%);fill-opacity:1;" />
<path d="M 176.5 230.171875 L 193 230.171875 L 193 315 L 176.5 315 Z M 176.5 230.171875 " style=" stroke:none;fill-rule:nonzero;fill:rgb(65.098039%,22.352941%,7.843137%);fill-opacity:1;" />
<path d="M 160 230.171875 L 176.5 230.171875 L 176.5 315 L 160 315 Z M 160 230.171875 " style=" stroke:none;fill-rule:nonzero;fill:rgb(47.843137%,17.647059%,10.196078%);fill-opacity:1;" />
<path d="M 209.5 230.171875 L 226 230.171875 L 226 315 L 209.5 315 Z M 209.5 230.171875 " style=" stroke:none;fill-rule:nonzero;fill:rgb(65.098039%,22.352941%,7.843137%);fill-opacity:1;" />
<path d="M 193 230.171875 L 209.5 230.171875 L 209.5 315 L 193 315 Z M 193 230.171875 " style=" stroke:none;fill-rule:nonzero;fill:rgb(47.843137%,17.647059%,10.196078%);fill-opacity:1;" />
<path d="M 242.5 230.171875 L 259 230.171875 L 259 315 L 242.5 315 Z M 242.5 230.171875 " style=" stroke:none;fill-rule:nonzero;fill:rgb(65.098039%,22.352941%,7.843137%);fill-opacity:1;" />
<path d="M 226 230.171875 L 242.5 230.171875 L 242.5 315 L 226 315 Z M 226 230.171875 " style=" stroke:none;fill-rule:nonzero;fill:rgb(47.843137%,17.647059%,10.196078%);fill-opacity:1;" />
<path d="M 275.5 230.171875 L 292 230.171875 L 292 315 L 275.5 315 Z M 275.5 230.171875 " style=" stroke:none;fill-rule:nonzero;fill:rgb(65.098039%,22.352941%,7.843137%);fill-opacity:1;" />
<path d="M 259 230.171875 L 275.5 230.171875 L 275.5 315 L 259 315 Z M 259 230.171875 " style=" stroke:none;fill-rule:nonzero;fill:rgb(47.843137%,17.647059%,10.196078%);fill-opacity:1;" />
<path d="M 308.5 230.171875 L 325 230.171875 L 325 315 L 308.5 315 Z M 308.5 230.171875 " style=" stroke:none;fill-rule:nonzero;fill:rgb(65.098039%,22.352941%,7.843137%);fill-opacity:1;" />
<path d="M 292 230.171875 L 308.5 230.171875 L 308.5 315 L 292 315 Z M 292 230.171875 " style=" stroke:none;fill-rule:nonzero;fill:rgb(47.843137%,17.647059%,10.196078%);fill-opacity:1;" />
<path d="M 325 230.171875 L 341.5 230.171875 L 341.5 315 L 325 315 Z M 325 230.171875 " style=" stroke:none;fill-rule:nonzero;fill:rgb(47.843137%,17.647059%,10.196078%);fill-opacity:1;" />
<path d="M 430.5 120.5 L 430.5 443.320312 C 425.199219 448.25 419.699219 452.960938 414 457.441406 C 408.671875 461.628906 403.160156 465.609375 397.5 469.371094 L 397.5 120.921875 C 397.5 111.78125 404.75 104.058594 413.890625 104 L 414 104 C 414.28125 104 414.570312 104.011719 414.851562 104.019531 C 415.378906 104.050781 415.898438 104.101562 416.421875 104.179688 C 420.011719 104.710938 423.21875 106.390625 425.671875 108.828125 C 428.648438 111.820312 430.5 115.949219 430.5 120.5 Z M 430.5 120.5 " style=" stroke:none;fill-rule:nonzero;fill:rgb(91.764706%,50.980392%,30.588235%);fill-opacity:1;" />
<path d="M 430.5 120.5 L 430.5 443.320312 C 425.199219 448.25 419.699219 452.960938 414 457.441406 L 414 104 C 414.28125 104 414.570312 104.011719 414.851562 104.019531 C 415.378906 104.050781 415.910156 104.101562 416.421875 104.179688 C 420.011719 104.710938 423.21875 106.390625 425.671875 108.828125 C 428.648438 111.820312 430.5 115.949219 430.5 120.5 Z M 430.5 120.5 " style=" stroke:none;fill-rule:nonzero;fill:rgb(77.254902%,34.509804%,20.784314%);fill-opacity:1;" />
<path d="M 414 230.171875 L 414 457.441406 C 408.671875 461.628906 403.160156 465.609375 397.5 469.371094 L 397.5 230.171875 Z M 414 230.171875 " style=" stroke:none;fill-rule:nonzero;fill:rgb(65.098039%,22.352941%,7.843137%);fill-opacity:1;" />
<path d="M 430.5 230.171875 L 430.5 443.320312 C 425.199219 448.25 419.699219 452.960938 414 457.441406 L 414 230.171875 Z M 430.5 230.171875 " style=" stroke:none;fill-rule:nonzero;fill:rgb(47.843137%,17.647059%,10.196078%);fill-opacity:1;" />
<path d="M 357 332.230469 L 95 332.230469 L 95 275.679688 L 357 275.679688 Z M 357 332.230469 " style=" stroke:none;fill-rule:nonzero;fill:rgb(100%,100%,100%);fill-opacity:1;" />
<path d="M 226 275.679688 L 357 275.679688 L 357 332.230469 L 226 332.230469 Z M 226 275.679688 " style=" stroke:none;fill-rule:nonzero;fill:rgb(66.666667%,83.529412%,97.647059%);fill-opacity:1;" />
<path d="M 357 332.230469 L 357 491.300781 C 326.011719 504.621094 291.871094 512 256 512 L 226 512 L 226 510.261719 C 176.691406 504.5 131.660156 484.730469 95 455.039062 L 95 332.230469 Z M 357 332.230469 " style=" stroke:none;fill-rule:nonzero;fill:rgb(100%,91.372549%,33.333333%);fill-opacity:1;" />
<path d="M 357 332.230469 L 357 491.300781 C 326.011719 504.621094 291.871094 512 256 512 L 226 512 L 226 332.230469 Z M 357 332.230469 " style=" stroke:none;fill-rule:nonzero;fill:rgb(100%,81.960784%,7.058824%);fill-opacity:1;" />
<path d="M 357 332.230469 L 357 424.679688 L 226 378.460938 L 95 332.230469 Z M 357 332.230469 " style=" stroke:none;fill-rule:nonzero;fill:rgb(100%,81.960784%,7.058824%);fill-opacity:1;" />
<path d="M 357 332.230469 L 357 424.679688 L 226 378.460938 L 226 332.230469 Z M 357 332.230469 " style=" stroke:none;fill-rule:nonzero;fill:rgb(100%,62.352941%,0%);fill-opacity:1;" />
</g>
</svg>