<svg xmlns="http://www.w3.org/2000/svg" height="512pt" version="1.1" viewBox="0 0 512 512" width="512pt">
<g id="surface1">
<path d="M 512 256 C 512 397.386719 397.386719 512 256 512 C 114.613281 512 0 397.386719 0 256 C 0 114.613281 114.613281 0 256 0 C 397.386719 0 512 114.613281 512 256 Z M 512 256 " style=" stroke:none;fill-rule:nonzero;fill:rgb(100%,91.372549%,33.333333%);fill-opacity:1;" />
<path d="M 512 256 C 512 282.050781 508.109375 307.191406 500.871094 330.871094 C 468.859375 435.71875 371.328125 512 256 512 C 151.441406 512 61.511719 449.300781 21.769531 359.449219 C 7.769531 327.820312 0 292.820312 0 256 C 0 209.78125 12.25 166.429688 33.679688 129 C 77.800781 206.070312 160.839844 258 256 258 C 351.160156 258 434.210938 206.070312 478.320312 129 C 499.75 166.429688 512 209.78125 512 256 Z M 512 256 " style=" stroke:none;fill-rule:nonzero;fill:rgb(100%,81.960784%,7.058824%);fill-opacity:1;" />
<path d="M 30.742188 377.703125 C 37.898438 390.921875 46.171875 403.441406 55.460938 415.128906 C 102.359375 474.148438 174.761719 512 256 512 C 337.238281 512 409.640625 474.148438 456.539062 415.128906 C 465.828125 403.441406 474.101562 390.921875 481.257812 377.703125 Z M 30.742188 377.703125 " style=" stroke:none;fill-rule:nonzero;fill:rgb(100%,62.352941%,0%);fill-opacity:1;" />
<path d="M 121.839844 474.070312 L 121.839844 474.058594 L 119.238281 455.28125 L 111.238281 397.570312 L 111.230469 397.570312 L 101.511719 327.429688 L 93.511719 269.71875 L 83.78125 199.570312 L 81.46875 182.910156 L 102.109375 180.050781 L 121.351562 177.378906 L 161.230469 171.851562 L 168.269531 222.609375 L 178 292.761719 L 186 350.460938 L 195.71875 420.609375 L 203.71875 478.308594 L 203.730469 478.308594 L 207.769531 507.460938 C 193.191406 504.679688 179.050781 500.671875 165.46875 495.53125 C 165.460938 495.53125 165.460938 495.519531 165.460938 495.519531 C 158.359375 492.839844 151.398438 489.851562 144.621094 486.550781 C 136.800781 482.78125 129.191406 478.601562 121.839844 474.070312 Z M 121.839844 474.070312 " style=" stroke:none;fill-rule:nonzero;fill:rgb(77.254902%,34.509804%,20.784314%);fill-opacity:1;" />
<path d="M 121.839844 474.070312 L 121.839844 474.058594 L 119.238281 455.28125 L 111.238281 397.570312 L 111.230469 397.570312 L 101.511719 327.429688 L 93.511719 269.71875 L 83.78125 199.570312 L 81.46875 182.910156 L 102.109375 180.050781 L 121.351562 177.378906 L 123 189.261719 L 126.019531 211.089844 L 135.75 281.238281 L 143.75 338.949219 L 153.480469 409.101562 L 161.480469 466.800781 L 165.46875 495.53125 C 165.460938 495.53125 165.460938 495.519531 165.460938 495.519531 C 158.359375 492.839844 151.398438 489.851562 144.621094 486.550781 C 136.800781 482.78125 129.191406 478.601562 121.839844 474.070312 Z M 121.839844 474.070312 " style=" stroke:none;fill-rule:nonzero;fill:rgb(91.764706%,50.980392%,30.588235%);fill-opacity:1;" />
<path d="M 121.839844 474.070312 L 121.839844 474.058594 L 119.238281 455.28125 L 111.238281 397.570312 L 111.230469 397.570312 L 101.511719 327.429688 L 93.511719 269.71875 L 83.78125 199.570312 L 81.46875 182.910156 L 102.109375 180.050781 L 103.550781 190.460938 L 105.640625 205.53125 L 115.371094 275.679688 L 123.378906 333.390625 L 133.101562 403.539062 L 141.109375 461.238281 L 141.109375 461.25 L 144.621094 486.550781 C 136.800781 482.78125 129.191406 478.601562 121.839844 474.070312 Z M 121.839844 474.070312 " style=" stroke:none;fill-rule:nonzero;fill:rgb(100%,65.882353%,47.843137%);fill-opacity:1;" />
<path d="M 161.21875 171.851562 C 160.308594 165.289062 141.714844 162.445312 119.691406 165.5 C 97.664062 168.554688 80.546875 176.347656 81.457031 182.90625 C 82.367188 189.46875 100.957031 192.3125 122.984375 189.257812 C 145.007812 186.203125 162.128906 178.410156 161.21875 171.851562 Z M 161.21875 171.851562 " style=" stroke:none;fill-rule:nonzero;fill:rgb(47.843137%,17.647059%,10.196078%);fill-opacity:1;" />
<path d="M 168.269531 222.609375 L 177.996094 292.757812 L 135.75 281.242188 L 93.503906 269.722656 L 83.777344 199.574219 L 126.023438 211.09375 Z M 168.269531 222.609375 " style=" stroke:none;fill-rule:nonzero;fill:rgb(47.843137%,17.647059%,10.196078%);fill-opacity:1;" />
<path d="M 186 350.460938 L 195.726562 420.609375 L 153.480469 409.09375 L 111.230469 397.574219 L 101.503906 327.425781 L 143.753906 338.945312 Z M 186 350.460938 " style=" stroke:none;fill-rule:nonzero;fill:rgb(47.843137%,17.647059%,10.196078%);fill-opacity:1;" />
<path d="M 207.769531 507.460938 C 193.191406 504.679688 179.050781 500.671875 165.46875 495.53125 C 165.460938 495.53125 165.460938 495.519531 165.460938 495.519531 C 158.359375 492.839844 151.398438 489.851562 144.621094 486.550781 C 136.800781 482.78125 129.191406 478.601562 121.839844 474.070312 L 121.839844 474.058594 L 119.230469 455.28125 L 119.238281 455.28125 L 141.109375 461.238281 L 141.109375 461.25 L 161.480469 466.800781 L 203.71875 478.308594 L 203.730469 478.308594 Z M 207.769531 507.460938 " style=" stroke:none;fill-rule:nonzero;fill:rgb(47.843137%,17.647059%,10.196078%);fill-opacity:1;" />
<path d="M 126.023438 211.09375 L 135.75 281.242188 L 115.375 275.683594 L 93.503906 269.722656 L 83.777344 199.574219 L 105.648438 205.535156 Z M 126.023438 211.09375 " style=" stroke:none;fill-rule:nonzero;fill:rgb(77.254902%,34.509804%,20.784314%);fill-opacity:1;" />
<path d="M 143.753906 338.945312 L 153.480469 409.09375 L 133.105469 403.535156 L 111.230469 397.574219 L 101.503906 327.425781 L 123.378906 333.386719 Z M 143.753906 338.945312 " style=" stroke:none;fill-rule:nonzero;fill:rgb(77.254902%,34.509804%,20.784314%);fill-opacity:1;" />
<path d="M 165.460938 495.519531 C 158.359375 492.839844 151.398438 489.851562 144.621094 486.550781 C 136.800781 482.78125 129.191406 478.601562 121.839844 474.070312 L 121.839844 474.058594 L 119.230469 455.28125 L 119.238281 455.28125 L 141.109375 461.238281 L 161.480469 466.800781 Z M 165.460938 495.519531 " style=" stroke:none;fill-rule:nonzero;fill:rgb(77.254902%,34.509804%,20.784314%);fill-opacity:1;" />
<path d="M 105.648438 205.535156 L 115.375 275.683594 L 93.503906 269.722656 L 83.777344 199.574219 Z M 105.648438 205.535156 " style=" stroke:none;fill-rule:nonzero;fill:rgb(91.764706%,50.980392%,30.588235%);fill-opacity:1;" />
<path d="M 101.503906 327.425781 L 123.378906 333.386719 L 133.105469 403.535156 L 111.230469 397.574219 Z M 101.503906 327.425781 " style=" stroke:none;fill-rule:nonzero;fill:rgb(91.764706%,50.980392%,30.588235%);fill-opacity:1;" />
<path d="M 121.839844 474.070312 L 121.839844 474.058594 L 119.230469 455.28125 L 119.238281 455.28125 L 141.109375 461.238281 L 141.109375 461.25 L 144.621094 486.550781 C 136.800781 482.78125 129.191406 478.601562 121.839844 474.070312 Z M 121.839844 474.070312 " style=" stroke:none;fill-rule:nonzero;fill:rgb(91.764706%,50.980392%,30.588235%);fill-opacity:1;" />
<path d="M 430.53125 182.910156 L 428.21875 199.570312 L 427.808594 202.488281 L 418.488281 269.71875 L 410.488281 327.429688 L 400.769531 397.570312 L 400.761719 397.570312 L 392.761719 455.28125 L 390.160156 474.058594 L 390.160156 474.070312 C 382.808594 478.601562 375.199219 482.78125 367.378906 486.550781 C 360.601562 489.851562 353.640625 492.839844 346.539062 495.519531 C 346.539062 495.519531 346.539062 495.53125 346.53125 495.53125 C 332.949219 500.671875 318.808594 504.679688 304.230469 507.460938 L 308.269531 478.308594 L 308.28125 478.308594 L 316.28125 420.609375 L 326 350.460938 L 334 292.761719 L 343.730469 222.609375 L 350.769531 171.851562 L 390.648438 177.378906 L 409.890625 180.050781 Z M 430.53125 182.910156 " style=" stroke:none;fill-rule:nonzero;fill:rgb(77.254902%,34.509804%,20.784314%);fill-opacity:1;" />
<path d="M 430.53125 182.910156 L 428.21875 199.570312 L 427.808594 202.488281 L 418.488281 269.71875 L 410.488281 327.429688 L 400.769531 397.570312 L 400.761719 397.570312 L 392.761719 455.28125 L 390.160156 474.058594 L 390.160156 474.070312 C 382.808594 478.601562 375.199219 482.78125 367.378906 486.550781 C 360.601562 489.851562 353.640625 492.839844 346.539062 495.519531 C 346.539062 495.519531 346.539062 495.53125 346.53125 495.53125 L 350.519531 466.800781 L 358.519531 409.101562 L 368.25 338.949219 L 376.25 281.238281 L 385.980469 211.089844 L 389 189.261719 L 390.648438 177.378906 L 409.890625 180.050781 Z M 430.53125 182.910156 " style=" stroke:none;fill-rule:nonzero;fill:rgb(91.764706%,50.980392%,30.588235%);fill-opacity:1;" />
<path d="M 430.53125 182.910156 L 428.21875 199.570312 L 427.808594 202.488281 L 418.488281 269.71875 L 410.488281 327.429688 L 400.769531 397.570312 L 400.761719 397.570312 L 392.761719 455.28125 L 390.160156 474.058594 L 390.160156 474.070312 C 382.808594 478.601562 375.199219 482.78125 367.378906 486.550781 L 370.890625 461.25 L 370.890625 461.238281 L 378.898438 403.539062 L 388.621094 333.390625 L 396.628906 275.679688 L 406.359375 205.53125 L 408.449219 190.460938 L 409.890625 180.050781 Z M 430.53125 182.910156 " style=" stroke:none;fill-rule:nonzero;fill:rgb(100%,65.882353%,47.843137%);fill-opacity:1;" />
<path d="M 392.273438 165.5 C 370.25 162.445312 351.65625 165.289062 350.746094 171.847656 C 349.835938 178.410156 366.957031 186.203125 388.980469 189.257812 C 411.007812 192.308594 429.597656 189.464844 430.507812 182.90625 C 431.417969 176.34375 414.300781 168.550781 392.273438 165.5 Z M 392.273438 165.5 " style=" stroke:none;fill-rule:nonzero;fill:rgb(47.843137%,17.647059%,10.196078%);fill-opacity:1;" />
<path d="M 343.730469 222.609375 L 334.003906 292.757812 L 376.25 281.242188 L 418.496094 269.722656 L 428.222656 199.574219 L 385.976562 211.09375 Z M 343.730469 222.609375 " style=" stroke:none;fill-rule:nonzero;fill:rgb(47.843137%,17.647059%,10.196078%);fill-opacity:1;" />
<path d="M 326 350.460938 L 316.273438 420.609375 L 358.519531 409.09375 L 400.769531 397.574219 L 410.496094 327.425781 L 368.246094 338.945312 Z M 326 350.460938 " style=" stroke:none;fill-rule:nonzero;fill:rgb(47.843137%,17.647059%,10.196078%);fill-opacity:1;" />
<path d="M 392.769531 455.28125 L 390.171875 474.058594 L 390.160156 474.058594 L 390.160156 474.070312 C 382.808594 478.601562 375.199219 482.78125 367.378906 486.550781 C 360.601562 489.851562 353.640625 492.839844 346.539062 495.519531 C 346.539062 495.519531 346.539062 495.53125 346.53125 495.53125 C 332.949219 500.671875 318.808594 504.679688 304.230469 507.460938 L 308.269531 478.308594 L 308.28125 478.308594 L 350.519531 466.800781 L 370.890625 461.25 L 370.890625 461.238281 L 392.761719 455.28125 Z M 392.769531 455.28125 " style=" stroke:none;fill-rule:nonzero;fill:rgb(47.843137%,17.647059%,10.196078%);fill-opacity:1;" />
<path d="M 385.976562 211.09375 L 376.25 281.242188 L 396.625 275.683594 L 418.496094 269.722656 L 428.222656 199.574219 L 406.351562 205.535156 Z M 385.976562 211.09375 " style=" stroke:none;fill-rule:nonzero;fill:rgb(77.254902%,34.509804%,20.784314%);fill-opacity:1;" />
<path d="M 368.246094 338.945312 L 358.519531 409.09375 L 378.894531 403.535156 L 400.769531 397.574219 L 410.496094 327.425781 L 388.621094 333.386719 Z M 368.246094 338.945312 " style=" stroke:none;fill-rule:nonzero;fill:rgb(77.254902%,34.509804%,20.784314%);fill-opacity:1;" />
<path d="M 392.769531 455.28125 L 390.171875 474.058594 L 390.160156 474.058594 L 390.160156 474.070312 C 382.808594 478.601562 375.199219 482.78125 367.378906 486.550781 C 360.601562 489.851562 353.640625 492.839844 346.539062 495.519531 L 350.519531 466.800781 L 370.890625 461.238281 L 392.761719 455.28125 Z M 392.769531 455.28125 " style=" stroke:none;fill-rule:nonzero;fill:rgb(77.254902%,34.509804%,20.784314%);fill-opacity:1;" />
<path d="M 406.351562 205.535156 L 396.625 275.683594 L 418.496094 269.722656 L 428.222656 199.574219 Z M 406.351562 205.535156 " style=" stroke:none;fill-rule:nonzero;fill:rgb(91.764706%,50.980392%,30.588235%);fill-opacity:1;" />
<path d="M 410.496094 327.425781 L 388.621094 333.386719 L 378.894531 403.535156 L 400.769531 397.574219 Z M 410.496094 327.425781 " style=" stroke:none;fill-rule:nonzero;fill:rgb(91.764706%,50.980392%,30.588235%);fill-opacity:1;" />
<path d="M 392.769531 455.28125 L 390.171875 474.058594 L 390.160156 474.058594 L 390.160156 474.070312 C 382.808594 478.601562 375.199219 482.78125 367.378906 486.550781 L 370.890625 461.25 L 370.890625 461.238281 L 392.761719 455.28125 Z M 392.769531 455.28125 " style=" stroke:none;fill-rule:nonzero;fill:rgb(91.764706%,50.980392%,30.588235%);fill-opacity:1;" />
<path d="M 294.679688 116.441406 L 294.679688 509.101562 C 282.058594 511.011719 269.148438 512 256 512 C 255.46875 512 254.949219 512 254.421875 511.988281 C 247.890625 511.960938 241.410156 511.671875 235 511.148438 C 227.96875 510.578125 221.011719 509.71875 214.148438 508.589844 L 214.148438 116.441406 Z M 294.679688 116.441406 " style=" stroke:none;fill-rule:nonzero;fill:rgb(77.254902%,34.509804%,20.784314%);fill-opacity:1;" />
<path d="M 254.421875 116.449219 L 254.421875 511.988281 C 247.890625 511.960938 241.410156 511.671875 235 511.148438 C 227.96875 510.578125 221.011719 509.71875 214.148438 508.589844 L 214.148438 116.449219 Z M 254.421875 116.449219 " style=" stroke:none;fill-rule:nonzero;fill:rgb(91.764706%,50.980392%,30.588235%);fill-opacity:1;" />
<path d="M 235 116.449219 L 235 511.148438 C 227.96875 510.578125 221.011719 509.71875 214.148438 508.589844 L 214.148438 116.449219 Z M 235 116.449219 " style=" stroke:none;fill-rule:nonzero;fill:rgb(100%,65.882353%,47.843137%);fill-opacity:1;" />
<path d="M 294.679688 116.445312 C 294.679688 109.820312 276.65625 104.453125 254.417969 104.453125 C 232.179688 104.453125 214.15625 109.820312 214.15625 116.445312 C 214.15625 123.070312 232.179688 128.4375 254.417969 128.4375 C 276.65625 128.4375 294.679688 123.070312 294.679688 116.445312 Z M 294.679688 116.445312 " style=" stroke:none;fill-rule:nonzero;fill:rgb(47.843137%,17.647059%,10.196078%);fill-opacity:1;" />
<path d="M 294.683594 167.691406 L 294.683594 238.511719 L 254.417969 221.304688 L 214.152344 204.089844 L 214.152344 133.269531 L 254.417969 150.484375 Z M 294.683594 167.691406 " style=" stroke:none;fill-rule:nonzero;fill:rgb(47.843137%,17.647059%,10.196078%);fill-opacity:1;" />
<path d="M 294.683594 296.769531 L 294.683594 367.589844 L 254.417969 350.378906 L 214.152344 333.164062 L 214.152344 262.347656 Z M 294.683594 296.769531 " style=" stroke:none;fill-rule:nonzero;fill:rgb(47.843137%,17.647059%,10.196078%);fill-opacity:1;" />
<path d="M 294.683594 425.84375 L 294.683594 496.664062 L 254.417969 479.457031 L 214.152344 462.242188 L 214.152344 391.421875 L 254.417969 408.636719 Z M 294.683594 425.84375 " style=" stroke:none;fill-rule:nonzero;fill:rgb(47.843137%,17.647059%,10.196078%);fill-opacity:1;" />
<path d="M 254.417969 150.484375 L 254.417969 221.304688 L 235 213 L 214.152344 204.089844 L 214.152344 133.269531 L 235 142.179688 Z M 254.417969 150.484375 " style=" stroke:none;fill-rule:nonzero;fill:rgb(77.254902%,34.509804%,20.784314%);fill-opacity:1;" />
<path d="M 254.417969 279.558594 L 254.417969 350.378906 L 235 342.074219 L 214.152344 333.164062 L 214.152344 262.347656 L 235 271.253906 Z M 254.417969 279.558594 " style=" stroke:none;fill-rule:nonzero;fill:rgb(77.254902%,34.509804%,20.784314%);fill-opacity:1;" />
<path d="M 254.417969 408.636719 L 254.417969 479.457031 L 235 471.152344 L 214.152344 462.242188 L 214.152344 391.421875 L 235 400.332031 Z M 254.417969 408.636719 " style=" stroke:none;fill-rule:nonzero;fill:rgb(77.254902%,34.509804%,20.784314%);fill-opacity:1;" />
<path d="M 235 142.179688 L 235 213 L 214.152344 204.089844 L 214.152344 133.269531 Z M 235 142.179688 " style=" stroke:none;fill-rule:nonzero;fill:rgb(91.764706%,50.980392%,30.588235%);fill-opacity:1;" />
<path d="M 214.152344 262.347656 L 235 271.253906 L 235 342.074219 L 214.152344 333.164062 Z M 214.152344 262.347656 " style=" stroke:none;fill-rule:nonzero;fill:rgb(91.764706%,50.980392%,30.588235%);fill-opacity:1;" />
<path d="M 214.152344 391.421875 L 235 400.332031 L 235 471.152344 L 214.152344 462.242188 Z M 214.152344 391.421875 " style=" stroke:none;fill-rule:nonzero;fill:rgb(91.764706%,50.980392%,30.588235%);fill-opacity:1;" />
</g>
</svg>