<svg xmlns="http://www.w3.org/2000/svg" height="512pt" version="1.1" viewBox="0 0 512 512" width="512pt">
<g id="surface1">
<path d="M 512 256 C 512 397.386719 397.386719 512 256 512 C 114.613281 512 0 397.386719 0 256 C 0 114.613281 114.613281 0 256 0 C 397.386719 0 512 114.613281 512 256 Z M 512 256 " style=" stroke:none;fill-rule:nonzero;fill:rgb(39.607843%,69.803922%,100%);fill-opacity:1;" />
<path d="M 512 256 C 512 282.050781 508.109375 307.191406 500.871094 330.871094 C 468.859375 435.71875 371.328125 512 256 512 C 151.441406 512 61.511719 449.300781 21.769531 359.449219 C 7.769531 327.820312 0 292.820312 0 256 C 0 209.78125 12.25 166.429688 33.679688 129 C 77.800781 206.070312 160.839844 258 256 258 C 351.160156 258 434.210938 206.070312 478.320312 129 C 499.75 166.429688 512 209.78125 512 256 Z M 512 256 " style=" stroke:none;fill-rule:nonzero;fill:rgb(5.882353%,60.784314%,90.980392%);fill-opacity:1;" />
<path d="M 30.742188 377.703125 C 37.898438 390.921875 46.171875 403.441406 55.460938 415.128906 C 102.359375 474.148438 174.761719 512 256 512 C 337.238281 512 409.640625 474.148438 456.539062 415.128906 C 465.828125 403.441406 474.101562 390.921875 481.257812 377.703125 Z M 30.742188 377.703125 " style=" stroke:none;fill-rule:nonzero;fill:rgb(0%,40%,90.980392%);fill-opacity:1;" />
<path d="M 174.929688 130.996094 C 147.140625 130.953125 124.578125 153.445312 124.539062 181.234375 C 124.496094 209.023438 146.988281 231.585938 174.777344 231.625 C 202.566406 231.667969 225.125 209.175781 225.167969 181.386719 C 225.210938 153.597656 202.714844 131.039062 174.929688 130.996094 Z M 174.929688 130.996094 " style=" stroke:none;fill-rule:nonzero;fill:rgb(100%,91.372549%,33.333333%);fill-opacity:1;" />
<path d="M 174.894531 153.734375 C 159.664062 153.710938 147.296875 166.039062 147.273438 181.269531 C 147.253906 196.5 159.582031 208.867188 174.8125 208.890625 C 190.042969 208.910156 202.40625 196.582031 202.429688 181.351562 C 202.453125 166.121094 190.125 153.753906 174.894531 153.734375 Z M 174.894531 153.734375 " style=" stroke:none;fill-rule:nonzero;fill:rgb(100%,39.215686%,46.666667%);fill-opacity:1;" />
<path d="M 337.066406 131.242188 C 309.277344 131.199219 286.714844 153.695312 286.675781 181.480469 C 286.632812 209.269531 309.125 231.832031 336.914062 231.871094 C 364.703125 231.914062 387.261719 209.421875 387.304688 181.632812 C 387.347656 153.84375 364.851562 131.285156 337.066406 131.242188 Z M 337.066406 131.242188 " style=" stroke:none;fill-rule:nonzero;fill:rgb(100%,81.960784%,7.058824%);fill-opacity:1;" />
<path d="M 337.03125 153.980469 C 321.800781 153.957031 309.433594 166.285156 309.410156 181.515625 C 309.386719 196.746094 321.71875 209.113281 336.949219 209.136719 C 352.179688 209.15625 364.542969 196.828125 364.566406 181.597656 C 364.589844 166.367188 352.261719 154.003906 337.03125 153.980469 Z M 337.03125 153.980469 " style=" stroke:none;fill-rule:nonzero;fill:rgb(86.666667%,7.058824%,39.607843%);fill-opacity:1;" />
<path d="M 179.441406 423.097656 L 174.15625 431.011719 C 155.558594 458.84375 112.160156 445.644531 112.210938 412.171875 C 112.21875 405.5 114.203125 398.980469 117.90625 393.433594 L 179.625 301.050781 Z M 179.441406 423.097656 " style=" stroke:none;fill-rule:nonzero;fill:rgb(100%,81.960784%,7.058824%);fill-opacity:1;" />
<path d="M 332.527344 423.332031 L 337.789062 431.257812 C 356.296875 459.148438 399.738281 446.082031 399.789062 412.609375 C 399.800781 405.9375 397.839844 399.410156 394.148438 393.855469 L 332.710938 301.285156 Z M 332.527344 423.332031 " style=" stroke:none;fill-rule:nonzero;fill:rgb(100%,81.960784%,7.058824%);fill-opacity:1;" />
<path d="M 354.152344 240.304688 C 354.140625 249.636719 352.816406 258.648438 350.363281 267.195312 C 338.808594 307.46875 332.636719 349.101562 332.574219 391 L 332.535156 417.007812 C 332.503906 438.148438 323.90625 457.265625 310.03125 471.089844 C 296.421875 484.664062 277.726562 493.136719 257.0625 493.410156 C 256.671875 493.429688 256.269531 493.429688 255.878906 493.429688 C 213.605469 493.363281 179.390625 459.042969 179.453125 416.773438 L 179.492188 390.765625 C 179.558594 348.65625 173.148438 306.890625 161.917969 266.316406 C 159.617188 258.011719 158.386719 249.269531 158.371094 240.246094 C 158.328125 186.355469 201.144531 142.933594 255.035156 142.269531 C 255.492188 142.261719 255.953125 142.261719 256.410156 142.265625 C 257.585938 142.265625 258.761719 142.285156 259.929688 142.335938 C 312.363281 144.269531 354.234375 187.417969 354.152344 240.304688 Z M 354.152344 240.304688 " style=" stroke:none;fill-rule:nonzero;fill:rgb(100%,91.372549%,33.333333%);fill-opacity:1;" />
<path d="M 354.152344 240.304688 C 354.140625 249.636719 352.816406 258.648438 350.363281 267.195312 C 338.808594 307.46875 332.636719 349.101562 332.574219 391 L 332.535156 417.007812 C 332.503906 438.148438 323.90625 457.265625 310.03125 471.089844 C 296.421875 484.664062 277.726562 493.136719 257.0625 493.410156 C 238.085938 478.152344 225.960938 454.71875 226 428.46875 L 226.042969 400.214844 C 226.113281 354.472656 219.15625 309.101562 206.953125 265.015625 C 204.453125 255.996094 203.117188 246.496094 203.097656 236.695312 C 203.0625 195.582031 225.996094 160.078125 259.929688 142.335938 C 312.363281 144.269531 354.234375 187.417969 354.152344 240.304688 Z M 354.152344 240.304688 " style=" stroke:none;fill-rule:nonzero;fill:rgb(100%,81.960784%,7.058824%);fill-opacity:1;" />
<path d="M 354.152344 240.304688 C 354.140625 249.636719 352.816406 258.648438 350.363281 267.195312 C 338.808594 307.46875 332.636719 349.101562 332.574219 391 L 332.535156 417.007812 C 332.503906 438.148438 323.90625 457.265625 310.03125 471.089844 C 296.164062 484.925781 277.007812 493.460938 255.878906 493.429688 L 256.410156 142.261719 C 310.472656 142.355469 354.234375 186.242188 354.152344 240.304688 Z M 354.152344 240.304688 " style=" stroke:none;fill-rule:nonzero;fill:rgb(100%,62.352941%,0%);fill-opacity:1;" />
<path d="M 223.433594 192.601562 C 212.289062 192.582031 203.242188 201.605469 203.222656 212.75 C 203.207031 223.894531 212.230469 232.945312 223.375 232.960938 C 234.519531 232.976562 243.566406 223.957031 243.585938 212.8125 C 243.601562 201.664062 234.578125 192.617188 223.433594 192.601562 Z M 223.433594 192.601562 " style=" stroke:none;fill-rule:nonzero;fill:rgb(77.254902%,34.509804%,20.784314%);fill-opacity:1;" />
<path d="M 289.207031 192.699219 C 278.058594 192.683594 269.011719 201.703125 268.996094 212.851562 C 268.980469 223.996094 278 233.042969 289.144531 233.058594 C 300.289062 233.078125 309.339844 224.054688 309.355469 212.910156 C 309.371094 201.765625 300.351562 192.71875 289.207031 192.699219 Z M 289.207031 192.699219 " style=" stroke:none;fill-rule:nonzero;fill:rgb(65.098039%,22.352941%,7.843137%);fill-opacity:1;" />
<path d="M 245.640625 445.640625 C 245.636719 449.480469 245.300781 453.320312 244.628906 457.105469 C 242.421875 469.511719 236.617188 481.222656 228.0625 490.480469 C 223.59375 495.316406 218.394531 499.484375 212.707031 502.800781 C 211.214844 503.671875 209.691406 504.480469 208.136719 505.230469 C 207.386719 505.59375 206.628906 505.9375 205.863281 506.273438 C 205.171875 506.574219 204.644531 506.902344 203.867188 506.722656 C 200.328125 505.90625 196.773438 505.140625 193.246094 504.25 C 179.386719 500.753906 165.820312 496.082031 152.742188 490.316406 C 146.101562 487.386719 139.589844 484.175781 133.226562 480.691406 C 130.070312 478.964844 126.953125 477.167969 123.871094 475.308594 C 122.328125 474.378906 120.769531 473.453125 119.253906 472.472656 C 118.664062 472.089844 118.476562 471.605469 118.226562 470.957031 C 117.890625 470.085938 117.535156 469.226562 117.214844 468.347656 C 111.390625 452.46875 111.960938 434.339844 118.769531 418.855469 C 123.816406 407.386719 132.191406 397.421875 142.609375 390.464844 C 153.511719 383.1875 166.476562 379.269531 179.585938 379.316406 C 192.625 379.363281 205.523438 383.269531 216.328125 390.574219 C 226.402344 397.378906 234.664062 406.992188 239.707031 418.070312 C 243.636719 426.691406 245.644531 436.167969 245.640625 445.640625 Z M 245.640625 445.640625 " style=" stroke:none;fill-rule:nonzero;fill:rgb(100%,91.372549%,33.333333%);fill-opacity:1;" />
<path d="M 245.640625 445.640625 C 245.628906 455.699219 243.371094 465.238281 239.339844 473.769531 C 238.128906 476.328125 236.761719 478.808594 235.238281 481.179688 C 234.96875 481.601562 234.699219 482.019531 234.421875 482.429688 C 234.339844 482.558594 234.25 482.691406 234.160156 482.820312 C 233.628906 483.589844 233.089844 484.351562 232.53125 485.101562 C 231.898438 485.941406 231.25 486.769531 230.578125 487.589844 C 230.25 487.988281 229.929688 488.378906 229.589844 488.761719 C 226.011719 492.921875 221.910156 496.628906 217.398438 499.789062 C 217.070312 500.03125 216.730469 500.261719 216.398438 500.480469 C 215.851562 500.851562 215.289062 501.21875 214.730469 501.570312 C 214.390625 501.789062 214.050781 502 213.710938 502.199219 C 213.261719 502.480469 212.800781 502.75 212.339844 503.011719 C 211.871094 503.28125 211.410156 503.539062 210.941406 503.789062 C 210.46875 504.050781 210 504.300781 209.519531 504.539062 C 209.050781 504.78125 208.570312 505.019531 208.089844 505.25 C 207.601562 505.488281 207.121094 505.710938 206.628906 505.929688 C 206.140625 506.148438 205.648438 506.371094 205.148438 506.578125 C 204.949219 506.660156 204.75 506.738281 204.550781 506.828125 C 196 505.078125 187.601562 502.910156 179.378906 500.328125 C 174.089844 498.679688 168.871094 496.851562 163.738281 494.859375 C 154.039062 481.339844 148.238281 464.851562 147.960938 447.011719 C 147.949219 446.699219 147.941406 446.390625 147.949219 446.070312 C 147.941406 445.878906 147.941406 445.679688 147.941406 445.488281 C 147.949219 438.050781 148.921875 430.839844 150.730469 423.980469 C 155.390625 406.351562 165.589844 390.96875 179.359375 379.839844 C 179.410156 379.800781 179.460938 379.75 179.511719 379.71875 C 179.519531 379.699219 179.539062 379.691406 179.558594 379.679688 C 179.699219 379.558594 179.851562 379.441406 180 379.320312 C 180.570312 379.320312 181.128906 379.339844 181.699219 379.359375 C 182.261719 379.371094 182.820312 379.398438 183.378906 379.429688 C 183.941406 379.46875 184.5 379.511719 185.058594 379.550781 C 185.609375 379.601562 186.171875 379.648438 186.71875 379.71875 C 187.269531 379.78125 187.820312 379.839844 188.371094 379.921875 C 189.058594 380.011719 189.738281 380.109375 190.421875 380.230469 C 190.808594 380.289062 191.199219 380.359375 191.589844 380.429688 C 191.648438 380.441406 191.710938 380.449219 191.761719 380.46875 C 192.230469 380.550781 192.691406 380.640625 193.148438 380.738281 C 194.359375 380.988281 195.550781 381.28125 196.730469 381.609375 C 197.148438 381.71875 197.570312 381.828125 197.988281 381.960938 C 201.011719 382.839844 203.941406 383.929688 206.761719 385.210938 C 207.230469 385.421875 207.691406 385.640625 208.148438 385.859375 C 209.621094 386.570312 211.058594 387.328125 212.460938 388.140625 C 212.878906 388.378906 213.300781 388.628906 213.71875 388.878906 C 214.671875 389.460938 215.601562 390.058594 216.511719 390.679688 C 216.789062 390.859375 217.070312 391.050781 217.339844 391.25 C 217.570312 391.398438 217.800781 391.558594 218.019531 391.730469 C 218.390625 391.988281 218.75 392.25 219.101562 392.519531 C 219.53125 392.839844 219.949219 393.160156 220.359375 393.488281 C 220.78125 393.820312 221.191406 394.148438 221.601562 394.488281 C 222.011719 394.828125 222.410156 395.171875 222.808594 395.519531 C 223.210938 395.859375 223.609375 396.210938 224 396.570312 C 224.441406 396.96875 224.878906 397.378906 225.308594 397.789062 C 225.441406 397.921875 225.558594 398.039062 225.679688 398.148438 C 225.800781 398.269531 225.921875 398.390625 226.039062 398.5 L 226.039062 398.511719 C 226.128906 398.601562 226.210938 398.679688 226.289062 398.761719 C 226.660156 399.140625 227.03125 399.519531 227.398438 399.898438 C 227.761719 400.28125 228.121094 400.671875 228.480469 401.058594 C 228.839844 401.449219 229.191406 401.851562 229.53125 402.25 C 229.75 402.5 229.960938 402.75 230.160156 403 C 230.640625 403.558594 231.101562 404.128906 231.550781 404.699219 C 231.878906 405.121094 232.199219 405.539062 232.519531 405.960938 C 232.550781 406.011719 232.578125 406.050781 232.621094 406.089844 C 233.210938 406.898438 233.789062 407.71875 234.359375 408.558594 C 234.660156 409 234.949219 409.441406 235.230469 409.890625 C 235.808594 410.78125 236.359375 411.691406 236.890625 412.621094 C 237.128906 413.03125 237.359375 413.460938 237.601562 413.878906 C 237.878906 414.390625 238.148438 414.910156 238.410156 415.429688 C 238.660156 415.898438 238.890625 416.378906 239.128906 416.859375 C 243.320312 425.570312 245.660156 435.328125 245.640625 445.640625 Z M 245.640625 445.640625 " style=" stroke:none;fill-rule:nonzero;fill:rgb(100%,81.960784%,7.058824%);fill-opacity:1;" />
<path d="M 245.640625 445.640625 C 245.628906 455.699219 243.371094 465.238281 239.339844 473.769531 C 238.128906 476.328125 236.761719 478.808594 235.238281 481.179688 C 234.96875 481.601562 234.699219 482.019531 234.421875 482.429688 C 234.339844 482.558594 234.25 482.691406 234.160156 482.820312 C 233.628906 483.589844 233.089844 484.351562 232.53125 485.101562 C 231.898438 485.941406 231.25 486.769531 230.578125 487.589844 C 230.25 487.988281 229.929688 488.378906 229.589844 488.761719 C 226.011719 492.921875 221.910156 496.628906 217.398438 499.789062 C 217.070312 500.03125 216.730469 500.261719 216.398438 500.480469 C 215.851562 500.851562 215.289062 501.21875 214.730469 501.570312 C 214.390625 501.789062 214.050781 502 213.710938 502.199219 C 213.261719 502.480469 212.800781 502.75 212.339844 503.011719 C 211.871094 503.28125 211.410156 503.539062 210.941406 503.789062 C 210.46875 504.050781 210 504.300781 209.519531 504.539062 C 209.050781 504.78125 208.570312 505.019531 208.089844 505.25 C 207.601562 505.488281 207.121094 505.710938 206.628906 505.929688 C 206.140625 506.148438 205.648438 506.371094 205.148438 506.578125 C 204.949219 506.660156 204.75 506.738281 204.550781 506.828125 C 196 505.078125 187.601562 502.910156 179.378906 500.328125 L 179.378906 495.21875 L 179.460938 445.570312 L 179.488281 426.828125 L 179.5 419.621094 L 179.5 419.570312 L 179.53125 402.050781 L 179.558594 379.679688 L 179.558594 379.308594 C 179.710938 379.308594 179.851562 379.308594 180 379.320312 C 180.570312 379.320312 181.128906 379.339844 181.699219 379.359375 C 182.261719 379.371094 182.820312 379.398438 183.378906 379.429688 C 183.941406 379.46875 184.5 379.511719 185.058594 379.550781 C 185.609375 379.601562 186.171875 379.648438 186.71875 379.71875 C 187.269531 379.78125 187.820312 379.839844 188.371094 379.921875 C 189.058594 380.011719 189.738281 380.109375 190.421875 380.230469 C 190.808594 380.289062 191.199219 380.359375 191.589844 380.429688 C 191.648438 380.441406 191.710938 380.449219 191.761719 380.46875 C 192.230469 380.550781 192.691406 380.640625 193.148438 380.738281 C 194.359375 380.988281 195.550781 381.28125 196.730469 381.609375 C 197.148438 381.71875 197.570312 381.828125 197.988281 381.960938 C 201.011719 382.839844 203.941406 383.929688 206.761719 385.210938 C 207.230469 385.421875 207.691406 385.640625 208.148438 385.859375 C 209.621094 386.570312 211.058594 387.328125 212.460938 388.140625 C 212.878906 388.378906 213.300781 388.628906 213.71875 388.878906 C 214.671875 389.460938 215.601562 390.058594 216.511719 390.679688 C 216.789062 390.859375 217.070312 391.050781 217.339844 391.25 C 217.570312 391.398438 217.800781 391.558594 218.019531 391.730469 C 218.390625 391.988281 218.75 392.25 219.101562 392.519531 C 219.53125 392.839844 219.949219 393.160156 220.359375 393.488281 C 220.78125 393.820312 221.191406 394.148438 221.601562 394.488281 C 222.011719 394.828125 222.410156 395.171875 222.808594 395.519531 C 223.210938 395.859375 223.609375 396.210938 224 396.570312 C 224.441406 396.96875 224.878906 397.378906 225.308594 397.789062 C 225.441406 397.921875 225.558594 398.039062 225.679688 398.148438 L 226.039062 398.511719 C 226.128906 398.601562 226.210938 398.679688 226.289062 398.761719 C 226.660156 399.140625 227.03125 399.519531 227.398438 399.898438 C 227.761719 400.28125 228.121094 400.671875 228.480469 401.058594 C 228.839844 401.449219 229.191406 401.851562 229.53125 402.25 C 229.75 402.5 229.960938 402.75 230.160156 403 C 230.640625 403.558594 231.101562 404.128906 231.550781 404.699219 C 231.878906 405.121094 232.199219 405.539062 232.519531 405.960938 C 232.550781 406.011719 232.578125 406.050781 232.621094 406.089844 C 233.210938 406.898438 233.789062 407.71875 234.359375 408.558594 C 234.660156 409 234.949219 409.441406 235.230469 409.890625 C 235.808594 410.78125 236.359375 411.691406 236.890625 412.621094 C 237.128906 413.03125 237.359375 413.460938 237.601562 413.878906 C 237.878906 414.390625 238.148438 414.910156 238.410156 415.429688 C 238.660156 415.898438 238.890625 416.378906 239.128906 416.859375 C 243.320312 425.570312 245.660156 435.328125 245.640625 445.640625 Z M 245.640625 445.640625 " style=" stroke:none;fill-rule:nonzero;fill:rgb(100%,62.352941%,0%);fill-opacity:1;" />
<path d="M 204.191406 470.445312 C 204.175781 484.132812 193.070312 495.238281 179.378906 495.21875 C 179.34375 495.21875 179.34375 495.21875 179.324219 495.21875 C 165.613281 495.199219 154.527344 484.078125 154.546875 470.367188 C 154.566406 456.660156 165.691406 445.554688 179.398438 445.574219 L 179.453125 445.574219 C 193.144531 445.648438 204.210938 456.753906 204.191406 470.445312 Z M 204.191406 470.445312 " style=" stroke:none;fill-rule:nonzero;fill:rgb(100%,39.215686%,46.666667%);fill-opacity:1;" />
<path d="M 145.03125 422.574219 C 138.1875 422.5625 132.628906 428.105469 132.621094 434.949219 C 132.609375 441.792969 138.148438 447.347656 144.992188 447.359375 C 151.835938 447.367188 157.394531 441.828125 157.402344 434.984375 C 157.414062 428.140625 151.875 422.585938 145.03125 422.574219 Z M 145.03125 422.574219 " style=" stroke:none;fill-rule:nonzero;fill:rgb(100%,39.215686%,46.666667%);fill-opacity:1;" />
<path d="M 191.878906 414.457031 C 191.878906 421.300781 186.335938 426.84375 179.492188 426.824219 C 179.492188 426.824219 179.492188 426.824219 179.472656 426.824219 C 172.628906 426.824219 167.085938 421.261719 167.101562 414.417969 C 167.101562 407.574219 172.664062 402.03125 179.511719 402.050781 L 179.527344 402.050781 C 186.371094 402.085938 191.898438 407.609375 191.878906 414.457031 Z M 191.878906 414.457031 " style=" stroke:none;fill-rule:nonzero;fill:rgb(100%,39.215686%,46.666667%);fill-opacity:1;" />
<path d="M 212.996094 420.765625 C 206.152344 420.753906 200.59375 426.292969 200.582031 433.140625 C 200.574219 439.984375 206.113281 445.539062 212.957031 445.550781 C 219.800781 445.558594 225.359375 440.019531 225.367188 433.175781 C 225.378906 426.332031 219.839844 420.777344 212.996094 420.765625 Z M 212.996094 420.765625 " style=" stroke:none;fill-rule:nonzero;fill:rgb(86.666667%,7.058824%,39.607843%);fill-opacity:1;" />
<path d="M 398.671875 445.871094 C 398.648438 455.210938 396.710938 464.101562 393.210938 472.160156 L 393.199219 472.160156 C 374.71875 483.921875 354.621094 493.371094 333.320312 500.109375 C 329.191406 501.421875 325.011719 502.628906 320.789062 503.730469 C 316.230469 504.921875 311.628906 505.980469 306.980469 506.921875 C 297.328125 502.910156 288.839844 496.671875 282.128906 488.851562 C 282.128906 488.851562 282.128906 488.851562 282.128906 488.839844 C 272.179688 477.238281 266.179688 462.148438 266.210938 445.671875 C 266.261719 409.351562 295.550781 379.898438 331.78125 379.550781 C 332.039062 379.539062 332.28125 379.539062 332.539062 379.539062 L 332.738281 379.539062 C 332.988281 379.539062 333.25 379.539062 333.5 379.550781 C 363.460938 380.019531 388.570312 400.371094 396.25 427.96875 C 397.839844 433.660156 398.679688 439.671875 398.671875 445.871094 Z M 398.671875 445.871094 " style=" stroke:none;fill-rule:nonzero;fill:rgb(100%,91.372549%,33.333333%);fill-opacity:1;" />
<path d="M 398.671875 445.871094 C 398.648438 455.210938 396.710938 464.101562 393.210938 472.160156 L 393.199219 472.160156 C 374.71875 483.921875 354.621094 493.371094 333.320312 500.109375 C 329.191406 501.421875 325.011719 502.628906 320.789062 503.730469 C 312.929688 496.558594 306.539062 487.808594 302.109375 477.980469 C 302.109375 477.980469 302.109375 477.980469 302.109375 477.96875 C 297.878906 468.578125 295.441406 458.199219 295.238281 447.28125 C 295.230469 446.761719 295.230469 446.238281 295.230469 445.710938 C 295.238281 437.75 296.441406 430.070312 298.660156 422.828125 C 304.199219 404.75 316.121094 389.449219 331.78125 379.550781 C 332.039062 379.539062 332.28125 379.539062 332.539062 379.539062 L 332.738281 379.539062 C 332.988281 379.539062 333.25 379.539062 333.5 379.550781 C 363.460938 380.019531 388.570312 400.371094 396.25 427.96875 C 397.839844 433.660156 398.679688 439.671875 398.671875 445.871094 Z M 398.671875 445.871094 " style=" stroke:none;fill-rule:nonzero;fill:rgb(100%,81.960784%,7.058824%);fill-opacity:1;" />
<path d="M 398.671875 445.871094 C 398.648438 455.210938 396.710938 464.101562 393.210938 472.160156 L 393.199219 472.160156 C 374.71875 483.921875 354.621094 493.371094 333.320312 500.109375 L 333.320312 495.441406 L 333.398438 445.839844 L 333.429688 426.808594 L 333.429688 424.691406 L 333.46875 402.089844 L 333.5 379.550781 C 363.460938 380.019531 388.570312 400.371094 396.25 427.96875 C 397.839844 433.660156 398.679688 439.671875 398.671875 445.871094 Z M 398.671875 445.871094 " style=" stroke:none;fill-rule:nonzero;fill:rgb(100%,62.352941%,0%);fill-opacity:1;" />
<path d="M 357.21875 470.667969 C 357.199219 484.058594 346.578125 494.960938 333.316406 495.441406 C 333.003906 495.460938 332.6875 495.460938 332.367188 495.460938 C 318.660156 495.441406 307.554688 484.300781 307.574219 470.59375 C 307.59375 456.882812 318.734375 445.796875 332.441406 445.816406 C 332.757812 445.816406 333.074219 445.816406 333.390625 445.835938 C 346.65625 446.355469 357.238281 457.273438 357.21875 470.667969 Z M 357.21875 470.667969 " style=" stroke:none;fill-rule:nonzero;fill:rgb(100%,39.215686%,46.666667%);fill-opacity:1;" />
<path d="M 298.0625 422.808594 C 291.21875 422.796875 285.664062 428.335938 285.652344 435.179688 C 285.640625 442.023438 291.179688 447.582031 298.023438 447.589844 C 304.871094 447.601562 310.425781 442.0625 310.4375 435.21875 C 310.445312 428.375 304.90625 422.816406 298.0625 422.808594 Z M 298.0625 422.808594 " style=" stroke:none;fill-rule:nonzero;fill:rgb(100%,39.215686%,46.666667%);fill-opacity:1;" />
<path d="M 345.351562 414.457031 C 345.351562 421.132812 340.050781 426.585938 333.429688 426.808594 C 333.261719 426.824219 333.113281 426.824219 332.945312 426.824219 C 326.101562 426.824219 320.558594 421.265625 320.578125 414.417969 C 320.578125 407.574219 326.140625 402.03125 332.984375 402.050781 C 333.152344 402.050781 333.320312 402.050781 333.46875 402.085938 C 340.089844 402.328125 345.371094 407.777344 345.351562 414.457031 Z M 345.351562 414.457031 " style=" stroke:none;fill-rule:nonzero;fill:rgb(100%,39.215686%,46.666667%);fill-opacity:1;" />
<path d="M 366.027344 420.996094 C 359.183594 420.988281 353.625 426.527344 353.617188 433.371094 C 353.605469 440.214844 359.144531 445.773438 365.988281 445.78125 C 372.832031 445.792969 378.390625 440.253906 378.398438 433.410156 C 378.410156 426.566406 372.871094 421.007812 366.027344 420.996094 Z M 366.027344 420.996094 " style=" stroke:none;fill-rule:nonzero;fill:rgb(86.666667%,7.058824%,39.607843%);fill-opacity:1;" />
<path d="M 256.042969 205.199219 C 239.285156 205.171875 225.683594 218.734375 225.65625 235.492188 C 225.632812 252.246094 239.195312 265.851562 255.949219 265.875 C 272.707031 265.902344 286.308594 252.339844 286.335938 235.582031 C 286.359375 218.828125 272.796875 205.222656 256.042969 205.199219 Z M 256.042969 205.199219 " style=" stroke:none;fill-rule:nonzero;fill:rgb(65.098039%,22.352941%,7.843137%);fill-opacity:1;" />
<path d="M 244.214844 221.878906 C 242.242188 221.875 240.8125 223.738281 241.296875 225.648438 C 242.964844 232.203125 248.902344 237.054688 255.976562 237.066406 C 263.050781 237.078125 269.003906 232.242188 270.691406 225.695312 C 271.183594 223.785156 269.757812 221.917969 267.785156 221.914062 Z M 244.214844 221.878906 " style=" stroke:none;fill-rule:nonzero;fill:rgb(77.254902%,34.509804%,20.784314%);fill-opacity:1;" />
<path d="M 204.191406 470.445312 C 204.175781 484.132812 193.070312 495.238281 179.378906 495.21875 L 179.453125 445.574219 C 193.144531 445.648438 204.210938 456.753906 204.191406 470.445312 Z M 204.191406 470.445312 " style=" stroke:none;fill-rule:nonzero;fill:rgb(86.666667%,7.058824%,39.607843%);fill-opacity:1;" />
<path d="M 357.21875 470.667969 C 357.199219 484.058594 346.578125 494.960938 333.316406 495.441406 L 333.390625 445.835938 C 346.65625 446.355469 357.238281 457.273438 357.21875 470.667969 Z M 357.21875 470.667969 " style=" stroke:none;fill-rule:nonzero;fill:rgb(86.666667%,7.058824%,39.607843%);fill-opacity:1;" />
<path d="M 345.351562 414.457031 C 345.351562 421.132812 340.050781 426.585938 333.429688 426.808594 L 333.46875 402.085938 C 340.089844 402.328125 345.371094 407.777344 345.351562 414.457031 Z M 345.351562 414.457031 " style=" stroke:none;fill-rule:nonzero;fill:rgb(86.666667%,7.058824%,39.607843%);fill-opacity:1;" />
<path d="M 191.878906 414.457031 C 191.878906 421.300781 186.335938 426.84375 179.492188 426.824219 L 179.527344 402.050781 C 186.371094 402.085938 191.898438 407.609375 191.878906 414.457031 Z M 191.878906 414.457031 " style=" stroke:none;fill-rule:nonzero;fill:rgb(86.666667%,7.058824%,39.607843%);fill-opacity:1;" />
</g>
</svg>