<svg xmlns="http://www.w3.org/2000/svg" height="512pt" version="1.1" viewBox="0 0 512 512" width="512pt">
<g id="surface1">
<path d="M 512 256 C 512 397.386719 397.386719 512 256 512 C 114.613281 512 0 397.386719 0 256 C 0 114.613281 114.613281 0 256 0 C 397.386719 0 512 114.613281 512 256 Z M 512 256 " style=" stroke:none;fill-rule:nonzero;fill:rgb(61.960784%,41.176471%,88.627451%);fill-opacity:1;" />
<path d="M 512 256 C 512 282.050781 508.109375 307.191406 500.871094 330.871094 C 468.859375 435.71875 371.328125 512 256 512 C 151.441406 512 61.511719 449.300781 21.769531 359.449219 C 7.769531 327.820312 0 292.820312 0 256 C 0 209.78125 12.25 166.429688 33.679688 129 C 77.800781 206.070312 160.839844 258 256 258 C 351.160156 258 434.210938 206.070312 478.320312 129 C 499.75 166.429688 512 209.78125 512 256 Z M 512 256 " style=" stroke:none;fill-rule:nonzero;fill:rgb(55.686275%,30.980392%,82.352941%);fill-opacity:1;" />
<path d="M 30.742188 377.703125 C 37.898438 390.921875 46.171875 403.441406 55.460938 415.128906 C 102.359375 474.148438 174.761719 512 256 512 C 337.238281 512 409.640625 474.148438 456.539062 415.128906 C 465.828125 403.441406 474.101562 390.921875 481.257812 377.703125 Z M 30.742188 377.703125 " style=" stroke:none;fill-rule:nonzero;fill:rgb(43.921569%,21.960784%,72.941176%);fill-opacity:1;" />
<path d="M 352.910156 193.1875 L 352.910156 344.21875 C 352.910156 353.101562 350.179688 361.566406 345.265625 369.261719 C 335.253906 384.894531 316.160156 397.347656 292.371094 403.730469 C 281.144531 406.742188 268.867188 408.40625 256 408.40625 C 255.761719 408.40625 255.515625 408.40625 255.273438 408.398438 C 242.121094 408.34375 229.59375 406.542969 218.179688 403.339844 C 214.515625 402.308594 210.960938 401.128906 207.542969 399.820312 C 188.960938 392.703125 174.277344 381.617188 166.148438 368.304688 C 161.59375 360.875 159.085938 352.738281 159.085938 344.21875 L 159.085938 193.1875 Z M 352.910156 193.1875 " style=" stroke:none;fill-rule:nonzero;fill:rgb(100%,91.372549%,33.333333%);fill-opacity:1;" />
<path d="M 352.910156 193.1875 L 352.910156 344.21875 C 352.910156 353.101562 350.179688 361.566406 345.265625 369.261719 C 335.253906 384.894531 316.160156 397.347656 292.371094 403.730469 C 281.144531 406.742188 268.867188 408.40625 256 408.40625 C 255.761719 408.40625 255.515625 408.40625 255.273438 408.398438 C 242.121094 408.34375 229.59375 406.542969 218.179688 403.339844 C 214.515625 402.308594 210.960938 401.128906 207.542969 399.820312 L 207.542969 193.1875 Z M 352.910156 193.1875 " style=" stroke:none;fill-rule:nonzero;fill:rgb(100%,81.960784%,7.058824%);fill-opacity:1;" />
<path d="M 352.910156 193.1875 L 352.910156 344.21875 C 352.910156 353.101562 350.199219 361.566406 345.320312 369.261719 C 335.382812 384.894531 316.433594 397.347656 292.820312 403.730469 C 281.679688 406.742188 269.492188 408.40625 256.71875 408.40625 C 256.480469 408.40625 256.238281 408.40625 256 408.398438 L 256 193.1875 Z M 352.910156 193.1875 " style=" stroke:none;fill-rule:nonzero;fill:rgb(100%,62.352941%,0%);fill-opacity:1;" />
<path d="M 352.910156 193.1875 C 352.910156 202.074219 350.183594 210.539062 345.261719 218.234375 C 335.25 233.863281 316.160156 246.320312 292.371094 252.699219 C 281.144531 255.71875 268.867188 254.375 256 254.375 C 242.582031 254.375 229.804688 255.570312 218.183594 252.308594 C 194.589844 245.679688 175.78125 233.035156 166.148438 217.277344 C 161.59375 209.84375 159.089844 201.710938 159.089844 193.1875 C 159.089844 184.300781 161.816406 175.839844 166.746094 168.144531 C 176.75 152.519531 195.839844 140.054688 219.628906 133.675781 C 230.855469 130.660156 243.132812 129 256 129 C 269.417969 129 282.195312 130.808594 293.808594 134.070312 C 317.402344 140.695312 336.21875 153.34375 345.851562 169.097656 C 350.40625 176.53125 352.910156 184.664062 352.910156 193.1875 Z M 352.910156 193.1875 " style=" stroke:none;fill-rule:nonzero;fill:rgb(100%,100%,100%);fill-opacity:1;" />
<path d="M 352.910156 193.1875 C 352.910156 202.074219 350.183594 210.539062 345.261719 218.234375 C 335.25 233.863281 316.160156 246.320312 292.371094 252.699219 C 281.144531 255.71875 268.867188 255.375 256 255.375 L 256 129 C 269.417969 129 282.195312 130.808594 293.808594 134.070312 C 317.402344 140.695312 336.21875 153.34375 345.851562 169.097656 C 350.40625 176.53125 352.910156 184.664062 352.910156 193.1875 Z M 352.910156 193.1875 " style=" stroke:none;fill-rule:nonzero;fill:rgb(78.039216%,85.098039%,100%);fill-opacity:1;" />
<path d="M 256 193.1875 C 240.113281 204.925781 226.6875 206.355469 213.53125 206.695312 C 208.804688 206.816406 204.109375 206.789062 199.351562 207.058594 C 188.960938 207.628906 178.246094 209.558594 166.148438 217.277344 C 161.59375 209.84375 159.089844 201.710938 159.089844 193.1875 C 159.089844 184.300781 161.816406 175.839844 166.746094 168.144531 C 183.539062 168.351562 193.1875 172.011719 201.140625 176.46875 C 204.675781 178.449219 207.878906 180.589844 211.226562 182.652344 C 220.96875 188.65625 231.972656 194.058594 256 193.1875 Z M 256 193.1875 " style=" stroke:none;fill-rule:nonzero;fill:rgb(100%,81.960784%,7.058824%);fill-opacity:1;" />
<path d="M 292.371094 252.699219 C 281.144531 255.714844 268.867188 257.375 256 257.375 C 242.582031 257.375 229.804688 255.566406 218.183594 252.308594 C 218.496094 241.183594 224.011719 234.800781 230.753906 229.527344 C 233.742188 227.1875 236.96875 225.0625 240.09375 222.84375 C 247.839844 217.328125 254.914062 211.210938 256 199.617188 C 256.179688 197.640625 256.1875 195.507812 256 193.1875 C 273.722656 203.710938 275.882812 212.601562 276.390625 221.316406 C 276.96875 231.28125 275.382812 241.011719 292.371094 252.699219 Z M 292.371094 252.699219 " style=" stroke:none;fill-rule:nonzero;fill:rgb(100%,81.960784%,7.058824%);fill-opacity:1;" />
<path d="M 352.910156 193.1875 C 352.910156 202.074219 350.183594 210.539062 345.261719 218.234375 C 328.46875 218.027344 318.828125 214.375 310.867188 209.914062 C 307.324219 207.9375 304.121094 205.792969 300.765625 203.722656 C 291.027344 197.71875 280.027344 192.324219 256 193.1875 C 271.886719 181.449219 285.3125 180.019531 298.460938 179.683594 C 303.195312 179.558594 307.890625 179.585938 312.648438 179.316406 C 323.039062 178.746094 333.753906 176.816406 345.851562 169.097656 C 350.40625 176.53125 352.910156 184.664062 352.910156 193.1875 Z M 352.910156 193.1875 " style=" stroke:none;fill-rule:nonzero;fill:rgb(100%,62.352941%,0%);fill-opacity:1;" />
<path d="M 293.808594 134.070312 C 293.355469 150.136719 282.054688 156.3125 271.90625 163.539062 C 264.164062 169.042969 257.089844 175.160156 256 186.742188 C 255.820312 188.722656 255.804688 190.863281 256 193.1875 C 238.28125 182.664062 236.117188 173.773438 235.605469 165.0625 C 235.425781 161.929688 235.460938 158.816406 235.058594 155.667969 C 234.195312 148.785156 231.28125 141.6875 219.628906 133.675781 C 230.855469 130.660156 243.132812 129 256 129 C 269.417969 129 282.195312 130.808594 293.808594 134.070312 Z M 293.808594 134.070312 " style=" stroke:none;fill-rule:nonzero;fill:rgb(100%,81.960784%,7.058824%);fill-opacity:1;" />
<path d="M 292.371094 252.699219 C 281.144531 255.714844 268.867188 257.375 256 257.375 L 256 193.1875 C 273.71875 203.710938 275.882812 212.601562 276.386719 221.316406 C 276.574219 224.445312 276.535156 227.558594 276.941406 230.707031 C 277.804688 237.589844 280.71875 244.6875 292.371094 252.699219 Z M 292.371094 252.699219 " style=" stroke:none;fill-rule:nonzero;fill:rgb(100%,62.352941%,0%);fill-opacity:1;" />
<path d="M 293.808594 134.070312 C 293.496094 145.195312 287.980469 151.578125 281.242188 156.851562 C 278.257812 159.199219 275.023438 161.316406 271.90625 163.539062 C 264.164062 169.042969 257.089844 175.160156 256 186.742188 L 256 129 C 269.417969 129 282.195312 130.808594 293.808594 134.070312 Z M 293.808594 134.070312 " style=" stroke:none;fill-rule:nonzero;fill:rgb(100%,62.352941%,0%);fill-opacity:1;" />
<path d="M 479.660156 296.78125 L 479.660156 380.640625 C 456.878906 421.421875 423.289062 455.320312 382.75 478.460938 C 367.511719 487.171875 351.289062 494.351562 334.300781 499.800781 C 332.640625 500.339844 330.96875 500.851562 329.289062 501.359375 C 313.078125 494.25 300.289062 483.980469 292.898438 471.898438 C 288.339844 464.46875 285.839844 456.320312 285.839844 447.820312 L 285.839844 296.78125 Z M 479.660156 296.78125 " style=" stroke:none;fill-rule:nonzero;fill:rgb(40.784314%,98.823529%,87.45098%);fill-opacity:1;" />
<path d="M 479.660156 296.78125 L 479.660156 380.640625 C 456.878906 421.421875 423.289062 455.320312 382.75 478.460938 C 367.511719 487.171875 351.289062 494.351562 334.300781 499.800781 L 334.300781 296.78125 Z M 479.660156 296.78125 " style=" stroke:none;fill-rule:nonzero;fill:rgb(6.27451%,88.627451%,76.862745%);fill-opacity:1;" />
<path d="M 479.660156 296.78125 L 479.660156 380.640625 C 456.878906 421.421875 423.289062 455.320312 382.75 478.460938 L 382.75 296.78125 Z M 479.660156 296.78125 " style=" stroke:none;fill-rule:nonzero;fill:rgb(10.196078%,72.941176%,62.352941%);fill-opacity:1;" />
<path d="M 479.664062 296.78125 C 479.664062 305.667969 476.933594 314.128906 472.015625 321.828125 C 462.003906 337.453125 442.910156 349.914062 419.125 356.292969 C 407.898438 359.308594 395.617188 356.96875 382.753906 356.96875 C 369.335938 356.96875 356.558594 359.160156 344.933594 355.902344 C 321.339844 349.269531 302.53125 336.625 292.902344 320.871094 C 288.347656 313.433594 285.839844 305.300781 285.839844 296.78125 C 285.839844 287.890625 288.570312 279.429688 293.496094 271.738281 C 303.5 256.109375 322.59375 243.648438 346.378906 237.269531 C 357.605469 234.25 369.886719 232.59375 382.75 232.59375 C 396.167969 232.59375 408.945312 234.398438 420.5625 237.664062 C 444.15625 244.289062 462.972656 256.933594 472.601562 272.691406 C 477.15625 280.125 479.664062 288.257812 479.664062 296.78125 Z M 479.664062 296.78125 " style=" stroke:none;fill-rule:nonzero;fill:rgb(100%,100%,100%);fill-opacity:1;" />
<path d="M 479.664062 296.78125 C 479.664062 305.667969 476.933594 314.128906 472.015625 321.828125 C 462.003906 337.453125 442.910156 349.914062 419.125 356.292969 C 407.898438 359.308594 395.617188 357.96875 382.753906 357.96875 L 382.753906 232.59375 C 396.171875 232.59375 408.949219 234.398438 420.5625 237.664062 C 444.15625 244.289062 462.972656 256.933594 472.605469 272.691406 C 477.15625 280.125 479.664062 288.257812 479.664062 296.78125 Z M 479.664062 296.78125 " style=" stroke:none;fill-rule:nonzero;fill:rgb(78.039216%,85.098039%,100%);fill-opacity:1;" />
<path d="M 382.753906 296.78125 C 366.867188 308.515625 353.441406 309.949219 340.28125 310.289062 C 335.558594 310.40625 330.859375 310.382812 326.105469 310.648438 C 315.710938 311.222656 305 313.152344 292.902344 320.871094 C 288.347656 313.433594 285.839844 305.300781 285.839844 296.78125 C 285.839844 287.890625 288.570312 279.429688 293.496094 271.738281 C 310.292969 271.945312 319.9375 275.601562 327.894531 280.0625 C 331.425781 282.042969 334.632812 284.179688 337.980469 286.242188 C 347.722656 292.246094 358.726562 297.648438 382.753906 296.78125 Z M 382.753906 296.78125 " style=" stroke:none;fill-rule:nonzero;fill:rgb(6.27451%,88.627451%,76.862745%);fill-opacity:1;" />
<path d="M 419.121094 356.292969 C 407.894531 359.308594 395.617188 360.96875 382.753906 360.96875 C 369.335938 360.96875 356.554688 359.160156 344.933594 355.902344 C 345.246094 344.777344 350.765625 338.394531 357.503906 333.121094 C 360.492188 330.78125 363.71875 328.65625 366.84375 326.433594 C 374.589844 320.921875 381.664062 314.800781 382.753906 303.210938 C 382.929688 301.234375 382.9375 299.101562 382.753906 296.78125 C 400.472656 307.300781 402.632812 316.195312 403.140625 324.910156 C 403.722656 334.871094 402.132812 344.605469 419.121094 356.292969 Z M 419.121094 356.292969 " style=" stroke:none;fill-rule:nonzero;fill:rgb(6.27451%,88.627451%,76.862745%);fill-opacity:1;" />
<path d="M 479.664062 296.78125 C 479.664062 305.667969 476.933594 314.128906 472.015625 321.828125 C 455.21875 321.621094 445.582031 317.96875 437.617188 313.507812 C 434.078125 311.527344 430.871094 309.386719 427.519531 307.316406 C 417.78125 301.3125 406.777344 295.914062 382.753906 296.777344 C 398.640625 285.042969 412.066406 283.609375 425.214844 283.273438 C 429.949219 283.152344 434.644531 283.175781 439.402344 282.910156 C 449.792969 282.335938 460.503906 280.40625 472.605469 272.6875 C 477.15625 280.125 479.664062 288.257812 479.664062 296.78125 Z M 479.664062 296.78125 " style=" stroke:none;fill-rule:nonzero;fill:rgb(10.196078%,72.941176%,62.352941%);fill-opacity:1;" />
<path d="M 420.5625 237.664062 C 420.105469 253.730469 408.804688 259.90625 398.660156 267.132812 C 390.914062 272.636719 383.839844 278.753906 382.753906 290.335938 C 382.574219 292.316406 382.558594 294.453125 382.753906 296.78125 C 365.03125 286.257812 362.871094 277.367188 362.355469 268.65625 C 362.175781 265.519531 362.214844 262.410156 361.8125 259.261719 C 360.945312 252.378906 358.03125 245.28125 346.382812 237.269531 C 357.609375 234.25 369.886719 232.59375 382.753906 232.59375 C 396.171875 232.59375 408.949219 234.398438 420.5625 237.664062 Z M 420.5625 237.664062 " style=" stroke:none;fill-rule:nonzero;fill:rgb(6.27451%,88.627451%,76.862745%);fill-opacity:1;" />
<path d="M 419.121094 356.292969 C 407.894531 359.308594 395.617188 360.96875 382.753906 360.96875 L 382.753906 296.78125 C 400.472656 307.300781 402.632812 316.195312 403.140625 324.910156 C 403.324219 328.039062 403.289062 331.148438 403.691406 334.300781 C 404.558594 341.183594 407.472656 348.277344 419.121094 356.292969 Z M 419.121094 356.292969 " style=" stroke:none;fill-rule:nonzero;fill:rgb(10.196078%,72.941176%,62.352941%);fill-opacity:1;" />
<path d="M 420.5625 237.664062 C 420.25 248.789062 414.734375 255.171875 407.992188 260.445312 C 405.011719 262.789062 401.777344 264.910156 398.660156 267.132812 C 390.914062 272.636719 383.839844 278.753906 382.753906 290.335938 L 382.753906 232.59375 C 396.171875 232.59375 408.949219 234.398438 420.5625 237.664062 Z M 420.5625 237.664062 " style=" stroke:none;fill-rule:nonzero;fill:rgb(10.196078%,72.941176%,62.352941%);fill-opacity:1;" />
<path d="M 226.160156 296.78125 L 226.160156 447.808594 C 226.160156 450.589844 225.890625 453.328125 225.378906 456.011719 C 225.238281 456.75 225.078125 457.480469 224.898438 458.210938 C 223.640625 463.320312 221.46875 468.230469 218.511719 472.859375 C 211.03125 484.53125 198.488281 494.429688 182.71875 501.351562 L 182.710938 501.351562 C 163.890625 495.738281 145.980469 488.019531 129.25 478.460938 C 111.691406 468.441406 95.429688 456.398438 80.789062 442.648438 C 61.640625 424.660156 45.25 403.75 32.339844 380.640625 L 32.339844 296.78125 Z M 226.160156 296.78125 " style=" stroke:none;fill-rule:nonzero;fill:rgb(97.647059%,52.156863%,65.098039%);fill-opacity:1;" />
<path d="M 226.160156 296.78125 L 226.160156 447.808594 C 226.160156 450.589844 225.890625 453.328125 225.378906 456.011719 C 225.238281 456.75 225.078125 457.480469 224.898438 458.210938 C 223.640625 463.320312 221.46875 468.230469 218.511719 472.859375 C 211.03125 484.53125 198.488281 494.429688 182.71875 501.351562 L 182.710938 501.351562 C 163.890625 495.738281 145.980469 488.019531 129.25 478.460938 C 111.691406 468.441406 95.429688 456.398438 80.789062 442.648438 L 80.789062 296.78125 Z M 226.160156 296.78125 " style=" stroke:none;fill-rule:nonzero;fill:rgb(100%,39.215686%,46.666667%);fill-opacity:1;" />
<path d="M 226.160156 296.78125 L 226.160156 447.808594 C 226.160156 450.589844 225.890625 453.328125 225.378906 456.011719 C 225.238281 456.75 225.078125 457.480469 224.898438 458.210938 C 223.648438 463.320312 221.5 468.230469 218.570312 472.859375 C 211.121094 484.570312 198.621094 494.488281 182.898438 501.410156 C 182.839844 501.390625 182.78125 501.371094 182.71875 501.351562 L 182.710938 501.351562 C 163.890625 495.738281 145.980469 488.019531 129.25 478.460938 L 129.25 296.78125 Z M 226.160156 296.78125 " style=" stroke:none;fill-rule:nonzero;fill:rgb(92.941176%,33.72549%,50.588235%);fill-opacity:1;" />
<path d="M 226.15625 296.78125 C 226.15625 305.667969 223.429688 314.128906 218.511719 321.828125 C 208.496094 337.453125 189.40625 349.914062 165.617188 356.292969 C 154.390625 359.308594 142.113281 356.96875 129.246094 356.96875 C 115.828125 356.96875 103.050781 359.160156 91.429688 355.902344 C 67.835938 349.269531 49.027344 336.625 39.398438 320.871094 C 34.84375 313.433594 32.335938 305.300781 32.335938 296.78125 C 32.335938 287.890625 35.066406 279.429688 39.992188 271.738281 C 49.996094 256.109375 69.089844 243.648438 92.875 237.269531 C 104.101562 234.25 116.382812 232.59375 129.246094 232.59375 C 142.664062 232.59375 155.441406 234.398438 167.058594 237.664062 C 190.652344 244.289062 209.46875 256.933594 219.097656 272.691406 C 223.652344 280.125 226.15625 288.257812 226.15625 296.78125 Z M 226.15625 296.78125 " style=" stroke:none;fill-rule:nonzero;fill:rgb(100%,100%,100%);fill-opacity:1;" />
<path d="M 226.15625 296.78125 C 226.15625 305.667969 223.429688 314.128906 218.511719 321.828125 C 208.496094 337.453125 189.40625 349.914062 165.617188 356.292969 C 154.390625 359.308594 142.113281 357.96875 129.246094 357.96875 L 129.246094 232.59375 C 142.664062 232.59375 155.445312 234.398438 167.058594 237.664062 C 190.652344 244.289062 209.46875 256.933594 219.097656 272.691406 C 223.652344 280.125 226.15625 288.257812 226.15625 296.78125 Z M 226.15625 296.78125 " style=" stroke:none;fill-rule:nonzero;fill:rgb(78.039216%,85.098039%,100%);fill-opacity:1;" />
<path d="M 129.246094 296.78125 C 113.363281 308.515625 99.9375 309.949219 86.777344 310.289062 C 82.054688 310.40625 77.355469 310.382812 72.601562 310.648438 C 62.207031 311.222656 51.496094 313.152344 39.398438 320.871094 C 34.84375 313.433594 32.335938 305.300781 32.335938 296.78125 C 32.335938 287.890625 35.066406 279.429688 39.992188 271.738281 C 56.789062 271.945312 66.433594 275.601562 74.390625 280.0625 C 77.921875 282.042969 81.128906 284.179688 84.476562 286.242188 C 94.21875 292.246094 105.222656 297.648438 129.246094 296.78125 Z M 129.246094 296.78125 " style=" stroke:none;fill-rule:nonzero;fill:rgb(100%,39.215686%,46.666667%);fill-opacity:1;" />
<path d="M 165.617188 356.292969 C 154.390625 359.308594 142.113281 360.96875 129.246094 360.96875 C 115.828125 360.96875 103.050781 359.160156 91.429688 355.902344 C 91.742188 344.777344 97.261719 338.394531 104 333.121094 C 106.988281 330.78125 110.21875 328.65625 113.339844 326.433594 C 121.085938 320.921875 128.160156 314.800781 129.25 303.210938 C 129.429688 301.234375 129.433594 299.101562 129.25 296.78125 C 146.96875 307.300781 149.132812 316.195312 149.636719 324.910156 C 150.21875 334.871094 148.628906 344.605469 165.617188 356.292969 Z M 165.617188 356.292969 " style=" stroke:none;fill-rule:nonzero;fill:rgb(100%,39.215686%,46.666667%);fill-opacity:1;" />
<path d="M 226.15625 296.78125 C 226.15625 305.667969 223.429688 314.128906 218.511719 321.828125 C 201.714844 321.621094 192.074219 317.96875 184.113281 313.507812 C 180.574219 311.527344 177.367188 309.386719 174.011719 307.316406 C 164.277344 301.3125 153.273438 295.914062 129.246094 296.777344 C 145.132812 285.042969 158.558594 283.609375 171.710938 283.273438 C 176.445312 283.152344 181.140625 283.175781 185.894531 282.910156 C 196.289062 282.335938 207 280.40625 219.097656 272.6875 C 223.652344 280.125 226.15625 288.257812 226.15625 296.78125 Z M 226.15625 296.78125 " style=" stroke:none;fill-rule:nonzero;fill:rgb(92.941176%,33.72549%,50.588235%);fill-opacity:1;" />
<path d="M 167.058594 237.664062 C 166.601562 253.730469 155.300781 259.90625 145.15625 267.132812 C 137.410156 272.636719 130.335938 278.753906 129.246094 290.335938 C 129.070312 292.316406 129.054688 294.453125 129.246094 296.78125 C 111.527344 286.257812 109.367188 277.367188 108.851562 268.65625 C 108.671875 265.519531 108.710938 262.410156 108.308594 259.261719 C 107.441406 252.378906 104.527344 245.28125 92.878906 237.269531 C 104.105469 234.25 116.382812 232.59375 129.246094 232.59375 C 142.664062 232.59375 155.441406 234.398438 167.058594 237.664062 Z M 167.058594 237.664062 " style=" stroke:none;fill-rule:nonzero;fill:rgb(100%,39.215686%,46.666667%);fill-opacity:1;" />
<path d="M 165.617188 356.292969 C 154.390625 359.308594 142.113281 360.96875 129.246094 360.96875 L 129.246094 296.78125 C 146.96875 307.300781 149.128906 316.195312 149.636719 324.910156 C 149.820312 328.039062 149.785156 331.148438 150.1875 334.300781 C 151.054688 341.183594 153.96875 348.277344 165.617188 356.292969 Z M 165.617188 356.292969 " style=" stroke:none;fill-rule:nonzero;fill:rgb(92.941176%,33.72549%,50.588235%);fill-opacity:1;" />
<path d="M 167.058594 237.664062 C 166.746094 248.789062 161.230469 255.171875 154.488281 260.445312 C 151.507812 262.789062 148.273438 264.910156 145.15625 267.132812 C 137.410156 272.636719 130.335938 278.753906 129.246094 290.335938 L 129.246094 232.59375 C 142.664062 232.59375 155.441406 234.398438 167.058594 237.664062 Z M 167.058594 237.664062 " style=" stroke:none;fill-rule:nonzero;fill:rgb(92.941176%,33.72549%,50.588235%);fill-opacity:1;" />
</g>
</svg>