<svg xmlns="http://www.w3.org/2000/svg" height="512pt" version="1.1" viewBox="0 0 512 512" width="512pt">
<g id="surface1">
<path d="M 512 256 C 512 397.386719 397.386719 512 256 512 C 114.613281 512 0 397.386719 0 256 C 0 114.613281 114.613281 0 256 0 C 397.386719 0 512 114.613281 512 256 Z M 512 256 " style=" stroke:none;fill-rule:nonzero;fill:rgb(39.607843%,69.803922%,100%);fill-opacity:1;" />
<path d="M 512 256 C 512 282.050781 508.109375 307.191406 500.871094 330.871094 C 468.859375 435.71875 371.328125 512 256 512 C 151.441406 512 61.511719 449.300781 21.769531 359.449219 C 7.769531 327.820312 0 292.820312 0 256 C 0 209.78125 12.25 166.429688 33.679688 129 C 77.800781 206.070312 160.839844 258 256 258 C 351.160156 258 434.210938 206.070312 478.320312 129 C 499.75 166.429688 512 209.78125 512 256 Z M 512 256 " style=" stroke:none;fill-rule:nonzero;fill:rgb(5.882353%,60.784314%,90.980392%);fill-opacity:1;" />
<path d="M 30.742188 377.703125 C 37.898438 390.921875 46.171875 403.441406 55.460938 415.128906 C 102.359375 474.148438 174.761719 512 256 512 C 337.238281 512 409.640625 474.148438 456.539062 415.128906 C 465.828125 403.441406 474.101562 390.921875 481.257812 377.703125 Z M 30.742188 377.703125 " style=" stroke:none;fill-rule:nonzero;fill:rgb(0%,40%,90.980392%);fill-opacity:1;" />
<path d="M 270 270 L 270 511.621094 C 265.371094 511.871094 260.699219 512 256 512 C 251.300781 512 246.628906 511.871094 242 511.621094 L 242 270 Z M 270 270 " style=" stroke:none;fill-rule:nonzero;fill:rgb(100%,100%,100%);fill-opacity:1;" />
<path d="M 242 270 L 270 270 L 270 420 L 242 420 Z M 242 270 " style=" stroke:none;fill-rule:nonzero;fill:rgb(78.039216%,85.098039%,100%);fill-opacity:1;" />
<path d="M 410 234 C 410 255.320312 405.660156 275.628906 397.851562 294.101562 C 381.941406 331.589844 351.601562 361.480469 313.800781 376.78125 C 296.988281 383.601562 278.691406 387.53125 259.519531 387.960938 C 258.351562 387.988281 257.179688 388 256 388 C 234.679688 388 214.371094 383.660156 195.898438 375.851562 C 158.410156 359.941406 128.519531 329.601562 113.21875 291.800781 C 105.980469 273.960938 102 254.449219 102 234 C 102 212.679688 106.339844 192.371094 114.171875 173.921875 C 130.058594 136.421875 160.398438 106.519531 198.199219 91.21875 C 216.039062 83.980469 235.550781 80 256 80 C 257.191406 80 258.371094 80.011719 259.550781 80.039062 C 279.570312 80.488281 298.660156 84.78125 316.078125 92.171875 C 353.578125 108.058594 383.480469 138.398438 398.78125 176.199219 C 406.019531 194.039062 410 213.550781 410 234 Z M 410 234 " style=" stroke:none;fill-rule:nonzero;fill:rgb(100%,100%,100%);fill-opacity:1;" />
<path d="M 410 234 C 410 255.320312 405.660156 275.628906 397.851562 294.101562 C 381.941406 331.589844 351.601562 361.480469 313.800781 376.78125 C 296.988281 383.601562 278.691406 387.53125 259.519531 387.960938 C 257.871094 387.328125 256.230469 386.671875 254.609375 385.980469 C 214.441406 368.929688 182.421875 336.429688 166.019531 295.929688 C 158.261719 276.808594 154 255.910156 154 234 C 154 211.148438 158.648438 189.398438 167.039062 169.621094 C 184.070312 129.449219 216.570312 97.421875 257.070312 81.019531 C 257.890625 80.691406 258.71875 80.359375 259.550781 80.039062 C 279.570312 80.488281 298.660156 84.78125 316.078125 92.171875 C 353.578125 108.058594 383.480469 138.398438 398.78125 176.199219 C 406.019531 194.039062 410 213.550781 410 234 Z M 410 234 " style=" stroke:none;fill-rule:nonzero;fill:rgb(92.156863%,94.117647%,95.294118%);fill-opacity:1;" />
<path d="M 410 234 C 410 255.324219 405.664062 275.628906 397.847656 294.097656 C 381.9375 331.589844 351.597656 361.476562 313.796875 376.78125 C 295.957031 384.019531 276.445312 388 256 388 L 256 80 C 277.324219 80 297.628906 84.335938 316.085938 92.164062 C 353.578125 108.0625 383.476562 138.402344 398.78125 176.203125 C 406.019531 194.042969 410 213.554688 410 234 Z M 410 234 " style=" stroke:none;fill-rule:nonzero;fill:rgb(78.039216%,85.098039%,100%);fill-opacity:1;" />
<path d="M 256 234 C 230.761719 262.160156 209.421875 265.589844 188.511719 266.410156 C 181 266.699219 173.539062 266.640625 165.980469 267.28125 C 163.191406 267.511719 160.390625 267.828125 157.570312 268.300781 C 143.660156 270.609375 129.199219 276.398438 113.21875 291.800781 C 105.980469 273.960938 102 254.449219 102 234 C 102 212.679688 106.339844 192.371094 114.171875 173.921875 C 135.378906 174.308594 149.398438 179.929688 160.609375 187.601562 C 163.511719 189.570312 166.21875 191.691406 168.820312 193.890625 C 174.441406 198.640625 179.53125 203.769531 184.851562 208.71875 C 200.328125 223.128906 217.820312 236.078125 256 234 Z M 256 234 " style=" stroke:none;fill-rule:nonzero;fill:rgb(100%,39.215686%,46.666667%);fill-opacity:1;" />
<path d="M 313.800781 376.78125 C 296.988281 383.601562 278.691406 387.53125 259.519531 387.960938 C 258.351562 387.988281 257.179688 388 256 388 C 234.679688 388 214.371094 383.660156 195.898438 375.851562 C 196.101562 365.050781 197.660156 356.109375 200.148438 348.460938 C 203.820312 337.199219 209.5 328.71875 215.878906 321.191406 C 220.628906 315.570312 225.761719 310.480469 230.71875 305.148438 C 243.03125 291.921875 254.269531 277.238281 256 249.421875 C 256.28125 244.691406 256.300781 239.570312 256 234 C 284.160156 259.238281 287.589844 280.578125 288.398438 301.488281 C 289.320312 325.390625 286.800781 348.738281 313.800781 376.78125 Z M 313.800781 376.78125 " style=" stroke:none;fill-rule:nonzero;fill:rgb(100%,39.215686%,46.666667%);fill-opacity:1;" />
<path d="M 410 234 C 410 255.324219 405.664062 275.628906 397.847656 294.097656 C 371.15625 293.597656 355.839844 284.832031 343.1875 274.136719 C 337.5625 269.386719 332.46875 264.242188 327.136719 259.28125 C 311.664062 244.875 294.179688 231.925781 256 234 C 281.242188 205.84375 302.578125 202.40625 323.476562 201.601562 C 330.996094 201.304688 338.460938 201.363281 346.019531 200.722656 C 362.53125 199.351562 379.554688 194.71875 398.78125 176.203125 C 406.019531 194.042969 410 213.554688 410 234 Z M 410 234 " style=" stroke:none;fill-rule:nonzero;fill:rgb(72.941176%,5.098039%,36.078431%);fill-opacity:1;" />
<path d="M 316.078125 92.171875 C 315.359375 130.710938 297.398438 145.53125 281.28125 162.859375 C 268.96875 176.070312 257.730469 190.75 256 218.539062 C 255.71875 223.289062 255.691406 228.421875 256 234 C 227.839844 208.761719 224.410156 187.421875 223.589844 166.519531 C 223.300781 159 223.359375 151.539062 222.71875 143.980469 C 221.78125 132.609375 219.289062 120.988281 211.78125 108.578125 C 208.378906 102.96875 203.960938 97.199219 198.199219 91.21875 C 216.039062 83.980469 235.550781 80 256 80 C 257.191406 80 258.371094 80.011719 259.550781 80.039062 C 279.570312 80.488281 298.660156 84.78125 316.078125 92.171875 Z M 316.078125 92.171875 " style=" stroke:none;fill-rule:nonzero;fill:rgb(100%,39.215686%,46.666667%);fill-opacity:1;" />
<path d="M 288.398438 301.488281 C 289.320312 325.390625 286.800781 348.738281 313.800781 376.78125 C 296.988281 383.601562 278.691406 387.53125 259.519531 387.960938 C 257.871094 387.328125 256.230469 386.671875 254.609375 385.980469 C 233.960938 377.21875 215.46875 364.371094 200.148438 348.460938 C 203.820312 337.199219 209.5 328.71875 215.878906 321.191406 C 220.628906 315.570312 225.761719 310.480469 230.71875 305.148438 C 243.03125 291.921875 254.269531 277.238281 256 249.421875 C 256.28125 244.691406 256.300781 239.570312 256 234 C 284.160156 259.238281 287.589844 280.578125 288.398438 301.488281 Z M 288.398438 301.488281 " style=" stroke:none;fill-rule:nonzero;fill:rgb(89.803922%,16.078431%,16.078431%);fill-opacity:1;" />
<path d="M 256 234 C 230.761719 262.160156 209.421875 265.589844 188.511719 266.410156 C 181 266.699219 173.539062 266.640625 165.980469 267.28125 C 163.191406 267.511719 160.390625 267.828125 157.570312 268.300781 C 155.230469 257.238281 154 245.761719 154 234 C 154 217.878906 156.308594 202.320312 160.609375 187.601562 C 163.511719 189.570312 166.21875 191.691406 168.820312 193.890625 C 174.441406 198.640625 179.53125 203.769531 184.851562 208.71875 C 200.328125 223.128906 217.820312 236.078125 256 234 Z M 256 234 " style=" stroke:none;fill-rule:nonzero;fill:rgb(89.803922%,16.078431%,16.078431%);fill-opacity:1;" />
<path d="M 316.078125 92.171875 C 315.359375 130.710938 297.398438 145.53125 281.28125 162.859375 C 268.96875 176.070312 257.730469 190.75 256 218.539062 C 255.71875 223.289062 255.691406 228.421875 256 234 C 227.839844 208.761719 224.410156 187.421875 223.589844 166.519531 C 223.300781 159 223.359375 151.539062 222.71875 143.980469 C 221.78125 132.609375 219.289062 120.988281 211.78125 108.578125 C 225.191406 97.109375 240.460938 87.75 257.070312 81.019531 C 257.890625 80.691406 258.71875 80.359375 259.550781 80.039062 C 279.570312 80.488281 298.660156 84.78125 316.078125 92.171875 Z M 316.078125 92.171875 " style=" stroke:none;fill-rule:nonzero;fill:rgb(89.803922%,16.078431%,16.078431%);fill-opacity:1;" />
<path d="M 313.796875 376.78125 C 295.957031 384.019531 276.445312 388 256 388 L 256 234 C 284.15625 259.242188 287.59375 280.578125 288.398438 301.488281 C 288.695312 309 288.636719 316.460938 289.277344 324.019531 C 290.648438 340.53125 295.28125 357.554688 313.796875 376.78125 Z M 313.796875 376.78125 " style=" stroke:none;fill-rule:nonzero;fill:rgb(72.941176%,5.098039%,36.078431%);fill-opacity:1;" />
<path d="M 316.085938 92.164062 C 315.585938 118.855469 306.820312 134.171875 296.109375 146.824219 C 291.371094 152.449219 286.230469 157.53125 281.28125 162.863281 C 268.972656 176.070312 257.730469 190.75 256 218.539062 L 256 80 C 277.324219 80 297.628906 84.335938 316.085938 92.164062 Z M 316.085938 92.164062 " style=" stroke:none;fill-rule:nonzero;fill:rgb(72.941176%,5.098039%,36.078431%);fill-opacity:1;" />
</g>
</svg>