<svg xmlns="http://www.w3.org/2000/svg" height="512pt" version="1.1" viewBox="0 0 512 512" width="512pt">
<g id="surface1">
<path d="M 512 256 C 512 397.386719 397.386719 512 256 512 C 114.613281 512 0 397.386719 0 256 C 0 114.613281 114.613281 0 256 0 C 397.386719 0 512 114.613281 512 256 Z M 512 256 " style=" stroke:none;fill-rule:nonzero;fill:rgb(40.784314%,98.823529%,87.45098%);fill-opacity:1;" />
<path d="M 512 256 C 512 282.050781 508.109375 307.191406 500.871094 330.871094 C 468.859375 435.71875 371.328125 512 256 512 C 151.441406 512 61.511719 449.300781 21.769531 359.449219 C 7.769531 327.820312 0 292.820312 0 256 C 0 209.78125 12.25 166.429688 33.679688 129 C 77.800781 206.070312 160.839844 258 256 258 C 351.160156 258 434.210938 206.070312 478.320312 129 C 499.75 166.429688 512 209.78125 512 256 Z M 512 256 " style=" stroke:none;fill-rule:nonzero;fill:rgb(6.27451%,88.627451%,76.862745%);fill-opacity:1;" />
<path d="M 30.742188 377.703125 C 37.898438 390.921875 46.171875 403.441406 55.460938 415.128906 C 102.359375 474.148438 174.761719 512 256 512 C 337.238281 512 409.640625 474.148438 456.539062 415.128906 C 465.828125 403.441406 474.101562 390.921875 481.257812 377.703125 Z M 30.742188 377.703125 " style=" stroke:none;fill-rule:nonzero;fill:rgb(10.196078%,72.941176%,62.352941%);fill-opacity:1;" />
<path d="M 340.9375 127.964844 L 292.722656 188.066406 L 219.582031 188.066406 L 171.058594 127.578125 C 165.332031 120.441406 168.195312 111.925781 178.121094 106.613281 L 186.625 102.066406 C 206.261719 91.566406 231.140625 86.335938 256 86.425781 C 256.203125 86.425781 256.394531 86.425781 256.597656 86.4375 C 279.785156 86.59375 302.929688 91.398438 321.730469 100.871094 L 333.191406 106.636719 C 343.636719 111.902344 346.816406 120.632812 340.9375 127.964844 Z M 340.9375 127.964844 " style=" stroke:none;fill-rule:nonzero;fill:rgb(100%,100%,100%);fill-opacity:1;" />
<path d="M 340.9375 127.964844 L 292.722656 188.066406 L 255.515625 188.066406 L 207.546875 128.269531 C 200.835938 119.910156 204.1875 109.941406 215.804688 103.714844 L 225.761719 98.402344 C 235.15625 93.382812 245.566406 89.390625 256.597656 86.433594 C 279.785156 86.59375 302.929688 91.398438 321.730469 100.871094 L 333.191406 106.636719 C 343.636719 111.902344 346.816406 120.632812 340.9375 127.964844 Z M 340.9375 127.964844 " style=" stroke:none;fill-rule:nonzero;fill:rgb(92.156863%,94.117647%,95.294118%);fill-opacity:1;" />
<path d="M 292.722656 188.0625 L 256 188.0625 L 256 86.417969 C 279.390625 86.507812 302.773438 91.3125 321.730469 100.867188 L 333.191406 106.628906 C 343.636719 111.894531 346.816406 120.625 340.941406 127.957031 Z M 292.722656 188.0625 " style=" stroke:none;fill-rule:nonzero;fill:rgb(78.039216%,85.098039%,100%);fill-opacity:1;" />
<path d="M 311.488281 226.945312 C 311.488281 257.59375 286.644531 282.4375 256 282.4375 C 225.355469 282.4375 200.511719 257.59375 200.511719 226.945312 C 200.511719 196.300781 225.355469 171.457031 256 171.457031 C 286.644531 171.457031 311.488281 196.300781 311.488281 226.945312 Z M 311.488281 226.945312 " style=" stroke:none;fill-rule:nonzero;fill:rgb(100%,39.215686%,46.666667%);fill-opacity:1;" />
<path d="M 411.109375 354.191406 L 411.109375 429.289062 C 411.109375 437.199219 410.53125 444.960938 409.390625 452.539062 C 408.871094 456.019531 408.089844 459.410156 407.078125 462.679688 C 364.738281 493.691406 312.5 512 256 512 L 245.269531 512 C 241.070312 512 236.941406 511.648438 232.910156 510.980469 C 185.289062 506.710938 141.429688 489.421875 104.921875 462.679688 C 103.910156 459.410156 103.128906 456.019531 102.609375 452.539062 C 101.46875 444.960938 100.890625 437.199219 100.890625 429.289062 L 100.890625 355.75 C 100.890625 288.761719 143.910156 230.378906 203.699219 208.390625 C 220.058594 202.359375 237.671875 199.070312 256 199.070312 L 256.910156 199.070312 C 257.308594 199.070312 257.699219 199.078125 258.089844 199.078125 C 258.730469 199.089844 259.371094 199.101562 260 199.121094 C 260.53125 199.128906 261.058594 199.148438 261.589844 199.171875 C 262.050781 199.191406 262.519531 199.199219 262.980469 199.21875 C 263.609375 199.25 264.230469 199.28125 264.859375 199.320312 C 265.460938 199.351562 266.058594 199.390625 266.648438 199.429688 C 267.371094 199.480469 268.078125 199.53125 268.789062 199.589844 C 269.371094 199.640625 269.949219 199.691406 270.519531 199.738281 C 271.269531 199.808594 272.03125 199.890625 272.78125 199.96875 C 273.308594 200.019531 273.851562 200.078125 274.378906 200.148438 C 274.839844 200.199219 275.300781 200.261719 275.75 200.320312 C 276.199219 200.371094 276.640625 200.429688 277.078125 200.488281 C 277.5 200.550781 277.921875 200.609375 278.339844 200.671875 C 280.089844 200.921875 281.828125 201.199219 283.558594 201.511719 C 284.710938 201.71875 285.851562 201.941406 286.988281 202.171875 C 287.71875 202.320312 288.460938 202.46875 289.191406 202.628906 C 289.800781 202.761719 290.421875 202.898438 291.03125 203.039062 C 291.648438 203.191406 292.28125 203.328125 292.898438 203.488281 C 293.171875 203.550781 293.441406 203.621094 293.710938 203.691406 C 294.300781 203.828125 294.890625 203.980469 295.480469 204.140625 C 296.101562 204.300781 296.710938 204.46875 297.328125 204.640625 C 298.320312 204.910156 299.308594 205.199219 300.300781 205.488281 C 300.75 205.621094 301.210938 205.761719 301.660156 205.898438 C 303.03125 206.320312 304.390625 206.761719 305.75 207.21875 C 306.351562 207.421875 306.949219 207.628906 307.539062 207.839844 C 307.761719 207.921875 307.980469 207.988281 308.191406 208.070312 C 308.789062 208.28125 309.378906 208.5 309.96875 208.71875 C 310.558594 208.941406 311.148438 209.160156 311.738281 209.390625 C 314.480469 210.441406 317.171875 211.570312 319.828125 212.769531 C 320.328125 213 320.828125 213.230469 321.328125 213.46875 C 321.589844 213.578125 321.851562 213.699219 322.109375 213.828125 C 322.679688 214.089844 323.238281 214.359375 323.808594 214.640625 C 324.371094 214.910156 324.929688 215.191406 325.480469 215.46875 C 326.039062 215.75 326.601562 216.03125 327.148438 216.320312 C 327.710938 216.601562 328.261719 216.890625 328.808594 217.191406 C 329.738281 217.679688 330.660156 218.191406 331.578125 218.699219 C 332.019531 218.941406 332.460938 219.191406 332.898438 219.449219 C 333.539062 219.808594 334.179688 220.191406 334.820312 220.558594 C 335.359375 220.878906 335.898438 221.199219 336.429688 221.53125 C 339.628906 223.46875 342.75 225.53125 345.789062 227.691406 C 346.300781 228.050781 346.800781 228.410156 347.300781 228.78125 C 348.308594 229.511719 349.300781 230.261719 350.289062 231.011719 C 350.710938 231.328125 351.121094 231.648438 351.53125 231.96875 C 353.199219 233.28125 354.839844 234.621094 356.449219 235.988281 C 356.929688 236.390625 357.390625 236.789062 357.859375 237.199219 C 364.289062 242.808594 370.261719 248.941406 375.691406 255.519531 C 376.089844 256 376.480469 256.480469 376.871094 256.960938 C 378.878906 259.46875 380.820312 262.03125 382.679688 264.660156 C 383.039062 265.171875 383.398438 265.671875 383.75 266.191406 C 385.160156 268.230469 386.519531 270.300781 387.828125 272.410156 C 388.390625 273.320312 388.949219 274.238281 389.5 275.160156 C 389.898438 275.839844 390.300781 276.53125 390.699219 277.21875 C 391.269531 278.21875 391.839844 279.238281 392.390625 280.25 C 392.988281 281.351562 393.570312 282.460938 394.140625 283.570312 C 394.429688 284.128906 394.710938 284.691406 394.988281 285.25 C 395.871094 287.019531 396.71875 288.820312 397.539062 290.640625 C 397.78125 291.179688 398.019531 291.730469 398.261719 292.28125 C 398.53125 292.890625 398.789062 293.511719 399.050781 294.128906 C 399.28125 294.671875 399.511719 295.210938 399.71875 295.75 C 399.960938 296.328125 400.191406 296.910156 400.421875 297.5 C 400.648438 298.078125 400.878906 298.671875 401.101562 299.261719 C 401.75 300.96875 402.371094 302.699219 402.960938 304.441406 C 403.160156 305.039062 403.359375 305.640625 403.558594 306.25 C 403.820312 307.039062 404.070312 307.828125 404.308594 308.628906 C 404.628906 309.660156 404.929688 310.691406 405.230469 311.730469 C 406.5 316.230469 407.589844 320.820312 408.449219 325.480469 C 408.539062 325.929688 408.621094 326.378906 408.699219 326.820312 C 408.839844 327.609375 408.980469 328.410156 409.109375 329.210938 C 409.28125 330.28125 409.449219 331.359375 409.601562 332.449219 C 410.589844 339.550781 411.109375 346.808594 411.109375 354.191406 Z M 411.109375 354.191406 " style=" stroke:none;fill-rule:nonzero;fill:rgb(100%,100%,100%);fill-opacity:1;" />
<path d="M 411.109375 354.191406 L 411.109375 429.289062 C 411.109375 437.199219 410.53125 444.960938 409.390625 452.539062 C 408.871094 456.019531 408.089844 459.410156 407.078125 462.679688 C 364.738281 493.691406 312.5 512 256 512 L 245.269531 512 C 241.070312 512 236.941406 511.648438 232.910156 510.980469 C 208.28125 506.871094 187.390625 490.699219 177.21875 468.28125 C 174.449219 462.191406 172.480469 455.640625 171.441406 448.75 C 170.238281 440.691406 169.621094 432.441406 169.621094 424.03125 L 169.621094 345.800781 C 169.621094 335.921875 170.5 326.21875 172.179688 316.769531 C 175.171875 300.050781 180.671875 284.140625 188.28125 269.449219 L 188.28125 269.441406 C 192.691406 260.921875 197.820312 252.808594 203.589844 245.199219 C 217.671875 226.570312 235.539062 210.949219 256 199.578125 C 256.300781 199.410156 256.609375 199.238281 256.910156 199.070312 C 257.308594 199.070312 257.699219 199.078125 258.089844 199.078125 C 258.730469 199.089844 259.371094 199.101562 260 199.121094 C 260.53125 199.128906 261.058594 199.148438 261.589844 199.171875 C 262.050781 199.191406 262.519531 199.199219 262.980469 199.21875 C 263.609375 199.25 264.230469 199.28125 264.859375 199.320312 C 265.460938 199.351562 266.058594 199.390625 266.648438 199.429688 C 267.371094 199.480469 268.078125 199.53125 268.789062 199.589844 C 269.371094 199.640625 269.949219 199.691406 270.519531 199.738281 C 271.269531 199.808594 272.03125 199.890625 272.78125 199.96875 C 273.308594 200.019531 273.851562 200.078125 274.378906 200.148438 C 274.839844 200.199219 275.300781 200.261719 275.75 200.320312 C 276.199219 200.371094 276.640625 200.429688 277.078125 200.488281 C 277.5 200.550781 277.921875 200.609375 278.339844 200.671875 C 280.089844 200.921875 281.828125 201.199219 283.558594 201.511719 C 284.710938 201.71875 285.851562 201.941406 286.988281 202.171875 C 287.71875 202.320312 288.460938 202.46875 289.191406 202.628906 C 289.800781 202.761719 290.421875 202.898438 291.03125 203.039062 C 291.648438 203.191406 292.28125 203.328125 292.898438 203.488281 C 293.171875 203.550781 293.441406 203.621094 293.710938 203.691406 C 294.300781 203.828125 294.890625 203.980469 295.480469 204.140625 C 296.101562 204.300781 296.710938 204.46875 297.328125 204.640625 C 298.320312 204.910156 299.308594 205.199219 300.300781 205.488281 C 300.75 205.621094 301.210938 205.761719 301.660156 205.898438 C 303.03125 206.320312 304.390625 206.761719 305.75 207.21875 C 306.351562 207.421875 306.949219 207.628906 307.539062 207.839844 C 307.761719 207.921875 307.980469 207.988281 308.191406 208.070312 C 308.789062 208.28125 309.378906 208.5 309.96875 208.71875 C 310.558594 208.941406 311.148438 209.160156 311.738281 209.390625 C 314.480469 210.441406 317.171875 211.570312 319.828125 212.769531 C 320.328125 213 320.828125 213.230469 321.328125 213.46875 C 321.589844 213.578125 321.851562 213.699219 322.109375 213.828125 C 322.679688 214.089844 323.238281 214.359375 323.808594 214.640625 C 324.371094 214.910156 324.929688 215.191406 325.480469 215.46875 C 326.039062 215.75 326.601562 216.03125 327.148438 216.320312 C 327.710938 216.601562 328.261719 216.890625 328.808594 217.191406 C 329.738281 217.679688 330.660156 218.191406 331.578125 218.699219 C 332.019531 218.941406 332.460938 219.191406 332.898438 219.449219 C 333.539062 219.808594 334.179688 220.191406 334.820312 220.558594 C 335.359375 220.878906 335.898438 221.199219 336.429688 221.53125 C 339.628906 223.46875 342.75 225.53125 345.789062 227.691406 C 346.300781 228.050781 346.800781 228.410156 347.300781 228.78125 C 348.308594 229.511719 349.300781 230.261719 350.289062 231.011719 C 350.710938 231.328125 351.121094 231.648438 351.53125 231.96875 C 353.199219 233.28125 354.839844 234.621094 356.449219 235.988281 C 356.929688 236.390625 357.390625 236.789062 357.859375 237.199219 C 364.289062 242.808594 370.261719 248.941406 375.691406 255.519531 C 376.089844 256 376.480469 256.480469 376.871094 256.960938 C 378.878906 259.46875 380.820312 262.03125 382.679688 264.660156 C 383.039062 265.171875 383.398438 265.671875 383.75 266.191406 C 385.160156 268.230469 386.519531 270.300781 387.828125 272.410156 C 388.390625 273.320312 388.949219 274.238281 389.5 275.160156 C 389.898438 275.839844 390.300781 276.53125 390.699219 277.21875 C 391.269531 278.21875 391.839844 279.238281 392.390625 280.25 C 392.988281 281.351562 393.570312 282.460938 394.140625 283.570312 C 394.429688 284.128906 394.710938 284.691406 394.988281 285.25 C 395.871094 287.019531 396.71875 288.820312 397.539062 290.640625 C 397.78125 291.179688 398.019531 291.730469 398.261719 292.28125 C 398.53125 292.890625 398.789062 293.511719 399.050781 294.128906 C 399.28125 294.671875 399.511719 295.210938 399.71875 295.75 C 399.960938 296.328125 400.191406 296.910156 400.421875 297.5 C 400.648438 298.078125 400.878906 298.671875 401.101562 299.261719 C 401.75 300.96875 402.371094 302.699219 402.960938 304.441406 C 403.160156 305.039062 403.359375 305.640625 403.558594 306.25 C 403.820312 307.039062 404.070312 307.828125 404.308594 308.628906 C 404.628906 309.660156 404.929688 310.691406 405.230469 311.730469 C 406.5 316.230469 407.589844 320.820312 408.449219 325.480469 C 408.539062 325.929688 408.621094 326.378906 408.699219 326.820312 C 408.839844 327.609375 408.980469 328.410156 409.109375 329.210938 C 409.28125 330.28125 409.449219 331.359375 409.601562 332.449219 C 410.589844 339.550781 411.109375 346.808594 411.109375 354.191406 Z M 411.109375 354.191406 " style=" stroke:none;fill-rule:nonzero;fill:rgb(92.156863%,94.117647%,95.294118%);fill-opacity:1;" />
<path d="M 411.109375 354.191406 L 411.109375 429.289062 C 411.109375 437.199219 410.53125 444.960938 409.390625 452.539062 C 408.871094 456.019531 408.089844 459.410156 407.078125 462.679688 C 364.738281 493.691406 312.5 512 256 512 L 256 199.070312 L 256.910156 199.070312 C 257.308594 199.070312 257.699219 199.078125 258.089844 199.078125 C 258.730469 199.089844 259.371094 199.101562 260 199.121094 C 260.53125 199.128906 261.058594 199.148438 261.589844 199.171875 C 262.050781 199.191406 262.519531 199.199219 262.980469 199.21875 C 263.609375 199.25 264.230469 199.28125 264.859375 199.320312 C 265.460938 199.351562 266.058594 199.390625 266.648438 199.429688 C 267.371094 199.480469 268.078125 199.53125 268.789062 199.589844 C 269.371094 199.640625 269.949219 199.691406 270.519531 199.738281 C 271.269531 199.808594 272.03125 199.890625 272.78125 199.96875 C 273.308594 200.019531 273.851562 200.078125 274.378906 200.148438 C 274.839844 200.199219 275.300781 200.261719 275.75 200.320312 C 276.199219 200.371094 276.640625 200.429688 277.078125 200.488281 C 277.5 200.550781 277.921875 200.609375 278.339844 200.671875 C 280.089844 200.921875 281.828125 201.199219 283.558594 201.511719 C 284.710938 201.71875 285.851562 201.941406 286.988281 202.171875 C 287.71875 202.320312 288.460938 202.46875 289.191406 202.628906 C 289.800781 202.761719 290.421875 202.898438 291.03125 203.039062 C 291.648438 203.191406 292.28125 203.328125 292.898438 203.488281 C 293.171875 203.550781 293.441406 203.621094 293.710938 203.691406 C 294.300781 203.828125 294.890625 203.980469 295.480469 204.140625 C 296.101562 204.300781 296.710938 204.46875 297.328125 204.640625 C 298.320312 204.910156 299.308594 205.199219 300.300781 205.488281 C 300.75 205.621094 301.210938 205.761719 301.660156 205.898438 C 303.03125 206.320312 304.390625 206.761719 305.75 207.21875 C 306.351562 207.421875 306.949219 207.628906 307.539062 207.839844 C 307.761719 207.921875 307.980469 207.988281 308.191406 208.070312 C 308.789062 208.28125 309.378906 208.5 309.96875 208.71875 C 310.558594 208.941406 311.148438 209.160156 311.738281 209.390625 C 314.480469 210.441406 317.171875 211.570312 319.828125 212.769531 C 320.328125 213 320.828125 213.230469 321.328125 213.46875 C 321.589844 213.578125 321.851562 213.699219 322.109375 213.828125 C 322.679688 214.089844 323.238281 214.359375 323.808594 214.640625 C 324.371094 214.910156 324.929688 215.191406 325.480469 215.46875 C 326.039062 215.75 326.601562 216.03125 327.148438 216.320312 C 327.710938 216.601562 328.261719 216.890625 328.808594 217.191406 C 329.738281 217.679688 330.660156 218.191406 331.578125 218.699219 C 332.019531 218.941406 332.460938 219.191406 332.898438 219.449219 C 333.539062 219.808594 334.179688 220.191406 334.820312 220.558594 C 335.359375 220.878906 335.898438 221.199219 336.429688 221.53125 C 339.628906 223.46875 342.75 225.53125 345.789062 227.691406 C 346.300781 228.050781 346.800781 228.410156 347.300781 228.78125 C 348.308594 229.511719 349.300781 230.261719 350.289062 231.011719 C 350.710938 231.328125 351.121094 231.648438 351.53125 231.96875 C 353.199219 233.28125 354.839844 234.621094 356.449219 235.988281 C 356.929688 236.390625 357.390625 236.789062 357.859375 237.199219 C 364.289062 242.808594 370.261719 248.941406 375.691406 255.519531 C 376.089844 256 376.480469 256.480469 376.871094 256.960938 C 378.878906 259.46875 380.820312 262.03125 382.679688 264.660156 C 383.039062 265.171875 383.398438 265.671875 383.75 266.191406 C 385.160156 268.230469 386.519531 270.300781 387.828125 272.410156 C 388.390625 273.320312 388.949219 274.238281 389.5 275.160156 C 389.898438 275.839844 390.300781 276.53125 390.699219 277.21875 C 391.269531 278.21875 391.839844 279.238281 392.390625 280.25 C 392.988281 281.351562 393.570312 282.460938 394.140625 283.570312 C 394.429688 284.128906 394.710938 284.691406 394.988281 285.25 C 395.871094 287.019531 396.71875 288.820312 397.539062 290.640625 C 397.78125 291.179688 398.019531 291.730469 398.261719 292.28125 C 398.53125 292.890625 398.789062 293.511719 399.050781 294.128906 C 399.28125 294.671875 399.511719 295.210938 399.71875 295.75 C 399.960938 296.328125 400.191406 296.910156 400.421875 297.5 C 400.648438 298.078125 400.878906 298.671875 401.101562 299.261719 C 401.75 300.96875 402.371094 302.699219 402.960938 304.441406 C 403.160156 305.039062 403.359375 305.640625 403.558594 306.25 C 403.820312 307.039062 404.070312 307.828125 404.308594 308.628906 C 404.628906 309.660156 404.929688 310.691406 405.230469 311.730469 C 406.5 316.230469 407.589844 320.820312 408.449219 325.480469 C 408.539062 325.929688 408.621094 326.378906 408.699219 326.820312 C 408.839844 327.609375 408.980469 328.410156 409.109375 329.210938 C 409.28125 330.28125 409.449219 331.359375 409.601562 332.449219 C 410.589844 339.550781 411.109375 346.808594 411.109375 354.191406 Z M 411.109375 354.191406 " style=" stroke:none;fill-rule:nonzero;fill:rgb(78.039216%,85.098039%,100%);fill-opacity:1;" />
<path d="M 334.609375 367.285156 C 334.609375 384.324219 320.792969 398.140625 303.753906 398.140625 C 286.714844 398.140625 272.898438 384.324219 272.898438 367.285156 C 272.898438 350.246094 286.714844 336.429688 303.753906 336.429688 C 320.792969 336.429688 334.609375 350.246094 334.609375 367.285156 Z M 334.609375 367.285156 " style=" stroke:none;fill-rule:nonzero;fill:rgb(89.803922%,16.078431%,16.078431%);fill-opacity:1;" />
<path d="M 334.605469 367.285156 C 334.605469 384.328125 320.796875 398.136719 303.757812 398.136719 L 303.757812 336.429688 C 320.796875 336.429688 334.605469 350.246094 334.605469 367.285156 Z M 334.605469 367.285156 " style=" stroke:none;fill-rule:nonzero;fill:rgb(72.941176%,5.098039%,36.078431%);fill-opacity:1;" />
<path d="M 239.105469 367.285156 C 239.105469 384.324219 225.289062 398.140625 208.25 398.140625 C 191.210938 398.140625 177.394531 384.324219 177.394531 367.285156 C 177.394531 350.246094 191.210938 336.429688 208.25 336.429688 C 225.289062 336.429688 239.105469 350.246094 239.105469 367.285156 Z M 239.105469 367.285156 " style=" stroke:none;fill-rule:nonzero;fill:rgb(40.784314%,98.823529%,87.45098%);fill-opacity:1;" />
<path d="M 239.101562 367.285156 C 239.101562 384.328125 225.292969 398.136719 208.253906 398.136719 L 208.253906 336.429688 C 225.292969 336.429688 239.101562 350.246094 239.101562 367.285156 Z M 239.101562 367.285156 " style=" stroke:none;fill-rule:nonzero;fill:rgb(6.27451%,88.627451%,76.862745%);fill-opacity:1;" />
<path d="M 193.953125 287.28125 C 193.953125 304.320312 180.136719 318.136719 163.097656 318.136719 C 146.054688 318.136719 132.242188 304.320312 132.242188 287.28125 C 132.242188 270.242188 146.054688 256.425781 163.097656 256.425781 C 180.136719 256.425781 193.953125 270.242188 193.953125 287.28125 Z M 193.953125 287.28125 " style=" stroke:none;fill-rule:nonzero;fill:rgb(89.803922%,16.078431%,16.078431%);fill-opacity:1;" />
<path d="M 193.949219 287.28125 C 193.949219 304.324219 180.140625 318.132812 163.097656 318.132812 L 163.097656 256.425781 C 180.140625 256.425781 193.949219 270.242188 193.949219 287.28125 Z M 193.949219 287.28125 " style=" stroke:none;fill-rule:nonzero;fill:rgb(72.941176%,5.098039%,36.078431%);fill-opacity:1;" />
<path d="M 379.761719 440.839844 C 379.761719 457.878906 365.949219 471.695312 348.90625 471.695312 C 331.867188 471.695312 318.050781 457.878906 318.050781 440.839844 C 318.050781 423.800781 331.867188 409.984375 348.90625 409.984375 C 365.949219 409.984375 379.761719 423.800781 379.761719 440.839844 Z M 379.761719 440.839844 " style=" stroke:none;fill-rule:nonzero;fill:rgb(40.784314%,98.823529%,87.45098%);fill-opacity:1;" />
<path d="M 379.761719 440.84375 C 379.761719 457.882812 365.949219 471.691406 348.910156 471.691406 L 348.910156 409.984375 C 365.949219 409.984375 379.761719 423.800781 379.761719 440.84375 Z M 379.761719 440.84375 " style=" stroke:none;fill-rule:nonzero;fill:rgb(6.27451%,88.627451%,76.862745%);fill-opacity:1;" />
<path d="M 193.953125 440.839844 C 193.953125 457.878906 180.136719 471.695312 163.097656 471.695312 C 146.054688 471.695312 132.242188 457.878906 132.242188 440.839844 C 132.242188 423.800781 146.054688 409.984375 163.097656 409.984375 C 180.136719 409.984375 193.953125 423.800781 193.953125 440.839844 Z M 193.953125 440.839844 " style=" stroke:none;fill-rule:nonzero;fill:rgb(97.647059%,52.156863%,65.098039%);fill-opacity:1;" />
<path d="M 193.949219 440.84375 C 193.949219 457.882812 180.140625 471.691406 163.097656 471.691406 L 163.097656 409.984375 C 180.140625 409.984375 193.949219 423.800781 193.949219 440.84375 Z M 193.949219 440.84375 " style=" stroke:none;fill-rule:nonzero;fill:rgb(92.941176%,33.72549%,50.588235%);fill-opacity:1;" />
<path d="M 377.132812 287.28125 C 377.132812 304.320312 363.316406 318.136719 346.277344 318.136719 C 329.234375 318.136719 315.421875 304.320312 315.421875 287.28125 C 315.421875 270.242188 329.234375 256.425781 346.277344 256.425781 C 363.316406 256.425781 377.132812 270.242188 377.132812 287.28125 Z M 377.132812 287.28125 " style=" stroke:none;fill-rule:nonzero;fill:rgb(97.647059%,52.156863%,65.098039%);fill-opacity:1;" />
<path d="M 377.128906 287.28125 C 377.128906 304.324219 363.320312 318.132812 346.277344 318.132812 L 346.277344 256.425781 C 363.320312 256.425781 377.128906 270.242188 377.128906 287.28125 Z M 377.128906 287.28125 " style=" stroke:none;fill-rule:nonzero;fill:rgb(92.941176%,33.72549%,50.588235%);fill-opacity:1;" />
<path d="M 286.855469 440.839844 C 286.855469 457.878906 273.042969 471.695312 256.003906 471.695312 C 238.960938 471.695312 225.148438 457.878906 225.148438 440.839844 C 225.148438 423.800781 238.960938 409.984375 256.003906 409.984375 C 273.042969 409.984375 286.855469 423.800781 286.855469 440.839844 Z M 286.855469 440.839844 " style=" stroke:none;fill-rule:nonzero;fill:rgb(100%,81.960784%,7.058824%);fill-opacity:1;" />
<path d="M 286.855469 440.84375 C 286.855469 457.882812 273.046875 471.691406 256.003906 471.691406 L 256.003906 409.984375 C 273.046875 409.984375 286.855469 423.800781 286.855469 440.84375 Z M 286.855469 440.84375 " style=" stroke:none;fill-rule:nonzero;fill:rgb(100%,62.352941%,0%);fill-opacity:1;" />
<path d="M 286.855469 287.28125 C 286.855469 304.320312 273.042969 318.136719 256.003906 318.136719 C 238.960938 318.136719 225.148438 304.320312 225.148438 287.28125 C 225.148438 270.242188 238.960938 256.425781 256.003906 256.425781 C 273.042969 256.425781 286.855469 270.242188 286.855469 287.28125 Z M 286.855469 287.28125 " style=" stroke:none;fill-rule:nonzero;fill:rgb(100%,81.960784%,7.058824%);fill-opacity:1;" />
<path d="M 286.855469 287.28125 C 286.855469 304.324219 273.046875 318.132812 256.003906 318.132812 L 256.003906 256.425781 C 273.046875 256.425781 286.855469 270.242188 286.855469 287.28125 Z M 286.855469 287.28125 " style=" stroke:none;fill-rule:nonzero;fill:rgb(100%,62.352941%,0%);fill-opacity:1;" />
</g>
</svg>