<svg xmlns="http://www.w3.org/2000/svg" height="512pt" version="1.1" viewBox="0 0 512 512" width="512pt">
<g id="surface1">
<path d="M 512 256 C 512 397.386719 397.386719 512 256 512 C 114.613281 512 0 397.386719 0 256 C 0 114.613281 114.613281 0 256 0 C 397.386719 0 512 114.613281 512 256 Z M 512 256 " style=" stroke:none;fill-rule:nonzero;fill:rgb(39.607843%,69.803922%,100%);fill-opacity:1;" />
<path d="M 512 256 C 512 282.050781 508.109375 307.191406 500.871094 330.871094 C 468.859375 435.71875 371.328125 512 256 512 C 151.441406 512 61.511719 449.300781 21.769531 359.449219 C 7.769531 327.820312 0 292.820312 0 256 C 0 209.78125 12.25 166.429688 33.679688 129 C 77.800781 206.070312 160.839844 258 256 258 C 351.160156 258 434.210938 206.070312 478.320312 129 C 499.75 166.429688 512 209.78125 512 256 Z M 512 256 " style=" stroke:none;fill-rule:nonzero;fill:rgb(5.882353%,60.784314%,90.980392%);fill-opacity:1;" />
<path d="M 30.742188 377.703125 C 37.898438 390.921875 46.171875 403.441406 55.460938 415.128906 C 102.359375 474.148438 174.761719 512 256 512 C 337.238281 512 409.640625 474.148438 456.539062 415.128906 C 465.828125 403.441406 474.101562 390.921875 481.257812 377.703125 Z M 30.742188 377.703125 " style=" stroke:none;fill-rule:nonzero;fill:rgb(0%,40%,90.980392%);fill-opacity:1;" />
<path d="M 458.105469 316.96875 L 458.105469 335.164062 C 458.105469 350.679688 446 363.253906 431.0625 363.253906 L 80.9375 363.253906 C 66 363.253906 53.894531 350.679688 53.894531 335.164062 L 53.894531 316.96875 C 53.894531 301.453125 66 288.878906 80.9375 288.878906 L 431.0625 288.878906 C 446 288.878906 458.105469 301.453125 458.105469 316.96875 Z M 458.105469 316.96875 " style=" stroke:none;fill-rule:nonzero;fill:rgb(100%,65.882353%,47.843137%);fill-opacity:1;" />
<path d="M 88.472656 363.257812 L 423.527344 363.257812 L 423.527344 437.621094 L 88.472656 437.621094 Z M 88.472656 363.257812 " style=" stroke:none;fill-rule:nonzero;fill:rgb(100%,100%,100%);fill-opacity:1;" />
<path d="M 164.695312 363.257812 L 423.527344 363.257812 L 423.527344 437.621094 L 164.695312 437.621094 Z M 164.695312 363.257812 " style=" stroke:none;fill-rule:nonzero;fill:rgb(92.156863%,94.117647%,95.294118%);fill-opacity:1;" />
<path d="M 256 363.257812 L 423.527344 363.257812 L 423.527344 437.621094 L 256 437.621094 Z M 256 363.257812 " style=" stroke:none;fill-rule:nonzero;fill:rgb(78.039216%,85.098039%,100%);fill-opacity:1;" />
<path d="M 435.949219 438.078125 C 422.289062 451.589844 407.109375 463.558594 390.691406 473.738281 C 351.570312 497.988281 305.421875 512 256 512 C 223.828125 512 193.050781 506.070312 164.691406 495.230469 C 149.480469 489.421875 134.960938 482.199219 121.308594 473.738281 C 104.890625 463.558594 89.710938 451.589844 76.050781 438.078125 C 77.628906 437.78125 79.269531 437.621094 80.941406 437.621094 L 431.058594 437.621094 C 432.730469 437.621094 434.371094 437.78125 435.949219 438.078125 Z M 435.949219 438.078125 " style=" stroke:none;fill-rule:nonzero;fill:rgb(100%,65.882353%,47.843137%);fill-opacity:1;" />
<path d="M 458.105469 316.96875 L 458.105469 335.164062 C 458.105469 350.679688 446 363.253906 431.0625 363.253906 L 164.695312 363.253906 L 164.695312 288.878906 L 431.0625 288.878906 C 446 288.878906 458.105469 301.453125 458.105469 316.96875 Z M 458.105469 316.96875 " style=" stroke:none;fill-rule:nonzero;fill:rgb(91.764706%,50.980392%,30.588235%);fill-opacity:1;" />
<path d="M 458.105469 316.96875 L 458.105469 326.152344 L 53.894531 326.152344 L 53.894531 316.96875 C 53.894531 301.453125 66 288.878906 80.9375 288.878906 L 431.0625 288.878906 C 446 288.878906 458.105469 301.453125 458.105469 316.96875 Z M 458.105469 316.96875 " style=" stroke:none;fill-rule:nonzero;fill:rgb(91.764706%,50.980392%,30.588235%);fill-opacity:1;" />
<path d="M 458.105469 316.96875 L 458.105469 326.152344 L 164.695312 326.152344 L 164.695312 288.878906 L 431.0625 288.878906 C 446 288.878906 458.105469 301.453125 458.105469 316.96875 Z M 458.105469 316.96875 " style=" stroke:none;fill-rule:nonzero;fill:rgb(77.254902%,34.509804%,20.784314%);fill-opacity:1;" />
<path d="M 435.949219 438.078125 C 422.289062 451.589844 407.109375 463.558594 390.691406 473.738281 C 351.570312 497.988281 305.421875 512 256 512 C 223.828125 512 193.050781 506.070312 164.691406 495.230469 L 164.691406 437.621094 L 431.058594 437.621094 C 432.730469 437.621094 434.371094 437.78125 435.949219 438.078125 Z M 435.949219 438.078125 " style=" stroke:none;fill-rule:nonzero;fill:rgb(91.764706%,50.980392%,30.588235%);fill-opacity:1;" />
<path d="M 458.105469 316.96875 L 458.105469 335.164062 C 458.105469 350.679688 446 363.253906 431.0625 363.253906 L 256 363.253906 L 256 288.878906 L 431.0625 288.878906 C 446 288.878906 458.105469 301.453125 458.105469 316.96875 Z M 458.105469 316.96875 " style=" stroke:none;fill-rule:nonzero;fill:rgb(77.254902%,34.509804%,20.784314%);fill-opacity:1;" />
<path d="M 435.949219 438.078125 C 422.289062 451.589844 407.109375 463.558594 390.691406 473.738281 C 351.570312 497.988281 305.421875 512 256 512 L 256 437.621094 L 431.058594 437.621094 C 432.730469 437.621094 434.371094 437.78125 435.949219 438.078125 Z M 435.949219 438.078125 " style=" stroke:none;fill-rule:nonzero;fill:rgb(77.254902%,34.509804%,20.784314%);fill-opacity:1;" />
<path d="M 390.691406 473.738281 C 351.570312 497.988281 305.421875 512 256 512 C 223.828125 512 193.050781 506.070312 164.691406 495.230469 C 149.480469 489.421875 134.960938 482.199219 121.308594 473.738281 Z M 390.691406 473.738281 " style=" stroke:none;fill-rule:nonzero;fill:rgb(91.764706%,50.980392%,30.588235%);fill-opacity:1;" />
<path d="M 390.691406 473.738281 C 351.570312 497.988281 305.421875 512 256 512 C 223.828125 512 193.050781 506.070312 164.691406 495.230469 L 164.691406 473.738281 Z M 390.691406 473.738281 " style=" stroke:none;fill-rule:nonzero;fill:rgb(77.254902%,34.509804%,20.784314%);fill-opacity:1;" />
<path d="M 458.105469 316.96875 L 458.105469 326.152344 L 256 326.152344 L 256 288.878906 L 431.0625 288.878906 C 446 288.878906 458.105469 301.453125 458.105469 316.96875 Z M 458.105469 316.96875 " style=" stroke:none;fill-rule:nonzero;fill:rgb(47.843137%,17.647059%,10.196078%);fill-opacity:1;" />
<path d="M 390.691406 473.738281 C 351.570312 497.988281 305.421875 512 256 512 L 256 473.738281 Z M 390.691406 473.738281 " style=" stroke:none;fill-rule:nonzero;fill:rgb(47.843137%,17.647059%,10.196078%);fill-opacity:1;" />
<path d="M 88.472656 387.359375 L 423.527344 387.359375 L 423.527344 411.753906 L 88.472656 411.753906 Z M 88.472656 387.359375 " style=" stroke:none;fill-rule:nonzero;fill:rgb(100%,91.372549%,33.333333%);fill-opacity:1;" />
<path d="M 164.695312 387.359375 L 423.527344 387.359375 L 423.527344 411.753906 L 164.695312 411.753906 Z M 164.695312 387.359375 " style=" stroke:none;fill-rule:nonzero;fill:rgb(100%,81.960784%,7.058824%);fill-opacity:1;" />
<path d="M 256 387.359375 L 423.527344 387.359375 L 423.527344 411.753906 L 256 411.753906 Z M 256 387.359375 " style=" stroke:none;fill-rule:nonzero;fill:rgb(100%,62.352941%,0%);fill-opacity:1;" />
<path d="M 107.453125 212.699219 L 105.929688 212.699219 C 99.175781 212.699219 93.703125 207.222656 93.703125 200.472656 L 93.703125 198.945312 L 84.984375 198.945312 L 84.984375 200.472656 C 84.984375 207.222656 79.511719 212.699219 72.757812 212.699219 L 71.234375 212.699219 L 71.234375 221.414062 L 72.757812 221.414062 C 79.511719 221.414062 84.984375 226.886719 84.984375 233.640625 L 84.984375 235.164062 L 93.703125 235.164062 L 93.703125 233.640625 C 93.703125 226.886719 99.175781 221.414062 105.929688 221.414062 L 107.453125 221.414062 Z M 107.453125 212.699219 " style=" stroke:none;fill-rule:nonzero;fill:rgb(100%,100%,100%);fill-opacity:1;" />
<path d="M 441.636719 212.699219 L 440.113281 212.699219 C 433.359375 212.699219 427.886719 207.222656 427.886719 200.472656 L 427.886719 198.945312 L 419.171875 198.945312 L 419.171875 200.472656 C 419.171875 207.222656 413.695312 212.699219 406.941406 212.699219 L 405.417969 212.699219 L 405.417969 221.414062 L 406.941406 221.414062 C 413.695312 221.414062 419.171875 226.886719 419.171875 233.640625 L 419.171875 235.164062 L 427.886719 235.164062 L 427.886719 233.640625 C 427.886719 226.886719 433.359375 221.414062 440.113281 221.414062 L 441.636719 221.414062 Z M 441.636719 212.699219 " style=" stroke:none;fill-rule:nonzero;fill:rgb(100%,100%,100%);fill-opacity:1;" />
<path d="M 274.546875 212.699219 L 273.019531 212.699219 C 266.269531 212.699219 260.792969 207.222656 260.792969 200.472656 L 260.792969 198.945312 L 252.078125 198.945312 L 252.078125 200.472656 C 252.078125 207.222656 246.605469 212.699219 239.851562 212.699219 L 238.324219 212.699219 L 238.324219 221.414062 L 239.851562 221.414062 C 246.605469 221.414062 252.078125 226.886719 252.078125 233.640625 L 252.078125 235.164062 L 260.792969 235.164062 L 260.792969 233.640625 C 260.792969 226.886719 266.269531 221.414062 273.019531 221.414062 L 274.546875 221.414062 Z M 274.546875 212.699219 " style=" stroke:none;fill-rule:nonzero;fill:rgb(100%,100%,100%);fill-opacity:1;" />
<path d="M 197.257812 106.53125 L 195.730469 106.53125 C 188.980469 106.53125 183.503906 101.058594 183.503906 94.304688 L 183.503906 92.78125 L 174.789062 92.78125 L 174.789062 94.304688 C 174.789062 101.058594 169.316406 106.53125 162.5625 106.53125 L 161.035156 106.53125 L 161.035156 115.25 L 162.5625 115.25 C 169.316406 115.25 174.789062 120.722656 174.789062 127.476562 L 174.789062 129 L 183.503906 129 L 183.503906 127.476562 C 183.503906 120.722656 188.980469 115.246094 195.730469 115.246094 L 197.257812 115.246094 Z M 197.257812 106.53125 " style=" stroke:none;fill-rule:nonzero;fill:rgb(100%,100%,100%);fill-opacity:1;" />
<path d="M 350.960938 106.53125 L 349.4375 106.53125 C 342.683594 106.53125 337.210938 101.058594 337.210938 94.304688 L 337.210938 92.78125 L 328.496094 92.78125 L 328.496094 94.304688 C 328.496094 101.058594 323.019531 106.53125 316.269531 106.53125 L 314.742188 106.53125 L 314.742188 115.25 L 316.269531 115.25 C 323.019531 115.25 328.496094 120.722656 328.496094 127.476562 L 328.496094 129 L 337.210938 129 L 337.210938 127.476562 C 337.210938 120.722656 342.683594 115.246094 349.4375 115.246094 L 350.960938 115.246094 Z M 350.960938 106.53125 " style=" stroke:none;fill-rule:nonzero;fill:rgb(100%,100%,100%);fill-opacity:1;" />
</g>
</svg>