<svg xmlns="http://www.w3.org/2000/svg" height="512pt" version="1.1" viewBox="0 0 512 512" width="512pt">
<g id="surface1">
<path d="M 512 256 C 512 397.386719 397.386719 512 256 512 C 114.613281 512 0 397.386719 0 256 C 0 114.613281 114.613281 0 256 0 C 397.386719 0 512 114.613281 512 256 Z M 512 256 " style=" stroke:none;fill-rule:nonzero;fill:rgb(70.980392%,88.627451%,21.568627%);fill-opacity:1;" />
<path d="M 512 256 C 512 282.050781 508.109375 307.191406 500.871094 330.871094 C 468.859375 435.71875 371.328125 512 256 512 C 151.441406 512 61.511719 449.300781 21.769531 359.449219 C 7.769531 327.820312 0 292.820312 0 256 C 0 209.78125 12.25 166.429688 33.679688 129 C 77.800781 206.070312 160.839844 258 256 258 C 351.160156 258 434.210938 206.070312 478.320312 129 C 499.75 166.429688 512 209.78125 512 256 Z M 512 256 " style=" stroke:none;fill-rule:nonzero;fill:rgb(58.431373%,83.921569%,0%);fill-opacity:1;" />
<path d="M 30.742188 377.703125 C 37.898438 390.921875 46.171875 403.441406 55.460938 415.128906 C 102.359375 474.148438 174.761719 512 256 512 C 337.238281 512 409.640625 474.148438 456.539062 415.128906 C 465.828125 403.441406 474.101562 390.921875 481.257812 377.703125 Z M 30.742188 377.703125 " style=" stroke:none;fill-rule:nonzero;fill:rgb(52.156863%,68.627451%,7.058824%);fill-opacity:1;" />
<path d="M 414.871094 256 C 414.871094 343.738281 343.738281 414.871094 256 414.871094 L 255.960938 414.871094 C 168.238281 414.851562 97.128906 343.730469 97.128906 256 C 97.128906 219.46875 109.460938 185.820312 130.179688 158.980469 C 159.238281 121.359375 204.789062 97.128906 256 97.128906 C 256.371094 97.128906 256.730469 97.128906 257.101562 97.140625 C 307.859375 97.480469 352.96875 121.628906 381.820312 158.980469 C 402.539062 185.820312 414.871094 219.46875 414.871094 256 Z M 414.871094 256 " style=" stroke:none;fill-rule:nonzero;fill:rgb(100%,100%,100%);fill-opacity:1;" />
<path d="M 414.871094 256 C 414.871094 343.738281 343.738281 414.871094 256 414.871094 L 255.960938 414.871094 C 206.628906 379.53125 174.480469 321.730469 174.480469 256.410156 C 174.480469 211.621094 189.601562 170.359375 215 137.449219 C 226.929688 122 241.128906 108.398438 257.101562 97.140625 C 307.859375 97.480469 352.96875 121.628906 381.820312 158.980469 C 402.539062 185.820312 414.871094 219.46875 414.871094 256 Z M 414.871094 256 " style=" stroke:none;fill-rule:nonzero;fill:rgb(92.156863%,94.117647%,95.294118%);fill-opacity:1;" />
<path d="M 414.871094 256 C 414.871094 343.738281 343.738281 414.871094 256 414.871094 L 256 97.128906 C 307.210938 97.128906 352.761719 121.359375 381.820312 158.980469 C 402.539062 185.820312 414.871094 219.46875 414.871094 256 Z M 414.871094 256 " style=" stroke:none;fill-rule:nonzero;fill:rgb(78.039216%,85.098039%,100%);fill-opacity:1;" />
<path d="M 360.960938 489.550781 C 338.761719 499.550781 314.878906 506.46875 289.851562 509.78125 C 278.78125 511.238281 267.480469 512 256 512 C 244.519531 512 233.21875 511.238281 222.148438 509.78125 C 213.898438 508.691406 205.78125 507.210938 197.800781 505.351562 C 181.558594 501.578125 165.921875 496.261719 151.039062 489.550781 L 163.339844 391.289062 L 348.660156 391.289062 Z M 360.960938 489.550781 " style=" stroke:none;fill-rule:nonzero;fill:rgb(45.490196%,49.411765%,61.960784%);fill-opacity:1;" />
<path d="M 360.960938 489.550781 C 338.761719 499.550781 314.878906 506.46875 289.851562 509.78125 C 278.78125 511.238281 267.480469 512 256 512 C 244.519531 512 233.21875 511.238281 222.148438 509.78125 C 213.898438 508.691406 205.78125 507.210938 197.800781 505.351562 L 209.980469 408.101562 L 212.078125 391.289062 L 348.660156 391.289062 Z M 360.960938 489.550781 " style=" stroke:none;fill-rule:nonzero;fill:rgb(27.843137%,30.980392%,43.529412%);fill-opacity:1;" />
<path d="M 360.960938 489.550781 C 338.761719 499.550781 314.878906 506.46875 289.851562 509.78125 C 278.78125 511.238281 267.480469 512 256 512 L 256 391.289062 L 348.660156 391.289062 Z M 360.960938 489.550781 " style=" stroke:none;fill-rule:nonzero;fill:rgb(19.607843%,23.137255%,35.294118%);fill-opacity:1;" />
<path d="M 381.820312 158.980469 L 130.179688 158.980469 C 159.238281 121.359375 204.789062 97.128906 256 97.128906 C 256.371094 97.128906 256.730469 97.128906 257.101562 97.140625 C 257.789062 97.140625 258.46875 97.148438 259.160156 97.171875 C 259.371094 97.171875 259.578125 97.179688 259.789062 97.179688 C 260.46875 97.199219 261.148438 97.21875 261.828125 97.238281 L 261.859375 97.238281 C 262.539062 97.269531 263.210938 97.289062 263.878906 97.328125 C 264.089844 97.339844 264.289062 97.351562 264.5 97.359375 C 265.179688 97.398438 265.871094 97.441406 266.550781 97.480469 C 267.300781 97.53125 268.039062 97.578125 268.789062 97.640625 C 268.878906 97.648438 268.96875 97.660156 269.058594 97.660156 C 269.609375 97.710938 270.160156 97.761719 270.710938 97.808594 C 271.300781 97.859375 271.878906 97.910156 272.449219 97.980469 C 272.898438 98.019531 273.351562 98.070312 273.800781 98.121094 C 274.480469 98.199219 275.148438 98.28125 275.828125 98.359375 C 275.851562 98.359375 275.878906 98.371094 275.898438 98.371094 C 276.648438 98.460938 277.398438 98.558594 278.148438 98.671875 C 278.921875 98.769531 279.679688 98.878906 280.441406 99 C 281.199219 99.121094 281.960938 99.238281 282.71875 99.371094 C 283.449219 99.488281 284.179688 99.621094 284.910156 99.761719 C 285.449219 99.859375 285.988281 99.960938 286.53125 100.058594 C 287.210938 100.191406 287.878906 100.328125 288.550781 100.46875 C 288.921875 100.550781 289.289062 100.628906 289.660156 100.710938 C 291.03125 101 292.398438 101.320312 293.761719 101.648438 C 295.300781 102.019531 296.828125 102.421875 298.351562 102.839844 C 299.070312 103.039062 299.78125 103.238281 300.488281 103.441406 C 302.179688 103.941406 303.871094 104.460938 305.539062 105.011719 C 306.03125 105.171875 306.511719 105.328125 306.988281 105.488281 C 307.839844 105.78125 308.691406 106.070312 309.53125 106.378906 C 310.109375 106.578125 310.691406 106.789062 311.261719 107.011719 C 311.769531 107.199219 312.269531 107.390625 312.78125 107.578125 C 313.339844 107.789062 313.898438 108.011719 314.460938 108.230469 C 316.699219 109.121094 318.921875 110.058594 321.121094 111.050781 C 321.808594 111.359375 322.488281 111.671875 323.171875 111.988281 C 323.851562 112.308594 324.53125 112.628906 325.199219 112.960938 C 327.898438 114.261719 330.550781 115.640625 333.171875 117.101562 C 333.648438 117.371094 334.128906 117.628906 334.601562 117.910156 C 337.5 119.558594 340.351562 121.308594 343.128906 123.140625 C 343.730469 123.519531 344.320312 123.921875 344.910156 124.320312 C 347.890625 126.328125 350.800781 128.449219 353.628906 130.660156 C 354.128906 131.039062 354.621094 131.429688 355.109375 131.828125 C 359.839844 135.601562 364.339844 139.640625 368.609375 143.929688 C 369.140625 144.460938 369.660156 144.988281 370.171875 145.519531 C 374.300781 149.789062 378.191406 154.28125 381.820312 158.980469 Z M 381.820312 158.980469 " style=" stroke:none;fill-rule:nonzero;fill:rgb(100%,39.215686%,46.666667%);fill-opacity:1;" />
<path d="M 381.820312 158.980469 L 200.570312 158.980469 C 204.898438 151.46875 209.730469 144.28125 215 137.449219 C 226.929688 122 240.03125 108.390625 256 97.128906 C 256.691406 97.128906 258.46875 97.148438 259.160156 97.171875 C 259.371094 97.171875 259.578125 97.179688 259.789062 97.179688 C 260.46875 97.199219 261.148438 97.21875 261.828125 97.238281 L 261.859375 97.238281 C 262.539062 97.269531 263.210938 97.289062 263.878906 97.328125 C 264.089844 97.339844 264.289062 97.351562 264.5 97.359375 C 265.179688 97.398438 265.871094 97.441406 266.550781 97.480469 C 267.300781 97.53125 268.039062 97.578125 268.789062 97.640625 C 268.878906 97.648438 268.96875 97.660156 269.058594 97.660156 C 269.609375 97.710938 270.160156 97.761719 270.710938 97.808594 C 271.300781 97.859375 271.878906 97.910156 272.449219 97.980469 C 272.898438 98.019531 273.351562 98.070312 273.800781 98.121094 C 274.480469 98.199219 275.148438 98.28125 275.828125 98.359375 C 275.851562 98.359375 275.878906 98.371094 275.898438 98.371094 C 276.648438 98.460938 277.398438 98.558594 278.148438 98.671875 C 278.921875 98.769531 279.679688 98.878906 280.441406 99 C 281.199219 99.121094 281.960938 99.238281 282.71875 99.371094 C 283.449219 99.488281 284.179688 99.621094 284.910156 99.761719 C 285.449219 99.859375 285.988281 99.960938 286.53125 100.058594 C 287.210938 100.191406 287.878906 100.328125 288.550781 100.46875 C 288.921875 100.550781 289.289062 100.628906 289.660156 100.710938 C 291.03125 101 292.398438 101.320312 293.761719 101.648438 C 295.300781 102.019531 296.828125 102.421875 298.351562 102.839844 C 299.070312 103.039062 299.78125 103.238281 300.488281 103.441406 C 302.179688 103.941406 303.871094 104.460938 305.539062 105.011719 C 306.03125 105.171875 306.511719 105.328125 306.988281 105.488281 C 307.839844 105.78125 308.691406 106.070312 309.53125 106.378906 C 310.109375 106.578125 310.691406 106.789062 311.261719 107.011719 C 311.769531 107.199219 312.269531 107.390625 312.78125 107.578125 C 313.339844 107.789062 313.898438 108.011719 314.460938 108.230469 C 316.699219 109.121094 318.921875 110.058594 321.121094 111.050781 C 321.808594 111.359375 322.488281 111.671875 323.171875 111.988281 C 323.851562 112.308594 324.53125 112.628906 325.199219 112.960938 C 327.898438 114.261719 330.550781 115.640625 333.171875 117.101562 C 333.648438 117.371094 334.128906 117.628906 334.601562 117.910156 C 337.5 119.558594 340.351562 121.308594 343.128906 123.140625 C 343.730469 123.519531 344.320312 123.921875 344.910156 124.320312 C 347.890625 126.328125 350.800781 128.449219 353.628906 130.660156 C 354.128906 131.039062 354.621094 131.429688 355.109375 131.828125 C 359.839844 135.601562 364.339844 139.640625 368.609375 143.929688 C 369.140625 144.460938 369.660156 144.988281 370.171875 145.519531 C 374.300781 149.789062 378.191406 154.28125 381.820312 158.980469 Z M 381.820312 158.980469 " style=" stroke:none;fill-rule:nonzero;fill:rgb(89.803922%,16.078431%,16.078431%);fill-opacity:1;" />
<path d="M 381.820312 158.980469 L 256 158.980469 L 256 97.128906 C 307.210938 97.128906 352.761719 121.359375 381.820312 158.980469 Z M 381.820312 158.980469 " style=" stroke:none;fill-rule:nonzero;fill:rgb(72.941176%,5.098039%,36.078431%);fill-opacity:1;" />
<path d="M 289.851562 509.78125 C 278.78125 511.238281 267.480469 512 256 512 C 244.519531 512 233.21875 511.238281 222.148438 509.78125 L 225.351562 481.398438 C 227.101562 465.789062 240.300781 454 256 454 C 263.851562 454 271.078125 456.949219 276.558594 461.851562 C 282.039062 466.738281 285.78125 473.601562 286.648438 481.398438 Z M 289.851562 509.78125 " style=" stroke:none;fill-rule:nonzero;fill:rgb(100%,100%,100%);fill-opacity:1;" />
<path d="M 312.074219 289.5625 C 312.074219 301.714844 302.222656 311.570312 290.066406 311.570312 C 277.910156 311.570312 268.054688 301.714844 268.054688 289.5625 C 268.054688 277.40625 277.910156 267.550781 290.066406 267.550781 C 302.222656 267.550781 312.074219 277.40625 312.074219 289.5625 Z M 312.074219 289.5625 " style=" stroke:none;fill-rule:nonzero;fill:rgb(89.803922%,16.078431%,16.078431%);fill-opacity:1;" />
<path d="M 312.074219 289.5625 C 312.074219 301.71875 302.222656 311.570312 290.066406 311.570312 L 290.066406 267.550781 C 302.222656 267.550781 312.074219 277.40625 312.074219 289.5625 Z M 312.074219 289.5625 " style=" stroke:none;fill-rule:nonzero;fill:rgb(72.941176%,5.098039%,36.078431%);fill-opacity:1;" />
<path d="M 243.949219 289.5625 C 243.949219 301.714844 234.09375 311.570312 221.9375 311.570312 C 209.78125 311.570312 199.929688 301.714844 199.929688 289.5625 C 199.929688 277.40625 209.78125 267.550781 221.9375 267.550781 C 234.09375 267.550781 243.949219 277.40625 243.949219 289.5625 Z M 243.949219 289.5625 " style=" stroke:none;fill-rule:nonzero;fill:rgb(40.784314%,98.823529%,87.45098%);fill-opacity:1;" />
<path d="M 243.945312 289.5625 C 243.945312 301.71875 234.097656 311.570312 221.941406 311.570312 L 221.941406 267.550781 C 234.097656 267.550781 243.945312 277.40625 243.945312 289.5625 Z M 243.945312 289.5625 " style=" stroke:none;fill-rule:nonzero;fill:rgb(6.27451%,88.627451%,76.862745%);fill-opacity:1;" />
<path d="M 211.738281 232.492188 C 211.738281 244.648438 201.886719 254.5 189.730469 254.5 C 177.574219 254.5 167.71875 244.648438 167.71875 232.492188 C 167.71875 220.335938 177.574219 210.480469 189.730469 210.480469 C 201.886719 210.480469 211.738281 220.335938 211.738281 232.492188 Z M 211.738281 232.492188 " style=" stroke:none;fill-rule:nonzero;fill:rgb(89.803922%,16.078431%,16.078431%);fill-opacity:1;" />
<path d="M 211.738281 232.492188 C 211.738281 244.648438 201.886719 254.5 189.730469 254.5 L 189.730469 210.480469 C 201.886719 210.480469 211.738281 220.335938 211.738281 232.492188 Z M 211.738281 232.492188 " style=" stroke:none;fill-rule:nonzero;fill:rgb(72.941176%,5.098039%,36.078431%);fill-opacity:1;" />
<path d="M 344.285156 342.03125 C 344.285156 354.1875 334.429688 364.039062 322.273438 364.039062 C 310.117188 364.039062 300.265625 354.1875 300.265625 342.03125 C 300.265625 329.875 310.117188 320.019531 322.273438 320.019531 C 334.429688 320.019531 344.285156 329.875 344.285156 342.03125 Z M 344.285156 342.03125 " style=" stroke:none;fill-rule:nonzero;fill:rgb(40.784314%,98.823529%,87.45098%);fill-opacity:1;" />
<path d="M 344.28125 342.03125 C 344.28125 354.1875 334.433594 364.039062 322.277344 364.039062 L 322.277344 320.019531 C 334.433594 320.019531 344.28125 329.875 344.28125 342.03125 Z M 344.28125 342.03125 " style=" stroke:none;fill-rule:nonzero;fill:rgb(6.27451%,88.627451%,76.862745%);fill-opacity:1;" />
<path d="M 211.738281 342.03125 C 211.738281 354.1875 201.886719 364.039062 189.730469 364.039062 C 177.574219 364.039062 167.71875 354.1875 167.71875 342.03125 C 167.71875 329.875 177.574219 320.019531 189.730469 320.019531 C 201.886719 320.019531 211.738281 329.875 211.738281 342.03125 Z M 211.738281 342.03125 " style=" stroke:none;fill-rule:nonzero;fill:rgb(97.647059%,52.156863%,65.098039%);fill-opacity:1;" />
<path d="M 211.738281 342.03125 C 211.738281 354.1875 201.886719 364.039062 189.730469 364.039062 L 189.730469 320.019531 C 201.886719 320.019531 211.738281 329.875 211.738281 342.03125 Z M 211.738281 342.03125 " style=" stroke:none;fill-rule:nonzero;fill:rgb(92.941176%,33.72549%,50.588235%);fill-opacity:1;" />
<path d="M 342.40625 232.492188 C 342.40625 244.648438 332.554688 254.5 320.398438 254.5 C 308.242188 254.5 298.386719 244.648438 298.386719 232.492188 C 298.386719 220.335938 308.242188 210.480469 320.398438 210.480469 C 332.554688 210.480469 342.40625 220.335938 342.40625 232.492188 Z M 342.40625 232.492188 " style=" stroke:none;fill-rule:nonzero;fill:rgb(97.647059%,52.156863%,65.098039%);fill-opacity:1;" />
<path d="M 342.40625 232.492188 C 342.40625 244.648438 332.554688 254.5 320.398438 254.5 L 320.398438 210.480469 C 332.554688 210.480469 342.40625 220.335938 342.40625 232.492188 Z M 342.40625 232.492188 " style=" stroke:none;fill-rule:nonzero;fill:rgb(92.941176%,33.72549%,50.588235%);fill-opacity:1;" />
<path d="M 278.011719 342.03125 C 278.011719 354.1875 268.15625 364.039062 256 364.039062 C 243.84375 364.039062 233.992188 354.1875 233.992188 342.03125 C 233.992188 329.875 243.84375 320.019531 256 320.019531 C 268.15625 320.019531 278.011719 329.875 278.011719 342.03125 Z M 278.011719 342.03125 " style=" stroke:none;fill-rule:nonzero;fill:rgb(100%,81.960784%,7.058824%);fill-opacity:1;" />
<path d="M 278.011719 342.03125 C 278.011719 354.1875 268.160156 364.039062 256.003906 364.039062 L 256.003906 320.019531 C 268.160156 320.019531 278.011719 329.875 278.011719 342.03125 Z M 278.011719 342.03125 " style=" stroke:none;fill-rule:nonzero;fill:rgb(100%,62.352941%,0%);fill-opacity:1;" />
<path d="M 278.011719 232.492188 C 278.011719 244.648438 268.15625 254.5 256 254.5 C 243.84375 254.5 233.992188 244.648438 233.992188 232.492188 C 233.992188 220.335938 243.84375 210.480469 256 210.480469 C 268.15625 210.480469 278.011719 220.335938 278.011719 232.492188 Z M 278.011719 232.492188 " style=" stroke:none;fill-rule:nonzero;fill:rgb(100%,81.960784%,7.058824%);fill-opacity:1;" />
<path d="M 278.011719 232.492188 C 278.011719 244.648438 268.160156 254.5 256.003906 254.5 L 256.003906 210.480469 C 268.160156 210.480469 278.011719 220.335938 278.011719 232.492188 Z M 278.011719 232.492188 " style=" stroke:none;fill-rule:nonzero;fill:rgb(100%,62.352941%,0%);fill-opacity:1;" />
</g>
</svg>