<svg xmlns="http://www.w3.org/2000/svg" height="512pt" version="1.1" viewBox="0 0 512 512" width="512pt">
<g id="surface1">
<path d="M 512 256 C 512 397.386719 397.386719 512 256 512 C 114.613281 512 0 397.386719 0 256 C 0 114.613281 114.613281 0 256 0 C 397.386719 0 512 114.613281 512 256 Z M 512 256 " style=" stroke:none;fill-rule:nonzero;fill:rgb(100%,91.372549%,33.333333%);fill-opacity:1;" />
<path d="M 512 256 C 512 282.050781 508.109375 307.191406 500.871094 330.871094 C 468.859375 435.71875 371.328125 512 256 512 C 151.441406 512 61.511719 449.300781 21.769531 359.449219 C 7.769531 327.820312 0 292.820312 0 256 C 0 209.78125 12.25 166.429688 33.679688 129 C 77.800781 206.070312 160.839844 258 256 258 C 351.160156 258 434.210938 206.070312 478.320312 129 C 499.75 166.429688 512 209.78125 512 256 Z M 512 256 " style=" stroke:none;fill-rule:nonzero;fill:rgb(100%,81.960784%,7.058824%);fill-opacity:1;" />
<path d="M 30.742188 377.703125 C 37.898438 390.921875 46.171875 403.441406 55.460938 415.128906 C 102.359375 474.148438 174.761719 512 256 512 C 337.238281 512 409.640625 474.148438 456.539062 415.128906 C 465.828125 403.441406 474.101562 390.921875 481.257812 377.703125 Z M 30.742188 377.703125 " style=" stroke:none;fill-rule:nonzero;fill:rgb(100%,62.352941%,0%);fill-opacity:1;" />
<path d="M 438.558594 360.613281 L 406.949219 395.199219 L 331.46875 477.792969 C 310.628906 500.597656 283.320312 512 256 512 C 228.679688 512 201.371094 500.597656 180.53125 477.792969 L 150.5 444.933594 L 105.050781 395.199219 L 73.441406 360.613281 C 52.601562 337.808594 42.179688 307.925781 42.179688 278.03125 C 42.179688 248.136719 52.601562 218.253906 73.441406 195.449219 C 94.691406 172.195312 122.660156 160.792969 150.5 161.253906 C 177.289062 161.679688 203.949219 173.070312 224.390625 195.449219 L 256 230.035156 L 287.609375 195.449219 C 329.289062 149.828125 396.871094 149.828125 438.558594 195.449219 C 480.238281 241.054688 480.238281 315.003906 438.558594 360.613281 Z M 438.558594 360.613281 " style=" stroke:none;fill-rule:nonzero;fill:rgb(65.098039%,22.352941%,7.843137%);fill-opacity:1;" />
<path d="M 438.558594 360.613281 L 406.949219 395.199219 L 331.46875 477.792969 C 310.628906 500.597656 283.320312 512 256 512 C 228.679688 512 201.371094 500.597656 180.53125 477.792969 L 150.5 444.933594 L 150.5 161.253906 C 177.289062 161.679688 203.949219 173.070312 224.390625 195.449219 L 256 230.035156 L 287.609375 195.449219 C 329.289062 149.828125 396.871094 149.828125 438.558594 195.449219 C 480.238281 241.054688 480.238281 315.003906 438.558594 360.613281 Z M 438.558594 360.613281 " style=" stroke:none;fill-rule:nonzero;fill:rgb(65.098039%,22.352941%,7.843137%);fill-opacity:1;" />
<path d="M 438.558594 360.613281 L 406.949219 395.199219 L 331.46875 477.792969 C 310.628906 500.597656 283.320312 512 256 512 L 256 230.035156 L 287.609375 195.449219 C 329.289062 149.828125 396.871094 149.828125 438.558594 195.449219 C 480.238281 241.054688 480.238281 315.003906 438.558594 360.613281 Z M 438.558594 360.613281 " style=" stroke:none;fill-rule:nonzero;fill:rgb(47.843137%,17.647059%,10.196078%);fill-opacity:1;" />
<path d="M 390.121094 248.441406 C 386.511719 244.492188 382.300781 241.429688 377.71875 239.347656 C 373.140625 237.28125 368.191406 236.1875 363.078125 236.1875 C 352.871094 236.1875 343.269531 240.542969 336.039062 248.441406 L 256 336.035156 L 175.960938 248.441406 C 168.730469 240.542969 159.128906 236.1875 148.921875 236.1875 C 138.699219 236.1875 129.101562 240.542969 121.878906 248.441406 C 114.660156 256.351562 110.679688 266.859375 110.679688 278.03125 C 110.679688 289.203125 114.660156 299.71875 121.878906 307.617188 L 228.960938 424.789062 C 236.421875 432.953125 246.210938 437.023438 256 437.023438 C 265.789062 437.023438 275.578125 432.953125 283.039062 424.789062 L 390.121094 307.617188 C 397.339844 299.71875 401.320312 289.203125 401.320312 278.03125 C 401.320312 266.859375 397.339844 256.351562 390.121094 248.441406 Z M 390.121094 248.441406 " style=" stroke:none;fill-rule:nonzero;fill:rgb(77.254902%,34.509804%,20.784314%);fill-opacity:1;" />
<path d="M 401.320312 278.03125 C 401.320312 289.203125 397.339844 299.71875 390.121094 307.617188 L 283.039062 424.789062 C 275.578125 432.953125 265.789062 437.023438 256 437.023438 L 256 336.035156 L 336.039062 248.441406 C 343.269531 240.542969 352.871094 236.1875 363.078125 236.1875 C 368.191406 236.1875 373.140625 237.28125 377.71875 239.347656 C 382.300781 241.429688 386.511719 244.492188 390.121094 248.441406 C 397.339844 256.351562 401.320312 266.859375 401.320312 278.03125 Z M 401.320312 278.03125 " style=" stroke:none;fill-rule:nonzero;fill:rgb(65.098039%,22.352941%,7.843137%);fill-opacity:1;" />
</g>
</svg>