<svg xmlns="http://www.w3.org/2000/svg" height="512pt" version="1.1" viewBox="0 0 512 512" width="512pt">
<g id="surface1">
<path d="M 512 256 C 512 397.386719 397.386719 512 256 512 C 114.613281 512 0 397.386719 0 256 C 0 114.613281 114.613281 0 256 0 C 397.386719 0 512 114.613281 512 256 Z M 512 256 " style=" stroke:none;fill-rule:nonzero;fill:rgb(100%,91.372549%,33.333333%);fill-opacity:1;" />
<path d="M 512 256 C 512 282.050781 508.109375 307.191406 500.871094 330.871094 C 468.859375 435.71875 371.328125 512 256 512 C 151.441406 512 61.511719 449.300781 21.769531 359.449219 C 7.769531 327.820312 0 292.820312 0 256 C 0 209.78125 12.25 166.429688 33.679688 129 C 77.800781 206.070312 160.839844 258 256 258 C 351.160156 258 434.210938 206.070312 478.320312 129 C 499.75 166.429688 512 209.78125 512 256 Z M 512 256 " style=" stroke:none;fill-rule:nonzero;fill:rgb(100%,81.960784%,7.058824%);fill-opacity:1;" />
<path d="M 30.742188 377.703125 C 37.898438 390.921875 46.171875 403.441406 55.460938 415.128906 C 102.359375 474.148438 174.761719 512 256 512 C 337.238281 512 409.640625 474.148438 456.539062 415.128906 C 465.828125 403.441406 474.101562 390.921875 481.257812 377.703125 Z M 30.742188 377.703125 " style=" stroke:none;fill-rule:nonzero;fill:rgb(100%,62.352941%,0%);fill-opacity:1;" />
<path d="M 426.488281 258.558594 C 425.988281 277.980469 409.691406 293.28125 390.261719 293.28125 L 323 293.28125 L 323 386.828125 L 330.769531 420.789062 L 334.679688 437.851562 L 337.578125 450.53125 L 341.480469 467.578125 L 347.769531 495.050781 C 325.898438 503.460938 302.570312 508.949219 278.28125 511.039062 L 271.730469 482.449219 L 267.828125 465.398438 L 264.929688 452.71875 L 261.03125 435.671875 L 256 413.710938 L 248.199219 447.800781 L 246.890625 453.511719 L 240.089844 483.238281 L 233.71875 511.039062 C 209.429688 508.949219 186.101562 503.460938 164.230469 495.050781 L 170.339844 468.371094 L 174.660156 449.488281 L 177.140625 438.628906 L 177.601562 436.640625 L 189 386.828125 L 189 293.28125 L 121.160156 293.28125 C 111.308594 293.28125 102.398438 289.289062 95.949219 282.828125 C 89.289062 276.179688 85.25 266.898438 85.511719 256.679688 C 86.011719 237.269531 102.308594 221.96875 121.730469 221.96875 L 195.230469 221.96875 C 202.238281 221.96875 205.941406 213.769531 201.390625 208.429688 C 190.488281 195.660156 184 179.019531 184.25 160.859375 C 184.78125 122.519531 215.921875 91.058594 254.25 90.140625 C 254.828125 90.128906 255.421875 90.121094 256 90.121094 C 295.628906 90.121094 327.761719 122.25 327.761719 161.878906 C 327.761719 179.691406 321.269531 195.96875 310.539062 208.519531 C 306.011719 213.800781 309.800781 221.96875 316.769531 221.96875 L 390.839844 221.96875 C 400.691406 221.96875 409.601562 225.960938 416.050781 232.410156 C 422.710938 239.058594 426.75 248.339844 426.488281 258.558594 Z M 426.488281 258.558594 " style=" stroke:none;fill-rule:nonzero;fill:rgb(77.254902%,34.509804%,20.784314%);fill-opacity:1;" />
<path d="M 426.488281 258.558594 C 425.988281 277.980469 409.691406 293.28125 390.261719 293.28125 L 323 293.28125 L 323 386.828125 L 330.769531 420.789062 L 334.679688 437.851562 L 337.578125 450.53125 L 341.480469 467.578125 L 347.769531 495.050781 C 325.898438 503.460938 302.570312 508.949219 278.28125 511.039062 L 271.730469 482.449219 L 267.828125 465.398438 L 264.929688 452.71875 L 261.03125 435.671875 L 256 413.710938 L 256 90.121094 C 295.628906 90.121094 327.761719 122.25 327.761719 161.878906 C 327.761719 179.691406 321.269531 195.96875 310.539062 208.519531 C 306.011719 213.800781 309.800781 221.96875 316.769531 221.96875 L 390.839844 221.96875 C 400.691406 221.96875 409.601562 225.960938 416.050781 232.410156 C 422.710938 239.058594 426.75 248.339844 426.488281 258.558594 Z M 426.488281 258.558594 " style=" stroke:none;fill-rule:nonzero;fill:rgb(65.098039%,22.352941%,7.843137%);fill-opacity:1;" />
<path d="M 284.699219 181.851562 C 278.238281 190.691406 267.789062 196.441406 256 196.441406 C 244.210938 196.441406 233.761719 190.691406 227.300781 181.851562 C 223.390625 176.488281 228.839844 169.371094 235.039062 171.710938 C 241.558594 174.171875 248.621094 175.511719 256 175.511719 C 263.378906 175.511719 270.441406 174.171875 276.960938 171.710938 C 283.160156 169.371094 288.609375 176.488281 284.699219 181.851562 Z M 284.699219 181.851562 " style=" stroke:none;fill-rule:nonzero;fill:rgb(97.647059%,52.156863%,65.098039%);fill-opacity:1;" />
<path d="M 284.699219 181.851562 C 278.238281 190.691406 267.789062 196.441406 256 196.441406 L 256 175.511719 C 263.378906 175.511719 270.441406 174.171875 276.960938 171.710938 C 283.160156 169.371094 288.609375 176.488281 284.699219 181.851562 Z M 284.699219 181.851562 " style=" stroke:none;fill-rule:nonzero;fill:rgb(92.941176%,33.72549%,50.588235%);fill-opacity:1;" />
<path d="M 273.28125 253.316406 C 273.28125 243.777344 265.542969 236.042969 256 236.042969 C 246.457031 236.042969 238.71875 243.777344 238.71875 253.316406 C 238.71875 262.859375 246.457031 270.59375 256 270.59375 C 265.542969 270.59375 273.28125 262.859375 273.28125 253.316406 Z M 273.28125 253.316406 " style=" stroke:none;fill-rule:nonzero;fill:rgb(100%,81.960784%,7.058824%);fill-opacity:1;" />
<path d="M 273.28125 305.769531 C 273.28125 315.320312 265.539062 323.050781 256 323.050781 C 246.460938 323.050781 238.71875 315.320312 238.71875 305.769531 C 238.71875 296.230469 246.460938 288.5 256 288.5 C 265.539062 288.5 273.28125 296.230469 273.28125 305.769531 Z M 273.28125 305.769531 " style=" stroke:none;fill-rule:nonzero;fill:rgb(100%,81.960784%,7.058824%);fill-opacity:1;" />
<path d="M 273.28125 358.230469 C 273.28125 348.691406 265.542969 340.957031 256 340.957031 C 246.457031 340.957031 238.71875 348.691406 238.71875 358.230469 C 238.71875 367.773438 246.457031 375.507812 256 375.507812 C 265.542969 375.507812 273.28125 367.773438 273.28125 358.230469 Z M 273.28125 358.230469 " style=" stroke:none;fill-rule:nonzero;fill:rgb(100%,81.960784%,7.058824%);fill-opacity:1;" />
<path d="M 273.28125 358.230469 C 273.28125 367.769531 265.539062 375.511719 256 375.511719 L 256 340.960938 C 265.539062 340.960938 273.28125 348.691406 273.28125 358.230469 Z M 273.28125 358.230469 " style=" stroke:none;fill-rule:nonzero;fill:rgb(100%,62.352941%,0%);fill-opacity:1;" />
<path d="M 273.28125 305.769531 C 273.28125 315.320312 265.539062 323.050781 256 323.050781 L 256 288.5 C 265.539062 288.5 273.28125 296.230469 273.28125 305.769531 Z M 273.28125 305.769531 " style=" stroke:none;fill-rule:nonzero;fill:rgb(100%,62.352941%,0%);fill-opacity:1;" />
<path d="M 256 270.589844 L 256 236.039062 C 265.539062 236.039062 273.28125 243.78125 273.28125 253.320312 C 273.28125 262.859375 265.539062 270.589844 256 270.589844 Z M 256 270.589844 " style=" stroke:none;fill-rule:nonzero;fill:rgb(100%,62.352941%,0%);fill-opacity:1;" />
<path d="M 139.121094 221.96875 L 169.617188 221.96875 L 169.617188 293.28125 L 139.121094 293.28125 Z M 139.121094 221.96875 " style=" stroke:none;fill-rule:nonzero;fill:rgb(100%,100%,100%);fill-opacity:1;" />
<path d="M 340.25 221.96875 L 370.746094 221.96875 L 370.746094 293.28125 L 340.25 293.28125 Z M 340.25 221.96875 " style=" stroke:none;fill-rule:nonzero;fill:rgb(100%,100%,100%);fill-opacity:1;" />
<path d="M 246.890625 453.511719 L 240.089844 483.238281 L 170.339844 468.371094 L 174.660156 449.488281 L 177.140625 438.628906 Z M 246.890625 453.511719 " style=" stroke:none;fill-rule:nonzero;fill:rgb(100%,100%,100%);fill-opacity:1;" />
<path d="M 341.480469 467.578125 L 271.730469 482.449219 L 267.828125 465.398438 L 264.929688 452.71875 L 334.679688 437.851562 L 337.578125 450.53125 Z M 341.480469 467.578125 " style=" stroke:none;fill-rule:nonzero;fill:rgb(100%,100%,100%);fill-opacity:1;" />
</g>
</svg>