<svg xmlns="http://www.w3.org/2000/svg" height="512pt" version="1.1" viewBox="0 0 512 512" width="512pt">
<g id="surface1">
<path d="M 512 256 C 512 397.386719 397.386719 512 256 512 C 114.613281 512 0 397.386719 0 256 C 0 114.613281 114.613281 0 256 0 C 397.386719 0 512 114.613281 512 256 Z M 512 256 " style=" stroke:none;fill-rule:nonzero;fill:rgb(61.960784%,41.176471%,88.627451%);fill-opacity:1;" />
<path d="M 512 256 C 512 282.050781 508.109375 307.191406 500.871094 330.871094 C 468.859375 435.71875 371.328125 512 256 512 C 151.441406 512 61.511719 449.300781 21.769531 359.449219 C 7.769531 327.820312 0 292.820312 0 256 C 0 209.78125 12.25 166.429688 33.679688 129 C 77.800781 206.070312 160.839844 258 256 258 C 351.160156 258 434.210938 206.070312 478.320312 129 C 499.75 166.429688 512 209.78125 512 256 Z M 512 256 " style=" stroke:none;fill-rule:nonzero;fill:rgb(55.686275%,30.980392%,82.352941%);fill-opacity:1;" />
<path d="M 30.742188 377.703125 C 37.898438 390.921875 46.171875 403.441406 55.460938 415.128906 C 102.359375 474.148438 174.761719 512 256 512 C 337.238281 512 409.640625 474.148438 456.539062 415.128906 C 465.828125 403.441406 474.101562 390.921875 481.257812 377.703125 Z M 30.742188 377.703125 " style=" stroke:none;fill-rule:nonzero;fill:rgb(43.921569%,21.960784%,72.941176%);fill-opacity:1;" />
<path d="M 445.441406 428.191406 L 445.429688 428.199219 C 398.601562 479.679688 331.070312 512 256 512 C 212.628906 512 171.78125 501.210938 135.988281 482.171875 C 109.808594 468.261719 86.339844 449.929688 66.558594 428.191406 L 69.578125 415.699219 L 75.601562 390.859375 L 79.351562 375.378906 L 83.171875 359.589844 L 115.988281 223.949219 L 116.011719 223.839844 L 395.988281 223.839844 L 396.011719 223.949219 L 423.480469 337.480469 L 428.828125 359.589844 L 432.648438 375.378906 L 436.398438 390.859375 L 438.878906 401.078125 L 442.421875 415.699219 Z M 445.441406 428.191406 " style=" stroke:none;fill-rule:nonzero;fill:rgb(100%,65.882353%,47.843137%);fill-opacity:1;" />
<path d="M 445.429688 428.199219 C 398.601562 479.679688 331.070312 512 256 512 C 212.628906 512 171.78125 501.210938 135.988281 482.171875 L 146.871094 437.191406 L 146.871094 437.179688 L 150.679688 421.449219 L 152.859375 412.449219 L 158.078125 390.859375 L 158.078125 390.851562 L 161.828125 375.378906 L 165.648438 359.601562 L 165.648438 359.589844 L 187.671875 268.53125 L 187.679688 268.53125 L 198.460938 223.941406 L 198.480469 223.839844 L 395.988281 223.839844 L 396.019531 223.941406 L 423.480469 337.480469 L 428.828125 359.589844 L 432.648438 375.378906 L 436.398438 390.859375 L 438.328125 398.828125 L 442.410156 415.699219 Z M 445.429688 428.199219 " style=" stroke:none;fill-rule:nonzero;fill:rgb(91.764706%,50.980392%,30.588235%);fill-opacity:1;" />
<path d="M 445.429688 428.199219 C 398.601562 479.679688 331.070312 512 256 512 L 256 223.839844 L 395.988281 223.839844 L 396.019531 223.941406 L 423.480469 337.480469 L 428.828125 359.589844 L 430.691406 367.289062 L 432.648438 375.378906 L 436.398438 390.859375 L 437.570312 395.679688 L 442.410156 415.699219 Z M 445.429688 428.199219 " style=" stroke:none;fill-rule:nonzero;fill:rgb(77.254902%,34.509804%,20.784314%);fill-opacity:1;" />
<path d="M 442.414062 415.703125 C 415.699219 418.390625 413.917969 441.070312 383.851562 441.070312 C 351.882812 441.070312 351.882812 415.441406 319.914062 415.441406 C 287.957031 415.441406 287.957031 441.058594 256 441.070312 L 255.992188 441.070312 C 224.03125 441.070312 224.03125 415.441406 192.066406 415.441406 C 167.964844 415.441406 162.046875 430.015625 146.875 437.175781 C 141.933594 439.515625 136.003906 441.066406 128.140625 441.066406 C 98.082031 441.066406 96.300781 418.390625 69.585938 415.703125 L 75.597656 390.855469 L 79.347656 375.378906 L 432.652344 375.378906 L 436.402344 390.855469 Z M 442.414062 415.703125 " style=" stroke:none;fill-rule:nonzero;fill:rgb(100%,91.372549%,33.333333%);fill-opacity:1;" />
<path d="M 442.414062 415.703125 C 415.699219 418.390625 413.917969 441.070312 383.851562 441.070312 C 351.882812 441.070312 351.882812 415.441406 319.914062 415.441406 C 287.957031 415.441406 287.957031 441.058594 256 441.070312 L 255.992188 441.070312 C 224.03125 441.070312 224.03125 415.441406 192.066406 415.441406 C 167.964844 415.441406 162.046875 430.015625 146.875 437.175781 L 158.074219 390.859375 L 161.824219 375.378906 L 432.652344 375.378906 L 436.402344 390.859375 Z M 442.414062 415.703125 " style=" stroke:none;fill-rule:nonzero;fill:rgb(100%,81.960784%,7.058824%);fill-opacity:1;" />
<path d="M 442.414062 415.703125 C 415.699219 418.390625 413.917969 441.070312 383.851562 441.070312 C 351.882812 441.070312 351.882812 415.441406 319.914062 415.441406 C 287.957031 415.441406 287.957031 441.058594 256 441.070312 L 256 375.382812 L 432.652344 375.382812 L 436.402344 390.859375 Z M 442.414062 415.703125 " style=" stroke:none;fill-rule:nonzero;fill:rgb(100%,62.352941%,0%);fill-opacity:1;" />
<path d="M 396.015625 223.945312 C 359.722656 258.898438 310.367188 280.390625 256 280.390625 C 232.015625 280.390625 209.011719 276.210938 187.675781 268.523438 C 160.632812 258.804688 136.273438 243.484375 115.984375 223.945312 L 116.007812 223.84375 L 395.992188 223.84375 Z M 396.015625 223.945312 " style=" stroke:none;fill-rule:nonzero;fill:rgb(91.764706%,50.980392%,30.588235%);fill-opacity:1;" />
<path d="M 396.015625 223.945312 C 359.722656 258.898438 310.367188 280.390625 256 280.390625 C 232.015625 280.390625 209.011719 276.210938 187.675781 268.523438 L 198.460938 223.945312 L 198.484375 223.84375 L 395.992188 223.84375 Z M 396.015625 223.945312 " style=" stroke:none;fill-rule:nonzero;fill:rgb(77.254902%,34.509804%,20.784314%);fill-opacity:1;" />
<path d="M 436.402344 390.859375 L 75.597656 390.859375 L 83.171875 359.59375 L 428.828125 359.59375 Z M 436.402344 390.859375 " style=" stroke:none;fill-rule:nonzero;fill:rgb(100%,100%,100%);fill-opacity:1;" />
<path d="M 436.402344 390.859375 L 158.074219 390.859375 L 165.648438 359.59375 L 428.828125 359.59375 Z M 436.402344 390.859375 " style=" stroke:none;fill-rule:nonzero;fill:rgb(92.156863%,94.117647%,95.294118%);fill-opacity:1;" />
<path d="M 436.402344 390.859375 L 256 390.859375 L 256 359.59375 L 428.828125 359.59375 Z M 436.402344 390.859375 " style=" stroke:none;fill-rule:nonzero;fill:rgb(78.039216%,85.098039%,100%);fill-opacity:1;" />
<path d="M 396.015625 223.945312 C 359.722656 258.898438 310.367188 280.390625 256 280.390625 L 256 223.84375 L 395.992188 223.84375 Z M 396.015625 223.945312 " style=" stroke:none;fill-rule:nonzero;fill:rgb(47.843137%,17.647059%,10.196078%);fill-opacity:1;" />
<path d="M 364.003906 115.839844 C 366.671875 141.972656 356.324219 171.246094 333.859375 193.710938 C 311.398438 216.167969 282.125 226.519531 256 223.84375 C 253.324219 197.71875 263.671875 168.441406 286.132812 145.984375 C 308.597656 123.519531 337.871094 113.167969 364.003906 115.839844 Z M 364.003906 115.839844 " style=" stroke:none;fill-rule:nonzero;fill:rgb(70.980392%,88.627451%,21.568627%);fill-opacity:1;" />
<path d="M 364.003906 115.839844 L 256 223.84375 C 253.324219 197.71875 263.671875 168.441406 286.132812 145.984375 C 308.597656 123.519531 337.871094 113.167969 364.003906 115.839844 Z M 364.003906 115.839844 " style=" stroke:none;fill-rule:nonzero;fill:rgb(52.156863%,68.627451%,7.058824%);fill-opacity:1;" />
</g>
</svg>