<svg xmlns="http://www.w3.org/2000/svg" height="512pt" version="1.1" viewBox="0 0 512 512" width="512pt">
<g id="surface1">
<path d="M 512 256 C 512 397.386719 397.386719 512 256 512 C 114.613281 512 0 397.386719 0 256 C 0 114.613281 114.613281 0 256 0 C 397.386719 0 512 114.613281 512 256 Z M 512 256 " style=" stroke:none;fill-rule:nonzero;fill:rgb(39.607843%,69.803922%,100%);fill-opacity:1;" />
<path d="M 512 256 C 512 282.050781 508.109375 307.191406 500.871094 330.871094 C 468.859375 435.71875 371.328125 512 256 512 C 151.441406 512 61.511719 449.300781 21.769531 359.449219 C 7.769531 327.820312 0 292.820312 0 256 C 0 209.78125 12.25 166.429688 33.679688 129 C 77.800781 206.070312 160.839844 258 256 258 C 351.160156 258 434.210938 206.070312 478.320312 129 C 499.75 166.429688 512 209.78125 512 256 Z M 512 256 " style=" stroke:none;fill-rule:nonzero;fill:rgb(5.882353%,60.784314%,90.980392%);fill-opacity:1;" />
<path d="M 30.742188 377.703125 C 37.898438 390.921875 46.171875 403.441406 55.460938 415.128906 C 102.359375 474.148438 174.761719 512 256 512 C 337.238281 512 409.640625 474.148438 456.539062 415.128906 C 465.828125 403.441406 474.101562 390.921875 481.257812 377.703125 Z M 30.742188 377.703125 " style=" stroke:none;fill-rule:nonzero;fill:rgb(0%,40%,90.980392%);fill-opacity:1;" />
<path d="M 275.410156 218.097656 C 275.832031 220.335938 276.03125 222.574219 276.03125 224.796875 C 276.03125 239.945312 266.503906 253.835938 251.761719 259.027344 L 251.753906 259.027344 L 251.753906 259.035156 C 245.8125 275.9375 228.433594 285.976562 210.820312 282.6875 L 210.78125 282.714844 C 203.992188 288.535156 195.582031 291.445312 187.171875 291.445312 C 178.761719 291.445312 170.351562 288.535156 163.5625 282.714844 L 163.523438 282.6875 C 161.28125 283.105469 159.042969 283.304688 156.820312 283.304688 C 141.671875 283.304688 127.78125 273.777344 122.59375 259.035156 L 122.59375 259.027344 L 122.582031 259.027344 C 105.683594 253.085938 95.640625 235.707031 98.933594 218.097656 L 98.902344 218.054688 C 93.082031 211.265625 90.171875 202.855469 90.171875 194.445312 C 90.171875 186.035156 90.171875 163.355469 90.171875 163.355469 L 284.09375 163.355469 L 284.171875 194.445312 C 284.171875 202.855469 281.261719 211.265625 275.441406 218.054688 Z M 275.410156 218.097656 " style=" stroke:none;fill-rule:nonzero;fill:rgb(100%,62.352941%,0%);fill-opacity:1;" />
<path d="M 275.410156 218.097656 C 275.832031 220.335938 276.03125 222.574219 276.03125 224.796875 C 276.03125 239.945312 266.503906 253.835938 251.761719 259.027344 L 251.753906 259.027344 L 251.753906 259.035156 C 245.8125 275.9375 228.433594 285.976562 210.820312 282.6875 L 210.78125 282.714844 C 203.992188 288.535156 195.582031 291.445312 187.171875 291.445312 L 187.171875 163.355469 L 284.09375 163.355469 L 284.171875 194.445312 C 284.171875 202.855469 281.261719 211.265625 275.441406 218.054688 Z M 275.410156 218.097656 " style=" stroke:none;fill-rule:nonzero;fill:rgb(77.254902%,34.509804%,20.784314%);fill-opacity:1;" />
<path d="M 275.410156 187.007812 C 275.832031 189.246094 276.03125 191.484375 276.03125 193.695312 C 276.03125 208.855469 266.503906 222.746094 251.761719 227.9375 L 251.753906 227.9375 L 251.753906 227.945312 C 245.8125 244.847656 228.433594 254.886719 210.820312 251.597656 L 210.78125 251.625 C 208.230469 253.804688 205.460938 255.585938 202.542969 256.945312 C 197.683594 259.214844 192.421875 260.355469 187.171875 260.355469 C 178.761719 260.355469 170.351562 257.445312 163.5625 251.625 L 163.523438 251.597656 C 161.28125 252.015625 159.042969 252.214844 156.820312 252.214844 C 141.671875 252.214844 127.78125 242.6875 122.59375 227.945312 L 122.59375 227.9375 L 122.582031 227.9375 C 105.683594 221.996094 95.640625 204.617188 98.933594 187.007812 L 98.902344 186.964844 C 87.261719 173.375 87.261719 153.335938 98.902344 139.746094 L 98.933594 139.707031 C 98.511719 137.464844 98.3125 135.226562 98.3125 133.007812 C 98.3125 117.855469 107.84375 103.964844 122.582031 98.777344 L 122.59375 98.777344 L 122.59375 98.765625 C 128.53125 81.867188 145.910156 71.824219 163.523438 75.117188 L 163.5625 75.085938 C 170.351562 69.265625 178.761719 66.355469 187.171875 66.355469 C 192.421875 66.355469 197.683594 67.496094 202.542969 69.765625 C 205.460938 71.125 208.230469 72.90625 210.78125 75.085938 L 210.820312 75.117188 C 213.0625 74.695312 215.300781 74.496094 217.523438 74.496094 C 232.671875 74.496094 246.5625 84.027344 251.753906 98.765625 L 251.753906 98.777344 L 251.761719 98.777344 C 268.660156 104.714844 278.703125 122.097656 275.410156 139.707031 L 275.441406 139.746094 C 287.082031 153.335938 287.082031 173.375 275.441406 186.964844 Z M 275.410156 187.007812 " style=" stroke:none;fill-rule:nonzero;fill:rgb(100%,91.372549%,33.333333%);fill-opacity:1;" />
<path d="M 275.410156 187.007812 C 275.832031 189.246094 276.03125 191.484375 276.03125 193.695312 C 276.03125 208.855469 266.503906 222.746094 251.761719 227.9375 L 251.753906 227.9375 L 251.753906 227.945312 C 245.8125 244.847656 228.433594 254.886719 210.820312 251.597656 L 210.78125 251.625 C 208.230469 253.804688 205.460938 255.585938 202.542969 256.945312 C 199.621094 255.585938 196.84375 253.804688 194.292969 251.625 L 194.253906 251.597656 C 192.011719 252.015625 189.761719 252.214844 187.550781 252.214844 C 172.402344 252.214844 158.503906 242.6875 153.320312 227.945312 L 153.3125 227.9375 C 138.570312 222.757812 129.042969 208.867188 129.042969 193.707031 C 129.042969 191.496094 129.242188 189.257812 129.660156 187.007812 L 129.621094 186.964844 C 117.992188 173.375 117.992188 153.335938 129.621094 139.746094 L 129.660156 139.707031 C 129.242188 137.464844 129.03125 135.226562 129.03125 133.007812 C 129.03125 117.855469 138.5625 103.964844 153.3125 98.777344 L 153.320312 98.765625 C 159.261719 81.867188 176.640625 71.824219 194.253906 75.117188 L 194.292969 75.085938 C 196.84375 72.90625 199.621094 71.125 202.542969 69.765625 C 205.460938 71.125 208.230469 72.90625 210.78125 75.085938 L 210.820312 75.117188 C 213.0625 74.695312 215.300781 74.496094 217.523438 74.496094 C 232.671875 74.496094 246.5625 84.027344 251.753906 98.765625 L 251.753906 98.777344 L 251.761719 98.777344 C 268.660156 104.714844 278.703125 122.097656 275.410156 139.707031 L 275.441406 139.746094 C 287.082031 153.335938 287.082031 173.375 275.441406 186.964844 Z M 275.410156 187.007812 " style=" stroke:none;fill-rule:nonzero;fill:rgb(100%,81.960784%,7.058824%);fill-opacity:1;" />
<path d="M 275.414062 187.007812 C 275.828125 189.246094 276.035156 191.488281 276.035156 193.699219 C 276.035156 208.855469 266.507812 222.746094 251.761719 227.933594 L 251.75 227.945312 C 245.808594 244.84375 228.429688 254.890625 210.824219 251.597656 L 210.78125 251.628906 C 203.992188 257.445312 195.582031 260.355469 187.171875 260.355469 L 187.171875 66.355469 C 195.582031 66.355469 203.992188 69.265625 210.78125 75.082031 L 210.824219 75.113281 C 213.0625 74.699219 215.304688 74.492188 217.519531 74.492188 C 232.671875 74.492188 246.566406 84.023438 251.75 98.765625 L 251.761719 98.777344 C 268.660156 104.71875 278.707031 122.097656 275.414062 139.703125 L 275.449219 139.746094 C 287.082031 153.335938 287.082031 173.378906 275.449219 186.96875 Z M 275.414062 187.007812 " style=" stroke:none;fill-rule:nonzero;fill:rgb(100%,62.352941%,0%);fill-opacity:1;" />
<path d="M 232.191406 175.421875 C 232.40625 176.5625 232.507812 177.707031 232.507812 178.835938 C 232.507812 186.570312 227.648438 193.660156 220.128906 196.304688 L 220.121094 196.304688 L 220.121094 196.308594 C 217.089844 204.933594 208.222656 210.054688 199.238281 208.375 L 199.21875 208.394531 C 195.75 211.363281 191.460938 212.84375 187.171875 212.84375 C 182.882812 212.84375 178.59375 211.363281 175.125 208.394531 L 175.105469 208.375 C 173.964844 208.589844 172.820312 208.691406 171.691406 208.691406 C 163.957031 208.691406 156.867188 203.832031 154.222656 196.308594 L 154.222656 196.304688 L 154.21875 196.304688 C 145.59375 193.273438 140.472656 184.40625 142.152344 175.421875 L 142.132812 175.402344 C 136.195312 168.46875 136.195312 158.242188 142.132812 151.308594 L 142.152344 151.289062 C 141.9375 150.144531 141.835938 149.003906 141.835938 147.875 C 141.835938 140.140625 146.695312 133.050781 154.21875 130.402344 L 154.222656 130.402344 L 154.226562 130.398438 C 157.253906 121.777344 166.121094 116.65625 175.105469 118.335938 L 175.121094 118.316406 C 178.59375 115.347656 182.882812 113.863281 187.171875 113.863281 C 191.460938 113.863281 195.75 115.347656 199.21875 118.316406 L 199.238281 118.335938 C 200.378906 118.117188 201.523438 118.019531 202.648438 118.019531 C 210.386719 118.019531 217.476562 122.878906 220.121094 130.398438 L 220.121094 130.402344 L 220.125 130.402344 C 228.746094 133.4375 233.871094 142.304688 232.191406 151.289062 L 232.210938 151.308594 C 238.144531 158.242188 238.144531 168.46875 232.210938 175.402344 Z M 232.191406 175.421875 " style=" stroke:none;fill-rule:nonzero;fill:rgb(100%,100%,100%);fill-opacity:1;" />
<path d="M 232.191406 175.421875 C 232.40625 176.5625 232.507812 177.707031 232.507812 178.835938 C 232.507812 186.570312 227.648438 193.660156 220.128906 196.304688 L 220.121094 196.304688 L 220.121094 196.308594 C 217.089844 204.933594 208.222656 210.054688 199.238281 208.375 L 199.21875 208.394531 C 195.75 211.363281 191.460938 212.84375 187.171875 212.84375 L 187.171875 113.867188 C 191.460938 113.867188 195.75 115.347656 199.21875 118.316406 L 199.238281 118.335938 C 200.382812 118.121094 201.523438 118.019531 202.652344 118.019531 C 210.386719 118.019531 217.476562 122.878906 220.121094 130.402344 L 220.121094 130.40625 L 220.128906 130.40625 C 228.75 133.4375 233.871094 142.304688 232.191406 151.289062 L 232.210938 151.308594 C 238.148438 158.242188 238.148438 168.46875 232.210938 175.40625 Z M 232.191406 175.421875 " style=" stroke:none;fill-rule:nonzero;fill:rgb(78.039216%,85.098039%,100%);fill-opacity:1;" />
<path d="M 211.980469 163.355469 C 211.980469 177.054688 200.871094 188.160156 187.171875 188.160156 C 173.472656 188.160156 162.367188 177.054688 162.367188 163.355469 C 162.367188 149.65625 173.472656 138.550781 187.171875 138.550781 C 200.871094 138.550781 211.980469 149.65625 211.980469 163.355469 Z M 211.980469 163.355469 " style=" stroke:none;fill-rule:nonzero;fill:rgb(89.803922%,16.078431%,16.078431%);fill-opacity:1;" />
<path d="M 211.976562 163.355469 C 211.976562 177.054688 200.871094 188.160156 187.171875 188.160156 L 187.171875 138.550781 C 200.871094 138.550781 211.976562 149.65625 211.976562 163.355469 Z M 211.976562 163.355469 " style=" stroke:none;fill-rule:nonzero;fill:rgb(72.941176%,5.098039%,36.078431%);fill-opacity:1;" />
<path d="M 455.554688 330.921875 C 455.917969 332.863281 456.089844 334.804688 456.089844 336.726562 C 456.089844 349.847656 447.835938 361.875 435.070312 366.371094 L 435.0625 366.371094 L 435.0625 366.378906 C 429.917969 381.015625 414.867188 389.710938 399.613281 386.863281 L 399.578125 386.886719 C 393.699219 391.929688 386.414062 394.449219 379.132812 394.449219 C 371.851562 394.449219 364.566406 391.929688 358.6875 386.886719 L 358.652344 386.863281 C 356.710938 387.226562 354.769531 387.398438 352.847656 387.398438 C 339.726562 387.398438 327.699219 379.144531 323.203125 366.378906 L 323.203125 366.371094 L 323.195312 366.371094 C 308.558594 361.226562 299.863281 346.175781 302.714844 330.925781 L 302.6875 330.890625 C 297.648438 325.007812 295.125 317.726562 295.125 310.441406 C 295.125 303.15625 295.125 283.515625 295.125 283.515625 L 463.070312 283.515625 L 463.140625 310.441406 C 463.140625 317.726562 460.617188 325.007812 455.578125 330.890625 Z M 455.554688 330.921875 " style=" stroke:none;fill-rule:nonzero;fill:rgb(100%,62.352941%,0%);fill-opacity:1;" />
<path d="M 455.554688 330.921875 C 455.917969 332.863281 456.089844 334.804688 456.089844 336.726562 C 456.089844 349.847656 447.835938 361.875 435.070312 366.371094 L 435.0625 366.371094 L 435.0625 366.378906 C 429.917969 381.015625 414.867188 389.710938 399.613281 386.863281 L 399.578125 386.886719 C 393.699219 391.929688 386.414062 394.449219 379.132812 394.449219 L 379.132812 283.515625 L 463.070312 283.515625 L 463.140625 310.441406 C 463.140625 317.722656 460.617188 325.007812 455.578125 330.886719 Z M 455.554688 330.921875 " style=" stroke:none;fill-rule:nonzero;fill:rgb(77.254902%,34.509804%,20.784314%);fill-opacity:1;" />
<path d="M 455.554688 303.996094 C 455.917969 305.9375 456.089844 307.878906 456.089844 309.789062 C 456.089844 322.921875 447.835938 334.949219 435.070312 339.445312 L 435.0625 339.445312 L 435.0625 339.453125 C 429.917969 354.089844 414.867188 362.785156 399.613281 359.9375 L 399.578125 359.960938 C 397.371094 361.851562 394.972656 363.390625 392.445312 364.570312 C 388.234375 366.535156 383.679688 367.523438 379.132812 367.523438 C 371.851562 367.523438 364.566406 365.003906 358.6875 359.960938 L 358.652344 359.933594 C 356.710938 360.300781 354.769531 360.472656 352.847656 360.472656 C 339.726562 360.472656 327.699219 352.21875 323.203125 339.453125 L 323.203125 339.445312 L 323.195312 339.445312 C 308.558594 334.300781 299.863281 319.246094 302.714844 303.996094 L 302.6875 303.960938 C 292.605469 292.191406 292.605469 274.835938 302.6875 263.066406 L 302.714844 263.03125 C 302.347656 261.09375 302.175781 259.152344 302.175781 257.230469 C 302.175781 244.109375 310.429688 232.078125 323.195312 227.585938 L 323.203125 227.585938 L 323.203125 227.574219 C 328.347656 212.9375 343.398438 204.242188 358.652344 207.09375 L 358.6875 207.066406 C 364.566406 202.027344 371.851562 199.507812 379.132812 199.507812 C 383.679688 199.507812 388.234375 200.492188 392.445312 202.460938 C 394.972656 203.636719 397.371094 205.179688 399.578125 207.066406 L 399.613281 207.09375 C 401.554688 206.726562 403.496094 206.554688 405.417969 206.554688 C 418.539062 206.554688 430.566406 214.808594 435.0625 227.574219 L 435.0625 227.582031 L 435.070312 227.582031 C 449.707031 232.726562 458.402344 247.777344 455.554688 263.03125 L 455.578125 263.066406 C 465.660156 274.835938 465.660156 292.191406 455.578125 303.960938 Z M 455.554688 303.996094 " style=" stroke:none;fill-rule:nonzero;fill:rgb(100%,91.372549%,33.333333%);fill-opacity:1;" />
<path d="M 455.554688 303.996094 C 455.917969 305.9375 456.089844 307.878906 456.089844 309.789062 C 456.089844 322.921875 447.835938 334.949219 435.070312 339.445312 L 435.0625 339.445312 L 435.0625 339.453125 C 429.917969 354.089844 414.867188 362.785156 399.613281 359.9375 L 399.578125 359.960938 C 397.371094 361.851562 394.972656 363.390625 392.445312 364.570312 C 389.914062 363.390625 387.507812 361.851562 385.300781 359.960938 L 385.265625 359.9375 C 383.324219 360.300781 381.375 360.472656 379.460938 360.472656 C 366.339844 360.472656 354.300781 352.21875 349.816406 339.453125 L 349.808594 339.445312 C 337.039062 334.960938 328.789062 322.929688 328.789062 309.800781 C 328.789062 307.886719 328.960938 305.945312 329.324219 303.996094 L 329.289062 303.960938 C 319.21875 292.191406 319.21875 274.835938 329.289062 263.066406 L 329.324219 263.03125 C 328.960938 261.09375 328.777344 259.152344 328.777344 257.230469 C 328.777344 244.109375 337.03125 232.078125 349.808594 227.585938 L 349.816406 227.574219 C 354.960938 212.9375 370.011719 204.242188 385.261719 207.09375 L 385.296875 207.066406 C 387.507812 205.179688 389.914062 203.636719 392.441406 202.460938 C 394.972656 203.636719 397.371094 205.179688 399.578125 207.066406 L 399.613281 207.09375 C 401.554688 206.730469 403.492188 206.554688 405.414062 206.554688 C 418.535156 206.554688 430.566406 214.808594 435.0625 227.574219 L 435.0625 227.585938 L 435.070312 227.585938 C 449.707031 232.726562 458.402344 247.78125 455.550781 263.03125 L 455.578125 263.066406 C 465.660156 274.835938 465.660156 292.191406 455.578125 303.960938 Z M 455.554688 303.996094 " style=" stroke:none;fill-rule:nonzero;fill:rgb(100%,81.960784%,7.058824%);fill-opacity:1;" />
<path d="M 455.554688 303.996094 C 455.914062 305.9375 456.09375 307.878906 456.09375 309.796875 C 456.09375 322.921875 447.839844 334.953125 435.070312 339.441406 L 435.066406 339.449219 L 435.0625 339.453125 C 429.917969 354.089844 414.863281 362.789062 399.617188 359.9375 L 399.582031 359.964844 C 393.699219 365 386.414062 367.519531 379.132812 367.519531 L 379.132812 199.507812 C 386.414062 199.507812 393.699219 202.027344 399.582031 207.0625 L 399.617188 207.09375 C 401.558594 206.734375 403.496094 206.554688 405.414062 206.554688 C 418.539062 206.554688 430.570312 214.808594 435.0625 227.574219 L 435.066406 227.582031 L 435.070312 227.585938 C 449.707031 232.730469 458.40625 247.78125 455.554688 263.03125 L 455.585938 263.066406 C 465.660156 274.835938 465.660156 292.191406 455.585938 303.960938 Z M 455.554688 303.996094 " style=" stroke:none;fill-rule:nonzero;fill:rgb(100%,62.352941%,0%);fill-opacity:1;" />
<path d="M 418.121094 293.964844 C 418.308594 294.953125 418.394531 295.945312 418.394531 296.921875 C 418.394531 303.621094 414.1875 309.761719 407.671875 312.050781 L 407.667969 312.050781 L 407.667969 312.054688 C 405.042969 319.523438 397.363281 323.957031 389.582031 322.503906 L 389.566406 322.519531 C 386.5625 325.089844 382.847656 326.375 379.132812 326.375 C 375.417969 326.375 371.703125 325.09375 368.699219 322.519531 L 368.683594 322.503906 C 367.691406 322.691406 366.703125 322.777344 365.726562 322.777344 C 359.027344 322.777344 352.886719 318.570312 350.597656 312.054688 L 350.597656 312.050781 L 350.59375 312.050781 C 343.125 309.425781 338.6875 301.746094 340.144531 293.964844 L 340.128906 293.949219 C 334.988281 287.941406 334.988281 279.085938 340.128906 273.078125 L 340.144531 273.066406 C 339.957031 272.074219 339.871094 271.085938 339.871094 270.109375 C 339.871094 263.40625 344.078125 257.269531 350.59375 254.976562 L 350.597656 254.976562 L 350.601562 254.972656 C 353.222656 247.507812 360.902344 243.070312 368.683594 244.523438 L 368.699219 244.511719 C 371.703125 241.9375 375.417969 240.65625 379.132812 240.65625 C 382.847656 240.65625 386.5625 241.9375 389.566406 244.511719 L 389.582031 244.523438 C 390.570312 244.339844 391.5625 244.253906 392.539062 244.253906 C 399.238281 244.253906 405.378906 248.460938 407.667969 254.976562 L 407.667969 254.980469 L 407.671875 254.980469 C 415.140625 257.605469 419.574219 265.285156 418.121094 273.066406 L 418.136719 273.082031 C 423.277344 279.085938 423.277344 287.941406 418.136719 293.949219 Z M 418.121094 293.964844 " style=" stroke:none;fill-rule:nonzero;fill:rgb(100%,100%,100%);fill-opacity:1;" />
<path d="M 418.121094 293.964844 C 418.308594 294.953125 418.394531 295.945312 418.394531 296.921875 C 418.394531 303.621094 414.1875 309.761719 407.671875 312.050781 L 407.667969 312.050781 L 407.667969 312.054688 C 405.042969 319.523438 397.363281 323.957031 389.582031 322.503906 L 389.566406 322.519531 C 386.5625 325.089844 382.847656 326.375 379.132812 326.375 L 379.132812 240.652344 C 382.847656 240.652344 386.5625 241.9375 389.566406 244.507812 L 389.582031 244.523438 C 390.570312 244.339844 391.5625 244.25 392.535156 244.25 C 399.238281 244.25 405.378906 248.460938 407.667969 254.972656 L 407.667969 254.976562 L 407.671875 254.976562 C 415.140625 257.605469 419.574219 265.28125 418.121094 273.066406 L 418.136719 273.078125 C 423.277344 279.085938 423.277344 287.941406 418.136719 293.949219 Z M 418.121094 293.964844 " style=" stroke:none;fill-rule:nonzero;fill:rgb(78.039216%,85.098039%,100%);fill-opacity:1;" />
<path d="M 400.617188 283.515625 C 400.617188 295.378906 390.996094 304.996094 379.132812 304.996094 C 367.269531 304.996094 357.648438 295.378906 357.648438 283.515625 C 357.648438 271.648438 367.269531 262.03125 379.132812 262.03125 C 390.996094 262.03125 400.617188 271.648438 400.617188 283.515625 Z M 400.617188 283.515625 " style=" stroke:none;fill-rule:nonzero;fill:rgb(89.803922%,16.078431%,16.078431%);fill-opacity:1;" />
<path d="M 400.617188 283.515625 C 400.617188 295.378906 390.996094 304.996094 379.132812 304.996094 L 379.132812 262.03125 C 390.996094 262.03125 400.617188 271.652344 400.617188 283.515625 Z M 400.617188 283.515625 " style=" stroke:none;fill-rule:nonzero;fill:rgb(72.941176%,5.098039%,36.078431%);fill-opacity:1;" />
<path d="M 283.988281 437.917969 C 284.316406 439.652344 284.46875 441.386719 284.46875 443.101562 C 284.46875 454.824219 277.097656 465.574219 265.691406 469.589844 L 265.683594 469.589844 L 265.683594 469.597656 C 261.085938 482.675781 247.636719 490.445312 234.011719 487.898438 L 233.980469 487.921875 C 228.726562 492.425781 222.21875 494.675781 215.710938 494.675781 C 209.199219 494.675781 202.691406 492.425781 197.4375 487.921875 L 197.40625 487.898438 C 195.675781 488.222656 193.941406 488.378906 192.222656 488.378906 C 180.5 488.378906 169.753906 481.003906 165.734375 469.597656 L 165.734375 469.589844 L 165.726562 469.589844 C 152.652344 464.996094 144.882812 451.546875 147.425781 437.917969 L 147.402344 437.886719 C 142.898438 432.632812 140.648438 426.125 140.648438 419.617188 C 140.648438 413.109375 140.648438 395.558594 140.648438 395.558594 L 290.707031 395.558594 L 290.769531 419.617188 C 290.769531 426.125 288.515625 432.632812 284.011719 437.886719 Z M 283.988281 437.917969 " style=" stroke:none;fill-rule:nonzero;fill:rgb(100%,62.352941%,0%);fill-opacity:1;" />
<path d="M 283.988281 437.917969 C 284.316406 439.652344 284.46875 441.386719 284.46875 443.101562 C 284.46875 454.824219 277.097656 465.574219 265.691406 469.589844 L 265.683594 469.589844 L 265.683594 469.597656 C 261.085938 482.675781 247.636719 490.445312 234.011719 487.898438 L 233.980469 487.921875 C 228.726562 492.425781 222.21875 494.675781 215.710938 494.675781 L 215.710938 395.558594 L 290.707031 395.558594 L 290.769531 419.617188 C 290.769531 426.125 288.515625 432.632812 284.015625 437.886719 Z M 283.988281 437.917969 " style=" stroke:none;fill-rule:nonzero;fill:rgb(77.254902%,34.509804%,20.784314%);fill-opacity:1;" />
<path d="M 283.988281 413.859375 C 284.316406 415.59375 284.46875 417.328125 284.46875 419.035156 C 284.46875 430.769531 277.097656 441.515625 265.691406 445.53125 L 265.683594 445.53125 L 265.683594 445.539062 C 261.085938 458.617188 247.636719 466.386719 234.011719 463.839844 L 233.980469 463.863281 C 232.007812 465.550781 229.863281 466.929688 227.601562 467.980469 C 223.84375 469.738281 219.773438 470.621094 215.710938 470.621094 C 209.203125 470.621094 202.695312 468.367188 197.441406 463.863281 L 197.410156 463.84375 C 195.675781 464.167969 193.941406 464.320312 192.226562 464.320312 C 180.503906 464.320312 169.753906 456.949219 165.738281 445.542969 L 165.738281 445.535156 L 165.730469 445.535156 C 152.652344 440.9375 144.882812 427.488281 147.429688 413.863281 L 147.40625 413.832031 C 138.398438 403.316406 138.398438 387.808594 147.40625 377.292969 L 147.429688 377.261719 C 147.101562 375.527344 146.949219 373.792969 146.949219 372.074219 C 146.949219 360.351562 154.320312 349.605469 165.726562 345.589844 L 165.734375 345.589844 L 165.734375 345.578125 C 170.332031 332.503906 183.78125 324.734375 197.40625 327.277344 L 197.4375 327.257812 C 202.691406 322.753906 209.199219 320.5 215.710938 320.5 C 219.773438 320.5 223.84375 321.382812 227.601562 323.140625 C 229.863281 324.191406 232.003906 325.570312 233.976562 327.257812 L 234.007812 327.28125 C 235.742188 326.953125 237.476562 326.800781 239.191406 326.800781 C 250.914062 326.800781 261.664062 334.175781 265.679688 345.578125 L 265.679688 345.589844 L 265.6875 345.589844 C 278.765625 350.183594 286.535156 363.632812 283.988281 377.261719 L 284.011719 377.289062 C 293.019531 387.808594 293.019531 403.3125 284.011719 413.828125 Z M 283.988281 413.859375 " style=" stroke:none;fill-rule:nonzero;fill:rgb(100%,91.372549%,33.333333%);fill-opacity:1;" />
<path d="M 283.988281 413.859375 C 284.316406 415.59375 284.46875 417.328125 284.46875 419.035156 C 284.46875 430.769531 277.097656 441.515625 265.691406 445.53125 L 265.683594 445.53125 L 265.683594 445.539062 C 261.085938 458.617188 247.636719 466.386719 234.011719 463.839844 L 233.980469 463.863281 C 232.007812 465.550781 229.863281 466.929688 227.601562 467.980469 C 225.34375 466.929688 223.191406 465.550781 221.21875 463.863281 L 221.1875 463.839844 C 219.453125 464.164062 217.714844 464.320312 216.003906 464.320312 C 204.28125 464.320312 193.523438 456.945312 189.515625 445.539062 L 189.507812 445.53125 C 178.101562 441.523438 170.726562 430.777344 170.726562 419.046875 C 170.726562 417.335938 170.882812 415.601562 171.207031 413.859375 L 171.175781 413.828125 C 162.179688 403.3125 162.179688 387.808594 171.175781 377.289062 L 171.207031 377.261719 C 170.882812 375.527344 170.71875 373.792969 170.71875 372.074219 C 170.71875 360.351562 178.09375 349.605469 189.507812 345.585938 L 189.515625 345.578125 C 194.113281 332.503906 207.5625 324.734375 221.1875 327.277344 L 221.21875 327.253906 C 223.191406 325.566406 225.34375 324.191406 227.601562 323.136719 C 229.863281 324.191406 232.007812 325.566406 233.980469 327.253906 L 234.011719 327.277344 C 235.742188 326.953125 237.476562 326.796875 239.195312 326.796875 C 250.917969 326.796875 261.664062 334.171875 265.683594 345.578125 L 265.683594 345.585938 L 265.691406 345.585938 C 278.765625 350.183594 286.535156 363.632812 283.992188 377.257812 L 284.015625 377.289062 C 293.019531 387.804688 293.019531 403.3125 284.015625 413.828125 Z M 283.988281 413.859375 " style=" stroke:none;fill-rule:nonzero;fill:rgb(100%,81.960784%,7.058824%);fill-opacity:1;" />
<path d="M 283.988281 413.859375 C 284.3125 415.59375 284.472656 417.328125 284.472656 419.039062 C 284.472656 430.769531 277.097656 441.519531 265.6875 445.53125 L 265.679688 445.539062 C 261.085938 458.617188 247.636719 466.386719 234.011719 463.839844 L 233.980469 463.867188 C 228.722656 468.367188 222.21875 470.617188 215.710938 470.617188 L 215.710938 320.5 C 222.21875 320.5 228.726562 322.753906 233.980469 327.253906 L 234.011719 327.277344 C 235.746094 326.957031 237.480469 326.796875 239.191406 326.796875 C 250.917969 326.796875 261.667969 334.171875 265.679688 345.578125 L 265.683594 345.585938 L 265.6875 345.589844 C 278.765625 350.183594 286.539062 363.632812 283.988281 377.257812 L 284.015625 377.289062 C 293.019531 387.804688 293.019531 403.3125 284.015625 413.828125 Z M 283.988281 413.859375 " style=" stroke:none;fill-rule:nonzero;fill:rgb(100%,62.352941%,0%);fill-opacity:1;" />
<path d="M 250.546875 404.894531 C 250.710938 405.78125 250.789062 406.664062 250.789062 407.535156 C 250.789062 413.523438 247.03125 419.007812 241.210938 421.058594 L 241.207031 421.058594 C 238.859375 427.730469 231.996094 431.695312 225.046875 430.394531 L 225.03125 430.410156 C 222.347656 432.710938 219.027344 433.855469 215.707031 433.855469 C 212.390625 433.855469 209.070312 432.707031 206.386719 430.410156 L 206.371094 430.394531 C 205.484375 430.5625 204.601562 430.640625 203.730469 430.640625 C 197.742188 430.640625 192.257812 426.878906 190.210938 421.058594 L 190.210938 421.054688 L 190.207031 421.054688 C 183.535156 418.710938 179.570312 411.847656 180.871094 404.894531 L 180.855469 404.882812 C 176.261719 399.515625 176.261719 391.601562 180.855469 386.234375 L 180.871094 386.222656 C 180.703125 385.335938 180.628906 384.449219 180.628906 383.578125 C 180.628906 377.59375 184.386719 372.109375 190.207031 370.058594 L 190.214844 370.058594 C 192.558594 363.386719 199.417969 359.421875 206.371094 360.722656 L 206.386719 360.707031 C 209.070312 358.40625 212.390625 357.261719 215.707031 357.261719 C 219.027344 357.261719 222.347656 358.410156 225.03125 360.707031 L 225.046875 360.722656 C 225.929688 360.554688 226.816406 360.476562 227.6875 360.476562 C 233.671875 360.476562 239.15625 364.238281 241.207031 370.058594 L 241.207031 370.0625 L 241.210938 370.0625 C 247.882812 372.40625 251.84375 379.269531 250.546875 386.222656 L 250.558594 386.234375 C 255.152344 391.601562 255.152344 399.515625 250.558594 404.882812 Z M 250.546875 404.894531 " style=" stroke:none;fill-rule:nonzero;fill:rgb(100%,100%,100%);fill-opacity:1;" />
<path d="M 250.546875 404.894531 C 250.710938 405.78125 250.789062 406.664062 250.789062 407.535156 C 250.789062 413.523438 247.03125 419.007812 241.210938 421.058594 L 241.207031 421.058594 C 238.859375 427.730469 231.996094 431.695312 225.046875 430.394531 L 225.03125 430.410156 C 222.347656 432.710938 219.027344 433.855469 215.707031 433.855469 L 215.707031 357.265625 C 219.027344 357.265625 222.347656 358.410156 225.03125 360.707031 L 225.046875 360.722656 C 225.929688 360.554688 226.816406 360.476562 227.6875 360.476562 C 233.671875 360.476562 239.15625 364.238281 241.207031 370.058594 L 241.207031 370.0625 L 241.210938 370.0625 C 247.882812 372.40625 251.84375 379.269531 250.546875 386.222656 L 250.558594 386.238281 C 255.152344 391.605469 255.152344 399.515625 250.558594 404.882812 Z M 250.546875 404.894531 " style=" stroke:none;fill-rule:nonzero;fill:rgb(78.039216%,85.098039%,100%);fill-opacity:1;" />
<path d="M 234.902344 395.558594 C 234.902344 406.160156 226.308594 414.753906 215.710938 414.753906 C 205.109375 414.753906 196.515625 406.160156 196.515625 395.558594 C 196.515625 384.957031 205.109375 376.363281 215.710938 376.363281 C 226.308594 376.363281 234.902344 384.957031 234.902344 395.558594 Z M 234.902344 395.558594 " style=" stroke:none;fill-rule:nonzero;fill:rgb(89.803922%,16.078431%,16.078431%);fill-opacity:1;" />
<path d="M 234.902344 395.558594 C 234.902344 406.15625 226.308594 414.753906 215.710938 414.753906 L 215.710938 376.363281 C 226.308594 376.363281 234.902344 384.960938 234.902344 395.558594 Z M 234.902344 395.558594 " style=" stroke:none;fill-rule:nonzero;fill:rgb(72.941176%,5.098039%,36.078431%);fill-opacity:1;" />
</g>
</svg>