<svg xmlns="http://www.w3.org/2000/svg" height="512pt" version="1.1" viewBox="0 0 512 512" width="512pt">
<g id="surface1">
<path d="M 512 256 C 512 397.386719 397.386719 512 256 512 C 114.613281 512 0 397.386719 0 256 C 0 114.613281 114.613281 0 256 0 C 397.386719 0 512 114.613281 512 256 Z M 512 256 " style=" stroke:none;fill-rule:nonzero;fill:rgb(40.784314%,98.823529%,87.45098%);fill-opacity:1;" />
<path d="M 512 256 C 512 282.050781 508.109375 307.191406 500.871094 330.871094 C 468.859375 435.71875 371.328125 512 256 512 C 151.441406 512 61.511719 449.300781 21.769531 359.449219 C 7.769531 327.820312 0 292.820312 0 256 C 0 209.78125 12.25 166.429688 33.679688 129 C 77.800781 206.070312 160.839844 258 256 258 C 351.160156 258 434.210938 206.070312 478.320312 129 C 499.75 166.429688 512 209.78125 512 256 Z M 512 256 " style=" stroke:none;fill-rule:nonzero;fill:rgb(6.27451%,88.627451%,76.862745%);fill-opacity:1;" />
<path d="M 30.742188 377.703125 C 37.898438 390.921875 46.171875 403.441406 55.460938 415.128906 C 102.359375 474.148438 174.761719 512 256 512 C 337.238281 512 409.640625 474.148438 456.539062 415.128906 C 465.828125 403.441406 474.101562 390.921875 481.257812 377.703125 Z M 30.742188 377.703125 " style=" stroke:none;fill-rule:nonzero;fill:rgb(10.196078%,72.941176%,62.352941%);fill-opacity:1;" />
<path d="M 270 270 L 242 270 L 242 511.613281 C 246.636719 511.863281 251.300781 512 256 512 C 260.699219 512 265.363281 511.863281 270 511.613281 Z M 270 270 " style=" stroke:none;fill-rule:nonzero;fill:rgb(100%,100%,100%);fill-opacity:1;" />
<path d="M 242 270 L 270 270 L 270 420 L 242 420 Z M 242 270 " style=" stroke:none;fill-rule:nonzero;fill:rgb(78.039216%,85.098039%,100%);fill-opacity:1;" />
<path d="M 405.675781 225.777344 C 405.675781 307.804688 339.679688 374.429688 257.890625 375.441406 C 257.257812 375.453125 256.628906 375.453125 256 375.453125 C 173.339844 375.453125 106.324219 308.433594 106.324219 225.777344 C 106.324219 143.117188 173.339844 76.097656 256 76.097656 C 256.628906 76.097656 257.257812 76.097656 257.890625 76.109375 C 339.683594 77.121094 405.675781 143.746094 405.675781 225.777344 Z M 405.675781 225.777344 " style=" stroke:none;fill-rule:nonzero;fill:rgb(97.647059%,52.156863%,65.098039%);fill-opacity:1;" />
<path d="M 405.675781 225.777344 C 405.675781 307.804688 339.679688 374.429688 257.890625 375.441406 C 205.082031 346.421875 169.296875 290.273438 169.296875 225.777344 C 169.296875 161.277344 205.082031 105.132812 257.890625 76.109375 C 339.683594 77.121094 405.675781 143.746094 405.675781 225.777344 Z M 405.675781 225.777344 " style=" stroke:none;fill-rule:nonzero;fill:rgb(100%,39.215686%,46.666667%);fill-opacity:1;" />
<path d="M 405.675781 225.777344 C 405.675781 308.4375 338.660156 375.453125 256 375.453125 L 256 76.097656 C 338.660156 76.097656 405.675781 143.117188 405.675781 225.777344 Z M 405.675781 225.777344 " style=" stroke:none;fill-rule:nonzero;fill:rgb(92.941176%,33.72549%,50.588235%);fill-opacity:1;" />
<path d="M 86.246094 198.394531 L 425.75 198.394531 L 425.75 253.15625 L 86.246094 253.15625 Z M 86.246094 198.394531 " style=" stroke:none;fill-rule:nonzero;fill:rgb(97.647059%,63.529412%,74.901961%);fill-opacity:1;" />
<path d="M 425.753906 198.394531 L 425.753906 253.15625 L 171.488281 253.15625 C 170.035156 244.238281 169.292969 235.101562 169.292969 225.773438 C 169.292969 216.449219 170.035156 207.3125 171.488281 198.394531 Z M 425.753906 198.394531 " style=" stroke:none;fill-rule:nonzero;fill:rgb(97.647059%,52.156863%,65.098039%);fill-opacity:1;" />
<path d="M 256.914062 198.394531 L 425.753906 198.394531 L 425.753906 253.152344 L 256.914062 253.152344 Z M 256.914062 198.394531 " style=" stroke:none;fill-rule:nonzero;fill:rgb(100%,39.215686%,46.666667%);fill-opacity:1;" />
<path d="M 315.070312 276.722656 C 315.070312 280.578125 311.949219 283.699219 308.097656 283.699219 C 304.242188 283.699219 301.121094 280.578125 301.121094 276.722656 C 301.121094 272.871094 304.242188 269.75 308.097656 269.75 C 311.949219 269.75 315.070312 272.871094 315.070312 276.722656 Z M 315.070312 276.722656 " style=" stroke:none;fill-rule:nonzero;fill:rgb(89.803922%,16.078431%,16.078431%);fill-opacity:1;" />
<path d="M 243.300781 309.328125 C 243.300781 313.183594 240.179688 316.304688 236.328125 316.304688 C 232.476562 316.304688 229.351562 313.183594 229.351562 309.328125 C 229.351562 305.476562 232.476562 302.355469 236.328125 302.355469 C 240.179688 302.355469 243.300781 305.476562 243.300781 309.328125 Z M 243.300781 309.328125 " style=" stroke:none;fill-rule:nonzero;fill:rgb(89.803922%,16.078431%,16.078431%);fill-opacity:1;" />
<path d="M 190.269531 175.445312 C 190.269531 179.585938 186.914062 182.941406 182.773438 182.941406 C 178.632812 182.941406 175.277344 179.585938 175.277344 175.445312 C 175.277344 171.308594 178.632812 167.949219 182.773438 167.949219 C 186.914062 167.949219 190.269531 171.308594 190.269531 175.445312 Z M 190.269531 175.445312 " style=" stroke:none;fill-rule:nonzero;fill:rgb(89.803922%,16.078431%,16.078431%);fill-opacity:1;" />
<path d="M 153.65625 167.796875 C 153.65625 171.9375 150.300781 175.292969 146.160156 175.292969 C 142.019531 175.292969 138.664062 171.9375 138.664062 167.796875 C 138.664062 163.65625 142.019531 160.300781 146.160156 160.300781 C 150.300781 160.300781 153.65625 163.65625 153.65625 167.796875 Z M 153.65625 167.796875 " style=" stroke:none;fill-rule:nonzero;fill:rgb(100%,100%,100%);fill-opacity:1;" />
<path d="M 242.574219 121.894531 C 242.574219 126.035156 239.21875 129.390625 235.078125 129.390625 C 230.9375 129.390625 227.582031 126.035156 227.582031 121.894531 C 227.582031 117.753906 230.9375 114.398438 235.078125 114.398438 C 239.21875 114.398438 242.574219 117.753906 242.574219 121.894531 Z M 242.574219 121.894531 " style=" stroke:none;fill-rule:nonzero;fill:rgb(89.803922%,16.078431%,16.078431%);fill-opacity:1;" />
<path d="M 157.480469 289.839844 C 157.480469 293.980469 154.125 297.335938 149.984375 297.335938 C 145.847656 297.335938 142.488281 293.980469 142.488281 289.839844 C 142.488281 285.699219 145.847656 282.34375 149.984375 282.34375 C 154.125 282.34375 157.480469 285.699219 157.480469 289.839844 Z M 157.480469 289.839844 " style=" stroke:none;fill-rule:nonzero;fill:rgb(100%,100%,100%);fill-opacity:1;" />
<path d="M 243.136719 171.074219 C 243.136719 177.855469 237.640625 183.347656 230.863281 183.347656 C 224.085938 183.347656 218.589844 177.855469 218.589844 171.074219 C 218.589844 164.296875 224.085938 158.800781 230.863281 158.800781 C 237.640625 158.800781 243.136719 164.296875 243.136719 171.074219 Z M 243.136719 171.074219 " style=" stroke:none;fill-rule:nonzero;fill:rgb(100%,100%,100%);fill-opacity:1;" />
<path d="M 203.789062 143.207031 C 203.789062 149.984375 198.296875 155.480469 191.515625 155.480469 C 184.738281 155.480469 179.242188 149.984375 179.242188 143.207031 C 179.242188 136.425781 184.738281 130.933594 191.515625 130.933594 C 198.296875 130.933594 203.789062 136.425781 203.789062 143.207031 Z M 203.789062 143.207031 " style=" stroke:none;fill-rule:nonzero;fill:rgb(89.803922%,16.078431%,16.078431%);fill-opacity:1;" />
<path d="M 339.3125 322.992188 C 339.3125 329.769531 333.820312 335.265625 327.039062 335.265625 C 320.261719 335.265625 314.765625 329.769531 314.765625 322.992188 C 314.765625 316.214844 320.261719 310.71875 327.039062 310.71875 C 333.820312 310.71875 339.3125 316.214844 339.3125 322.992188 Z M 339.3125 322.992188 " style=" stroke:none;fill-rule:nonzero;fill:rgb(89.803922%,16.078431%,16.078431%);fill-opacity:1;" />
<path d="M 202.039062 112.605469 C 202.039062 117.8125 197.816406 122.03125 192.609375 122.03125 C 187.402344 122.03125 183.183594 117.8125 183.183594 112.605469 C 183.183594 107.398438 187.402344 103.175781 192.609375 103.175781 C 197.816406 103.175781 202.039062 107.398438 202.039062 112.605469 Z M 202.039062 112.605469 " style=" stroke:none;fill-rule:nonzero;fill:rgb(100%,100%,100%);fill-opacity:1;" />
<path d="M 339.199219 126.8125 C 339.199219 132.019531 334.980469 136.238281 329.773438 136.238281 C 324.566406 136.238281 320.34375 132.019531 320.34375 126.8125 C 320.34375 121.605469 324.566406 117.382812 329.773438 117.382812 C 334.980469 117.382812 339.199219 121.605469 339.199219 126.8125 Z M 339.199219 126.8125 " style=" stroke:none;fill-rule:nonzero;fill:rgb(100%,100%,100%);fill-opacity:1;" />
<path d="M 376.472656 167.796875 C 376.472656 174.574219 370.976562 180.070312 364.199219 180.070312 C 357.421875 180.070312 351.925781 174.574219 351.925781 167.796875 C 351.925781 161.015625 357.421875 155.523438 364.199219 155.523438 C 370.976562 155.523438 376.472656 161.015625 376.472656 167.796875 Z M 376.472656 167.796875 " style=" stroke:none;fill-rule:nonzero;fill:rgb(89.803922%,16.078431%,16.078431%);fill-opacity:1;" />
<path d="M 369.398438 289.839844 C 369.398438 294.320312 365.765625 297.953125 361.285156 297.953125 C 356.804688 297.953125 353.171875 294.320312 353.171875 289.839844 C 353.171875 285.359375 356.804688 281.726562 361.285156 281.726562 C 365.765625 281.726562 369.398438 285.359375 369.398438 289.839844 Z M 369.398438 289.839844 " style=" stroke:none;fill-rule:nonzero;fill:rgb(100%,100%,100%);fill-opacity:1;" />
<path d="M 326.585938 160.691406 C 326.585938 164.363281 323.609375 167.339844 319.9375 167.339844 C 316.265625 167.339844 313.285156 164.363281 313.285156 160.691406 C 313.285156 157.019531 316.265625 154.042969 319.9375 154.042969 C 323.609375 154.042969 326.585938 157.019531 326.585938 160.691406 Z M 326.585938 160.691406 " style=" stroke:none;fill-rule:nonzero;fill:rgb(100%,100%,100%);fill-opacity:1;" />
<path d="M 209.140625 273.808594 C 209.140625 279.015625 204.921875 283.238281 199.714844 283.238281 C 194.507812 283.238281 190.285156 279.015625 190.285156 273.808594 C 190.285156 268.601562 194.507812 264.382812 199.714844 264.382812 C 204.921875 264.382812 209.140625 268.601562 209.140625 273.808594 Z M 209.140625 273.808594 " style=" stroke:none;fill-rule:nonzero;fill:rgb(89.803922%,16.078431%,16.078431%);fill-opacity:1;" />
<path d="M 304.4375 115.574219 C 304.4375 122.351562 298.941406 127.847656 292.164062 127.847656 C 285.382812 127.847656 279.890625 122.351562 279.890625 115.574219 C 279.890625 108.796875 285.382812 103.300781 292.164062 103.300781 C 298.941406 103.300781 304.4375 108.796875 304.4375 115.574219 Z M 304.4375 115.574219 " style=" stroke:none;fill-rule:nonzero;fill:rgb(89.803922%,16.078431%,16.078431%);fill-opacity:1;" />
<path d="M 284.378906 330.640625 C 284.378906 335.449219 280.480469 339.347656 275.671875 339.347656 C 270.863281 339.347656 266.96875 335.449219 266.96875 330.640625 C 266.96875 325.835938 270.863281 321.9375 275.671875 321.9375 C 280.480469 321.9375 284.378906 325.835938 284.378906 330.640625 Z M 284.378906 330.640625 " style=" stroke:none;fill-rule:nonzero;fill:rgb(100%,100%,100%);fill-opacity:1;" />
<path d="M 196.945312 330.097656 C 196.945312 334.902344 193.046875 338.800781 188.238281 338.800781 C 183.429688 338.800781 179.535156 334.902344 179.535156 330.097656 C 179.535156 325.289062 183.429688 321.390625 188.238281 321.390625 C 193.046875 321.390625 196.945312 325.289062 196.945312 330.097656 Z M 196.945312 330.097656 " style=" stroke:none;fill-rule:nonzero;fill:rgb(100%,100%,100%);fill-opacity:1;" />
<path d="M 294.714844 179.820312 C 294.714844 184.300781 291.082031 187.929688 286.601562 187.929688 C 282.121094 187.929688 278.488281 184.300781 278.488281 179.820312 C 278.488281 175.339844 282.121094 171.707031 286.601562 171.707031 C 291.082031 171.707031 294.714844 175.339844 294.714844 179.820312 Z M 294.714844 179.820312 " style=" stroke:none;fill-rule:nonzero;fill:rgb(89.803922%,16.078431%,16.078431%);fill-opacity:1;" />
</g>
</svg>