<svg xmlns="http://www.w3.org/2000/svg" height="512pt" version="1.1" viewBox="0 0 512 512" width="512pt">
<g id="surface1">
<path d="M 512 256 C 512 397.386719 397.386719 512 256 512 C 114.613281 512 0 397.386719 0 256 C 0 114.613281 114.613281 0 256 0 C 397.386719 0 512 114.613281 512 256 Z M 512 256 " style=" stroke:none;fill-rule:nonzero;fill:rgb(39.607843%,69.803922%,100%);fill-opacity:1;" />
<path d="M 512 256 C 512 282.050781 508.109375 307.191406 500.871094 330.871094 C 468.859375 435.71875 371.328125 512 256 512 C 151.441406 512 61.511719 449.300781 21.769531 359.449219 C 7.769531 327.820312 0 292.820312 0 256 C 0 209.78125 12.25 166.429688 33.679688 129 C 77.800781 206.070312 160.839844 258 256 258 C 351.160156 258 434.210938 206.070312 478.320312 129 C 499.75 166.429688 512 209.78125 512 256 Z M 512 256 " style=" stroke:none;fill-rule:nonzero;fill:rgb(5.882353%,60.784314%,90.980392%);fill-opacity:1;" />
<path d="M 30.742188 377.703125 C 37.898438 390.921875 46.171875 403.441406 55.460938 415.128906 C 102.359375 474.148438 174.761719 512 256 512 C 337.238281 512 409.640625 474.148438 456.539062 415.128906 C 465.828125 403.441406 474.101562 390.921875 481.257812 377.703125 Z M 30.742188 377.703125 " style=" stroke:none;fill-rule:nonzero;fill:rgb(0%,40%,90.980392%);fill-opacity:1;" />
<path d="M 416 423.394531 L 96 423.394531 L 143.382812 219.203125 C 144.722656 213.398438 147.597656 208.484375 151.371094 205.03125 C 155.152344 201.570312 159.839844 199.558594 164.832031 199.558594 C 178.601562 199.558594 189.078125 214.511719 186.792969 230.917969 L 188.039062 222.003906 C 189.84375 209.050781 199.125 199.558594 210.011719 199.558594 L 210.832031 199.558594 C 223.617188 199.558594 233.785156 212.539062 233.070312 227.960938 L 233.210938 224.949219 C 233.867188 210.707031 243.628906 199.558594 255.449219 199.558594 L 256.554688 199.558594 C 268.371094 199.558594 278.132812 210.707031 278.792969 224.949219 L 278.929688 227.960938 C 278.214844 212.539062 288.382812 199.558594 301.171875 199.558594 L 301.992188 199.558594 C 312.875 199.558594 322.15625 209.050781 323.964844 222.003906 L 325.207031 230.917969 C 324.996094 229.394531 324.890625 227.890625 324.890625 226.402344 C 324.890625 211.867188 334.675781 199.558594 347.171875 199.558594 C 357.160156 199.558594 365.929688 207.589844 368.621094 219.203125 Z M 416 423.394531 " style=" stroke:none;fill-rule:nonzero;fill:rgb(100%,62.352941%,0.392157%);fill-opacity:1;" />
<path d="M 416 423.394531 L 256 423.394531 L 256 199.558594 L 256.554688 199.558594 C 268.371094 199.558594 278.132812 210.703125 278.792969 224.949219 L 278.929688 227.960938 C 278.214844 212.539062 288.382812 199.558594 301.167969 199.558594 L 301.992188 199.558594 C 312.875 199.558594 322.15625 209.050781 323.960938 222 L 325.207031 230.914062 C 324.996094 229.394531 324.890625 227.886719 324.890625 226.402344 C 324.890625 211.863281 334.675781 199.558594 347.171875 199.558594 C 357.160156 199.558594 365.929688 207.589844 368.621094 219.203125 Z M 416 423.394531 " style=" stroke:none;fill-rule:nonzero;fill:rgb(77.254902%,34.509804%,20.784314%);fill-opacity:1;" />
<path d="M 160 423.390625 L 96.003906 423.390625 L 143.378906 219.199219 C 146.074219 207.585938 154.84375 199.558594 164.828125 199.558594 C 178.609375 199.558594 189.082031 214.507812 186.796875 230.914062 Z M 160 423.390625 " style=" stroke:none;fill-rule:nonzero;fill:rgb(100%,83.137255%,0%);fill-opacity:1;" />
<path d="M 288 423.394531 L 224 423.394531 L 233.207031 224.949219 C 233.867188 210.703125 243.628906 199.558594 255.445312 199.558594 L 256.554688 199.558594 C 268.371094 199.558594 278.132812 210.703125 278.792969 224.949219 L 278.929688 227.863281 L 278.929688 227.960938 Z M 288 423.394531 " style=" stroke:none;fill-rule:nonzero;fill:rgb(100%,83.137255%,0%);fill-opacity:1;" />
<path d="M 288 423.394531 L 256 423.394531 L 256 199.558594 L 256.554688 199.558594 C 268.371094 199.558594 278.132812 210.703125 278.792969 224.949219 L 278.929688 227.960938 Z M 288 423.394531 " style=" stroke:none;fill-rule:nonzero;fill:rgb(100%,62.352941%,0.392157%);fill-opacity:1;" />
<path d="M 415.996094 423.390625 L 352 423.390625 L 325.203125 230.914062 C 322.917969 214.511719 333.394531 199.558594 347.171875 199.558594 C 357.15625 199.558594 365.925781 207.589844 368.621094 219.199219 Z M 415.996094 423.390625 " style=" stroke:none;fill-rule:nonzero;fill:rgb(100%,62.352941%,0.392157%);fill-opacity:1;" />
<path d="M 437 415 L 431.378906 442.488281 C 385.558594 485.589844 323.859375 512 256 512 C 226.449219 512 198.058594 506.988281 171.648438 497.769531 C 137.410156 485.828125 106.480469 466.820312 80.621094 442.488281 L 75 415 Z M 437 415 " style=" stroke:none;fill-rule:nonzero;fill:rgb(100%,100%,100%);fill-opacity:1;" />
<path d="M 437 415 L 431.378906 442.488281 C 385.558594 485.589844 323.859375 512 256 512 C 226.449219 512 198.058594 506.988281 171.648438 497.769531 L 164.949219 423.390625 L 164.191406 415 Z M 437 415 " style=" stroke:none;fill-rule:nonzero;fill:rgb(92.156863%,94.117647%,95.294118%);fill-opacity:1;" />
<path d="M 437 415 L 431.378906 442.488281 C 385.558594 485.589844 323.859375 512 256 512 L 256 415 Z M 437 415 " style=" stroke:none;fill-rule:nonzero;fill:rgb(78.039216%,85.098039%,100%);fill-opacity:1;" />
</g>
</svg>