<svg xmlns="http://www.w3.org/2000/svg" height="512pt" version="1.1" viewBox="0 0 512 512" width="512pt">
<g id="surface1">
<path d="M 512 256 C 512 397.386719 397.386719 512 256 512 C 114.613281 512 0 397.386719 0 256 C 0 114.613281 114.613281 0 256 0 C 397.386719 0 512 114.613281 512 256 Z M 512 256 " style=" stroke:none;fill-rule:nonzero;fill:rgb(100%,91.372549%,33.333333%);fill-opacity:1;" />
<path d="M 512 256 C 512 282.050781 508.109375 307.191406 500.871094 330.871094 C 468.859375 435.71875 371.328125 512 256 512 C 151.441406 512 61.511719 449.300781 21.769531 359.449219 C 7.769531 327.820312 0 292.820312 0 256 C 0 209.78125 12.25 166.429688 33.679688 129 C 77.800781 206.070312 160.839844 258 256 258 C 351.160156 258 434.210938 206.070312 478.320312 129 C 499.75 166.429688 512 209.78125 512 256 Z M 512 256 " style=" stroke:none;fill-rule:nonzero;fill:rgb(100%,81.960784%,7.058824%);fill-opacity:1;" />
<path d="M 30.742188 377.703125 C 37.898438 390.921875 46.171875 403.441406 55.460938 415.128906 C 102.359375 474.148438 174.761719 512 256 512 C 337.238281 512 409.640625 474.148438 456.539062 415.128906 C 465.828125 403.441406 474.101562 390.921875 481.257812 377.703125 Z M 30.742188 377.703125 " style=" stroke:none;fill-rule:nonzero;fill:rgb(100%,62.352941%,0%);fill-opacity:1;" />
<path d="M 358.078125 296.28125 L 358.078125 339.808594 L 329.929688 411.929688 L 329.929688 501.160156 C 306.53125 508.210938 281.710938 512 256 512 C 244.589844 512 233.351562 511.25 222.328125 509.800781 C 209.03125 508.058594 196.058594 505.289062 183.488281 501.578125 L 183.390625 411.929688 L 155.238281 339.808594 L 155.238281 296.28125 Z M 358.078125 296.28125 " style=" stroke:none;fill-rule:nonzero;fill:rgb(91.764706%,50.980392%,30.588235%);fill-opacity:1;" />
<path d="M 358.078125 296.28125 L 358.078125 339.808594 L 329.929688 411.929688 L 329.929688 501.160156 C 306.53125 508.210938 281.710938 512 256 512 C 244.589844 512 233.351562 511.25 222.328125 509.800781 L 222.21875 411.929688 L 194.070312 339.808594 L 194.070312 296.28125 Z M 358.078125 296.28125 " style=" stroke:none;fill-rule:nonzero;fill:rgb(77.254902%,34.509804%,20.784314%);fill-opacity:1;" />
<path d="M 358.078125 296.28125 L 358.078125 339.808594 L 329.929688 411.929688 L 329.929688 501.160156 C 306.53125 508.210938 281.710938 512 256 512 L 256 296.28125 Z M 358.078125 296.28125 " style=" stroke:none;fill-rule:nonzero;fill:rgb(65.098039%,22.352941%,7.843137%);fill-opacity:1;" />
<path d="M 155.238281 296.28125 L 358.078125 296.28125 L 358.078125 339.808594 L 155.238281 339.808594 Z M 155.238281 296.28125 " style=" stroke:none;fill-rule:nonzero;fill:rgb(65.098039%,22.352941%,7.843137%);fill-opacity:1;" />
<path d="M 194.070312 296.28125 L 358.078125 296.28125 L 358.078125 339.808594 L 194.070312 339.808594 Z M 194.070312 296.28125 " style=" stroke:none;fill-rule:nonzero;fill:rgb(65.098039%,22.352941%,7.843137%);fill-opacity:1;" />
<path d="M 375.894531 282.539062 C 375.628906 290.230469 368.742188 296.507812 361.039062 296.5 L 256.660156 296.4375 L 162.558594 296.390625 C 161.457031 296.546875 160.367188 296.617188 159.28125 296.617188 C 146.6875 296.617188 136.09375 286.382812 136.09375 273.375 C 136.09375 261.78125 144.640625 251.960938 156.117188 250.355469 L 174.941406 247.71875 C 172.695312 248.03125 170.472656 248.023438 168.34375 247.699219 C 157.171875 246.085938 148.320312 236.402344 148.433594 224.441406 C 148.542969 212.863281 157.429688 203.234375 168.894531 201.628906 L 190.601562 198.589844 C 189.117188 198.800781 187.636719 198.867188 186.195312 198.792969 L 186.160156 198.792969 C 173.988281 198.167969 163.992188 188.023438 164.136719 175.292969 C 164.277344 163.707031 173.179688 154.089844 184.652344 152.492188 L 214.53125 148.304688 C 213.136719 148.496094 211.761719 148.570312 210.410156 148.515625 C 198.101562 148.066406 187.921875 137.847656 188.066406 125.007812 C 188.140625 119.214844 190.398438 113.917969 194.070312 109.859375 C 197.753906 105.804688 202.847656 102.996094 208.585938 102.195312 C 217.488281 100.957031 225.558594 96.285156 231.082031 89.1875 L 249.027344 66.148438 C 251.011719 63.59375 253.765625 62.097656 256.65625 61.648438 C 260.789062 60.996094 265.195312 62.503906 268.039062 66.148438 L 284.25 86.976562 C 286.003906 89.222656 288.664062 90.507812 291.464844 90.507812 C 291.898438 90.507812 292.320312 90.480469 292.75 90.417969 C 305.988281 88.570312 318.363281 97.890625 319.582031 111.210938 C 320.585938 122.214844 313.835938 132.027344 303.902344 135.378906 C 302.546875 135.847656 301.121094 136.1875 299.652344 136.390625 L 316.683594 134.011719 C 330.5625 132.066406 342.964844 141.90625 343.585938 155.914062 C 344.074219 166.929688 336.832031 176.539062 326.550781 179.367188 C 325.585938 179.632812 324.59375 179.84375 323.585938 179.980469 L 332.386719 178.753906 C 346.269531 176.804688 358.667969 186.648438 359.292969 200.652344 C 359.824219 212.699219 351.113281 223.070312 339.289062 224.722656 L 344.6875 223.96875 C 358.707031 222.007812 371.601562 232.691406 371.648438 246.835938 C 371.675781 255.628906 366.792969 263.40625 359.441406 267.371094 L 359.441406 267.691406 C 368.367188 266.464844 376.214844 273.570312 375.894531 282.539062 Z M 375.894531 282.539062 " style=" stroke:none;fill-rule:nonzero;fill:rgb(91.764706%,50.980392%,30.588235%);fill-opacity:1;" />
<path d="M 375.894531 282.539062 C 375.628906 290.230469 368.742188 296.507812 361.039062 296.5 L 256.660156 296.4375 L 256.660156 61.648438 C 260.789062 60.996094 265.195312 62.503906 268.042969 66.148438 L 284.253906 86.976562 C 286.007812 89.226562 288.667969 90.511719 291.46875 90.511719 C 291.902344 90.511719 292.324219 90.484375 292.753906 90.417969 C 305.992188 88.574219 318.363281 97.890625 319.585938 111.210938 C 320.585938 122.214844 313.839844 132.027344 303.90625 135.378906 C 302.546875 135.847656 301.125 136.1875 299.65625 136.390625 L 316.683594 134.011719 C 330.566406 132.066406 342.964844 141.90625 343.589844 155.914062 C 344.078125 166.929688 336.835938 176.539062 326.554688 179.367188 C 325.589844 179.632812 324.597656 179.84375 323.589844 179.984375 L 332.390625 178.753906 C 346.269531 176.808594 358.671875 186.648438 359.296875 200.65625 C 359.828125 212.699219 351.117188 223.070312 339.292969 224.722656 L 344.691406 223.972656 C 358.710938 222.007812 371.605469 232.691406 371.652344 246.835938 C 371.679688 255.632812 366.796875 263.40625 359.441406 267.371094 L 359.441406 267.691406 C 368.367188 266.464844 376.214844 273.570312 375.894531 282.539062 Z M 375.894531 282.539062 " style=" stroke:none;fill-rule:nonzero;fill:rgb(77.254902%,34.509804%,20.784314%);fill-opacity:1;" />
<path d="M 303.90625 135.378906 C 302.550781 135.847656 301.128906 136.1875 299.65625 136.390625 Z M 303.90625 135.378906 " style=" stroke:none;fill-rule:nonzero;fill:rgb(100%,100%,100%);fill-opacity:1;" />
<path d="M 210.414062 148.515625 L 214.535156 148.304688 C 213.140625 148.496094 211.765625 148.570312 210.414062 148.515625 Z M 210.414062 148.515625 " style=" stroke:none;fill-rule:nonzero;fill:rgb(100%,100%,100%);fill-opacity:1;" />
<path d="M 326.554688 179.367188 L 323.589844 179.984375 L 256.660156 189.347656 L 190.605469 198.589844 L 186.199219 198.792969 L 186.160156 198.792969 C 173.988281 198.167969 163.992188 188.023438 164.140625 175.292969 C 164.277344 163.707031 173.183594 154.089844 184.65625 152.492188 L 214.535156 148.304688 L 256.660156 142.410156 L 299.65625 136.390625 L 316.683594 134.011719 C 330.566406 132.066406 342.964844 141.90625 343.589844 155.914062 C 344.078125 166.929688 336.835938 176.542969 326.554688 179.367188 Z M 326.554688 179.367188 " style=" stroke:none;fill-rule:nonzero;fill:rgb(100%,65.882353%,47.843137%);fill-opacity:1;" />
<path d="M 168.34375 247.703125 L 174.945312 247.71875 C 172.695312 248.03125 170.472656 248.023438 168.34375 247.703125 Z M 168.34375 247.703125 " style=" stroke:none;fill-rule:nonzero;fill:rgb(100%,100%,100%);fill-opacity:1;" />
<path d="M 371.652344 246.839844 C 371.679688 255.632812 366.796875 263.40625 359.445312 267.375 L 256.660156 282.519531 L 162.5625 296.390625 C 161.460938 296.546875 160.367188 296.617188 159.285156 296.617188 C 146.691406 296.617188 136.097656 286.382812 136.097656 273.375 C 136.097656 261.78125 144.640625 251.960938 156.117188 250.355469 L 174.945312 247.71875 L 256.660156 236.28125 L 339.296875 224.722656 L 344.695312 223.972656 C 358.710938 222.007812 371.605469 232.691406 371.652344 246.839844 Z M 371.652344 246.839844 " style=" stroke:none;fill-rule:nonzero;fill:rgb(100%,65.882353%,47.843137%);fill-opacity:1;" />
<path d="M 292.753906 90.417969 L 256.660156 95.46875 L 208.589844 102.195312 C 217.492188 100.957031 225.5625 96.285156 231.085938 89.1875 L 249.03125 66.148438 C 251.015625 63.597656 253.769531 62.101562 256.660156 61.648438 C 260.792969 60.996094 265.199219 62.503906 268.042969 66.148438 L 284.253906 86.976562 C 286.007812 89.226562 288.671875 90.511719 291.46875 90.511719 C 291.902344 90.511719 292.324219 90.484375 292.753906 90.417969 Z M 292.753906 90.417969 " style=" stroke:none;fill-rule:nonzero;fill:rgb(100%,65.882353%,47.843137%);fill-opacity:1;" />
<path d="M 292.753906 90.417969 L 256.660156 95.46875 L 256.660156 61.648438 C 260.792969 60.996094 265.199219 62.503906 268.042969 66.148438 L 284.253906 86.976562 C 286.007812 89.226562 288.671875 90.511719 291.46875 90.511719 C 291.902344 90.511719 292.324219 90.484375 292.753906 90.417969 Z M 292.753906 90.417969 " style=" stroke:none;fill-rule:nonzero;fill:rgb(91.764706%,50.980392%,30.588235%);fill-opacity:1;" />
<path d="M 326.554688 179.367188 C 325.589844 179.636719 324.597656 179.847656 323.589844 179.984375 L 256.660156 189.347656 L 256.660156 142.410156 L 299.65625 136.390625 L 316.6875 134.011719 C 330.566406 132.066406 342.96875 141.90625 343.589844 155.914062 C 344.078125 166.929688 336.835938 176.542969 326.554688 179.367188 Z M 326.554688 179.367188 " style=" stroke:none;fill-rule:nonzero;fill:rgb(91.764706%,50.980392%,30.588235%);fill-opacity:1;" />
<path d="M 371.652344 246.839844 C 371.679688 255.632812 366.796875 263.40625 359.445312 267.375 L 256.660156 282.519531 L 256.660156 236.28125 L 339.296875 224.726562 L 344.695312 223.972656 C 358.710938 222.007812 371.605469 232.691406 371.652344 246.839844 Z M 371.652344 246.839844 " style=" stroke:none;fill-rule:nonzero;fill:rgb(91.764706%,50.980392%,30.588235%);fill-opacity:1;" />
<path d="M 329.929688 411.929688 L 329.929688 501.160156 C 306.53125 508.210938 281.710938 512 256 512 C 244.589844 512 233.351562 511.25 222.328125 509.800781 C 209.03125 508.058594 196.058594 505.289062 183.488281 501.578125 L 183.390625 411.929688 Z M 329.929688 411.929688 " style=" stroke:none;fill-rule:nonzero;fill:rgb(77.254902%,34.509804%,20.784314%);fill-opacity:1;" />
<path d="M 329.929688 411.929688 L 329.929688 501.160156 C 306.53125 508.210938 281.710938 512 256 512 C 244.589844 512 233.351562 511.25 222.328125 509.800781 L 222.21875 411.929688 Z M 329.929688 411.929688 " style=" stroke:none;fill-rule:nonzero;fill:rgb(65.098039%,22.352941%,7.843137%);fill-opacity:1;" />
<path d="M 256 296.28125 L 358.078125 296.28125 L 358.078125 339.808594 L 256 339.808594 Z M 256 296.28125 " style=" stroke:none;fill-rule:nonzero;fill:rgb(47.843137%,17.647059%,10.196078%);fill-opacity:1;" />
<path d="M 329.929688 411.929688 L 329.929688 501.160156 C 306.53125 508.210938 281.710938 512 256 512 L 256 411.929688 Z M 329.929688 411.929688 " style=" stroke:none;fill-rule:nonzero;fill:rgb(47.843137%,17.647059%,10.196078%);fill-opacity:1;" />
</g>
</svg>