<svg xmlns="http://www.w3.org/2000/svg" height="512pt" version="1.1" viewBox="0 0 512 512" width="512pt">
<g id="surface1">
<path d="M 512 256 C 512 397.386719 397.386719 512 256 512 C 114.613281 512 0 397.386719 0 256 C 0 114.613281 114.613281 0 256 0 C 397.386719 0 512 114.613281 512 256 Z M 512 256 " style=" stroke:none;fill-rule:nonzero;fill:rgb(39.607843%,69.803922%,100%);fill-opacity:1;" />
<path d="M 512 256 C 512 282.050781 508.109375 307.191406 500.871094 330.871094 C 468.859375 435.71875 371.328125 512 256 512 C 151.441406 512 61.511719 449.300781 21.769531 359.449219 C 7.769531 327.820312 0 292.820312 0 256 C 0 209.78125 12.25 166.429688 33.679688 129 C 77.800781 206.070312 160.839844 258 256 258 C 351.160156 258 434.210938 206.070312 478.320312 129 C 499.75 166.429688 512 209.78125 512 256 Z M 512 256 " style=" stroke:none;fill-rule:nonzero;fill:rgb(5.882353%,60.784314%,90.980392%);fill-opacity:1;" />
<path d="M 30.742188 377.703125 C 37.898438 390.921875 46.171875 403.441406 55.460938 415.128906 C 102.359375 474.148438 174.761719 512 256 512 C 337.238281 512 409.640625 474.148438 456.539062 415.128906 C 465.828125 403.441406 474.101562 390.921875 481.257812 377.703125 Z M 30.742188 377.703125 " style=" stroke:none;fill-rule:nonzero;fill:rgb(0%,40%,90.980392%);fill-opacity:1;" />
<path d="M 392.101562 275.089844 L 392.101562 472.859375 C 352.679688 497.648438 306.011719 512 256 512 C 227.96875 512 200.988281 507.488281 175.75 499.160156 C 155.949219 492.640625 137.230469 483.761719 119.898438 472.859375 L 119.898438 275.089844 C 119.898438 274.828125 119.898438 274.578125 119.910156 274.328125 C 120.128906 260.621094 126.371094 247.699219 137 239.019531 L 154.011719 225.128906 L 154.011719 184.570312 L 357.988281 184.570312 L 357.988281 225.128906 L 375 239.019531 C 376.328125 240.109375 377.589844 241.261719 378.78125 242.46875 C 379.078125 242.769531 379.371094 243.078125 379.660156 243.390625 C 381.960938 245.871094 383.980469 248.578125 385.671875 251.46875 C 385.878906 251.820312 386.078125 252.171875 386.269531 252.519531 C 387.421875 254.589844 388.410156 256.761719 389.230469 258.988281 C 389.328125 259.25 389.421875 259.511719 389.511719 259.769531 C 389.609375 260.050781 389.699219 260.328125 389.789062 260.609375 C 389.910156 260.960938 390.019531 261.308594 390.121094 261.660156 C 390.269531 262.148438 390.421875 262.648438 390.539062 263.160156 C 390.628906 263.480469 390.710938 263.789062 390.78125 264.109375 C 390.910156 264.601562 391.019531 265.089844 391.121094 265.589844 C 391.199219 265.960938 391.269531 266.351562 391.339844 266.730469 C 391.421875 267.140625 391.488281 267.558594 391.550781 267.980469 C 391.609375 268.390625 391.671875 268.800781 391.730469 269.210938 C 391.730469 269.230469 391.738281 269.261719 391.738281 269.289062 C 391.78125 269.691406 391.828125 270.089844 391.871094 270.5 C 391.910156 270.921875 391.949219 271.351562 391.980469 271.769531 C 392.011719 272.199219 392.03125 272.621094 392.050781 273.050781 C 392.070312 273.441406 392.078125 273.839844 392.089844 274.230469 L 392.089844 274.328125 C 392.101562 274.578125 392.101562 274.828125 392.101562 275.089844 Z M 392.101562 275.089844 " style=" stroke:none;fill-rule:nonzero;fill:rgb(100%,100%,100%);fill-opacity:1;" />
<path d="M 392.101562 275.089844 L 392.101562 472.859375 C 352.679688 497.648438 306.011719 512 256 512 C 227.96875 512 200.988281 507.488281 175.75 499.160156 L 175.75 275.089844 C 175.75 274.828125 175.75 274.578125 175.761719 274.328125 C 175.980469 260.621094 182.230469 247.710938 192.859375 239.019531 L 209.871094 225.128906 L 209.871094 184.570312 L 357.988281 184.570312 L 357.988281 225.128906 L 375 239.019531 C 376.328125 240.109375 377.589844 241.261719 378.78125 242.46875 C 379.078125 242.769531 379.371094 243.078125 379.660156 243.390625 C 381.960938 245.871094 383.980469 248.578125 385.671875 251.46875 C 385.878906 251.820312 386.078125 252.171875 386.269531 252.519531 C 387.421875 254.589844 388.410156 256.761719 389.230469 258.988281 C 389.328125 259.25 389.421875 259.511719 389.511719 259.769531 C 389.609375 260.050781 389.699219 260.328125 389.789062 260.609375 C 389.910156 260.960938 390.019531 261.308594 390.121094 261.660156 C 390.269531 262.148438 390.421875 262.648438 390.539062 263.160156 C 390.628906 263.480469 390.710938 263.789062 390.78125 264.109375 C 390.910156 264.601562 391.019531 265.089844 391.121094 265.589844 C 391.199219 265.960938 391.269531 266.351562 391.339844 266.730469 C 391.421875 267.140625 391.488281 267.558594 391.550781 267.980469 C 391.609375 268.390625 391.671875 268.800781 391.730469 269.210938 C 391.730469 269.230469 391.738281 269.261719 391.738281 269.289062 C 391.78125 269.691406 391.828125 270.089844 391.871094 270.5 C 391.910156 270.921875 391.949219 271.351562 391.980469 271.769531 C 392.011719 272.199219 392.03125 272.621094 392.050781 273.050781 C 392.070312 273.441406 392.078125 273.839844 392.089844 274.230469 L 392.089844 274.328125 C 392.101562 274.578125 392.101562 274.828125 392.101562 275.089844 Z M 392.101562 275.089844 " style=" stroke:none;fill-rule:nonzero;fill:rgb(92.156863%,94.117647%,95.294118%);fill-opacity:1;" />
<path d="M 392.101562 275.089844 L 392.101562 472.859375 C 352.679688 497.648438 306.011719 512 256 512 L 256 184.570312 L 357.988281 184.570312 L 357.988281 225.128906 L 375 239.019531 C 376.328125 240.109375 377.589844 241.261719 378.78125 242.46875 C 379.078125 242.769531 379.371094 243.078125 379.660156 243.390625 C 381.960938 245.871094 383.980469 248.578125 385.671875 251.46875 C 385.878906 251.820312 386.078125 252.171875 386.269531 252.519531 C 387.421875 254.589844 388.410156 256.761719 389.230469 258.988281 C 389.328125 259.25 389.421875 259.511719 389.511719 259.769531 C 389.609375 260.050781 389.699219 260.328125 389.789062 260.609375 C 389.910156 260.960938 390.019531 261.308594 390.121094 261.660156 C 390.269531 262.148438 390.421875 262.648438 390.539062 263.160156 C 390.628906 263.480469 390.710938 263.789062 390.78125 264.109375 C 390.910156 264.601562 391.019531 265.089844 391.121094 265.589844 C 391.199219 265.960938 391.269531 266.351562 391.339844 266.730469 C 391.421875 267.140625 391.488281 267.558594 391.550781 267.980469 C 391.609375 268.390625 391.671875 268.800781 391.730469 269.210938 C 391.730469 269.230469 391.738281 269.261719 391.738281 269.289062 C 391.78125 269.691406 391.828125 270.089844 391.871094 270.5 C 391.910156 270.921875 391.949219 271.351562 391.980469 271.769531 C 392.011719 272.199219 392.03125 272.621094 392.050781 273.050781 C 392.070312 273.441406 392.078125 273.839844 392.089844 274.230469 L 392.089844 274.328125 C 392.101562 274.578125 392.101562 274.828125 392.101562 275.089844 Z M 392.101562 275.089844 " style=" stroke:none;fill-rule:nonzero;fill:rgb(78.039216%,85.098039%,100%);fill-opacity:1;" />
<path d="M 153.414062 357.632812 L 358.585938 357.632812 L 358.585938 478.480469 L 153.414062 478.480469 Z M 153.414062 357.632812 " style=" stroke:none;fill-rule:nonzero;fill:rgb(100%,20.392157%,27.058824%);fill-opacity:1;" />
<path d="M 175.75 357.632812 L 358.585938 357.632812 L 358.585938 478.480469 L 175.75 478.480469 Z M 175.75 357.632812 " style=" stroke:none;fill-rule:nonzero;fill:rgb(89.803922%,16.078431%,16.078431%);fill-opacity:1;" />
<path d="M 376.53125 140.101562 L 376.53125 185.027344 C 376.53125 191.152344 371.566406 196.117188 365.441406 196.117188 L 146.558594 196.117188 C 140.433594 196.117188 135.46875 191.148438 135.46875 185.027344 L 135.46875 140.101562 C 135.46875 133.96875 140.433594 129 146.558594 129 L 365.441406 129 C 371.566406 129 376.53125 133.96875 376.53125 140.101562 Z M 376.53125 140.101562 " style=" stroke:none;fill-rule:nonzero;fill:rgb(100%,20.392157%,27.058824%);fill-opacity:1;" />
<path d="M 376.53125 140.101562 L 376.53125 185.027344 C 376.53125 191.152344 371.566406 196.117188 365.441406 196.117188 L 201.832031 196.117188 C 195.707031 196.117188 190.742188 191.148438 190.742188 185.027344 L 190.742188 140.101562 C 190.742188 133.96875 195.710938 129 201.832031 129 L 365.441406 129 C 371.566406 129 376.53125 133.96875 376.53125 140.101562 Z M 376.53125 140.101562 " style=" stroke:none;fill-rule:nonzero;fill:rgb(89.803922%,16.078431%,16.078431%);fill-opacity:1;" />
<path d="M 376.53125 140.101562 L 376.53125 185.027344 C 376.53125 191.152344 371.566406 196.117188 365.441406 196.117188 L 256 196.117188 L 256 129 L 365.441406 129 C 371.566406 129 376.53125 133.96875 376.53125 140.101562 Z M 376.53125 140.101562 " style=" stroke:none;fill-rule:nonzero;fill:rgb(72.941176%,5.098039%,36.078431%);fill-opacity:1;" />
<path d="M 256 357.632812 L 358.585938 357.632812 L 358.585938 478.480469 L 256 478.480469 Z M 256 357.632812 " style=" stroke:none;fill-rule:nonzero;fill:rgb(72.941176%,5.098039%,36.078431%);fill-opacity:1;" />
<path d="M 392.105469 275.089844 L 392.105469 308.859375 L 119.894531 308.859375 L 119.894531 275.089844 C 119.894531 274.835938 119.894531 274.578125 119.90625 274.324219 L 392.09375 274.324219 C 392.105469 274.578125 392.105469 274.835938 392.105469 275.089844 Z M 392.105469 275.089844 " style=" stroke:none;fill-rule:nonzero;fill:rgb(100%,83.137255%,0%);fill-opacity:1;" />
<path d="M 392.105469 275.089844 L 392.105469 308.859375 L 175.75 308.859375 L 175.75 275.089844 C 175.75 274.835938 175.75 274.578125 175.761719 274.324219 L 392.09375 274.324219 C 392.105469 274.578125 392.105469 274.835938 392.105469 275.089844 Z M 392.105469 275.089844 " style=" stroke:none;fill-rule:nonzero;fill:rgb(100%,62.352941%,0.392157%);fill-opacity:1;" />
<path d="M 201.152344 379.960938 C 201.152344 383.605469 198.195312 386.5625 194.550781 386.5625 C 190.902344 386.5625 187.949219 383.605469 187.949219 379.960938 C 187.949219 376.3125 190.902344 373.355469 194.550781 373.355469 C 198.195312 373.355469 201.152344 376.3125 201.152344 379.960938 Z M 201.152344 379.960938 " style=" stroke:none;fill-rule:nonzero;fill:rgb(100%,39.215686%,46.666667%);fill-opacity:1;" />
<path d="M 171.695312 451.058594 C 171.695312 454.703125 168.742188 457.660156 165.09375 457.660156 C 161.449219 457.660156 158.492188 454.703125 158.492188 451.058594 C 158.492188 447.410156 161.449219 444.457031 165.09375 444.457031 C 168.742188 444.457031 171.695312 447.410156 171.695312 451.058594 Z M 171.695312 451.058594 " style=" stroke:none;fill-rule:nonzero;fill:rgb(100%,39.215686%,46.666667%);fill-opacity:1;" />
<path d="M 236.195312 452.074219 C 236.195312 455.71875 233.238281 458.675781 229.59375 458.675781 C 225.945312 458.675781 222.988281 455.71875 222.988281 452.074219 C 222.988281 448.429688 225.945312 445.472656 229.59375 445.472656 C 233.238281 445.472656 236.195312 448.429688 236.195312 452.074219 Z M 236.195312 452.074219 " style=" stroke:none;fill-rule:nonzero;fill:rgb(100%,39.215686%,46.666667%);fill-opacity:1;" />
<path d="M 345.890625 381.988281 C 345.890625 385.636719 342.933594 388.59375 339.285156 388.59375 C 335.640625 388.59375 332.683594 385.636719 332.683594 381.988281 C 332.683594 378.34375 335.640625 375.386719 339.285156 375.386719 C 342.933594 375.386719 345.890625 378.34375 345.890625 381.988281 Z M 345.890625 381.988281 " style=" stroke:none;fill-rule:nonzero;fill:rgb(100%,39.215686%,46.666667%);fill-opacity:1;" />
<path d="M 310.847656 414.492188 C 310.847656 418.140625 307.890625 421.09375 304.246094 421.09375 C 300.601562 421.09375 297.644531 418.140625 297.644531 414.492188 C 297.644531 410.847656 300.601562 407.890625 304.246094 407.890625 C 307.890625 407.890625 310.847656 410.847656 310.847656 414.492188 Z M 310.847656 414.492188 " style=" stroke:none;fill-rule:nonzero;fill:rgb(100%,39.215686%,46.666667%);fill-opacity:1;" />
<path d="M 345.382812 450.550781 C 345.382812 454.195312 342.425781 457.152344 338.78125 457.152344 C 335.132812 457.152344 332.179688 454.195312 332.179688 450.550781 C 332.179688 446.902344 335.132812 443.949219 338.78125 443.949219 C 342.425781 443.949219 345.382812 446.902344 345.382812 450.550781 Z M 345.382812 450.550781 " style=" stroke:none;fill-rule:nonzero;fill:rgb(100%,39.215686%,46.666667%);fill-opacity:1;" />
<path d="M 298.152344 450.550781 C 298.152344 454.195312 295.195312 457.152344 291.550781 457.152344 C 287.902344 457.152344 284.945312 454.195312 284.945312 450.550781 C 284.945312 446.902344 287.902344 443.949219 291.550781 443.949219 C 295.195312 443.949219 298.152344 446.902344 298.152344 450.550781 Z M 298.152344 450.550781 " style=" stroke:none;fill-rule:nonzero;fill:rgb(100%,39.215686%,46.666667%);fill-opacity:1;" />
<path d="M 290.027344 378.941406 C 290.027344 382.589844 287.070312 385.546875 283.425781 385.546875 C 279.777344 385.546875 276.820312 382.589844 276.820312 378.941406 C 276.820312 375.296875 279.777344 372.339844 283.425781 372.339844 C 287.070312 372.339844 290.027344 375.296875 290.027344 378.941406 Z M 290.027344 378.941406 " style=" stroke:none;fill-rule:nonzero;fill:rgb(100%,39.215686%,46.666667%);fill-opacity:1;" />
<path d="M 239.242188 378.4375 C 239.242188 382.082031 236.285156 385.039062 232.640625 385.039062 C 228.992188 385.039062 226.035156 382.082031 226.035156 378.4375 C 226.035156 374.789062 228.992188 371.835938 232.640625 371.835938 C 236.285156 371.835938 239.242188 374.789062 239.242188 378.4375 Z M 239.242188 378.4375 " style=" stroke:none;fill-rule:nonzero;fill:rgb(100%,39.215686%,46.666667%);fill-opacity:1;" />
<path d="M 203.691406 428.714844 C 203.691406 432.359375 200.734375 435.316406 197.089844 435.316406 C 193.441406 435.316406 190.488281 432.359375 190.488281 428.714844 C 190.488281 425.066406 193.441406 422.109375 197.089844 422.109375 C 200.734375 422.109375 203.691406 425.066406 203.691406 428.714844 Z M 203.691406 428.714844 " style=" stroke:none;fill-rule:nonzero;fill:rgb(100%,39.215686%,46.666667%);fill-opacity:1;" />
<path d="M 392.105469 275.089844 L 392.105469 308.859375 L 256 308.859375 L 256 274.324219 L 392.09375 274.324219 C 392.105469 274.578125 392.105469 274.835938 392.105469 275.089844 Z M 392.105469 275.089844 " style=" stroke:none;fill-rule:nonzero;fill:rgb(77.254902%,34.509804%,20.784314%);fill-opacity:1;" />
</g>
</svg>