<svg xmlns="http://www.w3.org/2000/svg" height="512pt" version="1.1" viewBox="0 0 512 512" width="512pt">
<g id="surface1">
<path d="M 512 256 C 512 397.386719 397.386719 512 256 512 C 114.613281 512 0 397.386719 0 256 C 0 114.613281 114.613281 0 256 0 C 397.386719 0 512 114.613281 512 256 Z M 512 256 " style=" stroke:none;fill-rule:nonzero;fill:rgb(70.980392%,88.627451%,21.568627%);fill-opacity:1;" />
<path d="M 512 256 C 512 282.050781 508.109375 307.191406 500.871094 330.871094 C 468.859375 435.71875 371.328125 512 256 512 C 151.441406 512 61.511719 449.300781 21.769531 359.449219 C 7.769531 327.820312 0 292.820312 0 256 C 0 209.78125 12.25 166.429688 33.679688 129 C 77.800781 206.070312 160.839844 258 256 258 C 351.160156 258 434.210938 206.070312 478.320312 129 C 499.75 166.429688 512 209.78125 512 256 Z M 512 256 " style=" stroke:none;fill-rule:nonzero;fill:rgb(58.431373%,83.921569%,0%);fill-opacity:1;" />
<path d="M 30.742188 377.703125 C 37.898438 390.921875 46.171875 403.441406 55.460938 415.128906 C 102.359375 474.148438 174.761719 512 256 512 C 337.238281 512 409.640625 474.148438 456.539062 415.128906 C 465.828125 403.441406 474.101562 390.921875 481.257812 377.703125 Z M 30.742188 377.703125 " style=" stroke:none;fill-rule:nonzero;fill:rgb(52.156863%,68.627451%,7.058824%);fill-opacity:1;" />
<path d="M 316.398438 229.925781 C 316.398438 263.257812 289.390625 290.28125 256.058594 290.3125 L 256 290.3125 C 222.644531 290.3125 195.601562 263.273438 195.601562 229.925781 C 195.601562 196.566406 222.644531 169.527344 256 169.527344 L 256.058594 169.527344 C 289.390625 169.5625 316.398438 196.585938 316.398438 229.925781 Z M 316.398438 229.925781 " style=" stroke:none;fill-rule:nonzero;fill:rgb(40.784314%,98.823529%,87.45098%);fill-opacity:1;" />
<path d="M 316.398438 229.925781 C 316.398438 263.257812 289.390625 290.28125 256.058594 290.3125 C 235.335938 278.179688 221.414062 255.671875 221.414062 229.925781 C 221.414062 204.171875 235.335938 181.664062 256.058594 169.527344 C 289.390625 169.5625 316.398438 196.585938 316.398438 229.925781 Z M 316.398438 229.925781 " style=" stroke:none;fill-rule:nonzero;fill:rgb(6.27451%,88.627451%,76.862745%);fill-opacity:1;" />
<path d="M 316.398438 229.925781 C 316.398438 263.273438 289.355469 290.3125 256 290.3125 L 256 169.527344 C 289.355469 169.527344 316.398438 196.570312 316.398438 229.925781 Z M 316.398438 229.925781 " style=" stroke:none;fill-rule:nonzero;fill:rgb(10.196078%,72.941176%,62.352941%);fill-opacity:1;" />
<path d="M 264.078125 297.898438 C 264.078125 331.230469 237.070312 358.253906 203.738281 358.289062 L 203.679688 358.289062 C 170.324219 358.289062 143.28125 331.246094 143.28125 297.898438 C 143.28125 264.542969 170.324219 237.503906 203.679688 237.503906 L 203.738281 237.503906 C 237.070312 237.535156 264.078125 264.558594 264.078125 297.898438 Z M 264.078125 297.898438 " style=" stroke:none;fill-rule:nonzero;fill:rgb(100%,91.372549%,33.333333%);fill-opacity:1;" />
<path d="M 264.078125 297.898438 C 264.078125 331.230469 237.070312 358.253906 203.738281 358.289062 C 183.015625 346.152344 169.097656 323.644531 169.097656 297.898438 C 169.097656 272.144531 183.015625 249.636719 203.738281 237.503906 C 237.070312 237.535156 264.078125 264.558594 264.078125 297.898438 Z M 264.078125 297.898438 " style=" stroke:none;fill-rule:nonzero;fill:rgb(100%,81.960784%,7.058824%);fill-opacity:1;" />
<path d="M 264.078125 297.898438 C 264.078125 331.246094 237.035156 358.289062 203.679688 358.289062 L 203.679688 237.503906 C 237.035156 237.503906 264.078125 264.542969 264.078125 297.898438 Z M 264.078125 297.898438 " style=" stroke:none;fill-rule:nonzero;fill:rgb(100%,62.352941%,0%);fill-opacity:1;" />
<path d="M 368.523438 297.898438 C 368.523438 331.230469 341.515625 358.253906 308.183594 358.289062 L 308.128906 358.289062 C 274.769531 358.289062 247.730469 331.246094 247.730469 297.898438 C 247.730469 264.542969 274.769531 237.503906 308.128906 237.503906 L 308.183594 237.503906 C 341.515625 237.535156 368.523438 264.558594 368.523438 297.898438 Z M 368.523438 297.898438 " style=" stroke:none;fill-rule:nonzero;fill:rgb(97.647059%,63.529412%,74.901961%);fill-opacity:1;" />
<path d="M 368.523438 297.898438 C 368.523438 331.230469 341.515625 358.253906 308.183594 358.289062 C 287.460938 346.152344 273.542969 323.644531 273.542969 297.898438 C 273.542969 272.144531 287.460938 249.636719 308.183594 237.503906 C 341.515625 237.535156 368.523438 264.558594 368.523438 297.898438 Z M 368.523438 297.898438 " style=" stroke:none;fill-rule:nonzero;fill:rgb(97.647059%,52.156863%,65.098039%);fill-opacity:1;" />
<path d="M 368.523438 297.898438 C 368.523438 331.246094 341.484375 358.289062 308.128906 358.289062 L 308.128906 237.503906 C 341.484375 237.503906 368.523438 264.542969 368.523438 297.898438 Z M 368.523438 297.898438 " style=" stroke:none;fill-rule:nonzero;fill:rgb(92.941176%,33.72549%,50.588235%);fill-opacity:1;" />
<path d="M 420.941406 374.160156 C 420.941406 407.492188 393.933594 434.519531 360.601562 434.550781 L 360.542969 434.550781 C 327.1875 434.550781 300.148438 407.511719 300.148438 374.160156 C 300.148438 340.804688 327.1875 313.765625 360.542969 313.765625 L 360.601562 313.765625 C 393.933594 313.796875 420.941406 340.820312 420.941406 374.160156 Z M 420.941406 374.160156 " style=" stroke:none;fill-rule:nonzero;fill:rgb(100%,91.372549%,33.333333%);fill-opacity:1;" />
<path d="M 420.941406 374.160156 C 420.941406 407.492188 393.933594 434.519531 360.601562 434.550781 C 339.878906 422.414062 325.960938 399.910156 325.960938 374.160156 C 325.960938 348.40625 339.878906 325.902344 360.601562 313.765625 C 393.933594 313.796875 420.941406 340.820312 420.941406 374.160156 Z M 420.941406 374.160156 " style=" stroke:none;fill-rule:nonzero;fill:rgb(100%,81.960784%,7.058824%);fill-opacity:1;" />
<path d="M 420.941406 374.160156 C 420.941406 407.511719 393.902344 434.550781 360.542969 434.550781 L 360.542969 313.765625 C 393.902344 313.765625 420.941406 340.804688 420.941406 374.160156 Z M 420.941406 374.160156 " style=" stroke:none;fill-rule:nonzero;fill:rgb(100%,62.352941%,0%);fill-opacity:1;" />
<path d="M 211.851562 374.160156 C 211.851562 407.492188 184.847656 434.519531 151.515625 434.550781 L 151.457031 434.550781 C 118.097656 434.550781 91.058594 407.511719 91.058594 374.160156 C 91.058594 340.804688 118.097656 313.765625 151.457031 313.765625 L 151.515625 313.765625 C 184.847656 313.796875 211.851562 340.820312 211.851562 374.160156 Z M 211.851562 374.160156 " style=" stroke:none;fill-rule:nonzero;fill:rgb(97.647059%,63.529412%,74.901961%);fill-opacity:1;" />
<path d="M 211.851562 374.160156 C 211.851562 407.492188 184.847656 434.519531 151.515625 434.550781 C 130.789062 422.414062 116.871094 399.910156 116.871094 374.160156 C 116.871094 348.40625 130.789062 325.902344 151.515625 313.765625 C 184.847656 313.796875 211.851562 340.820312 211.851562 374.160156 Z M 211.851562 374.160156 " style=" stroke:none;fill-rule:nonzero;fill:rgb(97.647059%,52.156863%,65.098039%);fill-opacity:1;" />
<path d="M 211.851562 374.160156 C 211.851562 407.511719 184.8125 434.550781 151.457031 434.550781 L 151.457031 313.765625 C 184.8125 313.765625 211.851562 340.804688 211.851562 374.160156 Z M 211.851562 374.160156 " style=" stroke:none;fill-rule:nonzero;fill:rgb(92.941176%,33.72549%,50.588235%);fill-opacity:1;" />
<path d="M 316.398438 374.160156 C 316.398438 407.492188 289.390625 434.519531 256.058594 434.550781 L 256 434.550781 C 222.644531 434.550781 195.601562 407.511719 195.601562 374.160156 C 195.601562 340.804688 222.644531 313.765625 256 313.765625 L 256.058594 313.765625 C 289.390625 313.796875 316.398438 340.820312 316.398438 374.160156 Z M 316.398438 374.160156 " style=" stroke:none;fill-rule:nonzero;fill:rgb(40.784314%,98.823529%,87.45098%);fill-opacity:1;" />
<path d="M 316.398438 374.160156 C 316.398438 407.492188 289.390625 434.519531 256.058594 434.550781 C 235.335938 422.414062 221.414062 399.910156 221.414062 374.160156 C 221.414062 348.40625 235.335938 325.902344 256.058594 313.765625 C 289.390625 313.796875 316.398438 340.820312 316.398438 374.160156 Z M 316.398438 374.160156 " style=" stroke:none;fill-rule:nonzero;fill:rgb(6.27451%,88.627451%,76.862745%);fill-opacity:1;" />
<path d="M 316.398438 374.160156 C 316.398438 407.511719 289.355469 434.550781 256 434.550781 L 256 313.765625 C 289.355469 313.765625 316.398438 340.804688 316.398438 374.160156 Z M 316.398438 374.160156 " style=" stroke:none;fill-rule:nonzero;fill:rgb(10.196078%,72.941176%,62.352941%);fill-opacity:1;" />
<path d="M 358.171875 490.789062 C 327.71875 504.070312 294.179688 511.589844 258.941406 511.980469 C 259.320312 512 259.699219 512 260.089844 512 L 256 512 C 219.679688 512 185.128906 504.429688 153.828125 490.789062 L 79.339844 399.261719 L 432.660156 399.261719 Z M 358.171875 490.789062 " style=" stroke:none;fill-rule:nonzero;fill:rgb(100%,100%,100%);fill-opacity:1;" />
<path d="M 432.660156 399.261719 L 358.171875 490.789062 C 327.71875 504.070312 294.179688 511.589844 258.941406 511.980469 L 258.800781 511.980469 C 257.859375 511.960938 256.929688 511.898438 256 511.820312 C 243.699219 510.71875 232.289062 504.710938 224.429688 495.050781 L 172.21875 430.890625 L 172.21875 430.878906 L 151.460938 405.371094 L 146.488281 399.261719 Z M 432.660156 399.261719 " style=" stroke:none;fill-rule:nonzero;fill:rgb(92.156863%,94.117647%,95.294118%);fill-opacity:1;" />
<path d="M 358.171875 490.789062 C 327.71875 504.070312 294.179688 511.589844 258.941406 511.980469 C 259.320312 512 259.699219 512 260.089844 512 L 256 512 L 256 399.261719 L 432.660156 399.261719 Z M 358.171875 490.789062 " style=" stroke:none;fill-rule:nonzero;fill:rgb(78.039216%,85.098039%,100%);fill-opacity:1;" />
</g>
</svg>