<svg xmlns="http://www.w3.org/2000/svg" height="512pt" version="1.1" viewBox="0 0 512 512" width="512pt">
<g id="surface1">
<path d="M 512 256 C 512 397.386719 397.386719 512 256 512 C 114.613281 512 0 397.386719 0 256 C 0 114.613281 114.613281 0 256 0 C 397.386719 0 512 114.613281 512 256 Z M 512 256 " style=" stroke:none;fill-rule:nonzero;fill:rgb(100%,91.372549%,33.333333%);fill-opacity:1;" />
<path d="M 512 256 C 512 282.050781 508.109375 307.191406 500.871094 330.871094 C 468.859375 435.71875 371.328125 512 256 512 C 151.441406 512 61.511719 449.300781 21.769531 359.449219 C 7.769531 327.820312 0 292.820312 0 256 C 0 209.78125 12.25 166.429688 33.679688 129 C 77.800781 206.070312 160.839844 258 256 258 C 351.160156 258 434.210938 206.070312 478.320312 129 C 499.75 166.429688 512 209.78125 512 256 Z M 512 256 " style=" stroke:none;fill-rule:nonzero;fill:rgb(100%,81.960784%,7.058824%);fill-opacity:1;" />
<path d="M 30.742188 377.703125 C 37.898438 390.921875 46.171875 403.441406 55.460938 415.128906 C 102.359375 474.148438 174.761719 512 256 512 C 337.238281 512 409.640625 474.148438 456.539062 415.128906 C 465.828125 403.441406 474.101562 390.921875 481.257812 377.703125 Z M 30.742188 377.703125 " style=" stroke:none;fill-rule:nonzero;fill:rgb(100%,62.352941%,0%);fill-opacity:1;" />
<path d="M 270 270 L 270 511.621094 C 265.371094 511.871094 260.699219 512 256 512 C 251.300781 512 246.628906 511.871094 242 511.621094 L 242 270 Z M 270 270 " style=" stroke:none;fill-rule:nonzero;fill:rgb(100%,100%,100%);fill-opacity:1;" />
<path d="M 242 270 L 270 270 L 270 420 L 242 420 Z M 242 270 " style=" stroke:none;fill-rule:nonzero;fill:rgb(78.039216%,85.098039%,100%);fill-opacity:1;" />
<path d="M 245.394531 97 L 265.972656 97 L 265.972656 171.273438 L 245.394531 171.273438 Z M 245.394531 97 " style=" stroke:none;fill-rule:nonzero;fill:rgb(40%,20.392157%,14.509804%);fill-opacity:1;" />
<path d="M 417.421875 269.253906 C 417.421875 342.015625 369.757812 401 310.957031 401 C 290.847656 401 272.042969 394.097656 256 382.105469 C 246.546875 389.171875 236.136719 394.472656 225.0625 397.628906 C 217.34375 399.835938 209.304688 401 201.042969 401 C 142.242188 401 94.578125 342.015625 94.578125 269.25 C 94.578125 267.585938 94.601562 265.925781 94.652344 264.269531 C 96.769531 193.8125 143.59375 137.5 201.039062 137.5 C 209.300781 137.5 217.347656 138.664062 225.066406 140.871094 C 236.136719 144.035156 246.550781 149.332031 256 156.394531 C 272.042969 144.40625 290.847656 137.5 310.957031 137.5 C 368.402344 137.5 415.226562 193.8125 417.347656 264.269531 C 417.398438 265.925781 417.421875 267.585938 417.421875 269.253906 Z M 417.421875 269.253906 " style=" stroke:none;fill-rule:nonzero;fill:rgb(100%,20.392157%,27.058824%);fill-opacity:1;" />
<path d="M 417.421875 269.253906 C 417.421875 342.015625 369.757812 401 310.960938 401 C 290.851562 401 272.046875 394.097656 256 382.105469 C 246.546875 389.171875 236.136719 394.472656 225.0625 397.628906 C 192.914062 368.882812 171.992188 322.085938 171.992188 269.253906 C 171.992188 216.410156 192.914062 169.617188 225.066406 140.871094 C 236.136719 144.035156 246.550781 149.332031 256 156.394531 C 272.046875 144.40625 290.851562 137.5 310.960938 137.5 C 369.757812 137.5 417.421875 196.488281 417.421875 269.253906 Z M 417.421875 269.253906 " style=" stroke:none;fill-rule:nonzero;fill:rgb(89.803922%,16.078431%,16.078431%);fill-opacity:1;" />
<path d="M 417.421875 269.253906 C 417.421875 342.015625 369.757812 401 310.960938 401 C 290.851562 401 272.046875 394.097656 256 382.105469 L 256 156.394531 C 272.046875 144.40625 290.851562 137.5 310.960938 137.5 C 369.757812 137.5 417.421875 196.488281 417.421875 269.253906 Z M 417.421875 269.253906 " style=" stroke:none;fill-rule:nonzero;fill:rgb(72.941176%,5.098039%,36.078431%);fill-opacity:1;" />
<path d="M 417.347656 264.269531 C 402.609375 270.746094 397.359375 284.835938 374.535156 284.835938 C 344.894531 284.835938 344.894531 261.078125 315.253906 261.078125 C 285.636719 261.078125 285.628906 284.828125 256 284.835938 C 255.996094 284.835938 255.996094 284.835938 255.992188 284.835938 C 226.359375 284.835938 226.359375 261.078125 196.722656 261.078125 C 185.125 261.078125 178.0625 264.71875 171.988281 269.15625 C 162.550781 276.042969 155.488281 284.835938 137.457031 284.835938 C 114.644531 284.835938 109.394531 270.746094 94.652344 264.269531 C 96.769531 193.8125 143.59375 137.5 201.039062 137.5 C 209.300781 137.5 217.347656 138.664062 225.066406 140.871094 C 236.136719 144.035156 246.550781 149.332031 256 156.394531 C 272.042969 144.40625 290.847656 137.5 310.957031 137.5 C 311.472656 137.5 311.996094 137.503906 312.511719 137.515625 C 313.351562 137.527344 314.183594 137.554688 315.011719 137.59375 C 315.445312 137.613281 315.875 137.640625 316.3125 137.664062 C 316.753906 137.6875 317.195312 137.71875 317.636719 137.753906 C 319.515625 137.898438 321.382812 138.101562 323.226562 138.359375 C 323.660156 138.425781 324.085938 138.484375 324.519531 138.558594 C 324.960938 138.628906 325.40625 138.699219 325.847656 138.777344 C 326.167969 138.832031 326.484375 138.886719 326.804688 138.949219 C 327.148438 139.007812 327.488281 139.074219 327.824219 139.144531 C 328.703125 139.316406 329.574219 139.5 330.445312 139.703125 C 330.941406 139.816406 331.4375 139.933594 331.9375 140.058594 C 332.226562 140.128906 332.511719 140.199219 332.800781 140.273438 C 333.847656 140.546875 334.890625 140.835938 335.925781 141.140625 C 336.277344 141.246094 336.628906 141.351562 336.980469 141.464844 C 337.398438 141.59375 337.8125 141.722656 338.226562 141.859375 C 338.582031 141.972656 338.933594 142.09375 339.289062 142.214844 C 339.820312 142.394531 340.347656 142.582031 340.875 142.773438 C 341.179688 142.882812 341.488281 142.992188 341.789062 143.109375 C 342.800781 143.484375 343.804688 143.882812 344.804688 144.296875 C 345.015625 144.382812 345.230469 144.472656 345.441406 144.5625 C 345.589844 144.621094 345.746094 144.6875 345.898438 144.757812 C 346.195312 144.878906 346.484375 145.011719 346.777344 145.140625 C 348.15625 145.746094 349.519531 146.390625 350.871094 147.066406 C 351.1875 147.226562 351.496094 147.386719 351.816406 147.550781 C 352.152344 147.71875 352.492188 147.898438 352.828125 148.074219 C 352.878906 148.101562 352.929688 148.132812 352.980469 148.15625 C 353.269531 148.3125 353.5625 148.46875 353.851562 148.628906 C 354.394531 148.925781 354.933594 149.226562 355.46875 149.53125 C 355.699219 149.65625 355.925781 149.785156 356.152344 149.921875 C 357.0625 150.449219 357.972656 150.996094 358.871094 151.5625 C 359.171875 151.75 359.46875 151.9375 359.769531 152.128906 C 360.09375 152.335938 360.421875 152.546875 360.742188 152.757812 C 361.0625 152.96875 361.386719 153.179688 361.707031 153.394531 C 362.183594 153.714844 362.660156 154.039062 363.132812 154.378906 C 363.324219 154.503906 363.511719 154.640625 363.703125 154.777344 C 364.160156 155.09375 364.613281 155.421875 365.0625 155.753906 C 365.617188 156.152344 366.167969 156.566406 366.710938 156.984375 C 367.257812 157.398438 367.800781 157.820312 368.339844 158.253906 C 368.703125 158.539062 369.058594 158.824219 369.414062 159.117188 C 369.902344 159.511719 370.382812 159.914062 370.863281 160.320312 L 371.226562 160.621094 C 371.597656 160.9375 371.964844 161.253906 372.328125 161.578125 C 372.765625 161.957031 373.199219 162.34375 373.625 162.730469 C 374.316406 163.351562 375 163.984375 375.679688 164.625 C 383.882812 172.410156 391.140625 181.640625 397.214844 192.003906 C 397.445312 192.398438 397.675781 192.796875 397.898438 193.191406 C 398.140625 193.613281 398.382812 194.035156 398.617188 194.460938 C 398.878906 194.921875 399.136719 195.390625 399.386719 195.855469 C 399.550781 196.152344 399.710938 196.453125 399.871094 196.753906 C 400.152344 197.28125 400.429688 197.804688 400.699219 198.335938 C 401.144531 199.191406 401.578125 200.054688 402.011719 200.929688 C 403.101562 203.152344 404.144531 205.421875 405.128906 207.730469 C 405.324219 208.1875 405.519531 208.648438 405.710938 209.109375 C 406.097656 210.039062 406.472656 210.96875 406.835938 211.90625 C 407.019531 212.371094 407.199219 212.84375 407.382812 213.316406 C 407.464844 213.550781 407.558594 213.785156 407.648438 214.023438 C 407.914062 214.730469 408.175781 215.441406 408.425781 216.160156 C 408.550781 216.503906 408.671875 216.84375 408.785156 217.183594 C 408.976562 217.730469 409.160156 218.285156 409.347656 218.835938 C 409.535156 219.386719 409.714844 219.941406 409.894531 220.496094 C 409.984375 220.769531 410.070312 221.039062 410.15625 221.308594 C 410.53125 222.5 410.894531 223.703125 411.246094 224.914062 C 411.335938 225.238281 411.429688 225.566406 411.519531 225.890625 C 411.625 226.257812 411.726562 226.625 411.828125 226.992188 C 411.96875 227.503906 412.109375 228.015625 412.238281 228.527344 C 412.375 229.039062 412.511719 229.554688 412.636719 230.066406 C 413.277344 232.617188 413.859375 235.203125 414.371094 237.816406 C 414.421875 238.074219 414.472656 238.328125 414.523438 238.589844 C 414.628906 239.121094 414.726562 239.652344 414.824219 240.191406 C 414.886719 240.515625 414.941406 240.847656 415 241.179688 C 415.199219 242.324219 415.390625 243.476562 415.5625 244.628906 C 415.652344 245.222656 415.746094 245.832031 415.832031 246.4375 C 415.90625 246.972656 415.976562 247.496094 416.046875 248.03125 C 416.117188 248.5625 416.183594 249.09375 416.246094 249.625 C 416.316406 250.214844 416.390625 250.800781 416.449219 251.386719 C 416.503906 251.871094 416.554688 252.355469 416.605469 252.839844 C 416.664062 253.441406 416.726562 254.046875 416.773438 254.660156 C 416.808594 255.03125 416.839844 255.402344 416.871094 255.777344 C 417.011719 257.449219 417.121094 259.132812 417.207031 260.824219 C 417.234375 261.371094 417.261719 261.921875 417.28125 262.46875 C 417.308594 263.070312 417.332031 263.671875 417.347656 264.269531 Z M 417.347656 264.269531 " style=" stroke:none;fill-rule:nonzero;fill:rgb(77.254902%,34.509804%,20.784314%);fill-opacity:1;" />
<path d="M 417.347656 264.269531 C 402.609375 270.746094 397.359375 284.835938 374.535156 284.835938 C 344.894531 284.835938 344.894531 261.078125 315.253906 261.078125 C 285.636719 261.078125 285.628906 284.828125 256 284.835938 C 255.996094 284.835938 255.996094 284.835938 255.992188 284.835938 C 226.359375 284.835938 226.359375 261.078125 196.722656 261.078125 C 185.125 261.078125 178.0625 264.71875 171.988281 269.15625 C 172.015625 216.355469 192.933594 169.605469 225.066406 140.871094 C 236.136719 144.035156 246.550781 149.332031 256 156.394531 C 272.042969 144.40625 290.847656 137.5 310.957031 137.5 C 311.476562 137.5 311.996094 137.503906 312.515625 137.515625 C 313.351562 137.527344 314.183594 137.554688 315.011719 137.59375 C 315.445312 137.613281 315.875 137.640625 316.3125 137.664062 C 316.753906 137.6875 317.195312 137.71875 317.636719 137.753906 C 319.515625 137.898438 321.382812 138.101562 323.230469 138.359375 C 323.660156 138.425781 324.085938 138.484375 324.519531 138.558594 C 324.960938 138.628906 325.40625 138.699219 325.847656 138.777344 C 326.171875 138.832031 326.484375 138.886719 326.808594 138.949219 C 327.148438 139.007812 327.488281 139.074219 327.824219 139.144531 C 328.703125 139.316406 329.578125 139.5 330.445312 139.703125 C 330.941406 139.816406 331.441406 139.933594 331.9375 140.058594 C 332.226562 140.128906 332.515625 140.199219 332.800781 140.273438 C 333.847656 140.546875 334.894531 140.835938 335.925781 141.140625 C 336.277344 141.246094 336.628906 141.351562 336.980469 141.464844 C 337.398438 141.59375 337.8125 141.722656 338.226562 141.859375 C 338.582031 141.972656 338.933594 142.09375 339.289062 142.214844 C 339.820312 142.394531 340.347656 142.582031 340.875 142.773438 C 341.183594 142.882812 341.488281 142.992188 341.789062 143.109375 C 342.804688 143.484375 343.804688 143.882812 344.804688 144.296875 C 345.015625 144.382812 345.230469 144.472656 345.441406 144.5625 C 345.59375 144.621094 345.746094 144.6875 345.898438 144.757812 C 346.195312 144.878906 346.484375 145.011719 346.777344 145.140625 C 348.15625 145.746094 349.523438 146.390625 350.871094 147.066406 C 351.1875 147.226562 351.5 147.386719 351.816406 147.550781 C 352.152344 147.71875 352.492188 147.898438 352.828125 148.074219 C 352.878906 148.101562 352.929688 148.132812 352.980469 148.15625 C 353.273438 148.3125 353.5625 148.46875 353.855469 148.628906 C 354.394531 148.925781 354.933594 149.226562 355.46875 149.53125 C 355.699219 149.65625 355.925781 149.785156 356.152344 149.921875 C 357.066406 150.449219 357.972656 150.996094 358.871094 151.5625 C 359.171875 151.75 359.46875 151.9375 359.769531 152.128906 C 360.097656 152.335938 360.421875 152.546875 360.742188 152.757812 C 361.066406 152.96875 361.386719 153.179688 361.707031 153.394531 C 362.183594 153.714844 362.660156 154.039062 363.132812 154.378906 C 363.324219 154.503906 363.515625 154.640625 363.703125 154.777344 C 364.160156 155.09375 364.613281 155.421875 365.066406 155.753906 C 365.617188 156.152344 366.167969 156.566406 366.710938 156.984375 C 367.257812 157.398438 367.800781 157.820312 368.34375 158.253906 C 368.703125 158.539062 369.058594 158.824219 369.414062 159.117188 C 369.902344 159.511719 370.386719 159.914062 370.867188 160.320312 L 371.226562 160.621094 C 371.597656 160.9375 371.964844 161.253906 372.332031 161.578125 C 372.769531 161.957031 373.199219 162.34375 373.625 162.730469 C 374.320312 163.351562 375 163.984375 375.679688 164.625 C 383.882812 172.410156 391.140625 181.640625 397.214844 192.003906 C 397.445312 192.398438 397.675781 192.796875 397.902344 193.191406 C 398.140625 193.613281 398.382812 194.035156 398.617188 194.460938 C 398.878906 194.921875 399.136719 195.390625 399.386719 195.855469 C 399.554688 196.152344 399.714844 196.453125 399.875 196.753906 C 400.15625 197.28125 400.429688 197.804688 400.703125 198.335938 C 401.144531 199.191406 401.578125 200.054688 402.011719 200.929688 C 403.101562 203.152344 404.144531 205.421875 405.128906 207.730469 C 405.324219 208.1875 405.519531 208.648438 405.710938 209.109375 C 406.097656 210.039062 406.472656 210.96875 406.835938 211.90625 C 407.019531 212.371094 407.199219 212.84375 407.382812 213.316406 C 407.46875 213.550781 407.558594 213.785156 407.648438 214.023438 C 407.914062 214.730469 408.175781 215.441406 408.425781 216.160156 C 408.550781 216.503906 408.671875 216.84375 408.785156 217.183594 C 408.976562 217.730469 409.164062 218.285156 409.347656 218.835938 C 409.535156 219.386719 409.714844 219.941406 409.894531 220.496094 C 409.984375 220.769531 410.070312 221.039062 410.15625 221.308594 C 410.53125 222.5 410.894531 223.703125 411.246094 224.914062 C 411.335938 225.238281 411.433594 225.566406 411.523438 225.890625 C 411.628906 226.257812 411.726562 226.625 411.828125 226.992188 C 411.96875 227.503906 412.109375 228.015625 412.238281 228.527344 C 412.375 229.039062 412.511719 229.554688 412.636719 230.066406 C 413.277344 232.617188 413.859375 235.203125 414.371094 237.816406 C 414.421875 238.074219 414.472656 238.328125 414.523438 238.589844 C 414.628906 239.121094 414.730469 239.652344 414.824219 240.191406 C 414.886719 240.515625 414.945312 240.847656 415 241.179688 C 415.199219 242.324219 415.390625 243.476562 415.566406 244.628906 C 415.65625 245.222656 415.746094 245.832031 415.832031 246.4375 C 415.90625 246.972656 415.976562 247.496094 416.046875 248.03125 C 416.117188 248.5625 416.183594 249.09375 416.25 249.625 C 416.320312 250.214844 416.390625 250.800781 416.449219 251.386719 C 416.503906 251.871094 416.554688 252.355469 416.605469 252.839844 C 416.664062 253.441406 416.726562 254.046875 416.777344 254.660156 C 416.8125 255.03125 416.839844 255.402344 416.871094 255.777344 C 417.011719 257.449219 417.121094 259.132812 417.207031 260.824219 C 417.238281 261.371094 417.261719 261.921875 417.28125 262.46875 C 417.308594 263.070312 417.332031 263.671875 417.347656 264.269531 Z M 417.347656 264.269531 " style=" stroke:none;fill-rule:nonzero;fill:rgb(65.098039%,22.352941%,7.843137%);fill-opacity:1;" />
<path d="M 417.347656 264.269531 C 402.609375 270.746094 397.359375 284.835938 374.535156 284.835938 C 344.894531 284.835938 344.894531 261.078125 315.253906 261.078125 C 285.636719 261.078125 285.628906 284.828125 256 284.835938 L 256 156.394531 C 272.046875 144.40625 290.851562 137.5 310.960938 137.5 C 311.492188 137.5 312.023438 137.503906 312.554688 137.515625 C 312.941406 137.519531 313.324219 137.53125 313.710938 137.546875 C 314.578125 137.570312 315.445312 137.609375 316.3125 137.664062 C 316.757812 137.691406 317.195312 137.71875 317.640625 137.753906 C 317.871094 137.769531 318.097656 137.789062 318.320312 137.808594 C 318.597656 137.828125 318.875 137.855469 319.148438 137.886719 C 319.601562 137.925781 320.054688 137.96875 320.5 138.019531 C 321.394531 138.121094 322.28125 138.230469 323.171875 138.355469 C 323.191406 138.355469 323.210938 138.363281 323.230469 138.363281 C 323.660156 138.425781 324.089844 138.488281 324.519531 138.558594 C 324.960938 138.628906 325.40625 138.699219 325.851562 138.777344 C 326.171875 138.835938 326.488281 138.890625 326.808594 138.949219 C 327.148438 139.011719 327.492188 139.074219 327.828125 139.144531 C 327.960938 139.171875 328.101562 139.199219 328.242188 139.226562 C 328.625 139.304688 329.007812 139.382812 329.382812 139.46875 C 329.730469 139.535156 330.074219 139.617188 330.417969 139.699219 C 330.925781 139.8125 331.429688 139.933594 331.9375 140.058594 C 332.277344 140.140625 332.621094 140.226562 332.957031 140.316406 C 333.277344 140.398438 333.59375 140.480469 333.914062 140.570312 C 334.214844 140.652344 334.511719 140.730469 334.8125 140.816406 C 335.183594 140.921875 335.554688 141.03125 335.925781 141.144531 C 336.277344 141.246094 336.628906 141.355469 336.980469 141.464844 C 337.398438 141.59375 337.8125 141.726562 338.226562 141.859375 C 338.582031 141.976562 338.933594 142.097656 339.289062 142.214844 C 339.820312 142.398438 340.347656 142.582031 340.875 142.773438 C 341.183594 142.882812 341.488281 142.992188 341.789062 143.109375 C 342.09375 143.21875 342.402344 143.335938 342.703125 143.453125 C 343.09375 143.605469 343.480469 143.757812 343.867188 143.910156 C 344.175781 144.035156 344.492188 144.164062 344.804688 144.296875 C 345.085938 144.414062 345.371094 144.535156 345.652344 144.648438 C 346.027344 144.808594 346.40625 144.976562 346.777344 145.140625 C 347.078125 145.269531 347.375 145.40625 347.675781 145.542969 C 348.40625 145.867188 349.136719 146.226562 349.777344 146.535156 C 350.875 147.054688 351.953125 147.605469 353.023438 148.179688 C 353.300781 148.328125 353.574219 148.472656 353.851562 148.628906 C 354.355469 148.902344 354.855469 149.179688 355.359375 149.464844 C 355.625 149.617188 355.890625 149.765625 356.152344 149.921875 C 357.371094 150.632812 358.574219 151.363281 359.769531 152.132812 C 360.421875 152.542969 361.066406 152.96875 361.707031 153.394531 C 363.96875 154.921875 366.183594 156.539062 368.34375 158.253906 C 368.703125 158.539062 369.058594 158.824219 369.414062 159.117188 C 370.496094 159.996094 371.5625 160.898438 372.613281 161.820312 C 372.953125 162.121094 373.289062 162.425781 373.628906 162.730469 C 374.320312 163.351562 375.003906 163.984375 375.679688 164.628906 C 376.015625 164.949219 376.351562 165.269531 376.6875 165.597656 C 377.023438 165.921875 377.355469 166.253906 377.6875 166.578125 C 378.023438 166.910156 378.351562 167.246094 378.683594 167.585938 C 379.019531 167.925781 379.347656 168.273438 379.675781 168.617188 C 379.992188 168.945312 380.308594 169.273438 380.613281 169.605469 C 380.632812 169.628906 380.648438 169.648438 380.667969 169.660156 C 380.949219 169.96875 381.230469 170.273438 381.515625 170.578125 C 381.578125 170.648438 381.640625 170.722656 381.699219 170.785156 C 381.984375 171.097656 382.265625 171.40625 382.539062 171.722656 C 382.765625 171.976562 382.988281 172.226562 383.210938 172.476562 C 383.445312 172.742188 383.675781 173.015625 383.90625 173.285156 C 384.132812 173.539062 384.355469 173.800781 384.570312 174.0625 C 384.824219 174.363281 385.082031 174.671875 385.332031 174.976562 C 385.636719 175.339844 385.933594 175.707031 386.230469 176.074219 C 386.761719 176.726562 387.292969 177.382812 387.800781 178.054688 C 388.15625 178.523438 388.539062 179.011719 388.902344 179.496094 C 390.066406 181.042969 391.195312 182.617188 392.292969 184.230469 C 392.496094 184.515625 392.691406 184.8125 392.886719 185.101562 C 393.105469 185.425781 393.316406 185.75 393.53125 186.070312 C 393.738281 186.382812 393.945312 186.699219 394.144531 187.015625 C 394.339844 187.3125 394.53125 187.605469 394.71875 187.90625 C 394.984375 188.320312 395.242188 188.734375 395.5 189.15625 C 396.082031 190.097656 396.652344 191.046875 397.214844 192.003906 C 397.445312 192.398438 397.679688 192.796875 397.902344 193.191406 C 398.144531 193.613281 398.386719 194.035156 398.621094 194.464844 C 399.335938 195.738281 400.03125 197.027344 400.703125 198.335938 C 401.144531 199.195312 401.582031 200.058594 402.015625 200.933594 C 402.507812 201.9375 402.988281 202.949219 403.460938 203.972656 C 403.820312 204.75 404.175781 205.535156 404.523438 206.320312 C 404.730469 206.792969 404.929688 207.261719 405.128906 207.730469 C 405.324219 208.1875 405.519531 208.648438 405.710938 209.113281 C 406.097656 210.039062 406.476562 210.96875 406.835938 211.90625 C 407.023438 212.375 407.203125 212.84375 407.382812 213.316406 C 407.558594 213.789062 407.738281 214.261719 407.910156 214.730469 C 408.085938 215.203125 408.257812 215.679688 408.425781 216.160156 C 408.550781 216.503906 408.671875 216.84375 408.789062 217.1875 C 409.167969 218.28125 409.539062 219.382812 409.898438 220.496094 C 410.015625 220.863281 410.132812 221.226562 410.246094 221.59375 C 410.4375 222.203125 410.625 222.816406 410.808594 223.433594 C 410.960938 223.925781 411.101562 224.417969 411.246094 224.914062 C 411.363281 225.324219 411.484375 225.738281 411.597656 226.148438 C 412.125 228.027344 412.617188 229.921875 413.070312 231.839844 C 413.160156 232.195312 413.246094 232.558594 413.324219 232.914062 C 413.40625 233.261719 413.484375 233.613281 413.5625 233.964844 C 413.675781 234.476562 413.792969 234.988281 413.898438 235.5 C 414.007812 236.011719 414.117188 236.523438 414.21875 237.039062 C 414.324219 237.558594 414.429688 238.074219 414.523438 238.589844 C 414.613281 239.039062 414.695312 239.484375 414.78125 239.929688 C 415.097656 241.652344 415.382812 243.390625 415.644531 245.136719 C 415.707031 245.566406 415.773438 246.003906 415.835938 246.441406 C 415.910156 246.972656 415.980469 247.5 416.050781 248.03125 C 416.121094 248.5625 416.183594 249.09375 416.25 249.628906 C 416.320312 250.214844 416.390625 250.800781 416.453125 251.390625 C 416.507812 251.871094 416.558594 252.359375 416.605469 252.839844 C 416.761719 254.363281 416.894531 255.90625 417.003906 257.445312 C 417.042969 258.003906 417.078125 258.554688 417.113281 259.113281 C 417.214844 260.824219 417.296875 262.542969 417.347656 264.269531 Z M 417.347656 264.269531 " style=" stroke:none;fill-rule:nonzero;fill:rgb(47.843137%,17.647059%,10.196078%);fill-opacity:1;" />
</g>
</svg>