<svg xmlns="http://www.w3.org/2000/svg" height="512pt" version="1.1" viewBox="0 0 512 512" width="512pt">
<g id="surface1">
<path d="M 512 256 C 512 397.386719 397.386719 512 256 512 C 114.613281 512 0 397.386719 0 256 C 0 114.613281 114.613281 0 256 0 C 397.386719 0 512 114.613281 512 256 Z M 512 256 " style=" stroke:none;fill-rule:nonzero;fill:rgb(40.784314%,98.823529%,87.45098%);fill-opacity:1;" />
<path d="M 512 256 C 512 282.050781 508.109375 307.191406 500.871094 330.871094 C 468.859375 435.71875 371.328125 512 256 512 C 151.441406 512 61.511719 449.300781 21.769531 359.449219 C 7.769531 327.820312 0 292.820312 0 256 C 0 209.78125 12.25 166.429688 33.679688 129 C 77.800781 206.070312 160.839844 258 256 258 C 351.160156 258 434.210938 206.070312 478.320312 129 C 499.75 166.429688 512 209.78125 512 256 Z M 512 256 " style=" stroke:none;fill-rule:nonzero;fill:rgb(6.27451%,88.627451%,76.862745%);fill-opacity:1;" />
<path d="M 30.742188 377.703125 C 37.898438 390.921875 46.171875 403.441406 55.460938 415.128906 C 102.359375 474.148438 174.761719 512 256 512 C 337.238281 512 409.640625 474.148438 456.539062 415.128906 C 465.828125 403.441406 474.101562 390.921875 481.257812 377.703125 Z M 30.742188 377.703125 " style=" stroke:none;fill-rule:nonzero;fill:rgb(10.196078%,72.941176%,62.352941%);fill-opacity:1;" />
<path d="M 425.46875 447.871094 C 380.328125 487.78125 320.988281 512 256 512 C 191.011719 512 131.671875 487.78125 86.53125 447.871094 Z M 425.46875 447.871094 " style=" stroke:none;fill-rule:nonzero;fill:rgb(27.843137%,30.980392%,43.529412%);fill-opacity:1;" />
<path d="M 463.285156 357.679688 L 422.9375 448.90625 L 89.28125 448.90625 L 48.933594 357.679688 Z M 463.285156 357.679688 " style=" stroke:none;fill-rule:nonzero;fill:rgb(100%,91.372549%,33.333333%);fill-opacity:1;" />
<path d="M 463.285156 357.679688 L 422.9375 448.90625 L 182.0625 448.90625 L 141.714844 357.679688 Z M 463.285156 357.679688 " style=" stroke:none;fill-rule:nonzero;fill:rgb(100%,81.960784%,7.058824%);fill-opacity:1;" />
<path d="M 463.285156 357.679688 L 422.9375 448.90625 L 256.109375 448.90625 L 256.109375 357.679688 Z M 463.285156 357.679688 " style=" stroke:none;fill-rule:nonzero;fill:rgb(100%,62.352941%,0%);fill-opacity:1;" />
<path d="M 478.574219 351.96875 L 33.644531 351.96875 L 66.425781 276.550781 C 70.261719 267.71875 78.980469 262.003906 88.617188 262.003906 L 423.601562 262.003906 C 433.238281 262.003906 441.957031 267.714844 445.792969 276.550781 Z M 478.574219 351.96875 " style=" stroke:none;fill-rule:nonzero;fill:rgb(100%,65.882353%,47.843137%);fill-opacity:1;" />
<path d="M 478.574219 351.96875 L 132.65625 351.96875 L 165.4375 276.550781 C 169.273438 267.71875 177.992188 262.003906 187.628906 262.003906 L 423.601562 262.003906 C 433.238281 262.003906 441.957031 267.714844 445.792969 276.550781 Z M 478.574219 351.96875 " style=" stroke:none;fill-rule:nonzero;fill:rgb(91.764706%,50.980392%,30.588235%);fill-opacity:1;" />
<path d="M 478.574219 351.96875 L 256.109375 351.96875 L 256.109375 262.003906 L 423.601562 262.003906 C 433.238281 262.003906 441.957031 267.714844 445.792969 276.550781 Z M 478.574219 351.96875 " style=" stroke:none;fill-rule:nonzero;fill:rgb(77.254902%,34.509804%,20.784314%);fill-opacity:1;" />
<path d="M 498.488281 338.261719 L 498.488281 338.269531 C 491.410156 359.160156 481.699219 378.828125 469.761719 396.910156 C 469.578125 396.921875 469.390625 396.929688 469.210938 396.941406 C 468.820312 396.949219 468.429688 396.960938 468.03125 396.960938 C 460.820312 396.960938 454.089844 394.910156 448.390625 391.359375 C 444.078125 388.671875 440.351562 385.128906 437.449219 380.96875 C 430.730469 390.628906 419.539062 396.960938 406.878906 396.960938 C 406.480469 396.960938 406.089844 396.949219 405.699219 396.941406 C 405.230469 396.929688 404.769531 396.898438 404.308594 396.859375 C 403.988281 396.839844 403.679688 396.820312 403.359375 396.789062 C 403.171875 396.78125 402.980469 396.761719 402.78125 396.730469 C 402.589844 396.710938 402.398438 396.679688 402.210938 396.660156 C 402.019531 396.640625 401.839844 396.621094 401.660156 396.589844 C 401.558594 396.578125 401.46875 396.570312 401.378906 396.550781 C 401.28125 396.539062 401.191406 396.519531 401.101562 396.5 C 400.941406 396.480469 400.769531 396.460938 400.601562 396.429688 C 400.441406 396.398438 400.269531 396.378906 400.109375 396.339844 C 399.660156 396.261719 399.199219 396.171875 398.761719 396.058594 C 398.539062 396.019531 398.328125 395.96875 398.121094 395.921875 C 397.859375 395.859375 397.609375 395.789062 397.351562 395.71875 C 396.769531 395.558594 396.191406 395.410156 395.621094 395.21875 C 395.289062 395.121094 394.96875 395.011719 394.648438 394.898438 C 393.878906 394.640625 393.128906 394.339844 392.378906 394.03125 C 392.171875 393.941406 391.960938 393.851562 391.75 393.75 C 391.480469 393.628906 391.199219 393.5 390.929688 393.371094 C 390.621094 393.21875 390.328125 393.078125 390.03125 392.929688 C 389.230469 392.53125 388.449219 392.089844 387.691406 391.628906 C 387.308594 391.398438 386.941406 391.171875 386.570312 390.929688 C 386.429688 390.839844 386.289062 390.75 386.148438 390.660156 C 386.070312 390.601562 385.980469 390.539062 385.898438 390.488281 C 385.609375 390.289062 385.320312 390.089844 385.039062 389.878906 C 384.699219 389.628906 384.359375 389.371094 384.019531 389.109375 C 383.378906 388.609375 382.75 388.078125 382.140625 387.539062 L 382.128906 387.539062 C 381.921875 387.351562 381.71875 387.171875 381.519531 386.96875 C 381.378906 386.859375 381.261719 386.730469 381.128906 386.601562 C 380.890625 386.378906 380.660156 386.148438 380.421875 385.910156 C 380.070312 385.558594 379.730469 385.210938 379.398438 384.839844 C 379.390625 384.839844 379.390625 384.828125 379.378906 384.820312 C 379.050781 384.460938 378.730469 384.089844 378.410156 383.710938 C 378.269531 383.550781 378.140625 383.390625 378.011719 383.230469 C 377.859375 383.050781 377.710938 382.871094 377.578125 382.691406 C 377.488281 382.589844 377.410156 382.488281 377.339844 382.378906 C 377.269531 382.289062 377.199219 382.210938 377.140625 382.121094 L 376.71875 381.550781 C 376.570312 381.359375 376.441406 381.160156 376.300781 380.96875 C 369.578125 390.628906 358.390625 396.960938 345.730469 396.960938 C 333.058594 396.960938 321.878906 390.628906 315.148438 380.96875 C 308.421875 390.628906 297.238281 396.960938 284.578125 396.960938 C 284.058594 396.960938 283.550781 396.949219 283.039062 396.921875 C 282.761719 396.910156 282.488281 396.898438 282.210938 396.878906 C 281.820312 396.859375 281.441406 396.820312 281.050781 396.789062 C 280.46875 396.738281 279.890625 396.671875 279.320312 396.589844 C 279.148438 396.558594 278.96875 396.53125 278.800781 396.5 C 278.699219 396.488281 278.601562 396.480469 278.511719 396.460938 C 278.441406 396.449219 278.371094 396.441406 278.300781 396.429688 C 278.210938 396.421875 278.121094 396.398438 278.039062 396.390625 C 277.921875 396.359375 277.808594 396.339844 277.691406 396.320312 C 277.171875 396.230469 276.660156 396.121094 276.148438 396 C 275.78125 395.910156 275.410156 395.820312 275.039062 395.71875 C 274.75 395.640625 274.460938 395.570312 274.171875 395.480469 C 273.558594 395.308594 272.949219 395.109375 272.351562 394.898438 C 272.039062 394.789062 271.71875 394.671875 271.410156 394.550781 C 271.25 394.5 271.089844 394.441406 270.929688 394.371094 C 268.578125 393.449219 266.351562 392.289062 264.269531 390.929688 C 264.078125 390.808594 263.890625 390.679688 263.699219 390.558594 C 263.609375 390.5 263.53125 390.441406 263.441406 390.371094 C 262.890625 389.988281 262.359375 389.601562 261.828125 389.199219 C 260.921875 388.488281 260.039062 387.738281 259.191406 386.941406 C 259.101562 386.859375 259 386.78125 258.910156 386.679688 C 257.929688 385.75 256.988281 384.75 256.109375 383.710938 C 255.828125 383.398438 255.570312 383.070312 255.320312 382.738281 C 255.289062 382.710938 255.25 382.671875 255.238281 382.640625 C 255.101562 382.46875 254.96875 382.300781 254.828125 382.121094 C 254.550781 381.738281 254.269531 381.359375 254 380.96875 C 247.269531 390.628906 236.089844 396.960938 223.421875 396.960938 C 210.761719 396.960938 199.578125 390.628906 192.851562 380.96875 C 186.121094 390.628906 174.941406 396.960938 162.269531 396.960938 C 161.871094 396.960938 161.480469 396.949219 161.089844 396.941406 C 160.660156 396.921875 160.238281 396.898438 159.808594 396.871094 C 159.539062 396.859375 159.28125 396.839844 159.019531 396.820312 C 158.929688 396.808594 158.839844 396.800781 158.75 396.789062 C 158.019531 396.71875 157.308594 396.640625 156.601562 396.519531 C 155.988281 396.429688 155.378906 396.320312 154.769531 396.199219 C 154.460938 396.128906 154.148438 396.070312 153.859375 396 C 152.128906 395.609375 150.441406 395.078125 148.808594 394.449219 C 148.460938 394.308594 148.109375 394.171875 147.78125 394.03125 C 145.351562 393 143.058594 391.738281 140.941406 390.238281 C 140.371094 389.851562 139.828125 389.441406 139.28125 389.011719 C 138.96875 388.769531 138.671875 388.519531 138.371094 388.269531 C 138.089844 388.03125 137.808594 387.789062 137.539062 387.539062 C 137.261719 387.300781 136.988281 387.058594 136.730469 386.800781 C 136.671875 386.761719 136.621094 386.71875 136.578125 386.671875 C 136.359375 386.460938 136.148438 386.238281 135.941406 386.03125 C 135.660156 385.769531 135.410156 385.511719 135.171875 385.238281 C 134.910156 384.980469 134.671875 384.699219 134.429688 384.429688 C 134.191406 384.171875 133.949219 383.898438 133.71875 383.628906 C 133.480469 383.339844 133.238281 383.050781 133.019531 382.738281 C 132.78125 382.460938 132.558594 382.160156 132.339844 381.871094 C 132.121094 381.570312 131.910156 381.28125 131.699219 380.96875 C 124.96875 390.628906 113.78125 396.960938 101.121094 396.960938 C 88.460938 396.960938 77.269531 390.628906 70.550781 380.96875 C 68.398438 384.050781 65.789062 386.800781 62.828125 389.109375 C 57.078125 393.589844 49.96875 396.429688 42.230469 396.890625 C 29.621094 377.800781 19.5 356.929688 12.328125 334.730469 L 12.328125 334.71875 C 19.148438 327.191406 29.011719 322.449219 39.96875 322.449219 C 42.109375 322.449219 44.199219 322.628906 46.238281 322.980469 C 56.28125 324.679688 64.960938 330.398438 70.550781 338.429688 C 77.269531 328.769531 88.460938 322.449219 101.121094 322.449219 C 113.78125 322.449219 124.96875 328.769531 131.699219 338.429688 C 131.910156 338.121094 132.121094 337.828125 132.339844 337.53125 C 132.359375 337.488281 132.390625 337.449219 132.421875 337.421875 C 132.609375 337.171875 132.820312 336.910156 133.019531 336.660156 C 133.238281 336.359375 133.480469 336.070312 133.71875 335.769531 C 133.949219 335.5 134.191406 335.238281 134.429688 334.96875 C 134.671875 334.699219 134.910156 334.421875 135.171875 334.160156 C 135.410156 333.890625 135.660156 333.621094 135.941406 333.371094 C 136.148438 333.160156 136.359375 332.949219 136.578125 332.738281 C 136.621094 332.679688 136.671875 332.640625 136.730469 332.601562 C 136.988281 332.351562 137.261719 332.101562 137.539062 331.859375 C 138.089844 331.371094 138.648438 330.898438 139.21875 330.441406 C 139.789062 329.980469 140.378906 329.539062 140.988281 329.128906 C 141.289062 328.921875 141.601562 328.71875 141.898438 328.511719 C 142.328125 328.230469 142.769531 327.949219 143.210938 327.691406 C 144.351562 327.011719 145.539062 326.390625 146.75 325.828125 C 147.429688 325.53125 148.109375 325.230469 148.808594 324.960938 C 149.160156 324.828125 149.511719 324.691406 149.851562 324.570312 C 150.921875 324.199219 151.988281 323.859375 153.101562 323.589844 C 153.460938 323.5 153.820312 323.410156 154.179688 323.328125 C 154.980469 323.148438 155.78125 323.011719 156.601562 322.878906 C 157.308594 322.761719 158.019531 322.679688 158.75 322.621094 C 159.101562 322.570312 159.449219 322.550781 159.808594 322.53125 C 160.238281 322.5 160.660156 322.480469 161.089844 322.46875 C 161.480469 322.460938 161.871094 322.449219 162.269531 322.449219 C 174.941406 322.449219 186.121094 328.769531 192.851562 338.429688 C 199.578125 328.769531 210.761719 322.449219 223.421875 322.449219 C 236.089844 322.449219 247.269531 328.769531 254 338.429688 C 254.269531 338.039062 254.550781 337.660156 254.828125 337.28125 C 254.96875 337.101562 255.101562 336.929688 255.238281 336.761719 C 255.25 336.730469 255.289062 336.691406 255.320312 336.660156 C 255.570312 336.328125 255.828125 336.011719 256.109375 335.691406 C 256.371094 335.378906 256.628906 335.078125 256.890625 334.789062 C 257.03125 334.640625 257.160156 334.5 257.300781 334.359375 C 257.808594 333.789062 258.359375 333.238281 258.910156 332.71875 C 259 332.621094 259.101562 332.539062 259.191406 332.460938 C 259.429688 332.230469 259.660156 332.019531 259.898438 331.808594 C 260.160156 331.589844 260.410156 331.359375 260.671875 331.140625 C 260.808594 331.019531 260.949219 330.910156 261.089844 330.789062 C 261.5 330.460938 261.910156 330.140625 262.328125 329.828125 C 262.429688 329.75 262.53125 329.679688 262.628906 329.609375 C 263.101562 329.261719 263.589844 328.921875 264.078125 328.589844 C 264.148438 328.550781 264.210938 328.519531 264.269531 328.480469 C 264.441406 328.371094 264.601562 328.261719 264.769531 328.160156 C 265.058594 327.96875 265.351562 327.789062 265.648438 327.621094 C 266.039062 327.378906 266.429688 327.160156 266.839844 326.941406 C 267.078125 326.808594 267.320312 326.679688 267.558594 326.558594 C 267.71875 326.480469 267.878906 326.398438 268.050781 326.320312 C 268.359375 326.160156 268.679688 326.011719 268.988281 325.859375 C 270.089844 325.351562 271.210938 324.898438 272.351562 324.5 C 272.671875 324.398438 273 324.289062 273.320312 324.191406 C 273.5 324.128906 273.679688 324.070312 273.859375 324.019531 C 274.328125 323.878906 274.800781 323.738281 275.28125 323.621094 C 275.609375 323.539062 275.941406 323.460938 276.269531 323.378906 C 276.539062 323.320312 276.820312 323.261719 277.101562 323.199219 C 277.160156 323.179688 277.21875 323.171875 277.28125 323.160156 C 277.5 323.121094 277.71875 323.078125 277.941406 323.050781 C 277.988281 323.03125 278.039062 323.019531 278.089844 323.019531 C 278.320312 322.96875 278.558594 322.929688 278.800781 322.898438 C 278.96875 322.871094 279.148438 322.839844 279.320312 322.820312 C 279.519531 322.789062 279.710938 322.761719 279.898438 322.738281 C 280.019531 322.71875 280.140625 322.710938 280.261719 322.699219 C 280.519531 322.671875 280.78125 322.640625 281.050781 322.621094 C 281.328125 322.589844 281.621094 322.570312 281.898438 322.550781 C 282.089844 322.53125 282.269531 322.519531 282.449219 322.511719 C 283.160156 322.46875 283.871094 322.449219 284.578125 322.449219 C 297.238281 322.449219 308.421875 328.769531 315.148438 338.429688 C 321.878906 328.769531 333.058594 322.449219 345.730469 322.449219 C 358.390625 322.449219 369.578125 328.769531 376.300781 338.429688 C 376.441406 338.238281 376.570312 338.039062 376.71875 337.851562 L 377.140625 337.28125 C 377.199219 337.191406 377.269531 337.109375 377.339844 337.019531 C 377.410156 336.910156 377.488281 336.808594 377.578125 336.710938 C 377.710938 336.53125 377.859375 336.351562 378.011719 336.171875 C 378.140625 336.011719 378.269531 335.851562 378.410156 335.691406 C 378.730469 335.308594 379.050781 334.941406 379.378906 334.578125 C 379.390625 334.570312 379.390625 334.558594 379.398438 334.558594 C 379.699219 334.230469 380.011719 333.898438 380.328125 333.589844 C 380.640625 333.269531 380.960938 332.960938 381.289062 332.648438 C 381.371094 332.570312 381.441406 332.5 381.519531 332.429688 C 381.71875 332.230469 381.921875 332.050781 382.128906 331.859375 C 382.550781 331.488281 382.96875 331.128906 383.398438 330.789062 C 383.539062 330.671875 383.679688 330.558594 383.828125 330.449219 C 384.179688 330.171875 384.539062 329.898438 384.898438 329.628906 C 385.21875 329.390625 385.550781 329.148438 385.890625 328.921875 C 386.121094 328.769531 386.339844 328.621094 386.570312 328.480469 C 387.011719 328.199219 387.449219 327.921875 387.890625 327.660156 C 388.371094 327.359375 388.871094 327.078125 389.371094 326.820312 C 389.601562 326.691406 389.839844 326.570312 390.078125 326.460938 C 390.320312 326.328125 390.570312 326.210938 390.820312 326.089844 C 392 325.519531 393.21875 325.011719 394.46875 324.570312 C 394.710938 324.480469 394.960938 324.398438 395.210938 324.320312 C 396.03125 324.050781 396.859375 323.800781 397.710938 323.589844 C 398.320312 323.421875 398.941406 323.289062 399.578125 323.160156 C 399.699219 323.140625 399.820312 323.121094 399.929688 323.101562 C 400.089844 323.070312 400.238281 323.039062 400.398438 323.019531 C 400.589844 322.980469 400.78125 322.949219 400.980469 322.921875 C 401.089844 322.898438 401.199219 322.878906 401.308594 322.871094 C 401.609375 322.820312 401.910156 322.78125 402.210938 322.738281 C 402.589844 322.691406 402.980469 322.648438 403.359375 322.621094 C 403.75 322.578125 404.128906 322.550781 404.519531 322.519531 C 405.300781 322.46875 406.089844 322.449219 406.878906 322.449219 C 419.539062 322.449219 430.730469 328.769531 437.449219 338.429688 C 443.78125 329.351562 454.050781 323.21875 465.769531 322.519531 C 466.519531 322.46875 467.269531 322.449219 468.03125 322.449219 C 468.429688 322.449219 468.820312 322.460938 469.210938 322.46875 C 469.640625 322.480469 470.070312 322.5 470.5 322.53125 C 470.789062 322.550781 471.089844 322.570312 471.378906 322.601562 C 471.441406 322.601562 471.488281 322.609375 471.550781 322.621094 C 471.839844 322.640625 472.128906 322.671875 472.421875 322.710938 C 472.851562 322.761719 473.28125 322.808594 473.699219 322.878906 C 474.109375 322.941406 474.519531 323.011719 474.929688 323.089844 C 475.691406 323.230469 476.449219 323.398438 477.199219 323.589844 C 478.25 323.851562 479.289062 324.160156 480.300781 324.519531 C 480.699219 324.660156 481.089844 324.800781 481.488281 324.960938 C 481.839844 325.101562 482.179688 325.238281 482.53125 325.378906 C 482.871094 325.519531 483.210938 325.671875 483.550781 325.828125 C 483.921875 326 484.289062 326.171875 484.648438 326.359375 C 485.941406 327 487.191406 327.71875 488.398438 328.511719 C 488.679688 328.710938 488.96875 328.890625 489.261719 329.089844 C 489.621094 329.339844 489.96875 329.589844 490.320312 329.851562 C 490.578125 330.050781 490.828125 330.238281 491.078125 330.441406 C 491.300781 330.609375 491.519531 330.78125 491.730469 330.960938 L 491.769531 331 C 491.859375 331.070312 491.960938 331.148438 492.058594 331.230469 C 492.300781 331.441406 492.53125 331.648438 492.761719 331.859375 C 493.039062 332.101562 493.308594 332.351562 493.578125 332.601562 C 493.628906 332.640625 493.679688 332.691406 493.730469 332.738281 C 493.949219 332.949219 494.160156 333.160156 494.371094 333.371094 C 494.769531 333.761719 495.148438 334.160156 495.511719 334.558594 C 495.628906 334.699219 495.75 334.839844 495.871094 334.96875 C 495.910156 335.011719 495.941406 335.039062 495.980469 335.078125 C 496.128906 335.25 496.28125 335.421875 496.429688 335.601562 C 496.609375 335.808594 496.78125 336.011719 496.941406 336.21875 C 497.058594 336.359375 497.179688 336.511719 497.289062 336.660156 C 497.488281 336.910156 497.679688 337.160156 497.878906 337.410156 C 497.910156 337.460938 497.941406 337.488281 497.960938 337.53125 C 498.140625 337.78125 498.320312 338.011719 498.488281 338.261719 Z M 498.488281 338.261719 " style=" stroke:none;fill-rule:nonzero;fill:rgb(100%,75.294118%,64.313725%);fill-opacity:1;" />
<path d="M 497.960938 337.53125 C 498.140625 337.78125 498.320312 338.019531 498.488281 338.269531 C 491.410156 359.160156 481.699219 378.828125 469.761719 396.910156 C 469.578125 396.921875 469.390625 396.929688 469.210938 396.941406 C 468.820312 396.949219 468.429688 396.960938 468.03125 396.960938 C 460.820312 396.960938 454.089844 394.910156 448.390625 391.359375 C 444.078125 388.671875 440.351562 385.128906 437.449219 380.96875 C 430.730469 390.628906 419.539062 396.960938 406.878906 396.960938 C 406.480469 396.960938 406.089844 396.949219 405.699219 396.941406 C 404.910156 396.910156 404.140625 396.859375 403.359375 396.789062 C 403.171875 396.78125 402.980469 396.761719 402.78125 396.730469 C 402.589844 396.710938 402.398438 396.679688 402.210938 396.660156 C 402.019531 396.640625 401.839844 396.621094 401.660156 396.589844 C 401.46875 396.558594 401.28125 396.539062 401.101562 396.5 C 400.941406 396.480469 400.769531 396.460938 400.601562 396.429688 C 400.511719 396.421875 400.429688 396.398438 400.339844 396.390625 C 400.261719 396.371094 400.191406 396.359375 400.109375 396.339844 C 399.660156 396.261719 399.199219 396.171875 398.761719 396.058594 C 398.539062 396.019531 398.328125 395.96875 398.121094 395.921875 C 397.859375 395.859375 397.609375 395.789062 397.351562 395.71875 C 396.769531 395.558594 396.191406 395.410156 395.621094 395.21875 C 395.289062 395.121094 394.96875 395.011719 394.648438 394.898438 C 394.339844 394.789062 394.019531 394.671875 393.710938 394.550781 C 393.390625 394.441406 393.078125 394.308594 392.769531 394.179688 C 392.640625 394.128906 392.511719 394.078125 392.378906 394.03125 C 392.171875 393.941406 391.960938 393.851562 391.75 393.75 C 391.480469 393.628906 391.199219 393.5 390.929688 393.371094 C 390.621094 393.21875 390.328125 393.078125 390.03125 392.929688 C 389.230469 392.53125 388.449219 392.089844 387.691406 391.628906 C 387.308594 391.398438 386.941406 391.171875 386.570312 390.929688 C 386.429688 390.839844 386.289062 390.75 386.148438 390.660156 C 386.070312 390.601562 385.980469 390.539062 385.898438 390.488281 C 385.609375 390.289062 385.320312 390.089844 385.039062 389.878906 C 384.699219 389.628906 384.359375 389.371094 384.019531 389.109375 C 383.378906 388.609375 382.75 388.078125 382.140625 387.539062 C 382.140625 387.539062 382.140625 387.550781 382.128906 387.539062 C 381.921875 387.351562 381.71875 387.171875 381.519531 386.96875 C 381.378906 386.859375 381.261719 386.730469 381.128906 386.601562 C 380.890625 386.378906 380.660156 386.148438 380.421875 385.910156 C 380.070312 385.558594 379.730469 385.210938 379.398438 384.839844 C 379.390625 384.839844 379.390625 384.828125 379.378906 384.820312 C 379.050781 384.460938 378.730469 384.089844 378.410156 383.710938 C 378.269531 383.550781 378.140625 383.390625 378.011719 383.230469 C 377.878906 383.070312 377.738281 382.898438 377.621094 382.738281 C 377.601562 382.71875 377.589844 382.710938 377.578125 382.691406 C 377.558594 382.679688 377.558594 382.660156 377.550781 382.640625 C 377.480469 382.558594 377.398438 382.46875 377.339844 382.378906 C 377.269531 382.289062 377.199219 382.210938 377.140625 382.121094 L 376.71875 381.550781 C 376.570312 381.359375 376.441406 381.160156 376.300781 380.96875 C 369.578125 390.628906 358.390625 396.960938 345.730469 396.960938 C 333.058594 396.960938 321.878906 390.628906 315.148438 380.96875 C 308.421875 390.628906 297.238281 396.960938 284.578125 396.960938 C 284.058594 396.960938 283.550781 396.949219 283.039062 396.921875 C 282.761719 396.910156 282.488281 396.898438 282.210938 396.878906 C 281.820312 396.859375 281.441406 396.820312 281.050781 396.789062 C 280.46875 396.738281 279.890625 396.671875 279.320312 396.589844 C 279.148438 396.558594 278.96875 396.53125 278.800781 396.5 C 278.699219 396.488281 278.601562 396.480469 278.511719 396.460938 C 278.441406 396.449219 278.371094 396.441406 278.300781 396.429688 C 278.210938 396.421875 278.121094 396.398438 278.039062 396.390625 C 277.921875 396.359375 277.808594 396.339844 277.691406 396.320312 C 277.171875 396.230469 276.660156 396.121094 276.148438 396 C 275.78125 395.910156 275.410156 395.820312 275.039062 395.71875 C 274.75 395.640625 274.460938 395.570312 274.171875 395.480469 C 273.558594 395.308594 272.949219 395.109375 272.351562 394.898438 C 272.039062 394.789062 271.71875 394.671875 271.410156 394.550781 C 271.25 394.5 271.089844 394.441406 270.929688 394.371094 C 268.578125 393.449219 266.351562 392.289062 264.269531 390.929688 C 264.078125 390.808594 263.890625 390.679688 263.699219 390.558594 C 263.609375 390.5 263.53125 390.441406 263.441406 390.371094 C 262.890625 390 262.359375 389.609375 261.828125 389.199219 C 260.921875 388.488281 260.039062 387.738281 259.191406 386.941406 C 259.101562 386.859375 259 386.78125 258.910156 386.679688 C 257.929688 385.75 256.988281 384.75 256.109375 383.710938 C 255.828125 383.398438 255.570312 383.070312 255.320312 382.738281 C 255.289062 382.710938 255.25 382.671875 255.238281 382.640625 C 255.101562 382.46875 254.96875 382.300781 254.828125 382.121094 C 254.550781 381.738281 254.269531 381.359375 254 380.96875 C 247.269531 390.628906 236.089844 396.960938 223.421875 396.960938 C 210.761719 396.960938 199.578125 390.628906 192.851562 380.96875 C 186.121094 390.628906 174.941406 396.960938 162.269531 396.960938 C 161.871094 396.960938 161.480469 396.949219 161.089844 396.941406 C 160.660156 396.921875 160.238281 396.898438 159.808594 396.871094 C 159.539062 396.859375 159.28125 396.839844 159.019531 396.820312 C 158.929688 396.808594 158.839844 396.800781 158.75 396.789062 C 158.019531 396.71875 157.308594 396.640625 156.601562 396.519531 C 155.988281 396.429688 155.378906 396.320312 154.769531 396.199219 C 154.460938 396.128906 154.148438 396.070312 153.859375 396 C 152.128906 395.609375 150.441406 395.078125 148.808594 394.449219 C 148.460938 394.308594 148.109375 394.171875 147.78125 394.03125 C 145.351562 393 143.058594 391.738281 140.941406 390.238281 C 140.371094 389.851562 139.828125 389.441406 139.28125 389.011719 C 138.96875 388.769531 138.671875 388.519531 138.371094 388.269531 C 138.089844 388.03125 137.808594 387.789062 137.539062 387.539062 C 137.261719 387.300781 136.988281 387.058594 136.730469 386.800781 C 136.671875 386.761719 136.621094 386.71875 136.578125 386.671875 C 136.359375 386.460938 136.148438 386.238281 135.941406 386.03125 C 135.660156 385.769531 135.410156 385.511719 135.171875 385.238281 C 134.910156 384.980469 134.671875 384.699219 134.429688 384.429688 C 134.191406 384.171875 133.949219 383.898438 133.71875 383.628906 C 133.480469 383.339844 133.238281 383.050781 133.019531 382.738281 C 132.78125 382.460938 132.558594 382.160156 132.339844 381.871094 C 132.121094 381.570312 131.910156 381.28125 131.699219 380.96875 C 127.480469 374.941406 125.019531 367.609375 125.019531 359.710938 C 125.019531 359.03125 125.039062 358.351562 125.078125 357.679688 C 125.179688 355.730469 125.429688 353.828125 125.828125 351.96875 C 126.871094 347.019531 128.898438 342.441406 131.699219 338.429688 C 131.910156 338.121094 132.121094 337.828125 132.339844 337.53125 C 132.359375 337.488281 132.390625 337.449219 132.421875 337.421875 C 132.609375 337.171875 132.820312 336.910156 133.019531 336.660156 C 133.238281 336.359375 133.480469 336.070312 133.71875 335.769531 C 133.949219 335.5 134.191406 335.238281 134.429688 334.96875 C 134.671875 334.699219 134.910156 334.421875 135.171875 334.160156 C 135.410156 333.890625 135.660156 333.621094 135.941406 333.371094 C 136.148438 333.160156 136.359375 332.949219 136.578125 332.738281 C 136.621094 332.679688 136.671875 332.640625 136.730469 332.601562 C 136.988281 332.351562 137.261719 332.101562 137.539062 331.859375 C 138.089844 331.371094 138.648438 330.898438 139.21875 330.441406 C 139.789062 329.980469 140.378906 329.539062 140.988281 329.128906 C 141.289062 328.921875 141.601562 328.71875 141.898438 328.511719 C 142.328125 328.230469 142.769531 327.949219 143.210938 327.691406 C 144.351562 327.011719 145.539062 326.390625 146.75 325.828125 C 147.429688 325.53125 148.109375 325.230469 148.808594 324.960938 C 149.160156 324.828125 149.511719 324.691406 149.851562 324.570312 C 150.921875 324.199219 151.988281 323.859375 153.101562 323.589844 C 153.460938 323.5 153.820312 323.410156 154.179688 323.328125 C 154.980469 323.148438 155.78125 323.011719 156.601562 322.878906 C 157.308594 322.761719 158.019531 322.679688 158.75 322.621094 C 159.101562 322.570312 159.449219 322.550781 159.808594 322.53125 C 160.238281 322.5 160.660156 322.480469 161.089844 322.46875 C 161.480469 322.460938 161.871094 322.449219 162.269531 322.449219 C 174.941406 322.449219 186.121094 328.769531 192.851562 338.429688 C 199.578125 328.769531 210.761719 322.449219 223.421875 322.449219 C 236.089844 322.449219 247.269531 328.769531 254 338.429688 C 254.269531 338.039062 254.550781 337.660156 254.828125 337.28125 C 254.96875 337.101562 255.101562 336.929688 255.238281 336.761719 C 255.25 336.730469 255.289062 336.691406 255.320312 336.660156 C 255.570312 336.328125 255.828125 336.011719 256.109375 335.691406 C 256.371094 335.378906 256.628906 335.078125 256.890625 334.789062 C 257.03125 334.640625 257.160156 334.5 257.300781 334.359375 C 257.808594 333.789062 258.359375 333.238281 258.910156 332.71875 C 259 332.621094 259.101562 332.539062 259.191406 332.460938 C 259.429688 332.230469 259.660156 332.019531 259.898438 331.808594 C 260.160156 331.589844 260.410156 331.359375 260.671875 331.140625 C 260.808594 331.019531 260.949219 330.910156 261.089844 330.789062 C 261.238281 330.671875 261.378906 330.558594 261.53125 330.449219 C 261.789062 330.238281 262.058594 330.03125 262.328125 329.828125 C 262.429688 329.75 262.53125 329.679688 262.628906 329.609375 C 263.101562 329.261719 263.589844 328.921875 264.078125 328.589844 C 264.148438 328.550781 264.210938 328.519531 264.269531 328.480469 C 264.71875 328.179688 265.179688 327.890625 265.648438 327.621094 C 266.039062 327.378906 266.429688 327.160156 266.839844 326.941406 C 267.078125 326.808594 267.320312 326.679688 267.558594 326.558594 C 267.71875 326.480469 267.878906 326.398438 268.050781 326.320312 C 268.359375 326.160156 268.679688 326.011719 268.988281 325.859375 C 270.089844 325.351562 271.210938 324.898438 272.351562 324.5 C 272.671875 324.398438 273 324.289062 273.320312 324.191406 C 273.5 324.128906 273.679688 324.070312 273.859375 324.019531 C 274.328125 323.878906 274.800781 323.738281 275.28125 323.621094 C 275.609375 323.539062 275.941406 323.460938 276.269531 323.378906 C 276.601562 323.300781 276.941406 323.230469 277.28125 323.160156 C 277.5 323.121094 277.71875 323.078125 277.941406 323.050781 C 277.988281 323.03125 278.039062 323.019531 278.089844 323.019531 C 278.308594 322.960938 278.550781 322.929688 278.800781 322.898438 C 278.96875 322.871094 279.148438 322.839844 279.320312 322.820312 C 279.519531 322.789062 279.710938 322.761719 279.898438 322.738281 C 280.019531 322.71875 280.140625 322.710938 280.261719 322.699219 C 280.519531 322.671875 280.78125 322.640625 281.050781 322.621094 C 281.328125 322.589844 281.621094 322.570312 281.898438 322.550781 C 282.089844 322.53125 282.269531 322.519531 282.449219 322.511719 C 283.160156 322.46875 283.871094 322.449219 284.578125 322.449219 C 297.238281 322.449219 308.421875 328.769531 315.148438 338.429688 C 321.878906 328.769531 333.058594 322.449219 345.730469 322.449219 C 358.390625 322.449219 369.578125 328.769531 376.300781 338.429688 C 376.441406 338.238281 376.570312 338.039062 376.71875 337.851562 L 377.140625 337.28125 C 377.199219 337.191406 377.269531 337.109375 377.339844 337.019531 C 377.398438 336.929688 377.480469 336.839844 377.550781 336.761719 C 377.558594 336.738281 377.558594 336.71875 377.578125 336.710938 C 377.589844 336.691406 377.601562 336.679688 377.621094 336.660156 C 377.738281 336.5 377.878906 336.328125 378.011719 336.171875 C 378.140625 336.011719 378.269531 335.851562 378.410156 335.691406 C 378.730469 335.308594 379.050781 334.941406 379.378906 334.578125 C 379.390625 334.570312 379.390625 334.558594 379.398438 334.558594 C 379.730469 334.199219 380.070312 333.839844 380.421875 333.5 C 380.660156 333.25 380.890625 333.019531 381.128906 332.800781 C 381.261719 332.671875 381.378906 332.550781 381.519531 332.429688 C 381.71875 332.230469 381.921875 332.050781 382.128906 331.859375 C 382.550781 331.488281 382.96875 331.128906 383.398438 330.789062 C 383.539062 330.671875 383.679688 330.558594 383.828125 330.449219 C 384.179688 330.171875 384.539062 329.898438 384.898438 329.628906 C 385.21875 329.390625 385.550781 329.148438 385.890625 328.921875 C 386.121094 328.769531 386.339844 328.621094 386.570312 328.480469 C 387.011719 328.199219 387.449219 327.921875 387.890625 327.660156 C 388.371094 327.359375 388.871094 327.078125 389.371094 326.820312 C 389.601562 326.691406 389.839844 326.570312 390.078125 326.460938 C 390.171875 326.410156 390.261719 326.359375 390.359375 326.320312 C 390.511719 326.238281 390.660156 326.160156 390.820312 326.089844 C 392 325.519531 393.21875 325.011719 394.46875 324.570312 C 394.710938 324.480469 394.960938 324.398438 395.210938 324.320312 C 396.03125 324.050781 396.859375 323.800781 397.710938 323.589844 C 398.320312 323.421875 398.941406 323.289062 399.578125 323.160156 C 399.699219 323.140625 399.820312 323.121094 399.929688 323.101562 C 400.089844 323.070312 400.238281 323.039062 400.398438 323.019531 C 400.589844 322.980469 400.78125 322.949219 400.980469 322.921875 C 401.089844 322.898438 401.199219 322.878906 401.308594 322.871094 C 401.609375 322.820312 401.910156 322.78125 402.210938 322.738281 C 402.589844 322.691406 402.980469 322.648438 403.359375 322.621094 C 403.75 322.578125 404.128906 322.550781 404.519531 322.519531 C 405.300781 322.46875 406.089844 322.449219 406.878906 322.449219 C 419.539062 322.449219 430.730469 328.769531 437.449219 338.429688 C 443.78125 329.351562 454.050781 323.21875 465.769531 322.519531 C 466.519531 322.46875 467.269531 322.449219 468.03125 322.449219 C 468.429688 322.449219 468.820312 322.460938 469.210938 322.46875 C 469.640625 322.480469 470.070312 322.5 470.5 322.53125 C 470.789062 322.550781 471.089844 322.558594 471.378906 322.601562 C 471.441406 322.601562 471.488281 322.609375 471.550781 322.621094 C 471.839844 322.640625 472.128906 322.671875 472.421875 322.710938 C 472.851562 322.761719 473.28125 322.808594 473.699219 322.878906 C 474.109375 322.941406 474.519531 323.011719 474.929688 323.089844 C 475.691406 323.230469 476.449219 323.398438 477.199219 323.589844 C 478.261719 323.859375 479.289062 324.171875 480.300781 324.519531 C 480.699219 324.660156 481.089844 324.800781 481.488281 324.960938 C 481.839844 325.101562 482.179688 325.238281 482.53125 325.378906 C 482.871094 325.519531 483.210938 325.671875 483.550781 325.828125 C 483.921875 326 484.289062 326.171875 484.648438 326.359375 C 485.941406 327 487.191406 327.71875 488.398438 328.511719 C 488.679688 328.710938 488.96875 328.890625 489.261719 329.089844 C 489.621094 329.339844 489.96875 329.589844 490.320312 329.851562 C 490.578125 330.050781 490.828125 330.238281 491.078125 330.441406 C 491.308594 330.628906 491.539062 330.808594 491.769531 331 C 492.109375 331.28125 492.441406 331.570312 492.761719 331.859375 C 493.039062 332.101562 493.308594 332.351562 493.578125 332.601562 C 493.628906 332.640625 493.679688 332.691406 493.730469 332.738281 C 493.949219 332.960938 494.160156 333.160156 494.371094 333.371094 C 494.769531 333.761719 495.148438 334.160156 495.511719 334.558594 C 495.628906 334.699219 495.75 334.839844 495.871094 334.96875 C 496.070312 335.179688 496.25 335.390625 496.429688 335.601562 C 496.609375 335.808594 496.78125 336.011719 496.941406 336.21875 C 497.058594 336.359375 497.179688 336.511719 497.289062 336.660156 C 497.488281 336.910156 497.679688 337.160156 497.878906 337.410156 C 497.910156 337.460938 497.941406 337.488281 497.960938 337.53125 Z M 497.960938 337.53125 " style=" stroke:none;fill-rule:nonzero;fill:rgb(100%,65.882353%,47.843137%);fill-opacity:1;" />
<path d="M 498.230469 337.898438 C 498.320312 338.019531 498.410156 338.140625 498.488281 338.261719 L 498.488281 338.269531 C 491.410156 359.160156 481.699219 378.828125 469.761719 396.910156 C 469.761719 396.910156 469.761719 396.910156 469.761719 396.921875 C 469.578125 396.929688 469.390625 396.941406 469.210938 396.941406 C 468.820312 396.949219 468.429688 396.960938 468.03125 396.960938 C 460.820312 396.960938 454.089844 394.910156 448.390625 391.359375 C 444.078125 388.671875 440.351562 385.128906 437.449219 380.96875 C 430.730469 390.628906 419.539062 396.960938 406.878906 396.960938 C 406.480469 396.960938 406.089844 396.949219 405.699219 396.941406 C 405.429688 396.929688 405.160156 396.921875 404.890625 396.898438 C 404.828125 396.898438 404.769531 396.898438 404.71875 396.890625 C 404.648438 396.890625 404.589844 396.890625 404.53125 396.878906 C 404.351562 396.871094 404.179688 396.859375 404.011719 396.839844 C 403.859375 396.828125 403.710938 396.808594 403.558594 396.800781 C 403.5 396.800781 403.429688 396.800781 403.359375 396.789062 C 403.171875 396.78125 402.980469 396.761719 402.78125 396.730469 C 402.589844 396.710938 402.398438 396.679688 402.210938 396.660156 C 402.019531 396.640625 401.839844 396.621094 401.660156 396.589844 C 401.558594 396.578125 401.46875 396.570312 401.378906 396.550781 C 401.121094 396.519531 400.859375 396.46875 400.601562 396.429688 C 400.441406 396.398438 400.269531 396.378906 400.109375 396.339844 C 399.660156 396.261719 399.199219 396.171875 398.761719 396.058594 C 398.539062 396.019531 398.328125 395.96875 398.121094 395.921875 C 397.859375 395.859375 397.609375 395.789062 397.351562 395.71875 C 396.769531 395.558594 396.191406 395.410156 395.621094 395.21875 C 395.289062 395.121094 394.96875 395.011719 394.648438 394.898438 C 393.878906 394.640625 393.128906 394.339844 392.378906 394.03125 C 392.171875 393.941406 391.960938 393.851562 391.75 393.75 C 391.480469 393.628906 391.199219 393.5 390.929688 393.371094 C 390.621094 393.21875 390.328125 393.078125 390.03125 392.929688 C 389.230469 392.53125 388.449219 392.089844 387.691406 391.628906 C 387.308594 391.398438 386.941406 391.171875 386.570312 390.929688 C 386.429688 390.839844 386.289062 390.75 386.148438 390.660156 C 386.070312 390.601562 385.980469 390.539062 385.898438 390.488281 C 385.609375 390.289062 385.320312 390.089844 385.039062 389.878906 C 384.699219 389.628906 384.359375 389.371094 384.019531 389.109375 C 383.378906 388.621094 382.75 388.089844 382.140625 387.539062 L 382.128906 387.539062 C 381.921875 387.351562 381.71875 387.171875 381.519531 386.96875 C 381.378906 386.859375 381.261719 386.730469 381.128906 386.601562 C 380.890625 386.378906 380.660156 386.148438 380.421875 385.910156 C 380.070312 385.558594 379.730469 385.210938 379.398438 384.839844 C 379.390625 384.839844 379.390625 384.828125 379.378906 384.820312 C 379.050781 384.460938 378.730469 384.089844 378.410156 383.710938 C 378.269531 383.550781 378.140625 383.390625 378.011719 383.230469 C 377.859375 383.050781 377.710938 382.871094 377.578125 382.691406 C 377.488281 382.589844 377.410156 382.488281 377.339844 382.378906 C 377.269531 382.289062 377.199219 382.210938 377.140625 382.121094 L 376.71875 381.550781 C 376.570312 381.359375 376.441406 381.160156 376.300781 380.96875 C 369.578125 390.628906 358.390625 396.960938 345.730469 396.960938 C 333.058594 396.960938 321.878906 390.628906 315.148438 380.96875 C 308.421875 390.628906 297.238281 396.960938 284.578125 396.960938 C 284.058594 396.960938 283.550781 396.949219 283.039062 396.921875 C 282.761719 396.910156 282.488281 396.898438 282.210938 396.878906 C 281.820312 396.859375 281.441406 396.820312 281.050781 396.789062 C 280.46875 396.738281 279.890625 396.671875 279.320312 396.589844 C 279.050781 396.550781 278.78125 396.511719 278.511719 396.460938 C 278.441406 396.449219 278.371094 396.441406 278.300781 396.429688 C 278.089844 396.398438 277.890625 396.359375 277.691406 396.320312 C 277.171875 396.230469 276.660156 396.121094 276.148438 396 C 275.78125 395.910156 275.410156 395.820312 275.039062 395.71875 C 274.75 395.640625 274.460938 395.570312 274.171875 395.480469 C 273.558594 395.308594 272.949219 395.109375 272.351562 394.898438 C 272.039062 394.789062 271.71875 394.671875 271.410156 394.550781 C 271.25 394.5 271.089844 394.441406 270.929688 394.371094 C 268.578125 393.449219 266.351562 392.289062 264.269531 390.929688 C 263.988281 390.738281 263.710938 390.558594 263.441406 390.371094 C 262.890625 389.988281 262.359375 389.601562 261.828125 389.199219 C 260.921875 388.488281 260.039062 387.738281 259.191406 386.941406 C 259.101562 386.859375 259 386.78125 258.910156 386.679688 C 257.929688 385.75 256.988281 384.75 256.109375 383.710938 L 256.109375 335.691406 C 256.371094 335.378906 256.628906 335.078125 256.890625 334.789062 C 257.03125 334.640625 257.160156 334.5 257.300781 334.359375 C 257.808594 333.789062 258.359375 333.238281 258.910156 332.71875 C 259 332.621094 259.101562 332.539062 259.191406 332.460938 C 259.429688 332.230469 259.660156 332.019531 259.898438 331.808594 C 260.160156 331.589844 260.410156 331.359375 260.671875 331.140625 C 260.808594 331.019531 260.949219 330.910156 261.089844 330.789062 C 261.5 330.460938 261.910156 330.140625 262.328125 329.828125 C 262.429688 329.75 262.53125 329.679688 262.628906 329.609375 C 263.101562 329.261719 263.589844 328.921875 264.078125 328.589844 C 264.308594 328.441406 264.539062 328.300781 264.769531 328.160156 C 264.800781 328.140625 264.828125 328.121094 264.859375 328.101562 C 265.121094 327.929688 265.378906 327.769531 265.648438 327.621094 C 266.039062 327.378906 266.429688 327.160156 266.839844 326.941406 C 267.078125 326.808594 267.320312 326.679688 267.558594 326.558594 C 267.71875 326.480469 267.878906 326.398438 268.050781 326.320312 C 268.359375 326.160156 268.679688 326.011719 268.988281 325.859375 C 270.089844 325.351562 271.210938 324.898438 272.351562 324.5 C 272.671875 324.398438 273 324.289062 273.320312 324.191406 C 273.5 324.128906 273.679688 324.070312 273.859375 324.019531 C 274.328125 323.878906 274.800781 323.738281 275.28125 323.621094 C 275.609375 323.539062 275.941406 323.460938 276.269531 323.378906 C 276.539062 323.320312 276.820312 323.261719 277.101562 323.199219 C 277.378906 323.148438 277.660156 323.101562 277.941406 323.050781 C 277.988281 323.03125 278.039062 323.019531 278.089844 323.019531 C 278.320312 322.96875 278.558594 322.929688 278.800781 322.898438 C 278.96875 322.871094 279.148438 322.839844 279.320312 322.820312 C 279.628906 322.78125 279.949219 322.738281 280.261719 322.699219 C 280.519531 322.671875 280.78125 322.640625 281.050781 322.621094 C 281.328125 322.589844 281.621094 322.570312 281.898438 322.550781 C 282.089844 322.53125 282.269531 322.519531 282.449219 322.511719 C 283.160156 322.46875 283.871094 322.449219 284.578125 322.449219 C 297.238281 322.449219 308.421875 328.769531 315.148438 338.429688 C 321.878906 328.769531 333.058594 322.449219 345.730469 322.449219 C 358.390625 322.449219 369.578125 328.769531 376.300781 338.429688 C 376.441406 338.238281 376.570312 338.039062 376.71875 337.851562 L 377.140625 337.28125 C 377.199219 337.191406 377.269531 337.109375 377.339844 337.019531 C 377.410156 336.910156 377.488281 336.808594 377.578125 336.710938 C 377.710938 336.53125 377.859375 336.351562 378.011719 336.171875 C 378.140625 336.011719 378.269531 335.851562 378.410156 335.691406 C 378.730469 335.308594 379.050781 334.941406 379.378906 334.578125 C 379.390625 334.570312 379.390625 334.558594 379.398438 334.558594 C 379.699219 334.230469 380.011719 333.898438 380.328125 333.589844 C 380.640625 333.269531 380.960938 332.960938 381.289062 332.648438 C 381.371094 332.570312 381.441406 332.5 381.519531 332.429688 C 381.71875 332.230469 381.921875 332.050781 382.128906 331.859375 C 382.550781 331.488281 382.96875 331.128906 383.398438 330.789062 C 383.539062 330.671875 383.679688 330.558594 383.828125 330.449219 C 384.179688 330.171875 384.539062 329.898438 384.898438 329.628906 C 385.21875 329.390625 385.550781 329.148438 385.890625 328.921875 C 386.121094 328.769531 386.339844 328.621094 386.570312 328.480469 C 387.011719 328.199219 387.449219 327.921875 387.890625 327.660156 C 388.371094 327.359375 388.871094 327.078125 389.371094 326.820312 C 389.601562 326.691406 389.839844 326.570312 390.078125 326.460938 C 390.320312 326.328125 390.570312 326.210938 390.820312 326.089844 C 392 325.519531 393.21875 325.011719 394.46875 324.570312 C 394.710938 324.480469 394.960938 324.398438 395.210938 324.320312 C 396.03125 324.050781 396.859375 323.800781 397.710938 323.589844 C 398.441406 323.398438 399.179688 323.238281 399.929688 323.101562 C 400.089844 323.070312 400.238281 323.039062 400.398438 323.019531 C 400.589844 322.980469 400.78125 322.949219 400.980469 322.921875 C 401.089844 322.898438 401.199219 322.878906 401.308594 322.871094 C 401.609375 322.820312 401.910156 322.78125 402.210938 322.738281 C 402.589844 322.691406 402.980469 322.648438 403.359375 322.621094 C 403.75 322.578125 404.128906 322.550781 404.519531 322.519531 C 405.300781 322.46875 406.089844 322.449219 406.878906 322.449219 C 419.539062 322.449219 430.730469 328.769531 437.449219 338.429688 C 443.78125 329.351562 454.050781 323.21875 465.769531 322.519531 C 466.519531 322.46875 467.269531 322.449219 468.03125 322.449219 C 468.429688 322.449219 468.820312 322.460938 469.210938 322.46875 C 469.640625 322.480469 470.070312 322.5 470.5 322.53125 C 470.789062 322.550781 471.089844 322.570312 471.378906 322.601562 C 471.441406 322.601562 471.488281 322.609375 471.550781 322.621094 C 471.839844 322.640625 472.128906 322.671875 472.421875 322.710938 C 472.851562 322.761719 473.28125 322.808594 473.699219 322.878906 C 474.109375 322.941406 474.519531 323.011719 474.929688 323.089844 C 475.691406 323.230469 476.449219 323.398438 477.199219 323.589844 C 478.25 323.851562 479.289062 324.160156 480.300781 324.519531 C 480.699219 324.660156 481.089844 324.800781 481.488281 324.960938 C 481.839844 325.101562 482.179688 325.238281 482.53125 325.378906 C 482.871094 325.519531 483.210938 325.671875 483.550781 325.828125 C 483.921875 326 484.289062 326.171875 484.648438 326.359375 C 485.941406 327 487.191406 327.71875 488.398438 328.511719 C 488.679688 328.710938 488.96875 328.890625 489.261719 329.089844 C 489.621094 329.339844 489.96875 329.589844 490.320312 329.851562 C 490.578125 330.050781 490.828125 330.238281 491.078125 330.441406 C 491.300781 330.609375 491.519531 330.78125 491.730469 330.960938 L 491.769531 331 C 491.859375 331.070312 491.960938 331.148438 492.058594 331.230469 C 492.300781 331.441406 492.53125 331.648438 492.761719 331.859375 C 493.039062 332.101562 493.308594 332.351562 493.578125 332.601562 C 493.628906 332.640625 493.679688 332.691406 493.730469 332.738281 C 493.949219 332.949219 494.160156 333.160156 494.371094 333.371094 C 494.769531 333.761719 495.148438 334.160156 495.511719 334.558594 C 495.671875 334.730469 495.820312 334.898438 495.980469 335.078125 C 496.128906 335.25 496.28125 335.421875 496.429688 335.601562 C 496.609375 335.808594 496.78125 336.011719 496.941406 336.21875 C 497.058594 336.359375 497.179688 336.511719 497.289062 336.660156 C 497.488281 336.910156 497.679688 337.160156 497.878906 337.410156 C 497.910156 337.460938 497.941406 337.488281 497.960938 337.53125 C 498.058594 337.648438 498.148438 337.78125 498.230469 337.898438 Z M 498.230469 337.898438 " style=" stroke:none;fill-rule:nonzero;fill:rgb(89.019608%,51.372549%,35.294118%);fill-opacity:1;" />
<path d="M 122.734375 292.453125 C 115.851562 292.453125 110.304688 298.164062 110.566406 305.105469 C 110.804688 311.375 115.992188 316.5625 122.261719 316.800781 C 129.203125 317.066406 134.914062 311.515625 134.914062 304.632812 L 134.914062 292.433594 Z M 122.734375 292.453125 " style=" stroke:none;fill-rule:nonzero;fill:rgb(77.254902%,34.509804%,20.784314%);fill-opacity:1;" />
<path d="M 194.429688 292.453125 C 187.546875 292.453125 181.996094 298.164062 182.261719 305.105469 C 182.5 311.375 187.6875 316.5625 193.957031 316.800781 C 200.898438 317.066406 206.609375 311.515625 206.609375 304.632812 L 206.609375 292.433594 Z M 194.429688 292.453125 " style=" stroke:none;fill-rule:nonzero;fill:rgb(77.254902%,34.509804%,20.784314%);fill-opacity:1;" />
<path d="M 391.644531 292.453125 C 398.527344 292.453125 404.074219 298.164062 403.8125 305.105469 C 403.574219 311.375 398.386719 316.5625 392.117188 316.800781 C 385.175781 317.066406 379.464844 311.515625 379.464844 304.632812 L 379.464844 292.433594 Z M 391.644531 292.453125 " style=" stroke:none;fill-rule:nonzero;fill:rgb(47.843137%,17.647059%,10.196078%);fill-opacity:1;" />
<path d="M 319.949219 292.453125 C 326.832031 292.453125 332.382812 298.164062 332.117188 305.105469 C 331.878906 311.375 326.691406 316.5625 320.421875 316.800781 C 313.480469 317.066406 307.769531 311.515625 307.769531 304.632812 L 307.769531 292.433594 Z M 319.949219 292.453125 " style=" stroke:none;fill-rule:nonzero;fill:rgb(47.843137%,17.647059%,10.196078%);fill-opacity:1;" />
<path d="M 355.632812 69.84375 C 356.296875 71.335938 356.882812 72.875 357.367188 74.460938 C 357.753906 76.042969 358.234375 77.675781 358.386719 79.351562 C 358.921875 82.699219 358.769531 86.269531 358.234375 89.695312 C 357.695312 93.132812 356.796875 96.3125 356.234375 98.996094 C 356.109375 99.652344 355.953125 100.335938 355.851562 100.953125 L 355.574219 102.785156 L 355.40625 104.535156 C 355.363281 104.820312 355.375 105.113281 355.363281 105.402344 L 355.328125 106.257812 L 355.289062 107.101562 C 355.300781 107.394531 355.3125 107.6875 355.316406 107.976562 C 355.328125 108.558594 355.316406 109.117188 355.339844 109.699219 C 355.398438 110.300781 355.421875 110.890625 355.460938 111.480469 L 355.507812 112.363281 L 355.609375 113.285156 C 355.746094 114.519531 355.828125 115.738281 356.039062 116.945312 L 356.296875 118.753906 C 356.378906 119.347656 356.523438 119.886719 356.625 120.449219 L 356.789062 121.289062 L 356.871094 121.703125 L 356.976562 122.09375 L 357.382812 123.644531 C 357.433594 123.90625 357.53125 124.144531 357.617188 124.386719 L 357.855469 125.117188 L 358.082031 125.847656 L 358.375 126.558594 C 358.722656 127.507812 359.164062 128.488281 359.648438 129.53125 C 359.925781 130.085938 360.160156 130.617188 360.445312 131.203125 L 361.378906 133.078125 L 362.40625 135.230469 L 363.488281 137.628906 C 364.175781 139.332031 364.878906 141.109375 365.425781 143.015625 L 365.839844 144.429688 L 366.167969 145.871094 C 366.367188 146.828125 366.628906 147.796875 366.746094 148.75 L 367.117188 151.613281 L 367.203125 152.328125 L 367.242188 153.027344 L 367.300781 154.421875 C 367.328125 155.34375 367.390625 156.285156 367.375 157.183594 L 367.261719 159.855469 C 367.226562 161.632812 366.953125 163.398438 366.742188 165.152344 C 366.683594 165.59375 366.636719 166.027344 366.5625 166.46875 L 366.292969 167.816406 C 366.105469 168.714844 365.929688 169.609375 365.730469 170.492188 C 365.496094 171.390625 365.214844 172.296875 364.953125 173.1875 C 364.820312 173.636719 364.6875 174.082031 364.542969 174.523438 L 364.03125 175.847656 C 363.671875 176.726562 363.371094 177.613281 362.949219 178.453125 L 361.699219 180.957031 C 361.242188 181.746094 360.773438 182.515625 360.308594 183.28125 C 359.847656 184.050781 359.339844 184.707031 358.855469 185.414062 C 356.886719 188.140625 354.980469 190.246094 353.28125 192.347656 C 351.574219 194.445312 349.972656 196.628906 348.546875 199.191406 L 347.988281 200.148438 C 347.800781 200.46875 347.660156 200.808594 347.476562 201.140625 L 346.429688 203.183594 C 345.730469 204.578125 345.132812 206.027344 344.34375 207.519531 C 343.671875 206.023438 343.085938 204.484375 342.597656 202.902344 C 342.207031 201.316406 341.722656 199.683594 341.566406 198.007812 C 341.03125 194.65625 341.175781 191.082031 341.710938 187.652344 C 342.246094 184.214844 343.144531 181.03125 343.707031 178.347656 C 343.828125 177.691406 343.988281 177.011719 344.085938 176.394531 L 344.363281 174.5625 L 344.53125 172.8125 C 344.589844 172.238281 344.574219 171.65625 344.609375 171.09375 L 344.644531 170.25 C 344.632812 169.953125 344.625 169.664062 344.621094 169.378906 C 344.609375 168.796875 344.621094 168.238281 344.597656 167.65625 C 344.546875 167.054688 344.515625 166.464844 344.480469 165.875 L 344.433594 164.996094 L 344.332031 164.070312 C 344.191406 162.839844 344.117188 161.621094 343.90625 160.414062 C 343.820312 159.8125 343.726562 159.210938 343.652344 158.609375 C 343.574219 158.015625 343.425781 157.476562 343.324219 156.910156 C 342.902344 154.640625 342.316406 152.714844 341.582031 150.808594 C 341.246094 149.855469 340.796875 148.878906 340.316406 147.835938 L 339.527344 146.160156 L 338.597656 144.285156 L 337.570312 142.132812 C 337.21875 141.363281 336.839844 140.535156 336.496094 139.730469 C 335.8125 138.027344 335.097656 136.25 334.566406 134.34375 L 334.152344 132.929688 L 333.824219 131.488281 C 333.617188 130.53125 333.371094 129.5625 333.25 128.609375 L 332.878906 125.746094 L 332.792969 125.03125 L 332.757812 124.332031 L 332.699219 122.941406 C 332.675781 122.019531 332.605469 121.074219 332.625 120.179688 L 332.742188 117.507812 C 332.773438 115.730469 333.058594 113.964844 333.261719 112.210938 C 333.316406 111.773438 333.375 111.339844 333.445312 110.898438 L 333.714844 109.550781 C 333.902344 108.652344 334.074219 107.761719 334.28125 106.875 C 334.511719 105.980469 334.792969 105.070312 335.054688 104.179688 L 335.46875 102.847656 L 335.976562 101.523438 C 336.332031 100.644531 336.640625 99.757812 337.058594 98.921875 L 338.308594 96.417969 C 338.765625 95.632812 339.234375 94.863281 339.695312 94.09375 C 340.15625 93.328125 340.667969 92.671875 341.148438 91.960938 C 343.117188 89.238281 345.023438 87.132812 346.71875 85.023438 C 348.425781 82.925781 350.023438 80.738281 351.445312 78.175781 L 352 77.21875 C 352.1875 76.894531 352.328125 76.554688 352.511719 76.222656 L 353.554688 74.179688 C 354.253906 72.78125 354.84375 71.332031 355.632812 69.84375 Z M 355.632812 69.84375 " style=" stroke:none;fill-rule:nonzero;fill:rgb(100%,100%,100%);fill-opacity:1;" />
<path d="M 261.632812 69.84375 C 262.296875 71.335938 262.882812 72.875 263.367188 74.460938 C 263.753906 76.042969 264.234375 77.675781 264.386719 79.351562 C 264.921875 82.699219 264.769531 86.269531 264.234375 89.695312 C 263.695312 93.132812 262.796875 96.3125 262.234375 98.996094 C 262.109375 99.652344 261.953125 100.335938 261.851562 100.953125 L 261.574219 102.785156 L 261.40625 104.535156 C 261.363281 104.820312 261.375 105.113281 261.363281 105.402344 L 261.328125 106.257812 L 261.289062 107.101562 C 261.300781 107.394531 261.3125 107.6875 261.316406 107.976562 C 261.328125 108.558594 261.316406 109.117188 261.339844 109.699219 C 261.398438 110.300781 261.421875 110.890625 261.460938 111.480469 L 261.507812 112.363281 L 261.609375 113.285156 C 261.746094 114.519531 261.828125 115.738281 262.039062 116.945312 L 262.296875 118.753906 C 262.378906 119.347656 262.523438 119.886719 262.625 120.449219 L 262.789062 121.289062 L 262.871094 121.703125 L 262.976562 122.09375 L 263.382812 123.644531 C 263.433594 123.90625 263.53125 124.144531 263.617188 124.386719 L 263.855469 125.117188 L 264.082031 125.847656 L 264.375 126.558594 C 264.722656 127.507812 265.164062 128.488281 265.648438 129.53125 C 265.925781 130.085938 266.160156 130.617188 266.445312 131.203125 L 267.378906 133.078125 L 268.40625 135.230469 L 269.488281 137.628906 C 270.175781 139.332031 270.878906 141.109375 271.425781 143.015625 L 271.839844 144.429688 L 272.167969 145.871094 C 272.367188 146.828125 272.628906 147.796875 272.746094 148.75 L 273.117188 151.613281 L 273.203125 152.328125 L 273.242188 153.027344 L 273.300781 154.421875 C 273.328125 155.34375 273.390625 156.285156 273.375 157.183594 L 273.261719 159.855469 C 273.226562 161.632812 272.953125 163.398438 272.742188 165.152344 C 272.683594 165.59375 272.636719 166.027344 272.5625 166.46875 L 272.292969 167.816406 C 272.105469 168.714844 271.929688 169.609375 271.730469 170.492188 C 271.496094 171.390625 271.214844 172.296875 270.953125 173.1875 C 270.820312 173.636719 270.6875 174.082031 270.542969 174.523438 L 270.03125 175.847656 C 269.671875 176.726562 269.371094 177.613281 268.949219 178.453125 L 267.699219 180.957031 C 267.242188 181.746094 266.773438 182.515625 266.308594 183.28125 C 265.847656 184.050781 265.339844 184.707031 264.855469 185.414062 C 262.886719 188.140625 260.980469 190.246094 259.28125 192.347656 C 257.574219 194.445312 255.972656 196.628906 254.546875 199.191406 L 253.988281 200.148438 C 253.800781 200.46875 253.660156 200.808594 253.476562 201.140625 L 252.429688 203.183594 C 251.730469 204.578125 251.132812 206.027344 250.34375 207.519531 C 249.671875 206.023438 249.085938 204.484375 248.597656 202.902344 C 248.207031 201.316406 247.722656 199.683594 247.566406 198.007812 C 247.03125 194.65625 247.175781 191.082031 247.710938 187.652344 C 248.246094 184.214844 249.144531 181.03125 249.707031 178.347656 C 249.828125 177.691406 249.988281 177.011719 250.085938 176.394531 L 250.363281 174.5625 L 250.53125 172.8125 C 250.589844 172.238281 250.574219 171.65625 250.609375 171.09375 L 250.644531 170.25 C 250.632812 169.953125 250.625 169.664062 250.621094 169.378906 C 250.609375 168.796875 250.621094 168.238281 250.597656 167.65625 C 250.546875 167.054688 250.515625 166.464844 250.480469 165.875 L 250.433594 164.996094 L 250.332031 164.070312 C 250.191406 162.839844 250.117188 161.621094 249.90625 160.414062 C 249.820312 159.8125 249.726562 159.210938 249.652344 158.609375 C 249.574219 158.015625 249.425781 157.476562 249.324219 156.910156 C 248.902344 154.640625 248.316406 152.714844 247.582031 150.808594 C 247.246094 149.855469 246.796875 148.878906 246.316406 147.835938 L 245.527344 146.160156 L 244.597656 144.285156 L 243.570312 142.132812 C 243.21875 141.363281 242.839844 140.535156 242.496094 139.730469 C 241.8125 138.027344 241.097656 136.25 240.566406 134.34375 L 240.152344 132.929688 L 239.824219 131.488281 C 239.617188 130.53125 239.371094 129.5625 239.25 128.609375 L 238.878906 125.746094 L 238.792969 125.03125 L 238.757812 124.332031 L 238.699219 122.941406 C 238.675781 122.019531 238.605469 121.074219 238.625 120.179688 L 238.742188 117.507812 C 238.773438 115.730469 239.058594 113.964844 239.261719 112.210938 C 239.316406 111.773438 239.375 111.339844 239.445312 110.898438 L 239.714844 109.550781 C 239.902344 108.652344 240.074219 107.761719 240.28125 106.875 C 240.511719 105.980469 240.792969 105.070312 241.054688 104.179688 L 241.46875 102.847656 L 241.976562 101.523438 C 242.332031 100.644531 242.640625 99.757812 243.058594 98.921875 L 244.308594 96.417969 C 244.765625 95.632812 245.234375 94.863281 245.695312 94.09375 C 246.15625 93.328125 246.667969 92.671875 247.148438 91.960938 C 249.113281 89.238281 251.019531 87.132812 252.71875 85.023438 C 254.425781 82.925781 256.019531 80.738281 257.445312 78.175781 L 258 77.21875 C 258.183594 76.894531 258.328125 76.554688 258.511719 76.222656 L 259.554688 74.179688 C 260.253906 72.78125 260.84375 71.332031 261.632812 69.84375 Z M 261.632812 69.84375 " style=" stroke:none;fill-rule:nonzero;fill:rgb(100%,100%,100%);fill-opacity:1;" />
<path d="M 167.632812 69.84375 C 168.296875 71.335938 168.882812 72.875 169.367188 74.460938 C 169.753906 76.042969 170.234375 77.675781 170.386719 79.351562 C 170.921875 82.699219 170.769531 86.269531 170.234375 89.695312 C 169.695312 93.132812 168.796875 96.3125 168.234375 98.996094 C 168.109375 99.652344 167.953125 100.335938 167.851562 100.953125 L 167.574219 102.785156 L 167.40625 104.535156 C 167.363281 104.820312 167.375 105.113281 167.363281 105.402344 L 167.328125 106.257812 L 167.289062 107.101562 C 167.300781 107.394531 167.3125 107.6875 167.316406 107.976562 C 167.328125 108.558594 167.316406 109.117188 167.339844 109.699219 C 167.398438 110.300781 167.421875 110.890625 167.460938 111.480469 L 167.507812 112.363281 L 167.609375 113.285156 C 167.746094 114.519531 167.828125 115.738281 168.039062 116.945312 L 168.296875 118.753906 C 168.378906 119.347656 168.523438 119.886719 168.625 120.449219 L 168.789062 121.289062 L 168.871094 121.703125 L 168.976562 122.09375 L 169.382812 123.644531 C 169.433594 123.90625 169.53125 124.144531 169.617188 124.386719 L 169.855469 125.117188 L 170.082031 125.847656 L 170.375 126.558594 C 170.722656 127.507812 171.164062 128.488281 171.648438 129.53125 C 171.925781 130.085938 172.160156 130.617188 172.445312 131.203125 L 173.378906 133.078125 L 174.40625 135.230469 L 175.488281 137.628906 C 176.175781 139.332031 176.878906 141.109375 177.425781 143.015625 L 177.839844 144.429688 L 178.167969 145.871094 C 178.367188 146.828125 178.628906 147.796875 178.746094 148.75 L 179.117188 151.613281 L 179.203125 152.328125 L 179.242188 153.027344 L 179.300781 154.421875 C 179.328125 155.34375 179.390625 156.285156 179.375 157.183594 L 179.261719 159.855469 C 179.226562 161.632812 178.953125 163.398438 178.742188 165.152344 C 178.683594 165.59375 178.636719 166.027344 178.5625 166.46875 L 178.292969 167.816406 C 178.105469 168.714844 177.929688 169.609375 177.730469 170.492188 C 177.496094 171.390625 177.214844 172.296875 176.953125 173.1875 C 176.820312 173.636719 176.6875 174.082031 176.542969 174.523438 L 176.03125 175.847656 C 175.671875 176.726562 175.371094 177.613281 174.949219 178.453125 L 173.699219 180.957031 C 173.242188 181.746094 172.773438 182.515625 172.308594 183.28125 C 171.847656 184.050781 171.339844 184.707031 170.855469 185.414062 C 168.886719 188.140625 166.980469 190.246094 165.28125 192.347656 C 163.574219 194.445312 161.972656 196.628906 160.546875 199.191406 L 159.988281 200.148438 C 159.800781 200.46875 159.660156 200.808594 159.476562 201.140625 L 158.429688 203.183594 C 157.730469 204.578125 157.132812 206.027344 156.34375 207.519531 C 155.671875 206.023438 155.085938 204.484375 154.597656 202.902344 C 154.207031 201.316406 153.722656 199.683594 153.566406 198.007812 C 153.03125 194.65625 153.175781 191.082031 153.710938 187.652344 C 154.246094 184.214844 155.144531 181.03125 155.707031 178.347656 C 155.828125 177.691406 155.988281 177.011719 156.085938 176.394531 L 156.363281 174.5625 L 156.53125 172.8125 C 156.589844 172.238281 156.574219 171.65625 156.609375 171.09375 L 156.644531 170.25 C 156.632812 169.953125 156.625 169.664062 156.621094 169.378906 C 156.609375 168.796875 156.621094 168.238281 156.597656 167.65625 C 156.546875 167.054688 156.515625 166.464844 156.480469 165.875 L 156.433594 164.996094 L 156.332031 164.070312 C 156.191406 162.839844 156.117188 161.621094 155.90625 160.414062 C 155.820312 159.8125 155.726562 159.210938 155.652344 158.609375 C 155.574219 158.015625 155.425781 157.476562 155.324219 156.910156 C 154.902344 154.640625 154.316406 152.714844 153.582031 150.808594 C 153.246094 149.855469 152.796875 148.878906 152.316406 147.835938 L 151.527344 146.160156 L 150.597656 144.285156 L 149.570312 142.132812 C 149.21875 141.363281 148.839844 140.535156 148.496094 139.730469 C 147.8125 138.027344 147.097656 136.25 146.566406 134.34375 L 146.152344 132.929688 L 145.824219 131.488281 C 145.617188 130.53125 145.371094 129.5625 145.25 128.609375 L 144.878906 125.746094 L 144.792969 125.03125 L 144.757812 124.332031 L 144.699219 122.941406 C 144.675781 122.019531 144.605469 121.074219 144.625 120.179688 L 144.742188 117.507812 C 144.773438 115.730469 145.058594 113.964844 145.261719 112.210938 C 145.316406 111.773438 145.375 111.339844 145.445312 110.898438 L 145.714844 109.550781 C 145.902344 108.652344 146.074219 107.761719 146.28125 106.875 C 146.511719 105.980469 146.792969 105.070312 147.054688 104.179688 L 147.46875 102.847656 L 147.976562 101.523438 C 148.332031 100.644531 148.640625 99.757812 149.058594 98.921875 L 150.308594 96.417969 C 150.765625 95.632812 151.234375 94.863281 151.695312 94.09375 C 152.15625 93.328125 152.667969 92.671875 153.148438 91.960938 C 155.113281 89.238281 157.019531 87.132812 158.71875 85.023438 C 160.425781 82.925781 162.019531 80.738281 163.445312 78.175781 L 164 77.21875 C 164.183594 76.894531 164.328125 76.554688 164.511719 76.222656 L 165.554688 74.179688 C 166.253906 72.78125 166.84375 71.332031 167.632812 69.84375 Z M 167.632812 69.84375 " style=" stroke:none;fill-rule:nonzero;fill:rgb(100%,100%,100%);fill-opacity:1;" />
</g>
</svg>