<svg xmlns="http://www.w3.org/2000/svg" height="512pt" version="1.1" viewBox="0 0 512 512" width="512pt">
<g id="surface1">
<path d="M 512 256 C 512 397.386719 397.386719 512 256 512 C 114.613281 512 0 397.386719 0 256 C 0 114.613281 114.613281 0 256 0 C 397.386719 0 512 114.613281 512 256 Z M 512 256 " style=" stroke:none;fill-rule:nonzero;fill:rgb(70.980392%,88.627451%,21.568627%);fill-opacity:1;" />
<path d="M 512 256 C 512 282.050781 508.109375 307.191406 500.871094 330.871094 C 468.859375 435.71875 371.328125 512 256 512 C 151.441406 512 61.511719 449.300781 21.769531 359.449219 C 7.769531 327.820312 0 292.820312 0 256 C 0 209.78125 12.25 166.429688 33.679688 129 C 77.800781 206.070312 160.839844 258 256 258 C 351.160156 258 434.210938 206.070312 478.320312 129 C 499.75 166.429688 512 209.78125 512 256 Z M 512 256 " style=" stroke:none;fill-rule:nonzero;fill:rgb(58.431373%,83.921569%,0%);fill-opacity:1;" />
<path d="M 30.742188 377.703125 C 37.898438 390.921875 46.171875 403.441406 55.460938 415.128906 C 102.359375 474.148438 174.761719 512 256 512 C 337.238281 512 409.640625 474.148438 456.539062 415.128906 C 465.828125 403.441406 474.101562 390.921875 481.257812 377.703125 Z M 30.742188 377.703125 " style=" stroke:none;fill-rule:nonzero;fill:rgb(52.156863%,68.627451%,7.058824%);fill-opacity:1;" />
<path d="M 293.570312 509.261719 C 281.308594 511.070312 268.761719 512 256 512 C 243.238281 512 230.691406 511.070312 218.429688 509.261719 L 222.289062 463.390625 L 225.199219 428.699219 L 226.070312 418.378906 L 231.070312 358.808594 L 232.769531 338.570312 L 279.230469 338.570312 L 279.671875 343.800781 L 284.421875 400.339844 L 286.800781 428.699219 L 289.710938 463.390625 Z M 293.570312 509.261719 " style=" stroke:none;fill-rule:nonzero;fill:rgb(100%,65.882353%,47.843137%);fill-opacity:1;" />
<path d="M 289.714844 463.394531 L 222.285156 463.394531 L 232.769531 338.574219 L 279.230469 338.574219 Z M 289.714844 463.394531 " style=" stroke:none;fill-rule:nonzero;fill:rgb(91.764706%,50.980392%,30.588235%);fill-opacity:1;" />
<path d="M 318.867188 99.613281 L 315.679688 100.601562 C 315.617188 100.617188 315.546875 100.636719 315.484375 100.652344 L 256 119.039062 L 212.664062 132.433594 L 196.402344 137.460938 C 182.910156 141.550781 169.285156 131.453125 169.285156 117.34375 L 169.285156 109.269531 C 169.3125 103.90625 173.738281 99.613281 179.101562 99.613281 Z M 318.867188 99.613281 " style=" stroke:none;fill-rule:nonzero;fill:rgb(100%,100%,100%);fill-opacity:1;" />
<path d="M 318.867188 99.613281 L 315.679688 100.601562 C 315.617188 100.617188 315.546875 100.636719 315.484375 100.652344 L 256 119.039062 L 212.664062 132.433594 L 212.664062 99.613281 Z M 318.867188 99.613281 " style=" stroke:none;fill-rule:nonzero;fill:rgb(92.156863%,94.117647%,95.294118%);fill-opacity:1;" />
<path d="M 342.714844 120.726562 L 342.714844 134.757812 C 342.714844 143.972656 336.703125 152.117188 327.898438 154.835938 L 315.597656 158.636719 C 315.5625 158.644531 315.519531 158.664062 315.484375 158.671875 L 256 177.058594 L 212.664062 190.453125 L 196.402344 195.480469 C 182.910156 199.570312 169.285156 189.472656 169.285156 175.363281 L 169.285156 161.332031 C 169.285156 152.117188 175.296875 143.980469 184.101562 141.261719 L 196.402344 137.460938 L 212.664062 132.433594 L 256 119.039062 L 315.484375 100.65625 C 315.546875 100.636719 315.617188 100.621094 315.679688 100.601562 C 329.144531 96.574219 342.714844 106.652344 342.714844 120.726562 Z M 342.714844 120.726562 " style=" stroke:none;fill-rule:nonzero;fill:rgb(100%,91.372549%,33.333333%);fill-opacity:1;" />
<path d="M 342.714844 120.726562 L 342.714844 134.757812 C 342.714844 143.972656 336.703125 152.117188 327.898438 154.835938 L 315.597656 158.636719 C 315.5625 158.644531 315.519531 158.664062 315.484375 158.671875 L 256 177.058594 L 212.664062 190.453125 L 212.664062 132.433594 L 256 119.039062 L 315.484375 100.65625 C 315.546875 100.636719 315.617188 100.621094 315.679688 100.601562 C 329.144531 96.574219 342.714844 106.652344 342.714844 120.726562 Z M 342.714844 120.726562 " style=" stroke:none;fill-rule:nonzero;fill:rgb(100%,81.960784%,7.058824%);fill-opacity:1;" />
<path d="M 342.714844 120.726562 L 342.714844 134.757812 C 342.714844 143.972656 336.703125 152.117188 327.898438 154.835938 L 315.597656 158.636719 C 315.5625 158.644531 315.519531 158.664062 315.484375 158.671875 L 256 177.058594 L 256 119.039062 L 315.484375 100.65625 C 315.546875 100.636719 315.617188 100.621094 315.679688 100.601562 C 329.144531 96.574219 342.714844 106.652344 342.714844 120.726562 Z M 342.714844 120.726562 " style=" stroke:none;fill-rule:nonzero;fill:rgb(100%,62.352941%,0%);fill-opacity:1;" />
<path d="M 318.867188 99.613281 L 315.679688 100.601562 C 315.617188 100.617188 315.546875 100.636719 315.484375 100.652344 L 256 119.039062 L 256 99.613281 Z M 318.867188 99.613281 " style=" stroke:none;fill-rule:nonzero;fill:rgb(78.039216%,85.098039%,100%);fill-opacity:1;" />
<path d="M 342.714844 178.753906 L 342.714844 192.773438 C 342.714844 201.988281 336.703125 210.136719 327.898438 212.855469 L 315.597656 216.65625 C 315.5625 216.664062 315.519531 216.683594 315.484375 216.691406 L 256 235.074219 L 212.664062 248.46875 L 196.402344 253.496094 C 182.910156 257.585938 169.285156 247.488281 169.285156 233.378906 L 169.285156 219.355469 C 169.285156 210.132812 175.296875 201.996094 184.101562 199.277344 L 196.402344 195.476562 L 212.664062 190.449219 L 256 177.058594 L 315.484375 158.671875 C 315.519531 158.664062 315.5625 158.648438 315.597656 158.636719 C 329.089844 154.546875 342.714844 164.644531 342.714844 178.753906 Z M 342.714844 178.753906 " style=" stroke:none;fill-rule:nonzero;fill:rgb(100%,20.392157%,27.058824%);fill-opacity:1;" />
<path d="M 342.714844 178.753906 L 342.714844 192.773438 C 342.714844 201.988281 336.703125 210.136719 327.898438 212.855469 L 315.597656 216.65625 C 315.5625 216.664062 315.519531 216.683594 315.484375 216.691406 L 256 235.074219 L 212.664062 248.46875 L 212.664062 190.449219 L 256 177.058594 L 315.484375 158.671875 C 315.519531 158.664062 315.5625 158.648438 315.597656 158.636719 C 329.089844 154.546875 342.714844 164.644531 342.714844 178.753906 Z M 342.714844 178.753906 " style=" stroke:none;fill-rule:nonzero;fill:rgb(89.803922%,16.078431%,16.078431%);fill-opacity:1;" />
<path d="M 342.714844 178.753906 L 342.714844 192.773438 C 342.714844 201.988281 336.703125 210.136719 327.898438 212.855469 L 315.597656 216.65625 C 315.5625 216.664062 315.519531 216.683594 315.484375 216.691406 L 256 235.074219 L 256 177.058594 L 315.484375 158.671875 C 315.519531 158.664062 315.5625 158.644531 315.597656 158.636719 C 329.089844 154.546875 342.714844 164.644531 342.714844 178.753906 Z M 342.714844 178.753906 " style=" stroke:none;fill-rule:nonzero;fill:rgb(72.941176%,5.098039%,36.078431%);fill-opacity:1;" />
<path d="M 342.714844 236.773438 L 342.714844 250.792969 C 342.714844 260.007812 336.703125 268.152344 327.898438 270.875 L 315.597656 274.671875 C 315.5625 274.683594 315.519531 274.699219 315.484375 274.707031 L 256 293.09375 L 212.664062 306.484375 L 196.402344 311.511719 C 182.910156 315.605469 169.285156 305.507812 169.285156 291.398438 L 169.285156 277.375 C 169.285156 268.152344 175.296875 260.015625 184.101562 257.296875 L 196.402344 253.496094 L 212.664062 248.46875 L 256 235.074219 L 315.484375 216.691406 C 315.519531 216.679688 315.5625 216.664062 315.597656 216.65625 C 329.089844 212.5625 342.714844 222.664062 342.714844 236.773438 Z M 342.714844 236.773438 " style=" stroke:none;fill-rule:nonzero;fill:rgb(100%,100%,100%);fill-opacity:1;" />
<path d="M 342.714844 236.773438 L 342.714844 250.792969 C 342.714844 260.007812 336.703125 268.152344 327.898438 270.875 L 315.597656 274.671875 C 315.5625 274.683594 315.519531 274.699219 315.484375 274.707031 L 256 293.09375 L 212.664062 306.484375 L 212.664062 248.46875 L 256 235.074219 L 315.484375 216.691406 C 315.519531 216.679688 315.5625 216.664062 315.597656 216.65625 C 329.089844 212.5625 342.714844 222.664062 342.714844 236.773438 Z M 342.714844 236.773438 " style=" stroke:none;fill-rule:nonzero;fill:rgb(92.156863%,94.117647%,95.294118%);fill-opacity:1;" />
<path d="M 342.714844 236.773438 L 342.714844 250.792969 C 342.714844 260.007812 336.703125 268.152344 327.898438 270.875 L 315.597656 274.671875 C 315.5625 274.683594 315.519531 274.699219 315.484375 274.707031 L 256 293.09375 L 256 235.074219 L 315.484375 216.691406 C 315.519531 216.679688 315.5625 216.664062 315.597656 216.65625 C 329.089844 212.5625 342.714844 222.664062 342.714844 236.773438 Z M 342.714844 236.773438 " style=" stroke:none;fill-rule:nonzero;fill:rgb(78.039216%,85.098039%,100%);fill-opacity:1;" />
<path d="M 342.714844 294.789062 L 342.714844 308.808594 C 342.714844 318.03125 336.703125 326.171875 327.898438 328.890625 L 315.597656 332.691406 C 315.5625 332.699219 315.519531 332.714844 315.484375 332.726562 L 256 351.109375 L 212.664062 364.503906 L 196.402344 369.53125 C 182.910156 373.621094 169.285156 363.523438 169.285156 349.414062 L 169.285156 335.394531 C 169.285156 326.179688 175.296875 318.035156 184.101562 315.3125 L 196.402344 311.515625 L 212.664062 306.488281 L 256 293.09375 L 315.484375 274.707031 C 315.519531 274.699219 315.5625 274.679688 315.597656 274.671875 C 329.089844 270.582031 342.714844 280.679688 342.714844 294.789062 Z M 342.714844 294.789062 " style=" stroke:none;fill-rule:nonzero;fill:rgb(100%,91.372549%,33.333333%);fill-opacity:1;" />
<path d="M 342.714844 294.789062 L 342.714844 308.808594 C 342.714844 318.03125 336.703125 326.171875 327.898438 328.890625 L 315.597656 332.691406 C 315.5625 332.699219 315.519531 332.714844 315.484375 332.726562 L 256 351.109375 L 212.664062 364.503906 L 212.664062 306.488281 L 256 293.09375 L 315.484375 274.707031 C 315.519531 274.699219 315.5625 274.679688 315.597656 274.671875 C 329.089844 270.582031 342.714844 280.679688 342.714844 294.789062 Z M 342.714844 294.789062 " style=" stroke:none;fill-rule:nonzero;fill:rgb(100%,81.960784%,7.058824%);fill-opacity:1;" />
<path d="M 342.714844 294.789062 L 342.714844 308.808594 C 342.714844 318.03125 336.703125 326.171875 327.898438 328.890625 L 315.597656 332.691406 C 315.5625 332.699219 315.519531 332.714844 315.484375 332.726562 L 256 351.109375 L 256 293.09375 L 315.484375 274.707031 C 315.519531 274.699219 315.5625 274.679688 315.597656 274.671875 C 329.089844 270.582031 342.714844 280.679688 342.714844 294.789062 Z M 342.714844 294.789062 " style=" stroke:none;fill-rule:nonzero;fill:rgb(100%,62.352941%,0%);fill-opacity:1;" />
<path d="M 342.714844 352.808594 L 342.714844 366.828125 C 342.714844 376.050781 336.703125 384.1875 327.898438 386.910156 L 315.597656 390.707031 C 315.5625 390.71875 315.519531 390.734375 315.484375 390.742188 L 256 409.128906 L 212.664062 422.523438 L 196.515625 427.515625 C 182.988281 431.691406 169.285156 421.585938 169.285156 407.433594 L 169.285156 393.410156 C 169.285156 384.195312 175.296875 376.050781 184.101562 373.328125 L 196.402344 369.53125 L 212.664062 364.503906 L 256 351.109375 L 315.484375 332.726562 C 315.519531 332.71875 315.5625 332.699219 315.597656 332.691406 C 329.089844 328.601562 342.714844 338.699219 342.714844 352.808594 Z M 342.714844 352.808594 " style=" stroke:none;fill-rule:nonzero;fill:rgb(100%,20.392157%,27.058824%);fill-opacity:1;" />
<path d="M 342.714844 352.808594 L 342.714844 366.828125 C 342.714844 376.050781 336.703125 384.1875 327.898438 386.910156 L 315.597656 390.707031 C 315.5625 390.71875 315.519531 390.734375 315.484375 390.742188 L 256 409.128906 L 212.664062 422.523438 L 212.664062 364.503906 L 256 351.109375 L 315.484375 332.726562 C 315.519531 332.71875 315.5625 332.699219 315.597656 332.691406 C 329.089844 328.601562 342.714844 338.699219 342.714844 352.808594 Z M 342.714844 352.808594 " style=" stroke:none;fill-rule:nonzero;fill:rgb(89.803922%,16.078431%,16.078431%);fill-opacity:1;" />
<path d="M 342.714844 410.824219 L 342.714844 418.898438 C 342.679688 424.332031 338.191406 428.699219 332.757812 428.699219 L 192.691406 428.699219 L 196.515625 427.515625 L 212.664062 422.523438 L 256 409.128906 L 315.484375 390.742188 C 315.519531 390.734375 315.5625 390.71875 315.597656 390.710938 C 329.089844 386.617188 342.714844 396.714844 342.714844 410.824219 Z M 342.714844 410.824219 " style=" stroke:none;fill-rule:nonzero;fill:rgb(100%,100%,100%);fill-opacity:1;" />
<path d="M 342.714844 410.824219 L 342.714844 418.898438 C 342.679688 424.332031 338.191406 428.699219 332.757812 428.699219 L 212.664062 428.699219 L 212.664062 422.523438 L 256 409.128906 L 315.484375 390.742188 C 315.519531 390.734375 315.5625 390.71875 315.597656 390.710938 C 329.089844 386.617188 342.714844 396.714844 342.714844 410.824219 Z M 342.714844 410.824219 " style=" stroke:none;fill-rule:nonzero;fill:rgb(92.156863%,94.117647%,95.294118%);fill-opacity:1;" />
<path d="M 342.714844 352.808594 L 342.714844 366.828125 C 342.714844 376.050781 336.703125 384.1875 327.898438 386.910156 L 315.597656 390.707031 C 315.5625 390.71875 315.519531 390.734375 315.484375 390.742188 L 256 409.128906 L 212.664062 422.523438 L 212.664062 364.503906 L 256 351.109375 L 315.484375 332.726562 C 315.519531 332.71875 315.5625 332.699219 315.597656 332.691406 C 329.089844 328.601562 342.714844 338.699219 342.714844 352.808594 Z M 342.714844 352.808594 " style=" stroke:none;fill-rule:nonzero;fill:rgb(89.803922%,16.078431%,16.078431%);fill-opacity:1;" />
<path d="M 342.714844 352.808594 L 342.714844 366.828125 C 342.714844 376.050781 336.703125 384.1875 327.898438 386.910156 L 315.597656 390.707031 C 315.5625 390.71875 315.519531 390.734375 315.484375 390.742188 L 256 409.128906 L 256 351.109375 L 315.484375 332.726562 C 315.519531 332.71875 315.5625 332.699219 315.597656 332.691406 C 329.089844 328.601562 342.714844 338.699219 342.714844 352.808594 Z M 342.714844 352.808594 " style=" stroke:none;fill-rule:nonzero;fill:rgb(72.941176%,5.098039%,36.078431%);fill-opacity:1;" />
<path d="M 342.714844 410.824219 L 342.714844 418.898438 C 342.679688 424.332031 338.191406 428.699219 332.757812 428.699219 L 256 428.699219 L 256 409.128906 L 315.484375 390.742188 C 315.519531 390.734375 315.5625 390.71875 315.597656 390.710938 C 329.089844 386.617188 342.714844 396.714844 342.714844 410.824219 Z M 342.714844 410.824219 " style=" stroke:none;fill-rule:nonzero;fill:rgb(78.039216%,85.098039%,100%);fill-opacity:1;" />
</g>
</svg>