<svg xmlns="http://www.w3.org/2000/svg" height="512pt" version="1.1" viewBox="0 0 512 512" width="512pt">
<g id="surface1">
<path d="M 512 256 C 512 397.386719 397.386719 512 256 512 C 114.613281 512 0 397.386719 0 256 C 0 114.613281 114.613281 0 256 0 C 397.386719 0 512 114.613281 512 256 Z M 512 256 " style=" stroke:none;fill-rule:nonzero;fill:rgb(61.960784%,41.176471%,88.627451%);fill-opacity:1;" />
<path d="M 512 256 C 512 282.050781 508.109375 307.191406 500.871094 330.871094 C 468.859375 435.71875 371.328125 512 256 512 C 151.441406 512 61.511719 449.300781 21.769531 359.449219 C 7.769531 327.820312 0 292.820312 0 256 C 0 209.78125 12.25 166.429688 33.679688 129 C 77.800781 206.070312 160.839844 258 256 258 C 351.160156 258 434.210938 206.070312 478.320312 129 C 499.75 166.429688 512 209.78125 512 256 Z M 512 256 " style=" stroke:none;fill-rule:nonzero;fill:rgb(55.686275%,30.980392%,82.352941%);fill-opacity:1;" />
<path d="M 481.261719 377.699219 C 474.101562 390.921875 465.828125 403.441406 456.539062 415.128906 C 416.628906 465.359375 358.238281 500.25 291.660156 509.53125 C 289.910156 509.769531 288.148438 510 286.390625 510.210938 C 276.421875 511.390625 266.28125 512 256 512 C 243.808594 512 231.820312 511.148438 220.089844 509.5 C 218.410156 509.261719 216.738281 509.011719 215.070312 508.738281 C 150.679688 498.398438 94.320312 464.03125 55.460938 415.128906 C 46.171875 403.441406 37.898438 390.921875 30.738281 377.699219 Z M 481.261719 377.699219 " style=" stroke:none;fill-rule:nonzero;fill:rgb(43.921569%,21.960784%,72.941176%);fill-opacity:1;" />
<path d="M 291.660156 509.53125 C 289.910156 509.769531 288.148438 510 286.390625 510.210938 C 276.421875 511.390625 266.28125 512 256 512 C 243.808594 512 231.820312 511.148438 220.089844 509.5 L 224.011719 465.878906 L 231.421875 377.699219 L 233.960938 347.449219 L 278.039062 347.449219 L 280.578125 377.699219 L 287.988281 465.878906 Z M 291.660156 509.53125 " style=" stroke:none;fill-rule:nonzero;fill:rgb(100%,65.882353%,47.843137%);fill-opacity:1;" />
<path d="M 287.988281 465.882812 L 224.011719 465.882812 L 233.957031 347.449219 L 278.042969 347.449219 Z M 287.988281 465.882812 " style=" stroke:none;fill-rule:nonzero;fill:rgb(91.764706%,50.980392%,30.588235%);fill-opacity:1;" />
<path d="M 409.984375 383.625 C 365.359375 420.390625 310.679688 438.765625 256 438.765625 C 222.492188 438.765625 188.996094 431.867188 157.804688 418.070312 C 138.085938 409.347656 119.285156 397.863281 102.007812 383.625 C 91.601562 375.050781 89.023438 360.140625 95.875 348.523438 L 106.597656 330.355469 L 238.347656 107.074219 C 242.3125 100.363281 249.15625 97 256 97 C 262.84375 97 269.6875 100.363281 273.65625 107.074219 L 405.40625 330.355469 L 416.125 348.527344 C 422.976562 360.140625 420.398438 375.050781 409.984375 383.625 Z M 409.984375 383.625 " style=" stroke:none;fill-rule:nonzero;fill:rgb(70.980392%,88.627451%,21.568627%);fill-opacity:1;" />
<path d="M 409.984375 383.625 C 365.359375 420.390625 310.679688 438.765625 256 438.765625 C 222.492188 438.765625 188.996094 431.867188 157.804688 418.070312 L 256 97 C 262.84375 97 269.6875 100.363281 273.65625 107.074219 L 405.40625 330.355469 L 416.125 348.527344 C 422.976562 360.140625 420.398438 375.050781 409.984375 383.625 Z M 409.984375 383.625 " style=" stroke:none;fill-rule:nonzero;fill:rgb(58.431373%,83.921569%,0%);fill-opacity:1;" />
<path d="M 409.984375 383.625 C 365.359375 420.390625 310.679688 438.765625 256 438.765625 L 256 97 C 262.84375 97 269.6875 100.363281 273.65625 107.074219 L 405.40625 330.355469 L 416.125 348.527344 C 422.976562 360.140625 420.398438 375.050781 409.984375 383.625 Z M 409.984375 383.625 " style=" stroke:none;fill-rule:nonzero;fill:rgb(52.156863%,68.627451%,7.058824%);fill-opacity:1;" />
<path d="M 405.40625 330.351562 C 402.671875 332.496094 399.910156 334.574219 397.101562 336.585938 C 395.113281 338.015625 393.105469 339.402344 391.085938 340.757812 C 390.972656 340.828125 390.859375 340.910156 390.738281 340.992188 C 389.460938 341.839844 388.1875 342.6875 386.890625 343.511719 C 385.554688 344.371094 384.21875 345.207031 382.882812 346.03125 C 382.097656 346.511719 381.3125 346.992188 380.515625 347.472656 C 379.128906 348.296875 377.738281 349.113281 376.34375 349.917969 C 375.578125 350.347656 374.8125 350.785156 374.046875 351.214844 C 373.324219 351.613281 372.597656 352.011719 371.875 352.40625 C 355.636719 361.253906 338.609375 368.097656 321.144531 372.941406 C 319.816406 373.308594 318.480469 373.667969 317.144531 374.015625 C 310.472656 375.757812 303.730469 377.195312 296.957031 378.351562 C 294.242188 378.820312 291.53125 379.226562 288.816406 379.59375 C 287.5 379.777344 286.175781 379.941406 284.859375 380.09375 C 284.777344 380.113281 284.703125 380.113281 284.644531 380.125 C 282.082031 380.433594 279.53125 380.695312 276.972656 380.910156 C 276.726562 380.929688 276.492188 380.953125 276.257812 380.972656 C 273.636719 381.195312 271.003906 381.371094 268.382812 381.503906 L 268.332031 381.503906 C 266.964844 381.574219 265.589844 381.636719 264.222656 381.675781 C 263.128906 381.71875 262.050781 381.746094 260.957031 381.769531 L 260.703125 381.769531 C 260.265625 381.777344 259.824219 381.789062 259.398438 381.796875 C 258.265625 381.808594 257.132812 381.816406 256 381.816406 C 227.988281 381.816406 199.976562 376.992188 173.308594 367.351562 C 149.691406 358.804688 127.136719 346.460938 106.59375 330.351562 L 238.34375 107.078125 C 242.308594 100.367188 249.15625 97 256 97 C 262.84375 97 269.691406 100.367188 273.65625 107.078125 Z M 405.40625 330.351562 " style=" stroke:none;fill-rule:nonzero;fill:rgb(100%,20.392157%,27.058824%);fill-opacity:1;" />
<path d="M 405.40625 330.355469 C 361.65625 364.660156 308.828125 381.820312 256 381.820312 C 227.984375 381.820312 199.976562 376.996094 173.3125 367.351562 L 256 97 C 262.84375 97 269.6875 100.363281 273.65625 107.074219 Z M 405.40625 330.355469 " style=" stroke:none;fill-rule:nonzero;fill:rgb(89.803922%,16.078431%,16.078431%);fill-opacity:1;" />
<path d="M 405.40625 330.351562 C 402.671875 332.496094 399.910156 334.574219 397.101562 336.585938 C 395.113281 338.003906 393.113281 339.402344 391.085938 340.757812 C 390.972656 340.828125 390.859375 340.910156 390.738281 340.992188 C 389.460938 341.839844 388.1875 342.6875 386.890625 343.511719 C 385.554688 344.371094 384.21875 345.207031 382.882812 346.03125 C 382.097656 346.511719 381.3125 346.992188 380.515625 347.472656 C 379.128906 348.296875 377.738281 349.113281 376.34375 349.917969 C 375.578125 350.347656 374.8125 350.785156 374.046875 351.214844 C 373.324219 351.613281 372.597656 352.011719 371.875 352.40625 C 355.636719 361.253906 338.609375 368.097656 321.144531 372.941406 C 319.816406 373.308594 318.480469 373.667969 317.144531 374.015625 C 310.464844 375.746094 303.730469 377.1875 296.957031 378.351562 C 294.253906 378.808594 291.539062 379.226562 288.816406 379.59375 C 287.5 379.777344 286.175781 379.941406 284.859375 380.09375 C 284.777344 380.113281 284.703125 380.113281 284.644531 380.125 C 282.082031 380.433594 279.53125 380.6875 276.972656 380.910156 C 276.726562 380.929688 276.492188 380.953125 276.257812 380.972656 C 273.636719 381.195312 271.003906 381.371094 268.382812 381.503906 L 268.332031 381.503906 C 266.964844 381.574219 265.589844 381.636719 264.222656 381.675781 C 263.128906 381.71875 262.050781 381.746094 260.957031 381.769531 L 260.703125 381.769531 C 260.265625 381.777344 259.824219 381.789062 259.398438 381.796875 C 258.265625 381.808594 257.132812 381.816406 256 381.816406 L 256 97 C 262.84375 97 269.691406 100.367188 273.65625 107.078125 Z M 405.40625 330.351562 " style=" stroke:none;fill-rule:nonzero;fill:rgb(72.941176%,5.098039%,36.078431%);fill-opacity:1;" />
<path d="M 218.492188 250.640625 C 218.492188 243.109375 214.929688 237.003906 210.535156 237.003906 C 206.144531 237.003906 202.582031 243.109375 202.582031 250.640625 C 202.582031 258.171875 206.144531 264.277344 210.535156 264.277344 C 214.929688 264.277344 218.492188 258.171875 218.492188 250.640625 Z M 218.492188 250.640625 " style=" stroke:none;fill-rule:nonzero;fill:rgb(19.607843%,23.137255%,35.294118%);fill-opacity:1;" />
<path d="M 230.492188 177.445312 C 230.492188 169.910156 226.929688 163.804688 222.535156 163.804688 C 218.144531 163.804688 214.582031 169.910156 214.582031 177.445312 C 214.582031 184.976562 218.144531 191.082031 222.535156 191.082031 C 226.929688 191.082031 230.492188 184.976562 230.492188 177.445312 Z M 230.492188 177.445312 " style=" stroke:none;fill-rule:nonzero;fill:rgb(19.607843%,23.137255%,35.294118%);fill-opacity:1;" />
<path d="M 172.777344 319.890625 C 172.777344 312.359375 169.214844 306.253906 164.820312 306.253906 C 160.425781 306.253906 156.863281 312.359375 156.863281 319.890625 C 156.863281 327.425781 160.425781 333.53125 164.820312 333.53125 C 169.214844 333.53125 172.777344 327.425781 172.777344 319.890625 Z M 172.777344 319.890625 " style=" stroke:none;fill-rule:nonzero;fill:rgb(19.607843%,23.137255%,35.294118%);fill-opacity:1;" />
<path d="M 239.703125 339.539062 C 239.703125 332.007812 236.140625 325.902344 231.746094 325.902344 C 227.351562 325.902344 223.789062 332.007812 223.789062 339.539062 C 223.789062 347.070312 227.351562 353.179688 231.746094 353.179688 C 236.140625 353.179688 239.703125 347.070312 239.703125 339.539062 Z M 239.703125 339.539062 " style=" stroke:none;fill-rule:nonzero;fill:rgb(19.607843%,23.137255%,35.294118%);fill-opacity:1;" />
<path d="M 296.191406 202.003906 C 296.191406 194.472656 292.628906 188.367188 288.234375 188.367188 C 283.839844 188.367188 280.277344 194.472656 280.277344 202.003906 C 280.277344 209.535156 283.839844 215.640625 288.234375 215.640625 C 292.628906 215.640625 296.191406 209.535156 296.191406 202.003906 Z M 296.191406 202.003906 " style=" stroke:none;fill-rule:nonzero;fill:rgb(19.607843%,23.137255%,35.294118%);fill-opacity:1;" />
<path d="M 356.363281 280.597656 C 356.363281 273.0625 352.800781 266.957031 348.40625 266.957031 C 344.011719 266.957031 340.449219 273.0625 340.449219 280.597656 C 340.449219 288.128906 344.011719 294.234375 348.40625 294.234375 C 352.800781 294.234375 356.363281 288.128906 356.363281 280.597656 Z M 356.363281 280.597656 " style=" stroke:none;fill-rule:nonzero;fill:rgb(19.607843%,23.137255%,35.294118%);fill-opacity:1;" />
<path d="M 294.347656 279.367188 C 294.347656 271.835938 290.785156 265.730469 286.394531 265.730469 C 282 265.730469 278.4375 271.835938 278.4375 279.367188 C 278.4375 286.898438 282 293.007812 286.394531 293.007812 C 290.785156 293.007812 294.347656 286.898438 294.347656 279.367188 Z M 294.347656 279.367188 " style=" stroke:none;fill-rule:nonzero;fill:rgb(19.607843%,23.137255%,35.294118%);fill-opacity:1;" />
<path d="M 331.1875 329.101562 C 331.1875 321.570312 327.628906 315.464844 323.234375 315.464844 C 318.839844 315.464844 315.277344 321.570312 315.277344 329.101562 C 315.277344 336.632812 318.839844 342.738281 323.234375 342.738281 C 327.628906 342.738281 331.1875 336.632812 331.1875 329.101562 Z M 331.1875 329.101562 " style=" stroke:none;fill-rule:nonzero;fill:rgb(19.607843%,23.137255%,35.294118%);fill-opacity:1;" />
</g>
</svg>