<svg xmlns="http://www.w3.org/2000/svg" height="512pt" version="1.1" viewBox="0 0 512 512" width="512pt">
<g id="surface1">
<path d="M 512 256 C 512 397.386719 397.386719 512 256 512 C 114.613281 512 0 397.386719 0 256 C 0 114.613281 114.613281 0 256 0 C 397.386719 0 512 114.613281 512 256 Z M 512 256 " style=" stroke:none;fill-rule:nonzero;fill:rgb(39.607843%,69.803922%,100%);fill-opacity:1;" />
<path d="M 512 256 C 512 282.050781 508.109375 307.191406 500.871094 330.871094 C 468.859375 435.71875 371.328125 512 256 512 C 151.441406 512 61.511719 449.300781 21.769531 359.449219 C 7.769531 327.820312 0 292.820312 0 256 C 0 209.78125 12.25 166.429688 33.679688 129 C 77.800781 206.070312 160.839844 258 256 258 C 351.160156 258 434.210938 206.070312 478.320312 129 C 499.75 166.429688 512 209.78125 512 256 Z M 512 256 " style=" stroke:none;fill-rule:nonzero;fill:rgb(5.882353%,60.784314%,90.980392%);fill-opacity:1;" />
<path d="M 30.742188 377.703125 C 37.898438 390.921875 46.171875 403.441406 55.460938 415.128906 C 102.359375 474.148438 174.761719 512 256 512 C 337.238281 512 409.640625 474.148438 456.539062 415.128906 C 465.828125 403.441406 474.101562 390.921875 481.257812 377.703125 Z M 30.742188 377.703125 " style=" stroke:none;fill-rule:nonzero;fill:rgb(0%,40%,90.980392%);fill-opacity:1;" />
<path d="M 292.839844 509.359375 C 280.808594 511.101562 268.511719 512 256 512 C 243.488281 512 231.191406 511.101562 219.160156 509.359375 L 222.941406 464.339844 L 230.21875 377.699219 L 233.21875 341.949219 L 278.78125 341.949219 L 281.78125 377.699219 L 289.058594 464.339844 Z M 292.839844 509.359375 " style=" stroke:none;fill-rule:nonzero;fill:rgb(100%,65.882353%,47.843137%);fill-opacity:1;" />
<path d="M 289.054688 464.339844 L 222.945312 464.339844 L 233.222656 341.953125 L 278.777344 341.953125 Z M 289.054688 464.339844 " style=" stroke:none;fill-rule:nonzero;fill:rgb(91.764706%,50.980392%,30.588235%);fill-opacity:1;" />
<path d="M 363.921875 192.921875 L 363.921875 368.789062 C 363.921875 404.03125 335.351562 432.601562 300.109375 432.601562 L 211.890625 432.601562 C 176.648438 432.601562 148.078125 404.03125 148.078125 368.789062 L 148.078125 192.921875 C 148.078125 133.324219 196.390625 85 256 85 C 256.542969 85 257.074219 85 257.605469 85.019531 C 286.777344 85.4375 313.144531 97.4375 332.316406 116.609375 C 351.84375 136.144531 363.921875 163.128906 363.921875 192.921875 Z M 363.921875 192.921875 " style=" stroke:none;fill-rule:nonzero;fill:rgb(100%,91.372549%,33.333333%);fill-opacity:1;" />
<path d="M 363.921875 192.921875 L 363.921875 368.789062 C 363.921875 404.03125 335.351562 432.601562 300.109375 432.601562 L 221.777344 432.601562 C 201.230469 421.1875 187.328125 399.265625 187.328125 374.097656 L 187.328125 189.746094 C 187.328125 142.433594 214.769531 101.882812 256 85 C 285.167969 85.421875 313.144531 97.4375 332.316406 116.609375 C 351.84375 136.144531 363.921875 163.128906 363.921875 192.921875 Z M 363.921875 192.921875 " style=" stroke:none;fill-rule:nonzero;fill:rgb(100%,81.960784%,7.058824%);fill-opacity:1;" />
<path d="M 363.921875 192.921875 L 363.921875 368.789062 C 363.921875 404.03125 335.351562 432.601562 300.109375 432.601562 L 256 432.601562 L 256 85 C 285.804688 85 312.789062 97.082031 332.316406 116.609375 C 351.84375 136.144531 363.921875 163.128906 363.921875 192.921875 Z M 363.921875 192.921875 " style=" stroke:none;fill-rule:nonzero;fill:rgb(100%,62.352941%,0%);fill-opacity:1;" />
<path d="M 256 124.242188 C 218.132812 124.242188 187.316406 155.054688 187.316406 192.921875 L 187.316406 368.789062 C 187.316406 382.335938 198.34375 393.363281 211.890625 393.363281 L 300.109375 393.363281 C 313.65625 393.363281 324.679688 382.335938 324.679688 368.789062 L 324.679688 192.921875 C 324.683594 155.054688 293.867188 124.242188 256 124.242188 Z M 256 124.242188 " style=" stroke:none;fill-rule:nonzero;fill:rgb(100%,62.352941%,0.392157%);fill-opacity:1;" />
<path d="M 324.683594 192.921875 L 324.683594 368.789062 C 324.683594 382.335938 313.65625 393.363281 300.109375 393.363281 L 256 393.363281 L 256 124.242188 C 293.867188 124.242188 324.683594 155.054688 324.683594 192.921875 Z M 324.683594 192.921875 " style=" stroke:none;fill-rule:nonzero;fill:rgb(92.156863%,46.666667%,13.333333%);fill-opacity:1;" />
</g>
</svg>