<svg xmlns="http://www.w3.org/2000/svg" height="512pt" version="1.1" viewBox="0 0 512 512" width="512pt">
<g id="surface1">
<path d="M 512 256 C 512 397.386719 397.386719 512 256 512 C 114.613281 512 0 397.386719 0 256 C 0 114.613281 114.613281 0 256 0 C 397.386719 0 512 114.613281 512 256 Z M 512 256 " style=" stroke:none;fill-rule:nonzero;fill:rgb(100%,91.372549%,33.333333%);fill-opacity:1;" />
<path d="M 512 256 C 512 282.050781 508.109375 307.191406 500.871094 330.871094 C 468.859375 435.71875 371.328125 512 256 512 C 151.441406 512 61.511719 449.300781 21.769531 359.449219 C 7.769531 327.820312 0 292.820312 0 256 C 0 209.78125 12.25 166.429688 33.679688 129 C 77.800781 206.070312 160.839844 258 256 258 C 351.160156 258 434.210938 206.070312 478.320312 129 C 499.75 166.429688 512 209.78125 512 256 Z M 512 256 " style=" stroke:none;fill-rule:nonzero;fill:rgb(100%,81.960784%,7.058824%);fill-opacity:1;" />
<path d="M 30.742188 377.703125 C 37.898438 390.921875 46.171875 403.441406 55.460938 415.128906 C 102.359375 474.148438 174.761719 512 256 512 C 337.238281 512 409.640625 474.148438 456.539062 415.128906 C 465.828125 403.441406 474.101562 390.921875 481.257812 377.703125 Z M 30.742188 377.703125 " style=" stroke:none;fill-rule:nonzero;fill:rgb(100%,62.352941%,0%);fill-opacity:1;" />
<path d="M 347.730469 234.671875 L 180.808594 234.671875 C 173.03125 232.648438 166.710938 226.570312 164.589844 218.621094 C 164.078125 216.761719 163.820312 214.789062 163.820312 212.75 C 163.820312 201.988281 171.390625 192.699219 181.929688 190.539062 L 203.050781 186.210938 C 202.621094 186.230469 202.191406 186.238281 201.761719 186.238281 C 201.441406 186.238281 201.121094 186.230469 200.808594 186.21875 C 189.03125 185.71875 179.140625 176.011719 179.140625 163.589844 C 179.140625 152.828125 186.71875 143.539062 197.261719 141.378906 L 210.761719 138.601562 C 214.820312 137.78125 217.640625 134.179688 217.628906 130.050781 L 217.628906 129.96875 C 217.628906 104.550781 233.578125 82.851562 256 74.320312 C 256.089844 74.28125 256.179688 74.238281 256.269531 74.210938 C 259.050781 73.160156 261.738281 73.878906 263.621094 75.519531 C 265.910156 77.53125 266.988281 80.921875 265.5 84.230469 C 262.140625 91.679688 260.261719 99.949219 260.261719 108.660156 C 260.261719 118.878906 269.640625 126.53125 279.648438 124.46875 L 291.378906 122.070312 C 301.128906 120.058594 310.449219 124.050781 315.421875 131.550781 C 317.46875 134.601562 318.78125 138.25 319.101562 142.308594 C 319.929688 152.730469 313.628906 162.070312 304.191406 165.460938 L 307.289062 164.820312 C 308.839844 164.5 310.378906 164.351562 311.890625 164.351562 C 322.070312 164.351562 331.019531 171.261719 333.691406 180.96875 C 334.21875 182.890625 334.511719 184.921875 334.511719 187.03125 C 334.511719 196.679688 328.390625 205.140625 319.511719 208.328125 L 320.378906 208.148438 C 321.21875 207.96875 322.070312 207.839844 322.910156 207.761719 C 335.660156 206.460938 347.050781 215.261719 348.109375 228.390625 C 348.28125 230.539062 348.140625 232.648438 347.730469 234.671875 Z M 347.730469 234.671875 " style=" stroke:none;fill-rule:nonzero;fill:rgb(100%,100%,100%);fill-opacity:1;" />
<path d="M 347.730469 234.671875 L 256 234.671875 L 256 74.320312 C 256.089844 74.28125 256.179688 74.238281 256.269531 74.210938 C 259.050781 73.160156 261.738281 73.878906 263.621094 75.519531 C 265.910156 77.53125 266.988281 80.921875 265.5 84.230469 C 262.140625 91.679688 260.261719 99.949219 260.261719 108.660156 C 260.261719 118.878906 269.640625 126.53125 279.648438 124.46875 L 291.378906 122.070312 C 301.128906 120.058594 310.449219 124.050781 315.421875 131.550781 C 317.46875 134.601562 318.78125 138.25 319.101562 142.308594 C 319.929688 152.730469 313.628906 162.070312 304.191406 165.460938 L 307.289062 164.820312 C 308.839844 164.5 310.378906 164.351562 311.890625 164.351562 C 322.070312 164.351562 331.019531 171.261719 333.691406 180.96875 C 334.21875 182.890625 334.511719 184.921875 334.511719 187.03125 C 334.511719 196.679688 328.390625 205.140625 319.511719 208.328125 L 320.378906 208.148438 C 321.21875 207.96875 322.070312 207.839844 322.910156 207.761719 C 335.660156 206.460938 347.050781 215.261719 348.109375 228.390625 C 348.28125 230.539062 348.140625 232.648438 347.730469 234.671875 Z M 347.730469 234.671875 " style=" stroke:none;fill-rule:nonzero;fill:rgb(92.156863%,94.117647%,95.294118%);fill-opacity:1;" />
<path d="M 347.730469 234.671875 L 180.808594 234.671875 C 173.03125 232.648438 166.710938 226.570312 164.589844 218.621094 L 256 198.269531 L 333.691406 180.96875 C 334.21875 182.890625 334.511719 184.921875 334.511719 187.03125 C 334.511719 196.679688 328.390625 205.140625 319.511719 208.328125 L 320.378906 208.148438 C 321.21875 207.96875 322.070312 207.839844 322.910156 207.761719 C 335.660156 206.460938 347.050781 215.261719 348.109375 228.390625 C 348.28125 230.539062 348.140625 232.648438 347.730469 234.671875 Z M 347.730469 234.671875 " style=" stroke:none;fill-rule:nonzero;fill:rgb(92.156863%,94.117647%,95.294118%);fill-opacity:1;" />
<path d="M 347.730469 234.671875 L 256 234.671875 L 256 198.269531 L 333.691406 180.96875 C 334.21875 182.890625 334.511719 184.921875 334.511719 187.03125 C 334.511719 196.679688 328.390625 205.140625 319.511719 208.328125 L 320.378906 208.148438 C 321.21875 207.96875 322.070312 207.839844 322.910156 207.761719 C 335.660156 206.460938 347.050781 215.261719 348.109375 228.390625 C 348.28125 230.539062 348.140625 232.648438 347.730469 234.671875 Z M 347.730469 234.671875 " style=" stroke:none;fill-rule:nonzero;fill:rgb(78.039216%,85.098039%,100%);fill-opacity:1;" />
<path d="M 312.230469 160.460938 C 312.019531 160.660156 311.808594 160.851562 311.601562 161.050781 C 311.171875 161.429688 310.730469 161.789062 310.28125 162.140625 C 310.050781 162.320312 309.820312 162.488281 309.578125 162.648438 C 309.109375 162.980469 308.628906 163.289062 308.140625 163.589844 C 307.890625 163.738281 307.640625 163.890625 307.378906 164.019531 C 306.871094 164.300781 306.351562 164.558594 305.820312 164.800781 C 305.289062 165.039062 304.738281 165.261719 304.191406 165.460938 L 256 175.351562 L 203.050781 186.210938 L 200.808594 186.21875 C 190.390625 185.78125 181.460938 178.140625 179.539062 167.78125 C 179.28125 166.421875 179.140625 165.019531 179.140625 163.589844 C 179.140625 152.828125 186.71875 143.539062 197.261719 141.378906 L 210.761719 138.601562 L 256 129.320312 L 279.648438 124.46875 L 291.378906 122.070312 C 293.410156 121.648438 295.421875 121.488281 297.371094 121.570312 C 297.691406 121.578125 298.011719 121.601562 298.328125 121.628906 C 298.488281 121.640625 298.648438 121.660156 298.808594 121.679688 C 299.078125 121.699219 299.351562 121.730469 299.621094 121.769531 C 299.820312 121.789062 300.019531 121.820312 300.21875 121.859375 C 300.53125 121.910156 300.839844 121.960938 301.148438 122.03125 C 301.390625 122.078125 301.628906 122.128906 301.859375 122.179688 C 301.988281 122.210938 302.109375 122.238281 302.230469 122.269531 C 302.480469 122.339844 302.730469 122.398438 302.96875 122.480469 C 303.230469 122.550781 303.488281 122.628906 303.75 122.71875 C 304.378906 122.921875 304.988281 123.148438 305.589844 123.410156 C 305.871094 123.53125 306.148438 123.660156 306.429688 123.789062 C 306.929688 124.03125 307.429688 124.289062 307.910156 124.558594 C 308.148438 124.691406 308.378906 124.828125 308.601562 124.960938 C 308.769531 125.070312 308.929688 125.171875 309.089844 125.28125 C 309.53125 125.570312 309.960938 125.871094 310.378906 126.179688 C 310.609375 126.359375 310.828125 126.539062 311.050781 126.71875 C 311.289062 126.910156 311.519531 127.109375 311.75 127.308594 C 311.96875 127.511719 312.199219 127.71875 312.410156 127.929688 C 312.601562 128.121094 312.789062 128.300781 312.96875 128.488281 C 313.871094 129.429688 314.691406 130.449219 315.421875 131.550781 C 315.640625 131.878906 315.851562 132.210938 316.039062 132.550781 C 316.109375 132.640625 316.171875 132.738281 316.21875 132.839844 C 316.410156 133.171875 316.589844 133.511719 316.761719 133.851562 C 316.910156 134.140625 317.050781 134.429688 317.179688 134.738281 C 317.300781 135.011719 317.421875 135.289062 317.53125 135.570312 C 317.660156 135.859375 317.769531 136.160156 317.871094 136.460938 C 317.96875 136.761719 318.070312 137.070312 318.171875 137.378906 C 318.261719 137.679688 318.351562 138 318.429688 138.308594 C 318.589844 138.949219 318.730469 139.601562 318.851562 140.261719 C 318.878906 140.441406 318.910156 140.621094 318.929688 140.808594 C 318.960938 141.019531 318.988281 141.238281 319.019531 141.449219 C 319.050781 141.738281 319.078125 142.019531 319.101562 142.308594 C 319.660156 149.359375 316.960938 155.910156 312.230469 160.460938 Z M 312.230469 160.460938 " style=" stroke:none;fill-rule:nonzero;fill:rgb(100%,100%,100%);fill-opacity:1;" />
<path d="M 256 129.320312 L 256 175.351562 L 304.191406 165.460938 C 304.738281 165.261719 305.289062 165.039062 305.820312 164.800781 C 306.351562 164.558594 306.871094 164.300781 307.378906 164.019531 C 307.640625 163.890625 307.890625 163.738281 308.140625 163.589844 C 308.628906 163.289062 309.109375 162.980469 309.578125 162.648438 C 309.820312 162.488281 310.050781 162.320312 310.28125 162.140625 C 310.730469 161.789062 311.171875 161.429688 311.601562 161.050781 C 311.808594 160.851562 312.019531 160.660156 312.230469 160.460938 C 316.960938 155.910156 319.660156 149.359375 319.101562 142.308594 C 319.078125 142.019531 319.050781 141.738281 319.019531 141.449219 C 318.988281 141.238281 318.960938 141.019531 318.929688 140.808594 C 318.910156 140.621094 318.878906 140.441406 318.851562 140.261719 C 318.738281 139.640625 318.609375 139.039062 318.460938 138.441406 C 318.449219 138.398438 318.441406 138.351562 318.429688 138.308594 C 318.351562 138 318.261719 137.679688 318.171875 137.378906 C 318.070312 137.070312 317.96875 136.761719 317.871094 136.460938 C 317.769531 136.160156 317.660156 135.859375 317.53125 135.570312 C 317.421875 135.289062 317.300781 135.011719 317.179688 134.738281 C 317.050781 134.429688 316.910156 134.140625 316.761719 133.851562 C 316.589844 133.511719 316.410156 133.171875 316.21875 132.839844 C 316.171875 132.738281 316.109375 132.640625 316.039062 132.550781 C 315.851562 132.210938 315.640625 131.878906 315.421875 131.550781 C 314.691406 130.449219 313.871094 129.429688 312.96875 128.488281 C 312.789062 128.300781 312.601562 128.121094 312.410156 127.929688 C 312.199219 127.71875 311.96875 127.511719 311.75 127.308594 C 311.519531 127.109375 311.289062 126.910156 311.050781 126.71875 C 310.828125 126.539062 310.609375 126.359375 310.378906 126.179688 C 309.960938 125.871094 309.53125 125.570312 309.089844 125.28125 C 308.929688 125.171875 308.769531 125.070312 308.601562 124.960938 C 308.378906 124.828125 308.148438 124.691406 307.910156 124.558594 C 307.429688 124.289062 306.929688 124.03125 306.429688 123.789062 C 306.148438 123.660156 305.871094 123.53125 305.589844 123.410156 C 304.988281 123.148438 304.378906 122.921875 303.75 122.71875 C 303.488281 122.628906 303.230469 122.550781 302.96875 122.480469 C 302.730469 122.398438 302.480469 122.339844 302.230469 122.269531 C 302.109375 122.238281 301.988281 122.210938 301.859375 122.179688 C 301.628906 122.128906 301.390625 122.078125 301.148438 122.03125 C 300.839844 121.960938 300.53125 121.910156 300.21875 121.859375 C 300.019531 121.820312 299.820312 121.789062 299.621094 121.769531 C 299.351562 121.730469 299.078125 121.699219 298.808594 121.679688 C 298.648438 121.660156 298.488281 121.640625 298.328125 121.628906 C 298.011719 121.601562 297.691406 121.578125 297.371094 121.570312 C 295.421875 121.488281 293.410156 121.648438 291.378906 122.070312 L 279.648438 124.46875 Z M 256 129.320312 " style=" stroke:none;fill-rule:nonzero;fill:rgb(92.156863%,94.117647%,95.294118%);fill-opacity:1;" />
<path d="M 319.121094 145.550781 C 319.109375 145.789062 319.089844 146.039062 319.070312 146.28125 C 319.03125 146.761719 318.96875 147.238281 318.890625 147.710938 C 318.828125 148.070312 318.769531 148.429688 318.691406 148.789062 C 318.621094 149.121094 318.539062 149.460938 318.460938 149.789062 C 318.441406 149.871094 318.421875 149.941406 318.398438 150.011719 C 318.308594 150.351562 318.21875 150.671875 318.109375 151 C 318.101562 151.03125 318.089844 151.070312 318.078125 151.101562 C 317.980469 151.429688 317.859375 151.75 317.738281 152.070312 C 317.640625 152.339844 317.539062 152.601562 317.421875 152.859375 C 317.351562 153.050781 317.269531 153.230469 317.179688 153.421875 C 317.160156 153.488281 317.128906 153.550781 317.089844 153.621094 C 316.988281 153.851562 316.878906 154.070312 316.769531 154.289062 C 316.601562 154.640625 316.410156 154.988281 316.210938 155.328125 C 316.070312 155.601562 315.910156 155.859375 315.75 156.109375 C 315.21875 156.980469 314.621094 157.800781 313.96875 158.578125 C 313.800781 158.789062 313.621094 159 313.441406 159.199219 C 313.050781 159.640625 312.648438 160.058594 312.230469 160.460938 C 312.019531 160.660156 311.808594 160.851562 311.601562 161.050781 C 311.171875 161.429688 310.730469 161.789062 310.28125 162.140625 C 310.050781 162.320312 309.820312 162.488281 309.578125 162.648438 C 309.109375 162.980469 308.628906 163.289062 308.140625 163.589844 C 307.890625 163.738281 307.640625 163.890625 307.378906 164.019531 C 306.871094 164.300781 306.351562 164.558594 305.820312 164.800781 C 305.289062 165.039062 304.738281 165.261719 304.191406 165.460938 L 256 175.351562 L 203.050781 186.210938 L 200.808594 186.21875 C 190.390625 185.78125 181.460938 178.140625 179.539062 167.78125 L 256 151.558594 L 318.429688 138.308594 C 318.441406 138.351562 318.449219 138.398438 318.460938 138.441406 C 318.609375 139.039062 318.738281 139.640625 318.851562 140.261719 C 318.878906 140.441406 318.910156 140.621094 318.929688 140.808594 C 318.960938 141.019531 318.988281 141.238281 319.019531 141.449219 C 319.050781 141.738281 319.078125 142.019531 319.101562 142.308594 C 319.191406 143.410156 319.199219 144.488281 319.121094 145.550781 Z M 319.121094 145.550781 " style=" stroke:none;fill-rule:nonzero;fill:rgb(92.156863%,94.117647%,95.294118%);fill-opacity:1;" />
<path d="M 399.261719 95.980469 L 339.929688 264.648438 L 327.671875 260.339844 L 315.398438 256.019531 L 374.738281 87.351562 L 387 91.671875 L 387.011719 91.671875 Z M 399.261719 95.980469 " style=" stroke:none;fill-rule:nonzero;fill:rgb(100%,100%,100%);fill-opacity:1;" />
<path d="M 399.261719 95.980469 L 339.929688 264.648438 L 327.671875 260.339844 L 327.671875 260.328125 L 387 91.671875 L 387.011719 91.671875 Z M 399.261719 95.980469 " style=" stroke:none;fill-rule:nonzero;fill:rgb(92.156863%,94.117647%,95.294118%);fill-opacity:1;" />
<path d="M 373.179688 223.019531 L 347.308594 495.230469 C 335.78125 499.640625 323.851562 503.230469 311.589844 505.941406 C 293.691406 509.910156 275.089844 512 256 512 C 244.5 512 233.171875 511.238281 222.070312 509.769531 C 214.628906 508.78125 207.289062 507.480469 200.070312 505.859375 C 187.929688 503.160156 176.109375 499.601562 164.691406 495.230469 L 138.820312 223.019531 Z M 373.179688 223.019531 " style=" stroke:none;fill-rule:nonzero;fill:rgb(100%,100%,100%);fill-opacity:1;" />
<path d="M 373.179688 223.019531 L 347.308594 495.230469 C 335.78125 499.640625 323.851562 503.230469 311.589844 505.941406 C 293.691406 509.910156 275.089844 512 256 512 C 244.5 512 233.171875 511.238281 222.070312 509.769531 L 197.988281 256.328125 L 195.929688 234.671875 L 194.820312 223.019531 Z M 373.179688 223.019531 " style=" stroke:none;fill-rule:nonzero;fill:rgb(92.156863%,94.117647%,95.294118%);fill-opacity:1;" />
<path d="M 373.179688 223.019531 L 347.308594 495.230469 C 335.78125 499.640625 323.851562 503.230469 311.589844 505.941406 C 293.691406 509.910156 275.089844 512 256 512 L 256 223.019531 Z M 373.179688 223.019531 " style=" stroke:none;fill-rule:nonzero;fill:rgb(78.039216%,85.098039%,100%);fill-opacity:1;" />
<path d="M 174.328125 256.328125 L 200.070312 505.859375 C 207.289062 507.480469 214.628906 508.78125 222.070312 509.769531 C 233.171875 511.238281 244.5 512 256 512 C 275.089844 512 293.691406 509.910156 311.589844 505.941406 L 336.910156 263.589844 L 337.671875 256.328125 Z M 174.328125 256.328125 " style=" stroke:none;fill-rule:nonzero;fill:rgb(97.647059%,63.529412%,74.901961%);fill-opacity:1;" />
<path d="M 337.671875 256.328125 L 336.910156 263.589844 L 311.589844 505.941406 C 293.691406 509.910156 275.089844 512 256 512 C 244.5 512 233.171875 511.238281 222.070312 509.769531 L 197.988281 256.328125 Z M 337.671875 256.328125 " style=" stroke:none;fill-rule:nonzero;fill:rgb(97.647059%,52.156863%,65.098039%);fill-opacity:1;" />
<path d="M 337.671875 256.328125 L 336.910156 263.589844 L 311.589844 505.941406 C 293.691406 509.910156 275.089844 512 256 512 L 256 256.328125 Z M 337.671875 256.328125 " style=" stroke:none;fill-rule:nonzero;fill:rgb(92.941176%,33.72549%,50.588235%);fill-opacity:1;" />
<path d="M 198.160156 90.589844 C 199.050781 101.292969 205.40625 112.285156 216.121094 119.628906 C 226.835938 126.96875 239.378906 128.933594 249.679688 125.894531 C 248.796875 115.191406 242.4375 104.203125 231.722656 96.863281 C 221.007812 89.515625 208.464844 87.554688 198.160156 90.589844 Z M 198.160156 90.589844 " style=" stroke:none;fill-rule:nonzero;fill:rgb(70.980392%,88.627451%,21.568627%);fill-opacity:1;" />
<path d="M 198.160156 90.589844 L 249.679688 125.894531 C 248.796875 115.191406 242.4375 104.203125 231.722656 96.859375 C 221.007812 89.515625 208.464844 87.554688 198.160156 90.589844 Z M 198.160156 90.589844 " style=" stroke:none;fill-rule:nonzero;fill:rgb(52.156863%,68.627451%,7.058824%);fill-opacity:1;" />
<path d="M 281.832031 102.207031 C 281.832031 116.414062 270.359375 127.945312 256.171875 128.039062 C 256.113281 128.039062 256.058594 128.039062 256 128.039062 C 241.734375 128.039062 230.171875 116.472656 230.171875 102.207031 C 230.171875 95.761719 232.53125 89.863281 236.4375 85.339844 C 236.707031 85 236.996094 84.675781 237.300781 84.371094 C 237.394531 84.277344 237.488281 84.1875 237.585938 84.097656 C 237.585938 84.09375 237.589844 84.09375 237.589844 84.089844 C 239.546875 82.273438 242.164062 81.160156 245.046875 81.160156 C 246.257812 81.160156 247.425781 81.359375 248.511719 81.722656 C 252.796875 83.148438 255.902344 87.148438 256 91.890625 C 256 91.964844 256 92.039062 256 92.117188 C 256 86.066406 260.90625 81.160156 266.957031 81.160156 C 269.816406 81.160156 272.417969 82.253906 274.367188 84.050781 C 274.816406 84.460938 275.234375 84.914062 275.609375 85.398438 C 279.488281 89.914062 281.832031 95.789062 281.832031 102.207031 Z M 281.832031 102.207031 " style=" stroke:none;fill-rule:nonzero;fill:rgb(100%,39.215686%,46.666667%);fill-opacity:1;" />
<path d="M 281.832031 102.207031 C 281.832031 116.414062 270.359375 127.945312 256.171875 128.039062 C 247.023438 122.878906 240.84375 113.066406 240.84375 101.8125 C 240.84375 94.304688 243.597656 87.4375 248.144531 82.167969 C 248.265625 82.015625 248.386719 81.867188 248.515625 81.722656 C 252.796875 83.148438 255.90625 87.148438 256 91.890625 C 256.003906 91.964844 256.003906 92.039062 256.003906 92.117188 C 256.003906 86.066406 260.90625 81.160156 266.957031 81.160156 C 269.816406 81.160156 272.417969 82.253906 274.367188 84.050781 C 274.820312 84.460938 275.234375 84.914062 275.609375 85.398438 C 279.488281 89.914062 281.832031 95.789062 281.832031 102.207031 Z M 281.832031 102.207031 " style=" stroke:none;fill-rule:nonzero;fill:rgb(89.803922%,16.078431%,16.078431%);fill-opacity:1;" />
<path d="M 281.832031 102.207031 C 281.832031 116.472656 270.265625 128.039062 256 128.039062 L 256 91.890625 C 256.003906 91.964844 256.003906 92.039062 256.003906 92.117188 C 256.003906 86.066406 260.90625 81.160156 266.957031 81.160156 C 269.816406 81.160156 272.417969 82.253906 274.367188 84.050781 C 274.820312 84.460938 275.234375 84.914062 275.609375 85.398438 C 279.488281 89.914062 281.832031 95.789062 281.832031 102.207031 Z M 281.832031 102.207031 " style=" stroke:none;fill-rule:nonzero;fill:rgb(72.941176%,5.098039%,36.078431%);fill-opacity:1;" />
<path d="M 319.121094 145.550781 C 319.109375 145.789062 319.089844 146.039062 319.070312 146.28125 C 319.03125 146.761719 318.96875 147.238281 318.890625 147.710938 C 318.828125 148.070312 318.769531 148.429688 318.691406 148.789062 C 318.621094 149.121094 318.539062 149.460938 318.460938 149.789062 C 318.441406 149.871094 318.421875 149.941406 318.398438 150.011719 C 318.308594 150.351562 318.21875 150.671875 318.109375 151 C 318.101562 151.03125 318.089844 151.070312 318.078125 151.101562 C 317.980469 151.429688 317.859375 151.75 317.738281 152.070312 C 317.640625 152.339844 317.539062 152.601562 317.421875 152.859375 C 317.351562 153.050781 317.269531 153.230469 317.179688 153.421875 C 317.160156 153.488281 317.128906 153.550781 317.089844 153.621094 C 316.988281 153.851562 316.878906 154.070312 316.769531 154.289062 C 316.601562 154.640625 316.410156 154.988281 316.210938 155.328125 C 316.070312 155.601562 315.910156 155.859375 315.75 156.109375 C 315.21875 156.980469 314.621094 157.800781 313.96875 158.578125 C 313.800781 158.789062 313.621094 159 313.441406 159.199219 C 313.050781 159.640625 312.648438 160.058594 312.230469 160.460938 C 312.019531 160.660156 311.808594 160.851562 311.601562 161.050781 C 311.171875 161.429688 310.730469 161.789062 310.28125 162.140625 C 310.050781 162.320312 309.820312 162.488281 309.578125 162.648438 C 309.109375 162.980469 308.628906 163.289062 308.140625 163.589844 C 307.890625 163.738281 307.640625 163.890625 307.378906 164.019531 C 306.871094 164.300781 306.351562 164.558594 305.820312 164.800781 C 305.289062 165.039062 304.738281 165.261719 304.191406 165.460938 L 256 175.351562 L 256 151.558594 L 318.429688 138.308594 C 318.441406 138.351562 318.449219 138.398438 318.460938 138.441406 C 318.609375 139.039062 318.738281 139.640625 318.851562 140.261719 C 318.878906 140.441406 318.910156 140.621094 318.929688 140.808594 C 318.960938 141.019531 318.988281 141.238281 319.019531 141.449219 C 319.050781 141.738281 319.078125 142.019531 319.101562 142.308594 C 319.191406 143.410156 319.199219 144.488281 319.121094 145.550781 Z M 319.121094 145.550781 " style=" stroke:none;fill-rule:nonzero;fill:rgb(78.039216%,85.098039%,100%);fill-opacity:1;" />
</g>
</svg>