<svg xmlns="http://www.w3.org/2000/svg" height="512pt" version="1.1" viewBox="0 0 512 512" width="512pt">
<g id="surface1">
<path d="M 512 256 C 512 397.386719 397.386719 512 256 512 C 114.613281 512 0 397.386719 0 256 C 0 114.613281 114.613281 0 256 0 C 397.386719 0 512 114.613281 512 256 Z M 512 256 " style=" stroke:none;fill-rule:nonzero;fill:rgb(40.784314%,98.823529%,87.45098%);fill-opacity:1;" />
<path d="M 512 256 C 512 282.050781 508.109375 307.191406 500.871094 330.871094 C 468.859375 435.71875 371.328125 512 256 512 C 151.441406 512 61.511719 449.300781 21.769531 359.449219 C 7.769531 327.820312 0 292.820312 0 256 C 0 209.78125 12.25 166.429688 33.679688 129 C 77.800781 206.070312 160.839844 258 256 258 C 351.160156 258 434.210938 206.070312 478.320312 129 C 499.75 166.429688 512 209.78125 512 256 Z M 512 256 " style=" stroke:none;fill-rule:nonzero;fill:rgb(6.27451%,88.627451%,76.862745%);fill-opacity:1;" />
<path d="M 30.742188 377.703125 C 37.898438 390.921875 46.171875 403.441406 55.460938 415.128906 C 102.359375 474.148438 174.761719 512 256 512 C 337.238281 512 409.640625 474.148438 456.539062 415.128906 C 465.828125 403.441406 474.101562 390.921875 481.257812 377.703125 Z M 30.742188 377.703125 " style=" stroke:none;fill-rule:nonzero;fill:rgb(10.196078%,72.941176%,62.352941%);fill-opacity:1;" />
<path d="M 470.371094 116.011719 L 228.03125 116.011719 L 228.03125 80.371094 L 442.25 80.371094 C 447.628906 86.070312 452.75 92.011719 457.589844 98.191406 C 462.089844 103.941406 466.359375 109.878906 470.371094 116.011719 Z M 470.371094 116.011719 " style=" stroke:none;fill-rule:nonzero;fill:rgb(65.098039%,22.352941%,7.843137%);fill-opacity:1;" />
<path d="M 470.371094 116.011719 L 228.03125 116.011719 L 228.03125 98.191406 L 457.589844 98.191406 C 462.089844 103.941406 466.359375 109.878906 470.371094 116.011719 Z M 470.371094 116.011719 " style=" stroke:none;fill-rule:nonzero;fill:rgb(47.843137%,17.647059%,10.196078%);fill-opacity:1;" />
<path d="M 239.878906 57.445312 L 239.878906 138.9375 C 239.878906 148.132812 232.425781 155.582031 223.234375 155.582031 C 214.039062 155.582031 206.585938 148.132812 206.585938 138.9375 L 206.585938 57.445312 C 206.585938 48.25 214.039062 40.792969 223.234375 40.792969 C 227.828125 40.792969 231.992188 42.660156 235.003906 45.667969 C 238.019531 48.683594 239.878906 52.84375 239.878906 57.445312 Z M 239.878906 57.445312 " style=" stroke:none;fill-rule:nonzero;fill:rgb(100%,91.372549%,33.333333%);fill-opacity:1;" />
<path d="M 273.175781 40.539062 L 273.175781 155.839844 C 273.175781 165.035156 265.722656 172.488281 256.527344 172.488281 C 247.335938 172.488281 239.878906 165.035156 239.878906 155.839844 L 239.878906 40.539062 C 239.878906 31.34375 247.335938 23.890625 256.527344 23.890625 C 261.125 23.890625 265.285156 25.753906 268.300781 28.765625 C 271.308594 31.777344 273.175781 35.9375 273.175781 40.539062 Z M 273.175781 40.539062 " style=" stroke:none;fill-rule:nonzero;fill:rgb(100%,62.352941%,0%);fill-opacity:1;" />
<path d="M 306.46875 40.539062 L 306.46875 155.839844 C 306.46875 165.035156 299.015625 172.488281 289.820312 172.488281 C 280.628906 172.488281 273.175781 165.035156 273.175781 155.839844 L 273.175781 40.539062 C 273.175781 31.34375 280.625 23.890625 289.820312 23.890625 C 294.417969 23.890625 298.582031 25.753906 301.59375 28.765625 C 304.605469 31.777344 306.46875 35.9375 306.46875 40.539062 Z M 306.46875 40.539062 " style=" stroke:none;fill-rule:nonzero;fill:rgb(100%,91.372549%,33.333333%);fill-opacity:1;" />
<path d="M 339.761719 57.445312 L 339.761719 138.9375 C 339.761719 148.132812 332.308594 155.582031 323.113281 155.582031 C 313.921875 155.582031 306.46875 148.132812 306.46875 138.9375 L 306.46875 57.445312 C 306.46875 48.25 313.921875 40.792969 323.113281 40.792969 C 327.710938 40.792969 331.875 42.660156 334.886719 45.667969 C 337.902344 48.683594 339.761719 52.84375 339.761719 57.445312 Z M 339.761719 57.445312 " style=" stroke:none;fill-rule:nonzero;fill:rgb(100%,62.352941%,0%);fill-opacity:1;" />
<path d="M 339.761719 57.445312 L 339.761719 138.9375 C 339.761719 148.132812 332.308594 155.582031 323.113281 155.582031 L 323.113281 40.792969 C 327.710938 40.792969 331.875 42.660156 334.886719 45.667969 C 337.902344 48.683594 339.761719 52.84375 339.761719 57.445312 Z M 339.761719 57.445312 " style=" stroke:none;fill-rule:nonzero;fill:rgb(77.254902%,34.509804%,20.784314%);fill-opacity:1;" />
<path d="M 239.878906 57.445312 L 239.878906 138.9375 C 239.878906 148.132812 232.425781 155.582031 223.234375 155.582031 L 223.234375 40.792969 C 227.828125 40.792969 231.992188 42.660156 235.003906 45.667969 C 238.019531 48.683594 239.878906 52.84375 239.878906 57.445312 Z M 239.878906 57.445312 " style=" stroke:none;fill-rule:nonzero;fill:rgb(100%,81.960784%,7.058824%);fill-opacity:1;" />
<path d="M 306.46875 40.539062 L 306.46875 155.839844 C 306.46875 165.035156 299.015625 172.488281 289.820312 172.488281 L 289.820312 23.890625 C 294.417969 23.890625 298.582031 25.753906 301.59375 28.765625 C 304.605469 31.777344 306.46875 35.9375 306.46875 40.539062 Z M 306.46875 40.539062 " style=" stroke:none;fill-rule:nonzero;fill:rgb(100%,81.960784%,7.058824%);fill-opacity:1;" />
<path d="M 273.175781 40.539062 L 273.175781 155.839844 C 273.175781 165.035156 265.722656 172.488281 256.527344 172.488281 L 256.527344 23.890625 C 261.125 23.890625 265.285156 25.753906 268.300781 28.765625 C 271.308594 31.777344 273.175781 35.9375 273.175781 40.539062 Z M 273.175781 40.539062 " style=" stroke:none;fill-rule:nonzero;fill:rgb(77.254902%,34.509804%,20.784314%);fill-opacity:1;" />
<path d="M 237.941406 181.578125 L 237.941406 218.398438 C 237.941406 227.058594 230.921875 234.070312 222.269531 234.070312 C 213.621094 234.070312 206.601562 227.058594 206.601562 218.398438 L 206.601562 181.578125 C 206.601562 172.929688 213.621094 165.921875 222.269531 165.921875 C 230.921875 165.921875 237.941406 172.929688 237.941406 181.578125 Z M 237.941406 181.578125 " style=" stroke:none;fill-rule:nonzero;fill:rgb(100%,91.372549%,33.333333%);fill-opacity:1;" />
<path d="M 237.941406 181.578125 L 237.941406 218.398438 C 237.941406 227.058594 230.921875 234.070312 222.269531 234.070312 L 222.269531 165.921875 C 230.921875 165.921875 237.941406 172.929688 237.941406 181.578125 Z M 237.941406 181.578125 " style=" stroke:none;fill-rule:nonzero;fill:rgb(100%,81.960784%,7.058824%);fill-opacity:1;" />
<path d="M 305.929688 198.65625 L 305.929688 210.496094 C 305.929688 219.035156 299.078125 225.988281 290.578125 226.15625 C 281.789062 226.335938 274.589844 218.96875 274.589844 210.167969 L 274.589844 198.976562 C 274.589844 190.1875 281.789062 182.816406 290.578125 182.988281 C 299.078125 183.15625 305.929688 190.105469 305.929688 198.65625 Z M 305.929688 198.65625 " style=" stroke:none;fill-rule:nonzero;fill:rgb(100%,62.352941%,0%);fill-opacity:1;" />
<path d="M 305.929688 198.65625 L 305.929688 210.496094 C 305.929688 219.035156 299.078125 225.988281 290.578125 226.15625 L 290.578125 182.988281 C 299.078125 183.15625 305.929688 190.105469 305.929688 198.65625 Z M 305.929688 198.65625 " style=" stroke:none;fill-rule:nonzero;fill:rgb(77.254902%,34.509804%,20.784314%);fill-opacity:1;" />
<path d="M 376.46875 339.308594 L 376.46875 481.929688 C 340.558594 501.121094 299.550781 512 256 512 C 231.351562 512 207.519531 508.519531 184.96875 502.011719 C 167.671875 497.03125 151.121094 490.261719 135.53125 481.929688 L 135.53125 339.308594 C 135.53125 339.078125 135.53125 338.859375 135.539062 338.628906 C 135.738281 326.5 141.261719 315.070312 150.671875 307.378906 L 165.730469 295.078125 L 165.730469 259.191406 L 346.269531 259.191406 L 346.269531 295.078125 L 361.328125 307.378906 C 362.359375 308.21875 363.351562 309.109375 364.28125 310.039062 C 364.429688 310.191406 364.578125 310.339844 364.730469 310.488281 C 365 310.769531 365.261719 311.039062 365.519531 311.320312 C 365.78125 311.601562 366.03125 311.890625 366.28125 312.171875 C 366.789062 312.75 367.269531 313.328125 367.738281 313.929688 C 368.199219 314.53125 368.648438 315.140625 369.078125 315.761719 C 369.300781 316.070312 369.511719 316.390625 369.71875 316.699219 C 370.140625 317.339844 370.53125 317.980469 370.910156 318.628906 C 371.101562 318.960938 371.28125 319.289062 371.460938 319.621094 C 372.378906 321.300781 373.179688 323.050781 373.851562 324.851562 C 373.96875 325.171875 374.089844 325.5 374.199219 325.828125 C 374.328125 326.179688 374.441406 326.539062 374.550781 326.890625 C 374.640625 327.160156 374.71875 327.429688 374.800781 327.699219 C 374.871094 327.929688 374.929688 328.160156 374.988281 328.398438 C 375.058594 328.628906 375.128906 328.859375 375.179688 329.101562 C 375.269531 329.441406 375.351562 329.78125 375.429688 330.121094 C 375.488281 330.378906 375.550781 330.640625 375.601562 330.898438 C 375.648438 331.128906 375.699219 331.371094 375.738281 331.601562 C 375.789062 331.828125 375.828125 332.058594 375.859375 332.289062 C 375.910156 332.53125 375.949219 332.769531 375.980469 333.011719 C 376.03125 333.339844 376.078125 333.671875 376.121094 334 C 376.140625 334.089844 376.148438 334.179688 376.160156 334.28125 C 376.199219 334.601562 376.230469 334.921875 376.261719 335.238281 C 376.300781 335.609375 376.328125 335.980469 376.359375 336.351562 C 376.359375 336.351562 376.359375 336.359375 376.359375 336.371094 C 376.390625 336.710938 376.398438 337.050781 376.421875 337.378906 C 376.441406 337.789062 376.460938 338.210938 376.460938 338.628906 C 376.46875 338.859375 376.46875 339.078125 376.46875 339.308594 Z M 376.46875 339.308594 " style=" stroke:none;fill-rule:nonzero;fill:rgb(100%,100%,100%);fill-opacity:1;" />
<path d="M 376.46875 339.308594 L 376.46875 481.929688 C 340.558594 501.121094 299.550781 512 256 512 C 231.351562 512 207.519531 508.519531 184.96875 502.011719 L 184.96875 339.308594 C 184.96875 339.078125 184.96875 338.859375 184.980469 338.628906 C 185.179688 326.5 190.710938 315.070312 200.109375 307.378906 L 215.171875 295.078125 L 215.171875 259.191406 L 346.269531 259.191406 L 346.269531 295.078125 L 361.328125 307.378906 C 362.359375 308.21875 363.351562 309.109375 364.28125 310.039062 C 364.429688 310.191406 364.578125 310.339844 364.730469 310.488281 C 365 310.769531 365.261719 311.039062 365.519531 311.320312 C 365.78125 311.601562 366.03125 311.890625 366.28125 312.171875 C 366.789062 312.75 367.269531 313.328125 367.738281 313.929688 C 368.199219 314.53125 368.648438 315.140625 369.078125 315.761719 C 369.300781 316.070312 369.511719 316.390625 369.71875 316.699219 C 370.140625 317.339844 370.53125 317.980469 370.910156 318.628906 C 371.101562 318.960938 371.28125 319.289062 371.460938 319.621094 C 372.378906 321.300781 373.179688 323.050781 373.851562 324.851562 C 373.96875 325.171875 374.089844 325.5 374.199219 325.828125 C 374.328125 326.179688 374.441406 326.539062 374.550781 326.890625 C 374.640625 327.160156 374.71875 327.429688 374.800781 327.699219 C 374.871094 327.929688 374.929688 328.160156 374.988281 328.398438 C 375.058594 328.628906 375.128906 328.859375 375.179688 329.101562 C 375.269531 329.441406 375.351562 329.78125 375.429688 330.121094 C 375.488281 330.378906 375.550781 330.640625 375.601562 330.898438 C 375.648438 331.128906 375.699219 331.371094 375.738281 331.601562 C 375.789062 331.828125 375.828125 332.058594 375.859375 332.289062 C 375.910156 332.53125 375.949219 332.769531 375.980469 333.011719 C 376.03125 333.339844 376.078125 333.671875 376.121094 334 C 376.140625 334.089844 376.148438 334.179688 376.160156 334.28125 C 376.199219 334.601562 376.230469 334.921875 376.261719 335.238281 C 376.300781 335.609375 376.328125 335.980469 376.359375 336.351562 C 376.359375 336.351562 376.359375 336.359375 376.359375 336.371094 C 376.390625 336.710938 376.398438 337.050781 376.421875 337.378906 C 376.441406 337.789062 376.460938 338.210938 376.460938 338.628906 C 376.46875 338.859375 376.46875 339.078125 376.46875 339.308594 Z M 376.46875 339.308594 " style=" stroke:none;fill-rule:nonzero;fill:rgb(92.156863%,94.117647%,95.294118%);fill-opacity:1;" />
<path d="M 376.46875 339.308594 L 376.46875 481.929688 C 340.558594 501.121094 299.550781 512 256 512 L 256 259.191406 L 346.269531 259.191406 L 346.269531 295.078125 L 361.328125 307.378906 C 362.359375 308.21875 363.351562 309.109375 364.28125 310.039062 C 364.429688 310.191406 364.578125 310.339844 364.730469 310.488281 C 365 310.769531 365.261719 311.039062 365.519531 311.320312 C 365.78125 311.601562 366.03125 311.890625 366.28125 312.171875 C 366.789062 312.75 367.269531 313.328125 367.738281 313.929688 C 368.199219 314.53125 368.648438 315.140625 369.078125 315.761719 C 369.300781 316.070312 369.511719 316.390625 369.71875 316.699219 C 370.140625 317.339844 370.53125 317.980469 370.910156 318.628906 C 371.101562 318.960938 371.28125 319.289062 371.460938 319.621094 C 372.378906 321.300781 373.179688 323.050781 373.851562 324.851562 C 373.96875 325.171875 374.089844 325.5 374.199219 325.828125 C 374.328125 326.179688 374.441406 326.539062 374.550781 326.890625 C 374.640625 327.160156 374.71875 327.429688 374.800781 327.699219 C 374.871094 327.929688 374.929688 328.160156 374.988281 328.398438 C 375.058594 328.628906 375.128906 328.859375 375.179688 329.101562 C 375.269531 329.441406 375.351562 329.78125 375.429688 330.121094 C 375.488281 330.378906 375.550781 330.640625 375.601562 330.898438 C 375.648438 331.128906 375.699219 331.371094 375.738281 331.601562 C 375.789062 331.828125 375.828125 332.058594 375.859375 332.289062 C 375.910156 332.53125 375.949219 332.769531 375.980469 333.011719 C 376.03125 333.339844 376.078125 333.671875 376.121094 334 C 376.140625 334.089844 376.148438 334.179688 376.160156 334.28125 C 376.199219 334.601562 376.230469 334.921875 376.261719 335.238281 C 376.300781 335.609375 376.328125 335.980469 376.359375 336.351562 C 376.359375 336.351562 376.359375 336.359375 376.359375 336.371094 C 376.390625 336.710938 376.398438 337.050781 376.421875 337.378906 C 376.441406 337.789062 376.460938 338.210938 376.460938 338.628906 C 376.46875 338.859375 376.46875 339.078125 376.46875 339.308594 Z M 376.46875 339.308594 " style=" stroke:none;fill-rule:nonzero;fill:rgb(78.039216%,85.098039%,100%);fill-opacity:1;" />
<path d="M 165.199219 412.367188 L 346.800781 412.367188 L 346.800781 482.332031 L 165.199219 482.332031 Z M 165.199219 412.367188 " style=" stroke:none;fill-rule:nonzero;fill:rgb(100%,91.372549%,33.333333%);fill-opacity:1;" />
<path d="M 184.96875 412.367188 L 346.800781 412.367188 L 346.800781 482.332031 L 184.96875 482.332031 Z M 184.96875 412.367188 " style=" stroke:none;fill-rule:nonzero;fill:rgb(100%,81.960784%,7.058824%);fill-opacity:1;" />
<path d="M 256 412.367188 L 346.800781 412.367188 L 346.800781 482.332031 L 256 482.332031 Z M 256 412.367188 " style=" stroke:none;fill-rule:nonzero;fill:rgb(100%,62.352941%,0%);fill-opacity:1;" />
<path d="M 376.46875 339.304688 L 376.46875 369.195312 L 135.53125 369.195312 L 135.53125 339.304688 C 135.53125 339.078125 135.53125 338.855469 135.539062 338.632812 L 376.460938 338.632812 C 376.46875 338.855469 376.46875 339.078125 376.46875 339.304688 Z M 376.46875 339.304688 " style=" stroke:none;fill-rule:nonzero;fill:rgb(100%,83.137255%,0%);fill-opacity:1;" />
<path d="M 376.46875 339.304688 L 376.46875 369.195312 L 184.96875 369.195312 L 184.96875 339.304688 C 184.96875 339.078125 184.96875 338.855469 184.976562 338.632812 L 376.460938 338.632812 C 376.46875 338.855469 376.46875 339.078125 376.46875 339.304688 Z M 376.46875 339.304688 " style=" stroke:none;fill-rule:nonzero;fill:rgb(100%,62.352941%,0.392157%);fill-opacity:1;" />
<path d="M 181.382812 458.058594 C 181.382812 461.285156 178.765625 463.902344 175.539062 463.902344 C 172.308594 463.902344 169.695312 461.285156 169.695312 458.058594 C 169.695312 454.832031 172.308594 452.214844 175.539062 452.214844 C 178.765625 452.214844 181.382812 454.832031 181.382812 458.058594 Z M 181.382812 458.058594 " style=" stroke:none;fill-rule:nonzero;fill:rgb(100%,100%,100%);fill-opacity:1;" />
<path d="M 238.46875 458.957031 C 238.46875 462.1875 235.855469 464.800781 232.625 464.800781 C 229.398438 464.800781 226.78125 462.1875 226.78125 458.957031 C 226.78125 455.730469 229.398438 453.113281 232.625 453.113281 C 235.855469 453.113281 238.46875 455.730469 238.46875 458.957031 Z M 238.46875 458.957031 " style=" stroke:none;fill-rule:nonzero;fill:rgb(100%,100%,100%);fill-opacity:1;" />
<path d="M 304.546875 425.695312 C 304.546875 428.921875 301.929688 431.539062 298.703125 431.539062 C 295.476562 431.539062 292.859375 428.921875 292.859375 425.695312 C 292.859375 422.46875 295.476562 419.851562 298.703125 419.851562 C 301.929688 419.851562 304.546875 422.46875 304.546875 425.695312 Z M 304.546875 425.695312 " style=" stroke:none;fill-rule:nonzero;fill:rgb(100%,100%,100%);fill-opacity:1;" />
<path d="M 335.113281 457.609375 C 335.113281 460.835938 332.496094 463.453125 329.269531 463.453125 C 326.042969 463.453125 323.425781 460.835938 323.425781 457.609375 C 323.425781 454.382812 326.042969 451.765625 329.269531 451.765625 C 332.496094 451.765625 335.113281 454.382812 335.113281 457.609375 Z M 335.113281 457.609375 " style=" stroke:none;fill-rule:nonzero;fill:rgb(100%,100%,100%);fill-opacity:1;" />
<path d="M 293.308594 457.609375 C 293.308594 460.835938 290.691406 463.453125 287.464844 463.453125 C 284.238281 463.453125 281.621094 460.835938 281.621094 457.609375 C 281.621094 454.382812 284.238281 451.765625 287.464844 451.765625 C 290.691406 451.765625 293.308594 454.382812 293.308594 457.609375 Z M 293.308594 457.609375 " style=" stroke:none;fill-rule:nonzero;fill:rgb(100%,100%,100%);fill-opacity:1;" />
<path d="M 209.699219 438.28125 C 209.699219 441.507812 207.085938 444.125 203.855469 444.125 C 200.628906 444.125 198.011719 441.507812 198.011719 438.28125 C 198.011719 435.054688 200.628906 432.4375 203.855469 432.4375 C 207.085938 432.4375 209.699219 435.054688 209.699219 438.28125 Z M 209.699219 438.28125 " style=" stroke:none;fill-rule:nonzero;fill:rgb(100%,100%,100%);fill-opacity:1;" />
<path d="M 376.46875 339.304688 L 376.46875 369.195312 L 256 369.195312 L 256 338.632812 L 376.460938 338.632812 C 376.46875 338.855469 376.46875 339.078125 376.46875 339.304688 Z M 376.46875 339.304688 " style=" stroke:none;fill-rule:nonzero;fill:rgb(77.254902%,34.509804%,20.784314%);fill-opacity:1;" />
</g>
</svg>