<svg xmlns="http://www.w3.org/2000/svg" height="512pt" version="1.1" viewBox="0 0 512 512" width="512pt">
<g id="surface1">
<path d="M 512 256 C 512 397.386719 397.386719 512 256 512 C 114.613281 512 0 397.386719 0 256 C 0 114.613281 114.613281 0 256 0 C 397.386719 0 512 114.613281 512 256 Z M 512 256 " style=" stroke:none;fill-rule:nonzero;fill:rgb(61.960784%,41.176471%,88.627451%);fill-opacity:1;" />
<path d="M 512 256 C 512 282.050781 508.109375 307.191406 500.871094 330.871094 C 470.160156 431.449219 379.171875 505.738281 270 511.621094 C 265.371094 511.871094 260.699219 512 256 512 C 251.300781 512 246.628906 511.871094 242 511.621094 C 143.460938 506.308594 59.71875 445.261719 21.769531 359.449219 C 7.769531 327.820312 0 292.820312 0 256 C 0 209.78125 12.25 166.429688 33.679688 129 C 75.621094 202.269531 152.738281 252.808594 242 257.621094 C 246.628906 257.871094 251.300781 258 256 258 C 260.699219 258 265.371094 257.871094 270 257.621094 C 359.261719 252.808594 436.390625 202.269531 478.320312 129 C 499.75 166.429688 512 209.78125 512 256 Z M 512 256 " style=" stroke:none;fill-rule:nonzero;fill:rgb(55.686275%,30.980392%,82.352941%);fill-opacity:1;" />
<path d="M 30.742188 377.703125 C 37.898438 390.921875 46.171875 403.441406 55.460938 415.128906 C 102.359375 474.148438 174.761719 512 256 512 C 337.238281 512 409.640625 474.148438 456.539062 415.128906 C 465.828125 403.441406 474.101562 390.921875 481.257812 377.703125 Z M 30.742188 377.703125 " style=" stroke:none;fill-rule:nonzero;fill:rgb(19.607843%,23.137255%,35.294118%);fill-opacity:1;" />
<path d="M 270 179 L 270 511.621094 C 265.371094 511.871094 260.699219 512 256 512 C 251.300781 512 246.628906 511.871094 242 511.621094 L 242 179 Z M 270 179 " style=" stroke:none;fill-rule:nonzero;fill:rgb(100%,65.882353%,47.843137%);fill-opacity:1;" />
<path d="M 242 179 L 270 179 L 270 439 L 242 439 Z M 242 179 " style=" stroke:none;fill-rule:nonzero;fill:rgb(91.764706%,50.980392%,30.588235%);fill-opacity:1;" />
<path d="M 332.050781 112.523438 L 332.050781 195.464844 C 332.050781 213.953125 317.0625 228.945312 298.570312 228.945312 L 213.429688 228.945312 C 194.9375 228.945312 179.949219 213.953125 179.949219 195.464844 L 179.949219 112.523438 C 179.949219 94.035156 194.9375 79.046875 213.429688 79.046875 L 298.570312 79.046875 C 317.0625 79.046875 332.050781 94.035156 332.050781 112.523438 Z M 332.050781 112.523438 " style=" stroke:none;fill-rule:nonzero;fill:rgb(100%,100%,100%);fill-opacity:1;" />
<path d="M 332.050781 112.523438 L 332.050781 195.464844 C 332.050781 213.953125 317.0625 228.945312 298.570312 228.945312 L 248.699219 228.945312 C 230.210938 228.945312 215.21875 213.953125 215.21875 195.464844 L 215.21875 112.523438 C 215.21875 94.035156 230.210938 79.046875 248.699219 79.046875 L 298.570312 79.046875 C 317.0625 79.046875 332.050781 94.035156 332.050781 112.523438 Z M 332.050781 112.523438 " style=" stroke:none;fill-rule:nonzero;fill:rgb(92.156863%,94.117647%,95.294118%);fill-opacity:1;" />
<path d="M 332.050781 112.523438 L 332.050781 195.464844 C 332.050781 213.953125 317.0625 228.945312 298.570312 228.945312 L 259.304688 228.945312 L 259.304688 79.046875 L 298.570312 79.046875 C 317.0625 79.046875 332.050781 94.035156 332.050781 112.523438 Z M 332.050781 112.523438 " style=" stroke:none;fill-rule:nonzero;fill:rgb(78.039216%,85.098039%,100%);fill-opacity:1;" />
<path d="M 332.050781 291.523438 L 332.050781 374.464844 C 332.050781 392.953125 317.0625 407.945312 298.570312 407.945312 L 213.429688 407.945312 C 194.9375 407.945312 179.949219 392.953125 179.949219 374.464844 L 179.949219 291.523438 C 179.949219 273.035156 194.9375 258.046875 213.429688 258.046875 L 298.570312 258.046875 C 317.0625 258.046875 332.050781 273.035156 332.050781 291.523438 Z M 332.050781 291.523438 " style=" stroke:none;fill-rule:nonzero;fill:rgb(100%,100%,100%);fill-opacity:1;" />
<path d="M 332.050781 291.523438 L 332.050781 374.464844 C 332.050781 392.953125 317.0625 407.945312 298.570312 407.945312 L 248.699219 407.945312 C 230.210938 407.945312 215.21875 392.953125 215.21875 374.464844 L 215.21875 291.523438 C 215.21875 273.035156 230.210938 258.046875 248.699219 258.046875 L 298.570312 258.046875 C 317.0625 258.046875 332.050781 273.035156 332.050781 291.523438 Z M 332.050781 291.523438 " style=" stroke:none;fill-rule:nonzero;fill:rgb(92.156863%,94.117647%,95.294118%);fill-opacity:1;" />
<path d="M 332.050781 291.523438 L 332.050781 374.464844 C 332.050781 392.953125 317.0625 407.945312 298.570312 407.945312 L 259.304688 407.945312 L 259.304688 258.046875 L 298.570312 258.046875 C 317.0625 258.046875 332.050781 273.035156 332.050781 291.523438 Z M 332.050781 291.523438 " style=" stroke:none;fill-rule:nonzero;fill:rgb(78.039216%,85.098039%,100%);fill-opacity:1;" />
</g>
</svg>