<svg xmlns="http://www.w3.org/2000/svg" height="512pt" version="1.1" viewBox="0 0 512 512" width="512pt">
<g id="surface1">
<path d="M 512 256 C 512 397.386719 397.386719 512 256 512 C 114.613281 512 0 397.386719 0 256 C 0 114.613281 114.613281 0 256 0 C 397.386719 0 512 114.613281 512 256 Z M 512 256 " style=" stroke:none;fill-rule:nonzero;fill:rgb(39.607843%,69.803922%,100%);fill-opacity:1;" />
<path d="M 512 256 C 512 282.050781 508.109375 307.191406 500.871094 330.871094 C 468.859375 435.71875 371.328125 512 256 512 C 151.441406 512 61.511719 449.300781 21.769531 359.449219 C 7.769531 327.820312 0 292.820312 0 256 C 0 209.78125 12.25 166.429688 33.679688 129 C 77.800781 206.070312 160.839844 258 256 258 C 351.160156 258 434.210938 206.070312 478.320312 129 C 499.75 166.429688 512 209.78125 512 256 Z M 512 256 " style=" stroke:none;fill-rule:nonzero;fill:rgb(5.882353%,60.784314%,90.980392%);fill-opacity:1;" />
<path d="M 30.742188 377.703125 C 37.898438 390.921875 46.171875 403.441406 55.460938 415.128906 C 102.359375 474.148438 174.761719 512 256 512 C 337.238281 512 409.640625 474.148438 456.539062 415.128906 C 465.828125 403.441406 474.101562 390.921875 481.257812 377.703125 Z M 30.742188 377.703125 " style=" stroke:none;fill-rule:nonzero;fill:rgb(0%,40%,90.980392%);fill-opacity:1;" />
<path d="M 438.898438 240.78125 L 438.898438 435.121094 C 392.429688 482.558594 327.648438 512 256 512 C 223.191406 512 191.808594 505.820312 162.980469 494.570312 C 128.851562 481.261719 98.289062 460.828125 73.101562 435.121094 L 73.101562 240.78125 Z M 438.898438 240.78125 " style=" stroke:none;fill-rule:nonzero;fill:rgb(77.254902%,34.509804%,20.784314%);fill-opacity:1;" />
<path d="M 438.898438 240.78125 L 438.898438 435.121094 C 392.429688 482.558594 327.648438 512 256 512 C 223.191406 512 191.808594 505.820312 162.980469 494.570312 L 162.980469 240.78125 Z M 438.898438 240.78125 " style=" stroke:none;fill-rule:nonzero;fill:rgb(65.098039%,22.352941%,7.843137%);fill-opacity:1;" />
<path d="M 438.898438 240.78125 L 438.898438 435.121094 C 392.429688 482.558594 327.648438 512 256 512 L 256 240.78125 Z M 438.898438 240.78125 " style=" stroke:none;fill-rule:nonzero;fill:rgb(47.843137%,17.647059%,10.196078%);fill-opacity:1;" />
<path d="M 438.898438 240.78125 L 438.898438 294.5 C 426.070312 298.058594 418.601562 285.828125 404.671875 292.640625 C 389.421875 300.101562 396.929688 315.441406 381.691406 322.890625 C 366.441406 330.351562 358.941406 315.019531 343.699219 322.480469 C 328.460938 329.929688 335.960938 345.269531 320.730469 352.730469 C 305.480469 360.179688 297.980469 344.851562 282.730469 352.308594 C 267.488281 359.769531 272.96875 383.429688 256 383.429688 C 239.03125 383.429688 244.511719 359.769531 229.269531 352.320312 C 214.03125 344.859375 206.53125 360.191406 191.289062 352.738281 C 176.050781 345.28125 183.550781 329.949219 168.308594 322.488281 C 166.421875 321.558594 164.660156 320.988281 162.980469 320.679688 C 151.089844 318.480469 143.671875 329.449219 130.328125 322.910156 C 115.078125 315.449219 122.589844 300.121094 107.339844 292.660156 C 93.398438 285.839844 85.929688 298.078125 73.101562 294.519531 L 73.101562 240.78125 Z M 438.898438 240.78125 " style=" stroke:none;fill-rule:nonzero;fill:rgb(100%,100%,100%);fill-opacity:1;" />
<path d="M 438.898438 240.78125 L 438.898438 294.5 C 426.070312 298.058594 418.601562 285.828125 404.671875 292.640625 C 389.421875 300.101562 396.929688 315.441406 381.691406 322.890625 C 366.441406 330.351562 358.941406 315.019531 343.699219 322.480469 C 328.460938 329.929688 335.960938 345.269531 320.730469 352.730469 C 305.480469 360.179688 297.980469 344.851562 282.730469 352.308594 C 267.488281 359.769531 272.96875 383.429688 256 383.429688 C 239.03125 383.429688 244.511719 359.769531 229.269531 352.320312 C 214.03125 344.859375 206.53125 360.191406 191.289062 352.738281 C 176.050781 345.28125 183.550781 329.949219 168.308594 322.488281 C 166.421875 321.558594 164.660156 320.988281 162.980469 320.679688 L 162.980469 240.78125 Z M 438.898438 240.78125 " style=" stroke:none;fill-rule:nonzero;fill:rgb(92.156863%,94.117647%,95.294118%);fill-opacity:1;" />
<path d="M 438.898438 240.78125 L 438.898438 294.5 C 426.070312 298.058594 418.601562 285.828125 404.671875 292.640625 C 389.421875 300.101562 396.929688 315.441406 381.691406 322.890625 C 366.441406 330.351562 358.941406 315.019531 343.699219 322.480469 C 328.460938 329.929688 335.960938 345.269531 320.730469 352.730469 C 305.480469 360.179688 297.980469 344.851562 282.730469 352.308594 C 267.488281 359.769531 272.96875 383.429688 256 383.429688 L 256 240.78125 Z M 438.898438 240.78125 " style=" stroke:none;fill-rule:nonzero;fill:rgb(78.039216%,85.098039%,100%);fill-opacity:1;" />
<path d="M 438.894531 240.777344 L 255.992188 327.628906 L 73.105469 240.777344 C 97.890625 215.988281 126.453125 197.296875 156.933594 184.679688 C 188.574219 171.566406 222.285156 165.019531 256 165.019531 C 322.195312 165.019531 388.390625 190.269531 438.894531 240.777344 Z M 438.894531 240.777344 " style=" stroke:none;fill-rule:nonzero;fill:rgb(97.647059%,63.529412%,74.901961%);fill-opacity:1;" />
<path d="M 438.898438 329.109375 L 438.898438 377.578125 L 256 467.078125 L 162.980469 421.570312 L 73.101562 377.601562 L 73.101562 329.140625 L 162.980469 373.109375 L 256 418.621094 Z M 438.898438 329.109375 " style=" stroke:none;fill-rule:nonzero;fill:rgb(100%,65.882353%,47.843137%);fill-opacity:1;" />
<path d="M 438.898438 329.109375 L 438.898438 377.578125 L 256 467.078125 L 162.980469 421.570312 L 162.980469 373.109375 L 256 418.621094 Z M 438.898438 329.109375 " style=" stroke:none;fill-rule:nonzero;fill:rgb(91.764706%,50.980392%,30.588235%);fill-opacity:1;" />
<path d="M 438.898438 329.109375 L 438.898438 377.578125 L 256 467.078125 L 256 418.621094 Z M 438.898438 329.109375 " style=" stroke:none;fill-rule:nonzero;fill:rgb(77.254902%,34.509804%,20.784314%);fill-opacity:1;" />
<path d="M 438.898438 344.5 L 438.898438 362.5 L 256 452.011719 L 162.980469 406.5 L 73.101562 362.519531 L 73.101562 344.53125 L 162.980469 388.5 L 256 434.011719 Z M 438.898438 344.5 " style=" stroke:none;fill-rule:nonzero;fill:rgb(100%,100%,100%);fill-opacity:1;" />
<path d="M 438.898438 344.5 L 438.898438 362.5 L 256 452.011719 L 162.980469 406.5 L 162.980469 388.5 L 256 434.011719 Z M 438.898438 344.5 " style=" stroke:none;fill-rule:nonzero;fill:rgb(92.156863%,94.117647%,95.294118%);fill-opacity:1;" />
<path d="M 438.898438 344.5 L 438.898438 362.5 L 256 452.011719 L 256 434.011719 Z M 438.898438 344.5 " style=" stroke:none;fill-rule:nonzero;fill:rgb(78.039216%,85.098039%,100%);fill-opacity:1;" />
<path d="M 438.894531 240.777344 L 255.992188 327.628906 L 163.03125 283.597656 L 156.933594 184.679688 C 188.574219 171.570312 222.285156 165.023438 256 165.023438 C 322.195312 165.019531 388.390625 190.269531 438.894531 240.777344 Z M 438.894531 240.777344 " style=" stroke:none;fill-rule:nonzero;fill:rgb(97.647059%,52.156863%,65.098039%);fill-opacity:1;" />
<path d="M 438.894531 240.777344 L 256 327.628906 L 256 165.019531 C 322.195312 165.019531 388.390625 190.269531 438.894531 240.777344 Z M 438.894531 240.777344 " style=" stroke:none;fill-rule:nonzero;fill:rgb(92.941176%,33.72549%,50.588235%);fill-opacity:1;" />
<path d="M 317.960938 221.738281 C 317.960938 198.589844 290.21875 179.820312 256 179.820312 C 221.78125 179.820312 194.039062 198.589844 194.039062 221.738281 C 194.039062 244.886719 221.78125 263.652344 256 263.652344 C 290.21875 263.652344 317.960938 244.886719 317.960938 221.738281 Z M 317.960938 221.738281 " style=" stroke:none;fill-rule:nonzero;fill:rgb(100%,100%,100%);fill-opacity:1;" />
<path d="M 317.960938 221.738281 C 317.960938 244.890625 290.21875 263.648438 256 263.648438 L 256 179.820312 C 290.21875 179.820312 317.960938 198.589844 317.960938 221.738281 Z M 317.960938 221.738281 " style=" stroke:none;fill-rule:nonzero;fill:rgb(92.156863%,94.117647%,95.294118%);fill-opacity:1;" />
<path d="M 258.8125 226.265625 L 226.308594 226.261719 C 223.769531 226.261719 221.472656 225.25 219.800781 223.601562 C 218.058594 221.898438 216.988281 219.507812 217.015625 216.878906 L 217.070312 211.378906 C 217.070312 211.371094 217.070312 211.371094 217.070312 211.371094 L 217.34375 184.796875 C 217.34375 161.699219 236.230469 143.011719 259.402344 143.335938 C 269.503906 143.472656 278.753906 147.273438 285.894531 153.460938 C 286.617188 154.085938 287.316406 154.738281 287.992188 155.410156 C 295.441406 162.808594 300.121094 172.988281 300.277344 184.207031 C 300.597656 207.378906 281.910156 226.265625 258.8125 226.265625 Z M 258.8125 226.265625 " style=" stroke:none;fill-rule:nonzero;fill:rgb(100%,20.392157%,27.058824%);fill-opacity:1;" />
<path d="M 258.8125 226.265625 L 226.308594 226.261719 C 223.769531 226.261719 221.472656 225.25 219.800781 223.601562 C 218.058594 221.898438 216.988281 219.507812 217.015625 216.878906 L 217.070312 211.378906 C 217.070312 211.371094 217.070312 211.371094 217.070312 211.371094 C 219.988281 178.496094 247.828125 152.78125 281.574219 153.253906 C 283.027344 153.273438 284.464844 153.34375 285.894531 153.460938 C 286.617188 154.085938 287.316406 154.738281 287.992188 155.40625 C 295.441406 162.804688 300.121094 172.988281 300.277344 184.207031 C 300.597656 207.378906 281.910156 226.265625 258.8125 226.265625 Z M 258.8125 226.265625 " style=" stroke:none;fill-rule:nonzero;fill:rgb(89.803922%,16.078431%,16.078431%);fill-opacity:1;" />
<path d="M 258.8125 226.265625 L 226.308594 226.261719 C 223.769531 226.261719 221.472656 225.25 219.800781 223.601562 L 287.992188 155.40625 C 295.441406 162.804688 300.121094 172.988281 300.277344 184.203125 C 300.597656 207.378906 281.910156 226.265625 258.8125 226.265625 Z M 258.8125 226.265625 " style=" stroke:none;fill-rule:nonzero;fill:rgb(72.941176%,5.098039%,36.078431%);fill-opacity:1;" />
<path d="M 290.824219 181.996094 C 286.949219 178.808594 284.191406 174.226562 283.382812 168.871094 C 282.894531 165.636719 283.175781 162.460938 284.074219 159.53125 C 283.980469 159.558594 283.886719 159.585938 283.785156 159.613281 C 280.941406 160.449219 277.867188 160.695312 274.738281 160.226562 C 269.382812 159.414062 264.800781 156.65625 261.609375 152.78125 C 265.800781 150.015625 270.992188 148.734375 276.351562 149.539062 C 277.371094 149.691406 278.363281 149.921875 279.328125 150.214844 C 279.035156 149.253906 278.808594 148.257812 278.65625 147.238281 C 277.847656 141.882812 279.128906 136.6875 281.898438 132.496094 C 285.773438 135.6875 288.53125 140.265625 289.335938 145.625 C 289.808594 148.738281 289.566406 151.796875 288.738281 154.636719 C 288.734375 154.640625 288.734375 154.640625 288.734375 154.640625 C 288.707031 154.75 288.675781 154.859375 288.644531 154.964844 C 291.578125 154.0625 294.75 153.78125 297.984375 154.269531 C 303.34375 155.078125 307.921875 157.835938 311.113281 161.710938 C 306.917969 164.476562 301.726562 165.761719 296.371094 164.953125 C 295.351562 164.796875 294.355469 164.570312 293.394531 164.277344 C 293.683594 165.242188 293.910156 166.234375 294.070312 167.257812 C 294.875 172.617188 293.589844 177.804688 290.824219 181.996094 Z M 290.824219 181.996094 " style=" stroke:none;fill-rule:nonzero;fill:rgb(58.431373%,83.921569%,0%);fill-opacity:1;" />
<path d="M 290.824219 181.996094 C 286.949219 178.808594 284.191406 174.226562 283.382812 168.871094 C 282.894531 165.636719 283.175781 162.460938 284.074219 159.53125 C 283.980469 159.558594 283.886719 159.585938 283.785156 159.613281 L 288.652344 154.746094 C 288.652344 154.746094 288.683594 154.710938 288.734375 154.640625 C 288.707031 154.746094 288.675781 154.855469 288.644531 154.960938 C 291.578125 154.058594 294.75 153.78125 297.984375 154.269531 C 303.34375 155.074219 307.921875 157.835938 311.113281 161.710938 C 306.917969 164.472656 301.726562 165.761719 296.371094 164.953125 C 295.351562 164.796875 294.355469 164.570312 293.394531 164.277344 C 293.683594 165.238281 293.910156 166.234375 294.070312 167.253906 C 294.875 172.617188 293.589844 177.804688 290.824219 181.996094 Z M 290.824219 181.996094 " style=" stroke:none;fill-rule:nonzero;fill:rgb(0%,62.745098%,25.882353%);fill-opacity:1;" />
</g>
</svg>