<svg xmlns="http://www.w3.org/2000/svg" height="512pt" version="1.1" viewBox="0 0 512 512" width="512pt">
<g id="surface1">
<path d="M 512 256 C 512 397.386719 397.386719 512 256 512 C 114.613281 512 0 397.386719 0 256 C 0 114.613281 114.613281 0 256 0 C 397.386719 0 512 114.613281 512 256 Z M 512 256 " style=" stroke:none;fill-rule:nonzero;fill:rgb(40.784314%,98.823529%,87.45098%);fill-opacity:1;" />
<path d="M 512 256 C 512 282.050781 508.109375 307.191406 500.871094 330.871094 C 468.859375 435.71875 371.328125 512 256 512 C 151.441406 512 61.511719 449.300781 21.769531 359.449219 C 7.769531 327.820312 0 292.820312 0 256 C 0 209.78125 12.25 166.429688 33.679688 129 C 77.800781 206.070312 160.839844 258 256 258 C 351.160156 258 434.210938 206.070312 478.320312 129 C 499.75 166.429688 512 209.78125 512 256 Z M 512 256 " style=" stroke:none;fill-rule:nonzero;fill:rgb(6.27451%,88.627451%,76.862745%);fill-opacity:1;" />
<path d="M 30.742188 377.703125 C 37.898438 390.921875 46.171875 403.441406 55.460938 415.128906 C 102.359375 474.148438 174.761719 512 256 512 C 337.238281 512 409.640625 474.148438 456.539062 415.128906 C 465.828125 403.441406 474.101562 390.921875 481.257812 377.703125 Z M 30.742188 377.703125 " style=" stroke:none;fill-rule:nonzero;fill:rgb(10.196078%,72.941176%,62.352941%);fill-opacity:1;" />
<path d="M 372.859375 229.449219 C 372.859375 293.941406 320.601562 346.21875 256.109375 346.289062 L 256 346.289062 C 191.460938 346.289062 139.140625 293.96875 139.140625 229.449219 C 139.140625 214.769531 141.851562 200.71875 146.800781 187.78125 C 163.570312 143.808594 206.140625 112.589844 256 112.589844 L 256.109375 112.589844 C 305.921875 112.640625 348.441406 143.839844 365.210938 187.78125 C 370.148438 200.71875 372.859375 214.769531 372.859375 229.449219 Z M 372.859375 229.449219 " style=" stroke:none;fill-rule:nonzero;fill:rgb(100%,100%,100%);fill-opacity:1;" />
<path d="M 372.859375 229.445312 C 372.859375 293.9375 320.605469 346.222656 256.113281 346.289062 C 216.015625 322.808594 189.085938 279.261719 189.085938 229.445312 C 189.085938 179.613281 216.015625 136.066406 256.113281 112.585938 C 320.605469 112.648438 372.859375 164.9375 372.859375 229.445312 Z M 372.859375 229.445312 " style=" stroke:none;fill-rule:nonzero;fill:rgb(92.156863%,94.117647%,95.294118%);fill-opacity:1;" />
<path d="M 372.859375 229.445312 C 372.859375 293.96875 320.539062 346.289062 256 346.289062 L 256 112.585938 C 320.539062 112.585938 372.859375 164.90625 372.859375 229.445312 Z M 372.859375 229.445312 " style=" stroke:none;fill-rule:nonzero;fill:rgb(78.039216%,85.098039%,100%);fill-opacity:1;" />
<path d="M 382 259 L 377.160156 282.351562 L 370.539062 314.238281 L 359.210938 368.910156 L 355.289062 387.820312 L 350.699219 409.960938 L 345.679688 434.160156 L 341.839844 452.640625 L 341.390625 454.828125 L 331.910156 500.550781 L 331.898438 500.558594 C 328.898438 501.488281 325.871094 502.371094 322.820312 503.191406 C 317.488281 504.628906 312.101562 505.898438 306.640625 506.988281 C 297.660156 508.789062 288.5 510.128906 279.199219 510.96875 C 272.570312 511.558594 265.871094 511.898438 259.109375 511.980469 C 258.070312 511.988281 257.039062 512 256 512 C 254.960938 512 253.929688 511.988281 252.890625 511.980469 C 246.128906 511.898438 239.429688 511.558594 232.800781 510.96875 C 229.308594 510.648438 225.839844 510.269531 222.398438 509.808594 C 216.648438 509.058594 210.96875 508.121094 205.359375 506.988281 C 199.898438 505.898438 194.511719 504.628906 189.179688 503.191406 C 186.128906 502.371094 183.101562 501.488281 180.101562 500.558594 L 170.609375 454.828125 L 161.300781 409.960938 L 156.710938 387.820312 L 152.789062 368.910156 L 141.460938 314.238281 L 134.839844 282.351562 L 130 259 Z M 382 259 " style=" stroke:none;fill-rule:nonzero;fill:rgb(100%,65.882353%,47.843137%);fill-opacity:1;" />
<path d="M 382 259 L 377.160156 282.351562 L 370.539062 314.238281 L 359.210938 368.910156 L 355.289062 387.820312 L 350.699219 409.960938 L 350.691406 409.96875 L 345.679688 434.160156 L 341.839844 452.640625 L 341.390625 454.828125 L 331.910156 500.550781 L 331.898438 500.558594 C 328.898438 501.488281 325.871094 502.371094 322.820312 503.191406 C 317.488281 504.628906 312.101562 505.898438 306.640625 506.988281 C 297.660156 508.789062 288.5 510.128906 279.199219 510.96875 C 272.570312 511.558594 265.871094 511.898438 259.109375 511.980469 C 258.070312 511.988281 257.039062 512 256 512 C 254.960938 512 253.929688 511.988281 252.890625 511.980469 C 246.128906 511.898438 239.429688 511.558594 232.800781 510.96875 C 229.308594 510.648438 225.839844 510.269531 222.398438 509.808594 L 220.859375 496.25 L 217.671875 468.078125 L 211.660156 415.089844 L 211.660156 415.078125 L 206.648438 370.851562 L 202.398438 333.300781 L 202.21875 331.730469 L 199.859375 310.890625 L 197.269531 288.058594 L 197.269531 288.050781 L 196.148438 278.148438 L 195.199219 269.789062 L 195.199219 269.78125 L 194.148438 260.46875 L 194.148438 260.460938 L 193.980469 259 Z M 382 259 " style=" stroke:none;fill-rule:nonzero;fill:rgb(91.764706%,50.980392%,30.588235%);fill-opacity:1;" />
<path d="M 382 259 L 377.160156 282.351562 L 370.539062 314.238281 L 359.210938 368.910156 L 355.289062 387.820312 L 350.699219 409.960938 L 350.691406 409.96875 L 345.679688 434.160156 L 341.839844 452.640625 L 341.390625 454.828125 L 331.910156 500.550781 L 331.898438 500.558594 C 328.898438 501.488281 325.871094 502.371094 322.820312 503.191406 C 317.488281 504.628906 312.101562 505.898438 306.640625 506.988281 C 297.660156 508.789062 288.5 510.128906 279.199219 510.96875 C 272.570312 511.558594 265.871094 511.898438 259.109375 511.980469 C 258.070312 511.988281 257.039062 512 256 512 L 256 259 Z M 382 259 " style=" stroke:none;fill-rule:nonzero;fill:rgb(77.254902%,34.509804%,20.784314%);fill-opacity:1;" />
<path d="M 377.160156 282.351562 L 371.601562 289.199219 L 362.390625 277.851562 L 347.101562 259 L 319.039062 259 L 294.53125 289.199219 L 270.03125 259 L 241.96875 259 L 217.46875 289.199219 L 194.148438 260.46875 L 194.148438 260.460938 L 192.960938 259 L 164.898438 259 L 149.609375 277.851562 L 140.398438 289.199219 L 134.839844 282.351562 L 141.460938 314.238281 L 169.300781 348.558594 L 152.789062 368.910156 L 156.710938 387.820312 L 178.929688 360.441406 L 207.828125 396.058594 L 178.929688 431.679688 L 161.300781 409.960938 L 170.609375 454.828125 L 178.929688 444.578125 L 207.828125 480.199219 L 189.179688 503.191406 C 194.511719 504.628906 199.898438 505.898438 205.359375 506.988281 L 217.46875 492.070312 L 220.859375 496.25 L 232.800781 510.96875 C 239.429688 511.558594 246.128906 511.898438 252.890625 511.980469 L 227.101562 480.199219 L 256 444.578125 L 284.898438 480.199219 L 259.109375 511.980469 C 265.871094 511.898438 272.570312 511.558594 279.199219 510.96875 L 294.53125 492.070312 L 306.640625 506.988281 C 312.101562 505.898438 317.488281 504.628906 322.820312 503.191406 L 304.171875 480.199219 L 333.070312 444.578125 L 341.390625 454.828125 L 341.839844 452.640625 L 345.679688 434.160156 L 350.699219 409.960938 L 350.691406 409.96875 L 333.070312 431.679688 L 304.171875 396.058594 L 333.070312 360.441406 L 355.289062 387.820312 L 359.210938 368.910156 L 342.699219 348.558594 L 370.539062 314.238281 Z M 256 265.449219 L 284.898438 301.070312 L 256 336.691406 L 227.101562 301.070312 Z M 178.929688 336.691406 L 150.03125 301.070312 L 157.328125 292.070312 L 178.929688 265.449219 L 197.269531 288.050781 L 197.269531 288.058594 L 207.828125 301.070312 L 199.859375 310.890625 L 188.53125 324.859375 Z M 188.558594 348.558594 L 201.378906 332.761719 L 202.21875 331.730469 L 217.46875 312.941406 L 244.039062 345.691406 L 244.050781 345.691406 L 246.371094 348.558594 L 217.46875 384.179688 L 206.648438 370.851562 Z M 217.671875 468.078125 L 217.46875 468.320312 L 192.960938 438.128906 L 211.660156 415.089844 L 211.660156 415.078125 L 217.46875 407.929688 L 241.96875 438.128906 Z M 227.101562 396.058594 L 256 360.441406 L 284.898438 396.058594 L 256 431.679688 Z M 319.039062 438.128906 L 294.53125 468.320312 L 270.03125 438.128906 L 294.53125 407.929688 Z M 294.53125 384.179688 L 265.628906 348.558594 L 267.949219 345.691406 L 267.960938 345.691406 L 294.53125 312.941406 L 310.621094 332.761719 L 323.441406 348.558594 Z M 333.070312 336.691406 L 323.46875 324.859375 L 304.171875 301.070312 L 333.070312 265.449219 L 354.671875 292.070312 L 361.96875 301.070312 Z M 333.070312 336.691406 " style=" stroke:none;fill-rule:nonzero;fill:rgb(91.764706%,50.980392%,30.588235%);fill-opacity:1;" />
<path d="M 377.160156 282.351562 L 371.601562 289.199219 L 362.390625 277.851562 L 347.101562 259 L 319.039062 259 L 294.53125 289.199219 L 270.03125 259 L 241.96875 259 L 217.46875 289.199219 L 194.148438 260.46875 L 195.199219 269.78125 L 195.199219 269.789062 L 195.210938 269.800781 L 195.210938 269.820312 L 196.148438 278.148438 L 197.269531 288.050781 L 197.269531 288.058594 L 207.828125 301.070312 L 199.859375 310.890625 L 202.21875 331.730469 L 217.46875 312.941406 L 244.039062 345.691406 L 244.050781 345.691406 L 246.371094 348.558594 L 217.46875 384.179688 L 206.648438 370.851562 L 211.660156 415.078125 L 217.46875 407.929688 L 241.96875 438.128906 L 217.671875 468.078125 L 220.859375 496.25 L 232.800781 510.96875 C 239.429688 511.558594 246.128906 511.898438 252.890625 511.980469 L 227.101562 480.199219 L 256 444.578125 L 284.898438 480.199219 L 259.109375 511.980469 C 265.871094 511.898438 272.570312 511.558594 279.199219 510.96875 L 294.53125 492.070312 L 306.640625 506.988281 C 312.101562 505.898438 317.488281 504.628906 322.820312 503.191406 L 304.171875 480.199219 L 333.070312 444.578125 L 341.390625 454.828125 L 341.839844 452.640625 L 350.691406 409.96875 L 333.070312 431.679688 L 304.171875 396.058594 L 333.070312 360.441406 L 355.289062 387.820312 L 359.210938 368.910156 L 342.699219 348.558594 L 370.539062 314.238281 Z M 256 265.449219 L 284.898438 301.070312 L 256 336.691406 L 227.101562 301.070312 Z M 227.101562 396.058594 L 256 360.441406 L 284.898438 396.058594 L 256 431.679688 Z M 319.039062 438.128906 L 294.53125 468.320312 L 270.03125 438.128906 L 294.53125 407.929688 Z M 294.53125 384.179688 L 265.628906 348.558594 L 267.949219 345.691406 L 267.960938 345.691406 L 294.53125 312.941406 L 310.621094 332.761719 L 323.441406 348.558594 Z M 333.070312 336.691406 L 323.46875 324.859375 L 304.171875 301.070312 L 333.070312 265.449219 L 354.671875 292.070312 L 361.96875 301.070312 Z M 333.070312 336.691406 " style=" stroke:none;fill-rule:nonzero;fill:rgb(77.254902%,34.509804%,20.784314%);fill-opacity:1;" />
<path d="M 377.160156 282.351562 L 371.601562 289.199219 L 362.390625 277.851562 L 347.101562 259 L 319.039062 259 L 294.53125 289.199219 L 270.03125 259 L 256 259 L 256 265.449219 L 284.898438 301.070312 L 256 336.691406 L 256 360.441406 L 284.898438 396.058594 L 256 431.679688 L 256 444.578125 L 284.898438 480.199219 L 259.109375 511.980469 C 265.871094 511.898438 272.570312 511.558594 279.199219 510.96875 L 294.53125 492.070312 L 306.640625 506.988281 C 312.101562 505.898438 317.488281 504.628906 322.820312 503.191406 L 304.171875 480.199219 L 333.070312 444.578125 L 341.390625 454.828125 L 341.839844 452.640625 L 345.679688 434.160156 L 350.699219 409.960938 L 350.691406 409.96875 L 333.070312 431.679688 L 304.171875 396.058594 L 333.070312 360.441406 L 355.289062 387.820312 L 359.210938 368.910156 L 342.699219 348.558594 L 370.539062 314.238281 Z M 319.039062 438.128906 L 294.53125 468.320312 L 270.03125 438.128906 L 294.53125 407.929688 Z M 294.53125 384.179688 L 265.628906 348.558594 L 267.949219 345.691406 L 267.960938 345.691406 L 294.53125 312.941406 L 310.621094 332.761719 L 323.441406 348.558594 Z M 333.070312 336.691406 L 323.46875 324.859375 L 304.171875 301.070312 L 333.070312 265.449219 L 354.671875 292.070312 L 361.96875 301.070312 Z M 333.070312 336.691406 " style=" stroke:none;fill-rule:nonzero;fill:rgb(47.843137%,17.647059%,10.196078%);fill-opacity:1;" />
<path d="M 365.210938 187.78125 L 365.199219 187.78125 C 353.488281 191.460938 350.730469 202.300781 334.441406 202.300781 C 314.828125 202.300781 314.828125 186.578125 295.210938 186.578125 C 275.609375 186.578125 275.609375 202.289062 256 202.300781 L 255.988281 202.300781 C 236.390625 202.300781 236.390625 186.578125 216.769531 186.578125 C 204.148438 186.578125 199.660156 193.089844 192.820312 197.730469 C 189.039062 200.300781 184.539062 202.300781 177.550781 202.300781 C 161.269531 202.300781 158.511719 191.449219 146.800781 187.78125 C 163.570312 143.808594 206.140625 112.589844 256 112.589844 L 256.109375 112.589844 C 257.460938 112.589844 258.808594 112.621094 260.148438 112.671875 C 260.480469 112.671875 260.808594 112.691406 261.128906 112.710938 C 261.621094 112.71875 262.109375 112.75 262.601562 112.78125 C 263.148438 112.800781 263.710938 112.839844 264.261719 112.890625 C 264.28125 112.878906 264.289062 112.878906 264.308594 112.890625 C 264.75 112.910156 265.191406 112.941406 265.621094 112.988281 C 266.269531 113.03125 266.929688 113.089844 267.578125 113.160156 C 268.039062 113.210938 268.511719 113.25 268.96875 113.308594 C 269.488281 113.359375 270.011719 113.421875 270.519531 113.488281 C 270.769531 113.511719 271.011719 113.539062 271.25 113.578125 C 271.890625 113.660156 272.519531 113.75 273.148438 113.851562 C 273.539062 113.898438 273.929688 113.960938 274.320312 114.03125 C 275.070312 114.140625 275.820312 114.269531 276.570312 114.398438 C 277.339844 114.53125 278.101562 114.671875 278.859375 114.828125 C 279.21875 114.898438 279.589844 114.980469 279.960938 115.050781 C 280.691406 115.199219 281.421875 115.359375 282.148438 115.53125 C 282.511719 115.621094 282.878906 115.699219 283.238281 115.789062 C 283.96875 115.960938 284.691406 116.140625 285.410156 116.328125 C 285.601562 116.378906 285.78125 116.421875 285.96875 116.46875 C 286.429688 116.589844 286.890625 116.71875 287.351562 116.851562 C 287.421875 116.859375 287.488281 116.878906 287.558594 116.910156 C 287.960938 117.019531 288.371094 117.128906 288.769531 117.261719 C 289.480469 117.449219 290.179688 117.671875 290.878906 117.878906 C 290.988281 117.921875 291.109375 117.949219 291.21875 117.988281 C 291.828125 118.179688 292.429688 118.378906 293.03125 118.578125 C 293.179688 118.628906 293.328125 118.679688 293.46875 118.730469 C 293.550781 118.75 293.628906 118.78125 293.710938 118.808594 C 294.398438 119.039062 295.078125 119.28125 295.761719 119.539062 C 295.839844 119.558594 295.921875 119.589844 296 119.621094 C 296.351562 119.75 296.710938 119.878906 297.058594 120.019531 C 297.121094 120.03125 297.179688 120.050781 297.238281 120.089844 C 297.730469 120.261719 298.210938 120.441406 298.691406 120.640625 C 298.800781 120.679688 298.921875 120.71875 299.03125 120.769531 C 299.570312 120.980469 300.109375 121.199219 300.640625 121.429688 C 300.820312 121.5 300.988281 121.570312 301.171875 121.648438 C 301.339844 121.710938 301.511719 121.78125 301.679688 121.859375 C 301.808594 121.910156 301.929688 121.960938 302.058594 122.019531 C 302.589844 122.25 303.128906 122.480469 303.648438 122.71875 C 303.820312 122.789062 303.980469 122.859375 304.140625 122.941406 C 304.308594 123.019531 304.488281 123.089844 304.660156 123.179688 C 305.199219 123.421875 305.730469 123.671875 306.25 123.921875 C 308.179688 124.828125 310.070312 125.800781 311.941406 126.828125 C 312.53125 127.140625 313.121094 127.46875 313.699219 127.808594 C 313.761719 127.839844 313.808594 127.871094 313.871094 127.910156 C 314.179688 128.078125 314.488281 128.261719 314.800781 128.449219 C 315.320312 128.738281 315.839844 129.050781 316.351562 129.371094 C 316.828125 129.660156 317.300781 129.949219 317.769531 130.238281 C 317.949219 130.339844 318.140625 130.460938 318.320312 130.578125 C 318.808594 130.890625 319.289062 131.199219 319.769531 131.511719 C 320.941406 132.269531 322.089844 133.050781 323.21875 133.851562 C 323.660156 134.160156 324.089844 134.46875 324.519531 134.78125 C 324.941406 135.078125 325.351562 135.378906 325.761719 135.691406 C 326.03125 135.890625 326.289062 136.089844 326.550781 136.289062 C 327.140625 136.730469 327.730469 137.179688 328.308594 137.640625 C 328.730469 137.96875 329.140625 138.300781 329.550781 138.640625 C 329.988281 138.988281 330.421875 139.351562 330.851562 139.710938 C 331.890625 140.570312 332.910156 141.449219 333.910156 142.359375 C 334.230469 142.640625 334.550781 142.929688 334.871094 143.21875 C 336.011719 144.261719 337.128906 145.328125 338.230469 146.421875 C 338.488281 146.679688 338.761719 146.941406 339.019531 147.210938 C 339.621094 147.808594 340.210938 148.421875 340.789062 149.03125 C 341.308594 149.578125 341.828125 150.128906 342.339844 150.691406 C 343.03125 151.449219 343.71875 152.21875 344.398438 153.011719 C 344.871094 153.558594 345.339844 154.109375 345.800781 154.679688 C 346.171875 155.121094 346.539062 155.558594 346.898438 156.011719 C 347.261719 156.449219 347.621094 156.898438 347.980469 157.351562 C 348.480469 157.988281 348.980469 158.640625 349.460938 159.289062 C 350.058594 160.078125 350.640625 160.871094 351.210938 161.671875 C 351.269531 161.75 351.320312 161.828125 351.371094 161.910156 C 351.601562 162.21875 351.820312 162.539062 352.039062 162.859375 C 352.261719 163.171875 352.46875 163.480469 352.679688 163.800781 C 353.179688 164.539062 353.679688 165.28125 354.160156 166.019531 C 354.558594 166.621094 354.941406 167.230469 355.308594 167.839844 C 355.890625 168.75 356.441406 169.671875 356.980469 170.609375 C 357.238281 171.039062 357.488281 171.480469 357.738281 171.921875 C 358.109375 172.570312 358.46875 173.21875 358.828125 173.890625 C 359.109375 174.398438 359.390625 174.929688 359.648438 175.449219 C 359.898438 175.898438 360.128906 176.371094 360.359375 176.828125 C 360.921875 177.910156 361.449219 179.011719 361.960938 180.121094 C 362.21875 180.671875 362.480469 181.21875 362.71875 181.78125 C 363.011719 182.410156 363.289062 183.050781 363.558594 183.699219 C 363.679688 183.980469 363.800781 184.269531 363.921875 184.558594 C 364.039062 184.839844 364.160156 185.128906 364.269531 185.421875 C 364.359375 185.640625 364.449219 185.851562 364.550781 186.070312 C 364.570312 186.140625 364.601562 186.21875 364.640625 186.300781 C 364.738281 186.558594 364.839844 186.820312 364.929688 187.078125 C 365.019531 187.289062 365.101562 187.511719 365.191406 187.71875 C 365.199219 187.738281 365.210938 187.761719 365.210938 187.78125 Z M 365.210938 187.78125 " style=" stroke:none;fill-rule:nonzero;fill:rgb(77.254902%,34.509804%,20.784314%);fill-opacity:1;" />
<path d="M 365.210938 187.78125 L 365.199219 187.78125 C 353.488281 191.460938 350.730469 202.300781 334.441406 202.300781 C 314.828125 202.300781 314.828125 186.578125 295.210938 186.578125 C 275.609375 186.578125 275.609375 202.289062 256 202.300781 L 255.988281 202.300781 C 236.390625 202.300781 236.390625 186.578125 216.769531 186.578125 C 204.148438 186.578125 199.660156 193.089844 192.820312 197.730469 C 201.53125 161.488281 224.808594 130.921875 256.109375 112.589844 C 257.460938 112.589844 258.808594 112.621094 260.148438 112.671875 C 260.480469 112.671875 260.808594 112.691406 261.128906 112.710938 C 261.621094 112.71875 262.109375 112.75 262.601562 112.78125 C 263.148438 112.800781 263.710938 112.839844 264.261719 112.890625 C 264.28125 112.878906 264.289062 112.878906 264.308594 112.890625 C 264.75 112.910156 265.191406 112.941406 265.621094 112.988281 C 266.269531 113.03125 266.929688 113.089844 267.578125 113.160156 C 268.039062 113.210938 268.511719 113.25 268.96875 113.308594 C 269.488281 113.359375 270.011719 113.421875 270.519531 113.488281 C 270.769531 113.511719 271.011719 113.539062 271.25 113.578125 C 271.890625 113.660156 272.519531 113.75 273.148438 113.851562 C 273.539062 113.898438 273.929688 113.960938 274.320312 114.03125 C 275.070312 114.140625 275.820312 114.269531 276.570312 114.398438 C 277.339844 114.53125 278.101562 114.671875 278.859375 114.828125 C 279.21875 114.898438 279.589844 114.980469 279.960938 115.050781 C 280.691406 115.199219 281.421875 115.359375 282.148438 115.53125 C 282.511719 115.621094 282.878906 115.699219 283.238281 115.789062 C 283.96875 115.960938 284.691406 116.140625 285.410156 116.328125 C 285.601562 116.378906 285.78125 116.421875 285.96875 116.46875 C 286.429688 116.589844 286.890625 116.71875 287.351562 116.851562 C 287.421875 116.859375 287.488281 116.878906 287.558594 116.910156 C 287.960938 117.019531 288.371094 117.128906 288.769531 117.261719 C 289.480469 117.449219 290.179688 117.671875 290.878906 117.878906 C 291.75 118.160156 292.609375 118.441406 293.46875 118.730469 C 293.550781 118.75 293.628906 118.78125 293.710938 118.808594 C 294.398438 119.039062 295.078125 119.28125 295.761719 119.539062 C 295.839844 119.558594 295.921875 119.589844 296 119.621094 C 296.351562 119.75 296.710938 119.878906 297.058594 120.019531 C 297.121094 120.03125 297.179688 120.050781 297.238281 120.089844 C 297.730469 120.261719 298.210938 120.441406 298.691406 120.640625 C 298.800781 120.679688 298.921875 120.71875 299.03125 120.769531 C 299.570312 120.980469 300.109375 121.199219 300.640625 121.429688 C 300.820312 121.5 300.988281 121.570312 301.171875 121.648438 C 301.339844 121.710938 301.511719 121.78125 301.679688 121.859375 C 301.808594 121.910156 301.929688 121.960938 302.058594 122.019531 C 302.589844 122.25 303.128906 122.480469 303.648438 122.71875 C 303.820312 122.789062 303.980469 122.859375 304.140625 122.941406 C 304.308594 123.019531 304.488281 123.089844 304.660156 123.179688 C 305.199219 123.421875 305.730469 123.671875 306.25 123.921875 C 308.179688 124.828125 310.070312 125.800781 311.941406 126.828125 C 312.53125 127.140625 313.121094 127.46875 313.699219 127.808594 C 313.761719 127.839844 313.808594 127.871094 313.871094 127.910156 C 314.179688 128.078125 314.488281 128.261719 314.800781 128.449219 C 315.320312 128.738281 315.839844 129.050781 316.351562 129.371094 C 316.828125 129.660156 317.300781 129.949219 317.769531 130.238281 C 317.949219 130.339844 318.140625 130.460938 318.320312 130.578125 C 318.808594 130.890625 319.289062 131.199219 319.769531 131.511719 C 320.941406 132.269531 322.089844 133.050781 323.21875 133.851562 C 323.660156 134.160156 324.089844 134.46875 324.519531 134.78125 C 324.941406 135.078125 325.351562 135.378906 325.761719 135.691406 C 326.03125 135.890625 326.289062 136.089844 326.550781 136.289062 C 327.140625 136.730469 327.730469 137.179688 328.308594 137.640625 C 328.730469 137.96875 329.140625 138.300781 329.550781 138.640625 C 329.988281 138.988281 330.421875 139.351562 330.851562 139.710938 C 331.890625 140.570312 332.910156 141.449219 333.910156 142.359375 C 334.230469 142.640625 334.550781 142.929688 334.871094 143.21875 C 336.011719 144.261719 337.128906 145.328125 338.230469 146.421875 C 338.5 146.679688 338.761719 146.941406 339.019531 147.210938 C 339.621094 147.808594 340.210938 148.421875 340.789062 149.03125 C 341.308594 149.578125 341.828125 150.128906 342.339844 150.691406 C 343.03125 151.449219 343.71875 152.21875 344.398438 153.011719 C 344.871094 153.558594 345.339844 154.109375 345.800781 154.679688 C 346.171875 155.121094 346.539062 155.558594 346.898438 156.011719 C 347.261719 156.449219 347.621094 156.898438 347.980469 157.351562 C 348.480469 157.988281 348.980469 158.640625 349.460938 159.289062 C 350.058594 160.078125 350.640625 160.871094 351.210938 161.671875 C 351.488281 162.070312 351.769531 162.460938 352.039062 162.859375 C 352.261719 163.171875 352.46875 163.480469 352.679688 163.800781 C 353.179688 164.539062 353.679688 165.28125 354.160156 166.019531 C 354.558594 166.621094 354.941406 167.230469 355.308594 167.839844 C 355.890625 168.75 356.441406 169.671875 356.980469 170.609375 C 357.238281 171.039062 357.488281 171.480469 357.738281 171.921875 C 358.109375 172.570312 358.46875 173.21875 358.828125 173.890625 C 359.109375 174.398438 359.390625 174.929688 359.648438 175.449219 C 359.898438 175.898438 360.128906 176.371094 360.359375 176.828125 C 360.921875 177.910156 361.449219 179.011719 361.960938 180.121094 C 362.21875 180.671875 362.480469 181.21875 362.71875 181.78125 C 363.011719 182.410156 363.289062 183.050781 363.558594 183.699219 C 363.679688 183.980469 363.800781 184.269531 363.921875 184.558594 C 364.140625 185.058594 364.339844 185.558594 364.550781 186.070312 C 364.570312 186.140625 364.601562 186.21875 364.640625 186.300781 C 364.820312 186.769531 365.011719 187.25 365.191406 187.71875 C 365.199219 187.738281 365.210938 187.761719 365.210938 187.78125 Z M 365.210938 187.78125 " style=" stroke:none;fill-rule:nonzero;fill:rgb(65.098039%,22.352941%,7.843137%);fill-opacity:1;" />
<path d="M 365.199219 187.78125 C 353.488281 191.460938 350.730469 202.300781 334.441406 202.300781 C 314.828125 202.300781 314.828125 186.578125 295.210938 186.578125 C 275.609375 186.578125 275.609375 202.289062 256 202.300781 L 256 112.589844 C 256.859375 112.589844 257.71875 112.601562 258.578125 112.621094 C 259.101562 112.628906 259.628906 112.640625 260.148438 112.671875 C 260.480469 112.671875 260.808594 112.691406 261.128906 112.710938 C 261.621094 112.71875 262.109375 112.75 262.601562 112.78125 C 263.179688 112.808594 263.738281 112.839844 264.308594 112.890625 C 264.859375 112.921875 265.410156 112.960938 265.949219 113.011719 C 267.039062 113.101562 268.121094 113.210938 269.191406 113.328125 C 269.640625 113.378906 270.078125 113.429688 270.519531 113.488281 C 270.769531 113.511719 271.011719 113.539062 271.25 113.578125 C 271.890625 113.660156 272.519531 113.75 273.148438 113.851562 C 273.539062 113.898438 273.929688 113.960938 274.320312 114.03125 C 275.839844 114.261719 277.359375 114.53125 278.859375 114.828125 C 279.589844 114.96875 280.328125 115.128906 281.058594 115.289062 C 281.789062 115.449219 282.511719 115.609375 283.238281 115.789062 C 283.96875 115.960938 284.691406 116.140625 285.410156 116.328125 C 286.128906 116.511719 286.851562 116.699219 287.558594 116.910156 C 288.050781 117.039062 288.539062 117.179688 289.03125 117.328125 C 289.449219 117.449219 289.859375 117.570312 290.269531 117.699219 C 290.578125 117.800781 290.898438 117.890625 291.21875 117.988281 C 291.828125 118.179688 292.429688 118.378906 293.03125 118.578125 C 294.03125 118.910156 295.019531 119.261719 296 119.621094 C 296.351562 119.75 296.710938 119.878906 297.058594 120.019531 C 297.609375 120.210938 298.148438 120.421875 298.691406 120.640625 C 298.800781 120.679688 298.921875 120.71875 299.03125 120.769531 C 299.75 121.050781 300.460938 121.339844 301.171875 121.648438 C 301.339844 121.710938 301.511719 121.78125 301.679688 121.859375 C 302.171875 122.058594 302.660156 122.28125 303.148438 122.5 C 303.480469 122.640625 303.820312 122.789062 304.140625 122.941406 C 304.851562 123.25 305.558594 123.578125 306.25 123.921875 C 306.710938 124.140625 307.160156 124.359375 307.609375 124.578125 C 307.898438 124.71875 308.191406 124.859375 308.46875 125.011719 C 308.851562 125.199219 309.238281 125.390625 309.621094 125.589844 C 310.109375 125.851562 310.601562 126.101562 311.089844 126.371094 C 312.03125 126.859375 312.949219 127.378906 313.871094 127.910156 C 314.179688 128.078125 314.488281 128.261719 314.800781 128.449219 C 315.320312 128.738281 315.839844 129.050781 316.351562 129.371094 C 318.699219 130.78125 320.988281 132.269531 323.21875 133.851562 C 323.660156 134.160156 324.089844 134.46875 324.519531 134.78125 C 324.671875 134.878906 324.820312 134.988281 324.96875 135.109375 C 325.5 135.488281 326.03125 135.890625 326.550781 136.289062 C 328.019531 137.390625 329.449219 138.53125 330.851562 139.710938 C 331.289062 140.070312 331.730469 140.441406 332.171875 140.828125 C 332.371094 140.988281 332.570312 141.171875 332.769531 141.351562 C 333.148438 141.671875 333.53125 142.011719 333.910156 142.359375 C 334.230469 142.640625 334.550781 142.929688 334.871094 143.21875 C 336.019531 144.269531 337.140625 145.328125 338.230469 146.421875 C 338.5 146.679688 338.761719 146.941406 339.019531 147.210938 C 339.410156 147.589844 339.78125 147.980469 340.160156 148.371094 C 340.960938 149.199219 341.738281 150.03125 342.511719 150.878906 C 343.128906 151.570312 343.75 152.261719 344.359375 152.96875 C 344.851562 153.53125 345.328125 154.101562 345.800781 154.679688 C 347.28125 156.441406 348.699219 158.238281 350.058594 160.089844 C 350.449219 160.609375 350.828125 161.140625 351.210938 161.671875 C 351.269531 161.75 351.320312 161.828125 351.371094 161.910156 C 351.820312 162.539062 352.261719 163.171875 352.679688 163.800781 C 353.691406 165.269531 354.660156 166.761719 355.589844 168.28125 C 355.828125 168.660156 356.058594 169.050781 356.300781 169.449219 C 356.53125 169.828125 356.761719 170.21875 356.980469 170.609375 C 357.238281 171.050781 357.5 171.488281 357.75 171.941406 C 358.679688 173.570312 359.558594 175.21875 360.398438 176.898438 C 360.628906 177.339844 360.851562 177.78125 361.058594 178.21875 C 361.25 178.601562 361.429688 178.980469 361.609375 179.359375 C 361.730469 179.609375 361.851562 179.859375 361.960938 180.121094 C 362.519531 181.300781 363.050781 182.5 363.558594 183.699219 C 363.808594 184.269531 364.039062 184.839844 364.269531 185.421875 C 364.511719 185.96875 364.730469 186.519531 364.929688 187.078125 C 365.03125 187.308594 365.121094 187.539062 365.199219 187.78125 Z M 365.199219 187.78125 " style=" stroke:none;fill-rule:nonzero;fill:rgb(47.843137%,17.647059%,10.196078%);fill-opacity:1;" />
</g>
</svg>