<svg xmlns="http://www.w3.org/2000/svg" height="512pt" version="1.1" viewBox="0 0 512 512" width="512pt">
<g id="surface1">
<path d="M 512 256 C 512 397.386719 397.386719 512 256 512 C 114.613281 512 0 397.386719 0 256 C 0 114.613281 114.613281 0 256 0 C 397.386719 0 512 114.613281 512 256 Z M 512 256 " style=" stroke:none;fill-rule:nonzero;fill:rgb(100%,91.372549%,33.333333%);fill-opacity:1;" />
<path d="M 512 256 C 512 282.050781 508.109375 307.191406 500.871094 330.871094 C 468.859375 435.71875 371.328125 512 256 512 C 151.441406 512 61.511719 449.300781 21.769531 359.449219 C 7.769531 327.820312 0 292.820312 0 256 C 0 209.78125 12.25 166.429688 33.679688 129 C 77.800781 206.070312 160.839844 258 256 258 C 351.160156 258 434.210938 206.070312 478.320312 129 C 499.75 166.429688 512 209.78125 512 256 Z M 512 256 " style=" stroke:none;fill-rule:nonzero;fill:rgb(100%,81.960784%,7.058824%);fill-opacity:1;" />
<path d="M 30.742188 377.703125 C 37.898438 390.921875 46.171875 403.441406 55.460938 415.128906 C 102.359375 474.148438 174.761719 512 256 512 C 337.238281 512 409.640625 474.148438 456.539062 415.128906 C 465.828125 403.441406 474.101562 390.921875 481.257812 377.703125 Z M 30.742188 377.703125 " style=" stroke:none;fill-rule:nonzero;fill:rgb(100%,62.352941%,0%);fill-opacity:1;" />
<path d="M 387 355.859375 L 387 475.980469 C 348.671875 498.859375 303.871094 512 256 512 C 208.128906 512 163.328125 498.859375 125 475.980469 L 125 355.859375 Z M 387 355.859375 " style=" stroke:none;fill-rule:nonzero;fill:rgb(100%,100%,100%);fill-opacity:1;" />
<path d="M 387 355.859375 L 387 475.980469 C 348.671875 498.859375 303.871094 512 256 512 L 256 355.859375 Z M 387 355.859375 " style=" stroke:none;fill-rule:nonzero;fill:rgb(66.666667%,83.529412%,97.647059%);fill-opacity:1;" />
<path d="M 125 119 L 256 119 L 256 250 L 125 250 Z M 125 119 " style=" stroke:none;fill-rule:nonzero;fill:rgb(91.764706%,50.980392%,30.588235%);fill-opacity:1;" />
<path d="M 256 119 L 256 250 L 125 250 Z M 256 119 " style=" stroke:none;fill-rule:nonzero;fill:rgb(47.843137%,17.647059%,10.196078%);fill-opacity:1;" />
<path d="M 156.535156 150.535156 L 224.464844 150.535156 L 224.464844 218.464844 L 156.535156 218.464844 Z M 156.535156 150.535156 " style=" stroke:none;fill-rule:nonzero;fill:rgb(77.254902%,34.509804%,20.784314%);fill-opacity:1;" />
<path d="M 171.09375 165.09375 L 209.90625 165.09375 L 209.90625 203.90625 L 171.09375 203.90625 Z M 171.09375 165.09375 " style=" stroke:none;fill-rule:nonzero;fill:rgb(47.843137%,17.647059%,10.196078%);fill-opacity:1;" />
<path d="M 256 119 L 387 119 L 387 250 L 256 250 Z M 256 119 " style=" stroke:none;fill-rule:nonzero;fill:rgb(91.764706%,50.980392%,30.588235%);fill-opacity:1;" />
<path d="M 387 119 L 387 250 L 256 250 Z M 387 119 " style=" stroke:none;fill-rule:nonzero;fill:rgb(47.843137%,17.647059%,10.196078%);fill-opacity:1;" />
<path d="M 287.535156 150.535156 L 355.464844 150.535156 L 355.464844 218.464844 L 287.535156 218.464844 Z M 287.535156 150.535156 " style=" stroke:none;fill-rule:nonzero;fill:rgb(77.254902%,34.509804%,20.784314%);fill-opacity:1;" />
<path d="M 125 250 L 256 250 L 256 381 L 125 381 Z M 125 250 " style=" stroke:none;fill-rule:nonzero;fill:rgb(91.764706%,50.980392%,30.588235%);fill-opacity:1;" />
<path d="M 256 250 L 256 381 L 125 381 Z M 256 250 " style=" stroke:none;fill-rule:nonzero;fill:rgb(47.843137%,17.647059%,10.196078%);fill-opacity:1;" />
<path d="M 156.535156 281.535156 L 224.464844 281.535156 L 224.464844 349.464844 L 156.535156 349.464844 Z M 156.535156 281.535156 " style=" stroke:none;fill-rule:nonzero;fill:rgb(77.254902%,34.509804%,20.784314%);fill-opacity:1;" />
<path d="M 256 250 L 387 250 L 387 381 L 256 381 Z M 256 250 " style=" stroke:none;fill-rule:nonzero;fill:rgb(91.764706%,50.980392%,30.588235%);fill-opacity:1;" />
<path d="M 387 250 L 387 381 L 256 381 Z M 387 250 " style=" stroke:none;fill-rule:nonzero;fill:rgb(47.843137%,17.647059%,10.196078%);fill-opacity:1;" />
<path d="M 287.535156 281.535156 L 355.464844 281.535156 L 355.464844 349.464844 L 287.535156 349.464844 Z M 287.535156 281.535156 " style=" stroke:none;fill-rule:nonzero;fill:rgb(77.254902%,34.509804%,20.784314%);fill-opacity:1;" />
<path d="M 302.394531 165.09375 L 341.210938 165.09375 L 341.210938 203.90625 L 302.394531 203.90625 Z M 302.394531 165.09375 " style=" stroke:none;fill-rule:nonzero;fill:rgb(47.843137%,17.647059%,10.196078%);fill-opacity:1;" />
<path d="M 171.09375 298.820312 L 209.90625 298.820312 L 209.90625 337.636719 L 171.09375 337.636719 Z M 171.09375 298.820312 " style=" stroke:none;fill-rule:nonzero;fill:rgb(47.843137%,17.647059%,10.196078%);fill-opacity:1;" />
<path d="M 302.394531 298.820312 L 341.210938 298.820312 L 341.210938 337.636719 L 302.394531 337.636719 Z M 302.394531 298.820312 " style=" stroke:none;fill-rule:nonzero;fill:rgb(47.843137%,17.647059%,10.196078%);fill-opacity:1;" />
<path d="M 125 119 L 156.535156 150.535156 L 224.464844 150.535156 L 256 119 Z M 125 119 " style=" stroke:none;fill-rule:nonzero;fill:rgb(65.098039%,22.352941%,7.843137%);fill-opacity:1;" />
<path d="M 125 250 L 156.535156 281.535156 L 224.464844 281.535156 L 256 250 Z M 125 250 " style=" stroke:none;fill-rule:nonzero;fill:rgb(65.098039%,22.352941%,7.843137%);fill-opacity:1;" />
<path d="M 256 119 L 287.535156 150.535156 L 355.464844 150.535156 L 387 119 Z M 256 119 " style=" stroke:none;fill-rule:nonzero;fill:rgb(65.098039%,22.352941%,7.843137%);fill-opacity:1;" />
<path d="M 256 250 L 287.535156 281.535156 L 355.464844 281.535156 L 387 250 Z M 256 250 " style=" stroke:none;fill-rule:nonzero;fill:rgb(65.098039%,22.352941%,7.843137%);fill-opacity:1;" />
<path d="M 387 437.558594 L 387 475.980469 C 348.671875 498.859375 303.871094 512 256 512 C 208.128906 512 163.328125 498.859375 125 475.980469 L 125 437.558594 Z M 387 437.558594 " style=" stroke:none;fill-rule:nonzero;fill:rgb(67.843137%,52.54902%,91.764706%);fill-opacity:1;" />
<path d="M 387 437.558594 L 387 475.980469 C 348.671875 498.859375 303.871094 512 256 512 L 256 437.558594 Z M 387 437.558594 " style=" stroke:none;fill-rule:nonzero;fill:rgb(55.686275%,30.980392%,82.352941%);fill-opacity:1;" />
</g>
</svg>