<svg xmlns="http://www.w3.org/2000/svg" height="512pt" version="1.1" viewBox="0 0 512 512" width="512pt">
<g id="surface1">
<path d="M 512 256 C 512 397.386719 397.386719 512 256 512 C 114.613281 512 0 397.386719 0 256 C 0 114.613281 114.613281 0 256 0 C 397.386719 0 512 114.613281 512 256 Z M 512 256 " style=" stroke:none;fill-rule:nonzero;fill:rgb(39.607843%,69.803922%,100%);fill-opacity:1;" />
<path d="M 512 256 C 512 282.050781 508.109375 307.191406 500.871094 330.871094 C 468.859375 435.71875 371.328125 512 256 512 C 151.441406 512 61.511719 449.300781 21.769531 359.449219 C 7.769531 327.820312 0 292.820312 0 256 C 0 209.78125 12.25 166.429688 33.679688 129 C 77.800781 206.070312 160.839844 258 256 258 C 351.160156 258 434.210938 206.070312 478.320312 129 C 499.75 166.429688 512 209.78125 512 256 Z M 512 256 " style=" stroke:none;fill-rule:nonzero;fill:rgb(5.882353%,60.784314%,90.980392%);fill-opacity:1;" />
<path d="M 30.742188 377.703125 C 37.898438 390.921875 46.171875 403.441406 55.460938 415.128906 C 102.359375 474.148438 174.761719 512 256 512 C 337.238281 512 409.640625 474.148438 456.539062 415.128906 C 465.828125 403.441406 474.101562 390.921875 481.257812 377.703125 Z M 30.742188 377.703125 " style=" stroke:none;fill-rule:nonzero;fill:rgb(0%,40%,90.980392%);fill-opacity:1;" />
<path d="M 375.960938 129.121094 L 375.960938 482.199219 C 357.898438 491.808594 338.539062 499.308594 318.21875 504.378906 L 193.78125 504.378906 C 191.03125 503.699219 188.289062 502.96875 185.578125 502.191406 C 185.050781 502.039062 184.519531 501.890625 184 501.730469 C 167.230469 496.828125 151.179688 490.261719 136.039062 482.199219 L 136.039062 129.121094 C 136.039062 121.859375 141.929688 115.960938 149.199219 115.960938 L 362.800781 115.960938 C 369.839844 115.960938 375.589844 121.5 375.941406 128.441406 C 375.949219 128.671875 375.960938 128.890625 375.960938 129.121094 Z M 375.960938 129.121094 " style=" stroke:none;fill-rule:nonzero;fill:rgb(100%,39.215686%,46.666667%);fill-opacity:1;" />
<path d="M 375.960938 129.121094 L 375.960938 482.199219 C 357.898438 491.808594 338.539062 499.308594 318.21875 504.378906 L 193.78125 503.378906 C 191.03125 502.699219 187.15625 500.96875 184.449219 500.191406 L 184.449219 115.960938 L 360.910156 115.960938 C 368.960938 115.960938 375.539062 121.5 375.941406 128.441406 C 375.949219 128.671875 375.960938 128.890625 375.960938 129.121094 Z M 375.960938 129.121094 " style=" stroke:none;fill-rule:nonzero;fill:rgb(89.803922%,16.078431%,16.078431%);fill-opacity:1;" />
<path d="M 375.960938 129.121094 L 375.960938 482.199219 C 357.898438 491.808594 338.539062 499.308594 318.21875 504.378906 L 256 504.378906 L 256 115.960938 L 362.800781 115.960938 C 369.839844 115.960938 375.589844 121.5 375.941406 128.441406 C 375.949219 128.671875 375.960938 128.890625 375.960938 129.121094 Z M 375.960938 129.121094 " style=" stroke:none;fill-rule:nonzero;fill:rgb(72.941176%,5.098039%,36.078431%);fill-opacity:1;" />
<path d="M 375.960938 121.921875 L 375.960938 139.761719 L 136.039062 139.761719 L 136.039062 121.921875 C 136.039062 121.761719 136.058594 121.609375 136.058594 121.460938 L 136.058594 105.738281 L 160.570312 82.671875 L 184 105.261719 L 184.5 105.738281 L 208.441406 82.671875 L 232.371094 105.738281 L 256 82.960938 L 256.300781 82.671875 L 280.230469 105.738281 L 304.160156 82.671875 L 328.078125 105.738281 L 352.011719 82.671875 L 375.941406 105.738281 L 375.941406 121.460938 C 375.941406 121.609375 375.960938 121.761719 375.960938 121.921875 Z M 375.960938 121.921875 " style=" stroke:none;fill-rule:nonzero;fill:rgb(100%,100%,100%);fill-opacity:1;" />
<path d="M 375.960938 121.921875 L 375.960938 139.761719 L 184.460938 139.761719 L 184.5 105.738281 L 208.441406 82.671875 L 232.371094 105.738281 L 256 82.960938 L 256.300781 82.671875 L 280.230469 105.738281 L 304.160156 82.671875 L 328.078125 105.738281 L 352.011719 82.671875 L 375.941406 105.738281 L 375.941406 121.460938 C 375.941406 121.609375 375.960938 121.761719 375.960938 121.921875 Z M 375.960938 121.921875 " style=" stroke:none;fill-rule:nonzero;fill:rgb(92.156863%,94.117647%,95.294118%);fill-opacity:1;" />
<path d="M 375.960938 480.578125 L 375.960938 482.199219 C 357.898438 491.808594 338.539062 499.308594 318.21875 504.378906 C 298.300781 509.359375 277.460938 512 256 512 C 234.539062 512 213.699219 509.359375 193.78125 504.378906 C 191.03125 503.699219 188.289062 502.96875 185.578125 502.191406 C 185.050781 502.039062 184.519531 501.890625 184 501.730469 C 167.230469 496.828125 151.179688 490.261719 136.039062 482.199219 L 136.039062 480.578125 Z M 375.960938 480.578125 " style=" stroke:none;fill-rule:nonzero;fill:rgb(100%,100%,100%);fill-opacity:1;" />
<path d="M 375.960938 480.578125 L 375.960938 482.199219 C 357.898438 491.808594 338.539062 499.308594 318.21875 504.378906 C 298.300781 509.359375 277.460938 512 256 512 C 234.539062 512 213.699219 509.359375 193.78125 504.378906 C 191.03125 503.699219 188.289062 502.96875 185.578125 502.191406 C 185.050781 502.039062 184.96875 502.03125 184.449219 501.871094 L 184.449219 480.722656 Z M 375.960938 480.578125 " style=" stroke:none;fill-rule:nonzero;fill:rgb(92.156863%,94.117647%,95.294118%);fill-opacity:1;" />
<path d="M 375.960938 121.921875 L 375.960938 139.761719 L 256 139.761719 L 256 82.960938 L 256.300781 82.671875 L 280.230469 105.742188 L 304.160156 82.671875 L 328.078125 105.742188 L 352.011719 82.671875 L 375.941406 105.742188 L 375.941406 121.460938 C 375.941406 121.609375 375.960938 121.761719 375.960938 121.921875 Z M 375.960938 121.921875 " style=" stroke:none;fill-rule:nonzero;fill:rgb(78.039216%,85.098039%,100%);fill-opacity:1;" />
<path d="M 375.960938 480.578125 L 375.960938 482.199219 C 357.898438 491.808594 338.539062 499.308594 318.21875 504.378906 C 298.300781 509.359375 277.460938 512 256 512 L 256 480.578125 Z M 375.960938 480.578125 " style=" stroke:none;fill-rule:nonzero;fill:rgb(78.039216%,85.098039%,100%);fill-opacity:1;" />
<path d="M 345.5 327.679688 C 345.5 377.222656 305.480469 417.410156 256 417.671875 C 255.828125 417.679688 255.671875 417.679688 255.5 417.679688 C 205.789062 417.679688 165.5 377.390625 165.5 327.679688 C 165.5 277.972656 205.789062 237.679688 255.5 237.679688 C 255.671875 237.679688 255.828125 237.679688 256 237.691406 C 305.480469 237.949219 345.5 278.140625 345.5 327.679688 Z M 345.5 327.679688 " style=" stroke:none;fill-rule:nonzero;fill:rgb(100%,81.960784%,7.058824%);fill-opacity:1;" />
<path d="M 345.5 327.679688 C 345.5 377.222656 305.480469 417.410156 256 417.671875 L 256 237.691406 C 305.480469 237.949219 345.5 278.140625 345.5 327.679688 Z M 345.5 327.679688 " style=" stroke:none;fill-rule:nonzero;fill:rgb(100%,62.352941%,0%);fill-opacity:1;" />
<path d="M 329.484375 327.671875 C 329.484375 368.257812 296.585938 401.15625 256 401.15625 C 215.414062 401.15625 182.515625 368.257812 182.515625 327.671875 C 182.515625 287.085938 215.414062 254.183594 256 254.183594 C 296.585938 254.183594 329.484375 287.085938 329.484375 327.671875 Z M 329.484375 327.671875 " style=" stroke:none;fill-rule:nonzero;fill:rgb(100%,100%,100%);fill-opacity:1;" />
<path d="M 329.484375 327.671875 C 329.484375 368.253906 296.582031 401.15625 256 401.15625 L 256 254.1875 C 296.582031 254.1875 329.484375 287.089844 329.484375 327.671875 Z M 329.484375 327.671875 " style=" stroke:none;fill-rule:nonzero;fill:rgb(92.156863%,94.117647%,95.294118%);fill-opacity:1;" />
<path d="M 282.390625 353.203125 L 261.796875 373.796875 C 260.1875 375.40625 258.09375 376.21875 255.988281 376.234375 C 253.804688 376.257812 251.613281 375.425781 249.964844 373.738281 L 246.515625 370.21875 C 246.511719 370.214844 246.511719 370.214844 246.511719 370.214844 L 229.847656 353.203125 C 215.214844 338.570312 215.339844 314.765625 230.222656 300.289062 C 236.710938 293.980469 244.980469 290.527344 253.421875 289.921875 C 254.277344 289.859375 255.132812 289.828125 255.988281 289.824219 C 265.394531 289.796875 274.808594 293.28125 282.015625 300.289062 C 296.898438 314.765625 297.023438 338.570312 282.390625 353.203125 Z M 282.390625 353.203125 " style=" stroke:none;fill-rule:nonzero;fill:rgb(100%,20.392157%,27.058824%);fill-opacity:1;" />
<path d="M 282.390625 353.203125 L 261.796875 373.796875 C 260.1875 375.40625 258.09375 376.21875 255.988281 376.234375 C 253.804688 376.257812 251.613281 375.425781 249.964844 373.738281 L 246.515625 370.21875 C 246.511719 370.214844 246.511719 370.214844 246.511719 370.214844 C 227.53125 347.539062 228.878906 313.609375 250.554688 292.527344 C 251.488281 291.621094 252.445312 290.753906 253.421875 289.921875 C 254.277344 289.859375 255.132812 289.828125 255.988281 289.824219 C 265.394531 289.796875 274.808594 293.28125 282.015625 300.289062 C 296.898438 314.765625 297.023438 338.570312 282.390625 353.203125 Z M 282.390625 353.203125 " style=" stroke:none;fill-rule:nonzero;fill:rgb(89.803922%,16.078431%,16.078431%);fill-opacity:1;" />
<path d="M 282.390625 353.203125 L 261.796875 373.796875 C 260.1875 375.40625 258.09375 376.21875 255.988281 376.234375 L 255.988281 289.824219 C 265.394531 289.796875 274.808594 293.28125 282.015625 300.289062 C 296.898438 314.765625 297.023438 338.570312 282.390625 353.203125 Z M 282.390625 353.203125 " style=" stroke:none;fill-rule:nonzero;fill:rgb(72.941176%,5.098039%,36.078431%);fill-opacity:1;" />
<path d="M 274.628906 304.878906 C 270.152344 305.3125 265.503906 304.15625 261.597656 301.277344 C 259.238281 299.535156 257.40625 297.347656 256.117188 294.921875 C 256.074219 295 256.035156 295.078125 255.988281 295.15625 C 254.714844 297.488281 252.925781 299.59375 250.640625 301.277344 C 246.734375 304.15625 242.085938 305.3125 237.609375 304.878906 C 238.511719 300.46875 240.988281 296.367188 244.894531 293.484375 C 245.640625 292.933594 246.414062 292.449219 247.210938 292.023438 C 246.414062 291.601562 245.640625 291.113281 244.894531 290.566406 C 240.988281 287.683594 238.511719 283.578125 237.609375 279.171875 C 242.085938 278.738281 246.734375 279.890625 250.640625 282.777344 C 252.914062 284.449219 254.695312 286.539062 255.972656 288.863281 C 255.972656 288.867188 255.972656 288.867188 255.972656 288.867188 C 256.023438 288.957031 256.070312 289.042969 256.117188 289.132812 C 257.40625 286.699219 259.238281 284.515625 261.597656 282.777344 C 265.503906 279.890625 270.152344 278.738281 274.628906 279.171875 C 273.722656 283.578125 271.25 287.683594 267.34375 290.566406 C 266.597656 291.113281 265.824219 291.601562 265.03125 292.023438 C 265.824219 292.449219 266.597656 292.933594 267.34375 293.484375 C 271.25 296.367188 273.722656 300.46875 274.628906 304.878906 Z M 274.628906 304.878906 " style=" stroke:none;fill-rule:nonzero;fill:rgb(58.431373%,83.921569%,0%);fill-opacity:1;" />
<path d="M 274.628906 304.878906 C 270.152344 305.3125 265.503906 304.15625 261.597656 301.277344 C 259.238281 299.535156 257.40625 297.347656 256.117188 294.921875 C 256.074219 295 256.035156 295.078125 255.988281 295.15625 L 255.988281 288.992188 C 255.988281 288.992188 255.984375 288.949219 255.972656 288.867188 C 256.023438 288.957031 256.070312 289.042969 256.117188 289.132812 C 257.40625 286.699219 259.238281 284.515625 261.597656 282.777344 C 265.503906 279.890625 270.152344 278.738281 274.628906 279.171875 C 273.722656 283.578125 271.25 287.683594 267.34375 290.566406 C 266.597656 291.113281 265.824219 291.601562 265.03125 292.023438 C 265.824219 292.449219 266.597656 292.933594 267.34375 293.484375 C 271.25 296.367188 273.722656 300.46875 274.628906 304.878906 Z M 274.628906 304.878906 " style=" stroke:none;fill-rule:nonzero;fill:rgb(0%,62.745098%,25.882353%);fill-opacity:1;" />
</g>
</svg>