<svg xmlns="http://www.w3.org/2000/svg" height="512pt" version="1.1" viewBox="0 0 512 512" width="512pt">
<g id="surface1">
<path d="M 512 256 C 512 397.386719 397.386719 512 256 512 C 114.613281 512 0 397.386719 0 256 C 0 114.613281 114.613281 0 256 0 C 397.386719 0 512 114.613281 512 256 Z M 512 256 " style=" stroke:none;fill-rule:nonzero;fill:rgb(61.960784%,41.176471%,88.627451%);fill-opacity:1;" />
<path d="M 512 256 C 512 282.050781 508.109375 307.191406 500.871094 330.871094 C 468.859375 435.71875 371.328125 512 256 512 C 151.441406 512 61.511719 449.300781 21.769531 359.449219 C 7.769531 327.820312 0 292.820312 0 256 C 0 209.78125 12.25 166.429688 33.679688 129 C 77.800781 206.070312 160.839844 258 256 258 C 351.160156 258 434.210938 206.070312 478.320312 129 C 499.75 166.429688 512 209.78125 512 256 Z M 512 256 " style=" stroke:none;fill-rule:nonzero;fill:rgb(55.686275%,30.980392%,82.352941%);fill-opacity:1;" />
<path d="M 30.742188 377.703125 C 37.898438 390.921875 46.171875 403.441406 55.460938 415.128906 C 102.359375 474.148438 174.761719 512 256 512 C 337.238281 512 409.640625 474.148438 456.539062 415.128906 C 465.828125 403.441406 474.101562 390.921875 481.257812 377.703125 Z M 30.742188 377.703125 " style=" stroke:none;fill-rule:nonzero;fill:rgb(43.921569%,21.960784%,72.941176%);fill-opacity:1;" />
<path d="M 270 270 L 270 511.621094 C 265.371094 511.871094 260.699219 512 256 512 C 251.300781 512 246.628906 511.871094 242 511.621094 L 242 270 Z M 270 270 " style=" stroke:none;fill-rule:nonzero;fill:rgb(100%,100%,100%);fill-opacity:1;" />
<path d="M 242 270 L 270 270 L 270 420 L 242 420 Z M 242 270 " style=" stroke:none;fill-rule:nonzero;fill:rgb(78.039216%,85.098039%,100%);fill-opacity:1;" />
<path d="M 413 234.421875 C 413 211.070312 399.078125 190.960938 379.089844 181.941406 C 386.53125 161.558594 382.078125 137.808594 365.730469 121.460938 C 349.210938 104.941406 325.148438 100.558594 304.640625 108.320312 C 295.488281 88.640625 275.550781 75 252.421875 75 L 252 75 C 247.070312 75.03125 242.28125 75.691406 237.710938 76.898438 C 220.839844 81.351562 207 93.269531 199.941406 108.910156 C 179.558594 101.46875 155.808594 105.921875 139.460938 122.269531 C 122.941406 138.789062 118.558594 162.851562 126.320312 183.359375 C 106.640625 192.511719 93 212.449219 93 235.578125 C 93 258.929688 106.921875 279.039062 126.910156 288.058594 C 119.46875 308.441406 123.921875 332.191406 140.269531 348.539062 C 156.789062 365.058594 180.851562 369.441406 201.359375 361.679688 C 207.839844 375.609375 219.71875 386.511719 234.308594 391.691406 C 236.789062 392.578125 239.359375 393.289062 242 393.820312 C 245.238281 394.488281 248.578125 394.878906 252 394.96875 C 252.519531 394.988281 253.050781 395 253.578125 395 C 254.289062 395 255 394.988281 255.710938 394.960938 L 255.761719 394.960938 C 256.359375 394.941406 256.949219 394.910156 257.539062 394.859375 C 257.710938 394.851562 257.878906 394.839844 258.050781 394.828125 C 258.550781 394.789062 259.039062 394.75 259.53125 394.699219 C 259.71875 394.679688 259.921875 394.648438 260.121094 394.628906 C 260.671875 394.570312 261.210938 394.5 261.75 394.421875 C 261.890625 394.398438 262.03125 394.378906 262.171875 394.359375 C 262.789062 394.269531 263.410156 394.171875 264.03125 394.050781 C 264.109375 394.039062 264.179688 394.019531 264.261719 394.011719 C 264.75 393.921875 265.238281 393.820312 265.730469 393.710938 C 265.929688 393.671875 266.128906 393.628906 266.320312 393.578125 C 266.710938 393.5 267.089844 393.410156 267.46875 393.308594 C 267.769531 393.238281 268.058594 393.160156 268.359375 393.078125 C 268.359375 393.078125 268.371094 393.078125 268.378906 393.070312 C 268.890625 392.941406 269.398438 392.800781 269.898438 392.648438 C 269.929688 392.640625 269.96875 392.628906 270 392.621094 C 270.5 392.46875 271 392.320312 271.5 392.148438 C 271.980469 391.988281 272.449219 391.828125 272.921875 391.660156 C 273.441406 391.480469 273.949219 391.289062 274.449219 391.089844 C 274.859375 390.929688 275.28125 390.761719 275.691406 390.589844 C 276.238281 390.371094 276.78125 390.128906 277.320312 389.878906 C 278.191406 389.488281 279.058594 389.070312 279.910156 388.628906 C 282.351562 387.371094 284.699219 385.941406 286.921875 384.351562 C 287.390625 384.019531 287.851562 383.679688 288.300781 383.339844 C 289.851562 382.171875 291.328125 380.921875 292.75 379.589844 C 292.988281 379.371094 293.230469 379.140625 293.46875 378.910156 C 293.738281 378.660156 294 378.410156 294.261719 378.140625 C 295.238281 377.171875 296.179688 376.160156 297.078125 375.109375 C 297.25 374.921875 297.421875 374.71875 297.578125 374.53125 C 297.859375 374.199219 298.128906 373.871094 298.398438 373.53125 C 298.890625 372.941406 299.359375 372.328125 299.808594 371.710938 C 299.980469 371.488281 300.148438 371.261719 300.308594 371.03125 C 300.601562 370.628906 300.890625 370.21875 301.160156 369.808594 C 301.480469 369.351562 301.789062 368.878906 302.089844 368.410156 C 302.601562 367.621094 303.089844 366.808594 303.550781 365.988281 C 303.769531 365.609375 303.980469 365.238281 304.191406 364.851562 C 304.230469 364.78125 304.269531 364.699219 304.308594 364.621094 C 304.570312 364.160156 304.808594 363.679688 305.050781 363.210938 C 305.398438 362.511719 305.738281 361.800781 306.058594 361.089844 C 326.441406 368.53125 350.191406 364.078125 366.539062 347.730469 C 383.058594 331.210938 387.441406 307.148438 379.679688 286.640625 C 399.359375 277.488281 413 257.550781 413 234.421875 Z M 413 234.421875 " style=" stroke:none;fill-rule:nonzero;fill:rgb(40.784314%,98.823529%,87.45098%);fill-opacity:1;" />
<path d="M 413 234.421875 C 413 211.070312 399.078125 190.960938 379.089844 181.941406 C 386.53125 161.558594 382.078125 137.808594 365.730469 121.460938 C 349.210938 104.941406 325.148438 100.558594 304.640625 108.320312 C 295.488281 88.640625 275.550781 75 252.421875 75 L 252 75 C 247.070312 75.03125 242.28125 75.691406 237.710938 76.898438 C 231.039062 80.328125 224.78125 86.058594 219.46875 94.089844 C 205.789062 114.738281 202.171875 144.808594 208.589844 170.449219 C 192.300781 181.890625 181 206.808594 181 235.730469 C 181 264.910156 192.53125 290.050781 209.078125 301.328125 C 202.921875 326.800781 206.609375 356.488281 220.148438 376.929688 C 224.371094 383.289062 229.179688 388.21875 234.308594 391.691406 C 236.789062 392.578125 239.359375 393.289062 242 393.820312 C 245.238281 394.488281 248.578125 394.878906 252 394.96875 C 252.519531 394.988281 253.050781 395 253.578125 395 C 254.289062 395 255 394.988281 255.710938 394.960938 L 255.761719 394.960938 C 256.359375 394.941406 256.949219 394.910156 257.539062 394.859375 C 257.710938 394.851562 257.878906 394.839844 258.050781 394.828125 C 258.550781 394.789062 259.039062 394.75 259.53125 394.699219 C 259.71875 394.679688 259.921875 394.648438 260.121094 394.628906 C 260.671875 394.570312 261.210938 394.5 261.75 394.421875 C 261.890625 394.398438 262.03125 394.378906 262.171875 394.359375 C 262.789062 394.269531 263.410156 394.171875 264.03125 394.050781 C 264.109375 394.039062 264.179688 394.019531 264.261719 394.011719 C 264.75 393.921875 265.238281 393.820312 265.730469 393.710938 C 265.929688 393.671875 266.128906 393.628906 266.320312 393.578125 C 266.710938 393.5 267.089844 393.410156 267.46875 393.308594 C 267.769531 393.238281 268.058594 393.160156 268.359375 393.078125 C 268.359375 393.078125 268.371094 393.078125 268.378906 393.070312 C 268.890625 392.941406 269.398438 392.800781 269.898438 392.648438 C 269.929688 392.640625 269.96875 392.628906 270 392.621094 C 270.5 392.46875 271 392.320312 271.5 392.148438 C 271.980469 391.988281 272.449219 391.828125 272.921875 391.660156 C 273.441406 391.480469 273.949219 391.289062 274.449219 391.089844 C 274.859375 390.929688 275.28125 390.761719 275.691406 390.589844 C 276.238281 390.371094 276.78125 390.128906 277.320312 389.878906 C 278.191406 389.488281 279.058594 389.070312 279.910156 388.628906 C 282.351562 387.371094 284.699219 385.941406 286.921875 384.351562 C 287.390625 384.019531 287.851562 383.679688 288.300781 383.339844 C 289.851562 382.171875 291.328125 380.921875 292.75 379.589844 C 292.988281 379.371094 293.230469 379.140625 293.46875 378.910156 C 293.738281 378.660156 294 378.410156 294.261719 378.140625 C 295.238281 377.171875 296.179688 376.160156 297.078125 375.109375 C 297.25 374.921875 297.421875 374.71875 297.578125 374.53125 C 297.859375 374.199219 298.128906 373.871094 298.398438 373.53125 C 298.890625 372.941406 299.359375 372.328125 299.808594 371.710938 C 299.980469 371.488281 300.148438 371.261719 300.308594 371.03125 C 300.601562 370.628906 300.890625 370.21875 301.160156 369.808594 C 301.480469 369.351562 301.789062 368.878906 302.089844 368.410156 C 302.601562 367.621094 303.089844 366.808594 303.550781 365.988281 C 303.769531 365.609375 303.980469 365.238281 304.191406 364.851562 C 304.230469 364.78125 304.269531 364.699219 304.308594 364.621094 C 304.570312 364.160156 304.808594 363.679688 305.050781 363.210938 C 305.398438 362.511719 305.738281 361.800781 306.058594 361.089844 C 326.441406 368.53125 350.191406 364.078125 366.539062 347.730469 C 383.058594 331.210938 387.441406 307.148438 379.679688 286.640625 C 399.359375 277.488281 413 257.550781 413 234.421875 Z M 413 234.421875 " style=" stroke:none;fill-rule:nonzero;fill:rgb(6.27451%,88.627451%,76.862745%);fill-opacity:1;" />
<path d="M 379.679688 286.640625 C 387.441406 307.148438 383.058594 331.210938 366.539062 347.730469 C 350.191406 364.078125 326.441406 368.53125 306.058594 361.089844 C 297.039062 381.078125 276.929688 395 253.578125 395 C 253.050781 395 252.519531 394.988281 252 394.96875 L 252 75 L 252.421875 75 C 275.550781 75 295.488281 88.640625 304.640625 108.320312 C 325.148438 100.558594 349.210938 104.941406 365.730469 121.460938 C 382.078125 137.808594 386.53125 161.558594 379.089844 181.941406 C 399.078125 190.960938 413 211.070312 413 234.421875 C 413 257.550781 399.359375 277.488281 379.679688 286.640625 Z M 379.679688 286.640625 " style=" stroke:none;fill-rule:nonzero;fill:rgb(10.196078%,72.941176%,62.352941%);fill-opacity:1;" />
<path d="M 385.078125 240.269531 C 385.078125 246.472656 380.050781 251.503906 373.847656 251.503906 C 367.644531 251.503906 362.617188 246.472656 362.617188 240.269531 C 362.617188 234.066406 367.644531 229.039062 373.847656 229.039062 C 380.050781 229.039062 385.078125 234.066406 385.078125 240.269531 Z M 385.078125 240.269531 " style=" stroke:none;fill-rule:nonzero;fill:rgb(100%,100%,100%);fill-opacity:1;" />
<path d="M 175.066406 293.710938 C 175.066406 299.914062 170.035156 304.941406 163.835938 304.941406 C 157.632812 304.941406 152.601562 299.914062 152.601562 293.710938 C 152.601562 287.507812 157.632812 282.480469 163.835938 282.480469 C 170.035156 282.480469 175.066406 287.507812 175.066406 293.710938 Z M 175.066406 293.710938 " style=" stroke:none;fill-rule:nonzero;fill:rgb(100%,100%,100%);fill-opacity:1;" />
<path d="M 238.742188 224.636719 C 238.742188 230.839844 233.714844 235.867188 227.511719 235.867188 C 221.308594 235.867188 216.28125 230.839844 216.28125 224.636719 C 216.28125 218.433594 221.308594 213.40625 227.511719 213.40625 C 233.714844 213.40625 238.742188 218.433594 238.742188 224.636719 Z M 238.742188 224.636719 " style=" stroke:none;fill-rule:nonzero;fill:rgb(100%,100%,100%);fill-opacity:1;" />
<path d="M 170.957031 182.222656 C 170.957031 188.425781 165.929688 193.453125 159.726562 193.453125 C 153.523438 193.453125 148.496094 188.425781 148.496094 182.222656 C 148.496094 176.019531 153.523438 170.992188 159.726562 170.992188 C 165.929688 170.992188 170.957031 176.019531 170.957031 182.222656 Z M 170.957031 182.222656 " style=" stroke:none;fill-rule:nonzero;fill:rgb(100%,100%,100%);fill-opacity:1;" />
<path d="M 327.121094 308.761719 C 327.121094 314.960938 322.09375 319.992188 315.890625 319.992188 C 309.6875 319.992188 304.660156 314.960938 304.660156 308.761719 C 304.660156 302.558594 309.6875 297.527344 315.890625 297.527344 C 322.09375 297.527344 327.121094 302.558594 327.121094 308.761719 Z M 327.121094 308.761719 " style=" stroke:none;fill-rule:nonzero;fill:rgb(100%,100%,100%);fill-opacity:1;" />
<path d="M 318.511719 149.328125 C 318.511719 155.53125 313.484375 160.558594 307.28125 160.558594 C 301.078125 160.558594 296.050781 155.53125 296.050781 149.328125 C 296.050781 143.125 301.078125 138.097656 307.28125 138.097656 C 313.484375 138.097656 318.511719 143.125 318.511719 149.328125 Z M 318.511719 149.328125 " style=" stroke:none;fill-rule:nonzero;fill:rgb(100%,100%,100%);fill-opacity:1;" />
<path d="M 316.636719 230.894531 C 316.636719 237.097656 311.609375 242.125 305.40625 242.125 C 299.203125 242.125 294.175781 237.097656 294.175781 230.894531 C 294.175781 224.691406 299.203125 219.664062 305.40625 219.664062 C 311.609375 219.664062 316.636719 224.691406 316.636719 230.894531 Z M 316.636719 230.894531 " style=" stroke:none;fill-rule:nonzero;fill:rgb(100%,100%,100%);fill-opacity:1;" />
</g>
</svg>