<svg xmlns="http://www.w3.org/2000/svg" height="512pt" version="1.1" viewBox="0 0 512 512" width="512pt">
<g id="surface1">
<path d="M 512 256 C 512 397.386719 397.386719 512 256 512 C 114.613281 512 0 397.386719 0 256 C 0 114.613281 114.613281 0 256 0 C 397.386719 0 512 114.613281 512 256 Z M 512 256 " style=" stroke:none;fill-rule:nonzero;fill:rgb(100%,91.372549%,33.333333%);fill-opacity:1;" />
<path d="M 512 256 C 512 282.050781 508.109375 307.191406 500.871094 330.871094 C 468.859375 435.71875 371.328125 512 256 512 C 151.441406 512 61.511719 449.300781 21.769531 359.449219 C 7.769531 327.820312 0 292.820312 0 256 C 0 209.78125 12.25 166.429688 33.679688 129 C 77.800781 206.070312 160.839844 258 256 258 C 351.160156 258 434.210938 206.070312 478.320312 129 C 499.75 166.429688 512 209.78125 512 256 Z M 512 256 " style=" stroke:none;fill-rule:nonzero;fill:rgb(100%,81.960784%,7.058824%);fill-opacity:1;" />
<path d="M 30.742188 377.703125 C 37.898438 390.921875 46.171875 403.441406 55.460938 415.128906 C 102.359375 474.148438 174.761719 512 256 512 C 337.238281 512 409.640625 474.148438 456.539062 415.128906 C 465.828125 403.441406 474.101562 390.921875 481.257812 377.703125 Z M 30.742188 377.703125 " style=" stroke:none;fill-rule:nonzero;fill:rgb(100%,62.352941%,0%);fill-opacity:1;" />
<path d="M 256.289062 131.351562 L 256 131.351562 C 150.890625 131.351562 65.679688 216.558594 65.679688 321.679688 C 65.679688 426.789062 150.890625 512 256 512 L 256.289062 512 C 361.269531 511.839844 446.320312 426.691406 446.320312 321.679688 C 446.320312 216.660156 361.269531 131.511719 256.289062 131.351562 Z M 256 367.28125 C 230.820312 367.28125 210.398438 346.859375 210.398438 321.679688 C 210.398438 296.488281 230.820312 276.070312 256 276.070312 C 281.179688 276.070312 301.601562 296.488281 301.601562 321.679688 C 301.601562 346.859375 281.179688 367.28125 256 367.28125 Z M 256 367.28125 " style=" stroke:none;fill-rule:nonzero;fill:rgb(77.254902%,34.509804%,20.784314%);fill-opacity:1;" />
<path d="M 256.289062 131.351562 C 195.71875 172.929688 155.988281 242.660156 155.988281 321.679688 C 155.988281 400.699219 195.71875 470.429688 256.289062 512 C 361.269531 511.839844 446.320312 426.691406 446.320312 321.679688 C 446.320312 216.660156 361.269531 131.511719 256.289062 131.351562 Z M 256 367.28125 C 230.820312 367.28125 210.398438 346.859375 210.398438 321.679688 C 210.398438 296.488281 230.820312 276.070312 256 276.070312 C 281.179688 276.070312 301.601562 296.488281 301.601562 321.679688 C 301.601562 346.859375 281.179688 367.28125 256 367.28125 Z M 256 367.28125 " style=" stroke:none;fill-rule:nonzero;fill:rgb(65.098039%,22.352941%,7.843137%);fill-opacity:1;" />
<path d="M 446.320312 321.679688 C 446.320312 426.789062 361.109375 512 256 512 L 256 367.28125 C 281.179688 367.28125 301.601562 346.859375 301.601562 321.679688 C 301.601562 296.488281 281.179688 276.070312 256 276.070312 L 256 131.351562 C 361.109375 131.351562 446.320312 216.558594 446.320312 321.679688 Z M 446.320312 321.679688 " style=" stroke:none;fill-rule:nonzero;fill:rgb(47.843137%,17.647059%,10.196078%);fill-opacity:1;" />
<path d="M 256 157.851562 C 243.800781 157.851562 231.898438 159.191406 220.449219 161.738281 C 147.148438 178.019531 92.179688 243.550781 92.179688 321.679688 C 92.179688 399.800781 147.148438 465.328125 220.441406 481.609375 C 231.890625 484.160156 243.789062 485.5 256 485.5 C 346.328125 485.5 419.820312 412.011719 419.820312 321.679688 C 419.820312 231.339844 346.328125 157.851562 256 157.851562 Z M 256 402.011719 C 211.699219 402.011719 175.671875 365.96875 175.671875 321.679688 C 175.671875 277.378906 211.699219 241.339844 256 241.339844 C 300.300781 241.339844 336.328125 277.378906 336.328125 321.679688 C 336.328125 365.96875 300.300781 402.011719 256 402.011719 Z M 256 402.011719 " style=" stroke:none;fill-rule:nonzero;fill:rgb(97.647059%,63.529412%,74.901961%);fill-opacity:1;" />
<path d="M 256 157.851562 C 243.800781 157.851562 231.898438 159.191406 220.449219 161.738281 C 180.53125 203.210938 155.988281 259.570312 155.988281 321.679688 C 155.988281 383.78125 180.53125 440.140625 220.441406 481.609375 C 231.890625 484.160156 243.789062 485.5 256 485.5 C 346.328125 485.5 419.820312 412.011719 419.820312 321.679688 C 419.820312 231.339844 346.328125 157.851562 256 157.851562 Z M 256 402.011719 C 211.699219 402.011719 175.671875 365.96875 175.671875 321.679688 C 175.671875 277.378906 211.699219 241.339844 256 241.339844 C 300.300781 241.339844 336.328125 277.378906 336.328125 321.679688 C 336.328125 365.96875 300.300781 402.011719 256 402.011719 Z M 256 402.011719 " style=" stroke:none;fill-rule:nonzero;fill:rgb(97.647059%,52.156863%,65.098039%);fill-opacity:1;" />
<path d="M 419.820312 321.679688 C 419.820312 412.011719 346.328125 485.5 256 485.5 L 256 402.011719 C 300.300781 402.011719 336.328125 365.96875 336.328125 321.679688 C 336.328125 277.378906 300.300781 241.339844 256 241.339844 L 256 157.851562 C 346.328125 157.851562 419.820312 231.339844 419.820312 321.679688 Z M 419.820312 321.679688 " style=" stroke:none;fill-rule:nonzero;fill:rgb(100%,39.215686%,46.666667%);fill-opacity:1;" />
<path d="M 233.5625 181.667969 C 233.5625 187.871094 228.535156 192.898438 222.332031 192.898438 C 216.128906 192.898438 211.101562 187.871094 211.101562 181.667969 C 211.101562 175.464844 216.128906 170.4375 222.332031 170.4375 C 228.535156 170.4375 233.5625 175.464844 233.5625 181.667969 Z M 233.5625 181.667969 " style=" stroke:none;fill-rule:nonzero;fill:rgb(100%,81.960784%,7.058824%);fill-opacity:1;" />
<path d="M 200.28125 230.332031 C 200.28125 234.355469 197.019531 237.613281 193 237.613281 C 188.980469 237.613281 185.71875 234.355469 185.71875 230.332031 C 185.71875 226.3125 188.980469 223.050781 193 223.050781 C 197.019531 223.050781 200.28125 226.3125 200.28125 230.332031 Z M 200.28125 230.332031 " style=" stroke:none;fill-rule:nonzero;fill:rgb(100%,100%,100%);fill-opacity:1;" />
<path d="M 190.28125 446.332031 C 190.28125 450.355469 187.019531 453.613281 183 453.613281 C 178.980469 453.613281 175.71875 450.355469 175.71875 446.332031 C 175.71875 442.3125 178.980469 439.050781 183 439.050781 C 187.019531 439.050781 190.28125 442.3125 190.28125 446.332031 Z M 190.28125 446.332031 " style=" stroke:none;fill-rule:nonzero;fill:rgb(100%,100%,100%);fill-opacity:1;" />
<path d="M 348.28125 438.332031 C 348.28125 442.355469 345.019531 445.613281 341 445.613281 C 336.980469 445.613281 333.71875 442.355469 333.71875 438.332031 C 333.71875 434.3125 336.980469 431.050781 341 431.050781 C 345.019531 431.050781 348.28125 434.3125 348.28125 438.332031 Z M 348.28125 438.332031 " style=" stroke:none;fill-rule:nonzero;fill:rgb(100%,100%,100%);fill-opacity:1;" />
<path d="M 142.28125 311 C 142.28125 315.019531 139.019531 318.28125 135 318.28125 C 130.980469 318.28125 127.71875 315.019531 127.71875 311 C 127.71875 306.980469 130.980469 303.71875 135 303.71875 C 139.019531 303.71875 142.28125 306.980469 142.28125 311 Z M 142.28125 311 " style=" stroke:none;fill-rule:nonzero;fill:rgb(100%,100%,100%);fill-opacity:1;" />
<path d="M 380.28125 325.667969 C 380.28125 329.6875 377.019531 332.949219 373 332.949219 C 368.980469 332.949219 365.71875 329.6875 365.71875 325.667969 C 365.71875 321.644531 368.980469 318.386719 373 318.386719 C 377.019531 318.386719 380.28125 321.644531 380.28125 325.667969 Z M 380.28125 325.667969 " style=" stroke:none;fill-rule:nonzero;fill:rgb(100%,100%,100%);fill-opacity:1;" />
<path d="M 178.28125 204.332031 C 178.28125 208.355469 175.019531 211.613281 171 211.613281 C 166.980469 211.613281 163.71875 208.355469 163.71875 204.332031 C 163.71875 200.3125 166.980469 197.050781 171 197.050781 C 175.019531 197.050781 178.28125 200.3125 178.28125 204.332031 Z M 178.28125 204.332031 " style=" stroke:none;fill-rule:nonzero;fill:rgb(100%,100%,100%);fill-opacity:1;" />
<path d="M 387.613281 249.667969 C 387.613281 253.6875 384.355469 256.949219 380.332031 256.949219 C 376.3125 256.949219 373.050781 253.6875 373.050781 249.667969 C 373.050781 245.644531 376.3125 242.386719 380.332031 242.386719 C 384.355469 242.386719 387.613281 245.644531 387.613281 249.667969 Z M 387.613281 249.667969 " style=" stroke:none;fill-rule:nonzero;fill:rgb(100%,81.960784%,7.058824%);fill-opacity:1;" />
<path d="M 264.949219 466.28125 C 264.949219 470.300781 261.6875 473.5625 257.667969 473.5625 C 253.644531 473.5625 250.386719 470.300781 250.386719 466.28125 C 250.386719 462.261719 253.644531 459 257.667969 459 C 261.6875 459 264.949219 462.261719 264.949219 466.28125 Z M 264.949219 466.28125 " style=" stroke:none;fill-rule:nonzero;fill:rgb(100%,81.960784%,7.058824%);fill-opacity:1;" />
<path d="M 362.28125 392.332031 C 362.28125 396.355469 359.019531 399.613281 355 399.613281 C 350.980469 399.613281 347.71875 396.355469 347.71875 392.332031 C 347.71875 388.3125 350.980469 385.050781 355 385.050781 C 359.019531 385.050781 362.28125 388.3125 362.28125 392.332031 Z M 362.28125 392.332031 " style=" stroke:none;fill-rule:nonzero;fill:rgb(100%,81.960784%,7.058824%);fill-opacity:1;" />
<path d="M 331.613281 187.667969 C 331.613281 191.6875 328.355469 194.949219 324.332031 194.949219 C 320.3125 194.949219 317.050781 191.6875 317.050781 187.667969 C 317.050781 183.644531 320.3125 180.386719 324.332031 180.386719 C 328.355469 180.386719 331.613281 183.644531 331.613281 187.667969 Z M 331.613281 187.667969 " style=" stroke:none;fill-rule:nonzero;fill:rgb(100%,100%,100%);fill-opacity:1;" />
<path d="M 141.527344 248.957031 C 141.527344 254.796875 136.796875 259.527344 130.957031 259.527344 C 125.117188 259.527344 120.386719 254.796875 120.386719 248.957031 C 120.386719 243.117188 125.117188 238.386719 130.957031 238.386719 C 136.796875 238.386719 141.527344 243.117188 141.527344 248.957031 Z M 141.527344 248.957031 " style=" stroke:none;fill-rule:nonzero;fill:rgb(100%,81.960784%,7.058824%);fill-opacity:1;" />
<path d="M 126.90625 370.332031 C 126.90625 376.171875 122.171875 380.90625 116.332031 380.90625 C 110.496094 380.90625 105.761719 376.171875 105.761719 370.332031 C 105.761719 364.496094 110.496094 359.761719 116.332031 359.761719 C 122.171875 359.761719 126.90625 364.496094 126.90625 370.332031 Z M 126.90625 370.332031 " style=" stroke:none;fill-rule:nonzero;fill:rgb(100%,100%,100%);fill-opacity:1;" />
<path d="M 304.238281 435 C 304.238281 440.839844 299.503906 445.570312 293.667969 445.570312 C 287.828125 445.570312 283.09375 440.839844 283.09375 435 C 283.09375 429.160156 287.828125 424.429688 293.667969 424.429688 C 299.503906 424.429688 304.238281 429.160156 304.238281 435 Z M 304.238281 435 " style=" stroke:none;fill-rule:nonzero;fill:rgb(100%,100%,100%);fill-opacity:1;" />
<path d="M 403.570312 289.570312 C 403.570312 295.410156 398.839844 300.144531 393 300.144531 C 387.160156 300.144531 382.429688 295.410156 382.429688 289.570312 C 382.429688 283.734375 387.160156 279 393 279 C 398.839844 279 403.570312 283.734375 403.570312 289.570312 Z M 403.570312 289.570312 " style=" stroke:none;fill-rule:nonzero;fill:rgb(100%,100%,100%);fill-opacity:1;" />
<path d="M 284.238281 208.238281 C 284.238281 214.078125 279.503906 218.808594 273.667969 218.808594 C 267.828125 218.808594 263.09375 214.078125 263.09375 208.238281 C 263.09375 202.398438 267.828125 197.664062 273.667969 197.664062 C 279.503906 197.664062 284.238281 202.398438 284.238281 208.238281 Z M 284.238281 208.238281 " style=" stroke:none;fill-rule:nonzero;fill:rgb(100%,81.960784%,7.058824%);fill-opacity:1;" />
<path d="M 406.90625 371 C 406.90625 376.839844 402.171875 381.570312 396.332031 381.570312 C 390.496094 381.570312 385.761719 376.839844 385.761719 371 C 385.761719 365.160156 390.496094 360.429688 396.332031 360.429688 C 402.171875 360.429688 406.90625 365.160156 406.90625 371 Z M 406.90625 371 " style=" stroke:none;fill-rule:nonzero;fill:rgb(100%,100%,100%);fill-opacity:1;" />
<path d="M 346.90625 238.332031 C 346.90625 244.171875 342.171875 248.90625 336.332031 248.90625 C 330.496094 248.90625 325.761719 244.171875 325.761719 238.332031 C 325.761719 232.496094 330.496094 227.761719 336.332031 227.761719 C 342.171875 227.761719 346.90625 232.496094 346.90625 238.332031 Z M 346.90625 238.332031 " style=" stroke:none;fill-rule:nonzero;fill:rgb(100%,100%,100%);fill-opacity:1;" />
<path d="M 226.238281 432.332031 C 226.238281 438.171875 221.503906 442.90625 215.667969 442.90625 C 209.828125 442.90625 205.09375 438.171875 205.09375 432.332031 C 205.09375 426.496094 209.828125 421.761719 215.667969 421.761719 C 221.503906 421.761719 226.238281 426.496094 226.238281 432.332031 Z M 226.238281 432.332031 " style=" stroke:none;fill-rule:nonzero;fill:rgb(100%,100%,100%);fill-opacity:1;" />
<path d="M 168.90625 391.667969 C 168.90625 397.503906 164.171875 402.238281 158.332031 402.238281 C 152.496094 402.238281 147.761719 397.503906 147.761719 391.667969 C 147.761719 385.828125 152.496094 381.09375 158.332031 381.09375 C 164.171875 381.09375 168.90625 385.828125 168.90625 391.667969 Z M 168.90625 391.667969 " style=" stroke:none;fill-rule:nonzero;fill:rgb(100%,81.960784%,7.058824%);fill-opacity:1;" />
</g>
</svg>