<svg xmlns="http://www.w3.org/2000/svg" height="512pt" version="1.1" viewBox="0 0 512 512" width="512pt">
<g id="surface1">
<path d="M 512 256 C 512 397.386719 397.386719 512 256 512 C 114.613281 512 0 397.386719 0 256 C 0 114.613281 114.613281 0 256 0 C 397.386719 0 512 114.613281 512 256 Z M 512 256 " style=" stroke:none;fill-rule:nonzero;fill:rgb(61.960784%,41.176471%,88.627451%);fill-opacity:1;" />
<path d="M 512 256 C 512 282.050781 508.109375 307.191406 500.871094 330.871094 C 468.859375 435.71875 371.328125 512 256 512 C 151.441406 512 61.511719 449.300781 21.769531 359.449219 C 7.769531 327.820312 0 292.820312 0 256 C 0 209.78125 12.25 166.429688 33.679688 129 C 77.800781 206.070312 160.839844 258 256 258 C 351.160156 258 434.210938 206.070312 478.320312 129 C 499.75 166.429688 512 209.78125 512 256 Z M 512 256 " style=" stroke:none;fill-rule:nonzero;fill:rgb(55.686275%,30.980392%,82.352941%);fill-opacity:1;" />
<path d="M 30.742188 377.703125 C 37.898438 390.921875 46.171875 403.441406 55.460938 415.128906 C 102.359375 474.148438 174.761719 512 256 512 C 337.238281 512 409.640625 474.148438 456.539062 415.128906 C 465.828125 403.441406 474.101562 390.921875 481.257812 377.703125 Z M 30.742188 377.703125 " style=" stroke:none;fill-rule:nonzero;fill:rgb(43.921569%,21.960784%,72.941176%);fill-opacity:1;" />
<path d="M 316.410156 132.550781 L 305.609375 151.011719 L 300.230469 160.191406 L 256.441406 234.988281 L 256.378906 235.101562 L 256 234.449219 L 211.980469 160.191406 L 206.539062 151.011719 L 195.648438 132.640625 C 187.089844 118.21875 196.929688 99.589844 213.691406 99.019531 C 213.96875 99.011719 214.25 99 214.53125 99 C 219.449219 99 224.03125 100.460938 227.859375 102.96875 C 232.328125 105.898438 238.171875 105.898438 242.640625 102.96875 C 246.46875 100.460938 251.050781 99 255.96875 99 L 256 99 C 260.910156 99.011719 265.480469 100.46875 269.308594 102.96875 C 273.769531 105.898438 279.601562 105.898438 284.070312 102.96875 C 287.898438 100.460938 292.480469 99 297.398438 99 C 297.710938 99 298.011719 99.011719 298.308594 99.019531 C 315.019531 99.628906 324.871094 118.109375 316.410156 132.550781 Z M 316.410156 132.550781 " style=" stroke:none;fill-rule:nonzero;fill:rgb(100%,91.372549%,33.333333%);fill-opacity:1;" />
<path d="M 316.410156 132.550781 L 305.609375 151.011719 L 300.230469 160.191406 L 256.441406 234.988281 L 256.378906 235.101562 L 256 234.449219 L 256 99 C 260.910156 99.011719 265.480469 100.46875 269.308594 102.96875 C 273.769531 105.898438 279.601562 105.898438 284.070312 102.96875 C 287.898438 100.460938 292.480469 99 297.398438 99 C 297.710938 99 298.011719 99.011719 298.308594 99.019531 C 315.019531 99.628906 324.871094 118.109375 316.410156 132.550781 Z M 316.410156 132.550781 " style=" stroke:none;fill-rule:nonzero;fill:rgb(100%,81.960784%,7.058824%);fill-opacity:1;" />
<path d="M 305.609375 151.011719 L 300.230469 160.191406 L 256.441406 234.988281 L 256 234.449219 L 211.980469 160.191406 L 206.539062 151.011719 Z M 305.609375 151.011719 " style=" stroke:none;fill-rule:nonzero;fill:rgb(100%,81.960784%,7.058824%);fill-opacity:1;" />
<path d="M 305.609375 151.011719 L 300.230469 160.191406 L 256.441406 234.988281 L 256.378906 235.101562 L 256 234.449219 L 256 151.011719 Z M 305.609375 151.011719 " style=" stroke:none;fill-rule:nonzero;fill:rgb(100%,62.352941%,0%);fill-opacity:1;" />
<path d="M 318.539062 504.300781 C 298.53125 509.328125 277.570312 512 256 512 C 234.429688 512 213.46875 509.328125 193.460938 504.300781 C 193.96875 502.621094 194.699219 500.96875 195.648438 499.359375 L 206.539062 480.988281 L 211.980469 471.808594 L 256 397.550781 L 256.378906 396.898438 L 256.441406 397.011719 L 300.230469 471.808594 L 305.609375 480.988281 L 316.410156 499.449219 C 317.328125 501.03125 318.039062 502.648438 318.539062 504.300781 Z M 318.539062 504.300781 " style=" stroke:none;fill-rule:nonzero;fill:rgb(100%,91.372549%,33.333333%);fill-opacity:1;" />
<path d="M 318.539062 504.300781 C 298.53125 509.328125 277.570312 512 256 512 L 256 397.550781 L 256.378906 396.898438 L 256.441406 397.011719 L 300.230469 471.808594 L 305.609375 480.988281 L 316.410156 499.449219 C 317.328125 501.03125 318.039062 502.648438 318.539062 504.300781 Z M 318.539062 504.300781 " style=" stroke:none;fill-rule:nonzero;fill:rgb(100%,81.960784%,7.058824%);fill-opacity:1;" />
<path d="M 305.609375 480.988281 L 206.539062 480.988281 L 211.980469 471.808594 L 256 397.550781 L 256.441406 397.011719 L 300.230469 471.808594 Z M 305.609375 480.988281 " style=" stroke:none;fill-rule:nonzero;fill:rgb(100%,81.960784%,7.058824%);fill-opacity:1;" />
<path d="M 305.609375 480.988281 L 256 480.988281 L 256 397.550781 L 256.378906 396.898438 L 256.441406 397.011719 L 300.230469 471.808594 Z M 305.609375 480.988281 " style=" stroke:none;fill-rule:nonzero;fill:rgb(100%,62.352941%,0%);fill-opacity:1;" />
<path d="M 293.699219 196.671875 L 293.699219 318.941406 L 218.300781 318.941406 L 218.300781 196.671875 C 218.300781 190.519531 223.289062 185.53125 229.441406 185.53125 L 282.558594 185.53125 C 288.710938 185.53125 293.699219 190.519531 293.699219 196.671875 Z M 293.699219 196.671875 " style=" stroke:none;fill-rule:nonzero;fill:rgb(100%,20.392157%,27.058824%);fill-opacity:1;" />
<path d="M 293.699219 196.671875 L 293.699219 318.941406 L 256 318.941406 L 256 185.53125 L 282.558594 185.53125 C 288.710938 185.53125 293.699219 190.519531 293.699219 196.671875 Z M 293.699219 196.671875 " style=" stroke:none;fill-rule:nonzero;fill:rgb(72.941176%,5.098039%,36.078431%);fill-opacity:1;" />
<path d="M 293.699219 318.941406 L 293.699219 435.328125 C 293.699219 441.480469 288.710938 446.46875 282.558594 446.46875 L 229.441406 446.46875 C 223.289062 446.46875 218.300781 441.480469 218.300781 435.328125 L 218.300781 318.941406 Z M 293.699219 318.941406 " style=" stroke:none;fill-rule:nonzero;fill:rgb(100%,20.392157%,27.058824%);fill-opacity:1;" />
<path d="M 293.699219 318.941406 L 293.699219 435.328125 C 293.699219 441.480469 288.710938 446.46875 282.558594 446.46875 L 256 446.46875 L 256 318.941406 Z M 293.699219 318.941406 " style=" stroke:none;fill-rule:nonzero;fill:rgb(72.941176%,5.098039%,36.078431%);fill-opacity:1;" />
<path d="M 341.859375 250.199219 L 341.859375 382.921875 C 341.859375 406.761719 322.550781 426.078125 298.699219 426.078125 L 213.300781 426.078125 C 189.449219 426.078125 170.140625 406.761719 170.140625 382.921875 L 170.140625 250.199219 C 170.140625 226.359375 189.449219 207.039062 213.300781 207.039062 L 298.699219 207.039062 C 322.550781 207.039062 341.859375 226.359375 341.859375 250.199219 Z M 341.859375 250.199219 " style=" stroke:none;fill-rule:nonzero;fill:rgb(100%,100%,100%);fill-opacity:1;" />
<path d="M 341.859375 250.199219 L 341.859375 382.921875 C 341.859375 406.761719 322.550781 426.078125 298.699219 426.078125 L 250.441406 426.078125 C 226.589844 426.078125 207.28125 406.761719 207.28125 382.921875 L 207.28125 250.199219 C 207.28125 226.359375 226.589844 207.039062 250.441406 207.039062 L 298.699219 207.039062 C 322.550781 207.039062 341.859375 226.359375 341.859375 250.199219 Z M 341.859375 250.199219 " style=" stroke:none;fill-rule:nonzero;fill:rgb(92.156863%,94.117647%,95.294118%);fill-opacity:1;" />
<path d="M 341.859375 250.199219 L 341.859375 382.921875 C 341.859375 406.761719 322.550781 426.078125 298.699219 426.078125 L 256 426.078125 L 256 207.039062 L 298.699219 207.039062 C 322.550781 207.039062 341.859375 226.359375 341.859375 250.199219 Z M 341.859375 250.199219 " style=" stroke:none;fill-rule:nonzero;fill:rgb(78.039216%,85.098039%,100%);fill-opacity:1;" />
<path d="M 341.859375 250.199219 L 341.859375 308.679688 L 264.769531 256.699219 L 256 250.789062 L 216 223.808594 L 196.289062 210.519531 C 201.511719 208.289062 207.25 207.039062 213.300781 207.039062 L 285.289062 207.039062 L 341.539062 244.960938 C 341.589844 245.390625 341.640625 245.820312 341.671875 246.25 C 341.699219 246.578125 341.730469 246.898438 341.75 247.230469 C 341.78125 247.460938 341.789062 247.699219 341.800781 247.941406 C 341.820312 248.25 341.828125 248.558594 341.839844 248.871094 C 341.851562 249.308594 341.859375 249.761719 341.859375 250.199219 Z M 341.859375 250.199219 " style=" stroke:none;fill-rule:nonzero;fill:rgb(100%,91.372549%,33.333333%);fill-opacity:1;" />
<path d="M 310.921875 424.308594 C 309.949219 424.601562 308.96875 424.851562 307.96875 425.070312 C 307.46875 425.179688 306.96875 425.28125 306.46875 425.378906 C 306.070312 425.449219 305.671875 425.519531 305.269531 425.578125 C 305.070312 425.609375 304.851562 425.648438 304.640625 425.671875 C 304.230469 425.730469 303.820312 425.78125 303.410156 425.820312 C 303.058594 425.859375 302.699219 425.898438 302.339844 425.921875 C 302.238281 425.941406 302.128906 425.949219 302.019531 425.949219 C 301.710938 425.980469 301.398438 426 301.089844 426.011719 C 300.808594 426.03125 300.519531 426.039062 300.230469 426.050781 C 299.71875 426.070312 299.210938 426.078125 298.699219 426.078125 L 219.371094 426.078125 L 171.53125 393.820312 C 170.621094 390.339844 170.140625 386.691406 170.140625 382.921875 L 170.140625 329.390625 L 207 354.238281 L 256 387.28125 Z M 310.921875 424.308594 " style=" stroke:none;fill-rule:nonzero;fill:rgb(100%,91.372549%,33.333333%);fill-opacity:1;" />
<path d="M 341.859375 345.179688 L 341.859375 382.921875 C 341.859375 383.421875 341.851562 383.910156 341.828125 384.398438 C 341.820312 384.761719 341.808594 385.121094 341.78125 385.46875 C 341.769531 385.71875 341.75 385.96875 341.730469 386.21875 C 341.628906 387.601562 341.460938 388.960938 341.230469 390.289062 C 341.160156 390.738281 341.070312 391.179688 340.980469 391.621094 C 340.878906 392.128906 340.769531 392.640625 340.640625 393.140625 C 340.558594 393.46875 340.480469 393.800781 340.390625 394.121094 C 339.988281 395.609375 339.519531 397.070312 338.960938 398.5 C 338.800781 398.910156 338.640625 399.308594 338.46875 399.710938 L 338.46875 399.71875 C 338.289062 400.148438 338.101562 400.570312 337.898438 400.988281 C 337.699219 401.449219 337.480469 401.898438 337.25 402.339844 C 337.058594 402.71875 336.859375 403.101562 336.648438 403.480469 C 336.441406 403.890625 336.210938 404.289062 335.96875 404.691406 L 335.960938 404.691406 L 256 350.78125 L 207 317.738281 L 170.640625 293.230469 L 170.140625 292.890625 L 170.140625 250.199219 C 170.140625 249.449219 170.160156 248.710938 170.199219 247.980469 C 170.230469 247.421875 170.261719 246.859375 170.320312 246.308594 C 170.339844 246.058594 170.359375 245.820312 170.390625 245.578125 C 170.480469 244.738281 170.589844 243.910156 170.730469 243.078125 C 170.800781 242.691406 170.871094 242.308594 170.941406 241.921875 C 171.019531 241.539062 171.101562 241.160156 171.179688 240.78125 C 171.859375 237.75 172.859375 234.839844 174.128906 232.078125 L 207 254.238281 L 256 287.28125 Z M 341.859375 345.179688 " style=" stroke:none;fill-rule:nonzero;fill:rgb(100%,91.372549%,33.333333%);fill-opacity:1;" />
<path d="M 256 387.28125 L 310.921875 424.308594 C 309.949219 424.601562 308.96875 424.851562 307.96875 425.070312 C 307.46875 425.179688 306.96875 425.28125 306.46875 425.378906 C 306.070312 425.449219 305.671875 425.519531 305.269531 425.578125 C 305.070312 425.609375 304.851562 425.648438 304.640625 425.671875 C 304.230469 425.730469 303.820312 425.78125 303.410156 425.820312 C 303.058594 425.859375 302.699219 425.898438 302.339844 425.921875 C 302.238281 425.941406 302.128906 425.949219 302.019531 425.949219 C 301.710938 425.980469 301.398438 426 301.089844 426.011719 C 300.808594 426.03125 300.519531 426.039062 300.230469 426.050781 C 299.71875 426.070312 299.210938 426.078125 298.699219 426.078125 L 250.160156 426.078125 C 226.308594 426.078125 207 406.761719 207 382.921875 L 207 354.238281 Z M 256 387.28125 " style=" stroke:none;fill-rule:nonzero;fill:rgb(100%,81.960784%,7.058824%);fill-opacity:1;" />
<path d="M 341.859375 250.199219 L 341.859375 308.679688 L 264.769531 256.699219 L 256 250.789062 L 216 223.808594 C 223.890625 213.609375 236.25 207.039062 250.160156 207.039062 L 285.289062 207.039062 L 341.539062 244.960938 C 341.589844 245.390625 341.640625 245.820312 341.671875 246.25 C 341.699219 246.578125 341.730469 246.898438 341.75 247.230469 C 341.78125 247.460938 341.789062 247.699219 341.800781 247.941406 C 341.820312 248.25 341.828125 248.558594 341.839844 248.871094 C 341.851562 249.308594 341.859375 249.761719 341.859375 250.199219 Z M 341.859375 250.199219 " style=" stroke:none;fill-rule:nonzero;fill:rgb(100%,81.960784%,7.058824%);fill-opacity:1;" />
<path d="M 256 287.28125 L 341.859375 345.179688 L 341.859375 382.921875 C 341.859375 383.421875 341.851562 383.910156 341.828125 384.398438 C 341.820312 384.761719 341.808594 385.121094 341.78125 385.46875 C 341.769531 385.71875 341.75 385.96875 341.730469 386.21875 C 341.628906 387.601562 341.460938 388.960938 341.230469 390.289062 C 341.160156 390.738281 341.070312 391.179688 340.980469 391.621094 C 340.878906 392.128906 340.769531 392.640625 340.640625 393.140625 C 340.558594 393.46875 340.480469 393.800781 340.390625 394.121094 C 339.988281 395.609375 339.519531 397.070312 338.960938 398.5 C 338.800781 398.910156 338.640625 399.308594 338.46875 399.710938 L 338.46875 399.71875 C 338.289062 400.148438 338.101562 400.570312 337.898438 400.988281 C 337.699219 401.449219 337.480469 401.898438 337.25 402.339844 C 337.058594 402.71875 336.859375 403.101562 336.648438 403.480469 C 336.441406 403.890625 336.210938 404.289062 335.96875 404.691406 L 335.960938 404.691406 L 256 350.78125 L 207 317.738281 L 207 254.238281 Z M 256 287.28125 " style=" stroke:none;fill-rule:nonzero;fill:rgb(100%,81.960784%,7.058824%);fill-opacity:1;" />
<path d="M 256 387.28125 L 310.921875 424.308594 C 309.949219 424.601562 308.96875 424.851562 307.96875 425.070312 C 307.46875 425.179688 306.96875 425.28125 306.46875 425.378906 C 306.070312 425.449219 305.671875 425.519531 305.269531 425.578125 C 305.070312 425.609375 304.851562 425.648438 304.640625 425.671875 C 304.230469 425.730469 303.820312 425.78125 303.410156 425.820312 C 303.058594 425.859375 302.699219 425.898438 302.339844 425.921875 C 302.238281 425.941406 302.128906 425.949219 302.019531 425.949219 C 301.710938 425.980469 301.398438 426 301.089844 426.011719 C 300.808594 426.03125 300.519531 426.039062 300.230469 426.050781 C 299.71875 426.070312 299.210938 426.078125 298.699219 426.078125 L 256 426.078125 Z M 256 387.28125 " style=" stroke:none;fill-rule:nonzero;fill:rgb(100%,62.352941%,0%);fill-opacity:1;" />
<path d="M 341.859375 250.199219 L 341.859375 308.679688 L 264.769531 256.699219 L 256 250.789062 L 256 207.039062 L 285.289062 207.039062 L 341.539062 244.960938 C 341.589844 245.390625 341.640625 245.820312 341.671875 246.25 C 341.699219 246.578125 341.730469 246.898438 341.75 247.230469 C 341.78125 247.460938 341.789062 247.699219 341.800781 247.941406 C 341.820312 248.25 341.828125 248.558594 341.839844 248.871094 C 341.851562 249.308594 341.859375 249.761719 341.859375 250.199219 Z M 341.859375 250.199219 " style=" stroke:none;fill-rule:nonzero;fill:rgb(100%,62.352941%,0%);fill-opacity:1;" />
<path d="M 256 287.28125 L 341.859375 345.179688 L 341.859375 382.921875 C 341.859375 383.421875 341.851562 383.910156 341.828125 384.398438 C 341.820312 384.761719 341.808594 385.121094 341.78125 385.46875 C 341.769531 385.71875 341.75 385.96875 341.730469 386.21875 C 341.628906 387.601562 341.460938 388.960938 341.230469 390.289062 C 341.160156 390.738281 341.070312 391.179688 340.980469 391.621094 C 340.878906 392.128906 340.769531 392.640625 340.640625 393.140625 C 340.558594 393.46875 340.480469 393.800781 340.390625 394.121094 C 339.988281 395.609375 339.519531 397.070312 338.960938 398.5 C 338.800781 398.910156 338.640625 399.308594 338.46875 399.710938 L 338.46875 399.71875 C 338.289062 400.148438 338.101562 400.570312 337.898438 400.988281 C 337.699219 401.449219 337.480469 401.898438 337.25 402.339844 C 337.058594 402.71875 336.859375 403.101562 336.648438 403.480469 C 336.441406 403.890625 336.210938 404.289062 335.96875 404.691406 L 335.960938 404.691406 L 256 350.78125 Z M 256 287.28125 " style=" stroke:none;fill-rule:nonzero;fill:rgb(100%,62.352941%,0%);fill-opacity:1;" />
</g>
</svg>