<svg xmlns="http://www.w3.org/2000/svg" height="512pt" version="1.1" viewBox="0 0 512 512" width="512pt">
<g id="surface1">
<path d="M 512 256 C 512 397.386719 397.386719 512 256 512 C 114.613281 512 0 397.386719 0 256 C 0 114.613281 114.613281 0 256 0 C 397.386719 0 512 114.613281 512 256 Z M 512 256 " style=" stroke:none;fill-rule:nonzero;fill:rgb(100%,91.372549%,33.333333%);fill-opacity:1;" />
<path d="M 512 256 C 512 282.050781 508.109375 307.191406 500.871094 330.871094 C 468.859375 435.71875 371.328125 512 256 512 C 151.441406 512 61.511719 449.300781 21.769531 359.449219 C 7.769531 327.820312 0 292.820312 0 256 C 0 209.78125 12.25 166.429688 33.679688 129 C 77.800781 206.070312 160.839844 258 256 258 C 351.160156 258 434.210938 206.070312 478.320312 129 C 499.75 166.429688 512 209.78125 512 256 Z M 512 256 " style=" stroke:none;fill-rule:nonzero;fill:rgb(100%,81.960784%,7.058824%);fill-opacity:1;" />
<path d="M 30.742188 377.703125 C 37.898438 390.921875 46.171875 403.441406 55.460938 415.128906 C 102.359375 474.148438 174.761719 512 256 512 C 337.238281 512 409.640625 474.148438 456.539062 415.128906 C 465.828125 403.441406 474.101562 390.921875 481.257812 377.703125 Z M 30.742188 377.703125 " style=" stroke:none;fill-rule:nonzero;fill:rgb(100%,62.352941%,0%);fill-opacity:1;" />
<path d="M 386.246094 193.160156 L 279.007812 193.160156 C 274.675781 193.160156 271.164062 189.652344 271.164062 185.320312 L 271.164062 140.839844 C 271.164062 136.511719 274.675781 133 279.007812 133 L 386.246094 133 C 390.578125 133 394.089844 136.507812 394.089844 140.839844 L 394.089844 185.320312 C 394.085938 189.652344 390.578125 193.160156 386.246094 193.160156 Z M 386.246094 193.160156 " style=" stroke:none;fill-rule:nonzero;fill:rgb(19.607843%,23.137255%,35.294118%);fill-opacity:1;" />
<path d="M 379.28125 149.859375 L 379.28125 176.300781 C 379.28125 178.878906 377.191406 180.960938 374.621094 180.960938 L 290.378906 180.960938 C 287.808594 180.960938 285.71875 178.878906 285.71875 176.300781 L 285.71875 149.859375 C 285.71875 147.289062 287.808594 145.199219 290.378906 145.199219 L 374.621094 145.199219 C 377.191406 145.199219 379.28125 147.289062 379.28125 149.859375 Z M 379.28125 149.859375 " style=" stroke:none;fill-rule:nonzero;fill:rgb(70.980392%,88.627451%,21.568627%);fill-opacity:1;" />
<path d="M 321.625 189 L 343.625 189 L 343.625 220 L 321.625 220 Z M 321.625 189 " style=" stroke:none;fill-rule:nonzero;fill:rgb(19.607843%,23.137255%,35.294118%);fill-opacity:1;" />
<path d="M 439.761719 434.238281 L 409.160156 312.148438 L 102.839844 312.148438 L 72.238281 434.238281 C 76.828125 438.960938 81.589844 443.511719 86.53125 447.871094 L 425.46875 447.871094 Z M 439.761719 434.238281 " style=" stroke:none;fill-rule:nonzero;fill:rgb(100%,100%,100%);fill-opacity:1;" />
<path d="M 439.761719 434.238281 L 409.160156 312.148438 L 256 312.148438 L 256 447.871094 L 425.46875 447.871094 Z M 439.761719 434.238281 " style=" stroke:none;fill-rule:nonzero;fill:rgb(66.666667%,83.529412%,97.647059%);fill-opacity:1;" />
<path d="M 425.46875 447.871094 C 380.328125 487.78125 320.988281 512 256 512 C 191.011719 512 131.671875 487.78125 86.53125 447.871094 Z M 425.46875 447.871094 " style=" stroke:none;fill-rule:nonzero;fill:rgb(27.843137%,30.980392%,43.529412%);fill-opacity:1;" />
<path d="M 409.160156 241.609375 L 409.160156 312.148438 L 102.839844 312.148438 L 102.839844 241.609375 C 102.839844 227.03125 114.660156 215.210938 129.238281 215.210938 L 382.761719 215.210938 C 397.339844 215.210938 409.160156 227.03125 409.160156 241.609375 Z M 409.160156 241.609375 " style=" stroke:none;fill-rule:nonzero;fill:rgb(39.607843%,69.803922%,100%);fill-opacity:1;" />
<path d="M 409.160156 241.609375 L 409.160156 312.148438 L 258.058594 312.148438 L 258.058594 215.210938 L 382.761719 215.210938 C 397.339844 215.210938 409.160156 227.03125 409.160156 241.609375 Z M 409.160156 241.609375 " style=" stroke:none;fill-rule:nonzero;fill:rgb(5.882353%,60.784314%,90.980392%);fill-opacity:1;" />
<path d="M 123.214844 342.4375 L 146.644531 342.4375 L 146.644531 365.871094 L 123.214844 365.871094 Z M 123.214844 342.4375 " style=" stroke:none;fill-rule:nonzero;fill:rgb(19.607843%,23.137255%,35.294118%);fill-opacity:1;" />
<path d="M 171.640625 342.4375 L 195.074219 342.4375 L 195.074219 365.871094 L 171.640625 365.871094 Z M 171.640625 342.4375 " style=" stroke:none;fill-rule:nonzero;fill:rgb(19.607843%,23.137255%,35.294118%);fill-opacity:1;" />
<path d="M 220.070312 342.4375 L 243.503906 342.4375 L 243.503906 365.871094 L 220.070312 365.871094 Z M 220.070312 342.4375 " style=" stroke:none;fill-rule:nonzero;fill:rgb(19.607843%,23.137255%,35.294118%);fill-opacity:1;" />
<path d="M 268.496094 342.4375 L 291.929688 342.4375 L 291.929688 365.871094 L 268.496094 365.871094 Z M 268.496094 342.4375 " style=" stroke:none;fill-rule:nonzero;fill:rgb(19.607843%,23.137255%,35.294118%);fill-opacity:1;" />
<path d="M 316.925781 342.4375 L 340.359375 342.4375 L 340.359375 365.871094 L 316.925781 365.871094 Z M 316.925781 342.4375 " style=" stroke:none;fill-rule:nonzero;fill:rgb(19.607843%,23.137255%,35.294118%);fill-opacity:1;" />
<path d="M 365.355469 342.4375 L 388.785156 342.4375 L 388.785156 365.871094 L 365.355469 365.871094 Z M 365.355469 342.4375 " style=" stroke:none;fill-rule:nonzero;fill:rgb(19.607843%,23.137255%,35.294118%);fill-opacity:1;" />
<path d="M 123.214844 386.960938 L 146.644531 386.960938 L 146.644531 410.394531 L 123.214844 410.394531 Z M 123.214844 386.960938 " style=" stroke:none;fill-rule:nonzero;fill:rgb(19.607843%,23.137255%,35.294118%);fill-opacity:1;" />
<path d="M 171.640625 386.960938 L 195.074219 386.960938 L 195.074219 410.394531 L 171.640625 410.394531 Z M 171.640625 386.960938 " style=" stroke:none;fill-rule:nonzero;fill:rgb(19.607843%,23.137255%,35.294118%);fill-opacity:1;" />
<path d="M 220.070312 386.960938 L 243.503906 386.960938 L 243.503906 410.394531 L 220.070312 410.394531 Z M 220.070312 386.960938 " style=" stroke:none;fill-rule:nonzero;fill:rgb(19.607843%,23.137255%,35.294118%);fill-opacity:1;" />
<path d="M 268.496094 386.960938 L 291.929688 386.960938 L 291.929688 410.394531 L 268.496094 410.394531 Z M 268.496094 386.960938 " style=" stroke:none;fill-rule:nonzero;fill:rgb(19.607843%,23.137255%,35.294118%);fill-opacity:1;" />
<path d="M 316.925781 386.960938 L 340.359375 386.960938 L 340.359375 410.394531 L 316.925781 410.394531 Z M 316.925781 386.960938 " style=" stroke:none;fill-rule:nonzero;fill:rgb(19.607843%,23.137255%,35.294118%);fill-opacity:1;" />
<path d="M 365.355469 386.960938 L 388.785156 386.960938 L 388.785156 410.394531 L 365.355469 410.394531 Z M 365.355469 386.960938 " style=" stroke:none;fill-rule:nonzero;fill:rgb(19.607843%,23.137255%,35.294118%);fill-opacity:1;" />
<path d="M 138.300781 146.558594 L 138.300781 286.789062 L 222.128906 286.789062 L 222.128906 146.558594 L 181.429688 176 Z M 138.300781 146.558594 " style=" stroke:none;fill-rule:nonzero;fill:rgb(100%,100%,100%);fill-opacity:1;" />
<path d="M 181.429688 176 L 181.429688 286.789062 L 222.128906 286.789062 L 222.128906 146.558594 Z M 181.429688 176 " style=" stroke:none;fill-rule:nonzero;fill:rgb(78.039216%,85.098039%,100%);fill-opacity:1;" />
<path d="M 281.46875 242.050781 L 378.421875 242.050781 L 378.421875 283.808594 L 281.46875 283.808594 Z M 281.46875 242.050781 " style=" stroke:none;fill-rule:nonzero;fill:rgb(70.980392%,88.627451%,21.568627%);fill-opacity:1;" />
<path d="M 120.429688 277.835938 L 240 277.835938 L 240 295.75 L 120.429688 295.75 Z M 120.429688 277.835938 " style=" stroke:none;fill-rule:nonzero;fill:rgb(0%,40%,90.980392%);fill-opacity:1;" />
<path d="M 331 242.050781 L 378.421875 242.050781 L 378.421875 283.808594 L 331 283.808594 Z M 331 242.050781 " style=" stroke:none;fill-rule:nonzero;fill:rgb(44.313725%,90.588235%,33.333333%);fill-opacity:1;" />
<path d="M 379.28125 149.859375 L 379.28125 176.300781 C 379.28125 178.878906 377.191406 180.960938 374.621094 180.960938 L 331 180.960938 L 331 145.199219 L 374.621094 145.199219 C 377.191406 145.199219 379.28125 147.289062 379.28125 149.859375 Z M 379.28125 149.859375 " style=" stroke:none;fill-rule:nonzero;fill:rgb(44.313725%,90.588235%,33.333333%);fill-opacity:1;" />
</g>
</svg>