<svg xmlns="http://www.w3.org/2000/svg" height="512pt" version="1.1" viewBox="0 0 512 512" width="512pt">
<g id="surface1">
<path d="M 512 256 C 512 397.386719 397.386719 512 256 512 C 114.613281 512 0 397.386719 0 256 C 0 114.613281 114.613281 0 256 0 C 397.386719 0 512 114.613281 512 256 Z M 512 256 " style=" stroke:none;fill-rule:nonzero;fill:rgb(70.980392%,88.627451%,21.568627%);fill-opacity:1;" />
<path d="M 512 256 C 512 282.050781 508.109375 307.191406 500.871094 330.871094 C 468.859375 435.71875 371.328125 512 256 512 C 151.441406 512 61.511719 449.300781 21.769531 359.449219 C 7.769531 327.820312 0 292.820312 0 256 C 0 209.78125 12.25 166.429688 33.679688 129 C 77.800781 206.070312 160.839844 258 256 258 C 351.160156 258 434.210938 206.070312 478.320312 129 C 499.75 166.429688 512 209.78125 512 256 Z M 512 256 " style=" stroke:none;fill-rule:nonzero;fill:rgb(58.431373%,83.921569%,0%);fill-opacity:1;" />
<path d="M 30.742188 377.703125 C 37.898438 390.921875 46.171875 403.441406 55.460938 415.128906 C 102.359375 474.148438 174.761719 512 256 512 C 337.238281 512 409.640625 474.148438 456.539062 415.128906 C 465.828125 403.441406 474.101562 390.921875 481.257812 377.703125 Z M 30.742188 377.703125 " style=" stroke:none;fill-rule:nonzero;fill:rgb(52.156863%,68.627451%,7.058824%);fill-opacity:1;" />
<path d="M 440.519531 327.480469 C 440.519531 428.210938 359.800781 510.101562 259.511719 511.960938 C 258.339844 511.988281 257.171875 512 256 512 C 154.089844 512 71.480469 429.378906 71.480469 327.480469 C 71.480469 225.570312 154.089844 142.960938 256 142.960938 C 256.230469 142.960938 256.449219 142.960938 256.679688 142.96875 C 269.398438 143.011719 281.820312 144.339844 293.808594 146.839844 C 289.039062 159.648438 286.441406 173.5 286.441406 187.960938 C 286.441406 253.179688 339.300781 306.039062 404.519531 306.039062 C 416.378906 306.039062 427.828125 304.289062 438.628906 301.03125 C 439.878906 309.671875 440.519531 318.5 440.519531 327.480469 Z M 440.519531 327.480469 " style=" stroke:none;fill-rule:nonzero;fill:rgb(100%,65.882353%,47.843137%);fill-opacity:1;" />
<path d="M 440.519531 327.480469 C 440.519531 428.210938 356.289062 510.140625 256 512 C 189.660156 476.828125 147.980469 407.019531 147.980469 326.699219 C 147.980469 247.53125 191.210938 178.609375 256 142.96875 C 268.71875 143.011719 281.820312 144.339844 293.808594 146.839844 C 289.039062 159.648438 286.441406 173.5 286.441406 187.960938 C 286.441406 253.179688 339.300781 306.039062 404.519531 306.039062 C 416.378906 306.039062 427.828125 304.289062 438.628906 301.03125 C 439.878906 309.671875 440.519531 318.5 440.519531 327.480469 Z M 440.519531 327.480469 " style=" stroke:none;fill-rule:nonzero;fill:rgb(91.764706%,50.980392%,30.588235%);fill-opacity:1;" />
<path d="M 440.519531 327.480469 C 440.519531 429.378906 357.910156 512 256 512 L 256 142.960938 C 268.960938 142.960938 281.609375 144.300781 293.808594 146.839844 C 289.039062 159.648438 286.441406 173.5 286.441406 187.960938 C 286.441406 253.179688 339.300781 306.039062 404.519531 306.039062 C 416.378906 306.039062 427.828125 304.289062 438.628906 301.03125 C 439.878906 309.671875 440.519531 318.5 440.519531 327.480469 Z M 440.519531 327.480469 " style=" stroke:none;fill-rule:nonzero;fill:rgb(77.254902%,34.509804%,20.784314%);fill-opacity:1;" />
<path d="M 162 284.480469 C 162 297.183594 151.703125 307.480469 139 307.480469 C 126.296875 307.480469 116 297.183594 116 284.480469 C 116 271.777344 126.296875 261.480469 139 261.480469 C 151.703125 261.480469 162 271.777344 162 284.480469 Z M 162 284.480469 " style=" stroke:none;fill-rule:nonzero;fill:rgb(65.098039%,22.352941%,7.843137%);fill-opacity:1;" />
<path d="M 162 284.480469 C 162 297.183594 151.703125 307.480469 139 307.480469 L 139 261.480469 C 151.703125 261.480469 162 271.777344 162 284.480469 Z M 162 284.480469 " style=" stroke:none;fill-rule:nonzero;fill:rgb(47.843137%,17.647059%,10.196078%);fill-opacity:1;" />
<path d="M 227 403.480469 C 227 422.257812 211.777344 437.480469 193 437.480469 C 174.222656 437.480469 159 422.257812 159 403.480469 C 159 384.703125 174.222656 369.480469 193 369.480469 C 211.777344 369.480469 227 384.703125 227 403.480469 Z M 227 403.480469 " style=" stroke:none;fill-rule:nonzero;fill:rgb(65.098039%,22.352941%,7.843137%);fill-opacity:1;" />
<path d="M 227 403.480469 C 227 422.257812 211.777344 437.480469 193 437.480469 L 193 369.480469 C 211.777344 369.480469 227 384.703125 227 403.480469 Z M 227 403.480469 " style=" stroke:none;fill-rule:nonzero;fill:rgb(47.843137%,17.647059%,10.196078%);fill-opacity:1;" />
<path d="M 406 396.480469 C 406 415.257812 390.777344 430.480469 372 430.480469 C 353.222656 430.480469 338 415.257812 338 396.480469 C 338 377.703125 353.222656 362.480469 372 362.480469 C 390.777344 362.480469 406 377.703125 406 396.480469 Z M 406 396.480469 " style=" stroke:none;fill-rule:nonzero;fill:rgb(65.098039%,22.352941%,7.843137%);fill-opacity:1;" />
<path d="M 406 396.480469 C 406 415.257812 390.777344 430.480469 372 430.480469 L 372 362.480469 C 390.777344 362.480469 406 377.703125 406 396.480469 Z M 406 396.480469 " style=" stroke:none;fill-rule:nonzero;fill:rgb(47.843137%,17.647059%,10.196078%);fill-opacity:1;" />
<path d="M 290 255.480469 C 290 274.257812 274.777344 289.480469 256 289.480469 C 237.222656 289.480469 222 274.257812 222 255.480469 C 222 236.703125 237.222656 221.480469 256 221.480469 C 274.777344 221.480469 290 236.703125 290 255.480469 Z M 290 255.480469 " style=" stroke:none;fill-rule:nonzero;fill:rgb(65.098039%,22.352941%,7.843137%);fill-opacity:1;" />
<path d="M 290 255.480469 C 290 274.257812 274.777344 289.480469 256 289.480469 L 256 221.480469 C 274.777344 221.480469 290 236.703125 290 255.480469 Z M 290 255.480469 " style=" stroke:none;fill-rule:nonzero;fill:rgb(47.843137%,17.647059%,10.196078%);fill-opacity:1;" />
<path d="M 317 337.480469 C 317 346.316406 309.835938 353.480469 301 353.480469 C 292.164062 353.480469 285 346.316406 285 337.480469 C 285 328.644531 292.164062 321.480469 301 321.480469 C 309.835938 321.480469 317 328.644531 317 337.480469 Z M 317 337.480469 " style=" stroke:none;fill-rule:nonzero;fill:rgb(65.098039%,22.352941%,7.843137%);fill-opacity:1;" />
<path d="M 317 337.480469 C 317 346.316406 309.835938 353.480469 301 353.480469 L 301 321.480469 C 309.835938 321.480469 317 328.644531 317 337.480469 Z M 317 337.480469 " style=" stroke:none;fill-rule:nonzero;fill:rgb(47.843137%,17.647059%,10.196078%);fill-opacity:1;" />
<path d="M 215 189.480469 C 215 198.316406 207.835938 205.480469 199 205.480469 C 190.164062 205.480469 183 198.316406 183 189.480469 C 183 180.644531 190.164062 173.480469 199 173.480469 C 207.835938 173.480469 215 180.644531 215 189.480469 Z M 215 189.480469 " style=" stroke:none;fill-rule:nonzero;fill:rgb(65.098039%,22.352941%,7.843137%);fill-opacity:1;" />
<path d="M 215 189.480469 C 215 198.316406 207.835938 205.480469 199 205.480469 L 199 173.480469 C 207.835938 173.480469 215 180.644531 215 189.480469 Z M 215 189.480469 " style=" stroke:none;fill-rule:nonzero;fill:rgb(47.843137%,17.647059%,10.196078%);fill-opacity:1;" />
<path d="M 305 447.480469 C 305 456.316406 297.835938 463.480469 289 463.480469 C 280.164062 463.480469 273 456.316406 273 447.480469 C 273 438.644531 280.164062 431.480469 289 431.480469 C 297.835938 431.480469 305 438.644531 305 447.480469 Z M 305 447.480469 " style=" stroke:none;fill-rule:nonzero;fill:rgb(65.098039%,22.352941%,7.843137%);fill-opacity:1;" />
<path d="M 305 447.480469 C 305 456.316406 297.835938 463.480469 289 463.480469 L 289 431.480469 C 297.835938 431.480469 305 438.644531 305 447.480469 Z M 305 447.480469 " style=" stroke:none;fill-rule:nonzero;fill:rgb(47.843137%,17.647059%,10.196078%);fill-opacity:1;" />
</g>
</svg>