<svg xmlns="http://www.w3.org/2000/svg" height="512pt" version="1.1" viewBox="0 0 512 512" width="512pt">
<g id="surface1">
<path d="M 512 256 C 512 397.386719 397.386719 512 256 512 C 114.613281 512 0 397.386719 0 256 C 0 114.613281 114.613281 0 256 0 C 397.386719 0 512 114.613281 512 256 Z M 512 256 " style=" stroke:none;fill-rule:nonzero;fill:rgb(70.980392%,88.627451%,21.568627%);fill-opacity:1;" />
<path d="M 512 256 C 512 282.050781 508.109375 307.191406 500.871094 330.871094 C 468.859375 435.71875 371.328125 512 256 512 C 151.441406 512 61.511719 449.300781 21.769531 359.449219 C 7.769531 327.820312 0 292.820312 0 256 C 0 209.78125 12.25 166.429688 33.679688 129 C 77.800781 206.070312 160.839844 258 256 258 C 351.160156 258 434.210938 206.070312 478.320312 129 C 499.75 166.429688 512 209.78125 512 256 Z M 512 256 " style=" stroke:none;fill-rule:nonzero;fill:rgb(58.431373%,83.921569%,0%);fill-opacity:1;" />
<path d="M 30.742188 377.703125 C 37.898438 390.921875 46.171875 403.441406 55.460938 415.128906 C 102.359375 474.148438 174.761719 512 256 512 C 337.238281 512 409.640625 474.148438 456.539062 415.128906 C 465.828125 403.441406 474.101562 390.921875 481.257812 377.703125 Z M 30.742188 377.703125 " style=" stroke:none;fill-rule:nonzero;fill:rgb(52.156863%,68.627451%,7.058824%);fill-opacity:1;" />
<path d="M 270 270 L 270 511.621094 C 265.371094 511.871094 260.699219 512 256 512 C 251.300781 512 246.628906 511.871094 242 511.621094 L 242 270 Z M 270 270 " style=" stroke:none;fill-rule:nonzero;fill:rgb(100%,100%,100%);fill-opacity:1;" />
<path d="M 242 270 L 270 270 L 270 420 L 242 420 Z M 242 270 " style=" stroke:none;fill-rule:nonzero;fill:rgb(78.039216%,85.098039%,100%);fill-opacity:1;" />
<path d="M 405.679688 225.78125 C 405.679688 307.808594 339.679688 374.429688 257.890625 375.441406 C 257.261719 375.449219 256.628906 375.449219 256 375.449219 C 173.339844 375.449219 106.320312 308.441406 106.320312 225.78125 C 106.320312 143.121094 173.339844 76.101562 256 76.101562 C 256.628906 76.101562 257.261719 76.101562 257.890625 76.109375 C 339.679688 77.121094 405.679688 143.75 405.679688 225.78125 Z M 405.679688 225.78125 " style=" stroke:none;fill-rule:nonzero;fill:rgb(100%,39.215686%,46.666667%);fill-opacity:1;" />
<path d="M 405.675781 225.777344 C 405.675781 307.804688 337.792969 374.4375 256 375.449219 C 203.191406 346.425781 169.296875 290.273438 169.296875 225.777344 C 169.296875 161.277344 205.082031 105.132812 257.890625 76.109375 C 339.683594 77.121094 405.675781 143.746094 405.675781 225.777344 Z M 405.675781 225.777344 " style=" stroke:none;fill-rule:nonzero;fill:rgb(89.803922%,16.078431%,16.078431%);fill-opacity:1;" />
<path d="M 405.675781 225.777344 C 405.675781 308.4375 338.660156 375.453125 256 375.453125 L 256 76.097656 C 338.660156 76.097656 405.675781 143.117188 405.675781 225.777344 Z M 405.675781 225.777344 " style=" stroke:none;fill-rule:nonzero;fill:rgb(72.941176%,5.098039%,36.078431%);fill-opacity:1;" />
<path d="M 405.679688 225.78125 C 380.730469 225.78125 380.730469 245.78125 355.78125 245.78125 C 330.828125 245.78125 330.828125 225.78125 305.878906 225.78125 C 280.941406 225.78125 280.941406 245.78125 255.988281 245.78125 C 231.050781 245.78125 231.050781 225.78125 206.101562 225.78125 C 181.160156 225.78125 181.160156 245.78125 156.210938 245.78125 C 131.269531 245.78125 131.269531 225.78125 106.320312 225.78125 C 106.320312 143.121094 173.339844 76.101562 256 76.101562 C 256.628906 76.101562 257.261719 76.101562 257.890625 76.109375 C 339.679688 77.121094 405.679688 143.75 405.679688 225.78125 Z M 405.679688 225.78125 " style=" stroke:none;fill-rule:nonzero;fill:rgb(100%,91.372549%,33.333333%);fill-opacity:1;" />
<path d="M 405.679688 225.78125 C 380.730469 225.78125 380.730469 245.78125 355.78125 245.78125 C 330.828125 245.78125 330.828125 225.78125 305.878906 225.78125 C 280.941406 225.78125 280.941406 245.769531 256 245.78125 L 255.988281 245.78125 C 231.050781 245.78125 231.050781 225.78125 206.101562 225.78125 C 186.949219 225.78125 182.5 237.558594 170.171875 243.039062 C 169.601562 237.359375 169.300781 231.601562 169.300781 225.78125 C 169.300781 193.53125 178.238281 163.371094 193.789062 137.640625 C 208.96875 112.53125 230.421875 90.570312 256 76.101562 C 256.847656 76.171875 257.261719 76.460938 257.890625 76.109375 C 258.550781 76.121094 259.210938 76.128906 259.859375 76.148438 C 260.5 76.171875 261.148438 76.191406 261.789062 76.210938 C 262.160156 76.21875 262.53125 76.238281 262.898438 76.261719 C 263.378906 76.28125 263.851562 76.300781 264.328125 76.328125 C 264.980469 76.359375 265.621094 76.398438 266.269531 76.449219 C 268.128906 76.570312 269.988281 76.730469 271.828125 76.929688 C 272.28125 76.980469 272.738281 77.019531 273.191406 77.078125 C 276.320312 77.429688 279.421875 77.890625 282.488281 78.441406 C 283.109375 78.550781 283.71875 78.660156 284.328125 78.78125 C 284.929688 78.890625 285.539062 79.011719 286.128906 79.128906 C 286.160156 79.140625 286.191406 79.148438 286.21875 79.148438 C 286.808594 79.269531 287.398438 79.398438 287.988281 79.53125 C 288.429688 79.621094 288.859375 79.71875 289.300781 79.820312 C 289.898438 79.949219 290.5 80.089844 291.089844 80.238281 C 291.949219 80.441406 292.808594 80.660156 293.671875 80.878906 C 294.78125 81.171875 295.878906 81.46875 296.96875 81.78125 C 297.300781 81.871094 297.628906 81.96875 297.960938 82.058594 C 298.410156 82.191406 298.851562 82.320312 299.289062 82.460938 C 299.78125 82.601562 300.269531 82.75 300.761719 82.910156 L 302.078125 83.328125 C 302.71875 83.539062 303.371094 83.75 304 83.96875 C 304.578125 84.160156 305.160156 84.359375 305.738281 84.570312 C 307.46875 85.171875 309.191406 85.820312 310.890625 86.488281 C 311.519531 86.738281 312.148438 86.988281 312.78125 87.25 C 313.410156 87.5 314.039062 87.769531 314.660156 88.03125 C 315.53125 88.398438 316.398438 88.78125 317.261719 89.171875 C 320.300781 90.539062 323.289062 92 326.21875 93.558594 C 326.949219 93.949219 327.671875 94.339844 328.390625 94.738281 C 330.148438 95.71875 331.890625 96.730469 333.609375 97.769531 C 334.128906 98.078125 334.640625 98.398438 335.148438 98.71875 C 335.660156 99.039062 336.171875 99.359375 336.671875 99.679688 C 337.179688 100.011719 337.679688 100.339844 338.191406 100.671875 C 338.691406 101 339.191406 101.328125 339.691406 101.671875 C 340.679688 102.339844 341.671875 103.019531 342.648438 103.71875 C 343.140625 104.070312 343.621094 104.421875 344.109375 104.769531 C 344.589844 105.121094 345.070312 105.480469 345.550781 105.839844 C 345.910156 106.101562 346.261719 106.371094 346.609375 106.628906 C 350.679688 109.730469 354.578125 113.03125 358.300781 116.519531 C 358.789062 116.96875 359.269531 117.429688 359.75 117.898438 C 360.238281 118.359375 360.71875 118.839844 361.199219 119.308594 C 361.628906 119.730469 362.050781 120.148438 362.46875 120.578125 C 362.980469 121.101562 363.488281 121.621094 364 122.148438 C 364.46875 122.640625 364.929688 123.121094 365.378906 123.609375 C 367.671875 126.058594 369.878906 128.589844 372 131.191406 C 372.589844 131.910156 373.171875 132.640625 373.75 133.371094 C 373.820312 133.449219 373.878906 133.53125 373.941406 133.609375 C 374.539062 134.378906 375.128906 135.148438 375.710938 135.929688 C 375.789062 136.03125 375.871094 136.128906 375.949219 136.238281 C 376.511719 136.988281 377.070312 137.75 377.621094 138.519531 C 378.859375 140.238281 380.058594 141.988281 381.21875 143.761719 C 381.789062 144.628906 382.359375 145.511719 382.910156 146.398438 C 383.46875 147.28125 384.011719 148.171875 384.550781 149.070312 C 385.089844 149.96875 385.609375 150.871094 386.128906 151.78125 C 386.628906 152.660156 387.128906 153.539062 387.609375 154.441406 C 387.648438 154.5 387.691406 154.570312 387.71875 154.640625 C 388.199219 155.519531 388.671875 156.398438 389.128906 157.300781 C 389.191406 157.410156 389.25 157.53125 389.300781 157.640625 C 389.71875 158.460938 390.140625 159.289062 390.539062 160.121094 C 391.011719 161.070312 391.460938 162.011719 391.898438 162.96875 C 392.238281 163.691406 392.558594 164.421875 392.878906 165.148438 C 393.128906 165.679688 393.359375 166.21875 393.589844 166.761719 C 393.828125 167.308594 394.058594 167.859375 394.289062 168.410156 C 394.398438 168.679688 394.511719 168.941406 394.621094 169.199219 C 394.960938 170.03125 395.289062 170.871094 395.609375 171.710938 C 395.949219 172.570312 396.28125 173.441406 396.601562 174.320312 C 397.441406 176.609375 398.21875 178.929688 398.949219 181.269531 C 399.179688 182.011719 399.398438 182.75 399.621094 183.488281 C 399.980469 184.71875 400.328125 185.960938 400.660156 187.210938 C 400.910156 188.128906 401.140625 189.058594 401.371094 189.988281 C 401.589844 190.898438 401.808594 191.808594 402.019531 192.730469 C 402.101562 193.078125 402.179688 193.441406 402.25 193.789062 C 402.429688 194.621094 402.609375 195.460938 402.769531 196.289062 C 402.941406 197.101562 403.089844 197.910156 403.230469 198.71875 C 403.269531 198.910156 403.308594 199.101562 403.339844 199.289062 C 403.398438 199.601562 403.449219 199.910156 403.5 200.230469 C 403.609375 200.851562 403.71875 201.46875 403.808594 202.101562 C 403.871094 202.449219 403.929688 202.800781 403.96875 203.148438 C 404.121094 204.070312 404.25 205 404.371094 205.929688 C 404.488281 206.820312 404.601562 207.699219 404.699219 208.589844 C 404.738281 208.898438 404.769531 209.199219 404.800781 209.511719 C 404.910156 210.460938 405 211.410156 405.089844 212.371094 C 405.191406 213.5 405.28125 214.628906 405.351562 215.769531 C 405.421875 216.871094 405.480469 217.980469 405.53125 219.089844 C 405.578125 220.199219 405.621094 221.308594 405.640625 222.421875 C 405.671875 223.539062 405.679688 224.660156 405.679688 225.78125 Z M 405.679688 225.78125 " style=" stroke:none;fill-rule:nonzero;fill:rgb(100%,81.960784%,7.058824%);fill-opacity:1;" />
<path d="M 405.679688 225.78125 C 380.730469 225.78125 380.730469 245.78125 355.78125 245.78125 C 330.828125 245.78125 330.828125 225.78125 305.878906 225.78125 C 280.941406 225.78125 280.941406 245.769531 256 245.78125 L 256 76.101562 C 256.628906 76.101562 257.261719 76.101562 257.890625 76.109375 C 258.550781 76.121094 259.210938 76.128906 259.859375 76.148438 C 260.5 76.171875 261.148438 76.191406 261.789062 76.210938 C 262.160156 76.21875 262.53125 76.238281 262.898438 76.261719 C 263.378906 76.28125 263.851562 76.300781 264.328125 76.328125 C 264.980469 76.359375 265.621094 76.398438 266.269531 76.449219 C 268.128906 76.570312 269.988281 76.730469 271.828125 76.929688 C 272.28125 76.980469 272.738281 77.019531 273.191406 77.078125 C 276.320312 77.429688 279.421875 77.890625 282.488281 78.441406 C 283.109375 78.550781 283.71875 78.660156 284.328125 78.78125 C 284.929688 78.890625 285.539062 79.011719 286.128906 79.128906 C 286.160156 79.140625 286.191406 79.148438 286.21875 79.148438 C 286.808594 79.269531 287.398438 79.398438 287.988281 79.53125 C 288.429688 79.621094 288.859375 79.71875 289.300781 79.820312 C 289.898438 79.949219 290.5 80.089844 291.089844 80.238281 C 291.949219 80.441406 292.808594 80.660156 293.671875 80.878906 C 294.769531 81.171875 295.878906 81.46875 296.96875 81.78125 C 297.300781 81.871094 297.628906 81.96875 297.960938 82.058594 C 298.410156 82.191406 298.851562 82.320312 299.289062 82.460938 C 299.78125 82.601562 300.269531 82.75 300.761719 82.910156 L 302.078125 83.328125 C 302.71875 83.539062 303.371094 83.75 304 83.96875 C 304.578125 84.160156 305.160156 84.359375 305.738281 84.570312 C 307.46875 85.171875 309.191406 85.820312 310.890625 86.488281 C 311.519531 86.738281 312.148438 86.988281 312.78125 87.25 C 313.410156 87.5 314.039062 87.769531 314.660156 88.03125 C 315.53125 88.410156 316.398438 88.789062 317.261719 89.171875 C 320.300781 90.539062 323.289062 92 326.21875 93.558594 C 326.949219 93.949219 327.671875 94.339844 328.390625 94.738281 C 330.148438 95.71875 331.890625 96.730469 333.609375 97.769531 C 334.128906 98.078125 334.640625 98.398438 335.148438 98.71875 C 335.660156 99.039062 336.171875 99.359375 336.671875 99.679688 C 337.179688 100.011719 337.679688 100.339844 338.191406 100.671875 C 338.691406 101 339.191406 101.328125 339.691406 101.671875 C 340.679688 102.339844 341.671875 103.019531 342.648438 103.71875 C 343.140625 104.070312 343.621094 104.421875 344.109375 104.769531 C 344.589844 105.121094 345.070312 105.480469 345.550781 105.839844 C 345.910156 106.101562 346.261719 106.371094 346.609375 106.628906 C 350.679688 109.730469 354.578125 113.03125 358.300781 116.519531 C 358.789062 116.96875 359.269531 117.429688 359.75 117.898438 C 360.238281 118.359375 360.71875 118.839844 361.199219 119.308594 C 361.628906 119.730469 362.050781 120.148438 362.46875 120.578125 C 362.980469 121.101562 363.488281 121.621094 364 122.148438 C 364.46875 122.640625 364.929688 123.121094 365.378906 123.609375 C 367.671875 126.058594 369.878906 128.589844 372 131.191406 C 372.589844 131.910156 373.171875 132.640625 373.75 133.371094 C 373.820312 133.449219 373.878906 133.53125 373.941406 133.609375 C 374.539062 134.378906 375.128906 135.148438 375.710938 135.929688 C 375.789062 136.03125 375.871094 136.128906 375.949219 136.238281 C 376.511719 136.988281 377.070312 137.75 377.621094 138.519531 C 378.859375 140.238281 380.058594 141.988281 381.21875 143.761719 C 381.789062 144.628906 382.359375 145.511719 382.910156 146.398438 C 383.46875 147.28125 384.011719 148.171875 384.550781 149.070312 C 385.089844 149.96875 385.609375 150.871094 386.128906 151.78125 C 386.628906 152.660156 387.128906 153.539062 387.609375 154.441406 C 387.648438 154.5 387.691406 154.570312 387.71875 154.640625 C 388.199219 155.519531 388.671875 156.398438 389.128906 157.300781 C 389.191406 157.410156 389.25 157.53125 389.300781 157.640625 C 389.71875 158.460938 390.140625 159.289062 390.539062 160.121094 C 391.011719 161.070312 391.460938 162.011719 391.898438 162.96875 C 392.238281 163.691406 392.558594 164.421875 392.878906 165.148438 C 393.121094 165.679688 393.359375 166.21875 393.589844 166.761719 C 393.828125 167.308594 394.058594 167.859375 394.289062 168.410156 C 394.398438 168.679688 394.511719 168.941406 394.621094 169.199219 C 394.960938 170.03125 395.289062 170.871094 395.609375 171.710938 C 395.949219 172.570312 396.28125 173.441406 396.601562 174.320312 C 397.441406 176.609375 398.21875 178.929688 398.949219 181.269531 C 399.179688 182.011719 399.398438 182.75 399.621094 183.488281 C 399.980469 184.71875 400.328125 185.960938 400.660156 187.210938 C 400.910156 188.128906 401.140625 189.058594 401.371094 189.988281 C 401.589844 190.898438 401.808594 191.808594 402.019531 192.730469 C 402.101562 193.078125 402.179688 193.441406 402.25 193.789062 C 402.429688 194.621094 402.609375 195.460938 402.769531 196.289062 C 402.941406 197.101562 403.089844 197.910156 403.230469 198.71875 C 403.269531 198.910156 403.308594 199.101562 403.339844 199.289062 C 403.398438 199.601562 403.449219 199.910156 403.5 200.230469 C 403.609375 200.851562 403.71875 201.46875 403.808594 202.101562 C 403.871094 202.449219 403.929688 202.800781 403.96875 203.148438 C 404.121094 204.070312 404.25 205 404.371094 205.929688 C 404.488281 206.820312 404.601562 207.699219 404.699219 208.589844 C 404.738281 208.898438 404.769531 209.199219 404.800781 209.511719 C 404.910156 210.460938 405 211.410156 405.089844 212.371094 C 405.191406 213.5 405.28125 214.628906 405.351562 215.769531 C 405.421875 216.871094 405.480469 217.980469 405.53125 219.089844 C 405.578125 220.199219 405.621094 221.308594 405.640625 222.421875 C 405.671875 223.539062 405.679688 224.660156 405.679688 225.78125 Z M 405.679688 225.78125 " style=" stroke:none;fill-rule:nonzero;fill:rgb(100%,62.352941%,0%);fill-opacity:1;" />
<path d="M 242.574219 121.894531 C 242.574219 126.035156 239.21875 129.390625 235.078125 129.390625 C 230.9375 129.390625 227.582031 126.035156 227.582031 121.894531 C 227.582031 117.753906 230.9375 114.398438 235.078125 114.398438 C 239.21875 114.398438 242.574219 117.753906 242.574219 121.894531 Z M 242.574219 121.894531 " style=" stroke:none;fill-rule:nonzero;fill:rgb(100%,100%,100%);fill-opacity:1;" />
<path d="M 243.136719 171.074219 C 243.136719 177.855469 237.640625 183.347656 230.863281 183.347656 C 224.085938 183.347656 218.589844 177.855469 218.589844 171.074219 C 218.589844 164.296875 224.085938 158.800781 230.863281 158.800781 C 237.640625 158.800781 243.136719 164.296875 243.136719 171.074219 Z M 243.136719 171.074219 " style=" stroke:none;fill-rule:nonzero;fill:rgb(100%,100%,100%);fill-opacity:1;" />
<path d="M 203.789062 143.207031 C 203.789062 149.984375 198.296875 155.480469 191.515625 155.480469 C 184.738281 155.480469 179.242188 149.984375 179.242188 143.207031 C 179.242188 136.425781 184.738281 130.933594 191.515625 130.933594 C 198.296875 130.933594 203.789062 136.425781 203.789062 143.207031 Z M 203.789062 143.207031 " style=" stroke:none;fill-rule:nonzero;fill:rgb(100%,100%,100%);fill-opacity:1;" />
<path d="M 326.585938 160.691406 C 326.585938 164.363281 323.609375 167.339844 319.9375 167.339844 C 316.265625 167.339844 313.285156 164.363281 313.285156 160.691406 C 313.285156 157.019531 316.265625 154.042969 319.9375 154.042969 C 323.609375 154.042969 326.585938 157.019531 326.585938 160.691406 Z M 326.585938 160.691406 " style=" stroke:none;fill-rule:nonzero;fill:rgb(100%,100%,100%);fill-opacity:1;" />
<path d="M 304.4375 115.574219 C 304.4375 122.351562 298.941406 127.847656 292.164062 127.847656 C 285.382812 127.847656 279.890625 122.351562 279.890625 115.574219 C 279.890625 108.796875 285.382812 103.300781 292.164062 103.300781 C 298.941406 103.300781 304.4375 108.796875 304.4375 115.574219 Z M 304.4375 115.574219 " style=" stroke:none;fill-rule:nonzero;fill:rgb(100%,100%,100%);fill-opacity:1;" />
<path d="M 294.714844 179.820312 C 294.714844 184.300781 291.082031 187.929688 286.601562 187.929688 C 282.121094 187.929688 278.488281 184.300781 278.488281 179.820312 C 278.488281 175.339844 282.121094 171.707031 286.601562 171.707031 C 291.082031 171.707031 294.714844 175.339844 294.714844 179.820312 Z M 294.714844 179.820312 " style=" stroke:none;fill-rule:nonzero;fill:rgb(100%,100%,100%);fill-opacity:1;" />
</g>
</svg>