<svg xmlns="http://www.w3.org/2000/svg" height="512pt" version="1.1" viewBox="0 0 512 512" width="512pt">
<g id="surface1">
<path d="M 512 256 C 512 397.386719 397.386719 512 256 512 C 114.613281 512 0 397.386719 0 256 C 0 114.613281 114.613281 0 256 0 C 397.386719 0 512 114.613281 512 256 Z M 512 256 " style=" stroke:none;fill-rule:nonzero;fill:rgb(61.960784%,41.176471%,88.627451%);fill-opacity:1;" />
<path d="M 512 256 C 512 282.050781 508.109375 307.191406 500.871094 330.871094 C 468.859375 435.71875 371.328125 512 256 512 C 151.441406 512 61.511719 449.300781 21.769531 359.449219 C 7.769531 327.820312 0 292.820312 0 256 C 0 209.78125 12.25 166.429688 33.679688 129 C 77.800781 206.070312 160.839844 258 256 258 C 351.160156 258 434.210938 206.070312 478.320312 129 C 499.75 166.429688 512 209.78125 512 256 Z M 512 256 " style=" stroke:none;fill-rule:nonzero;fill:rgb(55.686275%,30.980392%,82.352941%);fill-opacity:1;" />
<path d="M 30.742188 377.703125 C 37.898438 390.921875 46.171875 403.441406 55.460938 415.128906 C 102.359375 474.148438 174.761719 512 256 512 C 337.238281 512 409.640625 474.148438 456.539062 415.128906 C 465.828125 403.441406 474.101562 390.921875 481.257812 377.703125 Z M 30.742188 377.703125 " style=" stroke:none;fill-rule:nonzero;fill:rgb(43.921569%,21.960784%,72.941176%);fill-opacity:1;" />
<path d="M 185.203125 277.386719 L 183.464844 279.230469 C 174.980469 288.199219 175.074219 302.257812 183.664062 311.109375 L 213.09375 341.367188 C 217.046875 345.441406 217.046875 351.894531 213.09375 355.964844 L 205.546875 363.726562 C 201.460938 367.902344 194.769531 367.953125 190.644531 363.828125 L 162.320312 335.507812 L 127.6875 300.871094 C 117.675781 290.859375 112.144531 277.539062 112.144531 263.378906 C 112.144531 249.21875 117.675781 235.898438 127.6875 225.886719 C 137.039062 216.5625 149.238281 211.121094 162.320312 210.433594 C 163.574219 210.367188 164.839844 210.34375 166.117188 210.367188 C 180.160156 210.605469 193.464844 216.679688 203.398438 226.597656 L 219.246094 242.460938 C 202.898438 258.691406 186.191406 276.332031 185.203125 277.386719 Z M 251.269531 274.390625 C 252.578125 273.101562 254.328125 272.539062 256.011719 272.699219 L 256.011719 206.550781 L 238.988281 189.558594 C 219.269531 169.828125 193.070312 158.980469 165.191406 158.980469 C 164.230469 158.980469 163.269531 158.988281 162.320312 159.019531 C 135.511719 159.738281 110.398438 170.519531 91.371094 189.558594 C 71.628906 209.28125 60.769531 235.511719 60.769531 263.378906 C 60.769531 291.269531 71.628906 317.488281 91.371094 337.210938 L 162.320312 408.160156 L 107.5 464.550781 C 121.859375 474.800781 137.328125 483.601562 153.691406 490.738281 L 198.640625 444.519531 C 198.660156 444.511719 198.660156 444.488281 198.660156 444.488281 C 198.660156 444.488281 198.660156 444.488281 198.671875 444.511719 L 206.128906 451.960938 C 219.460938 465.28125 237.160156 472.621094 256.011719 472.621094 L 256.011719 421.238281 C 250.878906 421.238281 246.078125 419.25 242.460938 415.628906 L 234.46875 407.660156 L 247.941406 393.828125 C 250.140625 391.550781 253.078125 390.421875 256.011719 390.421875 L 256.011719 317.820312 C 254.488281 317.789062 253.011719 317.199219 251.859375 316.019531 L 235.199219 298.859375 C 232.96875 296.570312 232.96875 292.921875 235.210938 290.640625 C 240.351562 285.371094 245.820312 279.851562 251.269531 274.390625 Z M 251.269531 274.390625 " style=" stroke:none;fill-rule:nonzero;fill:rgb(100%,81.960784%,7.058824%);fill-opacity:1;" />
<path d="M 384.320312 300.875 L 321.390625 363.832031 C 317.265625 367.953125 310.558594 367.902344 306.488281 363.726562 L 298.941406 355.96875 C 294.988281 351.894531 294.988281 345.441406 298.941406 341.371094 L 328.398438 311.070312 C 337.183594 302.03125 337.078125 287.621094 328.160156 278.714844 L 326.316406 276.871094 C 326.316406 276.859375 322.113281 272.667969 315.894531 266.449219 C 309.675781 260.234375 301.441406 252.011719 293.394531 243.949219 L 292.339844 242.882812 L 308.675781 226.546875 C 329.371094 205.851562 363.835938 205.257812 384.449219 226.019531 C 394.382812 236.019531 399.851562 249.285156 399.851562 263.382812 C 399.851562 277.558594 394.34375 290.863281 384.320312 300.875 Z M 451.230469 263.378906 C 451.230469 235.488281 440.371094 209.28125 420.648438 189.558594 C 379.960938 148.859375 313.71875 148.859375 273 189.558594 L 256.011719 206.550781 L 256.011719 272.699219 C 257.320312 272.828125 258.589844 273.390625 259.589844 274.390625 C 263.980469 278.78125 270.988281 285.789062 276.390625 291.179688 C 278.671875 293.460938 278.691406 297.128906 276.441406 299.449219 L 260.328125 316.019531 C 259.140625 317.238281 257.578125 317.839844 256.011719 317.820312 L 256.011719 390.421875 C 258.949219 390.421875 261.878906 391.550781 264.101562 393.828125 L 277.550781 407.660156 L 269.558594 415.628906 C 265.941406 419.25 261.128906 421.238281 256.011719 421.238281 L 256.011719 472.621094 C 274.859375 472.621094 292.558594 465.28125 305.898438 451.960938 L 313.371094 444.488281 L 358.328125 490.730469 C 374.679688 483.589844 390.148438 474.789062 404.511719 464.539062 L 349.699219 408.160156 L 420.640625 337.210938 C 440.371094 317.511719 451.230469 291.28125 451.230469 263.378906 Z M 451.230469 263.378906 " style=" stroke:none;fill-rule:nonzero;fill:rgb(100%,62.352941%,0%);fill-opacity:1;" />
<path d="M 303.34375 213.90625 C 303.34375 217.398438 300.515625 220.226562 297.023438 220.226562 C 293.53125 220.226562 290.703125 217.398438 290.703125 213.90625 C 290.703125 210.414062 293.53125 207.585938 297.023438 207.585938 C 300.515625 207.585938 303.34375 210.414062 303.34375 213.90625 Z M 303.34375 213.90625 " style=" stroke:none;fill-rule:nonzero;fill:rgb(100%,100%,100%);fill-opacity:1;" />
<path d="M 231.886719 210.734375 C 231.886719 214.226562 229.058594 217.054688 225.566406 217.054688 C 222.074219 217.054688 219.246094 214.226562 219.246094 210.734375 C 219.246094 207.242188 222.074219 204.414062 225.566406 204.414062 C 229.058594 204.414062 231.886719 207.242188 231.886719 210.734375 Z M 231.886719 210.734375 " style=" stroke:none;fill-rule:nonzero;fill:rgb(100%,100%,100%);fill-opacity:1;" />
<path d="M 213.492188 288.8125 C 213.492188 292.304688 210.660156 295.132812 207.171875 295.132812 C 203.679688 295.132812 200.851562 292.304688 200.851562 288.8125 C 200.851562 285.320312 203.679688 282.492188 207.171875 282.492188 C 210.660156 282.492188 213.492188 285.320312 213.492188 288.8125 Z M 213.492188 288.8125 " style=" stroke:none;fill-rule:nonzero;fill:rgb(100%,100%,100%);fill-opacity:1;" />
<path d="M 275.660156 360.570312 C 275.660156 364.0625 272.828125 366.890625 269.339844 366.890625 C 265.847656 366.890625 263.019531 364.0625 263.019531 360.570312 C 263.019531 357.078125 265.847656 354.25 269.339844 354.25 C 272.828125 354.25 275.660156 357.078125 275.660156 360.570312 Z M 275.660156 360.570312 " style=" stroke:none;fill-rule:nonzero;fill:rgb(100%,100%,100%);fill-opacity:1;" />
<path d="M 238.210938 335.839844 C 238.210938 339.332031 235.378906 342.160156 231.886719 342.160156 C 228.398438 342.160156 225.566406 339.332031 225.566406 335.839844 C 225.566406 332.347656 228.398438 329.519531 231.886719 329.519531 C 235.378906 329.519531 238.210938 332.347656 238.210938 335.839844 Z M 238.210938 335.839844 " style=" stroke:none;fill-rule:nonzero;fill:rgb(100%,100%,100%);fill-opacity:1;" />
<path d="M 281.980469 254.59375 C 281.980469 258.085938 279.152344 260.914062 275.660156 260.914062 C 272.167969 260.914062 269.339844 258.085938 269.339844 254.59375 C 269.339844 251.105469 272.167969 248.273438 275.660156 248.273438 C 279.152344 248.273438 281.980469 251.105469 281.980469 254.59375 Z M 281.980469 254.59375 " style=" stroke:none;fill-rule:nonzero;fill:rgb(100%,100%,100%);fill-opacity:1;" />
<path d="M 244.53125 256.3125 C 244.53125 259.800781 241.699219 262.632812 238.210938 262.632812 C 234.71875 262.632812 231.886719 259.800781 231.886719 256.3125 C 231.886719 252.820312 234.71875 249.988281 238.210938 249.988281 C 241.699219 249.988281 244.53125 252.820312 244.53125 256.3125 Z M 244.53125 256.3125 " style=" stroke:none;fill-rule:nonzero;fill:rgb(100%,100%,100%);fill-opacity:1;" />
<path d="M 313.386719 306.1875 C 313.386719 309.679688 310.554688 312.507812 307.066406 312.507812 C 303.574219 312.507812 300.742188 309.679688 300.742188 306.1875 C 300.742188 302.695312 303.574219 299.867188 307.066406 299.867188 C 310.554688 299.867188 313.386719 302.695312 313.386719 306.1875 Z M 313.386719 306.1875 " style=" stroke:none;fill-rule:nonzero;fill:rgb(100%,100%,100%);fill-opacity:1;" />
<path d="M 221.285156 384.964844 C 221.285156 388.457031 218.453125 391.285156 214.964844 391.285156 C 211.472656 391.285156 208.644531 388.457031 208.644531 384.964844 C 208.644531 381.476562 211.472656 378.644531 214.964844 378.644531 C 218.453125 378.644531 221.285156 381.476562 221.285156 384.964844 Z M 221.285156 384.964844 " style=" stroke:none;fill-rule:nonzero;fill:rgb(100%,100%,100%);fill-opacity:1;" />
<path d="M 141.226562 331.871094 C 141.226562 335.363281 138.398438 338.195312 134.90625 338.195312 C 131.414062 338.195312 128.585938 335.363281 128.585938 331.871094 C 128.585938 328.382812 131.414062 325.550781 134.90625 325.550781 C 138.398438 325.550781 141.226562 328.382812 141.226562 331.871094 Z M 141.226562 331.871094 " style=" stroke:none;fill-rule:nonzero;fill:rgb(100%,100%,100%);fill-opacity:1;" />
<path d="M 193.777344 425.296875 C 193.777344 428.789062 190.945312 431.617188 187.457031 431.617188 C 183.964844 431.617188 181.136719 428.789062 181.136719 425.296875 C 181.136719 421.808594 183.964844 418.976562 187.457031 418.976562 C 190.945312 418.976562 193.777344 421.808594 193.777344 425.296875 Z M 193.777344 425.296875 " style=" stroke:none;fill-rule:nonzero;fill:rgb(100%,100%,100%);fill-opacity:1;" />
<path d="M 134.90625 463.605469 C 134.90625 467.097656 132.078125 469.929688 128.585938 469.929688 C 125.09375 469.929688 122.265625 467.097656 122.265625 463.605469 C 122.265625 460.117188 125.09375 457.285156 128.585938 457.285156 C 132.078125 457.285156 134.90625 460.117188 134.90625 463.605469 Z M 134.90625 463.605469 " style=" stroke:none;fill-rule:nonzero;fill:rgb(100%,100%,100%);fill-opacity:1;" />
<path d="M 284.636719 450.050781 C 284.636719 453.542969 281.808594 456.371094 278.316406 456.371094 C 274.824219 456.371094 271.996094 453.542969 271.996094 450.050781 C 271.996094 446.5625 274.824219 443.730469 278.316406 443.730469 C 281.808594 443.730469 284.636719 446.5625 284.636719 450.050781 Z M 284.636719 450.050781 " style=" stroke:none;fill-rule:nonzero;fill:rgb(100%,100%,100%);fill-opacity:1;" />
<path d="M 322.949219 398.46875 C 322.949219 401.960938 320.121094 404.789062 316.628906 404.789062 C 313.136719 404.789062 310.308594 401.960938 310.308594 398.46875 C 310.308594 394.980469 313.136719 392.148438 316.628906 392.148438 C 320.121094 392.148438 322.949219 394.980469 322.949219 398.46875 Z M 322.949219 398.46875 " style=" stroke:none;fill-rule:nonzero;fill:rgb(100%,100%,100%);fill-opacity:1;" />
<path d="M 346.097656 425.296875 C 346.097656 428.789062 343.265625 431.617188 339.773438 431.617188 C 336.285156 431.617188 333.453125 428.789062 333.453125 425.296875 C 333.453125 421.808594 336.285156 418.976562 339.773438 418.976562 C 343.265625 418.976562 346.097656 421.808594 346.097656 425.296875 Z M 346.097656 425.296875 " style=" stroke:none;fill-rule:nonzero;fill:rgb(100%,100%,100%);fill-opacity:1;" />
<path d="M 357.542969 457.285156 C 357.542969 460.777344 354.714844 463.605469 351.222656 463.605469 C 347.730469 463.605469 344.902344 460.777344 344.902344 457.285156 C 344.902344 453.796875 347.730469 450.964844 351.222656 450.964844 C 354.714844 450.964844 357.542969 453.796875 357.542969 457.285156 Z M 357.542969 457.285156 " style=" stroke:none;fill-rule:nonzero;fill:rgb(100%,100%,100%);fill-opacity:1;" />
<path d="M 359.9375 378.644531 C 359.9375 382.136719 357.109375 384.964844 353.617188 384.964844 C 350.128906 384.964844 347.296875 382.136719 347.296875 378.644531 C 347.296875 375.152344 350.128906 372.324219 353.617188 372.324219 C 357.109375 372.324219 359.9375 375.152344 359.9375 378.644531 Z M 359.9375 378.644531 " style=" stroke:none;fill-rule:nonzero;fill:rgb(100%,100%,100%);fill-opacity:1;" />
<path d="M 238.210938 443.730469 C 238.210938 447.222656 235.378906 450.050781 231.886719 450.050781 C 228.398438 450.050781 225.566406 447.222656 225.566406 443.730469 C 225.566406 440.238281 228.398438 437.410156 231.886719 437.410156 C 235.378906 437.410156 238.210938 440.238281 238.210938 443.730469 Z M 238.210938 443.730469 " style=" stroke:none;fill-rule:nonzero;fill:rgb(100%,100%,100%);fill-opacity:1;" />
<path d="M 164.710938 450.964844 C 164.710938 454.457031 161.882812 457.285156 158.390625 457.285156 C 154.898438 457.285156 152.070312 454.457031 152.070312 450.964844 C 152.070312 447.472656 154.898438 444.644531 158.390625 444.644531 C 161.882812 444.644531 164.710938 447.472656 164.710938 450.964844 Z M 164.710938 450.964844 " style=" stroke:none;fill-rule:nonzero;fill:rgb(100%,100%,100%);fill-opacity:1;" />
<path d="M 389.191406 457.285156 C 389.191406 460.777344 386.363281 463.605469 382.871094 463.605469 C 379.378906 463.605469 376.550781 460.777344 376.550781 457.285156 C 376.550781 453.796875 379.378906 450.964844 382.871094 450.964844 C 386.363281 450.964844 389.191406 453.796875 389.191406 457.285156 Z M 389.191406 457.285156 " style=" stroke:none;fill-rule:nonzero;fill:rgb(100%,100%,100%);fill-opacity:1;" />
<path d="M 412.492188 335.8125 C 412.492188 339.300781 409.664062 342.132812 406.171875 342.132812 C 402.679688 342.132812 399.851562 339.300781 399.851562 335.8125 C 399.851562 332.320312 402.679688 329.488281 406.171875 329.488281 C 409.664062 329.488281 412.492188 332.320312 412.492188 335.8125 Z M 412.492188 335.8125 " style=" stroke:none;fill-rule:nonzero;fill:rgb(100%,100%,100%);fill-opacity:1;" />
<path d="M 418.8125 276.992188 C 418.8125 280.484375 415.984375 283.3125 412.492188 283.3125 C 409.003906 283.3125 406.171875 280.484375 406.171875 276.992188 C 406.171875 273.5 409.003906 270.671875 412.492188 270.671875 C 415.984375 270.671875 418.8125 273.5 418.8125 276.992188 Z M 418.8125 276.992188 " style=" stroke:none;fill-rule:nonzero;fill:rgb(100%,100%,100%);fill-opacity:1;" />
<path d="M 363.863281 344.515625 C 363.863281 348.007812 361.035156 350.835938 357.542969 350.835938 C 354.054688 350.835938 351.222656 348.007812 351.222656 344.515625 C 351.222656 341.023438 354.054688 338.195312 357.542969 338.195312 C 361.035156 338.195312 363.863281 341.023438 363.863281 344.515625 Z M 363.863281 344.515625 " style=" stroke:none;fill-rule:nonzero;fill:rgb(100%,100%,100%);fill-opacity:1;" />
<path d="M 429.164062 213.90625 C 429.164062 217.398438 426.335938 220.226562 422.84375 220.226562 C 419.355469 220.226562 416.523438 217.398438 416.523438 213.90625 C 416.523438 210.414062 419.355469 207.585938 422.84375 207.585938 C 426.335938 207.585938 429.164062 210.414062 429.164062 213.90625 Z M 429.164062 213.90625 " style=" stroke:none;fill-rule:nonzero;fill:rgb(100%,100%,100%);fill-opacity:1;" />
<path d="M 363.863281 178.800781 C 363.863281 182.292969 361.035156 185.121094 357.542969 185.121094 C 354.054688 185.121094 351.222656 182.292969 351.222656 178.800781 C 351.222656 175.3125 354.054688 172.480469 357.542969 172.480469 C 361.035156 172.480469 363.863281 175.3125 363.863281 178.800781 Z M 363.863281 178.800781 " style=" stroke:none;fill-rule:nonzero;fill:rgb(100%,100%,100%);fill-opacity:1;" />
<path d="M 124.785156 191.445312 C 124.785156 194.933594 121.957031 197.765625 118.464844 197.765625 C 114.972656 197.765625 112.144531 194.933594 112.144531 191.445312 C 112.144531 187.953125 114.972656 185.121094 118.464844 185.121094 C 121.957031 185.121094 124.785156 187.953125 124.785156 191.445312 Z M 124.785156 191.445312 " style=" stroke:none;fill-rule:nonzero;fill:rgb(100%,100%,100%);fill-opacity:1;" />
<path d="M 89.519531 227.414062 C 89.519531 230.90625 86.6875 233.734375 83.195312 233.734375 C 79.707031 233.734375 76.875 230.90625 76.875 227.414062 C 76.875 223.925781 79.707031 221.09375 83.195312 221.09375 C 86.6875 221.09375 89.519531 223.925781 89.519531 227.414062 Z M 89.519531 227.414062 " style=" stroke:none;fill-rule:nonzero;fill:rgb(100%,100%,100%);fill-opacity:1;" />
<path d="M 188.566406 191.445312 C 188.566406 194.933594 185.738281 197.765625 182.246094 197.765625 C 178.757812 197.765625 175.925781 194.933594 175.925781 191.445312 C 175.925781 187.953125 178.757812 185.121094 182.246094 185.121094 C 185.738281 185.121094 188.566406 187.953125 188.566406 191.445312 Z M 188.566406 191.445312 " style=" stroke:none;fill-rule:nonzero;fill:rgb(100%,100%,100%);fill-opacity:1;" />
<path d="M 102.160156 264.351562 C 102.160156 267.839844 99.328125 270.671875 95.839844 270.671875 C 92.347656 270.671875 89.519531 267.839844 89.519531 264.351562 C 89.519531 260.859375 92.347656 258.027344 95.839844 258.027344 C 99.328125 258.027344 102.160156 260.859375 102.160156 264.351562 Z M 102.160156 264.351562 " style=" stroke:none;fill-rule:nonzero;fill:rgb(100%,100%,100%);fill-opacity:1;" />
<path d="M 102.160156 312.507812 C 102.160156 316 99.328125 318.828125 95.839844 318.828125 C 92.347656 318.828125 89.519531 316 89.519531 312.507812 C 89.519531 309.019531 92.347656 306.1875 95.839844 306.1875 C 99.328125 306.1875 102.160156 309.019531 102.160156 312.507812 Z M 102.160156 312.507812 " style=" stroke:none;fill-rule:nonzero;fill:rgb(100%,100%,100%);fill-opacity:1;" />
</g>
</svg>