<svg xmlns="http://www.w3.org/2000/svg" height="512pt" version="1.1" viewBox="0 0 512 512" width="512pt">
<g id="surface1">
<path d="M 512 256 C 512 397.386719 397.386719 512 256 512 C 114.613281 512 0 397.386719 0 256 C 0 114.613281 114.613281 0 256 0 C 397.386719 0 512 114.613281 512 256 Z M 512 256 " style=" stroke:none;fill-rule:nonzero;fill:rgb(70.980392%,88.627451%,21.568627%);fill-opacity:1;" />
<path d="M 512 256 C 512 282.050781 508.109375 307.191406 500.871094 330.871094 C 468.859375 435.71875 371.328125 512 256 512 C 151.441406 512 61.511719 449.300781 21.769531 359.449219 C 7.769531 327.820312 0 292.820312 0 256 C 0 209.78125 12.25 166.429688 33.679688 129 C 77.800781 206.070312 160.839844 258 256 258 C 351.160156 258 434.210938 206.070312 478.320312 129 C 499.75 166.429688 512 209.78125 512 256 Z M 512 256 " style=" stroke:none;fill-rule:nonzero;fill:rgb(58.431373%,83.921569%,0%);fill-opacity:1;" />
<path d="M 30.742188 377.703125 C 37.898438 390.921875 46.171875 403.441406 55.460938 415.128906 C 102.359375 474.148438 174.761719 512 256 512 C 337.238281 512 409.640625 474.148438 456.539062 415.128906 C 465.828125 403.441406 474.101562 390.921875 481.257812 377.703125 Z M 30.742188 377.703125 " style=" stroke:none;fill-rule:nonzero;fill:rgb(52.156863%,68.627451%,7.058824%);fill-opacity:1;" />
<path d="M 345.296875 438.558594 C 345.296875 458.835938 337.070312 477.195312 323.785156 490.492188 C 321.5625 492.714844 319.195312 494.800781 316.703125 496.71875 C 304.296875 506.296875 288.742188 512 271.855469 512 C 257.1875 512 243.015625 509.851562 229.652344 505.847656 C 169.097656 487.714844 124.964844 431.566406 124.964844 365.117188 C 124.964844 298.65625 169.097656 242.515625 229.652344 224.382812 C 243.015625 220.378906 257.1875 218.230469 271.855469 218.230469 C 288.742188 218.230469 304.304688 223.925781 316.710938 233.511719 C 334.09375 246.941406 345.296875 267.992188 345.296875 291.671875 C 345.296875 311.941406 337.070312 330.304688 323.785156 343.601562 C 310.496094 356.894531 292.136719 365.117188 271.855469 365.117188 C 312.414062 365.117188 345.296875 397.992188 345.296875 438.558594 Z M 345.296875 438.558594 " style=" stroke:none;fill-rule:nonzero;fill:rgb(100%,20.392157%,27.058824%);fill-opacity:1;" />
<path d="M 345.296875 438.558594 C 345.296875 458.835938 337.070312 477.195312 323.785156 490.492188 C 321.5625 492.714844 319.195312 494.800781 316.703125 496.71875 C 304.296875 506.296875 288.742188 512 271.855469 512 C 257.1875 512 243.015625 509.851562 229.652344 505.847656 C 193.839844 469.71875 171.726562 420.003906 171.726562 365.117188 C 171.726562 310.226562 193.847656 260.503906 229.652344 224.382812 C 243.015625 220.378906 257.1875 218.230469 271.855469 218.230469 C 288.742188 218.230469 304.304688 223.925781 316.710938 233.511719 C 334.09375 246.941406 345.296875 267.992188 345.296875 291.671875 C 345.296875 311.941406 337.070312 330.304688 323.785156 343.601562 C 310.496094 356.894531 292.136719 365.117188 271.855469 365.117188 C 312.414062 365.117188 345.296875 397.992188 345.296875 438.558594 Z M 345.296875 438.558594 " style=" stroke:none;fill-rule:nonzero;fill:rgb(89.803922%,16.078431%,16.078431%);fill-opacity:1;" />
<path d="M 345.296875 438.558594 C 345.296875 458.835938 337.070312 477.195312 323.785156 490.492188 C 321.5625 492.714844 319.195312 494.800781 316.703125 496.71875 C 268.355469 472.675781 235.128906 422.773438 235.128906 365.117188 C 235.128906 307.449219 268.359375 257.546875 316.707031 233.511719 C 334.09375 246.941406 345.292969 267.992188 345.292969 291.671875 C 345.292969 311.941406 337.070312 330.304688 323.785156 343.601562 C 310.496094 356.894531 292.136719 365.117188 271.851562 365.117188 C 312.414062 365.117188 345.296875 397.992188 345.296875 438.558594 Z M 345.296875 438.558594 " style=" stroke:none;fill-rule:nonzero;fill:rgb(72.941176%,5.098039%,36.078431%);fill-opacity:1;" />
<path d="M 441.515625 124.789062 C 449.296875 135.242188 452.101562 147.863281 450.355469 159.816406 C 450.0625 161.816406 449.644531 163.800781 449.09375 165.746094 C 446.375 175.445312 440.546875 184.355469 431.839844 190.835938 C 424.277344 196.464844 416.148438 200.796875 407.722656 203.859375 C 369.546875 217.753906 325.246094 205.742188 299.746094 171.488281 C 274.238281 137.226562 275.445312 91.347656 299.703125 58.761719 C 305.054688 51.566406 311.535156 45.019531 319.097656 39.390625 C 327.804688 32.910156 338.011719 29.875 348.085938 30.054688 C 362.203125 30.308594 376.054688 36.859375 385.140625 49.066406 C 392.921875 59.515625 395.730469 72.140625 393.984375 84.09375 C 392.234375 96.046875 385.925781 107.332031 375.46875 115.117188 C 396.378906 99.550781 425.945312 103.878906 441.515625 124.789062 Z M 441.515625 124.789062 " style=" stroke:none;fill-rule:nonzero;fill:rgb(100%,91.372549%,33.333333%);fill-opacity:1;" />
<path d="M 441.515625 124.789062 C 449.296875 135.242188 452.101562 147.863281 450.355469 159.816406 C 450.0625 161.816406 449.644531 163.800781 449.09375 165.746094 C 446.375 175.445312 440.546875 184.355469 431.839844 190.835938 C 424.277344 196.464844 416.148438 200.796875 407.722656 203.859375 C 375.394531 198.980469 344.914062 181.835938 323.851562 153.542969 C 302.785156 125.246094 295.105469 91.121094 299.699219 58.761719 C 305.054688 51.566406 311.535156 45.019531 319.097656 39.390625 C 327.804688 32.910156 338.011719 29.875 348.085938 30.054688 C 362.199219 30.308594 376.054688 36.859375 385.140625 49.066406 C 392.921875 59.515625 395.730469 72.140625 393.984375 84.09375 C 392.234375 96.046875 385.925781 107.332031 375.46875 115.117188 C 396.378906 99.550781 425.945312 103.878906 441.515625 124.789062 Z M 441.515625 124.789062 " style=" stroke:none;fill-rule:nonzero;fill:rgb(100%,81.960784%,7.058824%);fill-opacity:1;" />
<path d="M 441.515625 124.789062 C 449.296875 135.242188 452.101562 147.863281 450.355469 159.816406 C 450.0625 161.816406 449.644531 163.800781 449.09375 165.746094 C 414.941406 171.90625 378.664062 158.933594 356.535156 129.210938 C 334.40625 99.480469 332.382812 61.003906 348.085938 30.054688 C 362.199219 30.308594 376.054688 36.859375 385.140625 49.066406 C 392.921875 59.515625 395.730469 72.140625 393.984375 84.09375 C 392.234375 96.046875 385.925781 107.332031 375.46875 115.117188 C 396.378906 99.550781 425.945312 103.878906 441.515625 124.789062 Z M 441.515625 124.789062 " style=" stroke:none;fill-rule:nonzero;fill:rgb(100%,62.352941%,0%);fill-opacity:1;" />
<path d="M 173.453125 234.648438 C 165.992188 245.332031 154.90625 251.984375 143.015625 254.105469 C 141.027344 254.460938 139.011719 254.6875 136.992188 254.78125 C 126.929688 255.265625 116.636719 252.550781 107.734375 246.335938 C 100.003906 240.941406 93.328125 234.597656 87.757812 227.570312 C 62.515625 195.738281 59.910156 149.914062 84.351562 114.898438 C 108.800781 79.871094 152.710938 66.519531 191.292969 79.234375 C 199.808594 82.042969 208.066406 86.121094 215.796875 91.515625 C 224.699219 97.730469 230.804688 106.453125 233.8125 116.070312 C 238.035156 129.542969 236.195312 144.757812 227.484375 157.234375 C 220.03125 167.917969 208.941406 174.570312 197.046875 176.695312 C 185.15625 178.808594 172.453125 176.390625 161.765625 168.929688 C 183.140625 183.847656 188.375 213.269531 173.453125 234.648438 Z M 173.453125 234.648438 " style=" stroke:none;fill-rule:nonzero;fill:rgb(40.784314%,98.823529%,87.45098%);fill-opacity:1;" />
<path d="M 173.453125 234.648438 C 165.992188 245.332031 154.90625 251.984375 143.015625 254.105469 C 141.027344 254.460938 139.011719 254.6875 136.992188 254.78125 C 126.929688 255.265625 116.636719 252.550781 107.734375 246.335938 C 100.003906 240.941406 93.328125 234.597656 87.757812 227.570312 C 82.175781 195.359375 88.808594 161.023438 108.996094 132.097656 C 129.1875 103.167969 159.136719 85.101562 191.292969 79.234375 C 199.808594 82.042969 208.066406 86.121094 215.796875 91.515625 C 224.699219 97.730469 230.804688 106.453125 233.8125 116.070312 C 238.035156 129.542969 236.195312 144.757812 227.484375 157.234375 C 220.03125 167.917969 208.941406 174.570312 197.046875 176.695312 C 185.15625 178.808594 172.453125 176.390625 161.765625 168.929688 C 183.140625 183.847656 188.375 213.269531 173.453125 234.648438 Z M 173.453125 234.648438 " style=" stroke:none;fill-rule:nonzero;fill:rgb(6.27451%,88.627451%,76.862745%);fill-opacity:1;" />
<path d="M 173.453125 234.648438 C 165.992188 245.332031 154.90625 251.984375 143.015625 254.105469 C 141.027344 254.460938 139.011719 254.6875 136.992188 254.78125 C 120.355469 224.324219 121.203125 185.804688 142.410156 155.421875 C 163.621094 125.027344 199.492188 110.953125 233.8125 116.070312 C 238.035156 129.542969 236.195312 144.757812 227.484375 157.234375 C 220.027344 167.917969 208.9375 174.570312 197.046875 176.695312 C 185.152344 178.808594 172.453125 176.390625 161.765625 168.929688 C 183.140625 183.847656 188.375 213.269531 173.453125 234.648438 Z M 173.453125 234.648438 " style=" stroke:none;fill-rule:nonzero;fill:rgb(10.196078%,72.941176%,62.352941%);fill-opacity:1;" />
</g>
</svg>