<svg xmlns="http://www.w3.org/2000/svg" height="512pt" version="1.1" viewBox="0 0 512 512" width="512pt">
<g id="surface1">
<path d="M 512 256 C 512 397.386719 397.386719 512 256 512 C 114.613281 512 0 397.386719 0 256 C 0 114.613281 114.613281 0 256 0 C 397.386719 0 512 114.613281 512 256 Z M 512 256 " style=" stroke:none;fill-rule:nonzero;fill:rgb(40.784314%,98.823529%,87.45098%);fill-opacity:1;" />
<path d="M 512 256 C 512 282.050781 508.109375 307.191406 500.871094 330.871094 C 468.859375 435.71875 371.328125 512 256 512 C 151.441406 512 61.511719 449.300781 21.769531 359.449219 C 7.769531 327.820312 0 292.820312 0 256 C 0 209.78125 12.25 166.429688 33.679688 129 C 77.800781 206.070312 160.839844 258 256 258 C 351.160156 258 434.210938 206.070312 478.320312 129 C 499.75 166.429688 512 209.78125 512 256 Z M 512 256 " style=" stroke:none;fill-rule:nonzero;fill:rgb(6.27451%,88.627451%,76.862745%);fill-opacity:1;" />
<path d="M 30.742188 377.703125 C 37.898438 390.921875 46.171875 403.441406 55.460938 415.128906 C 102.359375 474.148438 174.761719 512 256 512 C 337.238281 512 409.640625 474.148438 456.539062 415.128906 C 465.828125 403.441406 474.101562 390.921875 481.257812 377.703125 Z M 30.742188 377.703125 " style=" stroke:none;fill-rule:nonzero;fill:rgb(10.196078%,72.941176%,62.352941%);fill-opacity:1;" />
<path d="M 424.25 266.988281 L 419.011719 294.121094 L 383.511719 478.019531 C 373.480469 483.800781 363.019531 488.921875 352.191406 493.308594 C 331.75 501.601562 310 507.328125 287.339844 510.089844 C 277.070312 511.351562 266.609375 512 256 512 C 245.390625 512 234.929688 511.351562 224.660156 510.101562 L 209.78125 507.828125 C 192.449219 504.679688 175.730469 499.769531 159.808594 493.308594 C 148.980469 488.910156 138.519531 483.800781 128.488281 478.03125 L 92.988281 294.121094 L 87.75 266.988281 C 85.210938 253.820312 86.699219 240.960938 91.28125 229.558594 C 101.039062 205.28125 124.75 187.589844 153.289062 187.589844 L 358.710938 187.589844 C 387.25 187.589844 410.960938 205.28125 420.71875 229.558594 C 425.300781 240.960938 426.789062 253.820312 424.25 266.988281 Z M 424.25 266.988281 " style=" stroke:none;fill-rule:nonzero;fill:rgb(91.764706%,50.980392%,30.588235%);fill-opacity:1;" />
<path d="M 424.25 266.988281 L 419.011719 294.121094 L 383.511719 478.019531 C 373.480469 483.800781 363.019531 488.921875 352.191406 493.308594 C 331.75 501.601562 310 507.328125 287.339844 510.089844 C 277.070312 511.351562 266.609375 512 256 512 C 245.390625 512 234.929688 511.351562 224.660156 510.101562 L 209.78125 507.828125 L 168.601562 294.511719 L 163.289062 266.988281 C 161.878906 259.671875 161.710938 252.449219 162.628906 245.519531 C 162.71875 244.820312 162.820312 244.128906 162.941406 243.441406 C 163.019531 242.960938 163.109375 242.46875 163.199219 241.988281 C 163.261719 241.679688 163.308594 241.378906 163.378906 241.078125 C 163.480469 240.550781 163.589844 240.03125 163.710938 239.511719 C 163.738281 239.371094 163.769531 239.238281 163.808594 239.101562 C 163.820312 239.03125 163.839844 238.96875 163.851562 238.898438 C 163.921875 238.601562 163.988281 238.308594 164.070312 238.019531 C 164.078125 237.960938 164.101562 237.910156 164.121094 237.851562 C 164.179688 237.601562 164.238281 237.359375 164.308594 237.109375 C 164.621094 235.929688 164.96875 234.761719 165.351562 233.609375 C 165.441406 233.308594 165.539062 233.019531 165.648438 232.730469 C 165.660156 232.660156 165.691406 232.589844 165.71875 232.519531 C 165.828125 232.171875 165.960938 231.820312 166.089844 231.46875 C 166.320312 230.828125 166.570312 230.191406 166.820312 229.558594 C 176.570312 205.28125 200.289062 187.589844 228.828125 187.589844 L 358.710938 187.589844 C 387.25 187.589844 410.960938 205.28125 420.71875 229.558594 C 425.300781 240.960938 426.789062 253.820312 424.25 266.988281 Z M 424.25 266.988281 " style=" stroke:none;fill-rule:nonzero;fill:rgb(77.254902%,34.509804%,20.784314%);fill-opacity:1;" />
<path d="M 424.25 266.988281 L 419.011719 294.121094 L 383.511719 478.019531 C 373.480469 483.800781 363.019531 488.921875 352.191406 493.308594 C 331.75 501.601562 310 507.328125 287.339844 510.089844 C 277.070312 511.351562 266.609375 512 256 512 L 256 187.589844 L 358.710938 187.589844 C 387.25 187.589844 410.960938 205.28125 420.71875 229.558594 C 425.300781 240.960938 426.789062 253.820312 424.25 266.988281 Z M 424.25 266.988281 " style=" stroke:none;fill-rule:nonzero;fill:rgb(65.098039%,22.352941%,7.843137%);fill-opacity:1;" />
<path d="M 420.714844 229.554688 C 399.902344 233.515625 397.132812 251.9375 371.382812 251.9375 C 342.535156 251.9375 342.535156 228.8125 313.6875 228.8125 C 284.839844 228.8125 284.839844 251.9375 256 251.9375 L 255.988281 251.9375 C 227.148438 251.9375 227.148438 228.8125 198.292969 228.8125 C 179.464844 228.8125 172.929688 238.660156 162.636719 245.507812 C 161.039062 246.570312 159.351562 247.558594 157.511719 248.429688 C 153.050781 250.542969 147.703125 251.9375 140.605469 251.9375 C 114.863281 251.9375 112.09375 233.519531 91.285156 229.558594 C 101.035156 205.277344 124.753906 187.585938 153.289062 187.585938 L 358.707031 187.585938 C 387.246094 187.585938 410.964844 205.277344 420.714844 229.554688 Z M 420.714844 229.554688 " style=" stroke:none;fill-rule:nonzero;fill:rgb(100%,91.372549%,33.333333%);fill-opacity:1;" />
<path d="M 420.714844 229.554688 C 399.902344 233.515625 397.132812 251.9375 371.382812 251.9375 C 342.535156 251.9375 342.535156 228.8125 313.6875 228.8125 C 284.839844 228.8125 284.839844 251.9375 256 251.9375 L 255.988281 251.9375 C 227.148438 251.9375 227.148438 228.8125 198.292969 228.8125 C 179.464844 228.8125 172.929688 238.660156 162.636719 245.507812 C 163.363281 239.96875 164.785156 234.609375 166.820312 229.554688 C 176.570312 205.277344 200.285156 187.585938 228.824219 187.585938 L 358.707031 187.585938 C 387.246094 187.585938 410.964844 205.277344 420.714844 229.554688 Z M 420.714844 229.554688 " style=" stroke:none;fill-rule:nonzero;fill:rgb(100%,81.960784%,7.058824%);fill-opacity:1;" />
<path d="M 420.714844 229.554688 C 399.902344 233.515625 397.132812 251.9375 371.382812 251.9375 C 342.535156 251.9375 342.535156 228.8125 313.6875 228.8125 C 284.839844 228.8125 284.839844 251.9375 256 251.9375 L 256 187.585938 L 358.707031 187.585938 C 387.246094 187.585938 410.964844 205.277344 420.714844 229.554688 Z M 420.714844 229.554688 " style=" stroke:none;fill-rule:nonzero;fill:rgb(100%,62.352941%,0%);fill-opacity:1;" />
<path d="M 450.101562 331.558594 C 450.101562 333.269531 450 335.011719 449.761719 336.761719 C 449.71875 337.109375 449.671875 337.449219 449.609375 337.800781 C 449.511719 338.488281 449.378906 339.179688 449.230469 339.871094 L 426.199219 447.21875 C 413.101562 458.878906 398.808594 469.21875 383.511719 478.019531 C 373.480469 483.800781 363.019531 488.921875 352.191406 493.308594 C 331.75 501.601562 310 507.328125 287.339844 510.089844 C 277.070312 511.351562 266.609375 512 256 512 C 245.390625 512 234.929688 511.351562 224.660156 510.101562 L 209.78125 507.828125 C 192.449219 504.679688 175.730469 499.769531 159.808594 493.308594 C 148.980469 488.910156 138.519531 483.800781 128.488281 478.03125 C 113.191406 469.230469 98.890625 458.890625 85.800781 447.21875 L 85.789062 447.210938 L 62.769531 339.871094 C 62.179688 337.128906 61.898438 334.421875 61.898438 331.75 C 61.898438 324.648438 63.878906 317.898438 67.359375 312.101562 C 67.609375 311.679688 67.878906 311.261719 68.148438 310.851562 C 68.378906 310.488281 68.621094 310.140625 68.871094 309.78125 C 69.21875 309.28125 69.578125 308.789062 69.960938 308.300781 C 75.519531 301.128906 83.589844 295.921875 92.988281 294.121094 C 95.351562 293.660156 97.800781 293.421875 100.308594 293.421875 C 119.628906 293.421875 135.929688 307.761719 138.398438 326.921875 L 139.371094 330.339844 C 140 313.160156 152.109375 298.53125 168.601562 294.511719 C 171.519531 293.800781 174.578125 293.421875 177.738281 293.421875 L 178.578125 293.421875 C 199.148438 293.421875 216.050781 309.621094 216.929688 330.171875 L 217.078125 333.46875 C 216.140625 311.628906 233.589844 293.421875 255.441406 293.421875 L 256.558594 293.421875 C 278.410156 293.421875 295.859375 311.628906 294.921875 333.46875 L 295.070312 330.171875 C 295.949219 309.621094 312.851562 293.421875 333.421875 293.421875 L 334.261719 293.421875 C 355.699219 293.421875 372.609375 310.851562 372.660156 331.660156 L 373.601562 326.921875 C 373.671875 326.390625 373.75 325.859375 373.839844 325.339844 C 373.898438 324.980469 373.96875 324.621094 374.039062 324.261719 C 374.160156 323.671875 374.289062 323.101562 374.429688 322.519531 C 374.539062 322.070312 374.660156 321.628906 374.789062 321.191406 C 374.910156 320.78125 375.03125 320.378906 375.160156 319.980469 C 375.339844 319.421875 375.53125 318.871094 375.730469 318.328125 C 376.140625 317.238281 376.589844 316.179688 377.101562 315.140625 C 377.210938 314.910156 377.320312 314.679688 377.429688 314.460938 C 378.089844 313.148438 378.828125 311.878906 379.640625 310.660156 C 380.269531 309.710938 380.941406 308.78125 381.648438 307.898438 C 382 307.460938 382.359375 307.019531 382.738281 306.589844 C 383.121094 306.160156 383.488281 305.75 383.878906 305.339844 C 384.269531 304.929688 384.660156 304.53125 385.078125 304.140625 C 385.28125 303.941406 385.488281 303.738281 385.699219 303.558594 C 385.898438 303.359375 386.121094 303.179688 386.328125 302.988281 C 386.699219 302.660156 387.078125 302.339844 387.46875 302.03125 L 387.75 301.800781 C 388.199219 301.441406 388.671875 301.089844 389.140625 300.75 C 389.328125 300.601562 389.53125 300.460938 389.730469 300.320312 C 389.941406 300.171875 390.148438 300.03125 390.371094 299.890625 C 390.429688 299.851562 390.488281 299.808594 390.539062 299.769531 C 390.800781 299.601562 391.050781 299.441406 391.308594 299.28125 C 391.410156 299.210938 391.511719 299.148438 391.621094 299.089844 C 391.628906 299.078125 391.648438 299.070312 391.660156 299.058594 C 391.71875 299.03125 391.769531 298.988281 391.828125 298.960938 C 392.148438 298.761719 392.480469 298.570312 392.808594 298.390625 C 393.03125 298.261719 393.261719 298.128906 393.488281 298.011719 C 393.511719 298 393.519531 297.988281 393.53125 297.988281 C 393.660156 297.921875 393.78125 297.851562 393.910156 297.78125 C 394.199219 297.621094 394.488281 297.46875 394.789062 297.328125 L 394.800781 297.328125 C 395.308594 297.070312 395.820312 296.839844 396.339844 296.609375 C 396.351562 296.609375 396.351562 296.609375 396.351562 296.609375 C 396.871094 296.390625 397.398438 296.171875 397.929688 295.960938 L 399.558594 295.378906 C 400.109375 295.199219 400.660156 295.03125 401.210938 294.871094 C 401.488281 294.789062 401.769531 294.710938 402.050781 294.640625 C 402.328125 294.570312 402.621094 294.5 402.898438 294.441406 C 403.179688 294.371094 403.460938 294.300781 403.75 294.238281 C 404.03125 294.179688 404.320312 294.128906 404.609375 294.078125 C 404.898438 294.019531 405.179688 293.96875 405.46875 293.921875 L 411.691406 293.421875 C 412.949219 293.421875 414.191406 293.480469 415.410156 293.601562 C 415.710938 293.628906 416.019531 293.660156 416.320312 293.699219 C 416.921875 293.769531 417.53125 293.859375 418.121094 293.960938 C 418.421875 294.011719 418.71875 294.058594 419.011719 294.121094 L 419.910156 294.300781 C 420.421875 294.410156 420.929688 294.53125 421.429688 294.660156 C 421.820312 294.761719 422.199219 294.871094 422.578125 294.980469 C 423.121094 295.140625 423.648438 295.308594 424.171875 295.488281 C 424.210938 295.5 424.25 295.511719 424.28125 295.53125 C 424.839844 295.71875 425.398438 295.921875 425.949219 296.140625 C 426.53125 296.378906 427.109375 296.628906 427.679688 296.890625 C 430.238281 298.058594 432.640625 299.511719 434.851562 301.191406 C 435.351562 301.558594 435.828125 301.941406 436.300781 302.339844 C 436.769531 302.738281 437.230469 303.140625 437.691406 303.558594 C 438.140625 303.980469 438.578125 304.410156 439.011719 304.839844 C 439.441406 305.28125 439.859375 305.730469 440.269531 306.179688 C 440.558594 306.511719 440.851562 306.839844 441.128906 307.179688 C 441.339844 307.429688 441.550781 307.679688 441.75 307.941406 C 442.039062 308.300781 442.320312 308.671875 442.589844 309.039062 C 442.699219 309.179688 442.800781 309.320312 442.898438 309.460938 C 442.921875 309.480469 442.941406 309.511719 442.949219 309.539062 C 442.980469 309.578125 443.011719 309.621094 443.039062 309.660156 C 443.039062 309.671875 443.050781 309.679688 443.050781 309.691406 C 443.25 309.96875 443.449219 310.261719 443.648438 310.550781 C 444.5 311.820312 445.28125 313.148438 445.980469 314.53125 C 446.109375 314.800781 446.25 315.070312 446.378906 315.351562 C 446.390625 315.359375 446.390625 315.359375 446.390625 315.359375 C 446.648438 315.921875 446.898438 316.480469 447.140625 317.050781 C 447.300781 317.441406 447.460938 317.828125 447.609375 318.230469 C 447.640625 318.320312 447.679688 318.410156 447.710938 318.5 C 447.851562 318.878906 447.988281 319.269531 448.121094 319.660156 C 448.261719 320.089844 448.398438 320.53125 448.53125 320.96875 C 448.679688 321.441406 448.808594 321.921875 448.929688 322.398438 C 449.039062 322.839844 449.148438 323.289062 449.238281 323.738281 C 449.289062 323.941406 449.328125 324.148438 449.371094 324.359375 C 449.53125 325.179688 449.671875 326.011719 449.78125 326.851562 C 449.808594 327.039062 449.828125 327.238281 449.851562 327.441406 C 449.890625 327.808594 449.929688 328.179688 449.960938 328.558594 C 449.980469 328.761719 450 328.96875 450.011719 329.191406 C 450.03125 329.398438 450.039062 329.609375 450.050781 329.820312 C 450.070312 330.101562 450.078125 330.378906 450.078125 330.660156 C 450.089844 330.960938 450.101562 331.261719 450.101562 331.558594 Z M 450.101562 331.558594 " style=" stroke:none;fill-rule:nonzero;fill:rgb(5.882353%,60.784314%,90.980392%);fill-opacity:1;" />
<path d="M 450.101562 331.558594 C 450.101562 333.269531 450 335.011719 449.761719 336.761719 C 449.71875 337.109375 449.671875 337.449219 449.609375 337.800781 C 449.511719 338.488281 449.378906 339.179688 449.230469 339.871094 L 426.210938 447.210938 L 426.199219 447.21875 C 413.101562 458.878906 398.808594 469.21875 383.511719 478.019531 C 373.480469 483.800781 363.019531 488.921875 352.191406 493.308594 C 331.75 501.601562 310 507.328125 287.339844 510.089844 C 277.070312 511.351562 266.609375 512 256 512 L 256 293.421875 L 256.558594 293.421875 C 278.410156 293.421875 295.859375 311.628906 294.921875 333.46875 L 295.070312 330.171875 C 295.949219 309.621094 312.851562 293.421875 333.421875 293.421875 L 334.261719 293.421875 C 355.699219 293.421875 372.609375 310.851562 372.660156 331.660156 L 373.601562 326.921875 C 373.671875 326.390625 373.75 325.859375 373.839844 325.339844 C 373.898438 324.980469 373.96875 324.621094 374.039062 324.261719 C 374.160156 323.671875 374.289062 323.101562 374.429688 322.519531 C 374.539062 322.070312 374.660156 321.628906 374.789062 321.191406 C 374.910156 320.78125 375.03125 320.378906 375.160156 319.980469 C 375.339844 319.421875 375.53125 318.871094 375.730469 318.328125 C 376.140625 317.238281 376.589844 316.179688 377.101562 315.140625 C 377.210938 314.910156 377.320312 314.679688 377.429688 314.460938 C 378.089844 313.148438 378.828125 311.878906 379.640625 310.660156 C 380.269531 309.710938 380.941406 308.78125 381.648438 307.898438 C 382 307.460938 382.359375 307.019531 382.738281 306.589844 C 383.121094 306.160156 383.488281 305.75 383.878906 305.339844 C 384.269531 304.929688 384.660156 304.53125 385.078125 304.140625 C 385.28125 303.941406 385.488281 303.738281 385.699219 303.558594 C 385.898438 303.359375 386.121094 303.179688 386.328125 302.988281 C 386.699219 302.660156 387.078125 302.339844 387.46875 302.03125 L 387.75 301.800781 C 388.199219 301.441406 388.671875 301.089844 389.140625 300.75 C 389.328125 300.601562 389.53125 300.460938 389.730469 300.320312 C 389.941406 300.171875 390.148438 300.03125 390.371094 299.890625 C 390.679688 299.679688 390.988281 299.480469 391.308594 299.28125 C 391.410156 299.210938 391.511719 299.148438 391.621094 299.089844 C 391.628906 299.078125 391.648438 299.070312 391.660156 299.058594 C 391.71875 299.03125 391.769531 298.988281 391.828125 298.960938 C 392.148438 298.761719 392.480469 298.570312 392.808594 298.390625 C 393.03125 298.261719 393.261719 298.128906 393.488281 298.011719 C 393.511719 298 393.519531 297.988281 393.53125 297.988281 C 393.660156 297.921875 393.78125 297.851562 393.910156 297.78125 C 394.199219 297.621094 394.488281 297.46875 394.789062 297.328125 L 394.800781 297.328125 C 395.308594 297.070312 395.820312 296.839844 396.339844 296.609375 C 396.351562 296.609375 396.351562 296.609375 396.351562 296.609375 C 396.871094 296.390625 397.398438 296.171875 397.929688 295.960938 L 399.558594 295.378906 C 400.109375 295.199219 400.660156 295.03125 401.210938 294.871094 C 401.488281 294.789062 401.769531 294.710938 402.050781 294.640625 C 402.328125 294.570312 402.621094 294.5 402.898438 294.441406 C 403.179688 294.371094 403.460938 294.300781 403.75 294.238281 C 404.03125 294.179688 404.320312 294.128906 404.609375 294.078125 C 404.898438 294.019531 405.179688 293.96875 405.46875 293.921875 L 411.691406 293.421875 C 412.949219 293.421875 414.191406 293.480469 415.410156 293.601562 C 415.710938 293.628906 416.019531 293.660156 416.320312 293.699219 C 416.921875 293.769531 417.53125 293.859375 418.121094 293.960938 C 418.421875 294.011719 418.71875 294.058594 419.011719 294.121094 L 419.910156 294.300781 C 420.421875 294.410156 420.929688 294.53125 421.429688 294.660156 C 421.820312 294.761719 422.199219 294.871094 422.578125 294.980469 C 423.121094 295.140625 423.648438 295.308594 424.171875 295.488281 C 424.210938 295.5 424.25 295.511719 424.28125 295.53125 C 424.839844 295.71875 425.398438 295.921875 425.949219 296.140625 C 426.53125 296.378906 427.109375 296.628906 427.679688 296.890625 C 430.238281 298.058594 432.640625 299.511719 434.851562 301.191406 C 435.351562 301.558594 435.828125 301.941406 436.300781 302.339844 C 436.769531 302.738281 437.230469 303.140625 437.691406 303.558594 C 438.140625 303.980469 438.578125 304.410156 439.011719 304.839844 C 439.441406 305.28125 439.859375 305.730469 440.269531 306.179688 C 440.558594 306.511719 440.851562 306.839844 441.128906 307.179688 C 441.339844 307.429688 441.550781 307.679688 441.75 307.941406 C 442.039062 308.300781 442.320312 308.671875 442.589844 309.039062 C 442.699219 309.179688 442.800781 309.320312 442.898438 309.460938 C 442.921875 309.480469 442.941406 309.511719 442.949219 309.539062 C 442.980469 309.578125 443.011719 309.621094 443.039062 309.660156 C 443.070312 309.699219 443.101562 309.738281 443.128906 309.78125 C 443.300781 310.03125 443.480469 310.289062 443.648438 310.550781 C 444.5 311.820312 445.28125 313.148438 445.980469 314.53125 C 446.121094 314.800781 446.25 315.078125 446.390625 315.351562 C 446.390625 315.351562 446.390625 315.351562 446.390625 315.359375 C 446.648438 315.921875 446.898438 316.480469 447.140625 317.050781 C 447.300781 317.441406 447.460938 317.828125 447.609375 318.230469 C 447.640625 318.320312 447.679688 318.410156 447.710938 318.5 C 447.851562 318.878906 447.988281 319.269531 448.121094 319.660156 C 448.261719 320.089844 448.398438 320.53125 448.53125 320.96875 C 448.679688 321.441406 448.808594 321.921875 448.929688 322.398438 C 449.039062 322.839844 449.148438 323.289062 449.238281 323.738281 C 449.289062 323.941406 449.328125 324.148438 449.371094 324.359375 C 449.53125 325.179688 449.671875 326.011719 449.78125 326.851562 C 449.808594 327.039062 449.828125 327.238281 449.851562 327.441406 C 449.890625 327.808594 449.929688 328.179688 449.960938 328.558594 C 449.980469 328.761719 450 328.96875 450.011719 329.191406 C 450.03125 329.398438 450.039062 329.609375 450.050781 329.820312 C 450.070312 330.140625 450.078125 330.460938 450.089844 330.769531 C 450.089844 331.03125 450.089844 331.289062 450.101562 331.558594 Z M 450.101562 331.558594 " style=" stroke:none;fill-rule:nonzero;fill:rgb(0%,40%,90.980392%);fill-opacity:1;" />
<path d="M 450.101562 331.558594 C 450.101562 333.269531 450 335.011719 449.761719 336.761719 C 449.71875 337.109375 449.671875 337.449219 449.609375 337.800781 C 449.511719 338.488281 449.378906 339.179688 449.230469 339.871094 L 426.210938 447.210938 L 426.199219 447.21875 C 413.101562 458.878906 398.808594 469.21875 383.511719 478.019531 C 373.480469 483.800781 363.019531 488.921875 352.191406 493.308594 L 373.601562 326.921875 C 373.671875 326.390625 373.75 325.859375 373.839844 325.339844 C 373.898438 324.980469 373.96875 324.621094 374.039062 324.261719 C 374.160156 323.671875 374.289062 323.101562 374.429688 322.519531 C 374.539062 322.070312 374.660156 321.628906 374.789062 321.191406 C 374.910156 320.78125 375.03125 320.378906 375.160156 319.980469 C 375.339844 319.421875 375.53125 318.871094 375.730469 318.328125 C 376.140625 317.238281 376.589844 316.179688 377.101562 315.140625 C 377.210938 314.910156 377.320312 314.679688 377.429688 314.460938 C 378.089844 313.148438 378.828125 311.878906 379.640625 310.660156 C 380.269531 309.710938 380.941406 308.78125 381.648438 307.898438 C 382 307.460938 382.359375 307.019531 382.738281 306.589844 C 383.121094 306.160156 383.488281 305.75 383.878906 305.339844 C 384.269531 304.929688 384.660156 304.53125 385.078125 304.140625 C 385.28125 303.941406 385.488281 303.738281 385.699219 303.558594 C 385.910156 303.359375 386.121094 303.171875 386.328125 302.980469 C 386.699219 302.648438 387.078125 302.328125 387.46875 302.03125 L 387.75 301.800781 C 388.390625 301.28125 389.050781 300.78125 389.730469 300.320312 C 390 300.121094 390.269531 299.941406 390.539062 299.769531 C 390.800781 299.601562 391.050781 299.441406 391.308594 299.28125 C 391.410156 299.210938 391.511719 299.148438 391.621094 299.089844 C 391.628906 299.078125 391.648438 299.070312 391.660156 299.058594 C 391.71875 299.03125 391.769531 298.988281 391.828125 298.960938 C 392.148438 298.761719 392.480469 298.570312 392.808594 298.390625 C 393.03125 298.261719 393.261719 298.128906 393.488281 298.011719 C 393.511719 298 393.519531 297.988281 393.53125 297.988281 C 393.660156 297.921875 393.78125 297.851562 393.910156 297.78125 C 394.199219 297.621094 394.488281 297.46875 394.789062 297.328125 L 394.800781 297.328125 C 395.308594 297.070312 395.820312 296.839844 396.339844 296.609375 C 396.351562 296.609375 396.351562 296.609375 396.351562 296.609375 C 396.871094 296.390625 397.398438 296.171875 397.929688 295.960938 L 399.558594 295.378906 C 400.109375 295.199219 400.660156 295.03125 401.210938 294.871094 C 401.488281 294.789062 401.769531 294.710938 402.050781 294.640625 C 402.609375 294.5 403.179688 294.359375 403.75 294.238281 C 404.03125 294.179688 404.320312 294.128906 404.609375 294.078125 C 404.898438 294.019531 405.179688 293.96875 405.46875 293.921875 C 407.5 293.589844 409.578125 293.421875 411.691406 293.421875 C 412.949219 293.421875 414.191406 293.480469 415.410156 293.601562 C 415.710938 293.628906 416.019531 293.660156 416.320312 293.699219 C 416.921875 293.769531 417.53125 293.859375 418.121094 293.960938 C 418.421875 294.011719 418.71875 294.058594 419.011719 294.121094 L 419.910156 294.300781 C 420.421875 294.410156 420.929688 294.53125 421.429688 294.660156 C 421.820312 294.761719 422.199219 294.871094 422.578125 294.980469 C 423.121094 295.140625 423.648438 295.308594 424.171875 295.488281 C 424.210938 295.5 424.25 295.511719 424.28125 295.53125 C 424.839844 295.71875 425.398438 295.921875 425.949219 296.140625 C 426.53125 296.378906 427.109375 296.628906 427.679688 296.890625 C 430.238281 298.058594 432.640625 299.511719 434.851562 301.191406 C 435.351562 301.558594 435.828125 301.941406 436.300781 302.339844 C 436.769531 302.738281 437.230469 303.140625 437.691406 303.558594 C 438.140625 303.980469 438.578125 304.410156 439.011719 304.839844 C 439.441406 305.28125 439.859375 305.730469 440.269531 306.179688 C 440.558594 306.511719 440.851562 306.839844 441.128906 307.179688 C 441.339844 307.429688 441.550781 307.679688 441.75 307.941406 C 442.039062 308.300781 442.320312 308.671875 442.589844 309.039062 C 442.699219 309.179688 442.800781 309.320312 442.898438 309.460938 C 442.921875 309.480469 442.941406 309.511719 442.949219 309.539062 C 442.980469 309.578125 443.011719 309.621094 443.039062 309.660156 C 443.039062 309.671875 443.050781 309.679688 443.050781 309.691406 C 443.078125 309.71875 443.101562 309.75 443.128906 309.78125 C 443.300781 310.03125 443.480469 310.289062 443.648438 310.550781 C 444.5 311.820312 445.28125 313.148438 445.980469 314.53125 C 446.109375 314.800781 446.25 315.070312 446.378906 315.351562 L 446.390625 315.351562 C 446.390625 315.351562 446.390625 315.351562 446.390625 315.359375 C 446.648438 315.921875 446.898438 316.480469 447.140625 317.050781 C 447.300781 317.441406 447.460938 317.828125 447.609375 318.230469 C 447.640625 318.320312 447.679688 318.410156 447.710938 318.5 C 447.851562 318.878906 447.988281 319.269531 448.121094 319.660156 C 448.261719 320.089844 448.398438 320.53125 448.53125 320.96875 C 448.679688 321.441406 448.808594 321.921875 448.929688 322.398438 C 449.039062 322.839844 449.148438 323.289062 449.238281 323.738281 C 449.289062 323.941406 449.328125 324.148438 449.371094 324.359375 C 449.53125 325.179688 449.671875 326.011719 449.78125 326.851562 C 449.808594 327.039062 449.828125 327.238281 449.851562 327.441406 C 449.890625 327.808594 449.929688 328.179688 449.960938 328.558594 C 449.980469 328.761719 450 328.96875 450.011719 329.191406 C 450.03125 329.398438 450.039062 329.609375 450.050781 329.820312 C 450.070312 330.101562 450.078125 330.378906 450.078125 330.660156 C 450.089844 330.699219 450.089844 330.738281 450.089844 330.769531 C 450.089844 331.03125 450.089844 331.289062 450.101562 331.558594 Z M 450.101562 331.558594 " style=" stroke:none;fill-rule:nonzero;fill:rgb(78.039216%,85.098039%,100%);fill-opacity:1;" />
<path d="M 159.808594 493.308594 C 148.980469 488.910156 138.519531 483.800781 128.488281 478.03125 C 113.191406 469.230469 98.890625 458.890625 85.800781 447.21875 L 62.769531 339.871094 C 62.179688 337.128906 61.898438 334.421875 61.898438 331.75 C 61.898438 324.648438 63.878906 317.898438 67.359375 312.101562 C 67.609375 311.679688 67.878906 311.261719 68.148438 310.851562 C 68.378906 310.488281 68.621094 310.140625 68.871094 309.78125 C 69.21875 309.28125 69.578125 308.789062 69.960938 308.300781 C 75.519531 301.128906 83.589844 295.921875 92.988281 294.121094 C 95.351562 293.660156 97.800781 293.421875 100.308594 293.421875 C 119.628906 293.421875 135.929688 307.761719 138.398438 326.921875 Z M 159.808594 493.308594 " style=" stroke:none;fill-rule:nonzero;fill:rgb(100%,100%,100%);fill-opacity:1;" />
<path d="M 294.921875 333.46875 L 287.339844 510.089844 C 277.070312 511.351562 266.609375 512 256 512 C 245.390625 512 234.929688 511.351562 224.660156 510.101562 L 217.078125 333.46875 C 216.140625 311.628906 233.589844 293.421875 255.441406 293.421875 L 256.558594 293.421875 C 278.410156 293.421875 295.859375 311.628906 294.921875 333.46875 Z M 294.921875 333.46875 " style=" stroke:none;fill-rule:nonzero;fill:rgb(100%,100%,100%);fill-opacity:1;" />
<path d="M 294.921875 333.46875 L 287.339844 510.089844 C 277.070312 511.351562 266.609375 512 256 512 L 256 293.421875 L 256.558594 293.421875 C 278.410156 293.421875 295.859375 311.628906 294.921875 333.46875 Z M 294.921875 333.46875 " style=" stroke:none;fill-rule:nonzero;fill:rgb(78.039216%,85.098039%,100%);fill-opacity:1;" />
<path d="M 297.113281 150.394531 C 297.113281 173.007812 278.855469 191.359375 256.273438 191.507812 C 256.183594 191.507812 256.089844 191.507812 256 191.507812 C 233.292969 191.507812 214.886719 173.101562 214.886719 150.394531 C 214.886719 140.132812 218.644531 130.746094 224.863281 123.542969 C 225.289062 123.003906 225.746094 122.488281 226.234375 122 C 226.382812 121.851562 226.53125 121.707031 226.6875 121.5625 C 226.6875 121.5625 226.691406 121.558594 226.695312 121.554688 C 229.808594 118.660156 233.980469 116.890625 238.566406 116.890625 C 240.492188 116.890625 242.347656 117.203125 244.082031 117.78125 C 250.902344 120.054688 255.847656 126.421875 256 133.96875 C 256.003906 134.089844 256.003906 134.207031 256.003906 134.328125 C 256.003906 124.699219 263.808594 116.890625 273.441406 116.890625 C 277.988281 116.890625 282.132812 118.632812 285.238281 121.488281 C 285.953125 122.144531 286.613281 122.863281 287.214844 123.632812 C 293.386719 130.824219 297.113281 140.175781 297.113281 150.394531 Z M 297.113281 150.394531 " style=" stroke:none;fill-rule:nonzero;fill:rgb(100%,39.215686%,46.666667%);fill-opacity:1;" />
<path d="M 297.113281 150.394531 C 297.113281 173.007812 278.855469 191.359375 256.273438 191.507812 C 241.710938 183.292969 231.875 167.679688 231.875 149.765625 C 231.875 137.8125 236.253906 126.882812 243.496094 118.492188 C 243.6875 118.253906 243.882812 118.015625 244.082031 117.785156 C 250.902344 120.054688 255.847656 126.425781 256 133.96875 C 256.003906 134.089844 256.003906 134.210938 256.003906 134.328125 C 256.003906 124.699219 263.808594 116.894531 273.441406 116.894531 C 277.988281 116.894531 282.132812 118.636719 285.238281 121.488281 C 285.953125 122.148438 286.613281 122.863281 287.214844 123.632812 C 293.386719 130.824219 297.113281 140.175781 297.113281 150.394531 Z M 297.113281 150.394531 " style=" stroke:none;fill-rule:nonzero;fill:rgb(89.803922%,16.078431%,16.078431%);fill-opacity:1;" />
<path d="M 297.113281 150.394531 C 297.113281 173.101562 278.707031 191.507812 256 191.507812 L 256 133.96875 C 256.003906 134.089844 256.003906 134.210938 256.003906 134.328125 C 256.003906 124.699219 263.808594 116.894531 273.441406 116.894531 C 277.988281 116.894531 282.132812 118.636719 285.238281 121.488281 C 285.953125 122.148438 286.613281 122.863281 287.214844 123.632812 C 293.386719 130.824219 297.113281 140.175781 297.113281 150.394531 Z M 297.113281 150.394531 " style=" stroke:none;fill-rule:nonzero;fill:rgb(72.941176%,5.098039%,36.078431%);fill-opacity:1;" />
</g>
</svg>