<svg xmlns="http://www.w3.org/2000/svg" height="512pt" version="1.1" viewBox="0 0 512 512" width="512pt">
<g id="surface1">
<path d="M 512 256 C 512 397.386719 397.386719 512 256 512 C 114.613281 512 0 397.386719 0 256 C 0 114.613281 114.613281 0 256 0 C 397.386719 0 512 114.613281 512 256 Z M 512 256 " style=" stroke:none;fill-rule:nonzero;fill:rgb(61.960784%,41.176471%,88.627451%);fill-opacity:1;" />
<path d="M 512 256 C 512 282.050781 508.109375 307.191406 500.871094 330.871094 C 468.859375 435.71875 371.328125 512 256 512 C 151.441406 512 61.511719 449.300781 21.769531 359.449219 C 7.769531 327.820312 0 292.820312 0 256 C 0 209.78125 12.25 166.429688 33.679688 129 C 77.800781 206.070312 160.839844 258 256 258 C 351.160156 258 434.210938 206.070312 478.320312 129 C 499.75 166.429688 512 209.78125 512 256 Z M 512 256 " style=" stroke:none;fill-rule:nonzero;fill:rgb(55.686275%,30.980392%,82.352941%);fill-opacity:1;" />
<path d="M 30.742188 377.703125 C 37.898438 390.921875 46.171875 403.441406 55.460938 415.128906 C 102.359375 474.148438 174.761719 512 256 512 C 337.238281 512 409.640625 474.148438 456.539062 415.128906 C 465.828125 403.441406 474.101562 390.921875 481.257812 377.703125 Z M 30.742188 377.703125 " style=" stroke:none;fill-rule:nonzero;fill:rgb(43.921569%,21.960784%,72.941176%);fill-opacity:1;" />
<path d="M 446 404.171875 C 446 414.101562 441.980469 423.078125 435.46875 429.578125 C 428.96875 436.089844 419.980469 440.109375 410.058594 440.109375 C 416.789062 440.109375 423.101562 441.960938 428.480469 445.179688 C 382.980469 486.679688 322.441406 512 256 512 L 242.050781 512 L 242.050781 511.621094 C 203.671875 509.558594 167.53125 499.050781 135.46875 481.898438 C 116.621094 471.828125 99.179688 459.460938 83.519531 445.179688 C 88.910156 441.960938 95.210938 440.109375 101.941406 440.109375 C 82.089844 440.109375 66 424.019531 66 404.171875 C 66 394.238281 70.019531 385.261719 76.53125 378.761719 C 83.03125 372.25 92.019531 368.230469 101.941406 368.230469 C 82.089844 368.230469 66 352.140625 66 332.289062 C 66 322.359375 70.019531 313.378906 76.53125 306.871094 C 83.03125 300.359375 92.019531 296.339844 101.941406 296.339844 C 82.089844 296.328125 66 280.25 66 260.398438 C 66 250.46875 70.019531 241.488281 76.53125 234.988281 C 83.039062 228.488281 92.019531 224.460938 101.949219 224.460938 L 410.050781 224.460938 C 429.898438 224.460938 445.988281 240.550781 445.988281 260.398438 C 445.988281 270.328125 441.96875 279.308594 435.46875 285.808594 C 428.960938 292.320312 419.988281 296.339844 410.058594 296.339844 C 429.910156 296.339844 446 312.441406 446 332.289062 C 446 342.21875 441.980469 351.199219 435.46875 357.699219 C 428.96875 364.210938 419.980469 368.230469 410.058594 368.230469 C 429.910156 368.230469 446 384.320312 446 404.171875 Z M 446 404.171875 " style=" stroke:none;fill-rule:nonzero;fill:rgb(100%,75.294118%,64.313725%);fill-opacity:1;" />
<path d="M 446 404.171875 C 446 414.101562 441.980469 423.078125 435.46875 429.578125 C 428.96875 436.089844 419.980469 440.109375 410.058594 440.109375 C 416.789062 440.109375 423.101562 441.960938 428.480469 445.179688 C 382.980469 486.679688 322.441406 512 256 512 L 242.050781 512 L 242.050781 511.621094 C 203.671875 509.558594 167.53125 499.050781 135.46875 481.898438 C 135.160156 480 135 478.050781 135 476.058594 C 135 466.128906 139.019531 457.140625 145.53125 450.640625 C 152.03125 444.128906 161.019531 440.109375 170.941406 440.109375 C 151.089844 440.109375 135 424.019531 135 404.171875 C 135 394.238281 139.019531 385.261719 145.53125 378.761719 C 152.03125 372.25 161.019531 368.230469 170.941406 368.230469 C 151.089844 368.230469 135 352.140625 135 332.289062 C 135 322.359375 139.019531 313.378906 145.53125 306.871094 C 151.671875 300.71875 160.03125 296.789062 169.300781 296.378906 C 169.839844 296.351562 170.390625 296.339844 170.941406 296.339844 C 170.390625 296.339844 169.839844 296.328125 169.300781 296.300781 C 169.230469 296.300781 169.160156 296.300781 169.089844 296.289062 C 168.550781 296.261719 168.011719 296.21875 167.46875 296.171875 C 167.398438 296.171875 167.328125 296.160156 167.269531 296.148438 C 167 296.128906 166.730469 296.101562 166.460938 296.058594 C 166.28125 296.039062 166.089844 296.011719 165.910156 295.988281 C 165.589844 295.949219 165.28125 295.898438 164.96875 295.839844 C 164.609375 295.789062 164.261719 295.71875 163.910156 295.648438 C 163.46875 295.558594 163.03125 295.46875 162.609375 295.371094 C 162.351562 295.300781 162.089844 295.238281 161.828125 295.171875 C 161.480469 295.078125 161.140625 294.988281 160.800781 294.878906 C 160.328125 294.75 159.859375 294.601562 159.410156 294.441406 C 159.179688 294.371094 158.960938 294.289062 158.730469 294.210938 C 158.5 294.121094 158.28125 294.039062 158.050781 293.949219 C 157.679688 293.808594 157.308594 293.671875 156.949219 293.511719 C 156.679688 293.390625 156.410156 293.28125 156.148438 293.160156 C 156.078125 293.128906 156.019531 293.101562 155.949219 293.070312 C 155.859375 293.019531 155.761719 292.980469 155.671875 292.941406 C 155.519531 292.871094 155.371094 292.789062 155.21875 292.71875 C 155.070312 292.648438 154.921875 292.578125 154.769531 292.5 C 154.191406 292.199219 153.609375 291.898438 153.050781 291.570312 C 152.800781 291.429688 152.550781 291.28125 152.308594 291.128906 C 151.859375 290.859375 151.421875 290.578125 150.988281 290.289062 C 150.898438 290.238281 150.820312 290.179688 150.738281 290.121094 C 150.640625 290.058594 150.550781 290 150.460938 289.929688 C 150.320312 289.828125 150.179688 289.738281 150.039062 289.628906 C 149.871094 289.519531 149.699219 289.390625 149.53125 289.261719 C 149.460938 289.21875 149.390625 289.171875 149.328125 289.109375 C 149.011719 288.878906 148.699219 288.640625 148.398438 288.378906 C 148.390625 288.378906 148.378906 288.378906 148.378906 288.378906 C 148.289062 288.300781 148.191406 288.21875 148.101562 288.140625 C 147.839844 287.929688 147.589844 287.71875 147.339844 287.5 C 147.179688 287.359375 147.03125 287.21875 146.871094 287.078125 C 146.191406 286.46875 145.550781 285.839844 144.929688 285.191406 C 144.648438 284.898438 144.378906 284.609375 144.121094 284.308594 C 143.808594 283.96875 143.511719 283.621094 143.210938 283.261719 C 143.210938 283.25 143.199219 283.238281 143.191406 283.230469 C 142.890625 282.871094 142.601562 282.5 142.308594 282.121094 C 142.078125 281.820312 141.859375 281.511719 141.628906 281.199219 C 141.570312 281.109375 141.5 281.011719 141.429688 280.910156 C 141.171875 280.539062 140.921875 280.171875 140.679688 279.789062 C 140.671875 279.78125 140.671875 279.78125 140.660156 279.769531 C 140.449219 279.441406 140.25 279.109375 140.050781 278.769531 C 139.949219 278.609375 139.859375 278.449219 139.761719 278.289062 C 139.628906 278.058594 139.5 277.828125 139.378906 277.601562 C 139.300781 277.46875 139.230469 277.328125 139.160156 277.191406 C 138.960938 276.820312 138.769531 276.441406 138.578125 276.050781 C 138.371094 275.621094 138.171875 275.191406 137.980469 274.75 C 137.808594 274.359375 137.648438 273.96875 137.488281 273.578125 C 137.46875 273.519531 137.449219 273.46875 137.429688 273.421875 C 137.300781 273.089844 137.179688 272.761719 137.070312 272.429688 C 137 272.261719 136.941406 272.089844 136.890625 271.921875 C 136.800781 271.660156 136.710938 271.398438 136.628906 271.128906 C 136.628906 271.121094 136.621094 271.109375 136.621094 271.089844 C 136.609375 271.070312 136.601562 271.050781 136.601562 271.03125 C 136.550781 270.859375 136.5 270.691406 136.449219 270.519531 C 136.421875 270.449219 136.410156 270.378906 136.390625 270.320312 C 136.300781 270.011719 136.210938 269.691406 136.128906 269.378906 C 136.089844 269.238281 136.058594 269.101562 136.03125 268.949219 C 135.988281 268.808594 135.949219 268.660156 135.921875 268.511719 C 135.851562 268.230469 135.789062 267.929688 135.730469 267.640625 C 135.691406 267.429688 135.648438 267.21875 135.609375 267.011719 C 135.570312 266.800781 135.53125 266.601562 135.5 266.390625 C 135.421875 265.960938 135.359375 265.519531 135.300781 265.089844 C 135.28125 264.910156 135.261719 264.730469 135.238281 264.550781 C 135.21875 264.390625 135.199219 264.230469 135.191406 264.070312 C 135.160156 263.859375 135.140625 263.640625 135.128906 263.429688 C 135.109375 263.261719 135.101562 263.089844 135.089844 262.921875 C 135.070312 262.699219 135.058594 262.480469 135.050781 262.25 C 135.050781 262.230469 135.039062 262.199219 135.050781 262.171875 C 135.03125 262.011719 135.03125 261.839844 135.03125 261.679688 C 135.011719 261.261719 135 260.828125 135 260.398438 C 135 250.46875 139.019531 241.488281 145.53125 234.988281 C 152.039062 228.488281 161.019531 224.460938 170.949219 224.460938 L 410.050781 224.460938 C 429.898438 224.460938 445.988281 240.550781 445.988281 260.398438 C 445.988281 270.328125 441.96875 279.308594 435.46875 285.808594 C 428.960938 292.320312 419.988281 296.339844 410.058594 296.339844 C 429.910156 296.339844 446 312.441406 446 332.289062 C 446 342.21875 441.980469 351.199219 435.46875 357.699219 C 428.96875 364.210938 419.980469 368.230469 410.058594 368.230469 C 429.910156 368.230469 446 384.320312 446 404.171875 Z M 446 404.171875 " style=" stroke:none;fill-rule:nonzero;fill:rgb(100%,65.882353%,47.843137%);fill-opacity:1;" />
<path d="M 446 404.171875 C 446 414.101562 441.980469 423.078125 435.46875 429.578125 C 428.96875 436.089844 419.980469 440.109375 410.058594 440.109375 C 416.789062 440.109375 423.101562 441.960938 428.480469 445.179688 C 382.980469 486.679688 322.441406 512 256 512 L 242.050781 512 L 242.050781 224.460938 L 410.050781 224.460938 C 429.898438 224.460938 445.988281 240.550781 445.988281 260.398438 C 445.988281 270.328125 441.96875 279.308594 435.46875 285.808594 C 428.960938 292.320312 419.988281 296.339844 410.058594 296.339844 C 429.910156 296.339844 446 312.441406 446 332.289062 C 446 342.21875 441.980469 351.199219 435.46875 357.699219 C 428.96875 364.210938 419.980469 368.230469 410.058594 368.230469 C 429.910156 368.230469 446 384.320312 446 404.171875 Z M 446 404.171875 " style=" stroke:none;fill-rule:nonzero;fill:rgb(91.764706%,50.980392%,30.588235%);fill-opacity:1;" />
<path d="M 445.988281 260.398438 C 445.988281 270.328125 441.96875 279.308594 435.46875 285.808594 C 428.960938 292.320312 419.988281 296.339844 410.058594 296.339844 L 101.941406 296.339844 C 82.089844 296.328125 66 280.25 66 260.398438 C 66 250.46875 70.019531 241.488281 76.53125 234.988281 C 83.039062 228.488281 92.019531 224.460938 101.949219 224.460938 L 410.050781 224.460938 C 429.898438 224.460938 445.988281 240.550781 445.988281 260.398438 Z M 445.988281 260.398438 " style=" stroke:none;fill-rule:nonzero;fill:rgb(100%,65.882353%,47.843137%);fill-opacity:1;" />
<path d="M 445.988281 260.398438 C 445.988281 270.328125 441.96875 279.308594 435.46875 285.808594 C 428.960938 292.320312 419.988281 296.339844 410.058594 296.339844 L 170.941406 296.339844 C 151.089844 296.328125 135 280.25 135 260.398438 C 135 250.46875 139.019531 241.488281 145.53125 234.988281 C 152.039062 228.488281 161.019531 224.460938 170.949219 224.460938 L 410.050781 224.460938 C 429.898438 224.460938 445.988281 240.550781 445.988281 260.398438 Z M 445.988281 260.398438 " style=" stroke:none;fill-rule:nonzero;fill:rgb(91.764706%,50.980392%,30.588235%);fill-opacity:1;" />
<path d="M 446 404.171875 C 446 414.101562 441.980469 423.078125 435.46875 429.578125 C 428.96875 436.089844 419.980469 440.109375 410.058594 440.109375 L 101.941406 440.109375 C 82.089844 440.109375 66 424.019531 66 404.171875 C 66 394.238281 70.019531 385.261719 76.53125 378.761719 C 83.03125 372.25 92.019531 368.230469 101.941406 368.230469 L 410.058594 368.230469 C 429.910156 368.230469 446 384.320312 446 404.171875 Z M 446 404.171875 " style=" stroke:none;fill-rule:nonzero;fill:rgb(100%,65.882353%,47.843137%);fill-opacity:1;" />
<path d="M 446 404.171875 C 446 414.101562 441.980469 423.078125 435.46875 429.578125 C 428.96875 436.089844 419.980469 440.109375 410.058594 440.109375 L 170.941406 440.109375 C 151.089844 440.109375 135 424.019531 135 404.171875 C 135 394.238281 139.019531 385.261719 145.53125 378.761719 C 152.03125 372.25 161.019531 368.230469 170.941406 368.230469 L 410.058594 368.230469 C 429.910156 368.230469 446 384.320312 446 404.171875 Z M 446 404.171875 " style=" stroke:none;fill-rule:nonzero;fill:rgb(91.764706%,50.980392%,30.588235%);fill-opacity:1;" />
<path d="M 410.058594 296.339844 L 242.050781 296.339844 L 242.050781 224.460938 L 410.050781 224.460938 C 429.898438 224.460938 445.988281 240.550781 445.988281 260.398438 C 445.988281 270.328125 441.96875 279.308594 435.46875 285.808594 C 428.960938 292.320312 419.988281 296.339844 410.058594 296.339844 Z M 410.058594 296.339844 " style=" stroke:none;fill-rule:nonzero;fill:rgb(77.254902%,34.509804%,20.784314%);fill-opacity:1;" />
<path d="M 446 404.171875 C 446 414.101562 441.980469 423.078125 435.46875 429.578125 C 428.96875 436.089844 419.980469 440.109375 410.058594 440.109375 L 242.050781 440.109375 L 242.050781 368.230469 L 410.058594 368.230469 C 429.910156 368.230469 446 384.320312 446 404.171875 Z M 446 404.171875 " style=" stroke:none;fill-rule:nonzero;fill:rgb(77.254902%,34.509804%,20.784314%);fill-opacity:1;" />
<path d="M 445.988281 260.398438 L 401.070312 260.398438 L 401.070312 317.121094 C 401.070312 331.839844 389.128906 343.78125 374.410156 343.78125 C 359.691406 343.78125 347.75 331.839844 347.75 317.121094 L 347.75 365.140625 C 347.75 379.871094 335.808594 391.800781 321.089844 391.800781 C 306.371094 391.800781 294.429688 379.871094 294.429688 365.140625 L 294.429688 260.398438 L 222.621094 260.398438 L 222.621094 332.289062 C 222.621094 347.011719 210.679688 358.949219 195.960938 358.949219 C 181.230469 358.949219 169.300781 347.011719 169.300781 332.289062 L 169.300781 275.378906 C 169.300781 283.089844 166.03125 290.03125 160.800781 294.878906 C 156.039062 299.328125 149.660156 302.039062 142.640625 302.039062 C 127.910156 302.039062 115.96875 290.109375 115.96875 275.378906 L 115.96875 260.398438 L 66 260.398438 C 66 250.46875 70.019531 241.488281 76.53125 234.988281 C 83.039062 228.488281 92.019531 224.460938 101.949219 224.460938 L 410.050781 224.460938 C 429.898438 224.460938 445.988281 240.550781 445.988281 260.398438 Z M 445.988281 260.398438 " style=" stroke:none;fill-rule:nonzero;fill:rgb(100%,91.372549%,33.333333%);fill-opacity:1;" />
<path d="M 445.988281 260.398438 L 401.070312 260.398438 L 401.070312 317.121094 C 401.070312 331.839844 389.128906 343.78125 374.410156 343.78125 C 359.691406 343.78125 347.75 331.839844 347.75 317.121094 L 347.75 365.140625 C 347.75 379.871094 335.808594 391.800781 321.089844 391.800781 C 306.371094 391.800781 294.429688 379.871094 294.429688 365.140625 L 294.429688 260.398438 L 222.621094 260.398438 L 222.621094 332.289062 C 222.621094 347.011719 210.679688 358.949219 195.960938 358.949219 C 181.230469 358.949219 169.300781 347.011719 169.300781 332.289062 L 169.300781 275.378906 C 169.300781 283.089844 166.03125 290.03125 160.800781 294.878906 C 145.890625 290.511719 135 276.730469 135 260.398438 C 135 250.46875 139.019531 241.488281 145.53125 234.988281 C 152.039062 228.488281 161.019531 224.460938 170.949219 224.460938 L 410.050781 224.460938 C 429.898438 224.460938 445.988281 240.550781 445.988281 260.398438 Z M 445.988281 260.398438 " style=" stroke:none;fill-rule:nonzero;fill:rgb(100%,81.960784%,7.058824%);fill-opacity:1;" />
<path d="M 445.988281 260.398438 L 401.070312 260.398438 L 401.070312 317.121094 C 401.070312 331.839844 389.128906 343.78125 374.410156 343.78125 C 359.691406 343.78125 347.75 331.839844 347.75 317.121094 L 347.75 365.140625 C 347.75 379.871094 335.808594 391.800781 321.089844 391.800781 C 306.371094 391.800781 294.429688 379.871094 294.429688 365.140625 L 294.429688 260.398438 L 242.050781 260.398438 L 242.050781 224.460938 L 410.050781 224.460938 C 429.898438 224.460938 445.988281 240.550781 445.988281 260.398438 Z M 445.988281 260.398438 " style=" stroke:none;fill-rule:nonzero;fill:rgb(100%,62.352941%,0%);fill-opacity:1;" />
<path d="M 258.8125 225.265625 L 226.308594 225.261719 C 223.769531 225.261719 221.472656 224.25 219.800781 222.601562 C 218.058594 220.898438 216.988281 218.507812 217.015625 215.878906 L 217.070312 210.378906 C 217.070312 210.371094 217.070312 210.371094 217.070312 210.371094 L 217.34375 183.796875 C 217.34375 160.699219 236.230469 142.011719 259.402344 142.335938 C 269.503906 142.472656 278.753906 146.273438 285.894531 152.460938 C 286.617188 153.085938 287.316406 153.738281 287.992188 154.410156 C 295.441406 161.808594 300.121094 171.988281 300.277344 183.207031 C 300.597656 206.378906 281.910156 225.265625 258.8125 225.265625 Z M 258.8125 225.265625 " style=" stroke:none;fill-rule:nonzero;fill:rgb(100%,20.392157%,27.058824%);fill-opacity:1;" />
<path d="M 258.8125 225.265625 L 226.308594 225.261719 C 223.769531 225.261719 221.472656 224.25 219.800781 222.601562 C 218.058594 220.898438 216.988281 218.507812 217.015625 215.878906 L 217.070312 210.378906 C 217.070312 210.371094 217.070312 210.371094 217.070312 210.371094 C 219.988281 177.496094 247.828125 151.78125 281.574219 152.253906 C 283.027344 152.273438 284.464844 152.34375 285.894531 152.460938 C 286.617188 153.085938 287.316406 153.738281 287.992188 154.40625 C 295.441406 161.804688 300.121094 171.988281 300.277344 183.207031 C 300.597656 206.378906 281.910156 225.265625 258.8125 225.265625 Z M 258.8125 225.265625 " style=" stroke:none;fill-rule:nonzero;fill:rgb(89.803922%,16.078431%,16.078431%);fill-opacity:1;" />
<path d="M 258.8125 225.265625 L 226.308594 225.261719 C 223.769531 225.261719 221.472656 224.25 219.800781 222.601562 L 287.992188 154.40625 C 295.441406 161.804688 300.121094 171.988281 300.277344 183.203125 C 300.597656 206.378906 281.910156 225.265625 258.8125 225.265625 Z M 258.8125 225.265625 " style=" stroke:none;fill-rule:nonzero;fill:rgb(72.941176%,5.098039%,36.078431%);fill-opacity:1;" />
<path d="M 290.824219 180.996094 C 286.949219 177.808594 284.191406 173.226562 283.382812 167.871094 C 282.894531 164.636719 283.175781 161.460938 284.074219 158.53125 C 283.980469 158.558594 283.886719 158.585938 283.785156 158.613281 C 280.941406 159.449219 277.867188 159.695312 274.738281 159.226562 C 269.382812 158.414062 264.800781 155.65625 261.609375 151.78125 C 265.800781 149.015625 270.992188 147.734375 276.351562 148.539062 C 277.371094 148.691406 278.363281 148.921875 279.328125 149.214844 C 279.035156 148.253906 278.808594 147.257812 278.65625 146.238281 C 277.847656 140.882812 279.128906 135.6875 281.898438 131.496094 C 285.773438 134.6875 288.53125 139.265625 289.335938 144.625 C 289.808594 147.738281 289.566406 150.796875 288.738281 153.636719 C 288.734375 153.640625 288.734375 153.640625 288.734375 153.640625 C 288.707031 153.75 288.675781 153.859375 288.644531 153.964844 C 291.578125 153.0625 294.75 152.78125 297.984375 153.269531 C 303.34375 154.078125 307.921875 156.835938 311.113281 160.710938 C 306.917969 163.476562 301.726562 164.761719 296.371094 163.953125 C 295.351562 163.796875 294.355469 163.570312 293.394531 163.277344 C 293.683594 164.242188 293.910156 165.234375 294.070312 166.257812 C 294.875 171.617188 293.589844 176.804688 290.824219 180.996094 Z M 290.824219 180.996094 " style=" stroke:none;fill-rule:nonzero;fill:rgb(58.431373%,83.921569%,0%);fill-opacity:1;" />
<path d="M 290.824219 180.996094 C 286.949219 177.808594 284.191406 173.226562 283.382812 167.871094 C 282.894531 164.636719 283.175781 161.460938 284.074219 158.53125 C 283.980469 158.558594 283.886719 158.585938 283.785156 158.613281 L 288.652344 153.746094 C 288.652344 153.746094 288.683594 153.710938 288.734375 153.640625 C 288.707031 153.746094 288.675781 153.855469 288.644531 153.960938 C 291.578125 153.058594 294.75 152.78125 297.984375 153.269531 C 303.34375 154.074219 307.921875 156.835938 311.113281 160.710938 C 306.917969 163.472656 301.726562 164.761719 296.371094 163.953125 C 295.351562 163.796875 294.355469 163.570312 293.394531 163.277344 C 293.683594 164.238281 293.910156 165.234375 294.070312 166.253906 C 294.875 171.617188 293.589844 176.804688 290.824219 180.996094 Z M 290.824219 180.996094 " style=" stroke:none;fill-rule:nonzero;fill:rgb(0%,62.745098%,25.882353%);fill-opacity:1;" />
</g>
</svg>