<svg xmlns="http://www.w3.org/2000/svg" height="512pt" version="1.1" viewBox="0 0 512 512" width="512pt">
<g id="surface1">
<path d="M 512 256 C 512 397.386719 397.386719 512 256 512 C 114.613281 512 0 397.386719 0 256 C 0 114.613281 114.613281 0 256 0 C 397.386719 0 512 114.613281 512 256 Z M 512 256 " style=" stroke:none;fill-rule:nonzero;fill:rgb(40.784314%,98.823529%,87.45098%);fill-opacity:1;" />
<path d="M 512 256 C 512 282.050781 508.109375 307.191406 500.871094 330.871094 C 468.859375 435.71875 371.328125 512 256 512 C 151.441406 512 61.511719 449.300781 21.769531 359.449219 C 7.769531 327.820312 0 292.820312 0 256 C 0 209.78125 12.25 166.429688 33.679688 129 C 77.800781 206.070312 160.839844 258 256 258 C 351.160156 258 434.210938 206.070312 478.320312 129 C 499.75 166.429688 512 209.78125 512 256 Z M 512 256 " style=" stroke:none;fill-rule:nonzero;fill:rgb(6.27451%,88.627451%,76.862745%);fill-opacity:1;" />
<path d="M 30.742188 377.703125 C 37.898438 390.921875 46.171875 403.441406 55.460938 415.128906 C 102.359375 474.148438 174.761719 512 256 512 C 337.238281 512 409.640625 474.148438 456.539062 415.128906 C 465.828125 403.441406 474.101562 390.921875 481.257812 377.703125 Z M 30.742188 377.703125 " style=" stroke:none;fill-rule:nonzero;fill:rgb(10.196078%,72.941176%,62.352941%);fill-opacity:1;" />
<path d="M 269.570312 384.5 L 269.570312 511.648438 C 265.078125 511.878906 260.550781 512 256 512 C 251.449219 512 246.921875 511.878906 242.429688 511.648438 L 242.429688 384.5 Z M 269.570312 384.5 " style=" stroke:none;fill-rule:nonzero;fill:rgb(100%,62.352941%,0%);fill-opacity:1;" />
<path d="M 256 384.5 L 256 512 C 251.449219 512 246.921875 511.878906 242.429688 511.648438 L 242.429688 384.5 Z M 256 384.5 " style=" stroke:none;fill-rule:nonzero;fill:rgb(100%,81.960784%,7.058824%);fill-opacity:1;" />
<path d="M 321.398438 467.046875 L 190.597656 467.046875 C 182.53125 467.046875 175.324219 463.949219 169.945312 458.980469 C 162.339844 451.960938 158.394531 441.175781 160.828125 430.042969 L 162.582031 422.035156 L 175.363281 363.785156 L 184.441406 322.402344 L 197.222656 264.164062 L 206.300781 222.773438 L 219.070312 164.53125 L 228.148438 123.144531 L 232.523438 103.234375 C 234.882812 92.507812 242.742188 86.351562 251.410156 84.765625 C 252.921875 84.480469 254.460938 84.34375 256 84.34375 C 266.355469 84.34375 276.710938 90.636719 279.476562 103.234375 L 280.734375 108.960938 L 288.796875 145.714844 L 300.144531 197.457031 L 308.210938 234.210938 L 319.558594 285.945312 L 327.617188 322.707031 L 338.964844 374.433594 L 347.03125 411.195312 L 351.171875 430.042969 C 355.335938 449.046875 340.863281 467.046875 321.398438 467.046875 Z M 321.398438 467.046875 " style=" stroke:none;fill-rule:nonzero;fill:rgb(100%,39.215686%,46.666667%);fill-opacity:1;" />
<path d="M 321.398438 467.046875 L 235.621094 467.046875 C 226.472656 467.046875 218.292969 462.03125 212.183594 453.984375 C 203.554688 442.617188 199.074219 425.152344 201.839844 407.121094 L 203.824219 394.15625 L 218.328125 299.835938 L 228.636719 232.824219 L 243.140625 138.523438 L 250.777344 88.886719 C 251.171875 86.320312 253.351562 84.351562 255.953125 84.34375 C 255.96875 84.34375 255.984375 84.34375 255.996094 84.34375 C 266.351562 84.34375 276.707031 90.636719 279.472656 103.234375 L 280.730469 108.960938 L 288.796875 145.714844 L 300.144531 197.457031 L 308.210938 234.210938 L 319.558594 285.945312 L 327.613281 322.707031 L 338.960938 374.433594 L 347.027344 411.195312 L 351.167969 430.042969 C 355.335938 449.046875 340.863281 467.046875 321.398438 467.046875 Z M 321.398438 467.046875 " style=" stroke:none;fill-rule:nonzero;fill:rgb(89.803922%,16.078431%,16.078431%);fill-opacity:1;" />
<path d="M 321.398438 467.046875 L 256 467.046875 L 256 84.34375 C 266.355469 84.34375 276.707031 90.636719 279.476562 103.234375 L 280.730469 108.960938 L 288.796875 145.714844 L 300.144531 197.457031 L 308.210938 234.210938 L 319.558594 285.945312 L 327.613281 322.707031 L 338.964844 374.433594 L 347.027344 411.195312 L 351.167969 430.042969 C 355.335938 449.046875 340.863281 467.046875 321.398438 467.046875 Z M 321.398438 467.046875 " style=" stroke:none;fill-rule:nonzero;fill:rgb(72.941176%,5.098039%,36.078431%);fill-opacity:1;" />
<path d="M 288.796875 145.714844 L 256 154.566406 L 240.015625 158.882812 L 219.070312 164.53125 L 228.148438 123.144531 L 246.257812 118.261719 L 256 115.632812 L 280.730469 108.960938 Z M 288.796875 145.714844 " style=" stroke:none;fill-rule:nonzero;fill:rgb(100%,100%,100%);fill-opacity:1;" />
<path d="M 308.210938 234.210938 L 256 248.304688 L 224.964844 256.671875 L 224.964844 256.683594 L 197.222656 264.164062 L 206.300781 222.773438 L 231.21875 216.050781 L 256 209.371094 L 300.144531 197.457031 Z M 308.210938 234.210938 " style=" stroke:none;fill-rule:nonzero;fill:rgb(100%,100%,100%);fill-opacity:1;" />
<path d="M 327.613281 322.707031 L 256 342.03125 L 209.933594 354.460938 L 175.363281 363.785156 L 184.441406 322.402344 L 216.179688 313.84375 L 256 303.097656 L 319.558594 285.945312 Z M 327.613281 322.707031 " style=" stroke:none;fill-rule:nonzero;fill:rgb(100%,100%,100%);fill-opacity:1;" />
<path d="M 347.027344 411.191406 L 256 435.761719 L 208.628906 448.539062 L 169.949219 458.980469 C 162.339844 451.960938 158.394531 441.175781 160.832031 430.042969 L 162.585938 422.035156 L 201.296875 411.582031 L 256 396.824219 L 338.964844 374.429688 Z M 347.027344 411.191406 " style=" stroke:none;fill-rule:nonzero;fill:rgb(100%,100%,100%);fill-opacity:1;" />
<path d="M 288.796875 145.714844 L 256 154.566406 L 240.015625 158.882812 L 243.140625 138.523438 L 246.257812 118.261719 L 256 115.632812 L 280.730469 108.960938 Z M 288.796875 145.714844 " style=" stroke:none;fill-rule:nonzero;fill:rgb(92.156863%,94.117647%,95.294118%);fill-opacity:1;" />
<path d="M 288.796875 145.714844 L 256 154.566406 L 256 115.632812 L 280.730469 108.960938 Z M 288.796875 145.714844 " style=" stroke:none;fill-rule:nonzero;fill:rgb(78.039216%,85.098039%,100%);fill-opacity:1;" />
<path d="M 308.210938 234.210938 L 256 248.304688 L 224.964844 256.671875 L 228.636719 232.824219 L 231.21875 216.050781 L 256 209.371094 L 300.144531 197.457031 Z M 308.210938 234.210938 " style=" stroke:none;fill-rule:nonzero;fill:rgb(92.156863%,94.117647%,95.294118%);fill-opacity:1;" />
<path d="M 308.210938 234.210938 L 256 248.304688 L 256 209.371094 L 300.144531 197.457031 Z M 308.210938 234.210938 " style=" stroke:none;fill-rule:nonzero;fill:rgb(78.039216%,85.098039%,100%);fill-opacity:1;" />
<path d="M 327.613281 322.707031 L 256 342.03125 L 209.933594 354.460938 L 216.179688 313.84375 L 256 303.097656 L 319.558594 285.945312 Z M 327.613281 322.707031 " style=" stroke:none;fill-rule:nonzero;fill:rgb(92.156863%,94.117647%,95.294118%);fill-opacity:1;" />
<path d="M 327.613281 322.707031 L 256 342.03125 L 256 303.097656 L 319.558594 285.945312 Z M 327.613281 322.707031 " style=" stroke:none;fill-rule:nonzero;fill:rgb(78.039216%,85.098039%,100%);fill-opacity:1;" />
<path d="M 347.027344 411.191406 L 256 435.761719 L 208.628906 448.539062 C 202.988281 438.507812 200.078125 425.347656 201.292969 411.582031 L 256 396.824219 L 338.964844 374.429688 Z M 347.027344 411.191406 " style=" stroke:none;fill-rule:nonzero;fill:rgb(92.156863%,94.117647%,95.294118%);fill-opacity:1;" />
<path d="M 347.027344 411.191406 L 256 435.761719 L 256 396.824219 L 338.964844 374.429688 Z M 347.027344 411.191406 " style=" stroke:none;fill-rule:nonzero;fill:rgb(78.039216%,85.098039%,100%);fill-opacity:1;" />
</g>
</svg>