<svg xmlns="http://www.w3.org/2000/svg" height="512pt" version="1.1" viewBox="0 0 512 512" width="512pt">
<g id="surface1">
<path d="M 512 256 C 512 397.386719 397.386719 512 256 512 C 114.613281 512 0 397.386719 0 256 C 0 114.613281 114.613281 0 256 0 C 397.386719 0 512 114.613281 512 256 Z M 512 256 " style=" stroke:none;fill-rule:nonzero;fill:rgb(70.980392%,88.627451%,21.568627%);fill-opacity:1;" />
<path d="M 512 256 C 512 282.050781 508.109375 307.191406 500.871094 330.871094 C 468.859375 435.71875 371.328125 512 256 512 C 151.441406 512 61.511719 449.300781 21.769531 359.449219 C 7.769531 327.820312 0 292.820312 0 256 C 0 209.78125 12.25 166.429688 33.679688 129 C 77.800781 206.070312 160.839844 258 256 258 C 351.160156 258 434.210938 206.070312 478.320312 129 C 499.75 166.429688 512 209.78125 512 256 Z M 512 256 " style=" stroke:none;fill-rule:nonzero;fill:rgb(58.431373%,83.921569%,0%);fill-opacity:1;" />
<path d="M 30.742188 377.703125 C 37.898438 390.921875 46.171875 403.441406 55.460938 415.128906 C 102.359375 474.148438 174.761719 512 256 512 C 337.238281 512 409.640625 474.148438 456.539062 415.128906 C 465.828125 403.441406 474.101562 390.921875 481.257812 377.703125 Z M 30.742188 377.703125 " style=" stroke:none;fill-rule:nonzero;fill:rgb(52.156863%,68.627451%,7.058824%);fill-opacity:1;" />
<path d="M 463 301.210938 L 463 406.648438 C 416.449219 470.5 341.070312 512 256 512 C 208.460938 512 163.949219 499.039062 125.808594 476.460938 C 95.691406 458.640625 69.539062 434.820312 49 406.648438 L 49 301.210938 C 49 278.058594 67.78125 259.28125 90.929688 259.28125 L 421.070312 259.28125 C 444.21875 259.28125 463 278.058594 463 301.210938 Z M 463 301.210938 " style=" stroke:none;fill-rule:nonzero;fill:rgb(100%,65.882353%,47.843137%);fill-opacity:1;" />
<path d="M 463 301.210938 L 463 406.648438 C 416.449219 470.5 341.070312 512 256 512 C 208.460938 512 163.949219 499.039062 125.808594 476.460938 C 125.5 474.378906 125.328125 472.238281 125.328125 470.070312 L 125.328125 301.210938 C 125.328125 278.058594 144.109375 259.28125 167.269531 259.28125 L 421.070312 259.28125 C 444.21875 259.28125 463 278.058594 463 301.210938 Z M 463 301.210938 " style=" stroke:none;fill-rule:nonzero;fill:rgb(91.764706%,50.980392%,30.588235%);fill-opacity:1;" />
<path d="M 463 301.210938 L 463 406.648438 C 416.449219 470.5 341.070312 512 256 512 L 256 259.28125 L 421.070312 259.28125 C 444.21875 259.28125 463 278.058594 463 301.210938 Z M 463 301.210938 " style=" stroke:none;fill-rule:nonzero;fill:rgb(77.254902%,34.509804%,20.784314%);fill-opacity:1;" />
<path d="M 463 301.210938 L 463 405.316406 C 428.496094 405.316406 428.496094 431.144531 393.996094 431.144531 C 359.496094 431.144531 359.496094 405.316406 324.992188 405.316406 C 290.492188 405.316406 290.492188 431.144531 256 431.144531 C 221.496094 431.144531 221.496094 405.316406 186.996094 405.316406 C 155.128906 405.316406 152.695312 427.347656 125.332031 430.71875 C 123.070312 430.992188 120.636719 431.144531 118.003906 431.144531 C 83.5 431.144531 83.5 405.316406 49 405.316406 L 49 301.210938 C 49 278.054688 67.777344 259.277344 90.933594 259.277344 L 421.066406 259.277344 C 444.222656 259.277344 463 278.054688 463 301.210938 Z M 463 301.210938 " style=" stroke:none;fill-rule:nonzero;fill:rgb(77.254902%,34.509804%,20.784314%);fill-opacity:1;" />
<path d="M 463 301.210938 L 463 405.316406 C 428.496094 405.316406 428.496094 431.144531 393.996094 431.144531 C 359.496094 431.144531 359.496094 405.316406 324.992188 405.316406 C 290.492188 405.316406 290.492188 431.144531 256 431.144531 C 221.496094 431.144531 221.496094 405.316406 186.996094 405.316406 C 155.128906 405.316406 152.695312 427.347656 125.332031 430.71875 L 125.332031 301.210938 C 125.332031 278.054688 144.109375 259.277344 167.265625 259.277344 L 421.066406 259.277344 C 444.222656 259.277344 463 278.054688 463 301.210938 Z M 463 301.210938 " style=" stroke:none;fill-rule:nonzero;fill:rgb(65.098039%,22.352941%,7.843137%);fill-opacity:1;" />
<path d="M 463 301.210938 L 463 405.316406 C 428.496094 405.316406 428.496094 431.144531 393.996094 431.144531 C 359.496094 431.144531 359.496094 405.316406 324.992188 405.316406 C 290.492188 405.316406 290.492188 431.144531 256 431.144531 L 256 259.277344 L 421.066406 259.277344 C 444.222656 259.277344 463 278.054688 463 301.210938 Z M 463 301.210938 " style=" stroke:none;fill-rule:nonzero;fill:rgb(47.843137%,17.647059%,10.196078%);fill-opacity:1;" />
<path d="M 463 301.210938 L 463 375.539062 C 428.496094 375.539062 428.496094 401.378906 393.996094 401.378906 C 359.496094 401.378906 359.496094 375.539062 324.992188 375.539062 C 290.492188 375.539062 290.492188 401.378906 256 401.378906 C 221.496094 401.378906 221.496094 375.539062 186.996094 375.539062 C 155.128906 375.539062 152.695312 397.578125 125.332031 400.949219 C 123.070312 401.226562 120.636719 401.378906 118.003906 401.378906 C 83.5 401.378906 83.5 375.539062 49 375.539062 L 49 301.210938 C 49 278.054688 67.777344 259.277344 90.933594 259.277344 L 421.066406 259.277344 C 444.222656 259.277344 463 278.054688 463 301.210938 Z M 463 301.210938 " style=" stroke:none;fill-rule:nonzero;fill:rgb(100%,100%,100%);fill-opacity:1;" />
<path d="M 463 301.210938 L 463 375.539062 C 428.496094 375.539062 428.496094 401.378906 393.996094 401.378906 C 359.496094 401.378906 359.496094 375.539062 324.992188 375.539062 C 290.492188 375.539062 290.492188 401.378906 256 401.378906 C 221.496094 401.378906 221.496094 375.539062 186.996094 375.539062 C 155.128906 375.539062 152.695312 397.578125 125.332031 400.949219 L 125.332031 301.210938 C 125.332031 278.054688 144.109375 259.277344 167.265625 259.277344 L 421.066406 259.277344 C 444.222656 259.277344 463 278.054688 463 301.210938 Z M 463 301.210938 " style=" stroke:none;fill-rule:nonzero;fill:rgb(92.156863%,94.117647%,95.294118%);fill-opacity:1;" />
<path d="M 463 301.210938 L 463 375.539062 C 428.496094 375.539062 428.496094 401.378906 393.996094 401.378906 C 359.496094 401.378906 359.496094 375.539062 324.992188 375.539062 C 290.492188 375.539062 290.492188 401.378906 256 401.378906 L 256 259.277344 L 421.066406 259.277344 C 444.222656 259.277344 463 278.054688 463 301.210938 Z M 463 301.210938 " style=" stroke:none;fill-rule:nonzero;fill:rgb(78.039216%,85.098039%,100%);fill-opacity:1;" />
<path d="M 463 301.210938 L 463 345.761719 C 428.496094 345.761719 428.496094 371.597656 393.996094 371.597656 C 359.496094 371.597656 359.496094 345.761719 324.992188 345.761719 C 290.492188 345.761719 290.492188 371.597656 256 371.597656 C 221.496094 371.597656 221.496094 345.761719 186.996094 345.761719 C 155.128906 345.761719 152.695312 367.800781 125.332031 371.171875 C 123.070312 371.445312 120.636719 371.597656 118.003906 371.597656 C 83.5 371.597656 83.5 345.761719 49 345.761719 L 49 301.210938 C 49 278.054688 67.777344 259.277344 90.933594 259.277344 L 421.066406 259.277344 C 444.222656 259.277344 463 278.054688 463 301.210938 Z M 463 301.210938 " style=" stroke:none;fill-rule:nonzero;fill:rgb(97.647059%,63.529412%,74.901961%);fill-opacity:1;" />
<path d="M 463 301.210938 L 463 345.761719 C 428.496094 345.761719 428.496094 371.597656 393.996094 371.597656 C 359.496094 371.597656 359.496094 345.761719 324.992188 345.761719 C 290.492188 345.761719 290.492188 371.597656 256 371.597656 C 221.496094 371.597656 221.496094 345.761719 186.996094 345.761719 C 155.128906 345.761719 152.695312 367.800781 125.332031 371.171875 L 125.332031 301.214844 C 125.332031 278.054688 144.109375 259.277344 167.265625 259.277344 L 421.066406 259.277344 C 444.222656 259.277344 463 278.054688 463 301.210938 Z M 463 301.210938 " style=" stroke:none;fill-rule:nonzero;fill:rgb(97.647059%,52.156863%,65.098039%);fill-opacity:1;" />
<path d="M 463 301.210938 L 463 345.761719 C 428.496094 345.761719 428.496094 371.597656 393.996094 371.597656 C 359.496094 371.597656 359.496094 345.761719 324.992188 345.761719 C 290.492188 345.761719 290.492188 371.597656 256 371.597656 L 256 259.277344 L 421.066406 259.277344 C 444.222656 259.277344 463 278.054688 463 301.210938 Z M 463 301.210938 " style=" stroke:none;fill-rule:nonzero;fill:rgb(92.941176%,33.72549%,50.588235%);fill-opacity:1;" />
<path d="M 294.167969 224.871094 C 294.167969 244.214844 278.550781 259.910156 259.238281 260.039062 C 259.160156 260.039062 259.082031 260.039062 259.003906 260.039062 C 239.578125 260.039062 223.835938 244.296875 223.835938 224.871094 C 223.835938 216.09375 227.050781 208.070312 232.367188 201.90625 C 232.734375 201.445312 233.125 201.003906 233.542969 200.589844 C 233.667969 200.460938 233.796875 200.335938 233.929688 200.214844 C 233.929688 200.214844 233.933594 200.210938 233.9375 200.207031 C 236.597656 197.730469 240.167969 196.21875 244.089844 196.21875 C 245.738281 196.21875 247.324219 196.484375 248.808594 196.980469 C 254.640625 198.925781 258.871094 204.371094 259 210.824219 C 259.003906 210.925781 259.003906 211.03125 259.003906 211.132812 C 259.003906 202.894531 265.683594 196.21875 273.921875 196.21875 C 277.808594 196.21875 281.355469 197.707031 284.011719 200.148438 C 284.621094 200.710938 285.1875 201.324219 285.699219 201.984375 C 290.980469 208.132812 294.167969 216.132812 294.167969 224.871094 Z M 294.167969 224.871094 " style=" stroke:none;fill-rule:nonzero;fill:rgb(100%,39.215686%,46.666667%);fill-opacity:1;" />
<path d="M 294.167969 224.871094 C 294.167969 244.214844 278.550781 259.910156 259.238281 260.039062 C 246.78125 253.015625 238.367188 239.65625 238.367188 224.335938 C 238.367188 214.113281 242.113281 204.765625 248.308594 197.589844 C 248.472656 197.382812 248.640625 197.179688 248.808594 196.980469 C 254.640625 198.925781 258.871094 204.371094 259.003906 210.824219 C 259.003906 210.925781 259.003906 211.03125 259.003906 211.132812 C 259.003906 202.894531 265.683594 196.21875 273.921875 196.21875 C 277.8125 196.21875 281.355469 197.707031 284.011719 200.148438 C 284.625 200.710938 285.191406 201.324219 285.703125 201.984375 C 290.980469 208.132812 294.167969 216.132812 294.167969 224.871094 Z M 294.167969 224.871094 " style=" stroke:none;fill-rule:nonzero;fill:rgb(89.803922%,16.078431%,16.078431%);fill-opacity:1;" />
<path d="M 294.167969 224.871094 C 294.167969 244.292969 278.425781 260.039062 259.003906 260.039062 L 259.003906 210.824219 C 259.003906 210.925781 259.003906 211.027344 259.003906 211.132812 C 259.003906 202.894531 265.683594 196.21875 273.921875 196.21875 C 277.8125 196.21875 281.355469 197.707031 284.011719 200.148438 C 284.625 200.710938 285.191406 201.324219 285.703125 201.984375 C 290.980469 208.132812 294.167969 216.132812 294.167969 224.871094 Z M 294.167969 224.871094 " style=" stroke:none;fill-rule:nonzero;fill:rgb(72.941176%,5.098039%,36.078431%);fill-opacity:1;" />
<path d="M 175.671875 224.871094 C 175.671875 244.214844 160.054688 259.910156 140.742188 260.039062 C 140.664062 260.039062 140.585938 260.039062 140.507812 260.039062 C 121.085938 260.039062 105.339844 244.296875 105.339844 224.871094 C 105.339844 216.09375 108.554688 208.070312 113.871094 201.90625 C 114.238281 201.445312 114.628906 201.003906 115.046875 200.589844 C 115.171875 200.460938 115.300781 200.335938 115.433594 200.214844 C 115.433594 200.214844 115.4375 200.210938 115.441406 200.207031 C 118.101562 197.730469 121.671875 196.21875 125.59375 196.21875 C 127.242188 196.21875 128.828125 196.484375 130.3125 196.980469 C 136.144531 198.925781 140.375 204.371094 140.503906 210.824219 C 140.507812 210.925781 140.507812 211.03125 140.507812 211.132812 C 140.507812 202.894531 147.1875 196.21875 155.425781 196.21875 C 159.3125 196.21875 162.859375 197.707031 165.515625 200.148438 C 166.128906 200.710938 166.691406 201.324219 167.203125 201.984375 C 172.484375 208.132812 175.671875 216.132812 175.671875 224.871094 Z M 175.671875 224.871094 " style=" stroke:none;fill-rule:nonzero;fill:rgb(100%,39.215686%,46.666667%);fill-opacity:1;" />
<path d="M 175.671875 224.871094 C 175.671875 244.214844 160.054688 259.910156 140.742188 260.039062 C 128.285156 253.015625 119.871094 239.65625 119.871094 224.335938 C 119.871094 214.113281 123.617188 204.765625 129.8125 197.589844 C 129.976562 197.382812 130.144531 197.179688 130.3125 196.980469 C 136.144531 198.925781 140.375 204.371094 140.507812 210.824219 C 140.507812 210.925781 140.507812 211.03125 140.507812 211.132812 C 140.507812 202.894531 147.1875 196.21875 155.425781 196.21875 C 159.316406 196.21875 162.859375 197.707031 165.515625 200.148438 C 166.128906 200.710938 166.695312 201.324219 167.207031 201.984375 C 172.484375 208.132812 175.671875 216.132812 175.671875 224.871094 Z M 175.671875 224.871094 " style=" stroke:none;fill-rule:nonzero;fill:rgb(89.803922%,16.078431%,16.078431%);fill-opacity:1;" />
<path d="M 175.671875 224.871094 C 175.671875 244.292969 159.929688 260.039062 140.507812 260.039062 L 140.507812 210.824219 C 140.507812 210.925781 140.507812 211.027344 140.507812 211.132812 C 140.507812 202.894531 147.1875 196.21875 155.425781 196.21875 C 159.316406 196.21875 162.859375 197.707031 165.515625 200.148438 C 166.128906 200.710938 166.695312 201.324219 167.207031 201.984375 C 172.484375 208.132812 175.671875 216.132812 175.671875 224.871094 Z M 175.671875 224.871094 " style=" stroke:none;fill-rule:nonzero;fill:rgb(72.941176%,5.098039%,36.078431%);fill-opacity:1;" />
<path d="M 418.660156 224.871094 C 418.660156 244.214844 403.042969 259.910156 383.730469 260.039062 C 383.652344 260.039062 383.574219 260.039062 383.492188 260.039062 C 364.070312 260.039062 348.328125 244.296875 348.328125 224.871094 C 348.328125 216.09375 351.542969 208.070312 356.859375 201.90625 C 357.226562 201.445312 357.617188 201.003906 358.035156 200.589844 C 358.160156 200.460938 358.289062 200.335938 358.421875 200.214844 C 358.421875 200.214844 358.425781 200.210938 358.429688 200.207031 C 361.089844 197.730469 364.660156 196.21875 368.582031 196.21875 C 370.230469 196.21875 371.816406 196.484375 373.300781 196.980469 C 379.132812 198.925781 383.363281 204.371094 383.492188 210.824219 C 383.496094 210.925781 383.496094 211.03125 383.496094 211.132812 C 383.496094 202.894531 390.175781 196.21875 398.410156 196.21875 C 402.300781 196.21875 405.847656 197.707031 408.503906 200.148438 C 409.113281 200.710938 409.679688 201.324219 410.191406 201.984375 C 415.472656 208.132812 418.660156 216.132812 418.660156 224.871094 Z M 418.660156 224.871094 " style=" stroke:none;fill-rule:nonzero;fill:rgb(100%,39.215686%,46.666667%);fill-opacity:1;" />
<path d="M 418.660156 224.871094 C 418.660156 244.214844 403.042969 259.910156 383.730469 260.039062 C 371.273438 253.015625 362.859375 239.65625 362.859375 224.335938 C 362.859375 214.113281 366.605469 204.765625 372.800781 197.589844 C 372.964844 197.382812 373.132812 197.179688 373.300781 196.980469 C 379.132812 198.925781 383.363281 204.371094 383.492188 210.824219 C 383.496094 210.925781 383.496094 211.03125 383.496094 211.132812 C 383.496094 202.894531 390.175781 196.21875 398.414062 196.21875 C 402.304688 196.21875 405.847656 197.707031 408.503906 200.148438 C 409.117188 200.710938 409.683594 201.324219 410.195312 201.984375 C 415.472656 208.132812 418.660156 216.132812 418.660156 224.871094 Z M 418.660156 224.871094 " style=" stroke:none;fill-rule:nonzero;fill:rgb(89.803922%,16.078431%,16.078431%);fill-opacity:1;" />
<path d="M 418.660156 224.871094 C 418.660156 244.292969 402.914062 260.039062 383.492188 260.039062 L 383.492188 210.824219 C 383.496094 210.925781 383.496094 211.027344 383.496094 211.132812 C 383.496094 202.894531 390.175781 196.21875 398.414062 196.21875 C 402.304688 196.21875 405.847656 197.707031 408.503906 200.148438 C 409.117188 200.710938 409.683594 201.324219 410.195312 201.984375 C 415.472656 208.132812 418.660156 216.132812 418.660156 224.871094 Z M 418.660156 224.871094 " style=" stroke:none;fill-rule:nonzero;fill:rgb(72.941176%,5.098039%,36.078431%);fill-opacity:1;" />
</g>
</svg>