<svg xmlns="http://www.w3.org/2000/svg" height="512pt" version="1.1" viewBox="0 0 512 512" width="512pt">
<g id="surface1">
<path d="M 512 256 C 512 397.386719 397.386719 512 256 512 C 114.613281 512 0 397.386719 0 256 C 0 114.613281 114.613281 0 256 0 C 397.386719 0 512 114.613281 512 256 Z M 512 256 " style=" stroke:none;fill-rule:nonzero;fill:rgb(61.960784%,41.176471%,88.627451%);fill-opacity:1;" />
<path d="M 512 256 C 512 282.050781 508.109375 307.191406 500.871094 330.871094 C 468.859375 435.71875 371.328125 512 256 512 C 151.441406 512 61.511719 449.300781 21.769531 359.449219 C 7.769531 327.820312 0 292.820312 0 256 C 0 209.78125 12.25 166.429688 33.679688 129 C 77.800781 206.070312 160.839844 258 256 258 C 351.160156 258 434.210938 206.070312 478.320312 129 C 499.75 166.429688 512 209.78125 512 256 Z M 512 256 " style=" stroke:none;fill-rule:nonzero;fill:rgb(55.686275%,30.980392%,82.352941%);fill-opacity:1;" />
<path d="M 30.742188 377.703125 C 37.898438 390.921875 46.171875 403.441406 55.460938 415.128906 C 102.359375 474.148438 174.761719 512 256 512 C 337.238281 512 409.640625 474.148438 456.539062 415.128906 C 465.828125 403.441406 474.101562 390.921875 481.257812 377.703125 Z M 30.742188 377.703125 " style=" stroke:none;fill-rule:nonzero;fill:rgb(19.607843%,23.137255%,35.294118%);fill-opacity:1;" />
<path d="M 257.488281 386.460938 L 257.488281 451.539062 L 90.769531 451.539062 C 90.308594 451.148438 89.839844 450.75 89.378906 450.351562 C 89.230469 450.230469 89.078125 450.101562 88.941406 449.96875 C 84.269531 445.949219 79.75 441.761719 75.378906 437.421875 C 66.628906 428.699219 58.5 419.351562 51.070312 409.449219 C 48.390625 405.871094 45.789062 402.210938 43.289062 398.488281 L 43.289062 386.460938 Z M 257.488281 386.460938 " style=" stroke:none;fill-rule:nonzero;fill:rgb(100%,100%,100%);fill-opacity:1;" />
<path d="M 257.488281 386.460938 L 257.488281 451.539062 L 90.769531 451.539062 C 90.308594 451.148438 89.839844 450.75 89.378906 450.351562 L 89.378906 386.460938 Z M 257.488281 386.460938 " style=" stroke:none;fill-rule:nonzero;fill:rgb(92.156863%,94.117647%,95.294118%);fill-opacity:1;" />
<path d="M 148.546875 386.457031 L 257.496094 386.457031 L 257.496094 451.535156 L 148.546875 451.535156 Z M 148.546875 386.457031 " style=" stroke:none;fill-rule:nonzero;fill:rgb(78.039216%,85.098039%,100%);fill-opacity:1;" />
<path d="M 267.488281 396.5 L 267.488281 404.03125 C 267.488281 407.019531 265.070312 409.449219 262.058594 409.449219 L 51.070312 409.449219 C 48.390625 405.871094 45.789062 402.210938 43.289062 398.488281 C 40.210938 393.898438 37.269531 389.199219 34.488281 384.398438 C 40.101562 356.699219 64.589844 335.839844 93.949219 335.839844 L 206.839844 335.839844 C 207.429688 335.839844 208.011719 335.851562 208.601562 335.871094 C 209.589844 335.890625 210.570312 335.941406 211.53125 336.019531 C 211.851562 336.039062 212.160156 336.070312 212.46875 336.101562 C 212.910156 336.140625 213.351562 336.191406 213.789062 336.238281 C 214.359375 336.300781 214.921875 336.371094 215.488281 336.460938 C 215.960938 336.519531 216.429688 336.601562 216.890625 336.679688 C 217.621094 336.789062 218.339844 336.929688 219.058594 337.070312 C 220.039062 337.269531 221.019531 337.5 221.988281 337.75 C 222.058594 337.769531 222.121094 337.78125 222.179688 337.800781 C 222.710938 337.941406 223.230469 338.078125 223.761719 338.238281 C 224.179688 338.351562 224.589844 338.480469 225 338.609375 C 225.378906 338.730469 225.75 338.851562 226.121094 338.96875 C 226.21875 339 226.320312 339.039062 226.421875 339.078125 C 226.78125 339.199219 227.148438 339.320312 227.511719 339.460938 C 227.609375 339.488281 227.710938 339.53125 227.800781 339.558594 C 228.230469 339.71875 228.648438 339.878906 229.070312 340.050781 C 229.53125 340.230469 229.988281 340.421875 230.441406 340.609375 C 230.898438 340.800781 231.351562 341 231.800781 341.199219 C 232.21875 341.390625 232.648438 341.589844 233.070312 341.789062 C 233.800781 342.140625 234.53125 342.511719 235.238281 342.890625 C 235.53125 343.039062 235.820312 343.199219 236.101562 343.351562 C 236.328125 343.480469 236.558594 343.609375 236.800781 343.75 C 237.230469 343.988281 237.648438 344.238281 238.078125 344.5 C 238.558594 344.789062 239.050781 345.089844 239.53125 345.398438 C 239.578125 345.429688 239.628906 345.460938 239.679688 345.5 C 240.210938 345.839844 240.730469 346.191406 241.25 346.550781 C 241.679688 346.839844 242.101562 347.140625 242.519531 347.449219 C 243.699219 348.300781 244.839844 349.199219 245.949219 350.140625 C 246.308594 350.449219 246.671875 350.75 247.019531 351.070312 C 248.070312 351.988281 249.078125 352.949219 250.050781 353.949219 C 250.449219 354.351562 250.828125 354.75 251.210938 355.160156 C 252.578125 356.621094 253.871094 358.148438 255.089844 359.75 C 255.371094 360.121094 255.648438 360.488281 255.921875 360.871094 C 255.949219 360.898438 255.96875 360.941406 256 360.96875 C 256.011719 360.980469 256.019531 361 256.03125 361.011719 C 256.351562 361.460938 256.671875 361.921875 256.988281 362.378906 C 257.308594 362.851562 257.621094 363.320312 257.929688 363.800781 C 257.929688 363.808594 257.929688 363.808594 257.929688 363.808594 C 258.238281 364.289062 258.550781 364.78125 258.839844 365.269531 C 259.199219 365.859375 259.539062 366.441406 259.871094 367.039062 C 260.03125 367.328125 260.191406 367.628906 260.351562 367.929688 C 260.511719 368.230469 260.671875 368.519531 260.820312 368.820312 C 261.128906 369.421875 261.429688 370.019531 261.710938 370.628906 C 261.851562 370.929688 261.988281 371.230469 262.128906 371.539062 C 262.539062 372.441406 262.921875 373.339844 263.28125 374.261719 C 263.421875 374.601562 263.550781 374.949219 263.679688 375.300781 C 263.738281 375.460938 263.800781 375.621094 263.859375 375.78125 C 264.011719 376.199219 264.160156 376.621094 264.300781 377.039062 C 264.460938 377.5 264.609375 377.960938 264.75 378.421875 C 265.070312 379.441406 265.359375 380.480469 265.621094 381.519531 C 265.890625 382.570312 266.128906 383.628906 266.339844 384.710938 C 266.441406 385.21875 266.539062 385.730469 266.621094 386.25 C 266.640625 386.320312 266.648438 386.390625 266.660156 386.460938 C 266.679688 386.550781 266.691406 386.640625 266.699219 386.730469 C 266.761719 387.050781 266.808594 387.359375 266.851562 387.679688 C 266.96875 388.511719 267.078125 389.328125 267.160156 390.171875 C 267.191406 390.441406 267.21875 390.710938 267.238281 390.980469 C 267.320312 391.800781 267.371094 392.628906 267.410156 393.46875 C 267.441406 393.960938 267.460938 394.441406 267.46875 394.929688 C 267.480469 395.449219 267.488281 395.980469 267.488281 396.5 Z M 267.488281 396.5 " style=" stroke:none;fill-rule:nonzero;fill:rgb(97.647059%,63.529412%,74.901961%);fill-opacity:1;" />
<path d="M 267.488281 442.851562 L 267.488281 450.378906 C 267.488281 450.769531 267.488281 451.160156 267.480469 451.539062 C 267.46875 452.199219 267.441406 452.851562 267.410156 453.5 C 267.378906 454.019531 267.351562 454.53125 267.308594 455.039062 C 267.28125 455.46875 267.238281 455.878906 267.199219 456.300781 C 267.179688 456.578125 267.148438 456.859375 267.109375 457.128906 C 267.050781 457.71875 266.980469 458.308594 266.890625 458.898438 C 266.878906 459.03125 266.859375 459.148438 266.839844 459.269531 C 266.75 459.890625 266.648438 460.5 266.539062 461.109375 C 266.46875 461.53125 266.390625 461.949219 266.300781 462.371094 C 266.21875 462.78125 266.128906 463.199219 266.039062 463.609375 C 265.949219 464.019531 265.851562 464.429688 265.75 464.839844 C 265.640625 465.320312 265.511719 465.800781 265.378906 466.269531 C 265.289062 466.609375 265.199219 466.941406 265.101562 467.269531 C 264.988281 467.648438 264.878906 468.03125 264.761719 468.410156 C 264.609375 468.890625 264.460938 469.359375 264.300781 469.828125 C 264.179688 470.199219 264.050781 470.570312 263.921875 470.929688 C 263.828125 471.160156 263.738281 471.378906 263.660156 471.609375 C 263.539062 471.949219 263.410156 472.28125 263.28125 472.609375 C 263.121094 473.019531 262.960938 473.421875 262.789062 473.808594 C 262.429688 474.691406 262.039062 475.550781 261.628906 476.398438 C 261.378906 476.929688 261.121094 477.46875 260.851562 477.988281 C 260.269531 479.128906 259.648438 480.238281 259 481.339844 C 258.859375 481.578125 258.710938 481.820312 258.558594 482.058594 C 258.148438 482.730469 257.71875 483.398438 257.28125 484.058594 C 256.871094 484.671875 256.449219 485.269531 256.019531 485.871094 C 256.019531 485.878906 256.011719 485.890625 256 485.898438 C 255.980469 485.929688 255.960938 485.949219 255.941406 485.980469 C 255.601562 486.449219 255.261719 486.910156 254.898438 487.371094 C 254.359375 488.078125 253.800781 488.78125 253.21875 489.449219 C 252.910156 489.828125 252.589844 490.199219 252.261719 490.558594 C 250.800781 492.21875 249.25 493.789062 247.609375 495.269531 C 247.289062 495.570312 246.949219 495.859375 246.621094 496.160156 C 246.589844 496.191406 246.558594 496.210938 246.53125 496.238281 C 246.058594 496.640625 245.578125 497.050781 245.101562 497.429688 C 244.949219 497.558594 244.800781 497.679688 244.640625 497.800781 C 244.140625 498.210938 243.628906 498.601562 243.121094 498.980469 C 242.839844 499.191406 242.558594 499.398438 242.269531 499.601562 C 241.769531 499.960938 241.261719 500.320312 240.75 500.671875 C 240.199219 501.039062 239.648438 501.398438 239.101562 501.738281 C 238.589844 502.070312 238.070312 502.378906 237.539062 502.691406 C 237 503.011719 236.449219 503.320312 235.898438 503.621094 C 235.421875 503.890625 234.941406 504.140625 234.449219 504.390625 C 234.230469 504.5 234.019531 504.609375 233.800781 504.71875 C 233.460938 504.890625 233.121094 505.050781 232.78125 505.21875 C 232.289062 505.449219 231.800781 505.671875 231.300781 505.890625 C 231.03125 506.011719 230.761719 506.128906 230.480469 506.238281 C 228.660156 507.019531 226.789062 507.710938 224.871094 508.300781 C 223.929688 508.589844 222.960938 508.871094 221.988281 509.121094 C 221.441406 509.261719 220.871094 509.398438 220.300781 509.53125 L 220.289062 509.53125 C 195.011719 506 170.910156 498.78125 148.550781 488.421875 C 127.601562 478.71875 108.191406 466.28125 90.769531 451.539062 C 90.308594 451.148438 89.839844 450.75 89.378906 450.351562 C 89.230469 450.230469 89.078125 450.101562 88.941406 449.96875 C 84.269531 445.949219 79.75 441.761719 75.378906 437.421875 L 262.058594 437.421875 C 265.070312 437.421875 267.488281 439.851562 267.488281 442.851562 Z M 267.488281 442.851562 " style=" stroke:none;fill-rule:nonzero;fill:rgb(97.647059%,63.529412%,74.901961%);fill-opacity:1;" />
<path d="M 267.492188 396.496094 L 267.492188 404.027344 C 267.492188 407.019531 265.066406 409.449219 262.066406 409.449219 L 94.363281 409.449219 C 91.371094 409.449219 88.9375 407.019531 88.9375 404.027344 L 88.9375 396.496094 C 88.9375 363.003906 116.097656 335.84375 149.59375 335.84375 L 206.84375 335.84375 C 240.335938 335.84375 267.492188 363.003906 267.492188 396.496094 Z M 267.492188 396.496094 " style=" stroke:none;fill-rule:nonzero;fill:rgb(97.647059%,52.156863%,65.098039%);fill-opacity:1;" />
<path d="M 267.488281 442.851562 L 267.488281 450.378906 C 267.488281 450.769531 267.488281 451.160156 267.480469 451.539062 C 267.46875 452.199219 267.441406 452.851562 267.410156 453.5 C 267.378906 454.019531 267.351562 454.53125 267.308594 455.039062 C 267.28125 455.46875 267.238281 455.878906 267.199219 456.300781 C 267.179688 456.578125 267.148438 456.859375 267.109375 457.128906 C 267.050781 457.71875 266.980469 458.308594 266.890625 458.898438 C 266.878906 459.03125 266.859375 459.148438 266.839844 459.269531 C 266.75 459.890625 266.648438 460.5 266.539062 461.109375 C 266.46875 461.53125 266.390625 461.949219 266.300781 462.371094 C 266.21875 462.78125 266.128906 463.199219 266.039062 463.609375 C 265.949219 464.019531 265.851562 464.429688 265.75 464.839844 C 265.640625 465.320312 265.511719 465.800781 265.378906 466.269531 C 265.289062 466.609375 265.199219 466.941406 265.101562 467.269531 C 264.988281 467.648438 264.878906 468.03125 264.761719 468.410156 C 264.609375 468.890625 264.460938 469.359375 264.300781 469.828125 C 264.179688 470.199219 264.050781 470.570312 263.921875 470.929688 C 263.828125 471.160156 263.738281 471.378906 263.660156 471.609375 C 263.539062 471.949219 263.410156 472.28125 263.28125 472.609375 C 263.121094 473.019531 262.960938 473.421875 262.789062 473.808594 C 262.429688 474.691406 262.039062 475.550781 261.628906 476.398438 C 261.378906 476.929688 261.121094 477.46875 260.851562 477.988281 C 260.269531 479.128906 259.648438 480.238281 259 481.339844 C 258.859375 481.578125 258.710938 481.820312 258.558594 482.058594 C 258.148438 482.730469 257.71875 483.398438 257.28125 484.058594 C 256.871094 484.671875 256.449219 485.269531 256.019531 485.871094 C 256.019531 485.878906 256.011719 485.890625 256 485.898438 C 255.980469 485.929688 255.960938 485.949219 255.941406 485.980469 C 255.601562 486.449219 255.261719 486.910156 254.898438 487.371094 C 254.359375 488.078125 253.800781 488.78125 253.21875 489.449219 C 252.910156 489.828125 252.589844 490.199219 252.261719 490.558594 C 250.800781 492.21875 249.25 493.789062 247.609375 495.269531 C 247.289062 495.570312 246.949219 495.859375 246.621094 496.160156 C 246.589844 496.191406 246.558594 496.210938 246.53125 496.238281 C 246.058594 496.640625 245.578125 497.050781 245.101562 497.429688 C 244.949219 497.558594 244.800781 497.679688 244.640625 497.800781 C 244.140625 498.210938 243.628906 498.601562 243.121094 498.980469 C 242.839844 499.191406 242.558594 499.398438 242.269531 499.601562 C 241.769531 499.960938 241.261719 500.320312 240.75 500.671875 C 240.199219 501.039062 239.648438 501.398438 239.101562 501.738281 C 238.589844 502.070312 238.070312 502.378906 237.539062 502.691406 C 237 503.011719 236.449219 503.320312 235.898438 503.621094 C 235.421875 503.890625 234.941406 504.140625 234.449219 504.390625 C 234.230469 504.5 234.019531 504.609375 233.800781 504.71875 C 233.460938 504.890625 233.121094 505.050781 232.78125 505.21875 C 232.289062 505.449219 231.800781 505.671875 231.300781 505.890625 C 231.03125 506.011719 230.761719 506.128906 230.480469 506.238281 C 228.660156 507.019531 226.789062 507.710938 224.871094 508.300781 C 223.929688 508.589844 222.960938 508.871094 221.988281 509.121094 C 221.441406 509.261719 220.871094 509.398438 220.300781 509.53125 L 220.289062 509.53125 C 195.011719 506 170.910156 498.78125 148.550781 488.421875 C 127.601562 478.71875 108.191406 466.28125 90.769531 451.539062 C 90.308594 451.148438 89.839844 450.75 89.378906 450.351562 C 89.230469 450.230469 89.078125 450.101562 88.941406 449.96875 L 88.941406 442.851562 C 88.941406 442.089844 89.089844 441.371094 89.378906 440.71875 C 90.199219 438.78125 92.121094 437.421875 94.359375 437.421875 L 262.058594 437.421875 C 265.070312 437.421875 267.488281 439.851562 267.488281 442.851562 Z M 267.488281 442.851562 " style=" stroke:none;fill-rule:nonzero;fill:rgb(97.647059%,52.156863%,65.098039%);fill-opacity:1;" />
<path d="M 267.492188 396.496094 L 267.492188 404.027344 C 267.492188 407.019531 265.066406 409.449219 262.066406 409.449219 L 148.546875 409.449219 L 148.546875 335.84375 L 206.839844 335.84375 C 240.335938 335.84375 267.492188 363.003906 267.492188 396.496094 Z M 267.492188 396.496094 " style=" stroke:none;fill-rule:nonzero;fill:rgb(92.941176%,33.72549%,50.588235%);fill-opacity:1;" />
<path d="M 267.488281 442.851562 L 267.488281 450.378906 C 267.488281 450.769531 267.488281 451.160156 267.480469 451.539062 C 267.46875 452.199219 267.441406 452.851562 267.410156 453.5 C 267.378906 454.019531 267.351562 454.53125 267.308594 455.039062 C 267.28125 455.46875 267.238281 455.878906 267.199219 456.300781 C 267.179688 456.578125 267.148438 456.859375 267.109375 457.128906 C 267.050781 457.71875 266.980469 458.308594 266.890625 458.898438 C 266.878906 459.03125 266.859375 459.148438 266.839844 459.269531 C 266.75 459.890625 266.648438 460.5 266.539062 461.109375 C 266.46875 461.53125 266.390625 461.949219 266.300781 462.371094 C 266.21875 462.78125 266.128906 463.199219 266.039062 463.609375 C 265.949219 464.019531 265.851562 464.429688 265.75 464.839844 C 265.640625 465.320312 265.511719 465.800781 265.378906 466.269531 C 265.289062 466.609375 265.199219 466.941406 265.101562 467.269531 C 264.988281 467.648438 264.878906 468.03125 264.761719 468.410156 C 264.609375 468.890625 264.460938 469.359375 264.300781 469.828125 C 264.179688 470.199219 264.050781 470.570312 263.921875 470.929688 C 263.828125 471.160156 263.738281 471.378906 263.660156 471.609375 C 263.539062 471.949219 263.410156 472.28125 263.28125 472.609375 C 263.121094 473.019531 262.960938 473.421875 262.789062 473.808594 C 262.429688 474.691406 262.039062 475.550781 261.628906 476.398438 C 261.378906 476.929688 261.121094 477.46875 260.851562 477.988281 C 260.269531 479.128906 259.648438 480.238281 259 481.339844 C 258.859375 481.578125 258.710938 481.820312 258.558594 482.058594 C 258.148438 482.730469 257.71875 483.398438 257.28125 484.058594 C 256.871094 484.671875 256.449219 485.269531 256.019531 485.871094 C 256.019531 485.878906 256.011719 485.890625 256 485.898438 C 255.980469 485.929688 255.960938 485.949219 255.941406 485.980469 C 255.601562 486.449219 255.261719 486.910156 254.898438 487.371094 C 254.359375 488.078125 253.800781 488.78125 253.21875 489.449219 C 252.910156 489.828125 252.589844 490.199219 252.261719 490.558594 C 250.800781 492.21875 249.25 493.789062 247.609375 495.269531 C 247.289062 495.570312 246.949219 495.859375 246.621094 496.160156 C 246.589844 496.191406 246.558594 496.210938 246.53125 496.238281 C 246.058594 496.640625 245.578125 497.050781 245.101562 497.429688 C 244.949219 497.558594 244.800781 497.679688 244.640625 497.800781 C 244.140625 498.210938 243.628906 498.601562 243.121094 498.980469 C 242.839844 499.191406 242.558594 499.398438 242.269531 499.601562 C 241.769531 499.960938 241.261719 500.320312 240.75 500.671875 C 240.199219 501.039062 239.648438 501.398438 239.101562 501.738281 C 238.589844 502.070312 238.070312 502.378906 237.539062 502.691406 C 237 503.011719 236.449219 503.320312 235.898438 503.621094 C 235.421875 503.890625 234.941406 504.140625 234.449219 504.390625 C 234.230469 504.5 234.019531 504.609375 233.800781 504.71875 C 233.460938 504.890625 233.121094 505.050781 232.78125 505.21875 C 232.289062 505.449219 231.800781 505.671875 231.300781 505.890625 C 231.03125 506.011719 230.761719 506.128906 230.480469 506.238281 C 228.660156 507.019531 226.789062 507.710938 224.871094 508.300781 C 223.929688 508.589844 222.960938 508.871094 221.988281 509.121094 C 221.441406 509.261719 220.871094 509.398438 220.300781 509.53125 L 220.289062 509.53125 C 195.011719 506 170.910156 498.78125 148.550781 488.421875 L 148.550781 437.421875 L 262.058594 437.421875 C 265.070312 437.421875 267.488281 439.851562 267.488281 442.851562 Z M 267.488281 442.851562 " style=" stroke:none;fill-rule:nonzero;fill:rgb(92.941176%,33.72549%,50.588235%);fill-opacity:1;" />
<path d="M 468.710938 386.460938 L 468.710938 398.488281 C 466.210938 402.210938 463.609375 405.871094 460.929688 409.449219 C 453.5 419.351562 445.371094 428.699219 436.621094 437.421875 C 431.691406 442.328125 426.550781 447.039062 421.230469 451.539062 L 254.511719 451.539062 L 254.511719 386.460938 Z M 468.710938 386.460938 " style=" stroke:none;fill-rule:nonzero;fill:rgb(100%,100%,100%);fill-opacity:1;" />
<path d="M 468.710938 386.460938 L 468.710938 398.488281 C 466.210938 402.210938 463.609375 405.871094 460.929688 409.449219 C 453.5 419.351562 445.371094 428.699219 436.621094 437.421875 C 431.691406 442.328125 426.550781 447.039062 421.230469 451.539062 L 300.589844 451.539062 L 300.589844 386.460938 Z M 468.710938 386.460938 " style=" stroke:none;fill-rule:nonzero;fill:rgb(92.156863%,94.117647%,95.294118%);fill-opacity:1;" />
<path d="M 468.710938 386.460938 L 468.710938 398.488281 C 466.210938 402.210938 463.609375 405.871094 460.929688 409.449219 C 453.5 419.351562 445.371094 428.699219 436.621094 437.421875 C 431.691406 442.328125 426.550781 447.039062 421.230469 451.539062 L 359.761719 451.539062 L 359.761719 386.460938 Z M 468.710938 386.460938 " style=" stroke:none;fill-rule:nonzero;fill:rgb(78.039216%,85.098039%,100%);fill-opacity:1;" />
<path d="M 477.511719 384.398438 L 477.511719 384.410156 C 474.730469 389.210938 471.789062 393.898438 468.710938 398.488281 C 466.210938 402.210938 463.609375 405.871094 460.929688 409.449219 L 249.941406 409.449219 C 246.941406 409.449219 244.511719 407.019531 244.511719 404.03125 L 244.511719 396.5 C 244.511719 393.078125 244.789062 389.730469 245.339844 386.460938 C 246.898438 377.050781 250.628906 368.378906 256 360.96875 C 261.898438 352.820312 269.78125 346.191406 278.929688 341.789062 C 286.871094 337.980469 295.769531 335.839844 305.160156 335.839844 L 418.058594 335.839844 C 447.410156 335.839844 471.898438 356.699219 477.511719 384.398438 Z M 477.511719 384.398438 " style=" stroke:none;fill-rule:nonzero;fill:rgb(100%,91.372549%,33.333333%);fill-opacity:1;" />
<path d="M 436.621094 437.421875 C 431.691406 442.328125 426.550781 447.039062 421.230469 451.539062 C 402.789062 467.140625 382.121094 480.171875 359.761719 490.089844 C 349.628906 494.589844 339.148438 498.449219 328.371094 501.628906 C 316.488281 505.121094 304.25 507.78125 291.710938 509.53125 L 291.699219 509.53125 C 277.101562 506.21875 264.5 497.640625 256 485.898438 C 248.980469 476.210938 244.761719 464.359375 244.519531 451.539062 C 244.511719 451.160156 244.511719 450.769531 244.511719 450.378906 L 244.511719 442.851562 C 244.511719 439.851562 246.941406 437.421875 249.941406 437.421875 Z M 436.621094 437.421875 " style=" stroke:none;fill-rule:nonzero;fill:rgb(100%,91.372549%,33.333333%);fill-opacity:1;" />
<path d="M 477.511719 384.398438 L 477.511719 384.410156 C 474.730469 389.210938 471.789062 393.898438 468.710938 398.488281 C 466.210938 402.210938 463.609375 405.871094 460.929688 409.449219 L 305.578125 409.449219 C 303.339844 409.449219 301.410156 408.089844 300.589844 406.160156 C 300.308594 405.5 300.148438 404.78125 300.148438 404.03125 L 300.148438 396.5 C 300.148438 394.03125 300.300781 391.589844 300.589844 389.199219 C 300.691406 388.28125 300.828125 387.371094 300.980469 386.460938 C 305.710938 358.070312 330.148438 336.351562 359.761719 335.851562 C 360.109375 335.839844 360.460938 335.839844 360.808594 335.839844 L 418.058594 335.839844 C 447.410156 335.839844 471.898438 356.699219 477.511719 384.398438 Z M 477.511719 384.398438 " style=" stroke:none;fill-rule:nonzero;fill:rgb(100%,81.960784%,7.058824%);fill-opacity:1;" />
<path d="M 436.621094 437.421875 C 431.691406 442.328125 426.550781 447.039062 421.230469 451.539062 C 402.789062 467.140625 382.121094 480.171875 359.761719 490.089844 C 349.628906 494.589844 339.148438 498.449219 328.371094 501.628906 C 311.710938 491.070312 300.558594 472.621094 300.160156 451.539062 C 300.148438 451.160156 300.148438 450.769531 300.148438 450.378906 L 300.148438 442.851562 C 300.148438 442.089844 300.300781 441.371094 300.589844 440.71875 C 301.410156 438.78125 303.339844 437.421875 305.578125 437.421875 Z M 436.621094 437.421875 " style=" stroke:none;fill-rule:nonzero;fill:rgb(100%,81.960784%,7.058824%);fill-opacity:1;" />
<path d="M 477.511719 384.398438 L 477.511719 384.410156 C 474.730469 389.210938 471.789062 393.898438 468.710938 398.488281 C 466.210938 402.210938 463.609375 405.871094 460.929688 409.449219 L 359.761719 409.449219 L 359.761719 335.839844 L 418.058594 335.839844 C 447.410156 335.839844 471.898438 356.699219 477.511719 384.398438 Z M 477.511719 384.398438 " style=" stroke:none;fill-rule:nonzero;fill:rgb(100%,62.352941%,0%);fill-opacity:1;" />
<path d="M 436.621094 437.421875 C 431.691406 442.328125 426.550781 447.039062 421.230469 451.539062 C 402.789062 467.140625 382.121094 480.171875 359.761719 490.089844 L 359.761719 437.421875 Z M 436.621094 437.421875 " style=" stroke:none;fill-rule:nonzero;fill:rgb(100%,62.352941%,0%);fill-opacity:1;" />
<path d="M 148.898438 217.222656 L 363.101562 217.222656 L 363.101562 282.300781 L 148.898438 282.300781 Z M 148.898438 217.222656 " style=" stroke:none;fill-rule:nonzero;fill:rgb(100%,100%,100%);fill-opacity:1;" />
<path d="M 194.988281 217.222656 L 363.101562 217.222656 L 363.101562 282.300781 L 194.988281 282.300781 Z M 194.988281 217.222656 " style=" stroke:none;fill-rule:nonzero;fill:rgb(92.156863%,94.117647%,95.294118%);fill-opacity:1;" />
<path d="M 254.152344 217.222656 L 363.101562 217.222656 L 363.101562 282.300781 L 254.152344 282.300781 Z M 254.152344 217.222656 " style=" stroke:none;fill-rule:nonzero;fill:rgb(78.039216%,85.098039%,100%);fill-opacity:1;" />
<path d="M 373.101562 227.261719 L 373.101562 234.789062 C 373.101562 237.785156 370.671875 240.210938 367.671875 240.210938 L 144.328125 240.210938 C 141.332031 240.210938 138.898438 237.785156 138.898438 234.789062 L 138.898438 227.261719 C 138.898438 193.765625 166.058594 166.609375 199.558594 166.609375 L 312.449219 166.609375 C 345.941406 166.609375 373.101562 193.769531 373.101562 227.261719 Z M 373.101562 227.261719 " style=" stroke:none;fill-rule:nonzero;fill:rgb(40.784314%,98.823529%,87.45098%);fill-opacity:1;" />
<path d="M 373.101562 273.609375 L 373.101562 281.140625 C 373.101562 314.632812 345.941406 341.789062 312.449219 341.789062 L 199.558594 341.789062 C 166.058594 341.789062 138.898438 314.632812 138.898438 281.140625 L 138.898438 273.609375 C 138.898438 270.613281 141.332031 268.1875 144.328125 268.1875 L 367.671875 268.1875 C 370.671875 268.1875 373.101562 270.613281 373.101562 273.609375 Z M 373.101562 273.609375 " style=" stroke:none;fill-rule:nonzero;fill:rgb(40.784314%,98.823529%,87.45098%);fill-opacity:1;" />
<path d="M 373.101562 227.261719 L 373.101562 234.789062 C 373.101562 237.785156 370.671875 240.210938 367.671875 240.210938 L 199.972656 240.210938 C 196.976562 240.210938 194.542969 237.785156 194.542969 234.789062 L 194.542969 227.261719 C 194.542969 193.765625 221.703125 166.609375 255.199219 166.609375 L 312.449219 166.609375 C 345.941406 166.609375 373.101562 193.769531 373.101562 227.261719 Z M 373.101562 227.261719 " style=" stroke:none;fill-rule:nonzero;fill:rgb(6.27451%,88.627451%,76.862745%);fill-opacity:1;" />
<path d="M 373.101562 273.609375 L 373.101562 281.140625 C 373.101562 314.632812 345.941406 341.789062 312.449219 341.789062 L 255.199219 341.789062 C 221.703125 341.789062 194.542969 314.632812 194.542969 281.140625 L 194.542969 273.609375 C 194.542969 270.613281 196.976562 268.1875 199.972656 268.1875 L 367.671875 268.1875 C 370.671875 268.1875 373.101562 270.613281 373.101562 273.609375 Z M 373.101562 273.609375 " style=" stroke:none;fill-rule:nonzero;fill:rgb(6.27451%,88.627451%,76.862745%);fill-opacity:1;" />
<path d="M 373.101562 227.261719 L 373.101562 234.789062 C 373.101562 237.785156 370.671875 240.210938 367.671875 240.210938 L 254.152344 240.210938 L 254.152344 166.609375 L 312.449219 166.609375 C 345.941406 166.609375 373.101562 193.769531 373.101562 227.261719 Z M 373.101562 227.261719 " style=" stroke:none;fill-rule:nonzero;fill:rgb(10.196078%,72.941176%,62.352941%);fill-opacity:1;" />
<path d="M 373.101562 273.609375 L 373.101562 281.140625 C 373.101562 314.632812 345.941406 341.789062 312.449219 341.789062 L 254.152344 341.789062 L 254.152344 268.1875 L 367.671875 268.1875 C 370.671875 268.1875 373.101562 270.613281 373.101562 273.609375 Z M 373.101562 273.609375 " style=" stroke:none;fill-rule:nonzero;fill:rgb(10.196078%,72.941176%,62.352941%);fill-opacity:1;" />
</g>
</svg>