<svg xmlns="http://www.w3.org/2000/svg" height="512pt" version="1.1" viewBox="0 0 512 512" width="512pt">
<g id="surface1">
<path d="M 512 256 C 512 397.386719 397.386719 512 256 512 C 114.613281 512 0 397.386719 0 256 C 0 114.613281 114.613281 0 256 0 C 397.386719 0 512 114.613281 512 256 Z M 512 256 " style=" stroke:none;fill-rule:nonzero;fill:rgb(70.980392%,88.627451%,21.568627%);fill-opacity:1;" />
<path d="M 512 256 C 512 282.050781 508.109375 307.191406 500.871094 330.871094 C 468.859375 435.71875 371.328125 512 256 512 C 151.441406 512 61.511719 449.300781 21.769531 359.449219 C 7.769531 327.820312 0 292.820312 0 256 C 0 209.78125 12.25 166.429688 33.679688 129 C 77.800781 206.070312 160.839844 258 256 258 C 351.160156 258 434.210938 206.070312 478.320312 129 C 499.75 166.429688 512 209.78125 512 256 Z M 512 256 " style=" stroke:none;fill-rule:nonzero;fill:rgb(58.431373%,83.921569%,0%);fill-opacity:1;" />
<path d="M 30.742188 377.703125 C 37.898438 390.921875 46.171875 403.441406 55.460938 415.128906 C 102.359375 474.148438 174.761719 512 256 512 C 337.238281 512 409.640625 474.148438 456.539062 415.128906 C 465.828125 403.441406 474.101562 390.921875 481.257812 377.703125 Z M 30.742188 377.703125 " style=" stroke:none;fill-rule:nonzero;fill:rgb(52.156863%,68.627451%,7.058824%);fill-opacity:1;" />
<path d="M 384.339844 232.988281 C 384.339844 254.371094 367.039062 271.730469 345.671875 271.828125 L 345.480469 271.828125 C 324.03125 271.828125 306.628906 254.441406 306.628906 232.988281 C 306.628906 221.640625 302.488281 211.238281 295.628906 203.238281 C 293.960938 201.28125 292.140625 199.46875 290.160156 197.828125 C 283.558594 192.300781 275.398438 188.609375 266.441406 187.519531 C 265.898438 187.449219 265.359375 187.390625 264.820312 187.351562 L 264.808594 187.351562 C 263.488281 187.21875 262.171875 187.160156 260.820312 187.160156 C 246.679688 187.160156 234.011719 193.601562 225.609375 203.691406 C 222.050781 207.941406 219.269531 212.851562 217.441406 218.199219 C 215.859375 222.828125 214.988281 227.820312 214.988281 232.988281 L 214.988281 508.730469 C 201.738281 506.601562 188.828125 503.449219 176.339844 499.359375 C 162.789062 494.929688 149.738281 489.398438 137.300781 482.871094 L 137.300781 232.988281 C 137.300781 226.371094 137.820312 219.871094 138.828125 213.53125 C 144.21875 179.628906 163.441406 150.28125 190.519531 131.480469 C 210.480469 117.601562 234.710938 109.46875 260.820312 109.46875 C 268.050781 109.46875 275.148438 110.089844 282.039062 111.289062 C 317.488281 117.449219 347.808594 138.789062 366.03125 168.339844 C 377.640625 187.148438 384.339844 209.300781 384.339844 232.988281 Z M 384.339844 232.988281 " style=" stroke:none;fill-rule:nonzero;fill:rgb(100%,100%,100%);fill-opacity:1;" />
<path d="M 345.671875 232.359375 L 345.671875 271.828125 L 345.480469 271.828125 C 324.03125 271.828125 306.628906 254.441406 306.628906 232.988281 C 306.628906 221.640625 302.488281 211.238281 295.628906 203.238281 C 293.960938 201.28125 292.140625 199.46875 290.160156 197.828125 C 283.558594 192.300781 275.398438 188.609375 266.441406 187.519531 C 265.898438 187.449219 265.359375 187.390625 264.820312 187.351562 L 264.808594 187.351562 C 263.488281 187.21875 262.171875 187.160156 260.820312 187.160156 C 246.679688 187.160156 234.011719 193.601562 225.609375 203.691406 C 222.050781 207.941406 219.269531 212.851562 217.441406 218.199219 C 215.859375 222.828125 214.988281 227.820312 214.988281 232.988281 L 214.988281 508.730469 C 201.738281 506.601562 188.828125 503.449219 176.339844 499.359375 L 176.339844 232.359375 C 176.339844 230.898438 176.378906 229.441406 176.449219 228 C 176.519531 226.558594 176.628906 225.128906 176.78125 223.699219 C 176.789062 223.53125 176.808594 223.351562 176.839844 223.179688 C 178.789062 205.058594 186.449219 188.660156 198 175.808594 C 198.480469 175.269531 198.980469 174.738281 199.46875 174.210938 C 199.96875 173.679688 200.480469 173.160156 200.988281 172.648438 C 201.980469 171.640625 203.019531 170.648438 204.078125 169.691406 C 204.101562 169.679688 204.109375 169.660156 204.128906 169.648438 C 204.671875 169.160156 205.210938 168.679688 205.761719 168.210938 C 206.398438 167.660156 207.039062 167.121094 207.691406 166.589844 C 208.160156 166.199219 208.640625 165.820312 209.128906 165.449219 C 209.699219 165 210.28125 164.570312 210.859375 164.140625 C 211.449219 163.699219 212.039062 163.28125 212.628906 162.871094 C 213.191406 162.480469 213.738281 162.101562 214.308594 161.730469 C 214.398438 161.660156 214.5 161.601562 214.589844 161.539062 C 215.109375 161.199219 215.640625 160.859375 216.171875 160.53125 C 216.238281 160.488281 216.308594 160.441406 216.378906 160.398438 C 216.960938 160.039062 217.550781 159.679688 218.148438 159.328125 C 218.660156 159.03125 219.179688 158.730469 219.699219 158.441406 C 219.890625 158.328125 220.070312 158.230469 220.261719 158.128906 C 220.828125 157.808594 221.398438 157.511719 221.980469 157.210938 C 222.628906 156.871094 223.28125 156.539062 223.941406 156.21875 C 224.601562 155.898438 225.261719 155.578125 225.929688 155.28125 C 226.601562 154.980469 227.269531 154.679688 227.949219 154.390625 C 228.621094 154.109375 229.289062 153.828125 229.960938 153.558594 C 230.671875 153.289062 231.378906 153.019531 232.089844 152.761719 C 232.78125 152.511719 233.46875 152.269531 234.160156 152.039062 C 234.828125 151.808594 235.5 151.601562 236.179688 151.390625 C 236.308594 151.351562 236.441406 151.308594 236.570312 151.28125 C 237.101562 151.109375 237.621094 150.960938 238.160156 150.808594 C 238.539062 150.699219 238.910156 150.601562 239.289062 150.511719 C 239.890625 150.339844 240.488281 150.191406 241.101562 150.050781 C 241.578125 149.929688 242.058594 149.820312 242.539062 149.710938 C 242.730469 149.671875 242.921875 149.628906 243.109375 149.589844 C 243.578125 149.480469 244.039062 149.390625 244.511719 149.300781 C 244.839844 149.230469 245.171875 149.171875 245.5 149.109375 C 245.800781 149.050781 246.109375 148.988281 246.410156 148.941406 C 246.96875 148.839844 247.539062 148.75 248.109375 148.671875 C 248.660156 148.578125 249.210938 148.5 249.761719 148.441406 C 250.199219 148.371094 250.640625 148.320312 251.078125 148.269531 C 251.441406 148.21875 251.800781 148.179688 252.160156 148.148438 C 252.339844 148.128906 252.53125 148.109375 252.71875 148.101562 C 253.300781 148.03125 253.890625 147.980469 254.480469 147.941406 C 255.101562 147.890625 255.71875 147.851562 256.339844 147.820312 C 256.820312 147.789062 257.289062 147.769531 257.769531 147.761719 C 258.121094 147.738281 258.46875 147.730469 258.808594 147.71875 C 259.539062 147.699219 260.269531 147.691406 261 147.691406 C 261.5 147.691406 262 147.691406 262.5 147.710938 C 285.28125 148.101562 305.878906 157.488281 320.871094 172.488281 C 322.609375 174.230469 324.28125 176.039062 325.859375 177.929688 C 326.25 178.390625 326.640625 178.859375 327 179.328125 C 330.03125 183.070312 332.730469 187.078125 335.070312 191.308594 C 335.359375 191.839844 335.648438 192.371094 335.929688 192.910156 C 336.21875 193.441406 336.488281 193.980469 336.769531 194.53125 C 337.308594 195.609375 337.828125 196.710938 338.328125 197.820312 C 338.578125 198.378906 338.820312 198.929688 339.050781 199.488281 C 339.511719 200.558594 339.929688 201.628906 340.328125 202.71875 C 340.589844 203.378906 340.828125 204.058594 341.058594 204.738281 C 341.160156 205.03125 341.261719 205.320312 341.359375 205.621094 C 341.519531 206.078125 341.671875 206.550781 341.808594 207.019531 C 341.949219 207.449219 342.078125 207.871094 342.199219 208.308594 C 342.339844 208.761719 342.46875 209.21875 342.589844 209.679688 C 342.929688 210.859375 343.230469 212.039062 343.5 213.238281 C 343.660156 213.921875 343.808594 214.609375 343.949219 215.300781 C 344.078125 215.929688 344.199219 216.558594 344.308594 217.179688 C 344.371094 217.480469 344.421875 217.789062 344.46875 218.089844 C 344.550781 218.550781 344.621094 219 344.691406 219.46875 C 344.78125 220.050781 344.871094 220.648438 344.941406 221.238281 C 344.988281 221.609375 345.039062 221.96875 345.070312 222.328125 C 345.140625 222.851562 345.199219 223.371094 345.25 223.890625 C 345.320312 224.539062 345.371094 225.191406 345.421875 225.851562 C 345.46875 226.410156 345.5 226.96875 345.53125 227.539062 C 345.550781 227.820312 345.570312 228.109375 345.570312 228.398438 C 345.609375 228.988281 345.628906 229.578125 345.640625 230.171875 C 345.660156 230.898438 345.671875 231.628906 345.671875 232.359375 Z M 345.671875 232.359375 " style=" stroke:none;fill-rule:nonzero;fill:rgb(89.411765%,92.156863%,97.254902%);fill-opacity:1;" />
<path d="M 214.988281 461.300781 L 214.988281 508.730469 C 201.738281 506.601562 188.828125 503.449219 176.339844 499.359375 C 162.789062 494.929688 149.738281 489.398438 137.300781 482.871094 L 137.300781 455.148438 C 149.25 460.890625 162.429688 464.5 176.339844 465.488281 C 178.910156 465.671875 181.5 465.761719 184.109375 465.761719 C 194.839844 465.761719 205.210938 464.199219 214.988281 461.300781 Z M 214.988281 461.300781 " style=" stroke:none;fill-rule:nonzero;fill:rgb(89.803922%,16.078431%,16.078431%);fill-opacity:1;" />
<path d="M 214.992188 338.292969 L 214.992188 398.859375 C 205.207031 401.78125 194.84375 403.339844 184.113281 403.339844 C 181.496094 403.339844 178.90625 403.25 176.335938 403.066406 C 162.429688 402.085938 149.257812 398.46875 137.296875 392.722656 L 137.296875 332.144531 C 149.246094 337.882812 162.429688 341.5 176.335938 342.480469 C 178.90625 342.664062 181.496094 342.757812 184.113281 342.757812 C 194.84375 342.753906 205.207031 341.195312 214.992188 338.292969 Z M 214.992188 338.292969 " style=" stroke:none;fill-rule:nonzero;fill:rgb(89.803922%,16.078431%,16.078431%);fill-opacity:1;" />
<path d="M 217.441406 218.199219 C 215.855469 222.832031 214.992188 227.816406 214.992188 232.984375 L 214.992188 279.527344 C 205.207031 282.445312 194.84375 284.007812 184.113281 284.007812 C 181.496094 284.007812 178.90625 283.914062 176.335938 283.730469 C 162.429688 282.75 149.257812 279.132812 137.296875 273.386719 L 137.296875 232.988281 C 137.296875 226.367188 137.820312 219.867188 138.828125 213.527344 C 150.515625 218.914062 163.328125 222.28125 176.832031 223.183594 C 179.238281 223.339844 181.660156 223.421875 184.109375 223.421875 C 195.742188 223.421875 206.941406 221.585938 217.441406 218.199219 Z M 217.441406 218.199219 " style=" stroke:none;fill-rule:nonzero;fill:rgb(89.803922%,16.078431%,16.078431%);fill-opacity:1;" />
<path d="M 261.21875 161 C 261.21875 170.390625 263.074219 179.351562 266.441406 187.519531 C 265.902344 187.445312 265.359375 187.390625 264.816406 187.34375 L 264.808594 187.34375 C 263.488281 187.21875 262.164062 187.160156 260.816406 187.160156 C 246.679688 187.160156 234.011719 193.597656 225.613281 203.691406 C 213.953125 197.230469 204.34375 187.527344 198 175.804688 C 192.65625 165.9375 189.617188 154.644531 189.617188 142.640625 C 189.617188 138.839844 189.921875 135.113281 190.519531 131.476562 C 210.484375 117.597656 234.710938 109.464844 260.816406 109.464844 C 268.050781 109.464844 275.144531 110.089844 282.039062 111.289062 C 272.1875 120.984375 265.203125 133.589844 262.496094 147.707031 C 261.652344 152.011719 261.21875 156.457031 261.21875 161 Z M 261.21875 161 " style=" stroke:none;fill-rule:nonzero;fill:rgb(89.803922%,16.078431%,16.078431%);fill-opacity:1;" />
<path d="M 384.335938 232.984375 C 384.335938 254.375 367.042969 271.734375 345.671875 271.835938 L 345.480469 271.835938 C 324.027344 271.835938 306.632812 254.4375 306.632812 232.984375 C 306.632812 221.640625 302.492188 211.238281 295.632812 203.234375 C 303.640625 192.6875 313.964844 184.003906 325.851562 177.9375 C 337.859375 171.804688 351.453125 168.34375 365.867188 168.34375 L 366.03125 168.34375 C 377.636719 187.152344 384.335938 209.304688 384.335938 232.984375 Z M 384.335938 232.984375 " style=" stroke:none;fill-rule:nonzero;fill:rgb(89.803922%,16.078431%,16.078431%);fill-opacity:1;" />
<path d="M 214.988281 461.300781 L 214.988281 508.730469 C 201.738281 506.601562 188.828125 503.449219 176.339844 499.359375 L 176.339844 465.488281 C 178.910156 465.671875 181.5 465.761719 184.109375 465.761719 C 194.839844 465.761719 205.210938 464.199219 214.988281 461.300781 Z M 214.988281 461.300781 " style=" stroke:none;fill-rule:nonzero;fill:rgb(72.941176%,5.098039%,36.078431%);fill-opacity:1;" />
<path d="M 184.113281 342.753906 C 194.84375 342.753906 205.207031 341.195312 214.992188 338.292969 L 214.992188 398.859375 C 205.207031 401.78125 194.84375 403.339844 184.113281 403.339844 C 181.496094 403.339844 178.90625 403.25 176.335938 403.066406 L 176.335938 342.480469 C 178.90625 342.664062 181.496094 342.753906 184.113281 342.753906 Z M 184.113281 342.753906 " style=" stroke:none;fill-rule:nonzero;fill:rgb(72.941176%,5.098039%,36.078431%);fill-opacity:1;" />
<path d="M 184.113281 223.421875 C 195.742188 223.421875 206.941406 221.585938 217.441406 218.199219 C 215.855469 222.832031 214.992188 227.816406 214.992188 232.984375 L 214.992188 279.527344 C 205.207031 282.445312 194.84375 284.007812 184.113281 284.007812 C 181.496094 284.007812 178.90625 283.914062 176.335938 283.730469 L 176.335938 232.363281 C 176.335938 229.257812 176.503906 226.191406 176.832031 223.183594 C 179.238281 223.339844 181.660156 223.421875 184.113281 223.421875 Z M 184.113281 223.421875 " style=" stroke:none;fill-rule:nonzero;fill:rgb(72.941176%,5.098039%,36.078431%);fill-opacity:1;" />
<path d="M 261.21875 161 C 261.21875 170.390625 263.074219 179.351562 266.441406 187.519531 C 265.902344 187.445312 265.359375 187.390625 264.816406 187.34375 L 264.808594 187.34375 C 263.488281 187.21875 262.164062 187.160156 260.816406 187.160156 C 246.679688 187.160156 234.011719 193.597656 225.613281 203.691406 C 213.953125 197.230469 204.34375 187.527344 198 175.804688 C 213.496094 158.546875 235.976562 147.6875 261 147.6875 C 261.503906 147.6875 262 147.6875 262.496094 147.707031 C 261.652344 152.011719 261.21875 156.457031 261.21875 161 Z M 261.21875 161 " style=" stroke:none;fill-rule:nonzero;fill:rgb(72.941176%,5.098039%,36.078431%);fill-opacity:1;" />
<path d="M 345.671875 232.363281 L 345.671875 271.835938 L 345.480469 271.835938 C 324.027344 271.835938 306.632812 254.4375 306.632812 232.984375 C 306.632812 221.640625 302.492188 211.238281 295.632812 203.234375 C 303.640625 192.6875 313.964844 184.003906 325.851562 177.9375 C 338.226562 192.652344 345.671875 211.644531 345.671875 232.363281 Z M 345.671875 232.363281 " style=" stroke:none;fill-rule:nonzero;fill:rgb(72.941176%,5.098039%,36.078431%);fill-opacity:1;" />
</g>
</svg>