<svg xmlns="http://www.w3.org/2000/svg" height="512pt" version="1.1" viewBox="0 0 512 512" width="512pt">
<g id="surface1">
<path d="M 512 256 C 512 397.386719 397.386719 512 256 512 C 114.613281 512 0 397.386719 0 256 C 0 114.613281 114.613281 0 256 0 C 397.386719 0 512 114.613281 512 256 Z M 512 256 " style=" stroke:none;fill-rule:nonzero;fill:rgb(100%,91.372549%,33.333333%);fill-opacity:1;" />
<path d="M 512 256 C 512 282.050781 508.109375 307.191406 500.871094 330.871094 C 468.859375 435.71875 371.328125 512 256 512 C 151.441406 512 61.511719 449.300781 21.769531 359.449219 C 7.769531 327.820312 0 292.820312 0 256 C 0 209.78125 12.25 166.429688 33.679688 129 C 77.800781 206.070312 160.839844 258 256 258 C 351.160156 258 434.210938 206.070312 478.320312 129 C 499.75 166.429688 512 209.78125 512 256 Z M 512 256 " style=" stroke:none;fill-rule:nonzero;fill:rgb(100%,81.960784%,7.058824%);fill-opacity:1;" />
<path d="M 30.742188 377.703125 C 37.898438 390.921875 46.171875 403.441406 55.460938 415.128906 C 102.359375 474.148438 174.761719 512 256 512 C 337.238281 512 409.640625 474.148438 456.539062 415.128906 C 465.828125 403.441406 474.101562 390.921875 481.257812 377.703125 Z M 30.742188 377.703125 " style=" stroke:none;fill-rule:nonzero;fill:rgb(100%,62.352941%,0%);fill-opacity:1;" />
<path d="M 411.28125 333.960938 C 411.28125 334.699219 411.269531 335.449219 411.261719 336.191406 C 411.25 336.949219 411.238281 337.699219 411.210938 338.449219 C 411.191406 339.210938 411.160156 339.960938 411.128906 340.71875 C 411.109375 341.21875 411.089844 341.730469 411.058594 342.238281 C 411.050781 342.460938 411.03125 342.679688 411.019531 342.890625 C 411 343.359375 410.96875 343.828125 410.929688 344.300781 C 410.890625 345.03125 410.828125 345.761719 410.769531 346.488281 C 410.730469 347.039062 410.679688 347.589844 410.628906 348.140625 C 410.628906 348.191406 410.621094 348.25 410.621094 348.300781 C 410.621094 348.339844 410.609375 348.371094 410.609375 348.410156 C 410.539062 349.101562 410.480469 349.789062 410.398438 350.488281 C 410.339844 351.03125 410.28125 351.578125 410.21875 352.128906 L 398.988281 468.378906 C 398.828125 468.480469 398.671875 468.589844 398.511719 468.699219 C 382.660156 479.328125 365.558594 488.25 347.46875 495.171875 C 327.898438 502.660156 307.160156 507.820312 285.621094 510.300781 C 275.898438 511.421875 266.019531 512 256 512 C 245.980469 512 236.101562 511.421875 226.378906 510.300781 C 215.488281 509.050781 204.800781 507.109375 194.371094 504.53125 C 184.171875 502.011719 174.210938 498.878906 164.53125 495.171875 C 146.261719 488.179688 128.988281 479.148438 113.011719 468.378906 L 101.78125 352.128906 C 101.71875 351.578125 101.660156 351.03125 101.601562 350.488281 C 94.269531 281.171875 133.640625 218.480469 193.269531 192.121094 C 212.390625 183.671875 233.589844 178.949219 256 178.949219 L 256.210938 178.949219 C 256.46875 178.949219 256.738281 178.949219 257 178.960938 C 258.480469 178.960938 259.949219 178.988281 261.421875 179.050781 C 262.21875 179.078125 263.011719 179.109375 263.808594 179.160156 C 285.671875 180.230469 306.238281 185.789062 324.691406 194.921875 C 340.171875 202.550781 354.148438 212.699219 366.148438 224.78125 C 368.769531 227.421875 371.300781 230.160156 373.730469 232.980469 C 375.351562 234.871094 376.921875 236.789062 378.449219 238.738281 C 378.828125 239.230469 379.210938 239.730469 379.589844 240.21875 C 380.339844 241.210938 381.078125 242.199219 381.808594 243.210938 C 382.539062 244.21875 383.261719 245.230469 383.960938 246.261719 C 385.019531 247.789062 386.050781 249.351562 387.050781 250.921875 C 387.71875 251.96875 388.378906 253.03125 389.019531 254.089844 C 389.660156 255.160156 390.289062 256.230469 390.910156 257.308594 C 391.53125 258.398438 392.140625 259.488281 392.730469 260.578125 C 393.621094 262.230469 394.480469 263.890625 395.308594 265.570312 C 397.320312 269.648438 399.160156 273.820312 400.820312 278.078125 C 401.210938 279.089844 401.589844 280.101562 401.960938 281.121094 C 402.179688 281.710938 402.390625 282.308594 402.601562 282.898438 C 402.96875 283.941406 403.320312 284.988281 403.660156 286.039062 C 404.300781 287.988281 404.898438 289.949219 405.460938 291.929688 C 405.800781 293.148438 406.128906 294.371094 406.449219 295.601562 C 407.269531 298.789062 407.980469 302.011719 408.601562 305.269531 C 408.800781 306.308594 408.980469 307.339844 409.148438 308.390625 C 410.550781 316.71875 411.28125 325.261719 411.28125 333.960938 Z M 411.28125 333.960938 " style=" stroke:none;fill-rule:nonzero;fill:rgb(100%,65.882353%,47.843137%);fill-opacity:1;" />
<path d="M 411.28125 333.960938 C 411.28125 334.699219 411.269531 335.449219 411.261719 336.191406 C 411.25 336.949219 411.238281 337.699219 411.210938 338.449219 C 411.191406 339.210938 411.160156 339.960938 411.128906 340.71875 C 411.109375 341.21875 411.089844 341.730469 411.058594 342.238281 C 411.050781 342.460938 411.03125 342.679688 411.019531 342.890625 C 411 343.359375 410.96875 343.828125 410.929688 344.300781 C 410.890625 345.03125 410.828125 345.761719 410.769531 346.488281 C 410.730469 347.039062 410.679688 347.589844 410.628906 348.140625 C 410.628906 348.191406 410.621094 348.25 410.621094 348.300781 C 410.621094 348.339844 410.609375 348.371094 410.609375 348.410156 C 410.539062 349.101562 410.480469 349.789062 410.398438 350.488281 C 410.339844 351.03125 410.28125 351.578125 410.21875 352.128906 L 398.988281 468.378906 C 398.828125 468.480469 398.671875 468.589844 398.511719 468.699219 C 382.660156 479.328125 365.558594 488.25 347.46875 495.171875 C 327.898438 502.660156 307.160156 507.820312 285.621094 510.300781 C 275.898438 511.421875 266.019531 512 256 512 C 245.980469 512 236.101562 511.421875 226.378906 510.300781 C 215.488281 509.050781 204.800781 507.109375 194.371094 504.53125 L 179.238281 349.851562 L 178.511719 342.390625 C 171.691406 283.71875 196.660156 229.371094 239.058594 195.5 C 244.441406 191.199219 250.089844 187.238281 256 183.640625 C 256.328125 183.429688 256.671875 183.230469 257 183.03125 C 259.238281 181.691406 261.511719 180.398438 263.808594 179.160156 C 285.671875 180.230469 306.238281 185.789062 324.691406 194.921875 C 340.171875 202.550781 354.148438 212.699219 366.148438 224.78125 C 368.769531 227.421875 371.300781 230.160156 373.730469 232.980469 C 375.351562 234.871094 376.921875 236.789062 378.449219 238.738281 C 378.828125 239.230469 379.210938 239.730469 379.589844 240.21875 C 380.339844 241.210938 381.078125 242.199219 381.808594 243.210938 C 382.539062 244.21875 383.25 245.230469 383.960938 246.261719 C 385.019531 247.789062 386.050781 249.351562 387.050781 250.921875 C 387.71875 251.96875 388.371094 253.03125 389.019531 254.089844 C 389.660156 255.160156 390.289062 256.230469 390.910156 257.308594 C 391.53125 258.398438 392.140625 259.488281 392.730469 260.578125 C 393.621094 262.230469 394.480469 263.890625 395.308594 265.570312 C 397.320312 269.648438 399.160156 273.820312 400.820312 278.078125 C 401.210938 279.089844 401.589844 280.101562 401.960938 281.121094 C 402.179688 281.710938 402.390625 282.308594 402.601562 282.898438 C 402.96875 283.941406 403.320312 284.988281 403.660156 286.039062 C 404.300781 287.988281 404.898438 289.949219 405.460938 291.929688 C 405.800781 293.148438 406.128906 294.371094 406.449219 295.601562 C 407.269531 298.789062 407.980469 302.011719 408.601562 305.269531 C 408.800781 306.308594 408.980469 307.339844 409.148438 308.390625 C 410.550781 316.71875 411.28125 325.261719 411.28125 333.960938 Z M 411.28125 333.960938 " style=" stroke:none;fill-rule:nonzero;fill:rgb(91.764706%,50.980392%,30.588235%);fill-opacity:1;" />
<path d="M 411.28125 333.960938 C 411.28125 334.699219 411.269531 335.449219 411.261719 336.191406 C 411.25 336.949219 411.238281 337.699219 411.210938 338.449219 C 411.191406 339.210938 411.160156 339.960938 411.128906 340.71875 C 411.109375 341.21875 411.089844 341.730469 411.058594 342.238281 C 411.050781 342.460938 411.03125 342.679688 411.019531 342.890625 C 411 343.359375 410.96875 343.828125 410.929688 344.300781 C 410.890625 345.03125 410.828125 345.761719 410.769531 346.488281 C 410.730469 347.039062 410.679688 347.589844 410.628906 348.140625 C 410.628906 348.191406 410.621094 348.25 410.621094 348.300781 C 410.621094 348.339844 410.609375 348.371094 410.609375 348.410156 C 410.53125 349.101562 410.449219 349.789062 410.371094 350.480469 C 410.308594 351.03125 410.25 351.578125 410.179688 352.128906 L 398.511719 468.699219 C 382.660156 479.328125 365.558594 488.25 347.46875 495.171875 C 327.898438 502.660156 307.160156 507.820312 285.621094 510.300781 C 275.898438 511.421875 266.019531 512 256 512 L 256 179.050781 C 256.070312 179.019531 256.140625 178.980469 256.210938 178.949219 C 256.46875 178.949219 256.738281 178.949219 257 178.960938 C 258.480469 178.960938 259.949219 178.988281 261.421875 179.050781 C 262.21875 179.078125 263.011719 179.109375 263.808594 179.160156 C 285.671875 180.230469 306.238281 185.789062 324.691406 194.921875 C 340.171875 202.550781 354.148438 212.699219 366.148438 224.78125 C 368.769531 227.421875 371.300781 230.160156 373.730469 232.980469 C 375.351562 234.871094 376.921875 236.789062 378.449219 238.738281 C 378.828125 239.230469 379.210938 239.730469 379.589844 240.21875 C 380.339844 241.210938 381.078125 242.199219 381.808594 243.210938 C 382.539062 244.21875 383.261719 245.230469 383.960938 246.261719 C 385.019531 247.789062 386.050781 249.351562 387.050781 250.921875 C 387.71875 251.96875 388.378906 253.03125 389.019531 254.089844 C 389.660156 255.160156 390.289062 256.230469 390.910156 257.308594 C 391.53125 258.398438 392.140625 259.488281 392.730469 260.578125 C 393.621094 262.230469 394.480469 263.890625 395.308594 265.570312 C 397.320312 269.648438 399.160156 273.820312 400.820312 278.078125 C 401.210938 279.089844 401.589844 280.101562 401.960938 281.121094 C 402.179688 281.710938 402.390625 282.308594 402.601562 282.898438 C 402.96875 283.941406 403.320312 284.988281 403.660156 286.039062 C 404.300781 287.988281 404.898438 289.949219 405.460938 291.929688 C 405.800781 293.148438 406.128906 294.371094 406.449219 295.601562 C 407.269531 298.789062 407.980469 302.011719 408.601562 305.269531 C 408.800781 306.308594 408.980469 307.339844 409.148438 308.390625 C 410.550781 316.71875 411.28125 325.261719 411.28125 333.960938 Z M 411.28125 333.960938 " style=" stroke:none;fill-rule:nonzero;fill:rgb(77.254902%,34.509804%,20.784314%);fill-opacity:1;" />
<path d="M 438.480469 393.601562 L 421.480469 451.328125 C 414.308594 457.410156 406.800781 463.101562 398.988281 468.378906 C 398.828125 468.480469 398.671875 468.589844 398.511719 468.699219 C 382.660156 479.328125 365.558594 488.25 347.46875 495.171875 C 327.898438 502.660156 307.160156 507.820312 285.621094 510.300781 C 275.898438 511.421875 266.019531 512 256 512 C 245.980469 512 236.101562 511.421875 226.378906 510.300781 C 215.488281 509.050781 204.800781 507.109375 194.371094 504.53125 C 184.171875 502.011719 174.210938 498.878906 164.53125 495.171875 C 146.261719 488.179688 128.988281 479.148438 113.011719 468.378906 C 105.199219 463.101562 97.691406 457.410156 90.519531 451.328125 L 73.519531 393.601562 C 72.96875 391.011719 72.699219 388.449219 72.699219 385.921875 C 72.699219 385.390625 72.710938 384.851562 72.738281 384.328125 C 72.738281 384.25 72.738281 384.179688 72.75 384.101562 C 72.769531 383.648438 72.800781 383.191406 72.839844 382.75 C 72.878906 382.300781 72.929688 381.851562 72.980469 381.410156 L 73.050781 380.941406 C 73.171875 380.050781 73.328125 379.179688 73.519531 378.308594 L 73.839844 376.949219 C 73.898438 376.71875 73.960938 376.488281 74.03125 376.261719 L 74.691406 374.171875 C 74.769531 373.898438 74.871094 373.640625 74.96875 373.378906 C 75.109375 372.988281 75.261719 372.609375 75.421875 372.230469 C 75.601562 371.78125 75.800781 371.328125 76 370.890625 L 78.308594 366.640625 C 78.550781 366.261719 78.800781 365.890625 79.050781 365.53125 C 79.289062 365.171875 79.539062 364.820312 79.789062 364.480469 L 80.011719 364.179688 C 80.289062 363.820312 80.570312 363.460938 80.851562 363.109375 C 80.859375 363.101562 80.859375 363.101562 80.871094 363.089844 C 81.191406 362.699219 81.519531 362.308594 81.859375 361.929688 L 82.960938 360.738281 C 83.230469 360.460938 83.511719 360.191406 83.789062 359.910156 C 83.851562 359.851562 83.910156 359.789062 83.96875 359.738281 C 84.308594 359.410156 84.660156 359.089844 85.011719 358.78125 L 86.398438 357.609375 C 86.738281 357.351562 87.078125 357.078125 87.421875 356.828125 L 87.519531 356.761719 C 87.921875 356.460938 88.320312 356.179688 88.730469 355.910156 C 89.140625 355.628906 89.550781 355.359375 89.980469 355.089844 C 89.988281 355.078125 90.011719 355.078125 90.019531 355.070312 C 90.410156 354.828125 90.808594 354.589844 91.21875 354.371094 L 91.5 354.210938 C 91.871094 354.011719 92.238281 353.808594 92.609375 353.621094 L 92.789062 353.53125 C 93.148438 353.351562 93.511719 353.179688 93.871094 353.011719 L 94.230469 352.851562 C 95.121094 352.449219 96.03125 352.089844 96.96875 351.761719 L 97.179688 351.691406 C 97.539062 351.570312 97.910156 351.449219 98.269531 351.339844 C 98.441406 351.28125 98.609375 351.230469 98.78125 351.191406 L 100.140625 350.820312 C 100.601562 350.699219 101.070312 350.601562 101.539062 350.5 C 101.558594 350.488281 101.578125 350.488281 101.601562 350.488281 C 102.488281 350.300781 103.390625 350.148438 104.308594 350.039062 L 108.96875 349.738281 C 127.210938 349.738281 142.609375 363.289062 144.941406 381.371094 L 144.949219 381.449219 L 145.851562 384.601562 C 146.53125 366.441406 160.789062 351.28125 179.238281 349.851562 C 180.179688 349.78125 181.140625 349.738281 182.101562 349.738281 L 182.878906 349.738281 C 202.308594 349.738281 218.28125 365.039062 219.109375 384.449219 L 219.238281 387.558594 C 218.359375 366.929688 234.839844 349.738281 255.46875 349.738281 L 256.53125 349.738281 C 277.160156 349.738281 293.640625 366.929688 292.761719 387.558594 L 292.890625 384.449219 C 293.71875 365.039062 309.691406 349.738281 329.121094 349.738281 L 329.898438 349.738281 C 350.148438 349.738281 366.128906 366.199219 366.171875 385.859375 L 367.050781 381.441406 L 367.058594 381.371094 C 368.21875 372.328125 372.660156 364.421875 379.078125 358.78125 C 380.28125 357.71875 381.558594 356.738281 382.890625 355.851562 C 383.78125 355.261719 384.699219 354.699219 385.640625 354.179688 C 401.890625 349.75 402.460938 349.738281 403.03125 349.738281 C 405.550781 349.738281 408.011719 349.988281 410.371094 350.480469 C 410.378906 350.480469 410.390625 350.480469 410.398438 350.488281 C 429.621094 354.429688 442.789062 373.511719 438.480469 393.601562 Z M 438.480469 393.601562 " style=" stroke:none;fill-rule:nonzero;fill:rgb(100%,91.372549%,33.333333%);fill-opacity:1;" />
<path d="M 438.480469 393.601562 L 421.480469 451.328125 C 414.308594 457.410156 406.800781 463.101562 398.988281 468.378906 C 398.828125 468.480469 398.671875 468.589844 398.511719 468.699219 C 382.660156 479.328125 365.558594 488.25 347.46875 495.171875 C 327.898438 502.660156 307.160156 507.820312 285.621094 510.300781 C 275.898438 511.421875 266.019531 512 256 512 L 256 349.738281 L 256.53125 349.738281 C 277.160156 349.738281 293.640625 366.929688 292.761719 387.558594 L 292.890625 384.449219 C 293.71875 365.039062 309.691406 349.738281 329.121094 349.738281 L 329.898438 349.738281 C 350.148438 349.738281 366.128906 366.199219 366.171875 385.859375 L 367.050781 381.441406 L 367.058594 381.371094 C 368.21875 372.328125 372.660156 364.421875 379.078125 358.78125 C 380.28125 357.71875 381.558594 356.738281 382.890625 355.851562 C 383.78125 355.261719 384.699219 354.699219 385.640625 354.179688 C 401.890625 349.75 402.460938 349.738281 403.03125 349.738281 C 405.550781 349.738281 408.011719 349.988281 410.371094 350.480469 C 410.378906 350.480469 410.390625 350.480469 410.398438 350.488281 C 429.621094 354.429688 442.789062 373.511719 438.480469 393.601562 Z M 438.480469 393.601562 " style=" stroke:none;fill-rule:nonzero;fill:rgb(100%,62.352941%,0%);fill-opacity:1;" />
<path d="M 438.480469 393.601562 L 421.480469 451.328125 C 414.308594 457.410156 406.800781 463.101562 398.988281 468.378906 C 398.828125 468.480469 398.671875 468.589844 398.511719 468.699219 C 382.660156 479.328125 365.558594 488.25 347.46875 495.171875 L 367.050781 381.441406 L 367.058594 381.371094 C 368.21875 372.328125 372.660156 364.421875 379.078125 358.78125 C 380.28125 357.71875 381.558594 356.738281 382.890625 355.851562 C 383.78125 355.25 384.699219 354.699219 385.640625 354.179688 C 401.890625 349.75 402.460938 349.738281 403.03125 349.738281 C 405.550781 349.738281 408.011719 349.988281 410.371094 350.480469 C 410.378906 350.480469 410.390625 350.480469 410.398438 350.488281 C 429.621094 354.429688 442.789062 373.511719 438.480469 393.601562 Z M 438.480469 393.601562 " style=" stroke:none;fill-rule:nonzero;fill:rgb(89.803922%,16.078431%,16.078431%);fill-opacity:1;" />
<path d="M 113.011719 468.378906 C 105.199219 463.101562 97.691406 457.410156 90.519531 451.328125 L 73.519531 393.601562 C 72.96875 391.011719 72.699219 388.449219 72.699219 385.921875 C 72.699219 385.390625 72.710938 384.851562 72.738281 384.328125 C 72.738281 384.25 72.738281 384.179688 72.75 384.101562 C 72.769531 383.648438 72.800781 383.191406 72.839844 382.75 C 72.878906 382.300781 72.929688 381.851562 72.980469 381.410156 L 73.050781 380.941406 C 73.171875 380.050781 73.328125 379.179688 73.519531 378.308594 L 73.839844 376.949219 C 73.898438 376.71875 73.960938 376.488281 74.03125 376.261719 L 74.691406 374.171875 C 74.769531 373.898438 74.871094 373.640625 74.96875 373.378906 C 75.109375 372.988281 75.261719 372.609375 75.421875 372.230469 C 75.601562 371.78125 75.800781 371.328125 76 370.890625 L 78.308594 366.640625 C 78.550781 366.261719 78.800781 365.890625 79.050781 365.53125 C 79.289062 365.171875 79.539062 364.820312 79.789062 364.480469 L 80.011719 364.179688 C 80.289062 363.820312 80.570312 363.460938 80.851562 363.109375 C 80.859375 363.101562 80.859375 363.101562 80.871094 363.089844 C 81.191406 362.699219 81.519531 362.308594 81.859375 361.929688 L 82.960938 360.738281 C 83.230469 360.460938 83.511719 360.191406 83.789062 359.910156 C 83.851562 359.851562 83.910156 359.789062 83.96875 359.738281 C 84.308594 359.410156 84.660156 359.089844 85.011719 358.78125 L 86.398438 357.609375 C 86.738281 357.351562 87.078125 357.078125 87.421875 356.828125 L 87.519531 356.761719 C 87.921875 356.460938 88.320312 356.179688 88.730469 355.910156 C 89.140625 355.628906 89.550781 355.359375 89.980469 355.089844 C 89.988281 355.078125 90.011719 355.078125 90.019531 355.070312 C 90.410156 354.828125 90.808594 354.589844 91.21875 354.371094 L 91.5 354.210938 C 91.871094 354.011719 92.238281 353.808594 92.609375 353.621094 L 92.789062 353.53125 C 93.148438 353.351562 93.511719 353.179688 93.871094 353.011719 L 94.230469 352.851562 C 95.121094 352.449219 96.03125 352.089844 96.96875 351.761719 L 97.179688 351.691406 C 97.539062 351.570312 97.910156 351.449219 98.269531 351.339844 C 98.441406 351.28125 98.609375 351.230469 98.78125 351.191406 L 100.140625 350.820312 C 100.601562 350.699219 101.070312 350.601562 101.539062 350.5 C 101.558594 350.488281 101.578125 350.488281 101.601562 350.488281 C 102.488281 350.300781 103.390625 350.148438 104.308594 350.039062 L 108.96875 349.738281 C 127.210938 349.738281 142.609375 363.289062 144.941406 381.371094 L 144.949219 381.449219 L 164.53125 495.171875 C 146.261719 488.179688 128.988281 479.148438 113.011719 468.378906 Z M 113.011719 468.378906 " style=" stroke:none;fill-rule:nonzero;fill:rgb(100%,20.392157%,27.058824%);fill-opacity:1;" />
<path d="M 292.761719 387.558594 L 285.621094 510.300781 C 275.898438 511.421875 266.019531 512 256 512 C 245.980469 512 236.101562 511.421875 226.378906 510.300781 L 219.238281 387.558594 C 218.359375 366.929688 234.839844 349.738281 255.46875 349.738281 L 256.53125 349.738281 C 277.160156 349.738281 293.640625 366.929688 292.761719 387.558594 Z M 292.761719 387.558594 " style=" stroke:none;fill-rule:nonzero;fill:rgb(100%,20.392157%,27.058824%);fill-opacity:1;" />
<path d="M 292.761719 387.558594 L 285.621094 510.300781 C 275.898438 511.421875 266.019531 512 256 512 L 256 349.738281 L 256.53125 349.738281 C 277.160156 349.738281 293.640625 366.929688 292.761719 387.558594 Z M 292.761719 387.558594 " style=" stroke:none;fill-rule:nonzero;fill:rgb(89.803922%,16.078431%,16.078431%);fill-opacity:1;" />
<path d="M 164 280.5 C 164 289.058594 157.058594 296 148.5 296 C 139.941406 296 133 289.058594 133 280.5 C 133 271.941406 139.941406 265 148.5 265 C 157.058594 265 164 271.941406 164 280.5 Z M 164 280.5 " style=" stroke:none;fill-rule:nonzero;fill:rgb(47.843137%,17.647059%,10.196078%);fill-opacity:1;" />
<path d="M 238.667969 286.5 C 238.667969 295.058594 231.726562 302 223.167969 302 C 214.605469 302 207.667969 295.058594 207.667969 286.5 C 207.667969 277.941406 214.605469 271 223.167969 271 C 231.726562 271 238.667969 277.941406 238.667969 286.5 Z M 238.667969 286.5 " style=" stroke:none;fill-rule:nonzero;fill:rgb(47.843137%,17.647059%,10.196078%);fill-opacity:1;" />
<path d="M 309.332031 263.167969 C 309.332031 271.726562 302.394531 278.667969 293.832031 278.667969 C 285.273438 278.667969 278.332031 271.726562 278.332031 263.167969 C 278.332031 254.605469 285.273438 247.667969 293.832031 247.667969 C 302.394531 247.667969 309.332031 254.605469 309.332031 263.167969 Z M 309.332031 263.167969 " style=" stroke:none;fill-rule:nonzero;fill:rgb(47.843137%,17.647059%,10.196078%);fill-opacity:1;" />
<path d="M 249.300781 243.667969 C 249.300781 249.355469 244.6875 253.964844 239 253.964844 C 233.3125 253.964844 228.699219 249.355469 228.699219 243.667969 C 228.699219 237.980469 233.3125 233.367188 239 233.367188 C 244.6875 233.367188 249.300781 237.980469 249.300781 243.667969 Z M 249.300781 243.667969 " style=" stroke:none;fill-rule:nonzero;fill:rgb(47.843137%,17.647059%,10.196078%);fill-opacity:1;" />
<path d="M 306.632812 318.332031 C 306.632812 324.019531 302.019531 328.632812 296.332031 328.632812 C 290.644531 328.632812 286.035156 324.019531 286.035156 318.332031 C 286.035156 312.644531 290.644531 308.035156 296.332031 308.035156 C 302.019531 308.035156 306.632812 312.644531 306.632812 318.332031 Z M 306.632812 318.332031 " style=" stroke:none;fill-rule:nonzero;fill:rgb(47.843137%,17.647059%,10.196078%);fill-opacity:1;" />
<path d="M 151.300781 326.332031 C 151.300781 332.019531 146.6875 336.632812 141 336.632812 C 135.3125 336.632812 130.699219 332.019531 130.699219 326.332031 C 130.699219 320.644531 135.3125 316.035156 141 316.035156 C 146.6875 316.035156 151.300781 320.644531 151.300781 326.332031 Z M 151.300781 326.332031 " style=" stroke:none;fill-rule:nonzero;fill:rgb(47.843137%,17.647059%,10.196078%);fill-opacity:1;" />
<path d="M 183.964844 237 C 183.964844 242.6875 179.355469 247.300781 173.667969 247.300781 C 167.980469 247.300781 163.367188 242.6875 163.367188 237 C 163.367188 231.3125 167.980469 226.699219 173.667969 226.699219 C 179.355469 226.699219 183.964844 231.3125 183.964844 237 Z M 183.964844 237 " style=" stroke:none;fill-rule:nonzero;fill:rgb(47.843137%,17.647059%,10.196078%);fill-opacity:1;" />
<path d="M 299.664062 225 C 299.664062 230.6875 295.054688 235.300781 289.367188 235.300781 C 283.679688 235.300781 279.066406 230.6875 279.066406 225 C 279.066406 219.3125 283.679688 214.699219 289.367188 214.699219 C 295.054688 214.699219 299.664062 219.3125 299.664062 225 Z M 299.664062 225 " style=" stroke:none;fill-rule:nonzero;fill:rgb(47.843137%,17.647059%,10.196078%);fill-opacity:1;" />
<path d="M 232.371094 324.855469 C 232.371094 330.542969 227.761719 335.152344 222.074219 335.152344 C 216.386719 335.152344 211.773438 330.542969 211.773438 324.855469 C 211.773438 319.167969 216.386719 314.554688 222.074219 314.554688 C 227.761719 314.554688 232.371094 319.167969 232.371094 324.855469 Z M 232.371094 324.855469 " style=" stroke:none;fill-rule:nonzero;fill:rgb(47.843137%,17.647059%,10.196078%);fill-opacity:1;" />
<path d="M 370.074219 255.996094 C 370.074219 265.285156 362.542969 272.816406 353.253906 272.816406 C 343.964844 272.816406 336.4375 265.285156 336.4375 255.996094 C 336.4375 246.707031 343.964844 239.179688 353.253906 239.179688 C 362.542969 239.179688 370.074219 246.707031 370.074219 255.996094 Z M 370.074219 255.996094 " style=" stroke:none;fill-rule:nonzero;fill:rgb(47.843137%,17.647059%,10.196078%);fill-opacity:1;" />
<path d="M 392.738281 311.996094 C 392.738281 321.285156 385.210938 328.816406 375.921875 328.816406 C 366.632812 328.816406 359.105469 321.285156 359.105469 311.996094 C 359.105469 302.707031 366.632812 295.179688 375.921875 295.179688 C 385.210938 295.179688 392.738281 302.707031 392.738281 311.996094 Z M 392.738281 311.996094 " style=" stroke:none;fill-rule:nonzero;fill:rgb(47.843137%,17.647059%,10.196078%);fill-opacity:1;" />
<path d="M 322.480469 195.496094 L 199.882812 195.496094 C 193.972656 193.964844 189.171875 189.34375 187.558594 183.304688 C 187.171875 181.890625 186.976562 180.394531 186.976562 178.847656 C 186.976562 170.671875 192.726562 163.617188 200.730469 161.976562 L 216.773438 158.6875 C 216.445312 158.699219 216.121094 158.710938 215.792969 158.710938 C 215.550781 158.710938 215.308594 158.699219 215.070312 158.695312 C 206.125 158.3125 198.609375 150.9375 198.609375 141.503906 C 198.609375 133.332031 204.367188 126.273438 212.375 124.632812 L 222.628906 122.519531 C 225.714844 121.898438 227.855469 119.164062 227.847656 116.027344 L 227.847656 115.964844 C 227.847656 96.65625 239.964844 80.171875 256.996094 73.691406 C 257.0625 73.664062 257.132812 73.632812 257.199219 73.609375 C 259.3125 72.8125 261.355469 73.359375 262.78125 74.605469 C 264.523438 76.132812 265.34375 78.707031 264.210938 81.21875 C 261.660156 86.878906 260.230469 93.160156 260.230469 99.777344 C 260.230469 107.539062 267.355469 113.351562 274.960938 111.785156 L 283.871094 109.964844 C 291.277344 108.4375 298.355469 111.46875 302.132812 117.164062 C 303.6875 119.480469 304.683594 122.253906 304.925781 125.339844 C 305.554688 133.253906 300.769531 140.347656 293.601562 142.921875 L 295.953125 142.4375 C 297.132812 142.195312 298.300781 142.078125 299.449219 142.078125 C 307.183594 142.078125 313.980469 147.328125 316.007812 154.703125 C 316.410156 156.164062 316.632812 157.703125 316.632812 159.308594 C 316.632812 166.636719 311.980469 173.066406 305.238281 175.488281 L 305.898438 175.351562 C 306.535156 175.214844 307.183594 175.113281 307.820312 175.054688 C 317.503906 174.066406 326.15625 180.753906 326.960938 190.726562 C 326.964844 190.742188 326.964844 190.757812 326.964844 190.773438 C 327.164062 193.339844 325.050781 195.496094 322.480469 195.496094 Z M 322.480469 195.496094 " style=" stroke:none;fill-rule:nonzero;fill:rgb(100%,100%,100%);fill-opacity:1;" />
<path d="M 322.480469 195.496094 L 256.996094 195.496094 L 256.996094 73.695312 C 256.996094 73.691406 256.996094 73.691406 256.996094 73.691406 C 259.183594 72.777344 261.3125 73.320312 262.785156 74.605469 C 264.523438 76.132812 265.34375 78.707031 264.214844 81.222656 C 261.660156 86.878906 260.234375 93.160156 260.234375 99.777344 C 260.234375 107.539062 267.359375 113.351562 274.960938 111.789062 L 283.871094 109.964844 C 291.277344 108.4375 298.359375 111.46875 302.132812 117.164062 C 303.691406 119.484375 304.683594 122.253906 304.929688 125.339844 C 305.558594 133.253906 300.773438 140.347656 293.601562 142.925781 L 295.957031 142.4375 C 297.132812 142.195312 298.304688 142.082031 299.449219 142.082031 C 307.183594 142.082031 313.980469 147.328125 316.011719 154.707031 C 316.414062 156.164062 316.632812 157.707031 316.632812 159.308594 C 316.632812 166.640625 311.984375 173.066406 305.238281 175.488281 L 305.898438 175.351562 C 306.539062 175.214844 307.183594 175.117188 307.820312 175.054688 C 317.507812 174.066406 326.160156 180.753906 326.964844 190.726562 C 326.964844 190.742188 326.96875 190.761719 326.96875 190.777344 C 327.164062 193.339844 325.050781 195.496094 322.480469 195.496094 Z M 322.480469 195.496094 " style=" stroke:none;fill-rule:nonzero;fill:rgb(92.156863%,94.117647%,95.294118%);fill-opacity:1;" />
<path d="M 322.480469 195.496094 L 199.882812 195.496094 C 193.972656 193.964844 189.171875 189.34375 187.558594 183.304688 L 256.996094 167.847656 L 316.011719 154.707031 C 316.414062 156.164062 316.632812 157.707031 316.632812 159.308594 C 316.632812 166.640625 311.984375 173.066406 305.238281 175.488281 L 305.898438 175.351562 C 306.539062 175.214844 307.183594 175.117188 307.820312 175.054688 C 317.507812 174.066406 326.160156 180.753906 326.964844 190.726562 C 326.964844 190.742188 326.96875 190.761719 326.96875 190.777344 C 327.164062 193.339844 325.050781 195.496094 322.480469 195.496094 Z M 322.480469 195.496094 " style=" stroke:none;fill-rule:nonzero;fill:rgb(92.156863%,94.117647%,95.294118%);fill-opacity:1;" />
<path d="M 322.480469 195.496094 L 256.996094 195.496094 L 256.996094 167.847656 L 316.011719 154.707031 C 316.414062 156.164062 316.632812 157.707031 316.632812 159.308594 C 316.632812 166.640625 311.984375 173.066406 305.238281 175.488281 L 305.902344 175.351562 C 306.539062 175.214844 307.183594 175.117188 307.824219 175.054688 C 317.507812 174.066406 326.160156 180.753906 326.964844 190.726562 C 326.964844 190.742188 326.96875 190.761719 326.96875 190.777344 C 327.164062 193.339844 325.050781 195.496094 322.480469 195.496094 Z M 322.480469 195.496094 " style=" stroke:none;fill-rule:nonzero;fill:rgb(78.039216%,85.098039%,100%);fill-opacity:1;" />
<path d="M 299.710938 139.125 C 299.550781 139.277344 299.390625 139.421875 299.230469 139.574219 C 298.902344 139.863281 298.570312 140.136719 298.226562 140.402344 C 298.050781 140.539062 297.878906 140.667969 297.695312 140.789062 C 297.339844 141.039062 296.972656 141.273438 296.601562 141.503906 C 296.410156 141.617188 296.222656 141.730469 296.023438 141.828125 C 295.636719 142.042969 295.242188 142.238281 294.839844 142.421875 C 294.4375 142.605469 294.019531 142.773438 293.601562 142.925781 L 256.996094 150.4375 L 216.773438 158.6875 L 215.070312 158.695312 C 207.15625 158.359375 200.371094 152.554688 198.914062 144.6875 C 198.71875 143.652344 198.609375 142.589844 198.609375 141.503906 C 198.609375 133.332031 204.367188 126.273438 212.375 124.632812 L 222.628906 122.519531 L 256.996094 115.472656 L 274.960938 111.789062 L 283.871094 109.964844 C 285.410156 109.644531 286.9375 109.523438 288.421875 109.585938 C 288.664062 109.59375 288.90625 109.609375 289.148438 109.628906 C 289.269531 109.636719 289.390625 109.652344 289.515625 109.667969 C 289.71875 109.683594 289.925781 109.707031 290.128906 109.734375 C 290.28125 109.75 290.433594 109.773438 290.585938 109.804688 C 290.820312 109.84375 291.054688 109.878906 291.289062 109.933594 C 291.472656 109.972656 291.65625 110.007812 291.828125 110.046875 C 291.929688 110.070312 292.019531 110.09375 292.109375 110.113281 C 292.300781 110.167969 292.492188 110.214844 292.671875 110.273438 C 292.871094 110.328125 293.066406 110.386719 293.265625 110.457031 C 293.746094 110.609375 294.207031 110.78125 294.664062 110.980469 C 294.878906 111.070312 295.089844 111.171875 295.300781 111.269531 C 295.683594 111.449219 296.0625 111.648438 296.425781 111.855469 C 296.609375 111.953125 296.78125 112.058594 296.949219 112.15625 C 297.078125 112.242188 297.199219 112.316406 297.320312 112.402344 C 297.65625 112.621094 297.984375 112.847656 298.300781 113.085938 C 298.476562 113.222656 298.644531 113.359375 298.8125 113.496094 C 298.992188 113.640625 299.167969 113.789062 299.34375 113.941406 C 299.511719 114.09375 299.683594 114.253906 299.84375 114.414062 C 299.988281 114.558594 300.132812 114.695312 300.269531 114.839844 C 300.953125 115.554688 301.574219 116.328125 302.128906 117.164062 C 302.296875 117.414062 302.457031 117.664062 302.601562 117.921875 C 302.652344 117.992188 302.699219 118.066406 302.738281 118.144531 C 302.882812 118.394531 303.019531 118.652344 303.148438 118.910156 C 303.261719 119.128906 303.367188 119.351562 303.46875 119.585938 C 303.558594 119.789062 303.648438 120.003906 303.734375 120.21875 C 303.832031 120.4375 303.914062 120.664062 303.992188 120.894531 C 304.066406 121.121094 304.144531 121.355469 304.21875 121.59375 C 304.285156 121.820312 304.355469 122.0625 304.417969 122.300781 C 304.539062 122.785156 304.644531 123.277344 304.734375 123.78125 C 304.757812 123.917969 304.78125 124.054688 304.796875 124.199219 C 304.820312 124.355469 304.84375 124.523438 304.863281 124.683594 C 304.886719 124.902344 304.910156 125.117188 304.925781 125.335938 C 305.351562 130.695312 303.300781 135.671875 299.710938 139.125 Z M 299.710938 139.125 " style=" stroke:none;fill-rule:nonzero;fill:rgb(100%,100%,100%);fill-opacity:1;" />
<path d="M 256.996094 115.472656 L 256.996094 150.4375 L 293.601562 142.925781 C 294.019531 142.773438 294.4375 142.605469 294.839844 142.421875 C 295.242188 142.242188 295.636719 142.042969 296.023438 141.832031 C 296.222656 141.730469 296.410156 141.617188 296.601562 141.503906 C 296.972656 141.277344 297.339844 141.039062 297.695312 140.789062 C 297.878906 140.667969 298.054688 140.539062 298.226562 140.402344 C 298.570312 140.136719 298.902344 139.863281 299.230469 139.574219 C 299.390625 139.421875 299.550781 139.277344 299.710938 139.128906 C 303.304688 135.671875 305.355469 130.695312 304.929688 125.339844 C 304.914062 125.121094 304.890625 124.90625 304.867188 124.6875 C 304.84375 124.527344 304.820312 124.359375 304.800781 124.199219 C 304.785156 124.058594 304.761719 123.921875 304.738281 123.78125 C 304.65625 123.3125 304.558594 122.855469 304.441406 122.402344 C 304.433594 122.371094 304.429688 122.332031 304.421875 122.300781 C 304.359375 122.066406 304.289062 121.824219 304.222656 121.597656 C 304.148438 121.359375 304.070312 121.125 303.996094 120.898438 C 303.917969 120.667969 303.835938 120.441406 303.738281 120.222656 C 303.652344 120.007812 303.5625 119.796875 303.472656 119.589844 C 303.371094 119.355469 303.265625 119.136719 303.152344 118.914062 C 303.023438 118.65625 302.886719 118.398438 302.742188 118.148438 C 302.703125 118.070312 302.65625 117.996094 302.605469 117.929688 C 302.460938 117.671875 302.300781 117.417969 302.132812 117.167969 C 301.578125 116.332031 300.957031 115.558594 300.273438 114.84375 C 300.136719 114.699219 299.992188 114.5625 299.847656 114.417969 C 299.6875 114.257812 299.515625 114.101562 299.347656 113.949219 C 299.171875 113.796875 298.996094 113.644531 298.816406 113.5 C 298.648438 113.363281 298.480469 113.226562 298.304688 113.089844 C 297.988281 112.855469 297.660156 112.628906 297.324219 112.40625 C 297.203125 112.320312 297.082031 112.246094 296.953125 112.164062 C 296.785156 112.0625 296.613281 111.957031 296.429688 111.859375 C 296.066406 111.652344 295.6875 111.457031 295.304688 111.273438 C 295.09375 111.175781 294.882812 111.078125 294.667969 110.984375 C 294.210938 110.785156 293.75 110.613281 293.269531 110.460938 C 293.070312 110.394531 292.875 110.332031 292.679688 110.277344 C 292.496094 110.21875 292.304688 110.171875 292.117188 110.117188 C 292.023438 110.097656 291.933594 110.074219 291.835938 110.050781 C 291.660156 110.011719 291.476562 109.976562 291.296875 109.9375 C 291.058594 109.882812 290.824219 109.847656 290.589844 109.808594 C 290.4375 109.777344 290.285156 109.753906 290.132812 109.738281 C 289.929688 109.710938 289.722656 109.6875 289.519531 109.671875 C 289.398438 109.65625 289.277344 109.640625 289.152344 109.632812 C 288.910156 109.609375 288.667969 109.597656 288.425781 109.589844 C 286.945312 109.527344 285.417969 109.648438 283.875 109.96875 L 274.964844 111.789062 Z M 256.996094 115.472656 " style=" stroke:none;fill-rule:nonzero;fill:rgb(92.156863%,94.117647%,95.294118%);fill-opacity:1;" />
<path d="M 304.941406 127.800781 C 304.933594 127.984375 304.921875 128.171875 304.90625 128.355469 C 304.875 128.722656 304.828125 129.085938 304.769531 129.441406 C 304.722656 129.714844 304.675781 129.988281 304.617188 130.261719 C 304.5625 130.511719 304.503906 130.769531 304.441406 131.023438 C 304.425781 131.082031 304.410156 131.136719 304.394531 131.1875 C 304.328125 131.445312 304.257812 131.691406 304.175781 131.941406 C 304.167969 131.964844 304.160156 131.992188 304.152344 132.015625 C 304.074219 132.269531 303.984375 132.511719 303.894531 132.753906 C 303.816406 132.960938 303.742188 133.15625 303.652344 133.355469 C 303.597656 133.496094 303.535156 133.636719 303.46875 133.777344 C 303.453125 133.832031 303.429688 133.878906 303.402344 133.929688 C 303.324219 134.105469 303.242188 134.273438 303.15625 134.441406 C 303.027344 134.707031 302.882812 134.972656 302.734375 135.230469 C 302.628906 135.433594 302.503906 135.632812 302.382812 135.820312 C 301.980469 136.484375 301.527344 137.105469 301.03125 137.699219 C 300.902344 137.855469 300.765625 138.015625 300.628906 138.167969 C 300.332031 138.503906 300.027344 138.820312 299.710938 139.125 C 299.550781 139.277344 299.390625 139.421875 299.230469 139.574219 C 298.902344 139.863281 298.570312 140.136719 298.226562 140.402344 C 298.054688 140.539062 297.878906 140.667969 297.695312 140.789062 C 297.339844 141.039062 296.972656 141.273438 296.601562 141.503906 C 296.410156 141.617188 296.222656 141.730469 296.023438 141.828125 C 295.636719 142.042969 295.242188 142.238281 294.839844 142.421875 C 294.4375 142.605469 294.019531 142.773438 293.601562 142.925781 L 256.996094 150.4375 L 216.773438 158.6875 L 215.074219 158.695312 C 207.15625 158.359375 200.375 152.554688 198.914062 144.6875 L 256.996094 132.367188 L 304.417969 122.300781 C 304.425781 122.332031 304.433594 122.367188 304.441406 122.398438 C 304.554688 122.855469 304.65625 123.3125 304.738281 123.78125 C 304.761719 123.921875 304.785156 124.058594 304.800781 124.199219 C 304.820312 124.359375 304.84375 124.527344 304.867188 124.6875 C 304.890625 124.90625 304.914062 125.121094 304.929688 125.339844 C 304.996094 126.175781 305.003906 126.996094 304.941406 127.800781 Z M 304.941406 127.800781 " style=" stroke:none;fill-rule:nonzero;fill:rgb(92.156863%,94.117647%,95.294118%);fill-opacity:1;" />
<path d="M 304.941406 127.800781 C 304.933594 127.984375 304.921875 128.171875 304.90625 128.355469 C 304.875 128.722656 304.828125 129.085938 304.769531 129.441406 C 304.722656 129.714844 304.675781 129.988281 304.617188 130.261719 C 304.5625 130.511719 304.503906 130.769531 304.441406 131.023438 C 304.425781 131.082031 304.410156 131.136719 304.394531 131.1875 C 304.328125 131.445312 304.257812 131.691406 304.175781 131.941406 C 304.167969 131.964844 304.160156 131.992188 304.152344 132.015625 C 304.074219 132.269531 303.984375 132.511719 303.894531 132.753906 C 303.816406 132.960938 303.742188 133.15625 303.652344 133.355469 C 303.597656 133.496094 303.535156 133.636719 303.46875 133.777344 C 303.453125 133.832031 303.429688 133.878906 303.402344 133.929688 C 303.324219 134.105469 303.242188 134.273438 303.15625 134.441406 C 303.027344 134.707031 302.882812 134.972656 302.734375 135.230469 C 302.628906 135.433594 302.503906 135.632812 302.382812 135.820312 C 301.980469 136.484375 301.527344 137.105469 301.03125 137.699219 C 300.902344 137.855469 300.765625 138.015625 300.628906 138.167969 C 300.332031 138.503906 300.027344 138.820312 299.710938 139.125 C 299.550781 139.277344 299.390625 139.421875 299.230469 139.574219 C 298.902344 139.863281 298.570312 140.136719 298.226562 140.402344 C 298.054688 140.539062 297.878906 140.667969 297.695312 140.789062 C 297.339844 141.039062 296.972656 141.273438 296.601562 141.503906 C 296.410156 141.617188 296.222656 141.730469 296.023438 141.828125 C 295.636719 142.042969 295.242188 142.238281 294.839844 142.421875 C 294.4375 142.605469 294.019531 142.773438 293.601562 142.925781 L 256.996094 150.4375 L 256.996094 132.367188 L 304.417969 122.300781 C 304.425781 122.332031 304.433594 122.367188 304.441406 122.398438 C 304.554688 122.855469 304.65625 123.3125 304.738281 123.78125 C 304.761719 123.921875 304.785156 124.058594 304.800781 124.199219 C 304.820312 124.359375 304.84375 124.527344 304.867188 124.6875 C 304.890625 124.90625 304.914062 125.121094 304.929688 125.339844 C 304.996094 126.175781 305.003906 126.996094 304.941406 127.800781 Z M 304.941406 127.800781 " style=" stroke:none;fill-rule:nonzero;fill:rgb(78.039216%,85.098039%,100%);fill-opacity:1;" />
<path d="M 282.832031 87.039062 C 282.832031 101.25 271.359375 112.777344 257.171875 112.871094 C 257.113281 112.871094 257.058594 112.871094 257 112.871094 C 242.734375 112.871094 231.171875 101.308594 231.171875 87.039062 C 231.171875 80.59375 233.53125 74.699219 237.4375 70.171875 C 237.707031 69.832031 237.996094 69.507812 238.300781 69.203125 C 238.394531 69.109375 238.488281 69.019531 238.585938 68.929688 C 238.585938 68.925781 238.589844 68.925781 238.589844 68.925781 C 240.546875 67.105469 243.164062 65.992188 246.046875 65.992188 C 247.257812 65.992188 248.425781 66.191406 249.511719 66.554688 C 253.796875 67.980469 256.902344 71.980469 257 76.722656 C 257 76.796875 257 76.871094 257 76.949219 C 257 70.898438 261.90625 65.992188 267.957031 65.992188 C 270.816406 65.992188 273.417969 67.089844 275.367188 68.882812 C 275.816406 69.296875 276.234375 69.746094 276.609375 70.230469 C 280.488281 74.746094 282.832031 80.621094 282.832031 87.039062 Z M 282.832031 87.039062 " style=" stroke:none;fill-rule:nonzero;fill:rgb(100%,39.215686%,46.666667%);fill-opacity:1;" />
<path d="M 282.832031 87.039062 C 282.832031 101.25 271.359375 112.777344 257.171875 112.871094 C 248.023438 107.710938 241.84375 97.902344 241.84375 86.648438 C 241.84375 79.136719 244.597656 72.269531 249.144531 67 C 249.265625 66.847656 249.386719 66.699219 249.515625 66.554688 C 253.796875 67.980469 256.90625 71.980469 257 76.722656 C 257.003906 76.796875 257.003906 76.871094 257.003906 76.949219 C 257.003906 70.898438 261.90625 65.992188 267.957031 65.992188 C 270.816406 65.992188 273.417969 67.089844 275.367188 68.882812 C 275.820312 69.296875 276.234375 69.746094 276.609375 70.230469 C 280.488281 74.746094 282.832031 80.621094 282.832031 87.039062 Z M 282.832031 87.039062 " style=" stroke:none;fill-rule:nonzero;fill:rgb(89.803922%,16.078431%,16.078431%);fill-opacity:1;" />
<path d="M 282.832031 87.039062 C 282.832031 101.308594 271.265625 112.871094 257 112.871094 L 257 76.722656 C 257.003906 76.796875 257.003906 76.871094 257.003906 76.949219 C 257.003906 70.898438 261.90625 65.992188 267.957031 65.992188 C 270.816406 65.992188 273.417969 67.089844 275.367188 68.882812 C 275.820312 69.296875 276.234375 69.746094 276.609375 70.230469 C 280.488281 74.746094 282.832031 80.621094 282.832031 87.039062 Z M 282.832031 87.039062 " style=" stroke:none;fill-rule:nonzero;fill:rgb(72.941176%,5.098039%,36.078431%);fill-opacity:1;" />
</g>
</svg>