<svg xmlns="http://www.w3.org/2000/svg" height="512pt" version="1.1" viewBox="0 0 512 512" width="512pt">
<g id="surface1">
<path d="M 512 256 C 512 397.386719 397.386719 512 256 512 C 114.613281 512 0 397.386719 0 256 C 0 114.613281 114.613281 0 256 0 C 397.386719 0 512 114.613281 512 256 Z M 512 256 " style=" stroke:none;fill-rule:nonzero;fill:rgb(70.980392%,88.627451%,21.568627%);fill-opacity:1;" />
<path d="M 512 256 C 512 282.050781 508.109375 307.191406 500.871094 330.871094 C 468.859375 435.71875 371.328125 512 256 512 C 151.441406 512 61.511719 449.300781 21.769531 359.449219 C 7.769531 327.820312 0 292.820312 0 256 C 0 209.78125 12.25 166.429688 33.679688 129 C 77.800781 206.070312 160.839844 258 256 258 C 351.160156 258 434.210938 206.070312 478.320312 129 C 499.75 166.429688 512 209.78125 512 256 Z M 512 256 " style=" stroke:none;fill-rule:nonzero;fill:rgb(58.431373%,83.921569%,0%);fill-opacity:1;" />
<path d="M 30.742188 377.703125 C 37.898438 390.921875 46.171875 403.441406 55.460938 415.128906 C 102.359375 474.148438 174.761719 512 256 512 C 337.238281 512 409.640625 474.148438 456.539062 415.128906 C 465.828125 403.441406 474.101562 390.921875 481.257812 377.703125 Z M 30.742188 377.703125 " style=" stroke:none;fill-rule:nonzero;fill:rgb(52.156863%,68.627451%,7.058824%);fill-opacity:1;" />
<path d="M 401.089844 319.839844 L 401.089844 466.210938 C 401.089844 466.449219 401.089844 466.699219 401.078125 466.941406 C 392.941406 472.558594 384.449219 477.710938 375.660156 482.359375 C 363.261719 488.941406 350.238281 494.519531 336.730469 499.011719 C 332.75 500.328125 328.730469 501.558594 324.671875 502.679688 C 321.289062 503.621094 317.878906 504.488281 314.441406 505.289062 C 296 509.601562 276.789062 511.921875 257.050781 511.988281 C 256.710938 512 256.371094 512 256.03125 512 L 255.640625 512 C 235.660156 511.96875 216.21875 509.660156 197.558594 505.289062 C 197.558594 505.300781 197.550781 505.300781 197.550781 505.300781 C 197.550781 505.300781 197.550781 505.300781 197.550781 505.289062 C 195.308594 504.769531 193.078125 504.21875 190.859375 503.628906 C 185.601562 502.261719 180.398438 500.710938 175.269531 499.011719 C 168.640625 496.808594 162.121094 494.339844 155.75 491.621094 C 149.128906 488.800781 142.660156 485.71875 136.351562 482.371094 C 127.550781 477.710938 119.058594 472.558594 110.921875 466.941406 C 110.910156 466.699219 110.910156 466.449219 110.910156 466.210938 L 110.910156 319.839844 C 110.910156 294.558594 131.410156 274.058594 156.699219 274.058594 L 161.539062 274.058594 L 161.539062 247.941406 L 159.660156 247.941406 C 143.320312 247.941406 130.078125 234.699219 130.078125 218.359375 C 130.078125 202.03125 143.320312 188.78125 159.660156 188.78125 L 352.339844 188.78125 C 368.679688 188.78125 381.921875 202.03125 381.921875 218.359375 C 381.921875 234.699219 368.679688 247.941406 352.339844 247.941406 L 350.460938 247.941406 L 350.460938 274.058594 L 355.300781 274.058594 C 380.589844 274.058594 401.089844 294.558594 401.089844 319.839844 Z M 401.089844 319.839844 " style=" stroke:none;fill-rule:nonzero;fill:rgb(100%,100%,100%);fill-opacity:1;" />
<path d="M 401.089844 319.839844 L 401.089844 466.210938 C 401.089844 466.449219 401.089844 466.699219 401.078125 466.941406 C 392.941406 472.558594 384.449219 477.710938 375.660156 482.359375 C 363.261719 488.941406 350.238281 494.519531 336.730469 499.011719 C 332.75 500.328125 328.730469 501.558594 324.671875 502.679688 C 321.289062 503.621094 317.878906 504.488281 314.441406 505.289062 C 296 509.601562 276.789062 511.921875 257.050781 511.988281 C 256.710938 512 256.371094 512 256.03125 512 L 255.640625 512 C 235.660156 511.96875 216.21875 509.660156 197.558594 505.289062 C 197.558594 505.300781 197.550781 505.300781 197.550781 505.300781 C 197.550781 505.300781 197.550781 505.300781 197.550781 505.289062 C 195.308594 504.769531 193.078125 504.21875 190.859375 503.628906 C 184.070312 498.839844 178.640625 492.230469 175.269531 484.53125 C 172.820312 478.921875 171.460938 472.71875 171.460938 466.210938 L 171.460938 319.839844 C 171.460938 294.558594 191.960938 274.058594 217.25 274.058594 L 222.089844 274.058594 L 222.089844 247.941406 L 220.210938 247.941406 C 203.871094 247.941406 190.628906 234.699219 190.628906 218.359375 C 190.628906 202.03125 203.871094 188.78125 220.210938 188.78125 L 352.339844 188.78125 C 368.679688 188.78125 381.921875 202.03125 381.921875 218.359375 C 381.921875 234.699219 368.679688 247.941406 352.339844 247.941406 L 350.460938 247.941406 L 350.460938 274.058594 L 355.300781 274.058594 C 380.589844 274.058594 401.089844 294.558594 401.089844 319.839844 Z M 401.089844 319.839844 " style=" stroke:none;fill-rule:nonzero;fill:rgb(92.156863%,94.117647%,95.294118%);fill-opacity:1;" />
<path d="M 401.089844 319.839844 L 401.089844 466.210938 C 401.089844 466.449219 401.089844 466.699219 401.078125 466.941406 C 392.941406 472.558594 384.449219 477.710938 375.660156 482.359375 C 363.261719 488.941406 350.238281 494.519531 336.730469 499.011719 C 332.75 500.328125 328.730469 501.558594 324.671875 502.679688 C 321.289062 503.621094 317.878906 504.488281 314.441406 505.289062 C 296 509.601562 276.789062 511.921875 257.050781 511.988281 C 256.710938 512 256.371094 512 256.03125 512 L 256 512 L 256 188.78125 L 352.339844 188.78125 C 368.679688 188.78125 381.921875 202.03125 381.921875 218.359375 C 381.921875 234.699219 368.679688 247.941406 352.339844 247.941406 L 350.460938 247.941406 L 350.460938 274.058594 L 355.300781 274.058594 C 380.589844 274.058594 401.089844 294.558594 401.089844 319.839844 Z M 401.089844 319.839844 " style=" stroke:none;fill-rule:nonzero;fill:rgb(78.039216%,85.098039%,100%);fill-opacity:1;" />
<path d="M 296.367188 386.804688 C 296.367188 409.101562 278.289062 427.171875 256 427.171875 C 255.871094 427.171875 255.746094 427.171875 255.617188 427.164062 C 233.5 426.96875 215.636719 408.972656 215.636719 386.804688 C 215.636719 364.644531 233.5 346.644531 255.617188 346.445312 C 255.746094 346.441406 255.871094 346.441406 256 346.441406 C 278.289062 346.441406 296.367188 364.515625 296.367188 386.804688 Z M 296.367188 386.804688 " style=" stroke:none;fill-rule:nonzero;fill:rgb(40.784314%,98.823529%,87.45098%);fill-opacity:1;" />
<path d="M 296.367188 386.804688 C 296.367188 409.222656 278.09375 427.367188 255.636719 427.171875 C 255.632812 427.167969 255.625 427.167969 255.617188 427.164062 C 241.496094 419.257812 231.957031 404.144531 231.957031 386.804688 C 231.957031 369.46875 241.496094 354.363281 255.617188 346.445312 C 255.625 346.445312 255.632812 346.445312 255.636719 346.441406 C 278.09375 346.242188 296.367188 364.394531 296.367188 386.804688 Z M 296.367188 386.804688 " style=" stroke:none;fill-rule:nonzero;fill:rgb(6.27451%,88.627451%,76.862745%);fill-opacity:1;" />
<path d="M 296.367188 386.804688 C 296.367188 409.101562 278.289062 427.171875 256 427.171875 L 256 346.441406 C 278.289062 346.441406 296.367188 364.515625 296.367188 386.804688 Z M 296.367188 386.804688 " style=" stroke:none;fill-rule:nonzero;fill:rgb(10.196078%,72.941176%,62.352941%);fill-opacity:1;" />
<path d="M 256 431.269531 C 256 453.5625 237.925781 471.632812 215.632812 471.632812 C 215.503906 471.632812 215.382812 471.632812 215.253906 471.628906 C 193.132812 471.429688 175.269531 453.433594 175.269531 431.269531 C 175.269531 409.109375 193.132812 391.105469 215.253906 390.910156 C 215.382812 390.902344 215.503906 390.902344 215.632812 390.902344 C 237.925781 390.902344 256 408.980469 256 431.269531 Z M 256 431.269531 " style=" stroke:none;fill-rule:nonzero;fill:rgb(97.647059%,63.529412%,74.901961%);fill-opacity:1;" />
<path d="M 256 431.269531 C 256 453.683594 237.726562 471.828125 215.273438 471.632812 C 215.265625 471.628906 215.257812 471.628906 215.253906 471.628906 C 201.128906 463.71875 191.589844 448.605469 191.589844 431.269531 C 191.589844 413.929688 201.128906 398.824219 215.253906 390.910156 C 215.257812 390.90625 215.265625 390.90625 215.269531 390.902344 C 237.726562 390.707031 256 408.859375 256 431.269531 Z M 256 431.269531 " style=" stroke:none;fill-rule:nonzero;fill:rgb(97.647059%,52.156863%,65.098039%);fill-opacity:1;" />
<path d="M 256 431.269531 C 256 453.5625 237.925781 471.632812 215.632812 471.632812 L 215.632812 390.902344 C 237.925781 390.902344 256 408.980469 256 431.269531 Z M 256 431.269531 " style=" stroke:none;fill-rule:nonzero;fill:rgb(92.941176%,33.72549%,50.588235%);fill-opacity:1;" />
<path d="M 336.730469 431.269531 C 336.730469 453.5625 318.65625 471.632812 296.363281 471.632812 C 296.234375 471.632812 296.113281 471.632812 295.984375 471.628906 C 273.863281 471.429688 256 453.433594 256 431.269531 C 256 409.109375 273.863281 391.105469 295.984375 390.910156 C 296.113281 390.902344 296.234375 390.902344 296.363281 390.902344 C 318.65625 390.902344 336.730469 408.980469 336.730469 431.269531 Z M 336.730469 431.269531 " style=" stroke:none;fill-rule:nonzero;fill:rgb(100%,91.372549%,33.333333%);fill-opacity:1;" />
<path d="M 336.730469 431.269531 C 336.730469 453.683594 318.457031 471.828125 296.003906 471.632812 C 295.996094 471.628906 295.988281 471.628906 295.984375 471.628906 C 281.859375 463.71875 272.320312 448.605469 272.320312 431.269531 C 272.320312 413.929688 281.859375 398.824219 295.984375 390.910156 C 295.988281 390.90625 295.996094 390.90625 296.003906 390.902344 C 318.460938 390.707031 336.730469 408.859375 336.730469 431.269531 Z M 336.730469 431.269531 " style=" stroke:none;fill-rule:nonzero;fill:rgb(100%,81.960784%,7.058824%);fill-opacity:1;" />
<path d="M 336.730469 431.269531 C 336.730469 453.5625 318.65625 471.632812 296.363281 471.632812 L 296.363281 390.902344 C 318.65625 390.902344 336.730469 408.980469 336.730469 431.269531 Z M 336.730469 431.269531 " style=" stroke:none;fill-rule:nonzero;fill:rgb(100%,62.352941%,0%);fill-opacity:1;" />
<path d="M 296.371094 471.628906 C 296.371094 482.78125 291.851562 492.871094 284.539062 500.179688 C 283.96875 500.75 283.371094 501.308594 282.761719 501.859375 C 278.78125 505.378906 274.101562 508.140625 268.941406 509.878906 C 268.320312 510.089844 267.691406 510.28125 267.058594 510.46875 C 263.871094 511.371094 260.511719 511.898438 257.050781 511.988281 C 256.710938 512 256.371094 512 256.03125 512 L 256 512 C 255.871094 512 255.75 512 255.621094 511.988281 C 233.5 511.800781 215.628906 493.800781 215.628906 471.628906 C 215.628906 449.46875 233.5 431.46875 255.621094 431.28125 C 255.75 431.269531 255.871094 431.269531 256 431.269531 C 259.828125 431.269531 263.539062 431.800781 267.058594 432.800781 C 267.691406 432.988281 268.320312 433.179688 268.941406 433.390625 C 270.140625 433.789062 271.308594 434.25 272.449219 434.769531 C 286.550781 441.058594 296.371094 455.199219 296.371094 471.628906 Z M 296.371094 471.628906 " style=" stroke:none;fill-rule:nonzero;fill:rgb(40.784314%,98.823529%,87.45098%);fill-opacity:1;" />
<path d="M 296.371094 471.628906 C 296.371094 482.78125 291.851562 492.871094 284.539062 500.179688 C 283.96875 500.75 283.371094 501.308594 282.761719 501.859375 C 278.78125 505.378906 274.101562 508.140625 268.941406 509.878906 C 268.320312 510.089844 267.691406 510.289062 267.058594 510.46875 C 263.871094 511.371094 260.511719 511.898438 257.050781 511.988281 C 256.710938 512 256.371094 512 256.03125 512 L 255.640625 512 C 255.628906 512 255.621094 511.988281 255.621094 511.988281 C 241.5 504.089844 231.960938 488.96875 231.960938 471.628906 C 231.960938 470.449219 232 469.289062 232.089844 468.140625 C 232.089844 468.128906 232.101562 468.121094 232.101562 468.121094 C 233.28125 452.269531 242.460938 438.648438 255.621094 431.28125 C 255.621094 431.269531 255.628906 431.269531 255.640625 431.269531 L 256 431.269531 C 259.828125 431.269531 263.539062 431.800781 267.058594 432.800781 C 267.691406 432.980469 268.320312 433.179688 268.941406 433.390625 C 270.140625 433.789062 271.308594 434.25 272.449219 434.769531 C 286.550781 441.058594 296.371094 455.199219 296.371094 471.628906 Z M 296.371094 471.628906 " style=" stroke:none;fill-rule:nonzero;fill:rgb(6.27451%,88.627451%,76.862745%);fill-opacity:1;" />
<path d="M 296.371094 471.628906 C 296.371094 482.78125 291.851562 492.871094 284.539062 500.179688 C 283.96875 500.75 283.371094 501.308594 282.761719 501.859375 C 278.78125 505.378906 274.101562 508.140625 268.941406 509.878906 C 268.320312 510.089844 267.691406 510.28125 267.058594 510.46875 C 263.871094 511.371094 260.511719 511.898438 257.050781 511.988281 C 256.710938 512 256.371094 512 256.03125 512 L 256 512 L 256 431.269531 C 259.828125 431.269531 263.539062 431.800781 267.058594 432.800781 C 267.691406 432.988281 268.320312 433.179688 268.941406 433.390625 C 270.140625 433.789062 271.308594 434.25 272.449219 434.769531 C 286.550781 441.058594 296.371094 455.199219 296.371094 471.628906 Z M 296.371094 471.628906 " style=" stroke:none;fill-rule:nonzero;fill:rgb(10.196078%,72.941176%,62.352941%);fill-opacity:1;" />
<path d="M 377.101562 471.628906 C 377.101562 475.351562 376.601562 478.949219 375.660156 482.359375 C 363.261719 488.941406 350.238281 494.519531 336.730469 499.011719 C 332.75 500.328125 328.730469 501.558594 324.671875 502.679688 C 321.289062 503.621094 317.878906 504.488281 314.441406 505.289062 C 303.550781 498.058594 296.371094 485.691406 296.371094 471.628906 C 296.371094 449.46875 314.230469 431.46875 336.351562 431.28125 C 336.480469 431.269531 336.601562 431.269531 336.730469 431.269531 C 340.558594 431.269531 344.269531 431.800781 347.789062 432.800781 C 348.429688 432.988281 349.058594 433.179688 349.679688 433.390625 C 355.621094 435.398438 360.941406 438.75 365.269531 443.089844 C 365.5 443.320312 365.71875 443.550781 365.949219 443.78125 C 372.859375 451.03125 377.101562 460.828125 377.101562 471.628906 Z M 377.101562 471.628906 " style=" stroke:none;fill-rule:nonzero;fill:rgb(97.647059%,63.529412%,74.901961%);fill-opacity:1;" />
<path d="M 377.101562 471.628906 C 377.101562 475.351562 376.601562 478.949219 375.660156 482.359375 C 363.261719 488.941406 350.238281 494.519531 336.730469 499.011719 C 332.75 500.328125 328.730469 501.558594 324.671875 502.679688 C 317.21875 494.480469 312.691406 483.578125 312.691406 471.628906 C 312.691406 470.449219 312.730469 469.289062 312.820312 468.140625 C 312.820312 468.128906 312.820312 468.128906 312.820312 468.128906 C 314.011719 452.28125 323.191406 438.648438 336.351562 431.28125 C 336.359375 431.269531 336.359375 431.269531 336.371094 431.269531 L 336.730469 431.269531 C 340.558594 431.269531 344.269531 431.800781 347.789062 432.800781 C 348.421875 432.980469 349.058594 433.179688 349.679688 433.390625 C 355.621094 435.398438 360.941406 438.75 365.269531 443.089844 C 365.5 443.320312 365.71875 443.550781 365.949219 443.78125 C 372.859375 451.03125 377.101562 460.828125 377.101562 471.628906 Z M 377.101562 471.628906 " style=" stroke:none;fill-rule:nonzero;fill:rgb(97.647059%,52.156863%,65.098039%);fill-opacity:1;" />
<path d="M 377.101562 471.628906 C 377.101562 475.351562 376.601562 478.949219 375.660156 482.359375 C 363.261719 488.941406 350.238281 494.519531 336.730469 499.011719 L 336.730469 431.269531 C 340.558594 431.269531 344.269531 431.800781 347.789062 432.800781 C 348.429688 432.988281 349.058594 433.179688 349.679688 433.390625 C 355.621094 435.398438 360.941406 438.75 365.269531 443.089844 C 365.5 443.320312 365.71875 443.550781 365.949219 443.78125 C 372.859375 451.03125 377.101562 460.828125 377.101562 471.628906 Z M 377.101562 471.628906 " style=" stroke:none;fill-rule:nonzero;fill:rgb(92.941176%,33.72549%,50.588235%);fill-opacity:1;" />
<path d="M 215.628906 471.628906 C 215.628906 475.460938 215.101562 479.171875 214.101562 482.679688 C 213.921875 483.320312 213.71875 483.949219 213.511719 484.578125 C 211.5 490.519531 208.148438 495.839844 203.808594 500.179688 C 203.121094 500.859375 202.421875 501.519531 201.679688 502.160156 C 200.378906 503.289062 199 504.328125 197.558594 505.289062 L 197.550781 505.289062 C 195.308594 504.769531 193.078125 504.21875 190.859375 503.628906 C 185.601562 502.261719 180.398438 500.710938 175.269531 499.011719 C 168.640625 496.808594 162.121094 494.339844 155.75 491.621094 C 149.128906 488.800781 142.660156 485.71875 136.351562 482.371094 C 135.398438 478.949219 134.898438 475.351562 134.898438 471.628906 C 134.898438 450.628906 150.949219 433.359375 171.460938 431.449219 C 172.589844 431.351562 173.730469 431.289062 174.890625 431.28125 C 175.019531 431.269531 175.140625 431.269531 175.269531 431.269531 C 179.101562 431.269531 182.808594 431.800781 186.320312 432.800781 C 186.960938 432.980469 187.589844 433.179688 188.21875 433.390625 C 189.410156 433.800781 190.578125 434.25 191.71875 434.769531 C 202 439.359375 210.011719 448.128906 213.578125 458.921875 C 213.769531 459.46875 213.941406 460.019531 214.101562 460.578125 C 215.101562 464.089844 215.628906 467.800781 215.628906 471.628906 Z M 215.628906 471.628906 " style=" stroke:none;fill-rule:nonzero;fill:rgb(100%,91.372549%,33.333333%);fill-opacity:1;" />
<path d="M 215.628906 471.628906 C 215.628906 475.460938 215.101562 479.171875 214.101562 482.679688 C 213.921875 483.320312 213.71875 483.949219 213.511719 484.578125 C 211.5 490.519531 208.148438 495.839844 203.808594 500.179688 C 203.121094 500.859375 202.421875 501.519531 201.679688 502.160156 C 200.378906 503.289062 199 504.328125 197.558594 505.289062 C 197.558594 505.300781 197.550781 505.300781 197.550781 505.300781 C 197.550781 505.300781 197.550781 505.300781 197.550781 505.289062 C 195.308594 504.769531 193.078125 504.21875 190.859375 503.628906 C 185.601562 502.261719 180.398438 500.710938 175.269531 499.011719 C 168.640625 496.808594 162.121094 494.339844 155.75 491.621094 C 152.839844 485.570312 151.21875 478.789062 151.21875 471.628906 C 151.21875 455.738281 159.238281 441.71875 171.460938 433.410156 C 172.570312 432.648438 173.710938 431.941406 174.890625 431.28125 C 174.890625 431.269531 174.898438 431.269531 174.910156 431.269531 L 175.269531 431.269531 C 179.101562 431.269531 182.808594 431.800781 186.320312 432.800781 C 186.960938 432.980469 187.589844 433.179688 188.21875 433.390625 C 189.410156 433.800781 190.578125 434.25 191.71875 434.769531 C 202 439.359375 210.011719 448.128906 213.578125 458.921875 C 213.769531 459.46875 213.941406 460.019531 214.101562 460.578125 C 215.101562 464.089844 215.628906 467.800781 215.628906 471.628906 Z M 215.628906 471.628906 " style=" stroke:none;fill-rule:nonzero;fill:rgb(100%,81.960784%,7.058824%);fill-opacity:1;" />
<path d="M 215.628906 471.628906 C 215.628906 475.460938 215.101562 479.171875 214.101562 482.679688 C 213.921875 483.320312 213.71875 483.949219 213.511719 484.578125 C 211.5 490.519531 208.148438 495.839844 203.808594 500.179688 C 203.121094 500.859375 202.421875 501.519531 201.679688 502.160156 C 200.378906 503.289062 199 504.328125 197.558594 505.289062 L 197.550781 505.289062 C 195.308594 504.769531 193.078125 504.21875 190.859375 503.628906 C 185.601562 502.261719 180.398438 500.710938 175.269531 499.011719 L 175.269531 431.269531 C 179.101562 431.269531 182.808594 431.800781 186.320312 432.800781 C 186.960938 432.980469 187.589844 433.179688 188.21875 433.390625 C 189.410156 433.800781 190.578125 434.25 191.71875 434.769531 C 202 439.359375 210.011719 448.128906 213.578125 458.921875 C 213.769531 459.46875 213.941406 460.019531 214.101562 460.578125 C 215.101562 464.089844 215.628906 467.800781 215.628906 471.628906 Z M 215.628906 471.628906 " style=" stroke:none;fill-rule:nonzero;fill:rgb(100%,62.352941%,0%);fill-opacity:1;" />
<path d="M 352.339844 188.78125 L 159.660156 188.78125 L 172.699219 177.980469 C 181.378906 170.800781 192.289062 166.871094 203.550781 166.871094 L 308.449219 166.871094 C 319.710938 166.871094 330.621094 170.800781 339.300781 177.980469 Z M 352.339844 188.78125 " style=" stroke:none;fill-rule:nonzero;fill:rgb(77.254902%,34.509804%,20.784314%);fill-opacity:1;" />
<path d="M 352.339844 188.78125 L 200.03125 188.78125 L 213.070312 177.980469 C 221.75 170.800781 232.660156 166.871094 243.921875 166.871094 L 308.449219 166.871094 C 319.710938 166.871094 330.621094 170.800781 339.300781 177.980469 Z M 352.339844 188.78125 " style=" stroke:none;fill-rule:nonzero;fill:rgb(65.098039%,22.352941%,7.843137%);fill-opacity:1;" />
<path d="M 352.339844 188.78125 L 256 188.78125 L 256 166.871094 L 308.449219 166.871094 C 319.710938 166.871094 330.621094 170.800781 339.300781 177.980469 Z M 352.339844 188.78125 " style=" stroke:none;fill-rule:nonzero;fill:rgb(47.843137%,17.647059%,10.196078%);fill-opacity:1;" />
<path d="M 291.050781 166.871094 L 220.949219 166.871094 C 220.949219 147.511719 236.640625 131.820312 256 131.820312 C 256.199219 131.820312 256.398438 131.820312 256.601562 131.828125 C 275.691406 132.148438 291.050781 147.710938 291.050781 166.871094 Z M 291.050781 166.871094 " style=" stroke:none;fill-rule:nonzero;fill:rgb(77.254902%,34.509804%,20.784314%);fill-opacity:1;" />
<path d="M 291.050781 166.871094 L 238.179688 166.871094 C 238.179688 152.328125 245.46875 139.5 256.601562 131.828125 C 275.691406 132.148438 291.050781 147.710938 291.050781 166.871094 Z M 291.050781 166.871094 " style=" stroke:none;fill-rule:nonzero;fill:rgb(65.098039%,22.352941%,7.843137%);fill-opacity:1;" />
<path d="M 291.050781 166.871094 L 256 166.871094 L 256 131.820312 C 275.359375 131.820312 291.050781 147.511719 291.050781 166.871094 Z M 291.050781 166.871094 " style=" stroke:none;fill-rule:nonzero;fill:rgb(47.843137%,17.647059%,10.196078%);fill-opacity:1;" />
</g>
</svg>