<svg xmlns="http://www.w3.org/2000/svg" height="512pt" version="1.1" viewBox="0 0 512 512" width="512pt">
<g id="surface1">
<path d="M 512 256 C 512 334.5 476.671875 404.738281 421.039062 451.699219 C 376.46875 489.320312 318.878906 512 256 512 C 193.121094 512 135.53125 489.320312 90.960938 451.699219 C 35.328125 404.738281 0 334.5 0 256 C 0 114.621094 114.621094 0 256 0 C 397.378906 0 512 114.621094 512 256 Z M 512 256 " style=" stroke:none;fill-rule:nonzero;fill:rgb(40.784314%,98.823529%,87.45098%);fill-opacity:1;" />
<path d="M 512 256 C 512 282.050781 508.109375 307.191406 500.871094 330.871094 C 468.859375 435.71875 371.328125 512 256 512 C 151.441406 512 61.511719 449.300781 21.769531 359.449219 C 7.769531 327.820312 0 292.820312 0 256 C 0 209.78125 12.25 166.429688 33.679688 129 C 77.800781 206.070312 160.839844 258 256 258 C 351.160156 258 434.210938 206.070312 478.320312 129 C 499.75 166.429688 512 209.78125 512 256 Z M 512 256 " style=" stroke:none;fill-rule:nonzero;fill:rgb(6.27451%,88.627451%,76.862745%);fill-opacity:1;" />
<path d="M 481.261719 377.699219 C 474.101562 390.921875 465.828125 403.441406 456.539062 415.128906 C 456.390625 415.320312 456.238281 415.511719 456.078125 415.699219 C 409.171875 474.390625 336.980469 512 256 512 C 175.019531 512 102.828125 474.390625 55.921875 415.699219 C 55.761719 415.511719 55.609375 415.320312 55.460938 415.128906 C 46.171875 403.441406 37.898438 390.921875 30.738281 377.699219 Z M 481.261719 377.699219 " style=" stroke:none;fill-rule:nonzero;fill:rgb(10.196078%,72.941176%,62.352941%);fill-opacity:1;" />
<path d="M 421.039062 451.699219 C 376.46875 489.320312 318.878906 512 256 512 C 193.121094 512 135.53125 489.320312 90.960938 451.699219 Z M 421.039062 451.699219 " style=" stroke:none;fill-rule:nonzero;fill:rgb(19.607843%,23.137255%,35.294118%);fill-opacity:1;" />
<path d="M 414.285156 386.460938 L 402.875 426.140625 L 104.890625 426.140625 L 93.488281 386.460938 C 88.371094 368.617188 86.328125 350.722656 87.003906 333.328125 C 90.351562 247.972656 159.144531 174.175781 250.222656 172.5625 C 251.425781 172.542969 252.636719 172.535156 253.851562 172.535156 L 253.882812 172.535156 C 255.113281 172.535156 256.34375 172.542969 257.554688 172.5625 C 257.765625 172.5625 257.964844 172.578125 258.175781 172.578125 C 349.636719 174.523438 418.476562 249.292969 420.828125 335.273438 C 421.289062 352.070312 419.21875 369.28125 414.285156 386.460938 Z M 414.285156 386.460938 " style=" stroke:none;fill-rule:nonzero;fill:rgb(91.764706%,50.980392%,30.588235%);fill-opacity:1;" />
<path d="M 414.285156 386.460938 L 402.875 426.140625 L 184.558594 426.140625 L 172.09375 382.421875 C 148.148438 298.429688 185.789062 213.769531 253.851562 172.535156 L 253.882812 172.535156 C 255.113281 172.535156 256.34375 172.546875 257.554688 172.5625 C 257.765625 172.5625 257.964844 172.578125 258.175781 172.578125 C 349.636719 174.527344 418.476562 249.296875 420.828125 335.277344 C 421.289062 352.070312 419.21875 369.28125 414.285156 386.460938 Z M 414.285156 386.460938 " style=" stroke:none;fill-rule:nonzero;fill:rgb(77.254902%,34.509804%,20.784314%);fill-opacity:1;" />
<path d="M 414.28125 386.460938 L 402.878906 426.140625 L 253.886719 426.140625 L 253.886719 172.535156 C 255.113281 172.535156 256.339844 172.546875 257.554688 172.566406 C 367.195312 174.5 444.546875 281.066406 414.28125 386.460938 Z M 414.28125 386.460938 " style=" stroke:none;fill-rule:nonzero;fill:rgb(65.098039%,22.352941%,7.843137%);fill-opacity:1;" />
<path d="M 414.28125 386.460938 L 402.878906 426.140625 L 104.894531 426.140625 L 93.492188 386.460938 C 88.367188 368.613281 86.328125 350.722656 87.003906 333.332031 L 104.628906 341.53125 L 155.085938 318.0625 L 205.542969 341.53125 L 255.988281 318.0625 L 306.445312 341.53125 L 356.902344 318.0625 L 407.371094 341.53125 L 420.832031 335.273438 C 421.289062 352.066406 419.214844 369.277344 414.28125 386.460938 Z M 414.28125 386.460938 " style=" stroke:none;fill-rule:nonzero;fill:rgb(47.843137%,17.647059%,10.196078%);fill-opacity:1;" />
<path d="M 457.828125 352.933594 L 413.691406 451.5 L 98.308594 451.5 L 54.171875 352.933594 L 104.628906 376.402344 L 155.085938 352.933594 L 205.542969 376.402344 L 255.988281 352.933594 L 306.445312 376.402344 L 356.902344 352.933594 L 407.371094 376.402344 Z M 457.828125 352.933594 " style=" stroke:none;fill-rule:nonzero;fill:rgb(100%,100%,100%);fill-opacity:1;" />
<path d="M 457.828125 352.933594 L 413.691406 451.5 L 255.988281 451.5 L 255.988281 352.933594 L 306.445312 376.402344 L 356.902344 352.933594 L 407.371094 376.402344 Z M 457.828125 352.933594 " style=" stroke:none;fill-rule:nonzero;fill:rgb(78.039216%,85.098039%,100%);fill-opacity:1;" />
<path d="M 306.445312 376.402344 L 286.367188 451.5 L 225.660156 451.5 L 205.542969 376.402344 L 255.988281 352.933594 Z M 306.445312 376.402344 " style=" stroke:none;fill-rule:nonzero;fill:rgb(100%,81.960784%,7.058824%);fill-opacity:1;" />
<path d="M 156.96875 451.5 L 98.308594 451.5 L 54.171875 352.933594 L 104.628906 376.402344 Z M 156.96875 451.5 " style=" stroke:none;fill-rule:nonzero;fill:rgb(100%,81.960784%,7.058824%);fill-opacity:1;" />
<path d="M 457.828125 352.933594 L 413.691406 451.5 L 355.03125 451.5 L 407.371094 376.402344 Z M 457.828125 352.933594 " style=" stroke:none;fill-rule:nonzero;fill:rgb(100%,62.352941%,0%);fill-opacity:1;" />
<path d="M 306.445312 376.402344 L 286.367188 451.5 L 255.988281 451.5 L 255.988281 352.933594 Z M 306.445312 376.402344 " style=" stroke:none;fill-rule:nonzero;fill:rgb(100%,62.352941%,0%);fill-opacity:1;" />
<path d="M 149.761719 270.59375 C 149.761719 276.484375 144.984375 281.261719 139.09375 281.261719 C 133.203125 281.261719 128.425781 276.484375 128.425781 270.59375 C 128.425781 264.703125 133.203125 259.925781 139.09375 259.925781 C 144.984375 259.925781 149.761719 264.703125 149.761719 270.59375 Z M 149.761719 270.59375 " style=" stroke:none;fill-rule:nonzero;fill:rgb(100%,100%,100%);fill-opacity:1;" />
<path d="M 245.972656 222.378906 C 245.972656 228.269531 241.199219 233.046875 235.308594 233.046875 C 229.414062 233.046875 224.640625 228.269531 224.640625 222.378906 C 224.640625 216.488281 229.414062 211.710938 235.308594 211.710938 C 241.199219 211.710938 245.972656 216.488281 245.972656 222.378906 Z M 245.972656 222.378906 " style=" stroke:none;fill-rule:nonzero;fill:rgb(100%,100%,100%);fill-opacity:1;" />
<path d="M 325.871094 217.035156 C 325.871094 222.929688 321.09375 227.703125 315.203125 227.703125 C 309.3125 227.703125 304.535156 222.929688 304.535156 217.035156 C 304.535156 211.144531 309.3125 206.371094 315.203125 206.371094 C 321.09375 206.371094 325.871094 211.144531 325.871094 217.035156 Z M 325.871094 217.035156 " style=" stroke:none;fill-rule:nonzero;fill:rgb(98.823529%,52.54902%,65.882353%);fill-opacity:1;" />
<path d="M 372.070312 265.746094 C 372.070312 271.636719 367.292969 276.414062 361.402344 276.414062 C 355.511719 276.414062 350.734375 271.636719 350.734375 265.746094 C 350.734375 259.855469 355.511719 255.078125 361.402344 255.078125 C 367.292969 255.078125 372.070312 259.855469 372.070312 265.746094 Z M 372.070312 265.746094 " style=" stroke:none;fill-rule:nonzero;fill:rgb(100%,81.960784%,7.058824%);fill-opacity:1;" />
<path d="M 228.480469 276.777344 C 228.480469 282.671875 223.703125 287.445312 217.8125 287.445312 C 211.921875 287.445312 207.144531 282.671875 207.144531 276.777344 C 207.144531 270.886719 211.921875 266.113281 217.8125 266.113281 C 223.703125 266.113281 228.480469 270.886719 228.480469 276.777344 Z M 228.480469 276.777344 " style=" stroke:none;fill-rule:nonzero;fill:rgb(98.823529%,52.54902%,65.882353%);fill-opacity:1;" />
<path d="M 299.195312 264.894531 C 299.195312 270.785156 294.421875 275.558594 288.53125 275.558594 C 282.640625 275.558594 277.863281 270.785156 277.863281 264.894531 C 277.863281 259 282.640625 254.226562 288.53125 254.226562 C 294.421875 254.226562 299.195312 259 299.195312 264.894531 Z M 299.195312 264.894531 " style=" stroke:none;fill-rule:nonzero;fill:rgb(100%,100%,100%);fill-opacity:1;" />
<path d="M 190.292969 214.273438 C 190.292969 220.164062 185.515625 224.941406 179.625 224.941406 C 173.734375 224.941406 168.960938 220.164062 168.960938 214.273438 C 168.960938 208.382812 173.734375 203.605469 179.625 203.605469 C 185.515625 203.605469 190.292969 208.382812 190.292969 214.273438 Z M 190.292969 214.273438 " style=" stroke:none;fill-rule:nonzero;fill:rgb(100%,81.960784%,7.058824%);fill-opacity:1;" />
</g>
</svg>